<svg width="285" height="169" viewBox="0 0 285 169" fill="none" xmlns="http://www.w3.org/2000/svg">
<path d="M263.296 31.1063H82.3203C78.7601 31.1063 74.7262 33.1767 71.1061 36.862C67.4859 40.5473 64.5761 45.5457 63.0167 50.7575L17.698 202.223C16.1386 207.435 16.0574 212.434 17.4722 216.119C18.8871 219.804 21.682 221.875 25.2423 221.875H206.218C209.504 221.875 213.228 219.963 216.569 216.562C219.911 213.16 222.597 208.546 224.036 203.735L270.264 49.2308C271.703 44.4199 271.778 39.806 270.472 36.4042C269.166 33.0023 266.586 31.0912 263.3 31.0912L263.296 31.1063Z" fill="#7165E3"/>
<path d="M226.358 38.5829L231.398 29.3195L230.138 24.1731L218.168 4.61707L212.498 0.5L209.977 50.9341L226.358 38.5829Z" fill="#7165E3"/>
<path d="M248.522 6.97498H67.5469C63.9866 6.97498 59.9527 9.04538 56.3326 12.7307C52.7125 16.416 49.8027 21.4144 48.2433 26.6262L2.92458 178.092C1.3652 183.304 1.28399 188.302 2.69881 191.988C4.11364 195.673 6.90859 197.743 10.4688 197.743H191.444C194.73 197.743 198.454 195.832 201.796 192.43C205.137 189.028 207.823 184.415 209.263 179.604L255.491 25.0995C256.93 20.2886 257.005 15.6747 255.699 12.2728C254.393 8.87101 251.813 6.95987 248.527 6.95987L248.522 6.97498Z" fill="#F7F6FD"/>
<mask id="mask0_460_8548" style="mask-type:alpha" maskUnits="userSpaceOnUse" x="1" y="6" width="256" height="192">
<path d="M248.522 6.97495H67.5469C63.9866 6.97495 59.9527 9.04535 56.3326 12.7307C52.7125 16.416 49.8027 21.4144 48.2433 26.6262L2.92458 178.092C1.3652 183.304 1.28399 188.302 2.69881 191.987C4.11364 195.673 6.90859 197.743 10.4688 197.743H191.444C194.73 197.743 198.454 195.832 201.796 192.43C205.137 189.028 207.823 184.415 209.263 179.604L255.491 25.0995C256.93 20.2885 257.005 15.6747 255.699 12.2728C254.393 8.87098 251.813 6.95984 248.527 6.95984L248.522 6.97495Z" fill="#F7F6FD"/>
</mask>
<g mask="url(#mask0_460_8548)">
<path d="M464.496 -271.556L253.64 437.662" stroke="#D7D4F7" stroke-width="0.277778"/>
<path d="M460.547 -271.556L249.691 437.662" stroke="#D7D4F7" stroke-width="0.277778"/>
<path d="M456.586 -271.556L245.73 437.662" stroke="#D7D4F7" stroke-width="0.277778"/>
<path d="M452.633 -271.556L241.777 437.662" stroke="#D7D4F7" stroke-width="0.277778"/>
<path d="M448.676 -271.556L237.82 437.662" stroke="#D7D4F7" stroke-width="0.277778"/>
<path d="M444.723 -271.556L233.867 437.662" stroke="#D7D4F7" stroke-width="0.277778"/>
<path d="M440.766 -271.556L229.91 437.662" stroke="#D7D4F7" stroke-width="0.277778"/>
<path d="M436.812 -271.556L225.957 437.662" stroke="#D7D4F7" stroke-width="0.277778"/>
<path d="M432.855 -271.556L222 437.662" stroke="#D7D4F7" stroke-width="0.277778"/>
<path d="M428.902 -271.556L218.046 437.662" stroke="#D7D4F7" stroke-width="0.277778"/>
<path d="M424.945 -271.556L214.089 437.662" stroke="#D7D4F7" stroke-width="0.277778"/>
<path d="M420.992 -271.556L210.136 437.662" stroke="#D7D4F7" stroke-width="0.277778"/>
<path d="M417.035 -271.556L206.179 437.662" stroke="#D7D4F7" stroke-width="0.277778"/>
<path d="M413.082 -271.556L202.226 437.662" stroke="#D7D4F7" stroke-width="0.277778"/>
<path d="M409.125 -271.556L198.269 437.662" stroke="#D7D4F7" stroke-width="0.277778"/>
<path d="M405.172 -271.556L194.316 437.662" stroke="#D7D4F7" stroke-width="0.277778"/>
<path d="M401.211 -271.556L190.355 437.662" stroke="#D7D4F7" stroke-width="0.277778"/>
<path d="M397.254 -271.556L186.398 437.662" stroke="#D7D4F7" stroke-width="0.277778"/>
<path d="M393.305 -271.556L182.449 437.662" stroke="#D7D4F7" stroke-width="0.277778"/>
<path d="M389.344 -271.556L178.488 437.662" stroke="#D7D4F7" stroke-width="0.277778"/>
<path d="M385.391 -271.556L174.535 437.662" stroke="#D7D4F7" stroke-width="0.277778"/>
<path d="M381.434 -271.556L170.578 437.662" stroke="#D7D4F7" stroke-width="0.277778"/>
<path d="M377.48 -271.556L166.625 437.662" stroke="#D7D4F7" stroke-width="0.277778"/>
<path d="M373.52 -271.556L162.664 437.662" stroke="#D7D4F7" stroke-width="0.277778"/>
<path d="M369.562 -271.556L158.707 437.662" stroke="#D7D4F7" stroke-width="0.277778"/>
<path d="M365.609 -271.556L154.754 437.662" stroke="#D7D4F7" stroke-width="0.277778"/>
<path d="M361.652 -271.556L150.796 437.662" stroke="#D7D4F7" stroke-width="0.277778"/>
<path d="M357.699 -271.556L146.843 437.662" stroke="#D7D4F7" stroke-width="0.277778"/>
<path d="M353.742 -271.556L142.886 437.662" stroke="#D7D4F7" stroke-width="0.277778"/>
<path d="M349.789 -271.556L138.933 437.662" stroke="#D7D4F7" stroke-width="0.277778"/>
<path d="M345.832 -271.556L134.976 437.662" stroke="#D7D4F7" stroke-width="0.277778"/>
<path d="M341.879 -271.556L131.023 437.662" stroke="#D7D4F7" stroke-width="0.277778"/>
<path d="M337.922 -271.556L127.066 437.662" stroke="#D7D4F7" stroke-width="0.277778"/>
<path d="M333.969 -271.556L123.113 437.662" stroke="#D7D4F7" stroke-width="0.277778"/>
<path d="M330.008 -271.556L119.152 437.662" stroke="#D7D4F7" stroke-width="0.277778"/>
<path d="M326.055 -271.556L115.199 437.662" stroke="#D7D4F7" stroke-width="0.277778"/>
<path d="M322.102 -271.556L111.246 437.662" stroke="#D7D4F7" stroke-width="0.277778"/>
<path d="M318.145 -271.556L107.289 437.662" stroke="#D7D4F7" stroke-width="0.277778"/>
<path d="M314.188 -271.556L103.332 437.662" stroke="#D7D4F7" stroke-width="0.277778"/>
<path d="M310.234 -271.556L99.3785 437.662" stroke="#D7D4F7" stroke-width="0.277778"/>
<path d="M306.277 -271.556L95.4215 437.662" stroke="#D7D4F7" stroke-width="0.277778"/>
<path d="M302.324 -271.556L91.4684 437.662" stroke="#D7D4F7" stroke-width="0.277778"/>
<path d="M298.363 -271.556L87.5074 437.662" stroke="#D7D4F7" stroke-width="0.277778"/>
<path d="M294.414 -271.556L83.5582 437.662" stroke="#D7D4F7" stroke-width="0.277778"/>
<path d="M290.457 -271.556L79.6012 437.662" stroke="#D7D4F7" stroke-width="0.277778"/>
<path d="M286.496 -271.556L75.6402 437.662" stroke="#D7D4F7" stroke-width="0.277778"/>
<path d="M282.547 -271.556L71.691 437.662" stroke="#D7D4F7" stroke-width="0.277778"/>
<path d="M278.586 -271.556L67.7301 437.662" stroke="#D7D4F7" stroke-width="0.277778"/>
<path d="M274.633 -271.556L63.777 437.662" stroke="#D7D4F7" stroke-width="0.277778"/>
<path d="M270.676 -271.556L59.8199 437.662" stroke="#D7D4F7" stroke-width="0.277778"/>
<path d="M266.723 -271.556L55.8668 437.662" stroke="#D7D4F7" stroke-width="0.277778"/>
<path d="M262.766 -271.556L51.9098 437.662" stroke="#D7D4F7" stroke-width="0.277778"/>
<path d="M258.812 -271.556L47.9566 437.662" stroke="#D7D4F7" stroke-width="0.277778"/>
<path d="M254.855 -271.556L43.9996 437.662" stroke="#D7D4F7" stroke-width="0.277778"/>
<path d="M250.902 -271.556L40.0465 437.662" stroke="#D7D4F7" stroke-width="0.277778"/>
<path d="M246.945 -271.556L36.0895 437.662" stroke="#D7D4F7" stroke-width="0.277778"/>
<path d="M242.984 -271.556L32.1285 437.662" stroke="#D7D4F7" stroke-width="0.277778"/>
<path d="M239.031 -271.556L28.1754 437.662" stroke="#D7D4F7" stroke-width="0.277778"/>
<path d="M235.082 -271.556L24.2262 437.662" stroke="#D7D4F7" stroke-width="0.277778"/>
<path d="M231.121 -271.556L20.2652 437.662" stroke="#D7D4F7" stroke-width="0.277778"/>
<path d="M227.164 -271.556L16.3082 437.662" stroke="#D7D4F7" stroke-width="0.277778"/>
<path d="M223.211 -271.556L12.3551 437.662" stroke="#D7D4F7" stroke-width="0.277778"/>
<path d="M219.254 -271.556L8.39805 437.662" stroke="#D7D4F7" stroke-width="0.277778"/>
<path d="M215.301 -271.556L4.44493 437.662" stroke="#D7D4F7" stroke-width="0.277778"/>
<path d="M211.344 -271.556L0.487895 437.662" stroke="#D7D4F7" stroke-width="0.277778"/>
<path d="M207.391 -271.556L-3.46523 437.662" stroke="#D7D4F7" stroke-width="0.277778"/>
<path d="M203.434 -271.556L-7.42226 437.662" stroke="#D7D4F7" stroke-width="0.277778"/>
<path d="M199.473 -271.556L-11.3832 437.662" stroke="#D7D4F7" stroke-width="0.277778"/>
<path d="M195.523 -271.556L-15.3324 437.662" stroke="#D7D4F7" stroke-width="0.277778"/>
<path d="M191.562 -271.556L-19.2934 437.662" stroke="#D7D4F7" stroke-width="0.277778"/>
<path d="M187.609 -271.556L-23.2465 437.662" stroke="#D7D4F7" stroke-width="0.277778"/>
<path d="M183.652 -271.556L-27.2035 437.662" stroke="#D7D4F7" stroke-width="0.277778"/>
<path d="M179.699 -271.556L-31.1566 437.662" stroke="#D7D4F7" stroke-width="0.277778"/>
<path d="M175.742 -271.556L-35.1137 437.662" stroke="#D7D4F7" stroke-width="0.277778"/>
<path d="M171.789 -271.556L-39.0668 437.662" stroke="#D7D4F7" stroke-width="0.277778"/>
<path d="M167.832 -271.556L-43.0238 437.662" stroke="#D7D4F7" stroke-width="0.277778"/>
<path d="M163.879 -271.556L-46.9769 437.662" stroke="#D7D4F7" stroke-width="0.277778"/>
<path d="M159.922 -271.556L-50.934 437.662" stroke="#D7D4F7" stroke-width="0.277778"/>
<path d="M155.965 -271.556L-54.891 437.662" stroke="#D7D4F7" stroke-width="0.277778"/>
<path d="M152.008 -271.556L-58.848 437.662" stroke="#D7D4F7" stroke-width="0.277778"/>
<path d="M148.059 -271.556L-62.7973 437.662" stroke="#D7D4F7" stroke-width="0.277778"/>
<path d="M144.098 -271.556L-66.7582 437.662" stroke="#D7D4F7" stroke-width="0.277778"/>
<path d="M140.145 -271.556L-70.7113 437.662" stroke="#D7D4F7" stroke-width="0.277778"/>
<path d="M136.188 -271.556L-74.6684 437.662" stroke="#D7D4F7" stroke-width="0.277778"/>
<path d="M132.234 -271.556L-78.6215 437.662" stroke="#D7D4F7" stroke-width="0.277778"/>
<path d="M128.277 -271.556L-82.5785 437.662" stroke="#D7D4F7" stroke-width="0.277778"/>
<path d="M124.324 -271.556L-86.5316 437.662" stroke="#D7D4F7" stroke-width="0.277778"/>
<path d="M120.367 -271.556L-90.4887 437.662" stroke="#D7D4F7" stroke-width="0.277778"/>
<path d="M116.406 -271.556L-94.4496 437.662" stroke="#D7D4F7" stroke-width="0.277778"/>
<path d="M112.457 -271.556L-98.3988 437.662" stroke="#D7D4F7" stroke-width="0.277778"/>
<path d="M108.504 -271.556L-102.352 437.662" stroke="#D7D4F7" stroke-width="0.277778"/>
<path d="M104.543 -271.556L-106.313 437.662" stroke="#D7D4F7" stroke-width="0.277778"/>
<path d="M100.594 -271.556L-110.262 437.662" stroke="#D7D4F7" stroke-width="0.277778"/>
<path d="M96.6328 -271.556L-114.223 437.662" stroke="#D7D4F7" stroke-width="0.277778"/>
<path d="M92.6758 -271.556L-118.18 437.662" stroke="#D7D4F7" stroke-width="0.277778"/>
<path d="M88.7227 -271.556L-122.133 437.662" stroke="#D7D4F7" stroke-width="0.277778"/>
<path d="M84.7656 -271.556L-126.09 437.662" stroke="#D7D4F7" stroke-width="0.277778"/>
<path d="M80.8125 -271.556L-130.043 437.662" stroke="#D7D4F7" stroke-width="0.277778"/>
<path d="M76.8555 -271.556L-134 437.662" stroke="#D7D4F7" stroke-width="0.277778"/>
<path d="M72.9023 -271.556L-137.954 437.662" stroke="#D7D4F7" stroke-width="0.277778"/>
<path d="M68.9453 -271.556L-141.911 437.662" stroke="#D7D4F7" stroke-width="0.277778"/>
<path d="M64.9844 -271.556L-145.871 437.662" stroke="#D7D4F7" stroke-width="0.277778"/>
<path d="M61.0352 -271.556L-149.821 437.662" stroke="#D7D4F7" stroke-width="0.277778"/>
<path d="M57.0742 -271.556L-153.782 437.662" stroke="#D7D4F7" stroke-width="0.277778"/>
<path d="M53.1211 -271.556L-157.735 437.662" stroke="#D7D4F7" stroke-width="0.277778"/>
<path d="M49.1641 -271.556L-161.692 437.662" stroke="#D7D4F7" stroke-width="0.277778"/>
<path d="M45.2109 -271.556L-165.645 437.662" stroke="#D7D4F7" stroke-width="0.277778"/>
<path d="M41.2539 -271.556L-169.602 437.662" stroke="#D7D4F7" stroke-width="0.277778"/>
<path d="M37.3008 -271.556L-173.555 437.662" stroke="#D7D4F7" stroke-width="0.277778"/>
<path d="M33.3438 -271.556L-177.512 437.662" stroke="#D7D4F7" stroke-width="0.277778"/>
<path d="M29.3828 -271.556L-181.473 437.662" stroke="#D7D4F7" stroke-width="0.277778"/>
<path d="M25.4336 -271.556L-185.422 437.662" stroke="#D7D4F7" stroke-width="0.277778"/>
<path d="M21.4805 -271.556L-189.375 437.662" stroke="#D7D4F7" stroke-width="0.277778"/>
<path d="M17.5195 -271.556L-193.336 437.662" stroke="#D7D4F7" stroke-width="0.277778"/>
<path d="M13.5703 -271.556L-197.286 437.662" stroke="#D7D4F7" stroke-width="0.277778"/>
<path d="M9.60938 -271.556L-201.246 437.662" stroke="#D7D4F7" stroke-width="0.277778"/>
<path d="M5.65234 -271.556L-205.204 437.662" stroke="#D7D4F7" stroke-width="0.277778"/>
<path d="M1.69922 -271.556L-209.157 437.662" stroke="#D7D4F7" stroke-width="0.277778"/>
<path d="M607.488 165.635L-225.55 344.71" stroke="#D7D4F7" stroke-width="0.277778"/>
<path d="M605.508 161.437L-227.53 340.511" stroke="#D7D4F7" stroke-width="0.277778"/>
<path d="M603.527 157.239L-229.511 336.314" stroke="#D7D4F7" stroke-width="0.277778"/>
<path d="M601.551 153.041L-231.487 332.116" stroke="#D7D4F7" stroke-width="0.277778"/>
<path d="M599.578 148.843L-233.46 327.917" stroke="#D7D4F7" stroke-width="0.277778"/>
<path d="M597.598 144.645L-235.44 323.72" stroke="#D7D4F7" stroke-width="0.277778"/>
<path d="M595.617 140.447L-237.421 319.521" stroke="#D7D4F7" stroke-width="0.277778"/>
<path d="M593.641 136.249L-239.397 315.323" stroke="#D7D4F7" stroke-width="0.277778"/>
<path d="M591.66 132.051L-241.378 311.125" stroke="#D7D4F7" stroke-width="0.277778"/>
<path d="M589.688 127.853L-243.351 306.927" stroke="#D7D4F7" stroke-width="0.277778"/>
<path d="M587.707 123.655L-245.331 302.729" stroke="#D7D4F7" stroke-width="0.277778"/>
<path d="M585.727 119.457L-247.312 298.531" stroke="#D7D4F7" stroke-width="0.277778"/>
<path d="M583.75 115.259L-249.288 294.333" stroke="#D7D4F7" stroke-width="0.277778"/>
<path d="M581.777 111.062L-251.261 290.136" stroke="#D7D4F7" stroke-width="0.277778"/>
<path d="M579.797 106.863L-253.241 285.937" stroke="#D7D4F7" stroke-width="0.277778"/>
<path d="M577.82 102.665L-255.218 281.739" stroke="#D7D4F7" stroke-width="0.277778"/>
<path d="M575.84 98.4672L-257.198 277.541" stroke="#D7D4F7" stroke-width="0.277778"/>
<path d="M573.863 94.2694L-259.175 273.344" stroke="#D7D4F7" stroke-width="0.277778"/>
<path d="M571.887 90.0712L-261.151 269.145" stroke="#D7D4F7" stroke-width="0.277778"/>
<path d="M569.91 85.8732L-263.128 264.947" stroke="#D7D4F7" stroke-width="0.277778"/>
<path d="M567.93 81.6752L-265.108 260.749" stroke="#D7D4F7" stroke-width="0.277778"/>
<path d="M565.953 77.4772L-267.085 256.551" stroke="#D7D4F7" stroke-width="0.277778"/>
<path d="M563.973 73.2791L-269.065 252.353" stroke="#D7D4F7" stroke-width="0.277778"/>
<path d="M561.996 69.0811L-271.042 248.155" stroke="#D7D4F7" stroke-width="0.277778"/>
<path d="M560.02 64.883L-273.019 243.957" stroke="#D7D4F7" stroke-width="0.277778"/>
<path d="M558.043 60.685L-274.995 239.759" stroke="#D7D4F7" stroke-width="0.277778"/>
<path d="M556.062 56.4871L-276.976 235.561" stroke="#D7D4F7" stroke-width="0.277778"/>
<path d="M554.086 52.2889L-278.952 231.363" stroke="#D7D4F7" stroke-width="0.277778"/>
<path d="M552.105 48.0909L-280.933 227.165" stroke="#D7D4F7" stroke-width="0.277778"/>
<path d="M550.133 43.8928L-282.905 222.967" stroke="#D7D4F7" stroke-width="0.277778"/>
<path d="M548.152 39.6949L-284.886 218.769" stroke="#D7D4F7" stroke-width="0.277778"/>
<path d="M546.176 35.4969L-286.862 214.571" stroke="#D7D4F7" stroke-width="0.277778"/>
<path d="M544.195 31.2986L-288.843 210.373" stroke="#D7D4F7" stroke-width="0.277778"/>
<path d="M542.223 27.1007L-290.815 206.175" stroke="#D7D4F7" stroke-width="0.277778"/>
<path d="M540.242 22.9028L-292.796 201.977" stroke="#D7D4F7" stroke-width="0.277778"/>
<path d="M538.266 18.7047L-294.772 197.779" stroke="#D7D4F7" stroke-width="0.277778"/>
<path d="M536.285 14.5066L-296.753 193.581" stroke="#D7D4F7" stroke-width="0.277778"/>
<path d="M534.305 10.3091L-298.733 189.383" stroke="#D7D4F7" stroke-width="0.277778"/>
<path d="M532.332 6.11087L-300.706 185.185" stroke="#D7D4F7" stroke-width="0.277778"/>
<path d="M530.352 1.91281L-302.687 180.987" stroke="#D7D4F7" stroke-width="0.277778"/>
<path d="M528.375 -2.28513L-304.663 176.789" stroke="#D7D4F7" stroke-width="0.277778"/>
<path d="M526.395 -6.48303L-306.644 172.591" stroke="#D7D4F7" stroke-width="0.277778"/>
<path d="M524.422 -10.6812L-308.616 168.393" stroke="#D7D4F7" stroke-width="0.277778"/>
<path d="M522.441 -14.8792L-310.597 164.195" stroke="#D7D4F7" stroke-width="0.277778"/>
<path d="M520.465 -19.0771L-312.573 159.997" stroke="#D7D4F7" stroke-width="0.277778"/>
<path d="M518.484 -23.2752L-314.554 155.799" stroke="#D7D4F7" stroke-width="0.277778"/>
<path d="M516.504 -27.4734L-316.534 151.601" stroke="#D7D4F7" stroke-width="0.277778"/>
<path d="M514.531 -31.6713L-318.507 147.403" stroke="#D7D4F7" stroke-width="0.277778"/>
<path d="M512.555 -35.8693L-320.483 143.205" stroke="#D7D4F7" stroke-width="0.277778"/>
<path d="M510.574 -40.0673L-322.464 139.007" stroke="#D7D4F7" stroke-width="0.277778"/>
<path d="M508.602 -44.2653L-324.437 134.809" stroke="#D7D4F7" stroke-width="0.277778"/>
<path d="M506.621 -48.4634L-326.417 130.611" stroke="#D7D4F7" stroke-width="0.277778"/>
<path d="M504.641 -52.6614L-328.397 126.413" stroke="#D7D4F7" stroke-width="0.277778"/>
<path d="M502.664 -56.8594L-330.374 122.215" stroke="#D7D4F7" stroke-width="0.277778"/>
<path d="M500.684 -61.0574L-332.355 118.017" stroke="#D7D4F7" stroke-width="0.277778"/>
<path d="M498.711 -65.2556L-334.327 113.819" stroke="#D7D4F7" stroke-width="0.277778"/>
<path d="M496.73 -69.4536L-336.308 109.621" stroke="#D7D4F7" stroke-width="0.277778"/>
<path d="M494.754 -73.6516L-338.284 105.423" stroke="#D7D4F7" stroke-width="0.277778"/>
<path d="M492.773 -77.8496L-340.265 101.225" stroke="#D7D4F7" stroke-width="0.277778"/>
<path d="M490.801 -82.0477L-342.237 97.0265" stroke="#D7D4F7" stroke-width="0.277778"/>
<path d="M488.82 -86.2457L-344.218 92.8285" stroke="#D7D4F7" stroke-width="0.277778"/>
<path d="M486.84 -90.4436L-346.198 88.6306" stroke="#D7D4F7" stroke-width="0.277778"/>
<path d="M484.863 -94.6415L-348.175 84.4326" stroke="#D7D4F7" stroke-width="0.277778"/>
<path d="M482.891 -98.8394L-350.147 80.2348" stroke="#D7D4F7" stroke-width="0.277778"/>
<path d="M480.91 -103.037L-352.128 76.0368" stroke="#D7D4F7" stroke-width="0.277778"/>
<path d="M478.93 -107.236L-354.108 71.8386" stroke="#D7D4F7" stroke-width="0.277778"/>
<path d="M476.953 -111.434L-356.085 67.6405" stroke="#D7D4F7" stroke-width="0.277778"/>
<path d="M474.973 -115.632L-358.065 63.4427" stroke="#D7D4F7" stroke-width="0.277778"/>
<path d="M473 -119.829L-360.038 59.2447" stroke="#D7D4F7" stroke-width="0.277778"/>
<path d="M471.02 -124.028L-362.019 55.0466" stroke="#D7D4F7" stroke-width="0.277778"/>
<path d="M469.039 -128.226L-363.999 50.8485" stroke="#D7D4F7" stroke-width="0.277778"/>
<path d="M467.062 -132.424L-365.976 46.6506" stroke="#D7D4F7" stroke-width="0.277778"/>
<path d="M465.09 -136.622L-367.948 42.4525" stroke="#D7D4F7" stroke-width="0.277778"/>
<path d="M463.109 -140.82L-369.929 38.2543" stroke="#D7D4F7" stroke-width="0.277778"/>
<path d="M461.129 -145.018L-371.909 34.0564" stroke="#D7D4F7" stroke-width="0.277778"/>
<path d="M459.152 -149.216L-373.886 29.8585" stroke="#D7D4F7" stroke-width="0.277778"/>
<path d="M457.172 -153.414L-375.866 25.6605" stroke="#D7D4F7" stroke-width="0.277778"/>
<path d="M455.199 -157.612L-377.839 21.4624" stroke="#D7D4F7" stroke-width="0.277778"/>
<path d="M453.223 -161.81L-379.815 17.2643" stroke="#D7D4F7" stroke-width="0.277778"/>
<path d="M451.242 -166.008L-381.796 13.0661" stroke="#D7D4F7" stroke-width="0.277778"/>
<path d="M449.262 -170.206L-383.776 8.86822" stroke="#D7D4F7" stroke-width="0.277778"/>
</g>
<g opacity="0.4">
<path opacity="0.2" d="M230.41 108.856L45.0428 37.3117L38.263 59.9715L220.741 141.171L230.41 108.856Z" fill="#7165E3"/>
</g>
<g opacity="0.4">
<path opacity="0.2" d="M142.426 8.04407L101.911 82.5809L49.779 198.729H31.4596L101.081 64.6731L125.439 8.04407H142.426Z" fill="#7165E3"/>
</g>
<path d="M111.758 66.2454C114.997 67.4997 119.09 66.5174 123.119 64.8551C127.148 63.1927 131.217 60.8806 135.231 59.3694C145.115 55.713 154.103 57.1184 160.362 63.2985C160.69 63.5377 160.904 63.9553 160.973 64.4924C160.941 65.1701 160.718 65.9153 160.344 66.593L137.596 113.305C136.908 114.951 135.915 116.467 134.754 117.642C133.025 119.153 131.375 118.609 129.95 118.004C125.375 116.255 121.174 113.722 117.415 110.448C113.659 107.123 111.09 102.053 109.958 95.7291C109.514 92.7067 109.461 89.4425 108.928 86.5107C108.526 83.4468 107.172 81.1869 105.117 80.1485L111.758 66.2454Z" fill="#F7F6FD"/>
<path d="M43.074 81.841C51.3217 61.9837 59.6112 42.0206 69.7827 22.9944C78.8525 22.7224 85.4457 29.1451 90.1799 37.1696C94.9141 45.1941 98.2654 54.881 103.117 62.7544L98.7501 77.0051C96.4788 75.6781 93.5977 75.6516 90.5359 76.9295C87.5136 78.1879 84.4706 79.7807 81.4411 81.6899C74.4792 85.9616 67.4948 88.9424 60.7264 90.5304C54.0229 91.8754 47.6314 90.9385 43.3255 86.5408C42.7111 86.1163 42.3577 85.288 42.339 84.2287C42.4472 83.4424 42.6997 82.6223 43.074 81.841V81.841Z" fill="#F7F6FD"/>
<g opacity="0.3">
<path opacity="0.4" d="M111.754 66.2455C114.993 67.4998 119.086 66.5175 123.115 64.8552C127.144 63.1929 131.213 60.8807 135.227 59.3695C145.111 55.7131 154.099 57.1185 160.358 63.2986C160.686 63.5378 160.9 63.9554 160.969 64.4925C160.937 65.1702 160.714 65.9154 160.34 66.5931L137.592 113.305C136.904 114.951 135.911 116.467 134.75 117.642C133.021 119.153 131.372 118.609 129.946 118.004C125.371 116.255 121.17 113.722 117.412 110.448C113.655 107.123 111.086 102.053 109.955 95.7292C109.51 92.7068 109.457 89.4426 108.924 86.5108C108.522 83.4469 107.168 81.187 105.113 80.1486L111.754 66.2455Z" fill="#7165E3"/>
</g>
<path d="M111.76 66.2455L111.317 67.1068C111.004 67.7415 110.577 68.6181 110.016 69.7364L104.976 80.0428L104.922 80.2242H105.045C106.502 80.9045 107.583 82.2741 108.158 84.1684C108.817 86.4754 109.212 89.0123 109.336 91.7245C109.509 94.8644 110.021 97.7801 110.86 100.399C111.812 103.307 113.129 105.848 114.776 107.955C118.156 112.489 123.101 115.405 128.571 117.838C129.942 118.382 131.208 119.349 133.16 118.881C133.64 118.758 134.138 118.501 134.623 118.127C135.107 117.752 135.567 117.268 135.973 116.705C136.724 115.596 137.388 114.405 137.948 113.169C140.268 108.408 142.644 103.527 145.06 98.5854C148.609 91.3013 152.066 84.1835 155.421 77.3075C157.086 73.8771 158.737 70.492 160.34 67.1975C160.843 66.325 161.181 65.3636 161.308 64.4471C161.218 63.6469 160.889 63.0422 160.377 62.7394C159.578 61.9687 158.77 61.2282 157.903 60.6842C154.614 58.4081 150.763 57.1901 146.531 57.0875C142.822 56.9456 138.857 57.6853 134.787 59.2788C131.092 60.79 127.768 62.5732 124.874 63.8124C122.383 65.009 119.911 65.8603 117.505 66.3512C115.986 66.653 114.523 66.6987 113.15 66.4873C112.222 66.321 111.73 66.1397 111.742 66.1699C111.844 66.2413 111.955 66.2969 112.073 66.3361C112.398 66.4644 112.736 66.5653 113.084 66.6384C114.446 66.9186 115.91 66.9186 117.439 66.6384C119.857 66.1986 122.346 65.3824 124.86 64.2053C127.783 62.9359 131.108 61.1829 134.783 59.6717C143.366 56.4074 151.336 56.9389 157.445 61.1829C158.294 61.7874 159.124 62.4523 159.928 63.2079C160.33 63.5857 160.736 63.9484 160.73 64.5529C160.606 65.3106 160.314 66.0962 159.892 66.8046C158.278 70.1091 156.63 73.4841 154.947 76.9297C151.607 83.7906 148.139 90.9084 144.58 98.1925C142.171 103.149 139.803 108.01 137.478 112.776C136.959 113.945 136.334 115.071 135.624 116.115C135.284 116.589 134.899 116.997 134.493 117.312C134.086 117.627 133.668 117.842 133.265 117.944C131.609 118.352 130.312 117.491 128.904 116.931C123.445 114.529 118.551 111.582 115.177 107.199C113.544 105.15 112.226 102.682 111.259 99.8548C110.424 97.2744 109.897 94.4115 109.691 91.3316C109.549 88.6088 109.126 86.0707 108.43 83.7755C107.821 81.8298 106.684 80.4378 105.16 79.7708L105.191 80.0126C107.288 75.5847 108.926 72.1392 110.048 69.7666L111.316 67.0766C111.615 66.593 111.76 66.2455 111.76 66.2455Z" fill="#7165E3"/>
<g opacity="0.3">
<path opacity="0.4" d="M43.0701 81.841C51.3178 61.9837 59.6073 42.0206 69.7787 22.9945C78.8486 22.7225 85.4417 29.1451 90.176 37.1696C94.9102 45.1941 98.2615 54.881 103.113 62.7544L98.7462 77.0051C96.4749 75.6782 93.5938 75.6517 90.532 76.9296C87.5097 78.188 84.4667 79.7807 81.4372 81.6899C74.4753 85.9617 67.4909 88.9425 60.7225 90.5305C54.0189 91.8754 47.6275 90.9385 43.3216 86.5409C42.7071 86.1163 42.3538 85.288 42.3351 84.2287C42.4433 83.4425 42.6958 82.6223 43.0701 81.841V81.841Z" fill="#7165E3"/>
</g>
<path d="M43.0759 81.8409C42.8048 82.3742 42.5863 82.9305 42.4286 83.4882C42.2341 84.1938 42.2324 84.8637 42.424 85.3621C42.6958 86.0006 43.0796 86.5124 43.5574 86.8733C46.4136 89.6103 50.011 91.1076 54.0866 91.2558C59.2348 91.6336 66.112 89.8806 73.9059 86.027C75.8684 85.0195 77.8716 83.9566 79.9153 82.8383C81.9784 81.6898 84.0867 80.3902 86.2263 79.2265C88.4044 77.9943 90.5791 77.1104 92.6965 76.5971C94.8902 76.046 96.9088 76.291 98.5483 77.3073L98.8396 77.5038L99.0024 76.9597C100.359 72.4261 101.869 67.6205 103.379 62.709L103.438 62.5126L103.361 62.3917C101.076 58.6741 99.0285 54.3671 96.991 49.9242C93.6563 42.625 90.3587 35.477 85.8927 30.4447C81.4267 25.4123 75.9474 22.3899 69.9021 22.6015H69.7374L69.6226 22.8131C62.3782 36.7167 55.7574 50.9424 49.8165 65.3687C47.6285 70.5824 45.9502 74.6778 44.8093 77.4584C44.2537 78.8336 43.8239 79.8915 43.5213 80.6622C43.4218 80.9947 43.2786 81.2667 43.1948 81.4783C43.1572 81.5735 43.1283 81.6701 43.1088 81.7654C43.1088 81.7654 43.136 81.6747 43.2417 81.4934L43.5991 80.6773C43.9213 79.9217 44.3717 78.8639 44.9502 77.5038C46.1503 74.6627 47.8814 70.5975 50.081 65.4141C56.0857 51.0434 62.7345 36.8718 69.9757 23.0095L69.7019 23.2362C75.6455 23.0548 81.0856 26.0017 85.4338 31.0491C89.7821 36.0966 93.1422 43.1388 96.4473 50.4682C98.4951 54.9112 100.548 59.2332 102.86 62.9659L102.842 62.6486C101.372 67.56 99.8724 72.3657 98.4851 76.8993L98.9391 76.5517C97.2234 75.5068 95.1192 75.2568 92.8344 75.8263C90.6691 76.3539 88.4449 77.2633 86.2181 78.5314C84.0533 79.7101 81.9508 81.0249 79.898 82.1734C77.8453 83.3219 75.862 84.41 73.915 85.3772C67.1286 88.9745 60.4275 90.7961 54.2345 90.7269C50.1807 90.626 46.5822 89.218 43.6903 86.6013C43.222 86.2353 42.8454 85.7239 42.5774 85.0901C42.3891 84.6317 42.3763 84.0125 42.5414 83.3521C42.7036 82.8468 42.8819 82.3424 43.0759 81.8409Z" fill="#7165E3"/>
<path d="M102.827 83.0047C102.827 83.0047 105.112 83.5941 104.049 93.7192C102.986 103.844 92.9026 150.828 92.9026 150.828L58.6979 162.842L95.3391 84.4253L102.827 83.0047Z" fill="#F7F6FD"/>
<path d="M93.6536 82.8689L60.4444 133.676L53.5115 103.784C53.5115 103.784 81.4322 77.7761 94.1002 78.2446L93.6536 82.8689Z" fill="#F7F6FD"/>
<g opacity="0.3">
<path opacity="0.4" d="M102.827 83.0047C102.827 83.0047 105.112 83.5941 104.049 93.7192C102.986 103.844 92.9026 150.828 92.9026 150.828L58.6978 162.842L95.3391 84.4253L102.827 83.0047Z" fill="#7165E3"/>
</g>
<g opacity="0.3">
<path opacity="0.4" d="M93.6536 82.869L60.4444 133.676L53.5115 103.784C53.5115 103.784 81.4322 77.7762 94.1002 78.2447L93.6536 82.869Z" fill="#7165E3"/>
</g>
<path d="M102.827 83.0049C102.683 82.9848 102.531 82.9848 102.374 83.0049L100.958 83.2316L95.3717 84.2139H95.2893L95.2532 84.3348C88.5512 98.51 74.8109 127.812 58.5064 162.691L58.2135 163.326L58.6957 163.16L68.2349 159.805L92.8708 151.176H93.087L93.182 150.858C97.5081 130.412 101.07 112.897 103.18 100.58C104.196 95.7103 104.582 90.9931 104.322 86.647C104.229 85.4904 103.952 84.4652 103.507 83.6246C103.381 83.4211 103.227 83.2535 103.049 83.1258C102.927 83.0503 102.849 83.0352 102.845 83.0503L103.02 83.1863C103.175 83.3348 103.307 83.5174 103.413 83.7303C103.822 84.586 104.07 85.6097 104.146 86.7527C104.323 91.1201 103.879 95.8272 102.834 100.671C100.631 112.987 96.9971 130.502 92.64 150.949L92.9475 150.541L68.2865 159.185L58.7473 162.54L58.9263 163.008C75.2102 128.13 88.8507 98.782 95.4164 84.5464L95.2875 84.6673L100.888 83.5339L102.332 83.2165L102.827 83.0049Z" fill="#7165E3"/>
<path d="M93.6475 82.8687C93.6475 82.8687 93.6747 82.778 93.7334 82.5816L93.8458 81.69L94.2062 78.2142L94.2333 78.1235H94.1304C91.1184 77.8666 85.4097 79.7405 78.3397 84.1684C69.8763 89.5579 61.5125 96.0454 53.4015 103.512L53.1439 103.754L53.2124 104.041L56.3951 117.732L60.16 133.917L60.2773 134.386L60.6208 133.857L84.3783 97.331L91.2191 86.7525L93.0369 83.9115C93.2546 83.5953 93.4547 83.2609 93.634 82.914C93.634 82.914 93.3903 83.2465 92.9488 83.8963L91.0782 86.7072C89.417 89.2309 87.0662 92.752 84.0933 97.2857C78.1371 106.353 69.8519 118.972 60.2686 133.555H60.701L56.9278 117.294L53.7302 103.618L53.5765 104.131C61.6428 96.6892 69.9539 90.1843 78.368 84.7275C85.4368 80.2694 91.0285 78.3048 94.0354 78.4409L93.9802 78.3502L93.7247 81.7504C93.7031 82.098 93.6744 82.4002 93.6684 82.6269C93.6566 82.7093 93.6496 82.7902 93.6475 82.8687V82.8687Z" fill="#7165E3"/>
<path d="M108.151 76.8237C108.12 76.9294 109.388 77.3375 111.402 78.1082C113.416 78.8789 116.141 80.0576 118.993 81.6746C121.846 83.2916 124.242 85.09 125.922 86.4954C126.784 87.3217 127.699 88.0632 128.665 88.7169C128.512 88.3893 128.314 88.1147 128.075 87.9008C127.668 87.4021 127.039 86.7523 126.24 85.9816C124.12 84.0179 121.828 82.3314 119.38 80.9342C116.943 79.5234 114.359 78.3976 111.647 77.5642C110.599 77.2468 109.75 77.0201 109.133 76.9143C108.835 76.8043 108.504 76.7737 108.151 76.8237V76.8237Z" fill="#7165E3"/>
<path d="M110.709 71.9578C111.818 72.106 112.96 72.1615 114.129 72.1241C116.887 72.208 119.569 72.5259 122.163 73.0761C125.187 73.7411 127.804 74.6629 129.717 75.3581C130.703 75.7984 131.736 76.1366 132.812 76.3706C132.608 76.1457 132.367 75.9779 132.096 75.8719C131.606 75.5847 130.88 75.222 129.973 74.814C127.593 73.7227 125.092 72.8848 122.486 72.3054C119.878 71.7352 117.146 71.4876 114.317 71.5649C113.287 71.5649 112.339 71.6707 111.719 71.7463C111.398 71.7467 111.057 71.818 110.709 71.9578V71.9578Z" fill="#7165E3"/>
<path d="M72.6303 55.1833C72.5896 55.3193 74.2311 55.3042 76.7777 55.6367C80.0852 56.0555 83.2011 56.9872 86.0771 58.4173C88.9339 59.887 91.5188 61.8731 93.7873 64.3413C95.5091 66.2605 96.427 67.666 96.525 67.5451C96.3741 67.1384 96.1831 66.7739 95.9548 66.457C95.399 65.5202 94.7839 64.6573 94.1128 63.8728C91.9291 61.217 89.3566 59.1298 86.4576 57.6617C83.5434 56.2048 80.3467 55.3373 76.9348 55.0776C75.6337 54.9869 74.5572 54.9718 73.7842 55.0776C73.4161 55.0526 73.0291 55.088 72.6303 55.1833Z" fill="#7165E3"/>
<path d="M70.1653 68.7542C70.3978 68.9794 70.666 69.147 70.9633 69.2529C71.4849 69.54 72.2766 69.8876 73.2859 70.2654C75.9116 71.2504 78.6804 71.9121 81.5687 72.245C84.4566 72.5809 87.458 72.5809 90.5469 72.245C91.7349 72.0939 92.6965 71.9428 93.3904 71.7917C93.7338 71.7566 94.0913 71.6602 94.4544 71.5045C93.2272 71.4726 91.9719 71.5332 90.6936 71.6859C87.6682 71.8622 84.7138 71.7865 81.845 71.4592C78.9851 71.1124 76.2097 70.5323 73.531 69.7213C72.4486 69.3072 71.3253 68.9844 70.1653 68.7542V68.7542Z" fill="#7165E3"/>
<path d="M93.4683 73.469C94.6661 70.7464 96.1231 68.1299 97.7853 65.7165C99.195 63.5857 100.085 61.47 102.484 60.3366C103.518 59.9558 104.505 59.8941 105.367 60.1563C106.228 60.4186 106.94 60.9976 107.447 61.8478C109.333 60.0192 111.245 61.062 112.193 62.7092C112.633 63.5857 112.854 64.6919 112.839 65.9386C112.823 67.1853 112.572 68.5379 112.105 69.8874C111.142 72.5721 109.774 75.1623 108.114 77.4435C105.806 80.9337 103.001 83.783 100.067 85.6191C98.7564 86.3793 97.4562 86.7252 96.2875 86.6248C95.1187 86.5244 94.1192 85.9809 93.3819 85.0449C92.4356 83.8546 91.9365 82.1063 91.9519 80.0362C91.9674 77.9661 92.4966 75.6739 93.4683 73.469V73.469Z" fill="#F7F6FD"/>
<g opacity="0.4">
<path opacity="0.3" d="M93.4644 73.469C94.6622 70.7464 96.1192 68.1299 97.7813 65.7165C99.1911 63.5856 100.082 61.47 102.48 60.3365C103.515 59.9558 104.501 59.8941 105.363 60.1563C106.224 60.4186 106.936 60.9976 107.443 61.8478C109.329 60.0192 111.241 61.0619 112.19 62.7092C112.629 63.5857 112.85 64.6918 112.835 65.9386C112.82 67.1853 112.568 68.5379 112.101 69.8874C111.138 72.5721 109.77 75.1623 108.11 77.4435C105.802 80.9337 102.998 83.783 100.063 85.6191C98.7525 86.3792 97.4523 86.7252 96.2835 86.6248C95.1148 86.5244 94.1153 85.9809 93.3779 85.0448C92.4317 83.8546 91.9325 82.1063 91.948 80.0362C91.9634 77.9661 92.4927 75.6738 93.4644 73.469V73.469Z" fill="#7165E3"/>
</g>
<path d="M93.4695 73.4691C93.3138 73.74 93.1801 74.0248 93.0721 74.3154C92.7502 75.1259 92.4807 75.946 92.2676 76.7636C91.5948 79.3772 91.6012 81.8463 92.2856 83.7213C92.9699 85.5963 94.2866 86.7525 95.9961 86.9794C97.6176 87.1581 99.4767 86.5207 101.285 85.1659C103.258 83.71 105.145 81.807 106.829 79.5744C108.681 77.247 110.3 74.607 111.594 71.8068C112.34 70.2106 112.826 68.5405 113.007 66.9539C113.188 65.3674 113.058 63.9169 112.628 62.7395C112.149 61.7161 111.423 60.9898 110.512 60.6238C110.081 60.4123 109.566 60.3859 109.014 60.5469C108.462 60.7079 107.892 61.0512 107.354 61.5457H107.693C107.094 60.3924 106.119 59.7237 104.917 59.6416C103.886 59.42 102.67 59.756 101.471 60.5936C100.424 61.3992 99.4612 62.5494 98.7145 63.8881C98.0266 65.0517 97.3472 66.0491 96.7444 67.0314C95.8073 68.5148 94.9556 70.0696 94.2032 71.6708C93.9994 72.0928 93.8125 72.522 93.6438 72.9553C93.5579 73.2425 93.5127 73.3936 93.5127 73.3936C93.5127 73.3936 93.8023 72.8042 94.3498 71.7312C95.1497 70.1694 96.0272 68.6526 96.9727 67.1976C97.5677 66.2758 98.2915 65.233 98.9955 64.0845C99.6919 62.8503 100.587 61.7946 101.557 61.0621C102.661 60.3208 103.772 60.0386 104.711 60.2611C105.816 60.3465 106.715 60.9608 107.275 62.0141L107.368 62.2559L107.6 62.0293C108.056 61.6226 108.538 61.3436 109.001 61.217C109.465 61.0905 109.896 61.1203 110.257 61.3039C111.085 61.6458 111.743 62.3149 112.176 63.2534C112.558 64.3381 112.67 65.6669 112.501 67.117C112.331 68.5671 111.887 70.0917 111.207 71.5499C109.96 74.245 108.402 76.7867 106.622 79.0304C105.006 81.179 103.198 83.0188 101.307 84.4405C99.6062 85.737 97.8521 86.3636 96.3148 86.2237C94.9841 86.0794 93.8899 85.3435 93.1692 84.108C92.6388 83.2172 92.3119 82.0942 92.209 80.8095C92.1062 79.5248 92.2295 78.1062 92.5714 76.6427C92.8223 75.5877 93.1223 74.5275 93.4695 73.4691V73.4691Z" fill="#7165E3"/>
<path d="M102.074 84.244C102.173 84.1533 101.899 83.1106 101.774 81.2216C101.597 78.7819 101.842 76.0968 102.493 73.3298C103.143 70.5629 104.187 67.772 105.56 65.1272C106.613 63.0871 107.414 61.9234 107.354 61.8479C106.554 62.7546 105.84 63.8081 105.254 64.9459C103.744 67.6342 102.605 70.5245 101.923 73.3935C101.24 76.2672 101.041 79.0408 101.343 81.4936C101.416 82.5514 101.665 83.486 102.074 84.244Z" fill="#7165E3"/>
<path d="M96.5255 67.545C96.1289 68.6406 95.861 69.7455 95.7342 70.8093C95.2982 73.4076 95.1927 75.9015 95.4221 78.1839C95.6393 80.4898 96.2089 82.5374 97.1039 84.2288C97.43 84.9745 97.8925 85.5639 98.4681 85.9667C97.2345 83.6607 96.3976 80.9155 95.9895 77.8364C95.4671 72.5622 96.747 67.4241 96.5255 67.545Z" fill="#7165E3"/>
<path d="M120.055 68.9352C120.579 68.8389 121.115 68.6822 121.657 68.4667L126.063 66.9555C130.918 65.1785 135.716 63.8603 140.422 63.0112C145.128 62.1725 149.587 62.3663 153.635 63.5855C154.85 63.9729 156.012 64.4775 157.116 65.0967C157.508 65.3601 157.924 65.5772 158.363 65.7465C158.049 65.3587 157.683 65.0443 157.274 64.8096C156.221 64.0695 155.088 63.4733 153.885 63.0263C149.867 61.6318 145.385 61.3559 140.631 62.2103C135.897 63.0634 131.056 64.4636 126.158 66.3964C124.288 67.1066 122.775 67.7262 121.727 68.1645C121.174 68.3587 120.615 68.6166 120.055 68.9352V68.9352Z" fill="white"/>
<path d="M123.127 75.9624C124.311 76.4473 125.566 76.7758 126.88 76.9447C128.089 77.3753 129.369 77.6432 130.707 77.7456C128.578 76.2513 125.985 75.6413 123.127 75.9624Z" fill="white"/>
<path d="M122.191 85.6946C122.07 85.8911 122.56 86.5258 123.28 87.1151C123.999 87.7045 124.681 88.0068 124.801 87.8103C124.922 87.6139 124.432 86.9791 123.713 86.3898C122.993 85.8004 122.294 85.5586 122.191 85.6946Z" fill="white"/>
<path d="M108.141 74.5118C108.192 74.5118 108.689 73.9526 109.342 72.8041C110.189 71.2764 110.824 69.6368 111.197 68.0135C111.575 66.4068 111.687 64.8561 111.524 63.4799C111.373 62.4372 111.111 61.9687 111.06 61.9687C111.211 63.8674 111.072 65.9405 110.649 68.0891C110.056 70.2636 109.207 72.4363 108.141 74.5118V74.5118Z" fill="white"/>
<path d="M100.342 76.7179C100.718 75.5667 101.025 74.4138 101.26 73.2724C101.677 72.1264 102.022 70.9728 102.291 69.8268C101.618 70.911 101.094 72.1015 100.762 73.2997C100.431 74.498 100.301 75.6696 100.383 76.7179H100.342Z" fill="white"/>
<path d="M89.0907 42.0511C90.4852 45.1759 92.0505 48.112 93.7796 50.8463C95.3465 53.7712 97.0819 56.4955 98.9776 59.0069C97.5877 55.8769 96.0223 52.9405 94.2887 50.2116C92.7217 47.2867 90.9864 44.5624 89.0907 42.0511Z" fill="white"/>
<path d="M88.4602 62.3465C89.3865 63.9283 90.6479 65.0749 92.1675 65.7165C91.7851 64.8254 91.2297 64.132 90.5333 63.6764C89.9863 62.9888 89.2806 62.5361 88.4602 62.3465V62.3465Z" fill="white"/>
<path d="M99.9122 102.892C101.062 99.9834 101.843 97.0229 102.212 94.1724C102.766 91.2663 102.901 88.4787 102.608 85.9666C102.437 86.0572 102.37 89.6539 101.611 94.3235C100.852 98.9932 99.7577 102.892 99.9122 102.892Z" fill="white"/>
<path d="M79.3578 99.9757C82.1694 96.067 84.7482 91.8938 87.043 87.5384C85.5827 89.4214 84.2296 91.4497 83.0104 93.5833C81.6619 95.6114 80.4366 97.7558 79.3578 99.9757V99.9757Z" fill="white"/>
</svg>
