<svg width="336" height="453" viewBox="0 0 336 453" fill="none" xmlns="http://www.w3.org/2000/svg">
<path opacity="0.3" d="M298.73 226.884C288.733 254.394 265.101 272.338 234.903 279.068C204.705 285.798 167.974 281.302 131.878 263.954C95.7814 246.607 67.1904 219.71 50.136 190.271C33.0816 160.832 27.58 128.886 37.577 101.376C47.574 73.8662 71.2055 55.9217 101.404 49.1916C131.602 42.4616 168.333 46.9583 204.429 64.3059C240.525 81.6534 269.116 108.55 286.171 137.989C303.225 167.428 308.727 199.374 298.73 226.884Z" stroke="#7165E3"/>
<path opacity="0.3" d="M308.773 182.346C305.87 211.986 287.544 236.821 260.194 253.001C232.843 269.18 196.491 276.684 157.622 271.649C118.753 266.614 84.7629 249.998 61.2274 227.227C37.6923 204.456 24.63 175.554 27.5333 145.914C30.4365 116.274 48.7624 91.4385 76.1127 75.2593C103.463 59.0799 139.816 51.5758 178.685 56.6109C217.554 61.646 251.544 78.2621 275.079 101.033C298.614 123.804 311.677 152.706 308.773 182.346Z" stroke="#7165E3"/>
<path d="M247.952 451.986C245.51 452.778 175.958 451.873 173.346 450.155C172.34 449.522 171.877 439.383 171.673 427.107V426.722C171.673 424.201 171.594 421.59 171.583 418.957C171.583 418.595 171.583 418.233 171.583 417.826L174.974 381.744L221.501 382.208L216.9 417.95V419.363L216.618 426.756V427.525C216.618 427.525 243.091 439.778 245.782 441.971C248.472 444.164 250.382 451.218 247.952 451.986Z" fill="#F7A9A0"/>
<path d="M247.952 451.986C245.51 452.778 175.958 451.873 173.346 450.155C172.34 449.522 171.877 439.383 171.673 427.107V426.722C171.673 424.201 171.594 421.59 171.583 418.956C171.583 418.595 171.583 418.233 171.583 417.826L216.889 417.95V419.363L216.606 426.756V427.525C216.606 427.525 243.08 439.778 245.77 441.971C248.461 444.164 250.382 451.218 247.952 451.986Z" fill="#EBEBEB"/>
<path d="M248.155 452.156C245.691 452.947 175.505 452.28 172.849 450.562C171.832 449.918 171.334 439.688 171.085 427.31L216.301 427.615C216.301 427.615 243.057 439.891 245.781 442.084C248.506 444.277 250.608 451.353 248.155 452.156Z" fill="#7165E3"/>
<path d="M247.172 449.341C235.416 448.934 187.928 448.426 176.274 448.923C176.183 448.923 176.183 448.991 176.274 449.002C187.928 449.647 235.404 449.771 247.172 449.534C247.42 449.522 247.42 449.341 247.172 449.341Z" fill="#FFFFFE"/>
<path d="M241.316 439.518C240.009 439.474 238.707 439.701 237.491 440.183C236.276 440.665 235.173 441.393 234.251 442.322C232.587 443.988 231.624 446.229 231.561 448.584C231.561 448.652 231.697 448.652 231.708 448.584C232.128 446.258 233.292 444.131 235.025 442.522C236.757 440.914 238.965 439.911 241.316 439.665C241.328 439.67 241.341 439.672 241.354 439.67C241.367 439.669 241.379 439.664 241.39 439.657C241.401 439.65 241.409 439.64 241.416 439.629C241.422 439.617 241.425 439.605 241.425 439.592C241.425 439.579 241.422 439.566 241.416 439.555C241.409 439.543 241.401 439.533 241.39 439.526C241.379 439.519 241.367 439.514 241.354 439.513C241.341 439.512 241.328 439.513 241.316 439.518Z" fill="#FFFFFE"/>
<path d="M220.89 428.836C216.176 428.723 210.717 430.328 207.744 434.149C207.631 434.307 207.845 434.465 207.981 434.386C212.121 432.272 216.475 430.604 220.969 429.413C221.037 429.393 221.096 429.35 221.135 429.291C221.173 429.231 221.189 429.16 221.18 429.09C221.17 429.02 221.135 428.956 221.082 428.909C221.029 428.862 220.961 428.836 220.89 428.836Z" fill="#FFFFFE"/>
<path d="M224.507 430.283C219.805 430.17 214.334 431.786 211.361 435.607C211.248 435.754 211.463 435.912 211.598 435.844C215.737 433.723 220.091 432.052 224.586 430.859C224.654 430.84 224.713 430.797 224.752 430.737C224.79 430.678 224.806 430.607 224.797 430.537C224.787 430.467 224.753 430.403 224.699 430.356C224.646 430.309 224.578 430.283 224.507 430.283Z" fill="#FFFFFE"/>
<path d="M228.136 431.73C223.423 431.628 217.963 433.233 214.99 437.054C214.877 437.201 215.08 437.37 215.227 437.291C219.364 435.178 223.714 433.511 228.204 432.318C228.268 432.294 228.321 432.249 228.356 432.191C228.392 432.133 228.407 432.065 228.399 431.997C228.391 431.93 228.361 431.867 228.313 431.819C228.266 431.77 228.204 431.739 228.136 431.73Z" fill="#FFFFFE"/>
<path d="M231.799 433.188C227.096 433.075 221.625 434.692 218.652 438.512C218.539 438.659 218.754 438.817 218.89 438.75C223.003 436.634 227.331 434.962 231.799 433.765C231.865 433.751 231.925 433.715 231.969 433.663C232.012 433.61 232.035 433.544 232.035 433.476C232.035 433.408 232.012 433.342 231.969 433.29C231.925 433.237 231.865 433.201 231.799 433.188Z" fill="#FFFFFE"/>
<path d="M179.382 437.777C174.092 437.777 174.036 445.95 179.382 445.984C184.729 446.018 184.673 437.811 179.382 437.777Z" fill="white"/>
<path d="M226.147 416.311C223.784 414.311 220.755 416.221 219.274 418.256C216.767 421.798 215.239 425.939 214.843 430.26C214.843 430.351 214.911 430.396 214.99 430.396C215.007 430.484 215.044 430.568 215.1 430.639C215.155 430.709 215.227 430.766 215.309 430.804C215.391 430.841 215.48 430.859 215.57 430.855C215.66 430.851 215.748 430.825 215.826 430.78C219.217 428.52 223.095 426.462 225.672 423.218C227.164 421.33 228.34 418.21 226.147 416.311ZM220.269 426.27C218.641 427.4 216.957 428.531 215.374 429.74C216.159 427.378 217.065 425.058 218.087 422.789C218.602 421.697 219.187 420.639 219.839 419.623C220.879 418.075 225.491 414.186 225.954 419.318C226.147 422.144 222.168 424.88 220.223 426.27H220.269Z" fill="#FFFFFE"/>
<path d="M203.109 431.888C207.213 432.555 211.452 431.436 215.487 430.848C215.574 430.825 215.655 430.783 215.723 430.724C215.791 430.665 215.845 430.591 215.88 430.508C215.915 430.425 215.93 430.335 215.925 430.245C215.919 430.155 215.893 430.067 215.849 429.989C215.863 429.977 215.875 429.963 215.882 429.946C215.89 429.93 215.894 429.911 215.894 429.893C215.894 429.875 215.89 429.856 215.882 429.84C215.875 429.823 215.863 429.809 215.849 429.797C212.665 426.871 208.766 424.836 204.545 423.896C202.07 423.388 198.554 424.021 198.158 427.095C197.763 430 200.724 431.504 203.109 431.888ZM200.295 429.243C197.152 425.174 203.211 424.902 205.02 425.343C206.175 425.642 207.308 426.019 208.411 426.474C210.74 427.4 212.933 428.633 215.114 429.774C213.113 429.944 211.147 430.283 209.146 430.52C206.806 430.769 202.036 431.425 200.295 429.243Z" fill="#FFFFFE"/>
<path opacity="0.1" d="M208.4 452.269C190.958 451.964 174.126 451.387 172.849 450.562C171.832 449.918 171.334 439.688 171.085 427.31H177.529C184.65 433.143 199.718 445.272 208.4 452.269Z" fill="black"/>
<path d="M172.282 277.897L172.282 277.896C171.365 274.296 170.392 270.5 169.386 266.577C169.04 265.228 168.69 263.865 168.337 262.489L168.337 262.488C166.76 256.35 165.106 249.975 163.457 243.616C161.194 234.887 158.938 226.19 156.898 218.178L156.897 218.176C154.207 207.81 151.81 198.6 150.087 191.982C149.225 188.672 148.531 186.011 148.053 184.177L147.503 182.069L147.475 181.962H188.907L189.022 182.326C189.169 182.794 189.387 183.487 189.668 184.381C190.229 186.169 191.043 188.767 192.052 192.002C194.069 198.473 196.867 207.495 199.986 217.702L199.986 217.702C205.073 234.278 211.006 253.974 215.834 270.913C220.669 287.873 224.379 302.014 225.04 307.515L225.04 307.515C225.577 311.941 225.48 321.605 225.023 333.661C224.568 345.7 223.757 360.076 222.878 373.897C222 387.717 221.053 400.979 220.326 410.786C219.963 415.689 219.654 419.728 219.437 422.542C219.328 423.948 219.242 425.049 219.183 425.797C219.161 426.075 219.143 426.304 219.129 426.482H170.048L170.114 425.711C170.188 424.853 170.296 423.596 170.434 421.994C170.709 418.792 171.101 414.214 171.571 408.714C172.51 397.715 173.758 383.028 174.994 368.276C176.229 353.525 177.453 338.71 178.342 327.453C178.787 321.826 179.149 317.086 179.387 313.689C179.506 311.991 179.594 310.627 179.646 309.653C179.672 309.167 179.69 308.775 179.697 308.487C179.701 308.344 179.703 308.222 179.702 308.125C179.7 308.043 179.697 307.941 179.682 307.859C179.181 305.217 176.213 293.359 172.282 277.897Z" fill="#FFFFFE" stroke="black"/>
<path d="M217.375 418.414C209.722 418.256 211.915 418.199 204.262 418.12C200.521 418.12 175.924 417.871 172.419 418.448C172.398 418.448 172.378 418.456 172.364 418.471C172.349 418.486 172.34 418.506 172.34 418.527C172.34 418.548 172.349 418.568 172.364 418.583C172.378 418.598 172.398 418.606 172.419 418.606C175.924 419.183 200.521 418.968 204.262 418.934C211.915 418.866 209.722 418.798 217.375 418.64C217.405 418.64 217.434 418.628 217.455 418.607C217.476 418.586 217.488 418.557 217.488 418.527C217.488 418.497 217.476 418.468 217.455 418.447C217.434 418.426 217.405 418.414 217.375 418.414Z" fill="#263238"/>
<path d="M188.618 300.775C186.979 293.54 184.514 286.441 182.378 279.297C178.037 264.866 173.67 250.435 169.277 236.003C167.084 228.791 164.883 221.58 162.675 214.368C161.56 210.728 160.43 207.092 159.284 203.46C158.154 199.899 156.899 196.383 155.893 192.789C155.486 191.331 155.26 192.133 155.791 193.987C156.843 197.717 157.883 201.459 158.979 205.189C161.127 212.574 163.297 219.952 165.49 227.322C169.831 241.994 174.209 256.656 178.625 271.305C180.833 278.66 183.045 286.008 185.261 293.348C186.381 296.846 187.283 300.409 187.962 304.019C188.559 307.79 188.711 311.618 188.414 315.424C187.928 323.088 187.035 330.741 186.334 338.382C185.634 346.024 184.91 353.711 184.209 361.363C182.8 376.616 181.398 391.865 180.004 407.11C179.835 409.043 179.665 410.976 179.518 412.92C179.518 413.564 180.445 413.508 180.513 412.92C182.163 397.852 183.429 382.716 184.842 367.626C186.255 352.535 187.668 337.569 189.07 322.546C189.42 318.77 189.827 314.995 189.827 311.242C189.818 307.718 189.412 304.207 188.618 300.775Z" fill="#263238"/>
<path d="M194.88 452.665C192.45 453.456 122.897 452.812 120.275 451.105C119.269 450.472 118.771 440.332 118.523 428.056V427.672C118.466 425.151 118.421 422.54 118.409 419.906C118.409 419.544 118.409 419.183 118.409 418.776C118.251 401.074 119.54 382.705 119.54 382.705L165.004 382.999L163.727 418.742V420.155L163.478 427.559V428.316C163.478 428.316 189.873 440.547 192.563 442.695C195.253 444.842 197.322 451.851 194.88 452.665Z" fill="#F7A9A0"/>
<path d="M194.88 452.665C192.45 453.456 122.897 452.812 120.275 451.105C119.269 450.472 118.771 440.332 118.523 428.056V427.672C118.466 425.151 118.421 422.54 118.41 419.906C118.41 419.544 118.41 419.183 118.41 418.776H163.716V420.189L163.467 427.593V428.35C163.467 428.35 189.873 440.547 192.563 442.695C195.253 444.842 197.322 451.851 194.88 452.665Z" fill="#EBEBEB"/>
<path d="M195.163 452.518C192.698 453.309 122.513 452.642 119.856 450.924C118.839 450.28 118.341 440.05 118.093 427.672L163.308 427.977C163.308 427.977 190.064 440.253 192.777 442.446C195.49 444.639 197.615 451.715 195.163 452.518Z" fill="#7165E3"/>
<path d="M194.179 449.703C182.412 449.296 134.935 448.787 123.281 449.285C123.191 449.285 123.191 449.353 123.281 449.353C134.924 450.008 182.412 450.133 194.179 449.895C194.428 449.884 194.428 449.703 194.179 449.703Z" fill="#FFFFFE"/>
<path d="M188.324 439.88C187.016 439.835 185.714 440.062 184.498 440.544C183.283 441.026 182.18 441.755 181.259 442.683C179.59 444.347 178.627 446.59 178.568 448.946C178.568 449.013 178.704 449.013 178.715 448.946C179.136 446.619 180.299 444.492 182.032 442.884C183.765 441.276 185.972 440.273 188.324 440.027C188.338 440.021 188.351 440.011 188.36 439.998C188.369 439.985 188.373 439.969 188.373 439.953C188.373 439.938 188.369 439.922 188.36 439.909C188.351 439.896 188.338 439.886 188.324 439.88Z" fill="#FFFFFE"/>
<path d="M167.898 429.243C163.184 429.141 157.724 430.746 154.752 434.567C154.639 434.714 154.842 434.884 154.989 434.805C159.129 432.69 163.483 431.022 167.977 429.831C168.041 429.806 168.094 429.76 168.129 429.701C168.164 429.642 168.178 429.574 168.169 429.506C168.159 429.438 168.128 429.375 168.079 429.328C168.03 429.28 167.966 429.25 167.898 429.243Z" fill="#FFFFFE"/>
<path d="M171.515 430.645C166.813 430.532 161.342 432.137 158.369 435.969C158.256 436.116 158.47 436.274 158.606 436.206C162.745 434.085 167.099 432.414 171.594 431.221C171.662 431.202 171.721 431.158 171.76 431.099C171.798 431.04 171.814 430.969 171.805 430.899C171.795 430.829 171.76 430.764 171.707 430.718C171.654 430.671 171.586 430.645 171.515 430.645Z" fill="#FFFFFE"/>
<path d="M175.144 432.092C170.43 431.979 164.97 433.595 161.997 437.416C161.873 437.563 162.088 437.721 162.235 437.653C166.369 435.534 170.72 433.866 175.211 432.679C175.275 432.655 175.329 432.611 175.364 432.553C175.399 432.495 175.414 432.427 175.406 432.359C175.398 432.292 175.368 432.229 175.321 432.18C175.273 432.132 175.211 432.101 175.144 432.092Z" fill="#FFFFFE"/>
<path d="M178.761 433.55C174.047 433.437 168.587 435.042 165.614 438.874C165.501 439.021 165.716 439.179 165.852 439.111C169.989 436.988 174.344 435.317 178.84 434.126C178.908 434.107 178.967 434.064 179.005 434.004C179.044 433.945 179.06 433.874 179.05 433.804C179.041 433.734 179.006 433.669 178.953 433.623C178.9 433.576 178.831 433.55 178.761 433.55Z" fill="#FFFFFE"/>
<path d="M126.39 438.139C121.1 438.139 121.044 446.312 126.39 446.346C131.737 446.38 131.68 438.173 126.39 438.139Z" fill="white"/>
<path d="M173.109 416.673C170.735 414.672 167.717 416.583 166.225 418.617C163.736 422.161 162.223 426.297 161.839 430.611C161.837 430.63 161.839 430.65 161.846 430.668C161.853 430.686 161.864 430.703 161.878 430.716C161.892 430.729 161.909 430.739 161.928 430.744C161.947 430.749 161.966 430.75 161.986 430.746C162.001 430.836 162.038 430.92 162.093 430.993C162.147 431.065 162.219 431.123 162.301 431.162C162.383 431.201 162.473 431.219 162.564 431.216C162.655 431.212 162.743 431.187 162.822 431.142C166.213 428.881 170.09 426.824 172.668 423.569C174.149 421.669 175.347 418.561 173.109 416.673ZM167.231 426.632C165.603 427.762 163.919 428.893 162.336 430.091C163.14 427.728 164.064 425.407 165.105 423.139C165.62 422.051 166.206 420.997 166.858 419.985C167.898 418.437 172.509 414.548 172.973 419.669C173.154 422.461 169.175 425.241 167.231 426.632Z" fill="#FFFFFE"/>
<path d="M150.117 432.25C154.209 432.917 158.459 431.786 162.483 431.21C162.568 431.188 162.647 431.147 162.714 431.09C162.781 431.033 162.834 430.961 162.869 430.88C162.904 430.8 162.92 430.712 162.916 430.624C162.912 430.536 162.887 430.45 162.845 430.373C162.861 430.362 162.875 430.347 162.884 430.329C162.893 430.311 162.898 430.292 162.898 430.272C162.898 430.252 162.893 430.232 162.884 430.214C162.875 430.197 162.861 430.181 162.845 430.17C159.656 427.251 155.759 425.217 151.541 424.269C149.065 423.772 145.55 424.405 145.154 427.48C144.759 430.373 147.732 431.854 150.117 432.25ZM147.302 429.537C144.16 425.468 150.218 425.208 152.027 425.648C153.182 425.947 154.315 426.325 155.418 426.779C157.703 427.765 159.937 428.867 162.11 430.08C160.109 430.249 158.142 430.577 156.153 430.826C153.802 431.131 149.043 431.786 147.302 429.537Z" fill="#FFFFFE"/>
<path d="M181.774 217.698L181.772 217.703C181.423 218.952 181.044 220.17 180.644 221.35C176.437 223.073 172.391 225.169 168.556 227.612L168.333 227.755L168.325 228.019L168.825 228.034C168.325 228.019 168.325 228.019 168.325 228.019L168.325 228.02L168.325 228.022L168.325 228.031L168.324 228.067L168.319 228.207L168.303 228.757C168.289 229.239 168.268 229.948 168.242 230.857C168.188 232.673 168.112 235.285 168.021 238.466C167.839 244.829 167.596 253.471 167.353 262.588C166.811 282.92 166.222 305.684 166.358 310.531C166.573 319.56 166.008 348.84 165.389 375.883C165.079 389.4 164.757 402.353 164.511 411.926C164.388 416.712 164.285 420.654 164.212 423.399C164.176 424.771 164.147 425.845 164.127 426.575L164.11 427.208L115.052 427.407L115.11 426.704C115.176 425.891 115.273 424.698 115.397 423.177C115.644 420.135 115.997 415.782 116.421 410.538C117.269 400.05 118.399 385.997 119.53 371.739C121.789 343.244 124.053 313.874 124.053 310.564L124.053 310.559C123.951 299.966 126.47 253.057 128.427 218.827L128.427 218.826C128.992 208.28 129.534 198.956 129.936 192.268C130.136 188.923 130.302 186.238 130.417 184.39C130.474 183.465 130.519 182.75 130.55 182.265L130.567 181.996L187.378 181.94C187.371 182.049 187.364 182.174 187.355 182.315C187.319 182.9 187.263 183.755 187.181 184.831C187.016 186.984 186.748 190.023 186.334 193.561C185.506 200.643 184.097 209.712 181.774 217.698Z" fill="#FFFFFE" stroke="black"/>
<path d="M162.845 418.787C155.192 418.663 157.385 418.595 149.744 418.55C145.991 418.55 121.394 418.414 117.901 419.013C117.88 419.013 117.86 419.021 117.845 419.036C117.83 419.051 117.822 419.071 117.822 419.092C117.822 419.113 117.83 419.133 117.845 419.148C117.86 419.163 117.88 419.171 117.901 419.171C121.394 419.737 146.002 419.409 149.744 419.363C157.397 419.25 155.192 419.205 162.845 419.013C162.875 419.013 162.904 419.001 162.925 418.98C162.946 418.959 162.958 418.93 162.958 418.9C162.958 418.87 162.946 418.841 162.925 418.82C162.904 418.799 162.875 418.787 162.845 418.787Z" fill="#263238"/>
<path d="M134.269 188.697C133.342 216.64 132.37 244.583 131.115 272.504C129.86 300.424 128.176 328.548 125.836 356.491C124.525 372.113 123.281 394.088 121.597 409.62C121.597 409.721 121.744 409.766 121.767 409.62C125.407 381.902 127.419 347.64 129.239 319.742C131.059 291.845 132.245 263.924 133.195 236.003C133.738 220.178 134.144 204.353 134.619 188.595C134.585 188.471 134.28 188.471 134.269 188.697Z" fill="#263238"/>
<path d="M183.192 220.517C178.195 222.604 173.388 225.119 168.825 228.034C168.794 228.059 168.772 228.094 168.764 228.133C168.756 228.172 168.762 228.212 168.781 228.247C168.8 228.282 168.83 228.31 168.867 228.324C168.904 228.339 168.945 228.341 168.983 228.328C173.81 225.977 178.738 223.716 183.441 221.105C183.5 221.061 183.544 220.999 183.563 220.928C183.583 220.856 183.578 220.781 183.549 220.713C183.52 220.645 183.469 220.588 183.405 220.553C183.34 220.517 183.265 220.505 183.192 220.517Z" fill="#263238"/>
<path d="M183.429 203.29C183.09 205.065 182.66 206.828 182.299 208.603C181.937 210.378 181.677 211.994 181.236 213.599C180.871 215.186 180.064 216.636 178.907 217.782C178.263 218.381 177.54 218.912 176.85 219.477L175.72 220.37C175.72 220.133 175.821 219.895 175.855 219.647C175.98 218.968 176.093 218.302 176.206 217.623C176.454 216.12 176.692 214.616 176.929 213.102C177.381 210.14 177.788 207.156 178.41 204.24C178.41 204.115 178.252 204.07 178.229 204.24C177.494 207.133 176.681 209.993 176.036 212.921C175.72 214.357 174.601 221.433 174.555 221.964C174.51 222.495 174.454 223.004 174.442 223.524C174.368 224.049 174.368 224.582 174.442 225.106C174.442 225.242 174.623 225.22 174.68 225.106C174.9 224.617 175.052 224.1 175.132 223.569C175.268 223.072 175.381 222.552 175.471 222.043C175.471 221.862 175.471 221.67 175.55 221.478C176.251 221.06 176.895 220.495 177.551 220.02C178.207 219.545 178.975 219.014 179.631 218.46C180.821 217.402 181.668 216.013 182.061 214.47C182.492 212.802 182.772 211.1 182.898 209.383C183.124 207.371 183.282 205.347 183.565 203.347C183.632 203.166 183.452 203.166 183.429 203.29Z" fill="#263238"/>
<path d="M165.106 135.422C168.983 147.099 186.346 184.22 193.637 186.82C201.233 189.511 230.566 192.868 237.077 187.747C240.265 185.226 241.373 158.357 237.077 159.035C232.782 159.714 206.919 160.652 203.844 159.555C200.769 158.459 180.23 128.56 171.888 121.281C157.498 108.79 163.037 129.125 165.106 135.422Z" fill="#F7A9A0"/>
<path d="M230.589 158.583L230.171 192.031C230.171 192.031 200.091 192.111 192.077 187.894C184.062 183.678 167.106 145.03 162.867 130.245C158.628 115.459 165.411 113.176 176.183 124.027C186.956 134.879 203.154 157.622 205.076 158.086C206.998 158.549 230.589 158.583 230.589 158.583Z" fill="#7165E3"/>
<path d="M190.449 140.554C184.26 141.592 178.267 143.574 172.679 146.432L171.662 146.963C171.402 147.087 171.153 147.223 170.905 147.37C170.407 147.63 169.921 147.901 169.435 148.195L169.22 147.652L170.249 147.053L170.995 146.658C171.458 146.398 171.933 146.138 172.408 145.9C175.277 144.412 178.269 143.171 181.349 142.193C184.201 141.269 187.118 140.563 190.076 140.079L190.449 140.554ZM197.163 148.998C196.63 149.278 196.083 149.53 195.524 149.755C194.08 150.363 192.559 150.767 191.003 150.953C190.212 151.044 189.42 151.179 188.629 151.224L186.244 151.292C183.053 151.206 179.904 150.539 176.952 149.325C175.177 148.636 173.448 147.799 171.718 146.963C171.492 146.872 171.278 146.759 171.052 146.658C170.509 146.409 169.921 146.149 169.412 145.912L168.881 145.686L168.384 145.471L168.576 145.946C168.576 146.081 168.689 146.217 168.734 146.353H168.836L170.294 147.008L170.95 147.325C172.826 148.218 174.714 149.167 176.681 149.936C179.712 151.183 182.945 151.868 186.221 151.959L188.663 151.903C189.477 151.903 190.291 151.711 191.093 151.62C192.725 151.432 194.323 151.017 195.841 150.388C196.47 150.14 197.086 149.857 197.683 149.54L197.163 148.998ZM185.588 134.596C183.473 135.578 181.416 136.68 179.428 137.897C175.686 140.199 172.14 142.804 168.825 145.686L168.519 145.946C168.519 146.081 168.632 146.217 168.678 146.353V146.443C168.678 146.443 168.678 146.443 168.746 146.443C168.938 146.273 169.119 146.104 169.311 145.957C172.568 143.182 176.042 140.672 179.699 138.451C181.725 137.239 183.812 136.13 185.95 135.128L185.588 134.596Z" fill="white"/>
<path d="M221.829 175.098C221.829 172.442 222.021 161.85 222.258 159.273H222.337C222.597 161.827 222.733 172.284 222.722 174.94C222.809 180.222 222.609 185.505 222.123 190.765C222.116 190.783 222.105 190.798 222.089 190.808C222.074 190.819 222.056 190.824 222.038 190.824C222.019 190.824 222.001 190.819 221.986 190.808C221.971 190.798 221.959 190.783 221.953 190.765C221.557 185.554 221.772 180.321 221.829 175.098Z" fill="#263238"/>
<path opacity="0.1" d="M162.845 130.233C167.084 145.03 184.039 183.666 192.054 187.883C195.897 189.906 204.805 190.946 213.045 191.466L165.84 117.256C161.805 116.827 160.279 121.201 162.845 130.233Z" fill="black"/>
<path d="M124.841 211.61C125.022 211.791 198.407 206.772 199.017 205.958C199.876 204.827 176.647 130.222 170.825 119.314C168.35 114.645 156.481 113.967 151.79 118.387C140.045 129.431 131.872 165.14 130.154 175.844C127.305 193.501 124.186 210.965 124.841 211.61Z" fill="#7165E3"/>
<path d="M195.095 191.116L193.037 189.906C190.264 188.291 187.408 186.823 184.48 185.509L182.875 184.808L182.095 184.492C179.933 183.599 177.717 182.844 175.46 182.231C172.375 181.37 169.214 180.81 166.021 180.558C159.614 180.28 153.203 181.005 147.019 182.706L145.889 183.022C145.606 183.09 145.335 183.169 145.064 183.26C140.755 184.577 136.569 186.264 132.55 188.301C131.42 188.832 130.29 189.431 129.25 189.985L128.91 190.166L127.667 190.833L127.769 190.257L129.046 189.601C130.312 188.912 131.589 188.245 132.878 187.623C133.941 187.08 135.026 186.572 136.111 186.086C138.841 184.834 141.641 183.743 144.498 182.819L145.324 182.581C145.832 182.412 146.341 182.265 146.861 182.129C149.975 181.253 153.16 180.652 156.379 180.332C159.592 179.983 162.828 179.9 166.055 180.083C171.73 180.568 177.291 181.961 182.525 184.209L183.293 184.548L184.639 185.147C187.571 186.498 190.427 188.008 193.196 189.669L194.959 190.709L195.095 191.116ZM191.296 178.682C189.42 179.812 187.589 180.942 185.769 182.141C184.639 182.841 183.61 183.553 182.525 184.243L182.095 184.526C180.614 185.475 179.111 186.391 177.574 187.25C174.821 188.859 171.824 190.004 168.7 190.641C167.14 190.94 165.546 191.02 163.964 190.878C163.172 190.799 162.37 190.777 161.59 190.664L159.239 190.245C156.134 189.502 153.189 188.204 150.546 186.413C148.952 185.373 147.437 184.153 145.9 183.022L145.312 182.581C144.838 182.22 144.352 181.858 143.865 181.519L143.402 181.18L142.724 180.716C140.031 178.799 136.837 177.711 133.534 177.585C132.231 177.609 130.943 177.874 129.736 178.365L129.634 178.975C130.867 178.462 132.187 178.185 133.522 178.162C136.705 178.314 139.774 179.395 142.351 181.27L142.746 181.541L143.21 181.869C143.639 182.174 144.069 182.491 144.487 182.819L145.075 183.26C146.737 184.526 148.387 185.837 150.162 186.99C152.868 188.829 155.886 190.162 159.069 190.924L161.488 191.364C162.291 191.478 163.105 191.511 163.919 191.591C165.557 191.732 167.207 191.652 168.824 191.353C172.012 190.694 175.068 189.51 177.867 187.849C179.552 186.899 181.191 185.871 182.807 184.808L183.226 184.548L186.074 182.683C187.837 181.553 189.624 180.422 191.432 179.292L191.296 178.682ZM190.053 174.68C188.09 174.045 186.094 173.517 184.073 173.097C180.893 172.454 177.653 172.159 174.409 172.216C171.164 172.277 167.93 172.617 164.744 173.233C161.559 173.834 158.426 174.68 155.373 175.765C151.243 177.249 147.243 179.071 143.413 181.214C143.187 181.327 142.972 181.451 142.758 181.575C141.153 182.468 139.581 183.395 138.021 184.356C136.292 185.419 134.574 186.515 132.878 187.623C131.556 188.471 130.244 189.341 128.933 190.2L127.667 191.025C127.667 191.206 127.61 191.376 127.588 191.545C129.261 190.483 130.911 189.398 132.573 188.335C133.703 187.578 134.924 186.82 136.111 186.074C136.823 185.622 137.535 185.181 138.259 184.752C139.886 183.768 141.548 182.807 143.221 181.892L143.877 181.541C147.629 179.487 151.542 177.74 155.576 176.319C161.632 174.162 167.984 172.95 174.409 172.724C177.62 172.65 180.83 172.923 183.983 173.538C186.088 173.962 188.168 174.506 190.211 175.166C190.155 174.974 190.098 174.804 190.053 174.646V174.68Z" fill="white"/>
<path d="M141.933 126.865C122.456 148.342 100.493 184.639 109.886 192.427C118.477 199.503 149.812 192.766 169.514 185.068C173.267 183.599 158.052 150.433 154.231 152.4C150.209 154.542 146.056 156.429 141.797 158.052C140.667 158.346 146.635 151.111 153.237 133.726C159.906 115.968 153.067 114.577 141.933 126.865Z" fill="#F7A9A0"/>
<path d="M202.103 149.891C202.103 153.745 192.619 152.988 192.619 152.988C194.002 153.888 195.026 155.244 195.513 156.82C196.225 159.657 192.122 162.031 192.122 162.031C193.354 163.267 194.192 164.84 194.53 166.553C194.937 169.333 191.139 172.329 191.139 172.329C191.641 174.105 191.489 176.002 190.709 177.676C188.448 182.073 180.852 182.197 176.161 183.147C170.905 184.362 165.756 186.003 160.765 188.052L152.039 153.406C152.039 153.406 172.386 141.322 178.037 141.594C182.808 141.921 202.081 143.99 202.103 149.891Z" fill="#F7A9A0"/>
<path d="M192.54 152.875C187.499 151.405 182.118 151.157 176.929 150.964C176.816 150.964 176.805 151.134 176.929 151.145C182.107 151.27 187.363 152.784 192.506 153.124C192.539 153.128 192.573 153.119 192.599 153.099C192.626 153.079 192.643 153.049 192.647 153.016C192.652 152.983 192.643 152.95 192.623 152.923C192.603 152.897 192.573 152.879 192.54 152.875Z" fill="#263238"/>
<path d="M191.952 161.681C190.775 161.459 189.574 161.394 188.38 161.488C187.114 161.488 185.848 161.545 184.582 161.601C182.043 161.714 179.511 161.895 176.986 162.144C176.873 162.144 176.862 162.325 176.986 162.325C179.518 162.212 182.05 162.133 184.571 162.121H188.369C189.564 162.22 190.766 162.182 191.952 162.008C191.984 161.994 192.01 161.971 192.028 161.942C192.047 161.913 192.057 161.879 192.057 161.844C192.057 161.81 192.047 161.776 192.028 161.747C192.01 161.718 191.984 161.695 191.952 161.681Z" fill="#263238"/>
<path d="M190.957 172.431C189.892 172.244 188.802 172.244 187.736 172.431L184.322 172.645C182.061 172.77 179.699 172.905 177.381 172.951C177.357 172.951 177.334 172.96 177.318 172.977C177.301 172.994 177.291 173.017 177.291 173.041C177.291 173.065 177.301 173.088 177.318 173.105C177.334 173.122 177.357 173.131 177.381 173.131C179.733 173.131 182.084 173.131 184.435 173.03L187.894 172.928C188.948 172.992 190.005 172.866 191.014 172.555C191.03 172.547 191.043 172.534 191.05 172.517C191.056 172.5 191.055 172.481 191.048 172.464C191.04 172.448 191.027 172.435 191.01 172.429C190.993 172.422 190.974 172.423 190.957 172.431Z" fill="#263238"/>
<path d="M151.055 153.123L158.561 190.426C158.561 190.426 111.91 202.6 107.072 190.799C102.234 178.998 129.679 135.173 145.505 122.671C161.33 110.169 155.384 129.86 154.898 131.443C152.762 138.44 142.814 156.684 142.814 156.684L151.055 153.123Z" fill="#7165E3"/>
<path d="M158.561 190.381C158.561 190.381 111.91 202.555 107.072 190.754C104.472 184.401 111.209 168.791 120.444 153.768L120.591 153.53L120.783 153.225C120.84 153.124 120.908 153.022 120.976 152.92C124.311 147.544 127.918 142.341 131.782 137.332L132.178 136.823C136.07 131.61 140.533 126.848 145.482 122.626C161.308 110.124 155.362 129.815 154.876 131.397C154.729 131.895 154.537 132.449 154.311 133.048C154.22 133.274 154.13 133.523 154.028 133.771C152.728 137.095 150.637 141.571 148.523 145.686L148.274 146.183C148.274 146.183 148.274 146.296 148.195 146.341L148.06 146.601C145.381 151.88 142.95 156.356 142.803 156.628L151.055 153.124L158.561 190.381Z" fill="#7165E3"/>
<path d="M148.523 145.686L148.274 146.183C148.274 146.183 148.274 146.296 148.195 146.341L147.63 146.703L143.029 149.698C140.329 151.477 137.508 153.063 134.585 154.446C133.106 155.128 131.555 155.644 129.962 155.983C128.349 156.359 126.666 156.308 125.079 155.836C124.683 155.723 124.276 155.633 123.948 155.509L122.818 155.023C122.067 154.702 121.341 154.324 120.648 153.892L120.478 153.79L120.625 153.553L120.817 153.248C120.868 153.296 120.925 153.338 120.987 153.372L121.145 153.463C121.754 153.864 122.397 154.212 123.067 154.503L124.197 154.977L125.327 155.305C126.831 155.764 128.429 155.822 129.962 155.475C131.518 155.151 133.034 154.659 134.484 154.005C137.386 152.654 140.192 151.106 142.882 149.371L146.556 147.019L147.517 146.398L148.523 145.686ZM147.393 146.375C141.594 147.788 135.908 149.585 130.12 150.998C127.091 151.756 124.016 152.423 120.93 152.92C120.862 153.022 120.795 153.124 120.738 153.225L120.546 153.53L121.066 153.44C124.152 152.92 127.215 152.23 130.245 151.462C135.682 150.094 141.017 148.398 146.432 146.997L147.562 146.703C147.698 146.703 147.845 146.624 147.992 146.601L148.127 146.341C148.127 146.341 148.127 146.239 148.206 146.183L147.393 146.375ZM147.766 136.982C146.359 137.74 144.887 138.372 143.368 138.869C141.879 139.377 140.302 139.577 138.734 139.457C136.354 139.122 134.089 138.219 132.132 136.823L131.737 137.332C133.795 138.778 136.172 139.704 138.666 140.034C140.318 140.153 141.976 139.93 143.538 139.378C145.103 138.87 146.617 138.215 148.059 137.422C150.114 136.308 152.109 135.089 154.039 133.771C154.141 133.523 154.231 133.274 154.322 133.048C152.221 134.471 150.048 135.784 147.811 136.982H147.766Z" fill="white"/>
<path d="M150.252 153.157C144.894 155.034 130.855 162.042 127.769 164.913C127.756 164.931 127.748 164.952 127.748 164.974C127.748 164.995 127.754 165.017 127.767 165.034C127.78 165.052 127.798 165.065 127.818 165.072C127.839 165.079 127.861 165.079 127.882 165.072C130.911 162.935 148.229 154.446 150.976 153.406C150.976 153.406 151.111 153.734 151.168 153.824C151.224 153.915 151.326 153.881 151.326 153.757C151.278 153.451 151.21 153.149 151.123 152.852L150.252 153.157Z" fill="#263238"/>
<path d="M146.262 174.002C145.753 171.402 143.809 160.98 143.526 158.357C143.526 158.357 143.526 158.301 143.594 158.357C144.363 160.799 146.578 171.029 147.098 173.629C148.248 178.8 149.113 184.03 149.687 189.296C149.687 189.386 149.551 189.443 149.517 189.296C148.15 184.3 147.257 179.122 146.262 174.002Z" fill="#263238"/>
<path d="M142.43 156.82C143.888 153.643 145.674 150.625 147.279 147.528C148.884 144.431 150.546 141.356 152.038 138.225H152.106C151.202 140.361 150.297 142.498 149.325 144.6C149.619 144.273 149.891 143.922 150.162 143.572C150.659 142.939 151.111 142.272 151.563 141.605C151.563 141.605 151.643 141.605 151.631 141.605C151.279 142.353 150.843 143.058 150.331 143.707C149.953 144.195 149.537 144.652 149.088 145.075C148.692 145.934 148.274 146.793 147.845 147.641C146.453 150.797 144.824 153.842 142.973 156.752C142.905 156.967 142.373 156.967 142.43 156.82Z" fill="#263238"/>
<path d="M126.944 195.637C132.449 195.57 153.237 191.489 158.38 190.426C158.312 189.884 158.38 189.692 158.244 188.923C158.244 188.821 158.391 188.776 158.414 188.923C158.55 189.658 159.047 191.116 158.843 191.184C156.368 192.156 132.347 196.35 126.944 195.897C126.927 195.897 126.91 195.894 126.894 195.888C126.878 195.881 126.864 195.871 126.852 195.859C126.84 195.847 126.83 195.833 126.824 195.817C126.817 195.801 126.814 195.785 126.814 195.767C126.814 195.75 126.817 195.733 126.824 195.718C126.83 195.702 126.84 195.688 126.852 195.676C126.864 195.663 126.878 195.654 126.894 195.647C126.91 195.641 126.927 195.637 126.944 195.637Z" fill="#263238"/>
<path d="M182.92 191.873L221.625 197.084L236.309 143.289L197.604 138.089L182.92 191.873Z" fill="#263238"/>
<path d="M184.831 192.122L223.524 197.333L238.207 143.549L199.514 138.338L184.831 192.122Z" fill="#37474F"/>
<path d="M216.923 166.123C216.681 167.128 216.079 168.01 215.232 168.601C214.384 169.193 213.349 169.453 212.322 169.333C211.838 169.282 211.37 169.127 210.951 168.879C210.532 168.631 210.171 168.295 209.893 167.895C209.615 167.495 209.427 167.04 209.341 166.56C209.255 166.081 209.273 165.589 209.394 165.117C209.636 164.111 210.237 163.228 211.085 162.635C211.932 162.041 212.967 161.778 213.995 161.895C214.481 161.946 214.949 162.102 215.37 162.35C215.79 162.599 216.151 162.936 216.429 163.337C216.707 163.739 216.895 164.195 216.98 164.676C217.065 165.157 217.046 165.65 216.923 166.123Z" fill="white"/>
<path d="M237.823 154.638C239.44 159.16 244.052 165.049 244.12 168.621C244.166 169.501 243.928 170.372 243.441 171.107C242.955 171.841 242.246 172.4 241.418 172.702C241.418 172.702 244.809 174.816 244.278 178.06C244.041 179.733 241.147 180.818 241.147 180.818C241.878 181.336 242.452 182.046 242.805 182.87C243.159 183.694 243.277 184.599 243.147 185.486C242.673 187.747 239.847 188.505 239.847 188.505C239.847 188.505 241.542 191.41 240.31 193.58C237.801 197.977 217.895 195.954 215.566 188.301C214.436 184.74 219.308 185.498 219.308 185.498C219.308 185.498 212.616 182.728 212.932 178.614C213.249 174.499 219.466 175.856 219.466 175.856C219.466 175.856 213.011 173.12 213.814 168.881C214.617 164.642 220.596 166.903 220.596 166.903C220.596 166.903 216.47 163.512 217.793 160.347C219.975 155.203 227.684 162.732 232.16 162.133L235.314 155.158L237.823 154.638Z" fill="#F7A9A0"/>
<path d="M241.18 161.341C240.05 156.922 245.838 152.197 245.34 147.777C244.673 141.842 237.563 146.872 235.257 155.147L234.59 161.929L241.18 161.341Z" fill="#F7A9A0"/>
<path d="M239.428 188.685C239.443 188.685 239.458 188.691 239.468 188.702C239.479 188.713 239.485 188.727 239.485 188.742C239.485 188.757 239.479 188.771 239.468 188.782C239.458 188.793 239.443 188.798 239.428 188.798C232.467 189.777 225.373 188.622 219.081 185.486C218.878 185.385 218.968 185.012 219.206 185.091C225.737 187.264 232.549 188.475 239.428 188.685Z" fill="#263238"/>
<path d="M241.237 180.863C241.316 180.863 241.316 180.999 241.237 181.01C233.539 182.032 225.729 180.268 219.217 176.036C218.991 175.878 218.946 175.516 219.217 175.675C223.773 178.297 234.771 180.761 241.237 180.863Z" fill="#263238"/>
<path d="M220.167 166.428C226.576 170.509 233.641 172.08 241.135 172.747C241.226 172.747 241.214 172.894 241.135 172.905C237.382 173.606 232.646 172.713 229.029 171.707C225.642 170.84 222.543 169.098 220.042 166.654C219.929 166.552 220.031 166.338 220.167 166.428Z" fill="#263238"/>
<path d="M172.193 122.185C172.329 125.576 172.431 133.274 167.208 132.697C165.109 132.28 163.175 131.268 161.636 129.781C159.988 128.413 158.498 126.867 157.193 125.169C155.696 123.325 154.35 121.363 153.169 119.302C153.169 119.223 152.988 119.302 153.045 119.393C154.243 121.461 155.238 123.598 156.639 125.553C157.963 127.449 159.537 129.156 161.319 130.629C162.993 132.184 165.104 133.186 167.367 133.5C168.337 133.568 169.301 133.298 170.095 132.736C170.888 132.173 171.462 131.352 171.719 130.414C172.491 127.741 172.653 124.929 172.193 122.185Z" fill="#263238"/>
<path d="M167.05 129.295C163.274 129.623 157.103 122.513 155.294 117.686C155.768 115.171 156.368 112.681 157.091 110.225C157.668 107.84 158.222 105.161 158.629 102.686L173.618 108.733C172.279 111.705 171.308 114.829 170.724 118.036C170.69 118.378 170.69 118.723 170.724 119.065C170.724 119.065 170.724 119.178 170.724 119.234C170.758 121.213 170.69 128.978 167.05 129.295Z" fill="#F7A9A0"/>
<path d="M170.678 119.065C170.684 119.121 170.684 119.178 170.678 119.234C170.14 119.231 169.604 119.186 169.073 119.099C160.098 117.573 159.589 106.258 159.634 103.104L163.387 104.607L173.561 108.733C172.223 111.705 171.255 114.829 170.678 118.036C170.645 118.378 170.645 118.723 170.678 119.065Z" fill="#263238"/>
<path d="M156.91 85.7299C155.351 91.3818 158.696 107.354 162.743 110.836C168.621 115.9 178.026 116.16 182.276 109.14C186.391 102.358 181.666 81.5474 177.156 78.405C170.52 73.7591 159.205 77.4328 156.91 85.7299Z" fill="#F7A9A0"/>
<path d="M172.702 95.8355C172.702 95.8355 172.634 95.9033 172.702 95.9485C172.95 97.0224 173.063 98.2998 172.159 98.8536C172.159 98.8536 172.159 98.9215 172.159 98.9102C173.278 98.5032 173.12 96.8189 172.702 95.8355Z" fill="#263238"/>
<path d="M171.515 94.9086C169.751 95.1346 170.385 98.6388 171.956 98.4354C173.527 98.2319 173.018 94.7277 171.515 94.9086Z" fill="#263238"/>
<path d="M178.84 94.6487C178.84 94.6487 178.941 94.6487 178.941 94.7391C179.088 95.8695 179.439 97.0564 180.479 97.2599V97.3164C179.247 97.3164 178.806 95.6886 178.84 94.6487Z" fill="#263238"/>
<path d="M179.631 93.3374C181.361 92.9192 182.073 96.4007 180.468 96.7286C178.862 97.0564 178.184 93.6878 179.631 93.3374Z" fill="#263238"/>
<path d="M169.864 93.5182C170.306 93.3137 170.732 93.0795 171.142 92.8173C171.616 92.6333 172.014 92.2948 172.272 91.8565C172.33 91.7002 172.335 91.529 172.286 91.3696C172.237 91.2102 172.137 91.0714 172.001 90.9748C171.705 90.8237 171.373 90.7545 171.042 90.7743C170.71 90.7942 170.389 90.9025 170.113 91.0879C169.5 91.378 169.017 91.8856 168.757 92.5121C168.699 92.6632 168.687 92.8282 168.725 92.9857C168.762 93.1431 168.846 93.2856 168.966 93.3944C169.086 93.5031 169.236 93.5732 169.396 93.5953C169.556 93.6174 169.72 93.5905 169.864 93.5182Z" fill="#263238"/>
<path d="M180.762 92.2634C180.264 92.2634 179.801 92.173 179.303 92.1278C178.785 92.1516 178.272 92.0047 177.845 91.7095C177.732 91.5884 177.66 91.4337 177.642 91.2687C177.624 91.1036 177.659 90.937 177.743 90.7939C177.955 90.5383 178.231 90.3439 178.543 90.2306C178.855 90.1174 179.192 90.0894 179.518 90.1496C180.2 90.168 180.85 90.4424 181.338 90.9183C181.443 91.0321 181.512 91.1737 181.538 91.3261C181.564 91.4785 181.545 91.6351 181.484 91.7771C181.424 91.9192 181.323 92.0407 181.195 92.1269C181.066 92.2132 180.916 92.2606 180.762 92.2634Z" fill="#263238"/>
<path d="M172.86 106.009C173.137 106.286 173.5 106.462 173.889 106.506C174.295 106.428 174.68 106.267 175.019 106.032C175.019 106.032 175.098 106.032 175.019 106.088C174.897 106.326 174.712 106.527 174.486 106.67C174.259 106.813 173.998 106.893 173.731 106.902C173.501 106.877 173.283 106.786 173.104 106.639C172.926 106.493 172.794 106.297 172.725 106.077C172.747 106.02 172.826 105.952 172.86 106.009Z" fill="#263238"/>
<path d="M173.47 102.313C173.819 102.697 174.242 103.006 174.715 103.22C175.187 103.433 175.699 103.548 176.217 103.556C176.671 103.565 177.123 103.512 177.562 103.398L177.811 103.33L178.037 103.251C178.095 103.231 178.144 103.192 178.177 103.141C178.209 103.09 178.224 103.029 178.218 102.968C178.225 102.931 178.225 102.893 178.218 102.855V102.765C178.105 101.917 177.811 100.662 177.811 100.662C178.139 100.764 179.823 101.216 179.721 100.775C179.01 97.0186 177.915 93.3445 176.455 89.8106C176.448 89.7907 176.435 89.7734 176.418 89.7611C176.4 89.7489 176.38 89.7423 176.359 89.7423C176.337 89.7423 176.317 89.7489 176.3 89.7611C176.282 89.7734 176.269 89.7907 176.263 89.8106C176.896 93.2922 178.15 96.5929 178.851 100.108C178.252 99.9407 177.631 99.8608 177.009 99.871C176.896 99.871 177.619 102.29 177.63 102.674C176.956 102.855 176.252 102.897 175.561 102.8C174.87 102.703 174.205 102.468 173.606 102.109C173.47 102.143 173.391 102.234 173.47 102.313Z" fill="#263238"/>
<path d="M177.066 103.194C176.705 103.852 176.184 104.408 175.551 104.811C175.209 105.01 174.815 105.1 174.42 105.071C173.527 104.992 173.38 104.212 173.426 103.511C173.449 103.126 173.522 102.747 173.64 102.38C174.668 103.005 175.867 103.29 177.066 103.194Z" fill="#263238"/>
<path d="M175.551 104.822C175.209 105.021 174.815 105.112 174.42 105.082C173.527 105.003 173.38 104.223 173.426 103.522C173.874 103.473 174.326 103.574 174.71 103.809C175.095 104.044 175.391 104.401 175.551 104.822Z" fill="#FF9ABB"/>
<path d="M180.23 83.0734C179.326 81.8187 178.331 80.564 177.427 80.4622C176.523 80.3605 176.421 82.5308 174.544 83.0734C172.001 83.7969 170.249 81.7057 166.632 82.2256C161.375 82.983 160.03 87.7984 161.488 95.1573C162.788 101.736 158.968 103.206 158.968 103.206C158.968 103.206 153.451 89.2679 156.492 83.6047C159.533 77.9415 168.429 73.8156 175.709 77.0372C178.297 78.2015 180.23 83.0734 180.23 83.0734Z" fill="#263238"/>
<path d="M161.624 99.5545C161.624 99.5545 157.747 94.5243 155.452 95.926C153.157 97.3276 156.221 104.743 159.047 105.647C159.399 105.789 159.777 105.858 160.156 105.849C160.536 105.841 160.91 105.755 161.256 105.598C161.602 105.44 161.912 105.214 162.167 104.933C162.423 104.652 162.619 104.322 162.743 103.963L161.624 99.5545Z" fill="#F7A9A0"/>
<path d="M156.379 98.0398C156.379 98.0398 156.379 98.0398 156.379 98.1189C157.289 98.523 158.104 99.113 158.771 99.8508C159.439 100.589 159.945 101.458 160.257 102.403C160.134 102.214 159.972 102.053 159.782 101.932C159.592 101.811 159.377 101.733 159.154 101.703C158.93 101.673 158.703 101.691 158.488 101.758C158.272 101.824 158.073 101.936 157.905 102.087C157.905 102.087 157.905 102.2 157.962 102.188C158.299 102.062 158.667 102.043 159.015 102.134C159.363 102.225 159.674 102.422 159.906 102.697C160.28 103.166 160.61 103.669 160.89 104.2C160.98 104.37 161.297 104.268 161.217 104.065C161.138 101.533 159.058 98.1528 156.379 98.0398Z" fill="#263238"/>
<path d="M170.43 75.0477C168.225 74.4188 165.941 74.1105 163.648 74.1321C161.059 74.2112 153.18 76.0764 151.519 77.9754C149.857 79.8745 150.535 87.4707 150.659 88.5785C150.784 89.6862 152.31 96.2538 154.978 97.4859C157.645 98.718 156.108 87.3802 159.307 83.0395C162.506 78.6989 170.43 75.0477 170.43 75.0477Z" fill="#7165E3"/>
<path opacity="0.1" d="M170.43 75.059C170.43 75.059 162.517 78.6988 159.25 83.0395C155.983 87.3802 157.577 98.7067 154.932 97.4859C154.316 97.1458 153.772 96.6871 153.334 96.1361C152.895 95.5851 152.57 94.9528 152.377 94.2756C152.377 90.8844 152.886 85.5716 155.079 81.5926C157.136 77.8737 161.308 75.4885 165.965 74.2112C167.475 74.3638 168.969 74.6475 170.43 75.059Z" fill="black"/>
<path d="M156.628 104.087C156.368 101.047 158.165 92.5008 160.652 87.3802C163.139 82.2595 172.148 78.0884 173.471 77.9528C176.704 77.6363 177.653 79.0831 178.117 78.6875C178.58 78.2919 174.805 75.1833 173.81 74.7877C172.326 74.3097 170.754 74.1706 169.209 74.3807C167.819 74.6294 159.375 76.8337 156.832 80.9822C154.288 85.1307 151.541 96.0842 152.672 98.5823C152.966 99.1814 153.802 99.4527 154.266 100.312C154.808 101.442 155.26 102.742 155.746 103.511C156.232 104.279 156.651 104.347 156.628 104.087Z" fill="#7165E3"/>
<path d="M161.059 85.1986C160.275 84.86 159.519 84.4593 158.798 84.0004C158.041 83.5453 157.342 82.9986 156.718 82.3726C156.718 82.3726 156.594 82.3726 156.639 82.4404C157.187 83.1658 157.847 83.7993 158.595 84.3169C159.346 84.8191 160.186 85.1722 161.07 85.3568C161.091 85.3553 161.111 85.3456 161.125 85.3297C161.138 85.3138 161.145 85.293 161.144 85.2721C161.142 85.2511 161.133 85.2315 161.117 85.2178C161.101 85.204 161.08 85.1971 161.059 85.1986Z" fill="#263238"/>
<path d="M156.13 101.08C156.006 100.877 155.836 100.707 155.701 100.515C155.541 100.299 155.408 100.063 155.305 99.8144C155.165 99.3274 154.972 98.8574 154.729 98.4127C154.478 98.0828 154.189 97.7831 153.869 97.5197C153.486 97.2426 153.207 96.8444 153.078 96.3893H152.988C153.123 97.3049 153.836 97.8588 154.356 98.5597C154.62 99.0395 154.839 99.5428 155.011 100.063C155.211 100.538 155.56 100.935 156.006 101.193C156.062 101.227 156.164 101.16 156.13 101.08Z" fill="#263238"/>
<path d="M156.65 97.6668C156.311 97.3729 155.961 97.1129 155.644 96.7851C155.328 96.4572 155.079 96.1068 154.819 95.7564C154.559 95.406 154.356 95.033 154.107 94.626C153.858 94.2191 153.485 93.8234 153.214 93.3826C153.214 93.3826 153.101 93.3826 153.135 93.4504C153.417 93.8913 153.61 94.3999 153.87 94.8521C154.102 95.2442 154.359 95.6217 154.638 95.9825C154.902 96.3326 155.197 96.658 155.52 96.9546C155.843 97.2654 156.228 97.5042 156.65 97.6555C156.65 97.6555 156.673 97.6894 156.65 97.6668Z" fill="#263238"/>
<path d="M157.283 94.5582C156.567 94.1258 155.919 93.5886 155.362 92.9644C154.819 92.354 154.299 91.7097 153.802 91.0653C153.802 91.0653 153.689 91.0653 153.723 91.0653C154.092 91.8308 154.56 92.5452 155.113 93.1905C155.382 93.5067 155.69 93.7877 156.029 94.0269C156.396 94.2711 156.786 94.4793 157.193 94.6487C157.193 94.6487 157.34 94.6487 157.283 94.5582Z" fill="#263238"/>
<path d="M158.029 91.5513C157.683 91.3863 157.372 91.1561 157.114 90.8731C156.797 90.5792 156.492 90.274 156.198 89.9574C155.904 89.6522 155.61 89.3696 155.328 89.0644C155.023 88.7783 154.78 88.4319 154.616 88.0471C154.616 88.0471 154.514 88.0471 154.525 88.0471C154.614 88.4594 154.796 88.8461 155.057 89.1775C155.308 89.5793 155.596 89.9576 155.916 90.3079C156.232 90.6336 156.568 90.9394 156.922 91.2235C157.221 91.4967 157.595 91.6739 157.996 91.7321C158.007 91.7344 158.02 91.7342 158.031 91.7317C158.043 91.7293 158.055 91.7245 158.064 91.7177C158.074 91.7108 158.083 91.7021 158.09 91.692C158.096 91.6819 158.101 91.6705 158.103 91.6587C158.105 91.6468 158.105 91.6346 158.103 91.6228C158.1 91.6109 158.095 91.5997 158.088 91.5898C158.082 91.5798 158.073 91.5713 158.063 91.5647C158.053 91.5581 158.041 91.5535 158.029 91.5513Z" fill="#263238"/>
<path d="M158.323 87.8662C157.992 87.6401 157.675 87.4028 157.374 87.1541C157.08 86.8941 156.786 86.6341 156.503 86.3628C156.221 86.0915 155.893 85.7976 155.61 85.4924C155.61 85.4924 155.497 85.4924 155.531 85.5489C155.746 85.905 155.992 86.2416 156.266 86.555C156.536 86.8609 156.827 87.148 157.136 87.4141C157.443 87.6812 157.768 87.9267 158.109 88.1488C158.443 88.4046 158.829 88.5857 159.239 88.6801C159.248 88.6739 159.256 88.6655 159.261 88.6557C159.266 88.6458 159.269 88.6348 159.269 88.6236C159.269 88.6124 159.266 88.6014 159.261 88.5915C159.256 88.5817 159.248 88.5732 159.239 88.5671C158.956 88.3057 158.649 88.0711 158.323 87.8662Z" fill="#263238"/>
<path d="M163.105 83.1186C162.743 82.8021 162.392 82.4856 161.974 82.1917C161.556 81.8978 161.172 81.6378 160.742 81.3891C159.931 80.8911 159.066 80.4854 158.165 80.1796C158.165 80.1796 158.063 80.2361 158.165 80.27C159.77 81.2648 161.432 82.1917 163.037 83.209C163.049 83.218 163.064 83.2219 163.079 83.2198C163.094 83.2176 163.107 83.2097 163.116 83.1977C163.125 83.1857 163.129 83.1707 163.127 83.1558C163.125 83.141 163.117 83.1276 163.105 83.1186Z" fill="#263238"/>
<path d="M164.518 80.2588C164.169 79.9543 163.79 79.6855 163.388 79.4562C162.496 79.0071 161.555 78.6619 160.584 78.4276C160.516 78.4276 160.482 78.4954 160.584 78.518C161.455 78.9137 162.325 79.298 163.162 79.7388C163.568 79.9649 163.987 80.191 164.371 80.451C164.755 80.711 165.083 81.0614 165.501 81.344C165.501 81.344 165.581 81.344 165.501 81.344C165.251 80.919 164.916 80.5497 164.518 80.2588Z" fill="#263238"/>
<path d="M166.835 78.6876C166.489 78.376 166.11 78.1031 165.705 77.8737C164.965 77.4247 164.155 77.1037 163.308 76.9242C163.308 76.9242 163.229 77.0033 163.308 77.0259C164.094 77.3335 164.851 77.7119 165.569 78.1563C165.931 78.3824 166.292 78.6311 166.699 78.8797C167.106 79.1284 167.389 79.4449 167.762 79.6484C167.762 79.6484 167.818 79.6484 167.762 79.6484C167.484 79.2994 167.174 78.9777 166.835 78.6876Z" fill="#263238"/>
<path d="M168.406 76.9015C168.056 76.698 167.683 76.5058 167.276 76.325C166.922 76.1266 166.541 75.9818 166.146 75.8954V75.9971L168.203 77.2067C168.808 77.6262 169.369 78.1073 169.876 78.6422C169.876 78.6422 169.944 78.6422 169.876 78.6422C169.573 77.9268 169.061 77.3199 168.406 76.9015Z" fill="#263238"/>
<path d="M170.588 76.065C169.919 75.6158 169.171 75.2975 168.384 75.1268C168.327 75.1268 168.305 75.206 168.384 75.2286C169.12 75.4972 169.81 75.8785 170.43 76.3589C171.057 76.8149 171.634 77.338 172.148 77.9189C172.148 77.9189 172.227 77.9189 172.204 77.9189C171.825 77.1785 171.27 76.5421 170.588 76.065Z" fill="#263238"/>
<path d="M175.595 76.8224C175.388 76.6148 175.169 76.4185 174.94 76.2346C174.711 76.0522 174.469 75.886 174.216 75.7372C173.956 75.579 173.696 75.432 173.448 75.2625C173.448 75.2625 173.335 75.319 173.448 75.3529C173.712 75.5066 173.962 75.6845 174.194 75.8842L174.849 76.4268L175.516 76.9694C175.726 77.1725 175.949 77.3613 176.183 77.5346C176.015 77.2756 175.818 77.0367 175.595 76.8224Z" fill="#263238"/>
<circle cx="227.26" cy="72.7743" r="22.1605" fill="#006E53"/>
<circle cx="36.4081" cy="115.286" r="22.1605" fill="#E20010"/>
<circle cx="85.2519" cy="242.823" r="22.1605" fill="#FFC325"/>
<circle cx="300.526" cy="199.406" r="22.1605" fill="#50B651"/>
<g clip-path="url(#clip0_217_1726)">
<path d="M39.0742 104.257C39.8227 104.268 40.5368 104.41 41.2037 104.749C41.7916 105.05 42.271 105.471 42.5982 106.051C42.8109 106.433 42.9504 106.853 43.0096 107.287C43.1312 108.12 43.0082 108.926 42.7334 109.714C42.572 110.176 42.3486 110.609 42.1066 111.035C41.6137 111.902 40.9803 112.653 40.2436 113.319C39.2984 114.174 38.2619 114.923 37.1528 115.551C36.7232 115.794 36.2777 115.998 35.7986 116.122C35.505 116.201 35.2019 116.24 34.8979 116.236C34.4976 116.228 34.1845 116.046 33.9409 115.739C33.716 115.463 33.6002 115.114 33.6153 114.759C33.6179 114.66 33.6322 114.562 33.6578 114.466C33.8027 113.952 33.9997 113.458 34.2941 113.009C34.5191 112.665 34.7873 112.36 35.138 112.142C35.5281 111.899 35.9521 111.795 36.4107 111.895C36.5541 111.929 36.689 111.992 36.8071 112.08C37.109 112.295 37.0931 112.634 36.9482 112.85C36.824 113.038 36.6852 113.216 36.533 113.382C36.2752 113.659 36.0014 113.922 35.7341 114.191C35.4976 114.428 35.2753 114.678 35.0951 114.962C35.0017 115.109 34.9155 115.26 34.8897 115.437C34.8572 115.659 34.9725 115.81 35.1966 115.831C35.3125 115.84 35.4292 115.829 35.541 115.796C35.8854 115.701 36.2051 115.548 36.5192 115.382C37.0036 115.126 37.4506 114.813 37.8864 114.482C38.4146 114.082 38.9282 113.664 39.4015 113.2C39.9405 112.671 40.4211 112.097 40.7887 111.434C41.0574 110.95 41.2552 110.439 41.3432 109.891C41.421 109.408 41.3776 108.938 41.1539 108.495C41.0462 108.276 40.8778 108.092 40.6687 107.966C40.5721 107.908 40.4656 107.868 40.3546 107.849C39.9505 107.777 39.5595 107.836 39.1753 107.964C38.7749 108.098 38.4033 108.294 38.0422 108.507C37.2584 108.972 36.4738 109.437 35.7269 109.96C35.3524 110.222 34.9895 110.501 34.6225 110.774C34.291 111.021 33.9617 111.27 33.5995 111.472C33.3055 111.639 32.9873 111.76 32.6563 111.83C32.2461 111.913 31.868 111.835 31.5207 111.612C31.1602 111.381 30.9079 111.064 30.7971 110.643C30.7265 110.378 30.7543 110.115 30.8151 109.853C30.904 109.469 31.0727 109.121 31.283 108.791C31.8031 107.975 32.4571 107.283 33.2175 106.692C34.3446 105.816 35.5846 105.141 36.926 104.653C37.6147 104.401 38.341 104.267 39.0742 104.257Z" fill="white"/>
<path d="M29.802 122.9C29.7982 122.644 29.769 122.414 29.6211 122.214C29.5491 122.118 29.4494 122.045 29.3353 122.007C29.0413 121.902 28.7419 121.914 28.45 122.004C28.2159 122.077 27.9903 122.175 27.7612 122.263C27.716 122.28 27.6748 122.301 27.6201 122.326C27.5122 122.058 27.4062 121.799 27.2951 121.527C27.4559 121.451 27.6074 121.373 27.7637 121.307C28.1237 121.153 28.497 121.047 28.8896 121.023C29.2821 121 29.6695 121.02 30.0268 121.211C30.4309 121.425 30.7226 121.734 30.8447 122.183C30.8623 122.242 30.8728 122.303 30.8761 122.364C30.8917 122.948 30.9127 123.531 30.9152 124.115C30.9168 124.514 30.8906 124.913 30.8788 125.312C30.8767 125.367 30.8539 125.419 30.8151 125.457C30.5358 125.765 30.1941 125.977 29.807 126.12C29.3918 126.272 28.9498 126.335 28.5088 126.307C28.1017 126.284 27.7503 126.117 27.4532 125.841C27.1561 125.564 26.9485 125.23 26.8906 124.821C26.8115 124.26 26.9731 123.774 27.3761 123.374C27.6352 123.116 27.9545 122.983 28.3143 122.936C28.7123 122.885 29.1116 122.898 29.511 122.9L29.802 122.9ZM29.7498 123.811C29.7263 123.807 29.7026 123.803 29.6788 123.802C29.5431 123.799 29.4058 123.794 29.2695 123.796C29.106 123.799 28.9418 123.799 28.7792 123.815C28.6112 123.831 28.4482 123.88 28.3179 123.992C28.1017 124.178 28.0375 124.422 28.0902 124.696C28.1558 125.035 28.3453 125.272 28.6831 125.373C28.8573 125.425 29.0418 125.433 29.2197 125.396C29.3851 125.365 29.5394 125.291 29.6665 125.181C29.6881 125.165 29.7058 125.143 29.7184 125.119C29.7311 125.095 29.7385 125.069 29.74 125.041C29.7452 124.922 29.7606 124.803 29.7615 124.684C29.7633 124.411 29.7593 124.138 29.757 123.865C29.7556 123.847 29.7532 123.829 29.7498 123.811Z" fill="white"/>
<path d="M43.403 123.789C42.4329 123.789 41.4809 123.768 40.5156 123.793C40.5205 123.861 40.5235 123.925 40.5296 123.988C40.5545 124.244 40.6096 124.493 40.7179 124.728C40.8022 124.92 40.9329 125.087 41.0983 125.216C41.3606 125.415 41.66 125.447 41.9741 125.407C42.2337 125.373 42.4754 125.278 42.7165 125.183C42.827 125.139 42.9367 125.092 43.0557 125.044C43.1687 125.28 43.2795 125.513 43.3949 125.752C43.3736 125.767 43.3537 125.785 43.3315 125.797C42.8612 126.076 42.356 126.256 41.8104 126.304C41.3129 126.347 40.838 126.265 40.4084 125.99C40.1158 125.802 39.9109 125.538 39.7395 125.241C39.5284 124.873 39.4006 124.463 39.365 124.039C39.2933 123.268 39.4571 122.549 39.8566 121.884C40.1352 121.421 40.5511 121.17 41.0716 121.084C41.5501 120.999 42.043 121.081 42.4684 121.316C42.7067 121.445 42.8727 121.648 43.0095 121.876C43.1904 122.177 43.2856 122.508 43.3313 122.851C43.3684 123.128 43.3802 123.408 43.4023 123.688C43.405 123.717 43.403 123.747 43.403 123.789ZM42.2271 122.91C42.1708 122.652 42.1324 122.389 41.9635 122.17C41.8787 122.061 41.7598 121.984 41.6259 121.952C41.2697 121.858 40.9117 122.022 40.7587 122.359C40.7039 122.479 40.6718 122.609 40.632 122.736C40.6142 122.793 40.6026 122.853 40.5884 122.91C40.684 122.936 42.1292 122.937 42.2276 122.911L42.2271 122.91Z" fill="white"/>
<path d="M37.0389 119.848L38.1964 119.668V121.09C38.4533 121.106 38.698 121.089 38.944 121.115V121.991C38.6953 121.995 38.4517 121.988 38.1978 122.003C38.1978 122.052 38.1978 122.089 38.1978 122.126C38.1957 122.969 38.1939 123.812 38.1924 124.655C38.1924 124.788 38.203 124.921 38.215 125.053C38.234 125.257 38.3468 125.386 38.544 125.435C38.6528 125.463 38.7645 125.479 38.8748 125.5L38.9856 125.522V126.266C38.9732 126.272 38.9599 126.276 38.9463 126.279C38.6177 126.293 38.2905 126.285 37.9728 126.188C37.6626 126.095 37.4039 125.925 37.2284 125.645C37.1287 125.487 37.078 125.309 37.0561 125.125C37.0428 125.01 37.0363 124.894 37.0366 124.779C37.0366 123.178 37.0375 121.577 37.0393 119.976L37.0389 119.848Z" fill="white"/>
<path d="M44.0392 119.848L45.1585 119.654V119.809C45.1585 121.263 45.1591 122.717 45.1604 124.171C45.1604 124.437 45.1626 124.703 45.1646 124.97C45.1665 125.232 45.2623 125.366 45.5133 125.444C45.5986 125.468 45.6852 125.487 45.7727 125.5C45.8261 125.51 45.8801 125.515 45.945 125.523V126.282C45.939 126.287 45.9319 126.291 45.9242 126.292C45.6063 126.305 45.2897 126.3 44.9806 126.209C44.7933 126.156 44.6189 126.064 44.4679 125.941C44.1869 125.711 44.0725 125.403 44.0431 125.055C44.0345 124.953 44.0356 124.85 44.0358 124.748C44.0358 123.158 44.0369 121.567 44.0392 119.977V119.848Z" fill="white"/>
<path d="M34.7884 126.215H33.6578C33.6564 126.168 33.6542 126.124 33.654 126.082C33.6528 125.402 33.6518 124.723 33.651 124.044C33.6497 123.501 33.6463 122.958 33.6465 122.416C33.6469 122.317 33.6544 122.219 33.6691 122.122C33.6858 122.011 33.744 121.918 33.8247 121.84C34.2688 121.408 34.8009 121.149 35.4076 121.037C35.7878 120.967 36.1775 120.967 36.5579 121.035C36.578 121.039 36.5981 121.044 36.6178 121.049C36.6275 121.051 36.6368 121.056 36.6556 121.063C36.5271 121.39 36.3707 121.702 36.2232 122.01C36.0471 122.01 35.8802 122.005 35.7138 122.011C35.4263 122.021 35.1442 122.091 34.8859 122.217C34.8126 122.253 34.7853 122.298 34.7855 122.382C34.7887 123.619 34.7894 124.855 34.7878 126.091L34.7884 126.215Z" fill="white"/>
<path d="M32.8236 121.138C32.8356 122.832 32.8225 124.516 32.8333 126.211H31.7269C31.7242 126.17 31.7188 126.127 31.7188 126.085C31.7188 125.02 31.7188 123.954 31.7188 122.889C31.7188 122.401 31.7228 121.913 31.7249 121.424C31.7249 121.387 31.7249 121.35 31.7249 121.304L32.8236 121.138Z" fill="white"/>
<path d="M32.2245 120.639C31.6843 120.638 31.346 120.1 31.5701 119.593C31.7078 119.281 31.9444 119.163 32.2856 119.165C32.7428 119.169 33.0818 119.624 32.9728 120.068C32.8857 120.423 32.6008 120.64 32.2245 120.639Z" fill="white"/>
</g>
<g clip-path="url(#clip1_217_1726)">
<path d="M99.887 229.092H71.5215V257.457H99.887V229.092Z" fill="#FFC325"/>
<path d="M71.9526 243.275C71.9526 240.312 78.1094 237.911 85.7041 237.911C93.2988 237.911 99.4556 240.313 99.4556 243.275C99.4556 246.237 93.2991 248.638 85.7041 248.638C78.1091 248.638 71.9526 246.237 71.9526 243.275Z" fill="#006891"/>
<path d="M71.9526 243.275C71.9526 240.312 78.1094 237.911 85.7041 237.911C93.2988 237.911 99.4556 240.313 99.4556 243.275C99.4556 246.237 93.2991 248.638 85.7041 248.638C78.1091 248.638 71.9526 246.237 71.9526 243.275Z" stroke="#006891" stroke-width="1.40509" stroke-miterlimit="3.8636"/>
<path fill-rule="evenodd" clip-rule="evenodd" d="M76.9922 245.882L78.4194 240.554H80.6722V243.688H80.6869L82.2152 240.554H84.5035L83.0763 245.882H81.5888L82.5038 242.465H82.489L80.6722 245.882H79.4811V242.465H79.4568L78.5419 245.882H76.9922Z" fill="white"/>
<path fill-rule="evenodd" clip-rule="evenodd" d="M84.9062 245.987L85.1089 245.23H86.7506L86.5477 245.987H84.9062Z" fill="#EE4034"/>
<path fill-rule="evenodd" clip-rule="evenodd" d="M85.1659 245.018L85.9963 241.92H84.5039L84.8701 240.554H89.4962L89.1304 241.92H87.638L86.8079 245.017L85.1659 245.018Z" fill="#FFC325"/>
<path fill-rule="evenodd" clip-rule="evenodd" d="M88.4351 245.882L89.8614 240.554H91.4736L92.201 243.405H92.2152L92.9787 240.554H94.4691L93.0424 245.882H91.5087L90.7188 242.972H90.7046L89.9254 245.882H88.4351Z" fill="white"/>
</g>
<path fill-rule="evenodd" clip-rule="evenodd" d="M307.85 203.598C305.421 203.598 303.452 201.573 303.452 199.076C303.452 196.578 305.421 194.553 307.85 194.553C310.278 194.553 312.248 196.578 312.248 199.076C312.248 201.573 310.279 203.598 307.85 203.598ZM307.881 202.164C309.397 202.164 310.627 200.781 310.627 199.076C310.627 197.37 309.397 195.989 307.881 195.989C306.365 195.989 305.135 197.371 305.135 199.076C305.135 200.781 306.365 202.164 307.881 202.164Z" fill="white"/>
<path fill-rule="evenodd" clip-rule="evenodd" d="M298.776 190.912H301.945V203.548H300.206V192.298H298.776V190.912Z" fill="white"/>
<path fill-rule="evenodd" clip-rule="evenodd" d="M296.414 194.682H298.059V205.234C298.059 206.196 297.048 207.197 296.062 207.628C295.596 207.832 294.736 207.953 293.482 207.991V206.941C294.709 206.805 295.536 206.532 295.965 206.123C296.213 205.779 296.368 205.377 296.415 204.956V201.855C295.975 202.788 295.422 203.407 294.754 203.711C294.06 204.085 292.647 204.024 292.071 203.711C291.494 203.398 290.648 202.574 290.26 201.347C290.153 201.008 289.886 200.087 289.914 199.11C289.939 198.18 290.247 197.196 290.502 196.792C290.942 196.101 291.635 195.236 292.684 194.874C293.196 194.698 294.147 194.634 295.534 194.684V195.728C294.503 195.658 293.86 195.693 293.604 195.832C293.221 196.04 292.356 196.297 292.071 198.182C291.785 200.068 292.079 201.61 292.984 202.093C293.294 202.26 293.842 202.457 294.349 202.283C295.323 201.95 296.239 200.763 296.309 199.959C296.379 199.143 296.414 197.384 296.414 194.682Z" fill="white"/>
<g clip-path="url(#clip2_217_1726)">
<path fill-rule="evenodd" clip-rule="evenodd" d="M223.323 83.2107C223.648 83.2107 223.885 83.2795 224.035 83.4171C224.185 83.5547 224.26 83.7687 224.26 84.0591V85.6157H223.773V84.125C223.773 83.7967 223.589 83.6326 223.221 83.6326C223.062 83.6313 222.906 83.6752 222.771 83.7592C222.794 83.8574 222.805 83.9582 222.804 84.0591V85.6157H222.316V84.125C222.316 83.7967 222.132 83.6326 221.764 83.6326C221.596 83.6328 221.43 83.663 221.272 83.7218V85.6157H220.785V83.4546C220.947 83.3744 221.117 83.3148 221.293 83.2773C221.481 83.2335 221.673 83.2107 221.866 83.2094C222.17 83.2094 222.396 83.2685 222.544 83.3867C222.787 83.2705 223.053 83.2103 223.323 83.2107ZM225.93 85.6871C225.558 85.6871 225.279 85.5808 225.092 85.3682C224.905 85.1556 224.812 84.8462 224.812 84.44C224.812 83.6179 225.183 83.207 225.926 83.2071C226.3 83.2071 226.582 83.3126 226.771 83.5235C226.959 83.7343 227.053 84.0399 227.054 84.44C227.054 84.8398 226.956 85.1476 226.761 85.3634C226.567 85.5792 226.289 85.6871 225.93 85.6871ZM225.925 85.2697C226.352 85.2697 226.566 84.9931 226.565 84.44C226.565 84.165 226.515 83.9595 226.413 83.8236C226.312 83.6877 226.15 83.6196 225.926 83.6194C225.7 83.6194 225.539 83.689 225.441 83.8281C225.344 83.9673 225.295 84.1712 225.295 84.44C225.295 84.7086 225.345 84.9141 225.446 85.0565C225.546 85.1988 225.706 85.2695 225.925 85.2687V85.2697ZM228.68 83.2117C229.027 83.2117 229.29 83.3164 229.469 83.5257C229.648 83.7351 229.738 84.0317 229.739 84.4154C229.739 84.8781 229.631 85.2055 229.416 85.3976C229.201 85.5897 228.928 85.6862 228.597 85.6871C227.932 85.6871 227.599 85.509 227.599 85.1527V82.3199H228.082V83.3571C228.179 83.3107 228.281 83.2752 228.386 83.2514C228.482 83.2267 228.581 83.213 228.68 83.2107V83.2117ZM228.56 85.2603C228.813 85.2603 228.99 85.1869 229.091 85.04C229.193 84.8931 229.243 84.6915 229.243 84.4352C229.243 84.1728 229.19 83.9728 229.083 83.8352C228.977 83.6976 228.818 83.6289 228.608 83.6291C228.516 83.6297 228.425 83.6414 228.336 83.664C228.248 83.6855 228.162 83.7196 228.083 83.7653V85.0316C228.082 85.1836 228.241 85.2595 228.56 85.2593V85.2603ZM230.289 82.4428H230.809V82.8883H230.289V82.4428ZM230.303 83.2773H230.791L230.795 85.6167H230.303V83.2773ZM231.481 85.6167V82.3716H231.964V85.6157L231.481 85.6167ZM233.596 83.2051C233.958 83.2051 234.223 83.3233 234.392 83.5597C234.56 83.796 234.643 84.1266 234.64 84.5512H233.006C233.022 84.7825 233.089 84.9584 233.208 85.0787C233.328 85.1991 233.497 85.2592 233.717 85.2591C233.979 85.2593 234.238 85.1932 234.468 85.0668V85.5263C234.227 85.6335 233.951 85.6871 233.639 85.6871C233.29 85.6871 233.015 85.58 232.815 85.3659C232.616 85.1518 232.516 84.8479 232.516 84.4542C232.516 84.051 232.611 83.7424 232.799 83.5285C232.988 83.3146 233.253 83.2068 233.596 83.2051ZM233.582 83.6103C233.418 83.6103 233.29 83.6541 233.197 83.7418C233.104 83.8294 233.044 83.9778 233.016 84.187H234.144C234.122 83.9869 234.066 83.8409 233.976 83.7489C233.887 83.6568 233.755 83.6107 233.582 83.6103ZM228.928 64.3233C228.391 64.1904 227.977 64.1239 227.687 64.1237C225.525 64.1237 223.771 65.8712 223.771 68.0263C223.771 70.1813 225.525 71.9291 227.687 71.9291C229.849 71.9291 231.604 70.1815 231.604 68.0263C231.604 67.7114 231.566 67.3977 231.491 67.092L234.604 66.2534C234.856 67.2122 234.904 68.2133 234.744 69.1917C234.584 70.1702 234.22 71.104 233.676 71.9326L228.52 81.4905H223.744L227.138 75.2349C227.156 75.2005 227.102 75.1245 227.056 75.1204C223.43 74.7912 220.589 71.752 220.589 68.0521C220.589 64.1318 223.778 60.9541 227.712 60.9541C228.432 60.9533 229.148 61.0615 229.835 61.275L228.928 64.3233Z" fill="white"/>
<path d="M227.663 70.1727C228.849 70.1727 229.81 69.2117 229.81 68.0263C229.81 66.8408 228.849 65.8799 227.663 65.8799C226.478 65.8799 225.517 66.8408 225.517 68.0263C225.517 69.2117 226.478 70.1727 227.663 70.1727Z" fill="#D6E806"/>
<path d="M234.055 65.5385C233.386 63.8365 232.07 62.4685 230.396 61.7335M231.371 66.5629C231 65.6321 230.283 64.8806 229.371 64.4652L231.371 66.5629ZM232.737 65.9774C232.212 64.6864 231.219 63.6411 229.957 63.0504L232.737 65.9774Z" stroke="#D6E806" stroke-linecap="round"/>
</g>
<defs>
<clipPath id="clip0_217_1726">
<rect width="22.6128" height="22.6128" fill="white" transform="translate(25.1016 103.98)"/>
</clipPath>
<clipPath id="clip1_217_1726">
<rect width="28.9444" height="28.9444" fill="white" transform="translate(71.2319 228.803)"/>
</clipPath>
<clipPath id="clip2_217_1726">
<rect width="25.3263" height="25.3263" fill="white" transform="translate(215.049 60.5634)"/>
</clipPath>
</defs>
</svg>
