<svg width="175" height="240" viewBox="0 0 175 240" fill="none" xmlns="http://www.w3.org/2000/svg">
<g clip-path="url(#clip0_174_93)">
<path d="M0 24C0 10.7452 10.7452 0 24 0H151C164.255 0 175 10.7452 175 24V207.332C175 220.055 165.071 230.567 152.369 231.293L25.3692 238.55C11.5986 239.337 0 228.382 0 214.589V24Z" fill="#7165E3"/>
<g opacity="0.05">
<path d="M-227.799 -641.006C-226.48 -641.006 -225.6 -641.006 -224.281 -641.006C-224.721 -631.971 -225.161 -622.936 -225.6 -613.901C-227.359 -574.533 -227.359 -534.519 -225.16 -495.151C-222.962 -457.074 -219.003 -419.642 -213.726 -382.856C-200.972 -291.858 -182.061 -204.732 -160.511 -120.188C-155.234 -99.5355 -149.956 -79.5288 -142.48 -60.8129C-135.443 -42.7423 -126.207 -36.9339 -114.333 -42.7422C-107.736 -45.9691 -101.579 -49.196 -95.4221 -53.7137C-74.3121 -67.912 -53.6419 -82.7556 -32.5319 -96.9539C-5.70461 -115.67 20.6829 -133.095 48.8295 -143.421C69.4997 -151.166 90.1699 -153.747 110.84 -147.939C127.112 -143.421 142.945 -135.031 158.338 -125.351C180.767 -111.152 202.756 -96.9539 225.626 -86.6279C252.453 -75.0111 279.28 -68.5573 306.987 -75.0111C334.254 -81.4648 358.882 -98.8901 380.432 -127.932C401.982 -156.974 416.935 -195.697 427.49 -239.582C437.605 -280.886 442.883 -324.126 444.642 -369.303C445.961 -401.572 445.521 -433.195 442.003 -465.464C437.165 -511.931 428.809 -556.462 417.815 -599.057C414.296 -613.255 410.778 -626.808 406.82 -641.006C408.139 -641.006 409.019 -641.006 410.338 -641.006C410.778 -639.716 410.778 -637.78 411.218 -636.489C420.013 -605.511 427.93 -573.887 434.087 -540.973C441.123 -504.187 446.401 -466.109 447.72 -427.387C449.04 -394.473 448.16 -361.558 445.082 -328.644C441.563 -289.922 435.846 -253.135 426.17 -217.639C398.903 -118.251 352.725 -69.2028 291.594 -63.3944C263.448 -60.8129 236.181 -69.8481 209.353 -83.401C188.243 -94.3724 167.573 -106.635 146.903 -118.897C110.84 -140.194 74.7772 -143.421 38.2745 -126.641C8.80848 -113.088 -19.3382 -93.7271 -46.6052 -69.8481C-59.799 -58.8767 -72.1131 -46.6146 -83.1079 -29.8348C-97.621 -7.89195 -104.218 19.8593 -100.7 53.4188C-100.26 57.2911 -99.82 60.518 -99.3802 64.3903C-96.3016 87.6238 -91.9037 109.567 -86.1864 131.509C-60.2387 236.706 -22.8565 327.059 23.3216 406.44C33.4368 423.865 44.4316 438.709 54.9866 454.843C52.3478 454.843 50.1489 454.843 47.5101 454.843C47.5101 454.198 47.0703 454.198 47.0703 453.552C7.48912 398.05 -25.4952 332.222 -54.9612 259.939C-77.3906 205.082 -95.8618 145.062 -114.773 85.6877C-120.49 67.6171 -126.207 48.9012 -134.124 32.7668C-139.401 22.4407 -145.558 16.6324 -153.475 18.5685C-156.113 19.2139 -159.192 19.8593 -161.831 21.7953C-170.626 27.6038 -179.422 33.4122 -187.778 40.5113C-208.888 58.5818 -227.799 81.8154 -243.192 113.439C-257.265 142.481 -266.501 176.04 -271.778 212.827C-276.616 247.032 -280.134 281.882 -284.093 316.087C-288.93 362.554 -294.648 408.376 -305.642 451.616C-305.642 452.262 -306.082 453.552 -306.082 454.843C-310.92 454.843 -315.758 454.843 -320.595 454.843C-318.836 448.389 -317.517 441.936 -315.758 435.482C-306.522 394.178 -301.684 351.583 -297.726 307.697C-294.648 272.847 -291.569 237.997 -287.171 203.146C-282.773 165.714 -273.977 130.864 -260.344 100.531C-250.229 77.9431 -237.914 59.8726 -225.16 42.4474C-213.286 26.313 -200.972 10.1786 -189.098 -6.6012C-174.145 -27.8986 -168.427 -56.9406 -171.506 -91.1455C-173.705 -118.897 -178.103 -146.003 -182.941 -173.754C-193.056 -233.128 -203.611 -292.503 -213.726 -352.523C-220.323 -393.182 -224.721 -434.486 -227.799 -476.435C-229.119 -499.669 -230.438 -522.903 -230.438 -546.136C-229.998 -577.76 -228.679 -609.383 -227.799 -641.006Z" fill="url(#paint0_linear_174_93)"/>
<path d="M193.521 454.843C183.406 444.517 172.851 435.482 163.175 424.511C135.468 392.887 111.28 353.519 93.2484 303.825C81.374 271.556 73.018 236.706 70.819 198.629C69.0599 172.814 70.8191 148.289 77.4159 124.41C84.4526 101.177 95.4474 89.5601 109.081 83.7516C124.913 76.6525 140.746 77.9433 157.018 80.5248C178.568 84.3971 200.118 88.9147 221.667 93.4323C249.814 98.5953 277.961 101.177 306.107 99.886C335.134 98.5953 364.6 96.6592 393.626 95.3684C405.94 94.723 418.694 94.723 431.008 94.723C434.087 94.723 437.165 94.7231 439.804 96.0139C445.521 98.5953 447.28 103.113 445.961 111.503C444.202 121.184 442.443 130.864 440.684 140.545C434.087 170.232 427.93 199.919 421.333 229.607C411.657 274.138 400.223 318.023 384.83 358.037C369.877 396.759 351.846 430.319 328.977 454.198C328.537 454.198 328.537 454.843 328.537 455.489C321.94 455.489 315.343 455.489 309.186 455.489C309.626 454.843 310.065 454.198 310.505 453.552C331.615 436.773 349.207 410.958 364.16 378.689C385.71 332.222 399.343 278.655 407.699 220.572C410.338 201.856 411.657 182.494 410.778 162.488C410.338 153.452 409.019 145.062 405.06 139.254C401.542 134.091 397.144 128.283 392.746 126.347C383.071 121.829 373.395 117.957 363.72 117.311C341.73 115.375 319.301 114.73 297.312 113.439C277.521 112.148 257.73 111.503 238.38 108.276C214.631 105.049 190.882 99.8861 167.133 96.0139C151.741 93.4323 135.908 92.7869 120.515 98.5953C106.002 104.404 94.5677 117.957 87.9709 143.126C82.2536 164.424 81.374 186.367 83.1332 208.309C85.3322 242.514 92.8086 274.138 103.364 302.534C126.233 364.49 157.898 409.021 195.28 441.29C200.557 445.808 205.835 449.68 211.552 453.552C204.955 454.843 199.238 454.843 193.521 454.843Z" fill="url(#paint1_linear_174_93)"/>
<path d="M281.479 454.843C266.526 454.843 251.573 454.843 236.62 454.843C236.181 454.843 236.181 454.198 235.741 454.198C208.914 445.163 184.725 425.156 162.736 397.405C138.987 367.717 118.756 330.931 104.683 285.109C95.8872 255.422 90.17 224.444 92.3689 190.884C94.5679 150.871 108.201 123.12 131.071 115.375C144.264 110.857 157.458 111.503 170.652 113.439C192.641 116.666 214.631 121.183 236.62 123.765C266.086 126.992 295.552 129.573 325.018 132.155C339.532 133.446 354.045 136.027 368.558 144.417C380.432 151.516 387.909 165.714 390.547 187.012C392.746 203.146 391.867 219.926 390.108 236.06C384.39 288.336 371.636 334.803 352.725 375.462C335.573 412.248 314.464 438.709 288.076 451.616C285.877 452.907 283.678 454.198 281.479 454.843ZM180.767 131.509C164.055 130.864 152.62 130.864 141.186 135.382C120.955 143.126 107.322 169.587 105.563 206.373C104.243 234.124 108.201 260.585 115.678 284.464C140.746 363.845 178.568 413.539 227.825 436.127C266.086 453.552 300.39 437.418 329.416 390.305C349.207 358.682 362.401 319.314 369.877 273.492C372.956 254.776 374.275 235.415 372.076 216.054C370.317 200.565 366.799 187.012 359.762 177.331C353.165 167.651 345.249 161.842 336.893 157.97C323.699 152.161 310.066 149.58 296.872 147.644C276.641 145.062 255.971 142.481 235.741 139.899C215.95 136.673 195.72 134.091 180.767 131.509Z" fill="url(#paint2_linear_174_93)"/>
<path d="M-294.208 454.843C-291.129 439.999 -288.051 424.51 -284.972 409.667C-277.496 369.653 -273.537 327.704 -268.26 286.4C-264.302 253.486 -259.904 220.571 -251.988 189.593C-239.234 139.899 -219.443 103.113 -190.417 82.4608C-184.26 77.9432 -177.223 75.3616 -170.626 74.0709C-156.113 70.844 -144.239 81.8154 -134.124 99.2406C-122.689 118.602 -113.453 141.19 -103.778 164.424C-90.1445 197.338 -76.9508 231.543 -62.8775 264.457C-32.5319 335.448 1.33206 400.631 40.9133 456.134C38.2745 456.134 35.6358 456.134 32.997 456.134C32.5572 455.488 32.1174 454.198 31.6776 453.552C0.0127068 407.731 -28.5738 356.101 -55.401 301.889C-73.8723 264.457 -91.4639 226.38 -109.495 188.948C-117.851 171.523 -127.087 155.388 -137.642 141.835C-155.234 118.602 -174.584 114.73 -194.375 131.509C-204.49 139.899 -213.286 152.807 -220.763 167.651C-231.757 190.239 -239.674 216.054 -244.511 243.805C-251.108 281.237 -256.825 319.959 -262.543 358.037C-267.38 390.951 -272.658 424.51 -280.134 456.134C-285.412 454.843 -289.81 454.843 -294.208 454.843Z" fill="url(#paint3_linear_174_93)"/>
<path d="M463.113 -641.006C463.992 -635.843 465.312 -630.68 466.191 -626.163C477.186 -579.696 485.542 -531.292 489.5 -480.953C493.458 -435.777 494.338 -389.955 493.019 -344.133C490.82 -255.717 483.343 -168.591 471.029 -82.7557C467.071 -55.6498 462.673 -28.544 455.636 -3.37433C450.359 15.987 444.202 33.4121 434.087 46.3196C425.291 57.9364 415.176 64.3903 404.621 68.9078C388.788 76.007 372.516 79.2339 355.804 81.8154C328.977 86.3331 302.149 88.2692 275.322 86.9784C247.175 86.333 219.029 81.17 190.882 74.7162C174.17 70.844 157.458 66.9717 140.746 64.3903C126.673 62.4541 112.599 63.0995 98.5259 69.5532C76.5363 79.8793 64.662 106.34 60.7038 145.062C58.0651 172.168 59.8242 198.629 63.7823 225.089C71.2588 271.556 85.3322 312.215 103.364 347.711C124.474 390.305 149.542 423.865 177.249 451.616C178.128 452.262 179.008 453.552 179.887 454.843C175.929 454.843 171.971 454.843 168.013 454.843C167.133 453.552 166.694 452.907 165.814 451.616C148.662 433.546 132.39 412.248 117.437 388.369C94.5677 351.583 75.2169 309.633 62.463 258.649C53.6672 224.444 48.3897 188.948 49.709 150.871C50.1488 131.509 52.7876 112.793 58.0651 96.0137C65.5415 72.7801 78.2955 60.518 92.3688 53.4188C107.322 46.3197 122.714 45.6743 137.667 48.9012C155.259 52.1281 172.851 56.6457 190.003 61.1633C214.631 66.9717 239.259 72.1347 264.327 74.0709C288.516 75.3616 312.704 74.0709 336.893 69.5532C357.563 65.681 377.793 60.5179 397.584 49.5466C409.458 42.4474 420.453 33.4122 430.129 18.5685C441.563 0.497906 449.479 -21.4448 455.636 -45.9691C466.191 -88.564 472.788 -133.095 477.626 -178.917C481.144 -211.831 483.783 -245.391 486.422 -278.95C488.181 -302.184 489.061 -325.417 489.5 -349.296C489.94 -374.466 489.94 -399.636 489.061 -424.805C488.181 -446.748 486.862 -469.336 485.102 -491.279C480.705 -542.264 471.469 -592.603 459.155 -641.006C460.474 -641.006 461.794 -641.006 463.113 -641.006Z" fill="url(#paint4_linear_174_93)"/>
<path d="M413.416 -641.006C414.736 -641.006 415.615 -641.006 416.935 -641.006C423.092 -617.128 429.249 -593.249 434.966 -568.724C445.081 -522.257 452.558 -474.499 453.877 -424.805C454.757 -391.246 454.317 -358.332 451.238 -325.417C447.72 -287.985 442.443 -251.199 434.087 -216.349C418.254 -151.166 393.186 -101.472 356.243 -72.4296C324.578 -47.2599 291.594 -42.0969 257.73 -49.196C230.903 -53.7137 205.395 -65.3304 180.327 -78.238C160.976 -88.564 141.625 -98.2447 121.835 -106.635C103.803 -114.379 85.3321 -115.024 66.8609 -111.798C47.0703 -107.925 27.7195 -98.8901 8.8084 -85.9825C-8.34345 -74.3657 -24.6157 -59.5221 -39.5686 -40.8062C-63.3173 -10.4734 -73.4326 30.8306 -69.9142 82.4608C-67.7153 115.375 -61.998 146.353 -54.5215 176.04C-28.134 281.882 11.0074 370.299 61.5833 443.226C64.2221 447.098 66.4211 450.325 69.0598 454.198C66.4211 454.198 64.2221 454.198 61.5833 454.198C61.1436 452.907 60.7038 451.616 59.8242 450.971C40.4734 424.51 22.8817 394.823 7.04922 362.554C-22.4167 303.825 -47.9246 239.933 -66.3958 167.651C-74.3121 136.672 -80.909 105.694 -83.5477 71.4894C-86.6263 35.9937 -82.6681 3.72485 -68.155 -22.7356C-61.998 -34.3524 -54.5215 -44.0331 -47.045 -53.0684C-20.6576 -83.4011 8.8084 -103.408 39.1541 -116.961C64.6619 -128.577 90.6096 -131.159 116.557 -122.769C135.029 -116.961 152.62 -107.28 170.212 -96.9539C203.196 -78.238 236.18 -61.4582 271.364 -57.5859C294.233 -55.0045 316.662 -58.2313 338.652 -71.1389C367.678 -88.564 392.306 -116.315 411.217 -160.201C425.291 -193.115 434.966 -230.547 441.563 -270.56C446.841 -302.184 450.799 -335.098 451.238 -368.012C451.678 -391.246 451.678 -414.479 451.238 -437.713C450.799 -461.592 447.28 -484.18 444.202 -507.413C435.846 -553.235 425.73 -597.766 413.416 -641.006Z" fill="url(#paint5_linear_174_93)"/>
<path d="M159.657 454.843C156.578 454.843 153.06 454.843 149.982 454.843C149.102 453.552 148.222 452.262 147.343 450.971C127.992 427.737 109.96 401.922 93.2484 372.235C68.6201 327.704 49.7091 277.365 38.7143 217.345C32.1174 182.494 29.4787 146.998 33.8766 110.212C36.9551 82.4608 44.8714 60.518 58.0651 45.0289C65.9814 35.9937 74.7772 29.5399 84.0128 26.313C102.484 19.2139 120.955 20.5046 139.426 25.0222C159.657 30.1852 179.887 36.639 200.557 42.4474C239.699 53.4188 279.28 57.9365 319.301 51.4827C342.61 47.6104 365.479 40.5113 387.469 26.313C409.019 12.1147 427.05 -11.1189 440.244 -45.3239C451.678 -75.0112 459.155 -108.571 464.872 -142.776C475.867 -208.604 482.464 -276.369 484.663 -344.779C485.982 -388.019 485.542 -431.904 481.584 -474.499C476.746 -527.42 467.951 -578.405 455.636 -627.454C454.317 -632.617 453.438 -637.134 452.558 -641.006C453.877 -641.006 454.757 -641.006 456.076 -641.006C456.516 -639.716 456.516 -638.425 456.956 -636.489C461.354 -616.482 466.191 -597.121 470.15 -577.114C480.265 -526.775 485.982 -474.499 487.301 -420.288C488.181 -392.536 487.741 -364.14 486.862 -336.389C485.982 -311.219 484.663 -286.049 482.904 -260.88C480.265 -231.192 477.186 -202.15 473.668 -173.108C469.27 -136.322 463.113 -100.826 454.317 -65.9759C440.244 -9.82811 417.375 26.313 383.95 42.4474C365.479 51.4827 347.008 57.2911 328.097 60.5179C297.312 66.3264 266.526 66.3264 235.741 60.5179C211.552 56.0003 187.364 48.9012 163.175 43.0928C144.264 38.5752 125.793 33.4121 106.882 35.3483C95.4474 36.639 84.4526 40.5113 74.3374 48.9012C59.3845 61.1633 49.2693 80.5246 44.8714 108.276C40.4735 134.736 40.4735 161.197 43.1122 188.303C47.5101 232.834 58.0651 272.847 72.1384 310.279C93.2484 365.136 120.515 409.021 151.741 445.808C154.379 449.035 157.018 452.262 159.657 454.843Z" fill="url(#paint6_linear_174_93)"/>
<path d="M83.1332 454.843C80.4944 454.843 78.2955 454.843 75.6567 454.843C74.7772 452.907 73.4578 451.616 72.5782 449.68C26.8399 386.433 -9.223 308.343 -36.0502 216.699C-47.045 179.913 -55.4011 140.545 -58.4796 98.5952C-63.3173 39.8659 -52.3225 -7.24656 -24.1759 -41.4515C-11.8617 -56.2952 0.892169 -67.912 14.5258 -77.5927C46.6305 -99.5355 79.6149 -108.571 113.919 -98.8901C132.83 -93.7271 151.301 -84.0464 169.772 -74.3658C202.756 -57.5859 235.741 -42.7423 270.044 -38.8701C295.552 -36.2885 320.621 -40.1608 345.249 -56.2952C370.757 -73.075 393.186 -97.5993 410.778 -135.031C425.731 -167.3 435.846 -203.441 442.882 -242.809C450.359 -283.468 454.757 -325.417 456.076 -368.012C456.956 -398.99 456.516 -429.968 453.877 -460.301C450.359 -501.605 443.762 -541.618 434.966 -580.341C430.568 -600.348 425.291 -620.354 420.013 -641.006C421.333 -641.006 422.212 -641.006 423.532 -641.006C423.532 -639.716 423.971 -638.425 423.971 -637.78C432.327 -608.092 439.364 -577.114 445.521 -545.491C452.998 -504.832 458.275 -463.528 459.595 -420.933C460.474 -386.083 459.594 -350.587 456.516 -315.737C452.998 -276.369 447.28 -238.291 438.484 -202.15C428.369 -160.201 415.176 -122.769 394.945 -94.3724C364.6 -51.7775 329.856 -31.7709 291.594 -29.8348C263.887 -28.544 236.62 -34.3524 209.793 -45.9691C186.924 -55.6498 164.495 -66.6212 141.625 -76.9473C117.437 -86.6279 92.8086 -93.0817 68.1803 -87.9187C38.7143 -82.1103 11.887 -65.3305 -12.7413 -36.2885C-38.689 -5.3105 -50.1236 37.2844 -48.3644 92.1414C-47.4848 122.474 -43.0869 151.516 -36.9298 179.267C-21.0974 253.486 3.97075 318.023 33.8766 376.753C48.8295 405.794 65.5416 430.964 83.1332 454.843Z" fill="url(#paint7_linear_174_93)"/>
<path d="M445.961 -641.006C447.28 -641.006 448.16 -641.006 449.479 -641.006C449.919 -639.716 449.919 -639.07 450.359 -637.78C467.511 -570.66 479.385 -500.96 482.024 -426.741C483.343 -388.019 482.904 -349.296 480.265 -310.574C478.066 -279.596 475.427 -247.972 471.909 -216.994C467.071 -175.045 460.034 -134.386 449.919 -95.6631C434.526 -37.5793 409.458 1.14329 374.715 20.5046C347.008 35.9937 317.982 42.4474 288.956 43.7382C254.652 45.0289 220.348 37.9298 186.484 26.9584C164.055 19.8593 141.625 11.4693 118.756 8.88782C100.725 6.95166 82.6935 8.8878 65.9814 20.5046C52.7877 29.5399 41.3531 43.0928 33.8766 65.0355C26.84 85.0422 24.2012 107.63 23.7614 130.864C22.8818 173.459 29.4787 214.118 39.5939 252.195C55.8662 316.087 80.9343 367.717 110.84 412.248C120.955 427.092 131.51 440.645 142.065 454.843C138.987 454.843 136.348 454.843 133.269 454.843C132.83 454.198 131.95 452.907 131.51 452.262C116.118 432.9 101.604 412.248 88.4107 389.015C62.4631 345.129 41.3531 294.144 27.7196 234.77C18.9237 196.692 13.6462 157.97 14.9656 116.02C15.8452 65.681 29.4787 30.1853 55.8662 10.1786C72.5783 -2.72895 90.1699 -5.95581 108.201 -4.6651C124.913 -3.37433 141.186 1.14331 157.018 6.95166C182.966 15.9869 209.353 25.0222 235.741 30.1852C262.568 35.3483 289.395 35.9937 315.783 30.8306C336.453 26.9584 356.244 19.2138 375.594 6.30627C398.464 -9.18274 417.814 -33.0616 432.328 -67.912C443.762 -95.6632 451.678 -126.641 457.835 -159.555C469.71 -222.157 476.307 -286.695 478.066 -352.523C479.385 -391.246 478.945 -429.968 475.427 -468.046C472.348 -504.187 467.511 -540.328 460.034 -574.533C456.076 -597.121 450.799 -619.064 445.961 -641.006Z" fill="url(#paint8_linear_174_93)"/>
<path d="M426.17 -641.006C427.49 -641.006 428.369 -641.006 429.689 -641.006C438.485 -607.447 446.841 -573.242 452.998 -537.101C460.474 -494.506 464.872 -450.62 465.312 -406.089C465.752 -368.012 463.992 -330.58 460.034 -293.148C455.636 -251.199 449.039 -209.895 438.924 -171.172C428.809 -132.45 414.736 -98.2447 395.385 -71.7842C374.275 -43.3877 350.087 -27.2533 324.139 -18.218C298.631 -9.18276 273.123 -10.4735 247.175 -15.6365C221.667 -20.1541 197.039 -30.4801 172.411 -41.4515C149.542 -51.7776 126.673 -62.1036 103.364 -65.3305C70.3793 -69.2028 39.1541 -59.5222 10.5677 -29.1895C-3.9454 -13.7004 -15.8198 5.66098 -22.4167 33.4122C-27.6942 54.7096 -29.4533 77.9432 -29.0135 101.177C-28.1339 139.254 -22.8564 174.75 -14.5004 209.6C4.85042 288.981 32.997 357.391 69.4997 414.184C78.2955 428.383 87.9709 441.29 96.7668 454.843C94.128 454.843 91.9291 454.843 89.2903 454.843C88.8505 454.198 88.4107 452.907 87.5312 452.262C78.7353 439.354 69.4997 426.446 61.1437 412.894C24.2012 353.519 -4.82495 283.818 -24.1758 202.501C-32.5318 167.65 -38.6889 130.864 -39.1287 92.7868C-39.5685 56.6457 -34.7308 23.0861 -20.6575 -4.6651C-13.181 -18.8633 -4.82498 -30.4801 4.8504 -40.1608C38.7143 -73.7203 75.217 -84.6918 113.479 -75.0111C131.95 -70.4935 149.982 -62.1036 168.013 -53.7137C200.997 -38.2247 234.421 -24.6718 268.725 -21.4448C297.312 -18.8633 325.018 -23.381 351.846 -41.4515C380.432 -60.1675 404.621 -89.8548 422.212 -135.031C435.846 -169.882 444.642 -207.959 451.238 -248.617C457.396 -287.985 461.354 -327.999 462.233 -369.303C463.113 -408.025 462.233 -446.748 457.835 -484.825C451.238 -539.037 440.244 -590.667 426.17 -641.006Z" fill="url(#paint9_linear_174_93)"/>
<path d="M-255.506 454.843C-259.904 454.843 -264.742 454.843 -269.14 454.843C-263.422 423.22 -257.265 391.596 -251.548 359.327C-245.831 325.768 -240.993 291.563 -233.077 259.294C-226.92 233.479 -219.443 210.245 -208.009 190.239C-189.977 157.97 -166.668 151.516 -144.239 172.168C-133.684 181.849 -124.008 195.402 -115.213 210.245C-100.7 236.06 -86.1864 261.875 -72.1131 288.336C-50.5633 328.995 -29.0135 369.008 -5.70462 406.44C4.41058 422.574 14.9656 438.709 25.5206 454.843C22.8818 454.843 20.2431 454.843 17.6043 454.843C17.1645 454.198 16.7247 453.552 16.2849 452.262C-9.22295 416.121 -32.9716 376.753 -56.2806 337.385C-74.7518 306.406 -92.3435 274.138 -112.574 246.386C-123.569 231.543 -135.003 217.345 -148.197 209.6C-156.553 204.437 -165.349 203.146 -174.584 206.373C-189.537 212.182 -200.092 228.961 -208.888 249.613C-216.804 268.329 -222.522 288.981 -226.92 310.279C-236.595 358.682 -245.831 407.085 -255.506 454.843Z" fill="url(#paint10_linear_174_93)"/>
<path d="M432.767 -641.006C434.087 -641.006 434.966 -641.006 436.286 -641.006C442.003 -616.482 448.6 -591.958 453.437 -566.788C464.872 -511.286 471.029 -454.493 471.029 -395.763C471.029 -349.942 468.39 -304.765 463.113 -260.234C457.835 -216.994 450.359 -175.045 438.484 -135.677C428.369 -102.117 415.176 -73.075 397.584 -51.1322C375.155 -23.381 350.086 -8.53729 323.699 -0.1474C292.914 8.88782 262.128 7.59711 231.343 -0.792786C209.353 -6.6012 187.803 -14.9911 166.254 -22.7356C143.385 -31.1255 120.955 -40.8062 97.6463 -42.0969C74.3374 -42.7423 52.3478 -36.2885 31.2378 -17.5726C10.1278 1.78873 -5.26487 30.8306 -9.66279 74.0709C-10.9821 85.0422 -11.422 96.0137 -11.422 107.63C-11.8618 148.289 -5.70469 186.366 3.09115 223.153C20.6828 295.435 46.1907 357.391 79.6149 409.021C89.7301 425.156 100.725 439.999 111.28 454.843C108.641 454.843 106.442 454.843 103.803 454.843C100.285 450.326 96.7667 445.162 93.2484 440.645C58.9446 392.887 29.9185 336.094 8.36867 268.329C-6.14442 222.508 -17.1392 174.75 -20.2177 121.829C-21.9769 95.3682 -20.6576 68.9078 -14.9403 44.3835C-8.34342 14.0508 3.97072 -6.60121 19.8032 -22.0902C45.7509 -48.5507 74.3373 -56.9406 103.803 -53.0684C121.835 -51.1322 139.426 -44.0331 157.458 -36.9339C193.081 -21.4449 228.704 -6.6012 265.647 -3.37433C290.275 -1.43817 314.463 -2.72894 338.212 -14.3457C357.123 -23.381 375.594 -35.6432 391.867 -55.6498C413.856 -81.4649 429.249 -117.606 440.244 -159.555C457.396 -223.448 465.312 -291.858 467.511 -362.204C468.83 -406.735 467.511 -451.911 461.793 -495.797C455.636 -546.136 445.521 -594.539 432.767 -641.006Z" fill="url(#paint11_linear_174_93)"/>
<path d="M439.364 -641.006C440.683 -641.006 441.563 -641.006 442.882 -641.006C443.322 -638.425 443.762 -636.489 444.202 -633.907C456.076 -589.376 464.872 -542.264 470.589 -493.861C473.668 -466.755 475.867 -439.004 475.867 -411.252C475.867 -382.856 475.867 -354.459 474.547 -326.708C473.228 -300.248 470.589 -273.787 467.951 -247.972C463.113 -205.377 456.076 -164.073 445.961 -125.351C430.128 -65.9759 405.5 -24.0264 370.317 -1.43817C347.448 12.7601 324.139 20.5046 300.39 23.7315C273.563 26.9584 246.736 23.7315 219.908 16.6323C197.919 10.1786 176.369 2.43408 154.819 -4.6651C135.908 -11.1188 116.997 -16.9272 97.6463 -16.2819C78.2955 -15.6365 60.2641 -10.4735 43.1122 6.30627C28.1593 20.5046 16.7247 39.8659 11.0074 68.2625C6.6095 88.9146 5.29014 110.857 6.16972 133.446C7.04933 168.296 12.3268 201.21 19.8033 233.479C36.5153 303.18 61.5835 361.264 93.6882 410.312C104.243 426.447 115.238 441.29 125.793 456.134C123.154 456.134 120.515 456.134 117.877 456.134C116.997 454.843 116.118 453.552 115.678 452.262C104.243 435.482 92.3688 419.347 81.3741 401.922C49.2693 350.937 25.0808 290.272 9.24827 219.281C0.892248 181.203 -4.38527 142.481 -2.62609 101.177C-0.866937 56.0004 11.0074 21.7953 32.997 -1.43817C47.9499 -16.9272 64.2222 -24.6718 81.3741 -27.8987C100.725 -31.1255 120.076 -27.8986 138.987 -21.4448C163.615 -13.0549 188.243 -3.37433 212.872 4.37018C243.657 14.0508 274.882 17.9232 306.107 13.4055C324.579 10.824 342.61 4.37024 360.202 -5.95581C384.39 -20.1541 405.94 -42.7422 422.652 -78.238C435.406 -105.344 444.642 -135.677 451.239 -168.591C466.631 -242.164 473.668 -318.318 473.228 -397.054C473.228 -423.515 471.909 -449.975 469.27 -475.79C464.432 -524.193 456.076 -571.306 445.081 -616.482C443.322 -624.872 441.563 -633.262 439.364 -641.006Z" fill="url(#paint12_linear_174_93)"/>
<path d="M-243.192 454.843C-236.595 424.51 -230.438 393.532 -223.401 363.2C-219.003 343.193 -213.726 323.832 -208.009 305.116C-202.731 287.045 -195.694 271.556 -186.459 259.294C-174.585 243.16 -161.391 238.642 -146.878 244.45C-134.124 249.613 -123.129 260.585 -112.574 272.847C-94.5425 293.499 -78.7101 319.314 -62.4378 344.484C-38.2492 381.27 -13.6209 418.057 10.5676 454.843C7.48902 454.843 4.41047 454.843 1.33192 454.843C0.452346 453.552 -0.427203 452.262 -1.30678 450.971C-20.2178 424.51 -38.689 397.405 -57.6 370.944C-72.5529 349.647 -87.5058 328.349 -103.778 310.924C-114.773 299.307 -125.768 288.981 -138.522 283.818C-157.433 276.074 -173.265 285.754 -186.899 309.633C-196.134 326.413 -203.171 346.42 -208.448 367.717C-215.925 396.759 -222.522 425.801 -229.558 454.843C-233.956 454.843 -238.794 454.843 -243.192 454.843Z" fill="url(#paint13_linear_174_93)"/>
<path d="M194.84 150.871C225.186 155.388 255.531 159.906 285.877 165.069C299.071 167.005 312.264 170.877 325.018 179.267C332.055 183.785 338.652 189.593 344.369 199.274C351.406 211.536 354.924 226.38 355.804 243.16C356.683 261.23 354.924 278.655 351.406 295.435C341.73 341.902 325.458 378.689 301.27 403.213C281.479 423.22 259.929 430.319 237.5 423.22C189.123 407.731 152.18 362.554 127.552 287.045C122.275 271.556 119.636 253.486 118.756 235.415C116.557 196.047 129.311 165.069 150.861 155.388C165.374 149.58 180.327 150.225 194.84 150.871ZM207.594 176.686C203.196 176.686 198.798 176.686 193.961 176.686C183.406 176.686 172.851 177.331 162.735 182.494C142.945 192.175 132.83 218.635 135.908 254.776C137.227 271.556 140.746 287.045 146.023 300.598C166.254 354.81 194.84 388.369 230.903 401.922C267.845 415.475 305.668 387.724 325.458 328.995C332.055 308.988 336.013 287.691 335.573 264.457C335.134 238.642 327.657 220.571 314.903 208.955C304.788 199.274 293.793 194.111 282.359 190.884C257.73 183.14 232.662 179.267 207.594 176.686Z" fill="url(#paint14_linear_174_93)"/>
<path d="M211.992 202.501C232.222 203.792 252.453 206.373 272.243 215.408C280.16 219.281 288.076 223.798 295.552 230.252C310.945 243.805 317.102 268.329 313.584 297.371C310.945 320.605 303.469 338.675 293.353 352.874C266.526 389.015 237.5 389.66 207.594 367.072C189.123 352.874 173.73 331.576 162.735 301.244C159.217 291.563 156.578 280.591 155.259 268.975C152.18 241.223 159.217 219.281 174.17 209.6C183.845 203.792 193.961 202.501 204.516 201.855C206.715 202.501 209.353 202.501 211.992 202.501ZM222.987 243.16C220.348 243.16 217.709 243.16 215.071 243.16C207.594 243.805 200.118 245.741 193.081 252.195C186.044 259.294 182.966 271.556 185.165 285.754C186.484 296.08 189.563 304.47 193.961 311.57C206.715 334.803 222.547 346.42 240.578 345.774C253.332 345.129 264.327 338.03 273.563 321.25C281.919 305.761 281.919 281.882 273.123 268.975C269.165 263.166 264.767 258.649 259.929 255.422C248.055 246.386 235.741 243.805 222.987 243.16Z" fill="url(#paint15_linear_174_93)"/>
</g>
</g>
<defs>
<linearGradient id="paint0_linear_174_93" x1="-4.00542" y1="-75.0316" x2="-4.00542" y2="547.266" gradientUnits="userSpaceOnUse">
<stop stop-color="white"/>
<stop offset="0.393135" stop-color="white" stop-opacity="0"/>
</linearGradient>
<linearGradient id="paint1_linear_174_93" x1="-4.00541" y1="-75.0316" x2="-4.00541" y2="547.266" gradientUnits="userSpaceOnUse">
<stop stop-color="white"/>
<stop offset="0.393135" stop-color="white" stop-opacity="0"/>
</linearGradient>
<linearGradient id="paint2_linear_174_93" x1="-4.00538" y1="-75.0315" x2="-4.00538" y2="547.266" gradientUnits="userSpaceOnUse">
<stop stop-color="white"/>
<stop offset="0.393135" stop-color="white" stop-opacity="0"/>
</linearGradient>
<linearGradient id="paint3_linear_174_93" x1="-4.00543" y1="-75.0316" x2="-4.00543" y2="547.266" gradientUnits="userSpaceOnUse">
<stop stop-color="white"/>
<stop offset="0.393135" stop-color="white" stop-opacity="0"/>
</linearGradient>
<linearGradient id="paint4_linear_174_93" x1="-4.00541" y1="-75.0316" x2="-4.00541" y2="547.266" gradientUnits="userSpaceOnUse">
<stop stop-color="white"/>
<stop offset="0.393135" stop-color="white" stop-opacity="0"/>
</linearGradient>
<linearGradient id="paint5_linear_174_93" x1="-4.00545" y1="-75.0316" x2="-4.00545" y2="547.266" gradientUnits="userSpaceOnUse">
<stop stop-color="white"/>
<stop offset="0.393135" stop-color="white" stop-opacity="0"/>
</linearGradient>
<linearGradient id="paint6_linear_174_93" x1="-4.00537" y1="-75.0316" x2="-4.00537" y2="547.266" gradientUnits="userSpaceOnUse">
<stop stop-color="white"/>
<stop offset="0.393135" stop-color="white" stop-opacity="0"/>
</linearGradient>
<linearGradient id="paint7_linear_174_93" x1="-4.00545" y1="-75.0316" x2="-4.00545" y2="547.266" gradientUnits="userSpaceOnUse">
<stop stop-color="white"/>
<stop offset="0.393135" stop-color="white" stop-opacity="0"/>
</linearGradient>
<linearGradient id="paint8_linear_174_93" x1="-4.00538" y1="-75.0316" x2="-4.00538" y2="547.266" gradientUnits="userSpaceOnUse">
<stop stop-color="white"/>
<stop offset="0.393135" stop-color="white" stop-opacity="0"/>
</linearGradient>
<linearGradient id="paint9_linear_174_93" x1="-4.0054" y1="-75.0316" x2="-4.0054" y2="547.266" gradientUnits="userSpaceOnUse">
<stop stop-color="white"/>
<stop offset="0.393135" stop-color="white" stop-opacity="0"/>
</linearGradient>
<linearGradient id="paint10_linear_174_93" x1="-4.00542" y1="-75.0315" x2="-4.00542" y2="547.266" gradientUnits="userSpaceOnUse">
<stop stop-color="white"/>
<stop offset="0.393135" stop-color="white" stop-opacity="0"/>
</linearGradient>
<linearGradient id="paint11_linear_174_93" x1="-4.00544" y1="-75.0316" x2="-4.00544" y2="547.266" gradientUnits="userSpaceOnUse">
<stop stop-color="white"/>
<stop offset="0.393135" stop-color="white" stop-opacity="0"/>
</linearGradient>
<linearGradient id="paint12_linear_174_93" x1="-4.00545" y1="-75.0316" x2="-4.00545" y2="547.266" gradientUnits="userSpaceOnUse">
<stop stop-color="white"/>
<stop offset="0.393135" stop-color="white" stop-opacity="0"/>
</linearGradient>
<linearGradient id="paint13_linear_174_93" x1="-4.00545" y1="-75.0316" x2="-4.00545" y2="547.266" gradientUnits="userSpaceOnUse">
<stop stop-color="white"/>
<stop offset="0.393135" stop-color="white" stop-opacity="0"/>
</linearGradient>
<linearGradient id="paint14_linear_174_93" x1="-4.00539" y1="-75.0317" x2="-4.00539" y2="547.266" gradientUnits="userSpaceOnUse">
<stop stop-color="white"/>
<stop offset="0.393135" stop-color="white" stop-opacity="0"/>
</linearGradient>
<linearGradient id="paint15_linear_174_93" x1="-4.0054" y1="-75.0316" x2="-4.0054" y2="547.266" gradientUnits="userSpaceOnUse">
<stop stop-color="white"/>
<stop offset="0.393135" stop-color="white" stop-opacity="0"/>
</linearGradient>
<clipPath id="clip0_174_93">
<rect width="175" height="240" fill="white"/>
</clipPath>
</defs>
</svg>
