<svg width="414" height="156" viewBox="0 0 414 156" fill="none" xmlns="http://www.w3.org/2000/svg">
<rect width="176.067" height="223.018" rx="17" transform="matrix(-1 8.74228e-08 -0.302536 0.953138 241.637 15.9316)" fill="#7D209F"/>
<path d="M228.891 39.321L234.725 29.9887L228.891 19.3663L216.662 5.33042L208.73 1.09459L206.974 52.6483L228.891 39.321Z" fill="#7D209F"/>
<rect width="176.067" height="223.018" rx="17" transform="matrix(-1 8.74228e-08 -0.302536 0.953138 226.781 0.14592)" fill="#EBE9FB"/>
<mask id="mask0_460_8854" style="mask-type:alpha" maskUnits="userSpaceOnUse" x="10" y="16" width="363" height="301">
<path d="M342.503 17.0938L120.058 16.6432C114.792 16.4346 108.426 19.4271 102.359 24.9623C96.2931 30.4976 90.9568 40.6743 87.6435 48.711L14.5217 275.217C11.2084 283.254 10.1227 291.044 11.5033 296.875C12.884 302.705 16.618 306.098 21.8838 306.306L266.59 316.31C271.451 316.503 277.327 313.74 282.927 308.631C288.527 303.521 293.391 296.483 296.449 289.065L371.636 52.7691C371.882 43.378 373.493 40.8664 368.909 33.0848C364.324 25.3032 347.373 17.2631 342.513 17.0705L342.503 17.0938Z" fill="white"/>
</mask>
<g mask="url(#mask0_460_8854)">
<g opacity="0.2">
<path d="M544.816 -255.716L269.325 416.409" stroke="#7D209F" stroke-width="0.2"/>
<path d="M540.156 -255.901L264.665 416.224" stroke="#7D209F" stroke-width="0.2"/>
<path d="M535.496 -256.085L260.005 416.04" stroke="#7D209F" stroke-width="0.2"/>
<path d="M530.828 -256.271L255.337 415.854" stroke="#7D209F" stroke-width="0.2"/>
<path d="M526.172 -256.455L250.681 415.67" stroke="#7D209F" stroke-width="0.2"/>
<path d="M521.512 -256.64L246.021 415.485" stroke="#7D209F" stroke-width="0.2"/>
<path d="M516.852 -256.824L241.36 415.301" stroke="#7D209F" stroke-width="0.2"/>
<path d="M512.184 -257.01L236.692 415.115" stroke="#7D209F" stroke-width="0.2"/>
<path d="M507.523 -257.193L232.032 414.932" stroke="#7D209F" stroke-width="0.2"/>
<path d="M502.863 -257.378L227.372 414.747" stroke="#7D209F" stroke-width="0.2"/>
<path d="M498.203 -257.563L222.712 414.562" stroke="#7D209F" stroke-width="0.2"/>
<path d="M493.543 -257.748L218.052 414.377" stroke="#7D209F" stroke-width="0.2"/>
<path d="M488.879 -257.932L213.388 414.193" stroke="#7D209F" stroke-width="0.2"/>
<path d="M484.219 -258.117L208.728 414.008" stroke="#7D209F" stroke-width="0.2"/>
<path d="M479.559 -258.302L204.067 413.823" stroke="#7D209F" stroke-width="0.2"/>
<path d="M474.898 -258.486L199.407 413.639" stroke="#7D209F" stroke-width="0.2"/>
<path d="M470.234 -258.672L194.743 413.453" stroke="#7D209F" stroke-width="0.2"/>
<path d="M465.574 -258.856L190.083 413.269" stroke="#7D209F" stroke-width="0.2"/>
<path d="M460.914 -259.04L185.423 413.085" stroke="#7D209F" stroke-width="0.2"/>
<path d="M456.25 -259.226L180.759 412.899" stroke="#7D209F" stroke-width="0.2"/>
<path d="M451.59 -259.41L176.099 412.715" stroke="#7D209F" stroke-width="0.2"/>
<path d="M446.934 -259.594L171.442 412.531" stroke="#7D209F" stroke-width="0.2"/>
<path d="M442.27 -259.78L166.778 412.345" stroke="#7D209F" stroke-width="0.2"/>
<path d="M437.609 -259.964L162.118 412.161" stroke="#7D209F" stroke-width="0.2"/>
<path d="M432.949 -260.149L157.458 411.976" stroke="#7D209F" stroke-width="0.2"/>
<path d="M428.285 -260.333L152.794 411.792" stroke="#7D209F" stroke-width="0.2"/>
<path d="M423.625 -260.519L148.134 411.606" stroke="#7D209F" stroke-width="0.2"/>
<path d="M418.965 -260.702L143.474 411.423" stroke="#7D209F" stroke-width="0.2"/>
<path d="M414.305 -260.887L138.813 411.238" stroke="#7D209F" stroke-width="0.2"/>
<path d="M409.637 -261.072L134.146 411.053" stroke="#7D209F" stroke-width="0.2"/>
<path d="M404.977 -261.257L129.485 410.868" stroke="#7D209F" stroke-width="0.2"/>
<path d="M400.316 -261.441L124.825 410.684" stroke="#7D209F" stroke-width="0.2"/>
<path d="M395.656 -261.627L120.165 410.498" stroke="#7D209F" stroke-width="0.2"/>
<path d="M390.992 -261.811L115.501 410.314" stroke="#7D209F" stroke-width="0.2"/>
<path d="M386.34 -261.995L110.849 410.13" stroke="#7D209F" stroke-width="0.2"/>
<path d="M381.672 -262.18L106.181 409.945" stroke="#7D209F" stroke-width="0.2"/>
<path d="M377.012 -262.365L101.521 409.76" stroke="#7D209F" stroke-width="0.2"/>
<path d="M372.352 -262.549L96.8604 409.576" stroke="#7D209F" stroke-width="0.2"/>
<path d="M367.688 -262.734L92.1963 409.391" stroke="#7D209F" stroke-width="0.2"/>
<path d="M363.027 -262.919L87.5362 409.206" stroke="#7D209F" stroke-width="0.2"/>
<path d="M358.363 -263.104L82.8721 409.021" stroke="#7D209F" stroke-width="0.2"/>
<path d="M353.707 -263.287L78.2158 408.838" stroke="#7D209F" stroke-width="0.2"/>
<path d="M349.047 -263.473L73.5557 408.652" stroke="#7D209F" stroke-width="0.2"/>
<path d="M344.383 -263.658L68.8916 408.467" stroke="#7D209F" stroke-width="0.2"/>
<path d="M339.723 -263.842L64.2315 408.283" stroke="#7D209F" stroke-width="0.2"/>
<path d="M335.055 -264.027L59.5635 408.097" stroke="#7D209F" stroke-width="0.2"/>
<path d="M330.395 -264.212L54.9033 407.913" stroke="#7D209F" stroke-width="0.2"/>
<path d="M325.738 -264.397L50.2471 407.728" stroke="#7D209F" stroke-width="0.2"/>
<path d="M321.078 -264.581L45.5869 407.544" stroke="#7D209F" stroke-width="0.2"/>
<path d="M316.418 -264.766L40.9268 407.359" stroke="#7D209F" stroke-width="0.2"/>
<path d="M311.75 -264.95L36.2588 407.175" stroke="#7D209F" stroke-width="0.2"/>
<path d="M307.09 -265.136L31.5987 406.989" stroke="#7D209F" stroke-width="0.2"/>
<path d="M302.43 -265.32L26.9385 406.805" stroke="#7D209F" stroke-width="0.2"/>
<path d="M297.77 -265.505L22.2783 406.62" stroke="#7D209F" stroke-width="0.2"/>
<path d="M293.109 -265.689L17.6182 406.436" stroke="#7D209F" stroke-width="0.2"/>
<path d="M288.453 -265.874L12.9619 406.251" stroke="#7D209F" stroke-width="0.2"/>
<path d="M283.785 -266.058L8.29397 406.067" stroke="#7D209F" stroke-width="0.2"/>
<path d="M279.125 -266.243L3.63381 405.882" stroke="#7D209F" stroke-width="0.2"/>
<path d="M274.461 -266.428L-1.03025 405.697" stroke="#7D209F" stroke-width="0.2"/>
<path d="M269.801 -266.613L-5.69041 405.512" stroke="#7D209F" stroke-width="0.2"/>
<path d="M265.141 -266.797L-10.3506 405.328" stroke="#7D209F" stroke-width="0.2"/>
<path d="M260.48 -266.982L-15.0107 405.143" stroke="#7D209F" stroke-width="0.2"/>
<path d="M255.82 -267.166L-19.6709 404.959" stroke="#7D209F" stroke-width="0.2"/>
<path d="M251.16 -267.351L-24.331 404.774" stroke="#7D209F" stroke-width="0.2"/>
<path d="M246.496 -267.536L-28.9951 404.589" stroke="#7D209F" stroke-width="0.2"/>
<path d="M241.836 -267.721L-33.6553 404.404" stroke="#7D209F" stroke-width="0.2"/>
<path d="M237.176 -267.905L-38.3154 404.22" stroke="#7D209F" stroke-width="0.2"/>
<path d="M232.516 -268.09L-42.9756 404.035" stroke="#7D209F" stroke-width="0.2"/>
<path d="M227.852 -268.275L-47.6396 403.85" stroke="#7D209F" stroke-width="0.2"/>
<path d="M223.191 -268.459L-52.2998 403.666" stroke="#7D209F" stroke-width="0.2"/>
<path d="M218.531 -268.643L-56.9599 403.482" stroke="#7D209F" stroke-width="0.2"/>
<path d="M213.863 -268.829L-61.6279 403.296" stroke="#7D209F" stroke-width="0.2"/>
<path d="M209.203 -269.013L-66.2881 403.112" stroke="#7D209F" stroke-width="0.2"/>
<path d="M204.543 -269.197L-70.9482 402.928" stroke="#7D209F" stroke-width="0.2"/>
<path d="M199.879 -269.384L-75.6123 402.741" stroke="#7D209F" stroke-width="0.2"/>
<path d="M195.223 -269.567L-80.2685 402.558" stroke="#7D209F" stroke-width="0.2"/>
<path d="M190.566 -269.752L-84.9248 402.373" stroke="#7D209F" stroke-width="0.2"/>
<path d="M185.898 -269.937L-89.5928 402.188" stroke="#7D209F" stroke-width="0.2"/>
<path d="M181.238 -270.122L-94.2529 402.003" stroke="#7D209F" stroke-width="0.2"/>
<path d="M176.578 -270.306L-98.9131 401.819" stroke="#7D209F" stroke-width="0.2"/>
<path d="M171.918 -270.49L-103.573 401.635" stroke="#7D209F" stroke-width="0.2"/>
<path d="M167.254 -270.675L-108.237 401.45" stroke="#7D209F" stroke-width="0.2"/>
<path d="M162.594 -270.86L-112.897 401.265" stroke="#7D209F" stroke-width="0.2"/>
<path d="M157.934 -271.044L-117.558 401.081" stroke="#7D209F" stroke-width="0.2"/>
<path d="M153.273 -271.229L-122.218 400.896" stroke="#7D209F" stroke-width="0.2"/>
<path d="M148.613 -271.414L-126.878 400.711" stroke="#7D209F" stroke-width="0.2"/>
<path d="M143.953 -271.598L-131.538 400.527" stroke="#7D209F" stroke-width="0.2"/>
<path d="M139.289 -271.783L-136.202 400.342" stroke="#7D209F" stroke-width="0.2"/>
<path d="M134.629 -271.968L-140.862 400.157" stroke="#7D209F" stroke-width="0.2"/>
<path d="M129.969 -272.152L-145.522 399.973" stroke="#7D209F" stroke-width="0.2"/>
<path d="M125.305 -272.338L-150.187 399.787" stroke="#7D209F" stroke-width="0.2"/>
<path d="M120.645 -272.522L-154.847 399.603" stroke="#7D209F" stroke-width="0.2"/>
<path d="M115.984 -272.707L-159.507 399.418" stroke="#7D209F" stroke-width="0.2"/>
<path d="M111.316 -272.892L-164.175 399.233" stroke="#7D209F" stroke-width="0.2"/>
<path d="M106.656 -273.076L-168.835 399.049" stroke="#7D209F" stroke-width="0.2"/>
<path d="M102.004 -273.261L-173.487 398.864" stroke="#7D209F" stroke-width="0.2"/>
<path d="M97.3359 -273.445L-178.155 398.68" stroke="#7D209F" stroke-width="0.2"/>
<path d="M92.6758 -273.631L-182.815 398.494" stroke="#7D209F" stroke-width="0.2"/>
<path d="M88.0195 -273.815L-187.472 398.31" stroke="#7D209F" stroke-width="0.2"/>
<path d="M83.3516 -274L-192.14 398.125" stroke="#7D209F" stroke-width="0.2"/>
<path d="M78.6914 -274.185L-196.8 397.94" stroke="#7D209F" stroke-width="0.2"/>
<path d="M74.0312 -274.369L-201.46 397.756" stroke="#7D209F" stroke-width="0.2"/>
<path d="M69.3711 -274.553L-206.12 397.572" stroke="#7D209F" stroke-width="0.2"/>
<path d="M64.707 -274.739L-210.784 397.386" stroke="#7D209F" stroke-width="0.2"/>
<path d="M60.0469 -274.923L-215.444 397.202" stroke="#7D209F" stroke-width="0.2"/>
<path d="M55.3906 -275.107L-220.101 397.018" stroke="#7D209F" stroke-width="0.2"/>
<path d="M50.7266 -275.293L-224.765 396.832" stroke="#7D209F" stroke-width="0.2"/>
<path d="M46.0664 -275.477L-229.425 396.648" stroke="#7D209F" stroke-width="0.2"/>
<path d="M41.4062 -275.661L-234.085 396.464" stroke="#7D209F" stroke-width="0.2"/>
<path d="M36.7422 -275.846L-238.749 396.279" stroke="#7D209F" stroke-width="0.2"/>
<path d="M32.082 -276.032L-243.409 396.093" stroke="#7D209F" stroke-width="0.2"/>
<path d="M27.4219 -276.216L-248.069 395.909" stroke="#7D209F" stroke-width="0.2"/>
<path d="M22.7578 -276.4L-252.733 395.725" stroke="#7D209F" stroke-width="0.2"/>
<path d="M18.0977 -276.586L-257.394 395.539" stroke="#7D209F" stroke-width="0.2"/>
<path d="M13.4375 -276.769L-262.054 395.356" stroke="#7D209F" stroke-width="0.2"/>
</g>
<g opacity="0.2">
<path d="M687.957 154.837L-300.514 288.138" stroke="#7D209F" stroke-width="0.2"/>
<path d="M685.789 150.708L-302.681 284.009" stroke="#7D209F" stroke-width="0.2"/>
<path d="M683.621 146.579L-304.849 279.88" stroke="#7D209F" stroke-width="0.2"/>
<path d="M681.449 142.45L-307.021 275.751" stroke="#7D209F" stroke-width="0.2"/>
<path d="M679.277 138.32L-309.193 271.622" stroke="#7D209F" stroke-width="0.2"/>
<path d="M677.109 134.191L-311.361 267.493" stroke="#7D209F" stroke-width="0.2"/>
<path d="M674.938 130.063L-313.533 263.364" stroke="#7D209F" stroke-width="0.2"/>
<path d="M672.77 125.934L-315.701 259.235" stroke="#7D209F" stroke-width="0.2"/>
<path d="M670.598 121.804L-317.873 255.106" stroke="#7D209F" stroke-width="0.2"/>
<path d="M668.426 117.676L-320.045 250.977" stroke="#7D209F" stroke-width="0.2"/>
<path d="M666.258 113.547L-322.213 246.848" stroke="#7D209F" stroke-width="0.2"/>
<path d="M664.086 109.417L-324.385 242.718" stroke="#7D209F" stroke-width="0.2"/>
<path d="M661.91 105.288L-326.56 238.589" stroke="#7D209F" stroke-width="0.2"/>
<path d="M659.746 101.159L-328.724 234.461" stroke="#7D209F" stroke-width="0.2"/>
<path d="M657.57 97.0305L-330.9 230.332" stroke="#7D209F" stroke-width="0.2"/>
<path d="M655.398 92.9006L-333.072 226.202" stroke="#7D209F" stroke-width="0.2"/>
<path d="M653.23 88.7717L-335.24 222.073" stroke="#7D209F" stroke-width="0.2"/>
<path d="M651.059 84.6432L-337.412 217.944" stroke="#7D209F" stroke-width="0.2"/>
<path d="M648.887 80.5133L-339.584 213.815" stroke="#7D209F" stroke-width="0.2"/>
<path d="M646.719 76.3853L-341.752 209.687" stroke="#7D209F" stroke-width="0.2"/>
<path d="M644.551 72.2566L-343.92 205.558" stroke="#7D209F" stroke-width="0.2"/>
<path d="M642.379 68.1267L-346.092 201.428" stroke="#7D209F" stroke-width="0.2"/>
<path d="M640.207 63.9978L-348.264 197.299" stroke="#7D209F" stroke-width="0.2"/>
<path d="M638.035 59.868L-350.435 193.169" stroke="#7D209F" stroke-width="0.2"/>
<path d="M635.867 55.7394L-352.603 189.041" stroke="#7D209F" stroke-width="0.2"/>
<path d="M633.695 51.6104L-354.775 184.912" stroke="#7D209F" stroke-width="0.2"/>
<path d="M631.527 47.4818L-356.943 180.783" stroke="#7D209F" stroke-width="0.2"/>
<path d="M629.355 43.352L-359.115 176.653" stroke="#7D209F" stroke-width="0.2"/>
<path d="M627.18 39.2231L-361.291 172.524" stroke="#7D209F" stroke-width="0.2"/>
<path d="M625.016 35.0942L-363.455 168.395" stroke="#7D209F" stroke-width="0.2"/>
<path d="M622.84 30.9654L-365.631 164.267" stroke="#7D209F" stroke-width="0.2"/>
<path d="M620.668 26.8355L-367.803 160.137" stroke="#7D209F" stroke-width="0.2"/>
<path d="M618.5 22.7068L-369.971 156.008" stroke="#7D209F" stroke-width="0.2"/>
<path d="M616.328 18.5772L-372.142 151.878" stroke="#7D209F" stroke-width="0.2"/>
<path d="M614.156 14.4484L-374.314 147.75" stroke="#7D209F" stroke-width="0.2"/>
<path d="M611.988 10.3196L-376.482 143.621" stroke="#7D209F" stroke-width="0.2"/>
<path d="M609.816 6.19085L-378.654 139.492" stroke="#7D209F" stroke-width="0.2"/>
<path d="M607.648 2.06194L-380.822 135.363" stroke="#7D209F" stroke-width="0.2"/>
<path d="M605.477 -2.06791L-382.994 131.233" stroke="#7D209F" stroke-width="0.2"/>
<path d="M603.305 -6.19662L-385.166 127.105" stroke="#7D209F" stroke-width="0.2"/>
<path d="M601.129 -10.3265L-387.342 122.975" stroke="#7D209F" stroke-width="0.2"/>
<path d="M598.965 -14.4552L-389.506 118.846" stroke="#7D209F" stroke-width="0.2"/>
<path d="M596.797 -18.5831L-391.674 114.718" stroke="#7D209F" stroke-width="0.2"/>
<path d="M594.625 -22.7119L-393.846 110.589" stroke="#7D209F" stroke-width="0.2"/>
<path d="M592.449 -26.8417L-396.021 106.46" stroke="#7D209F" stroke-width="0.2"/>
<path d="M590.281 -30.9706L-398.189 102.331" stroke="#7D209F" stroke-width="0.2"/>
<path d="M588.109 -35.0992L-400.361 98.202" stroke="#7D209F" stroke-width="0.2"/>
<path d="M585.941 -39.2282L-402.529 94.073" stroke="#7D209F" stroke-width="0.2"/>
<path d="M583.77 -43.358L-404.701 89.9432" stroke="#7D209F" stroke-width="0.2"/>
<path d="M581.598 -47.4869L-406.873 85.8144" stroke="#7D209F" stroke-width="0.2"/>
<path d="M579.43 -51.6167L-409.041 81.6845" stroke="#7D209F" stroke-width="0.2"/>
<path d="M577.258 -55.7454L-411.213 77.5559" stroke="#7D209F" stroke-width="0.2"/>
<path d="M575.086 -59.8742L-413.385 73.427" stroke="#7D209F" stroke-width="0.2"/>
<path d="M572.918 -64.0041L-415.553 69.2972" stroke="#7D209F" stroke-width="0.2"/>
<path d="M570.746 -68.1329L-417.724 65.1683" stroke="#7D209F" stroke-width="0.2"/>
<path d="M568.574 -72.2617L-419.896 61.0395" stroke="#7D209F" stroke-width="0.2"/>
<path d="M566.406 -76.3915L-422.064 56.9097" stroke="#7D209F" stroke-width="0.2"/>
<path d="M564.234 -80.5204L-424.236 52.7808" stroke="#7D209F" stroke-width="0.2"/>
<path d="M562.059 -84.6489L-426.412 48.6523" stroke="#7D209F" stroke-width="0.2"/>
<path d="M559.891 -88.7777L-428.58 44.5235" stroke="#7D209F" stroke-width="0.2"/>
<path d="M557.719 -92.9075L-430.752 40.3937" stroke="#7D209F" stroke-width="0.2"/>
<path d="M555.547 -97.0365L-432.924 36.2648" stroke="#7D209F" stroke-width="0.2"/>
<path d="M553.379 -101.165L-435.092 32.1361" stroke="#7D209F" stroke-width="0.2"/>
<path d="M551.207 -105.295L-437.264 28.0062" stroke="#7D209F" stroke-width="0.2"/>
<path d="M549.035 -109.424L-439.435 23.8774" stroke="#7D209F" stroke-width="0.2"/>
<path d="M546.867 -113.552L-441.603 19.7487" stroke="#7D209F" stroke-width="0.2"/>
</g>
</g>
<circle r="12.8049" transform="matrix(-1 8.74228e-08 -0.302536 0.953138 166.192 71.9375)" fill="#7D209F"/>
<circle r="12.8049" transform="matrix(-1 8.74228e-08 -0.302536 0.953138 150.696 120.757)" fill="#7D209F"/>
<circle r="12.8049" transform="matrix(-1 8.74228e-08 -0.302536 0.953138 114.97 71.9376)" fill="#7D209F"/>
<circle r="12.8049" transform="matrix(-1 8.74228e-08 -0.302536 0.953138 99.4735 120.757)" fill="#7D209F"/>
<circle r="12.8049" transform="matrix(-1 8.74228e-08 -0.302536 0.953138 63.7509 71.9374)" fill="#7D209F"/>
<circle r="12.8049" transform="matrix(-1 8.74228e-08 -0.302536 0.953138 48.2548 120.757)" fill="#7D209F"/>
<rect width="129.116" height="20.2744" transform="matrix(-1 8.74228e-08 -0.302536 0.953138 196.848 19.05)" fill="#7D209F"/>
</svg>
