<svg width="272" height="350" viewBox="0 0 272 350" fill="none" xmlns="http://www.w3.org/2000/svg">
<path d="M103.255 278.538C103.255 278.538 86.5605 311.934 86.5605 311.966C85.1772 318.859 84.0961 324.935 83.8258 328.128C83.8214 328.146 83.8214 328.165 83.8258 328.183C83.6797 328.924 83.7096 329.688 83.9132 330.415C83.9132 330.415 83.9132 330.415 83.9132 330.463C85.686 332.266 140.554 344.885 142.613 344.679C144.672 344.472 144.259 338.595 142.518 336.403C140.777 334.211 121.976 320.011 121.976 320.011L138.328 286.543L103.255 278.538Z" fill="#AD6359"/>
<path d="M141.834 344.687C139.775 344.885 85.7336 332.266 83.9608 330.463V330.415C83.7615 329.688 83.7316 328.924 83.8734 328.183C83.8695 328.165 83.8695 328.146 83.8734 328.128C84.1437 324.951 85.2248 318.859 86.6001 311.958C86.6001 311.958 88.7465 307.677 90.5749 303.96L125.188 313.443L122.008 319.995C122.008 319.995 140.014 334.219 141.762 336.403C143.511 338.587 143.893 344.488 141.834 344.687Z" fill="#F5CF48"/>
<path d="M142.581 343.837C140.491 343.996 85.5031 329.986 83.7542 328.128C83.0784 327.429 84.6525 319.304 86.8386 309.543L86.9102 309.242L122.493 317.883L122.326 318.478C122.326 318.478 140.975 333.242 142.685 335.498C144.394 337.753 144.688 343.654 142.581 343.837Z" fill="#7165E3"/>
<path d="M142.502 341.518C133.288 338.929 95.8852 329.359 86.5842 327.5C86.5047 327.5 86.4967 327.5 86.5842 327.556C95.6626 330.32 133.137 339.588 142.478 341.669C142.661 341.717 142.693 341.574 142.502 341.518Z" fill="white"/>
<path d="M125.267 319.312C121.793 317.724 117.19 317.128 113.74 319.01C113.605 319.082 113.74 319.272 113.843 319.264C117.616 319.03 121.403 319.198 125.14 319.765C125.196 319.771 125.253 319.757 125.3 319.725C125.346 319.694 125.381 319.647 125.396 319.592C125.411 319.538 125.407 319.48 125.383 319.429C125.359 319.377 125.318 319.336 125.267 319.312Z" fill="white"/>
<path d="M127.501 321.599C124.027 320.011 119.416 319.415 115.966 321.298C115.839 321.369 115.966 321.56 116.069 321.552C119.842 321.317 123.629 321.485 127.366 322.052C127.423 322.061 127.481 322.049 127.53 322.018C127.579 321.988 127.615 321.94 127.632 321.885C127.648 321.83 127.644 321.77 127.62 321.718C127.596 321.665 127.554 321.623 127.501 321.599Z" fill="white"/>
<path d="M129.727 323.823C126.253 322.235 121.65 321.639 118.2 323.521C118.065 323.593 118.2 323.783 118.295 323.775C122.068 323.539 125.855 323.71 129.592 324.284C129.647 324.287 129.703 324.271 129.748 324.239C129.794 324.207 129.827 324.161 129.843 324.107C129.859 324.054 129.856 323.996 129.835 323.945C129.813 323.893 129.775 323.85 129.727 323.823Z" fill="white"/>
<path d="M143.893 342.05C144.775 342.678 143.726 345.926 142.947 346.021C142.168 346.116 82.2754 330.566 81.3135 330.082C80.3516 329.597 81.6554 326.031 82.9035 326.15C84.1515 326.269 143.893 342.05 143.893 342.05Z" fill="#7D209F"/>
<path d="M94.4146 317.676C90.9327 314.666 86.2504 320.059 89.7323 323.077C93.2143 326.094 97.8966 320.686 94.4146 317.676Z" fill="white"/>
<g opacity="0.3">
<mask id="path-10-inside-1_2_127" fill="white">
<path d="M250.423 170.053C232.732 218.689 166.833 233.361 103.233 202.825C39.6335 172.289 2.41701 108.107 20.1079 59.4715C37.7988 10.8357 103.698 -3.83675 167.298 26.6996C230.897 57.2359 268.114 121.418 250.423 170.053Z"/>
</mask>
<path d="M249.483 169.711C240.777 193.647 220.199 209.281 193.827 215.153C167.443 221.027 135.297 217.111 103.666 201.924L102.8 203.727C134.77 219.076 167.373 223.092 194.261 217.105C221.161 211.116 242.378 195.096 251.363 170.395L249.483 169.711ZM103.666 201.924C72.0372 186.738 46.9883 163.193 32.0517 137.434C17.1102 111.667 12.3318 83.775 21.0477 59.8133L19.1681 59.1296C10.1931 83.8037 15.1775 112.321 30.3215 138.437C45.4703 164.562 70.8294 188.376 102.8 203.727L103.666 201.924ZM21.0477 59.8133C29.7539 35.8781 50.3318 20.244 76.7042 14.3721C103.088 8.49769 135.234 12.4141 166.865 27.601L167.73 25.7981C135.761 10.4487 103.158 6.43321 76.2696 12.4199C49.3699 18.4091 28.1528 34.4291 19.1681 59.1296L21.0477 59.8133ZM166.865 27.601C198.494 42.7871 223.542 66.3317 238.479 92.0908C253.421 117.858 258.199 145.75 249.483 169.711L251.363 170.395C260.338 145.721 255.353 117.204 240.209 91.0875C225.061 64.9627 199.701 41.1484 167.73 25.7981L166.865 27.601Z" fill="#7165E3" mask="url(#path-10-inside-1_2_127)"/>
</g>
<g opacity="0.3">
<mask id="path-12-inside-2_2_127" fill="white">
<path d="M259.29 130.813C254.154 183.194 194.463 218.471 125.966 209.606C57.4696 200.741 6.10516 151.092 11.2408 98.7116C16.3764 46.331 76.0673 11.0542 144.564 19.9188C213.061 28.7834 264.425 78.4325 259.29 130.813Z"/>
</mask>
<path d="M258.295 130.716C255.764 156.525 239.791 178.184 215.88 192.316C191.965 206.449 160.146 213.021 126.095 208.614L125.838 210.598C160.284 215.055 192.559 208.421 216.897 194.037C241.239 179.652 257.68 157.481 260.285 130.911L258.295 130.716ZM126.095 208.614C92.0439 204.207 62.282 189.666 41.6864 169.758C21.0895 149.849 9.70472 124.627 12.236 98.8092L10.2455 98.614C7.6412 125.177 19.3708 150.97 40.2964 171.196C61.2233 191.424 91.3921 206.14 125.838 210.598L126.095 208.614ZM12.236 98.8092C14.7665 72.9993 30.7392 51.3407 54.6507 37.2091C78.566 23.0755 110.385 16.5038 144.436 20.9105L144.692 18.9271C110.247 14.4693 77.9715 21.1036 53.6332 35.4873C29.2912 49.8732 12.8506 72.0433 10.2455 98.614L12.236 98.8092ZM144.436 20.9105C178.487 25.3173 208.248 39.8587 228.844 59.7665C249.441 79.6755 260.826 104.898 258.295 130.716L260.285 130.911C262.889 104.348 251.16 78.5552 230.234 58.3284C209.307 38.1004 179.138 23.3849 144.692 18.9271L144.436 20.9105Z" fill="#7165E3" mask="url(#path-12-inside-2_2_127)"/>
</g>
<path d="M130.63 310.704C130.607 310.746 130.585 310.786 130.564 310.823L91.4257 300.96L91.5547 300.708C91.8258 300.178 92.2233 299.401 92.7291 298.408C93.7407 296.423 95.1856 293.58 96.919 290.147C100.386 283.281 105.007 274.054 109.623 264.61C114.239 255.166 118.853 245.502 122.304 237.765C124.029 233.896 125.466 230.503 126.468 227.857C126.969 226.535 127.364 225.392 127.632 224.466C127.895 223.557 128.052 222.805 128.04 222.289C127.968 218.921 126.519 211.475 124.413 202.265C122.302 193.03 119.514 181.962 116.736 171.31C113.958 160.658 111.189 150.419 109.114 142.844C108.077 139.056 107.214 135.934 106.609 133.759C106.307 132.671 106.07 131.82 105.908 131.241L105.838 130.99H138.103C138.152 131.119 138.215 131.286 138.292 131.489C138.496 132.027 138.795 132.818 139.175 133.834C139.937 135.867 141.026 138.796 142.337 142.386C144.959 149.566 148.466 159.385 152.009 169.943C155.553 180.501 159.131 191.793 161.894 201.921C164.661 212.062 166.599 220.995 166.885 226.851C166.985 228.913 166.509 231.78 165.57 235.251C164.633 238.712 163.247 242.734 161.556 247.091C158.174 255.805 153.584 265.827 148.963 275.323C144.343 284.817 139.697 293.776 136.205 300.363C134.459 303.656 133.002 306.356 131.982 308.232C131.472 309.17 131.071 309.902 130.797 310.399C130.735 310.513 130.679 310.615 130.63 310.704Z" fill="#FFFFFE" stroke="black"/>
<path d="M132.533 303.269C130.395 302.419 111.292 296.915 97.046 293.897C97.027 293.897 97.0088 293.905 96.9954 293.918C96.9819 293.932 96.9744 293.95 96.9744 293.969C96.9744 293.988 96.9819 294.006 96.9954 294.019C97.0088 294.033 97.027 294.04 97.046 294.04C101.53 295.629 129.846 303.063 132.501 303.428C132.557 303.444 132.628 303.333 132.533 303.269Z" fill="#263238"/>
<path d="M130.307 205.423C127.668 194.305 124.877 183.265 121.857 172.265C118.836 161.266 115.688 150.187 112.198 139.274C111.769 137.948 111.323 136.614 110.894 135.303C110.881 135.26 110.852 135.224 110.813 135.202C110.773 135.18 110.727 135.175 110.683 135.188C110.64 135.201 110.604 135.23 110.582 135.269C110.561 135.309 110.555 135.355 110.568 135.398C113.684 146.263 116.848 157.112 119.806 168.016C122.763 178.921 125.601 189.857 128.264 200.833C128.921 203.56 129.57 206.281 130.212 208.997C130.949 211.796 131.517 214.636 131.913 217.503C132.244 220.243 132.058 223.02 131.364 225.691C130.606 228.312 129.616 230.861 128.407 233.308C123.637 243.712 118.841 254.119 114.018 264.528C109.249 274.972 108.454 277.346 103.867 287.87C103.294 289.18 102.73 290.483 102.181 291.801C102.142 291.888 102.269 291.96 102.309 291.872C107.555 281.548 108.366 279.07 113.239 268.578C118.112 258.087 123.025 247.461 127.89 236.882C130.084 232.117 132.66 227.248 132.994 221.911C133.336 216.344 131.587 210.76 130.307 205.423Z" fill="#263238"/>
<path d="M129.154 291.745C129.154 291.745 130.442 328.509 130.442 328.541C130.649 335.569 130.959 341.732 131.42 344.901C131.416 344.92 131.416 344.939 131.42 344.957C131.45 345.709 131.649 346.444 132 347.109C132 347.109 132 347.149 132.048 347.157C134.186 348.507 190.486 348.475 192.465 347.816C194.445 347.157 192.696 341.51 190.509 339.771C188.323 338.031 166.748 328.414 166.748 328.414L165.118 291.674L129.154 291.745Z" fill="#AD6359"/>
<path d="M130.18 320.988C130.18 320.988 130.442 328.509 130.442 328.541C130.649 335.569 130.959 341.732 131.42 344.901C131.416 344.92 131.416 344.939 131.42 344.957C131.529 345.694 131.724 346.417 132 347.109C132 347.109 132 347.149 132.048 347.157C134.187 348.507 190.486 348.475 192.465 347.816C194.445 347.157 192.696 341.51 190.51 339.771C188.323 338.032 166.748 328.414 166.748 328.414L166.589 320.75L130.18 320.988Z" fill="#F5CF48"/>
<path d="M192.481 347.744C190.494 348.388 133.741 347.506 131.603 346.1C130.808 345.576 130.426 337.309 130.291 327.31V326.992L166.947 327.159V327.778C166.947 327.778 188.514 337.825 190.708 339.62C192.902 341.415 194.476 347.117 192.481 347.744Z" fill="#7165E3"/>
<path d="M191.877 345.537C182.337 345.155 143.71 344.512 134.226 344.862C134.147 344.862 134.147 344.917 134.226 344.917C143.694 345.505 182.306 345.838 191.869 345.711C192.076 345.695 192.076 345.545 191.877 345.537Z" fill="white"/>
<path d="M169.96 327.953C166.2 327.159 161.589 327.699 158.671 330.336C158.56 330.439 158.671 330.598 158.83 330.558C162.454 329.454 166.185 328.741 169.96 328.43C170.013 328.416 170.059 328.385 170.093 328.342C170.126 328.299 170.144 328.246 170.144 328.191C170.144 328.137 170.126 328.084 170.093 328.041C170.059 327.998 170.013 327.967 169.96 327.953Z" fill="white"/>
<path d="M172.647 329.613C168.894 328.819 164.284 329.359 161.366 331.995C161.247 332.099 161.366 332.258 161.517 332.226C165.141 331.121 168.871 330.405 172.647 330.089C172.71 330.089 172.771 330.064 172.815 330.02C172.86 329.975 172.885 329.914 172.885 329.851C172.885 329.788 172.86 329.727 172.815 329.683C172.771 329.638 172.71 329.613 172.647 329.613Z" fill="white"/>
<path d="M175.342 331.289C171.589 330.494 166.971 331.035 164.053 333.671C163.942 333.767 164.053 333.925 164.212 333.894C167.834 332.786 171.566 332.072 175.342 331.765C175.405 331.765 175.465 331.74 175.51 331.695C175.555 331.651 175.58 331.59 175.58 331.527C175.58 331.464 175.555 331.403 175.51 331.358C175.465 331.314 175.405 331.289 175.342 331.289Z" fill="white"/>
<path d="M193.379 345.727C194.389 346.132 194.119 349.539 193.379 349.802C192.64 350.064 130.776 348.833 129.727 348.578C128.677 348.324 129.123 344.56 130.347 344.393C131.571 344.226 193.379 345.727 193.379 345.727Z" fill="#7D209F"/>
<path d="M139.56 333.512C135.474 331.392 132.175 337.73 136.261 339.866C140.347 342.003 143.646 335.609 139.56 333.512Z" fill="white"/>
<path d="M166.681 317.684H127.805L127.789 317.415L127.663 315.302L127.203 307.597C126.816 301.128 126.287 292.278 125.717 282.755C124.578 263.708 123.274 241.966 122.618 231.189C122.547 230.029 121.935 228.47 120.989 226.633C120.032 224.776 118.696 222.565 117.108 220.075C115.682 217.839 114.047 215.37 112.294 212.721C112.094 212.419 111.892 212.115 111.689 211.808C109.706 208.811 107.587 205.597 105.451 202.234C96.8925 188.755 88.134 172.972 86.8036 159.303L86.8036 159.303C86.6115 157.336 86.8662 154.564 87.3732 151.479C87.8784 148.404 88.6272 145.058 89.4025 141.958C90.1775 138.859 90.9775 136.013 91.5839 133.942C91.887 132.906 92.1417 132.065 92.3204 131.482C92.3895 131.257 92.4473 131.071 92.4921 130.927L134.417 130.958C133.895 133.054 132.075 140.213 130.169 147.382C129.058 151.556 127.921 155.725 126.997 158.887C126.535 160.469 126.127 161.794 125.804 162.739C125.642 163.213 125.505 163.583 125.394 163.839C125.339 163.968 125.295 164.058 125.262 164.114C125.258 164.122 125.254 164.129 125.25 164.134C125.096 164.262 125.056 164.436 125.048 164.534C125.038 164.645 125.058 164.747 125.076 164.819C125.113 164.969 125.185 165.144 125.272 165.327C125.449 165.701 125.737 166.216 126.115 166.847C126.871 168.114 128.018 169.903 129.431 172.084C129.883 172.781 130.362 173.518 130.865 174.292C133.515 178.371 136.826 183.468 140.246 189.006C144.315 195.595 148.531 202.8 151.96 209.642C155.394 216.494 158.019 222.945 158.934 228.035L158.934 228.036C160.121 234.612 162.067 257.137 163.718 278.061C164.542 288.513 165.292 298.553 165.837 305.98C166.108 309.693 166.329 312.753 166.481 314.885C166.558 315.951 166.617 316.784 166.657 317.351L166.681 317.684Z" fill="#FFFFFE" stroke="black"/>
<path d="M126.324 287.028C125.855 276.195 125.418 265.338 124.631 254.513C124.186 248.39 123.303 242.449 122.699 236.334C122.699 236.016 122.405 235.937 122.413 236.27C122.699 247.151 123.598 257.912 124.178 268.785C124.758 279.657 125.315 282.199 125.927 293.032C126.277 299.163 126.579 305.302 127.056 311.426C127.061 311.441 127.071 311.455 127.085 311.465C127.098 311.475 127.114 311.48 127.131 311.48C127.148 311.48 127.164 311.475 127.178 311.465C127.191 311.455 127.201 311.441 127.207 311.426C127.199 300.537 126.801 297.9 126.324 287.028Z" fill="#263238"/>
<path d="M159.466 228.439C159.125 225.569 158.57 222.729 157.805 219.941C156.984 217.247 155.9 214.641 154.569 212.158C151.85 206.948 148.758 201.905 145.777 196.846C142.796 191.787 139.688 186.609 136.54 181.558C134.769 178.725 132.989 175.892 131.197 173.06C129.393 170.193 127.469 167.397 125.593 164.585C125.521 164.474 125.346 164.585 125.418 164.689C128.471 169.803 131.492 174.934 134.544 180.049C137.597 185.163 140.602 190.294 143.615 195.432C146.628 200.571 149.545 205.543 152.359 210.665C153.759 213.101 154.961 215.645 155.952 218.274C156.884 220.998 157.56 223.803 157.972 226.652C159.029 233.276 159.903 239.939 161.239 246.508C161.239 246.595 161.39 246.571 161.382 246.508C160.985 240.48 160.269 234.436 159.466 228.439Z" fill="#263238"/>
<path d="M163.719 311.314C161.438 311.021 144.044 310.417 129.496 311.036C129.48 311.042 129.466 311.052 129.457 311.065C129.447 311.079 129.441 311.095 129.441 311.112C129.441 311.129 129.447 311.145 129.457 311.158C129.466 311.172 129.48 311.182 129.496 311.187C134.266 311.608 161.024 311.791 163.68 311.481C163.767 311.473 163.823 311.33 163.719 311.314Z" fill="#263238"/>
<path d="M130.792 162.242C126.716 163.722 122.777 165.553 119.019 167.715C118.991 167.731 118.97 167.758 118.96 167.788C118.95 167.819 118.952 167.852 118.964 167.882C118.977 167.912 119 167.936 119.029 167.951C119.057 167.965 119.091 167.969 119.122 167.961C123.097 166.261 127.135 164.633 131.007 162.711C131.069 162.683 131.117 162.631 131.141 162.567C131.165 162.503 131.162 162.432 131.134 162.37C131.105 162.307 131.053 162.259 130.989 162.235C130.925 162.211 130.854 162.214 130.792 162.242Z" fill="#263238"/>
<path d="M131.968 135.097C131.968 134.962 131.714 134.93 131.714 135.097C131.716 139.521 131.496 143.942 131.054 148.344C130.871 150.385 129.226 161.663 125.68 160.837C125.092 160.702 124.782 160.122 124.695 159.248C124.709 158.082 124.867 156.922 125.164 155.794C125.553 153.411 125.871 151.028 126.078 148.646C126.487 144.202 126.439 139.729 125.935 135.295C125.928 135.27 125.913 135.247 125.892 135.231C125.871 135.215 125.846 135.207 125.819 135.207C125.793 135.207 125.768 135.215 125.747 135.231C125.726 135.247 125.711 135.27 125.704 135.295C125.806 141.453 125.444 147.609 124.623 153.713C124.178 156.651 122.699 161.067 125.776 161.52C128.852 161.973 130.927 154.578 131.34 152.553C132.304 146.786 132.515 140.918 131.968 135.097Z" fill="#263238"/>
<path d="M125.792 161.123C125.475 161.882 125.209 162.662 124.997 163.458C124.765 164.071 124.651 164.724 124.663 165.38C124.663 165.507 124.846 165.515 124.909 165.435C125.263 164.852 125.531 164.221 125.704 163.561C125.967 162.838 126.253 162.123 126.499 161.393C126.504 161.309 126.482 161.225 126.436 161.154C126.39 161.084 126.323 161.029 126.244 160.999C126.165 160.969 126.079 160.965 125.998 160.987C125.917 161.009 125.844 161.057 125.792 161.123Z" fill="#263238"/>
<path d="M127.453 241.703C127.087 236.143 127.103 230.258 124.734 225.088C123.473 222.572 122.022 220.156 120.394 217.861C118.772 215.399 117.182 212.915 115.624 210.411C109.328 200.42 103.31 190.23 97.8011 179.778C95.1539 174.743 92.7054 169.557 91.3778 163.998C90.0744 158.153 89.8267 152.123 90.6465 146.192C90.8293 144.714 91.036 143.245 91.2824 141.776C91.2824 141.673 91.1393 141.625 91.1155 141.736C89.8305 147.385 89.3885 153.192 89.8038 158.97C90.4087 164.491 91.966 169.865 94.4066 174.854C96.8313 180.112 99.7249 185.179 102.571 190.198C105.502 195.387 108.528 200.526 111.649 205.614C114.75 210.665 118.009 215.621 121.245 220.593C122.893 222.942 124.179 225.526 125.06 228.257C125.771 231.105 126.179 234.02 126.277 236.953C127.072 249.271 130.204 290.205 131.301 302.459C131.444 304.047 131.579 305.572 131.722 307.121C131.722 307.264 131.945 307.256 131.937 307.121C131.452 294.819 128.272 253.973 127.453 241.703Z" fill="#263238"/>
<path d="M105.465 141.228C105.465 141.14 105.321 141.172 105.314 141.228C105.202 144.651 105.314 148.177 103.978 151.41C102.77 154.372 100.345 156.453 97.6183 158.009C96.038 158.891 94.4113 159.686 92.7452 160.392C92.6259 160.44 92.6736 160.63 92.8008 160.591C95.9807 159.59 99.1605 158.502 101.792 156.405C104.598 154.157 105.822 150.893 105.965 147.367C106.008 145.309 105.84 143.252 105.465 141.228Z" fill="#263238"/>
<path d="M133.407 88.1036C135.967 94.5684 152.375 117.815 163.091 118.911C174.014 120.038 197.656 104.123 200.16 102.471C201.798 101.399 190.716 82.3377 188.172 83.934C181.32 88.2465 165.198 99.0795 162.114 97.6023C155.635 94.5128 150.642 90.2082 141.317 84.1008C134.815 79.8359 130.585 80.9558 133.407 88.1036Z" fill="#AD6359"/>
<path d="M214.175 93.2183C208.865 98.6745 200.478 102.86 197.791 103.193C195.104 103.527 186.201 88.1036 187.25 85.5463C188.3 82.989 199.222 69.0983 204 68.193C208.778 67.2876 217.626 89.692 214.175 93.2183Z" fill="#AD6359"/>
<path d="M206.941 71.9653C206.941 71.9653 201.814 74.2526 200.16 75.1421C198.745 75.8807 195.915 77.5962 196.488 80.3283C197.06 83.0603 200.836 81.6943 201.106 81.607C200.884 81.734 197.044 84.0928 197.926 86.7772C198.809 89.4616 202.402 87.635 202.633 87.5158C202.537 87.6191 210.399 81.9564 212.339 83.2192C214.525 84.6726 212.816 94.2824 212.84 94.338C212.864 94.3936 229.987 80.7254 228.819 77.6121C227.427 73.8873 215.956 82.5997 215.956 82.5997C215.956 82.5997 218.206 80.0503 217.602 77.9139C217.284 76.8179 215.257 76.3255 215.257 76.3255C215.7 75.9127 216.021 75.3863 216.185 74.8037C216.349 74.221 216.349 73.6046 216.187 73.0216C215.662 71.5285 213.706 71.2823 213.706 71.2823C213.706 71.2823 227.785 66.5171 224.399 62.7129C222.324 60.3779 207.943 66.8189 204.024 68.1929C204 68.1929 207.347 69.5192 206.941 71.9653Z" fill="#AD6359"/>
<path d="M215.288 76.2859C215.344 76.2859 215.328 76.1906 215.288 76.1906C210.04 76.1931 204.965 78.0689 200.979 81.4799C200.844 81.607 200.844 81.8532 200.979 81.7262C203.785 79.5341 210.956 76.9292 215.288 76.2859Z" fill="#263238"/>
<path d="M202.815 87.8177C206.75 84.5217 208.809 83.942 213.786 82.8618C213.849 82.8618 213.826 82.7586 213.786 82.7507C211.924 82.5601 210.044 82.816 208.301 83.4972C206.089 84.3426 204.161 85.7931 202.736 87.6827C202.64 87.7541 202.72 87.8892 202.815 87.8177Z" fill="#263238"/>
<path d="M200.16 75.1184C199.326 75.5785 198.547 76.1328 197.839 76.7704C197.072 77.3948 196.495 78.2197 196.17 79.153C196.021 79.6662 196.072 80.2165 196.313 80.6937C196.547 81.1654 196.9 81.5678 197.338 81.8612C197.863 82.1921 198.475 82.3581 199.095 82.3377C199.381 82.0518 199.691 81.7738 200.009 81.5435L200.375 82.1789C199.961 82.3093 199.529 82.3736 199.095 82.3695C198.668 82.7847 198.284 83.2424 197.95 83.7355C197.637 84.1773 197.421 84.6801 197.315 85.2111C197.21 85.742 197.218 86.2892 197.338 86.817C197.488 87.3658 197.801 87.856 198.236 88.2227C198.69 88.5791 199.25 88.7722 199.826 88.7707C200.344 88.7606 200.856 88.6695 201.345 88.5007C201.603 88.0382 201.909 87.6042 202.259 87.2062L202.784 87.8256L202.839 87.7621L204.477 85.9196L202.346 87.1347C201.588 87.6045 200.725 87.8775 199.834 87.9289C199.438 87.9361 199.05 87.8078 198.737 87.5652C198.423 87.3225 198.202 86.9801 198.109 86.5946C198.015 86.1782 198.01 85.7467 198.093 85.3281C198.177 84.9094 198.348 84.513 198.594 84.1644C199.088 83.391 199.702 82.7018 200.415 82.1233L202.005 80.797L200.049 81.48C199.655 81.6368 199.233 81.7086 198.81 81.6908C198.386 81.673 197.972 81.566 197.593 81.3767C197.226 81.1623 196.921 80.8556 196.71 80.4872C196.508 80.119 196.448 79.6892 196.543 79.28C196.8 78.399 197.285 77.6016 197.95 76.9689C198.627 76.2841 199.367 75.6645 200.16 75.1184Z" fill="#263238"/>
<path d="M202.307 87.2062C201.957 87.6043 201.651 88.0382 201.392 88.5007C201.892 88.3214 202.374 88.0953 202.831 87.8257L202.307 87.2062Z" fill="#263238"/>
<path d="M200.009 81.5117C199.691 81.7738 199.381 82.0518 199.095 82.3059C199.529 82.31 199.961 82.2457 200.375 82.1153L200.009 81.5117Z" fill="#263238"/>
<path d="M188.848 83.2669C188.848 83.2669 194.89 63.9757 201.281 70.0275C203.181 71.8303 208.825 81.4799 206.909 82.6474C204.429 84.1643 201.345 80.5745 199.755 78.0092C199.755 78.0092 198.626 84.8632 193.618 85.4986C192.694 85.6049 191.758 85.4525 190.916 85.0584C190.074 84.6644 189.358 84.0441 188.848 83.2669Z" fill="#AD6359"/>
<path d="M200.717 69.559C201.544 70.1781 202.278 70.9137 202.895 71.743C203.529 72.5574 204.111 73.4116 204.636 74.3004C205.707 76.0709 206.622 77.9311 207.371 79.8598C207.571 80.3686 207.696 80.9036 207.744 81.4482C207.769 81.7641 207.722 82.0815 207.609 82.3774C207.55 82.5416 207.464 82.6947 207.355 82.8301C207.24 82.9585 207.106 83.0683 206.957 83.1557C206.424 83.472 205.794 83.5848 205.184 83.4734C204.623 83.3655 204.086 83.1612 203.594 82.8698C202.684 82.3008 201.878 81.581 201.21 80.7413C200.545 79.9351 199.942 79.0802 199.405 78.184L200.065 78.049C199.904 78.8257 199.673 79.586 199.373 80.3204C199.082 81.0492 198.717 81.7465 198.284 82.4012C197.842 83.053 197.306 83.6364 196.694 84.1326C196.093 84.6257 195.402 84.9979 194.659 85.2286C195.351 84.9061 195.985 84.4714 196.535 83.942C197.068 83.4121 197.528 82.8138 197.902 82.163C198.275 81.5101 198.586 80.8241 198.833 80.1139C199.076 79.4094 199.251 78.6834 199.357 77.9457L199.484 77.0324L200.017 77.8266C200.566 78.6616 201.171 79.4577 201.83 80.2092C202.453 80.9634 203.194 81.6124 204.024 82.1312C204.374 82.3883 204.785 82.5512 205.216 82.604C205.648 82.6569 206.086 82.598 206.488 82.433C207.108 82.1153 206.886 81.0114 206.591 80.106C206.297 79.2006 205.868 78.2317 205.463 77.3024C205.057 76.3732 204.62 75.444 204.151 74.5466C203.27 72.7173 202.112 71.0349 200.717 69.559Z" fill="#263238"/>
<path d="M197.76 104.877L184.722 85.2444C182.602 85.2415 180.512 85.7424 178.625 86.7057C172.949 89.3902 163.25 97.0304 161.803 96.4903C159.458 95.6961 150.841 89.6443 143.257 84.1881C135.673 78.732 124.973 76.2461 133.956 91.3995C142.939 106.553 156.112 118.402 161.78 119.991C165.5 121.031 184.698 115.869 193.856 110.095C195.775 108.916 197.171 107.049 197.76 104.877Z" fill="#7165E3"/>
<path d="M191.662 109.174C191.03 108.328 190.446 107.448 189.913 106.537C189.405 105.743 188.872 104.949 188.371 104.154C187.266 102.423 186.153 100.692 185.056 98.9524C183.959 97.2131 182.87 95.4897 181.789 93.7424C180.708 91.9952 179.595 90.2956 178.609 88.5086C178.604 88.5008 178.6 88.492 178.598 88.4828C178.596 88.4736 178.596 88.4641 178.598 88.4549C178.6 88.4457 178.604 88.4369 178.609 88.4291C178.614 88.4213 178.621 88.4146 178.629 88.4094C178.637 88.4041 178.645 88.4005 178.655 88.3987C178.664 88.3969 178.673 88.3969 178.683 88.3987C178.692 88.4006 178.701 88.4042 178.708 88.4094C178.716 88.4147 178.723 88.4214 178.728 88.4292C180.032 90.0176 181.177 91.7093 182.337 93.393C183.498 95.0767 184.579 96.7366 185.652 98.4362C186.726 100.136 187.799 101.931 188.832 103.702C189.333 104.552 189.802 105.425 190.271 106.291C190.824 107.194 191.315 108.133 191.742 109.102C191.766 109.174 191.702 109.221 191.662 109.174Z" fill="#263238"/>
<path opacity="0.1" d="M159.458 118.982C153.019 115.504 141.85 104.726 133.956 91.3996C130.069 84.8394 129.87 81.5912 131.515 80.4475L159.458 118.982Z" fill="black"/>
<path d="M87.1248 149.948L146.469 152.41C146.723 152.172 148.949 151.298 148.607 143.19C147.812 124.732 141.802 91.7252 138.098 84.5932C137.411 83.1587 136.446 81.875 135.258 80.8169C134.07 79.7587 132.683 78.9473 131.179 78.4299C129.674 77.9125 128.081 77.6994 126.493 77.8031C124.904 77.9068 123.353 78.3251 121.928 79.0338C118.566 80.9637 115.441 83.5369 111.419 89.0646C101.545 102.661 90.5908 126.916 86.775 140.322C85.1533 145.874 87.0056 149.781 87.1248 149.948Z" fill="#7165E3"/>
<path opacity="0.1" d="M127.588 146.446C133.407 146.684 139.179 146.922 144.958 147.24L144.632 147.597L143.329 138.615L143.519 138.869C142.468 138.33 141.567 137.538 140.896 136.566C140.245 135.611 139.746 134.56 139.417 133.453C139.069 132.369 138.821 131.255 138.678 130.125C138.52 129.002 138.445 127.868 138.455 126.734L138.758 127.067L125.076 126.321L125.37 126.09L124.846 128.195C124.655 128.894 124.385 129.577 124.162 130.26C123.939 130.943 123.582 131.594 123.28 132.261L122.723 133.198C122.636 133.357 122.54 133.516 122.445 133.667L122.111 134.104C121.265 135.316 120.12 136.289 118.788 136.931C117.438 137.544 115.922 137.689 114.479 137.344L114.638 137.273L110.028 145.707L127.588 146.446ZM114.392 137.162L114.432 137.074H114.551C115.931 137.348 117.363 137.164 118.629 136.55C119.896 135.92 120.976 134.97 121.761 133.794L122.071 133.373C122.167 133.222 122.254 133.071 122.342 132.913L122.866 131.999C123.144 131.348 123.455 130.705 123.661 130.038C123.868 129.37 124.122 128.695 124.297 128.004L124.782 125.932L124.838 125.685H125.076L138.765 126.352H139.076V126.67C139.076 127.77 139.156 128.869 139.314 129.958C139.461 131.036 139.703 132.099 140.037 133.135C140.354 134.172 140.823 135.157 141.429 136.058C142.026 136.937 142.831 137.654 143.774 138.146L143.941 138.234V138.408L145.189 147.399L145.244 147.772H144.863C139.004 147.462 133.137 147.097 127.31 146.74L109.964 145.652L114.392 137.162Z" fill="black"/>
<path d="M117.747 80.3919C103.191 82.298 83.1182 88.0003 76.6949 92.432C72.1954 95.5453 61.9882 117.124 60.1518 123.573C59.3568 126.352 79.6442 135.986 81.2659 133.357C83.2057 130.18 92.2364 105.338 93.1904 105.227C94.1443 105.115 110.544 96.2998 120.712 89.2155C131.873 81.4561 123.454 79.6453 117.747 80.3919Z" fill="#AD6359"/>
<path d="M59.1262 123.088L84.9545 130.474C86.4451 128.678 87.5298 126.581 88.1343 124.327C89.7242 118.267 90.6305 109.595 91.6481 108.443C93.3016 106.585 111.371 96.6889 119.289 91.7251C127.207 86.7614 133.05 77.1197 115.632 79.7247C98.2144 82.3297 78.8969 88.8978 74.4689 92.1302C71.3527 94.4175 64.039 106.426 59.9132 114.566C58.1802 117.981 59.1262 123.088 59.1262 123.088Z" fill="#7165E3"/>
<path d="M103.914 100.811C105.457 99.9055 107.015 99.016 108.573 98.1423C110.322 97.1575 112.087 96.2018 113.867 95.2753C115.6 94.3699 117.365 93.5518 119.122 92.702C119.249 92.6385 119.361 92.853 119.233 92.9244C116.968 94.1396 114.726 95.4103 112.484 96.681C113.685 96.2601 114.869 95.8868 116.109 95.4818C116.119 95.4781 116.13 95.4765 116.14 95.4769C116.151 95.4773 116.161 95.4798 116.171 95.4842C116.18 95.4886 116.189 95.4949 116.196 95.5027C116.203 95.5104 116.209 95.5195 116.212 95.5294C116.216 95.5393 116.218 95.5499 116.217 95.5604C116.217 95.571 116.214 95.5813 116.21 95.5909C116.206 95.6005 116.199 95.6091 116.192 95.6163C116.184 95.6235 116.175 95.629 116.165 95.6327C114.718 96.1489 113.255 96.6175 111.785 97.0781L110.195 97.9914C107.15 99.699 102.468 101.661 103.914 100.811Z" fill="#263238"/>
<path d="M61.519 116.695C62.548 116.937 63.562 117.24 64.5558 117.6C65.4541 117.878 66.3603 118.14 67.2586 118.395C69.2142 119.022 71.1778 119.633 73.1334 120.269C75.089 120.904 77.0367 121.532 78.9843 122.183C80.932 122.834 82.8796 123.414 84.7796 124.168C84.8511 124.168 84.7796 124.311 84.7796 124.303C82.7683 123.93 80.8048 123.35 78.8253 122.802C76.8459 122.254 74.9618 121.675 73.0459 121.055C71.1301 120.436 69.1586 119.745 67.2268 119.046C66.3047 118.704 65.3825 118.339 64.4683 117.974C63.4657 117.631 62.486 117.225 61.5349 116.758C61.4395 116.758 61.4634 116.695 61.519 116.695Z" fill="#263238"/>
<path d="M131.515 92.44C131.515 92.44 124.583 80.932 118.51 79.5739L109.471 80.7811C109.471 80.7811 107.651 80.8923 107.412 79.693C106.808 76.7306 110.95 72.3069 117.5 69.5987C123.494 67.1287 133.582 70.5756 139.958 74.1574C146.087 77.6043 148.703 82.4092 145.562 86.1737C142.422 89.9382 131.515 92.44 131.515 92.44Z" fill="#7165E3"/>
<path opacity="0.1" d="M132.7 90.5974C132.7 90.5974 141.643 87.1824 143.257 84.1882C144.871 81.1941 139.282 76.4844 135.451 74.221C129.544 70.7106 125.116 69.9878 120.617 72.4658C116.117 74.9437 132.7 90.5974 132.7 90.5974Z" fill="black"/>
<path d="M127.103 65.3973C126.695 66.7664 126.163 68.0955 125.513 69.3684C124.87 70.3055 122.151 70.5438 122.151 70.5438C122.151 70.5438 124.464 72.4419 125.283 72.5372C126.102 72.6325 128.01 71.1394 128.01 71.1394C128.01 71.1394 125.776 73.8239 124.639 73.5935C123.931 73.4506 126.229 74.3163 126.229 74.3163C127.022 74.5451 127.872 74.4715 128.614 74.1098C129.695 73.4982 127.103 65.3973 127.103 65.3973Z" fill="#263238"/>
<path d="M133.773 90.1765C130.236 90.375 125.824 85.1174 125.029 80.7652C124.981 80.4713 126.269 77.9537 127.692 74.8166C128.55 72.9105 129.457 70.7741 130.148 68.7568L141.739 76.135C140.156 78.4061 138.859 80.8626 137.875 83.4496C137.784 83.7293 137.718 84.0162 137.676 84.3073C136.81 87.0314 135.363 90.0812 133.773 90.1765Z" fill="#AD6359"/>
<path d="M141.77 76.135C140.192 78.4073 138.897 80.8637 137.915 83.4496C137.82 83.7283 137.754 84.0156 137.716 84.3074L137.668 84.4424C137.224 84.3549 136.788 84.23 136.365 84.0691C129.051 81.345 129.838 72.4737 130.474 68.9792L141.77 76.135Z" fill="#263238"/>
<path d="M129.353 54.7471C127.167 59.1867 127.461 73.0773 130.299 76.6195C134.409 81.758 142.223 83.4496 146.882 78.2635C151.381 73.2282 150.682 55.1363 147.415 51.8006C142.597 46.9004 132.573 48.2029 129.353 54.7471Z" fill="#AD6359"/>
<path d="M139.203 62.5859C139.604 62.4804 140 62.3531 140.387 62.2047C140.822 62.1241 141.218 61.9038 141.516 61.5772C141.595 61.4548 141.629 61.3092 141.613 61.1647C141.597 61.0201 141.532 60.8854 141.429 60.783C141.206 60.611 140.941 60.5012 140.662 60.4649C140.382 60.4286 140.098 60.4672 139.839 60.5765C139.279 60.7256 138.793 61.0728 138.471 61.5534C138.398 61.6678 138.361 61.8014 138.364 61.9371C138.368 62.0728 138.411 62.2044 138.49 62.3152C138.568 62.426 138.678 62.5109 138.805 62.5591C138.932 62.6073 139.07 62.6166 139.203 62.5859Z" fill="#263238"/>
<path d="M148.702 62.7844C148.296 62.6948 147.895 62.5808 147.502 62.4429C147.066 62.383 146.661 62.1822 146.349 61.8711C146.268 61.7517 146.229 61.6084 146.239 61.4643C146.249 61.3203 146.308 61.1838 146.405 61.0769C146.623 60.8956 146.885 60.7758 147.164 60.7297C147.444 60.6836 147.73 60.713 147.995 60.8148C148.56 60.9364 149.059 61.2651 149.394 61.7361C149.472 61.8469 149.514 61.9786 149.516 62.1139C149.518 62.2493 149.479 62.3821 149.405 62.4951C149.33 62.6082 149.223 62.6962 149.098 62.7478C148.973 62.7994 148.835 62.8121 148.702 62.7844Z" fill="#263238"/>
<path d="M140.149 73.6174C140.371 73.8477 140.586 74.1495 140.944 74.1892C141.292 74.1893 141.636 74.1162 141.953 73.9748C141.953 73.9748 142.017 73.9748 141.953 74.0224C141.816 74.2044 141.632 74.3457 141.42 74.4311C141.209 74.5164 140.978 74.5426 140.753 74.5069C140.564 74.4522 140.396 74.3432 140.268 74.1935C140.141 74.0438 140.061 73.86 140.037 73.665C140.045 73.6094 140.117 73.5856 140.149 73.6174Z" fill="#263238"/>
<path d="M141.198 70.8456C141.427 71.2211 141.733 71.5448 142.094 71.7964C142.455 72.0479 142.865 72.2218 143.297 72.3069C143.672 72.393 144.058 72.4198 144.441 72.3863H144.664H144.871C144.92 72.3782 144.965 72.3544 144.999 72.3187C145.033 72.2829 145.055 72.237 145.062 72.1878C145.066 72.1562 145.066 72.1241 145.062 72.0925V72.0051C145.101 71.2903 145.062 70.1943 145.062 70.1943C145.324 70.3294 146.651 70.9885 146.651 70.5835C146.644 67.3358 146.306 64.0973 145.642 60.918C145.642 60.8949 145.633 60.8727 145.616 60.8563C145.6 60.8399 145.578 60.8307 145.554 60.8307C145.531 60.8307 145.509 60.8399 145.493 60.8563C145.476 60.8727 145.467 60.8949 145.467 60.918C145.467 63.9201 145.976 66.8984 146.015 69.9164C145.544 69.6801 145.041 69.5142 144.521 69.424C144.418 69.424 144.648 71.5445 144.608 71.8701C144.016 71.9163 143.421 71.8423 142.858 71.6526C142.295 71.4629 141.776 71.1613 141.333 70.7662C141.222 70.7026 141.142 70.7662 141.198 70.8456Z" fill="#263238"/>
<path d="M144.028 72.013C143.621 72.5188 143.09 72.9102 142.486 73.1487C142.148 73.2602 141.783 73.2602 141.444 73.1487C140.705 72.9343 140.705 72.2513 140.856 71.6715C140.936 71.3618 141.053 71.0631 141.206 70.782C141.992 71.4815 142.98 71.9127 144.028 72.013Z" fill="#263238"/>
<path d="M142.486 73.1487C142.148 73.2602 141.783 73.2602 141.444 73.1487C140.705 72.9343 140.705 72.2513 140.856 71.6715C141.256 71.6955 141.635 71.855 141.931 72.1236C142.227 72.3923 142.423 72.7539 142.486 73.1487Z" fill="#FF97B8"/>
<path d="M138.638 64.619C138.898 64.5545 139.166 64.5278 139.433 64.5396C139.704 64.5478 139.972 64.5959 140.228 64.6825C140.495 64.779 140.742 64.9215 140.96 65.1034C141.174 65.3033 141.342 65.5472 141.452 65.8182L141.643 66.3106L141.127 66.1915C140.756 66.11 140.377 66.0647 139.998 66.0565C139.607 66.0408 139.218 66.1256 138.869 66.3027C139.13 65.9509 139.518 65.7144 139.95 65.6435C140.38 65.5562 140.824 65.5562 141.254 65.6435L140.928 66.0168C140.743 65.6207 140.429 65.2989 140.037 65.1034C139.592 64.887 139.122 64.7243 138.638 64.619Z" fill="#263238"/>
<path d="M139.918 66.8983C140.329 66.8528 140.733 66.754 141.119 66.6045C141.206 66.5648 141.556 66.3662 141.548 66.3027C141.529 66.0984 141.481 65.8978 141.405 65.707C141.533 65.8819 141.623 66.0824 141.667 66.2947C141.626 66.4044 141.562 66.5043 141.48 66.5877C141.398 66.6712 141.299 66.7364 141.19 66.7792C140.784 66.9303 140.345 66.9714 139.918 66.8983Z" fill="#263238"/>
<path d="M148.933 64.897C148.714 64.8333 148.485 64.8091 148.257 64.8255C148.021 64.8347 147.787 64.883 147.566 64.9685C147.315 65.0713 147.09 65.2266 146.905 65.4239C146.72 65.6212 146.579 65.8559 146.493 66.1121L146.318 66.6046L146.779 66.4854C147.098 66.4018 147.426 66.3538 147.757 66.3425C148.104 66.3255 148.449 66.4082 148.75 66.5807C148.645 66.414 148.507 66.2704 148.344 66.1584C148.181 66.0465 147.998 65.9686 147.804 65.9295C147.43 65.8421 147.041 65.8421 146.667 65.9295L146.946 66.3028C147.101 65.9159 147.381 65.5917 147.741 65.3815C148.116 65.1707 148.517 65.008 148.933 64.897Z" fill="#263238"/>
<path d="M147.868 67.1843C147.509 67.1396 147.158 67.0433 146.826 66.8984C146.755 66.8984 146.445 66.6602 146.453 66.5966C146.47 66.3935 146.513 66.1934 146.58 66.001C146.467 66.1834 146.388 66.3855 146.349 66.5966C146.383 66.6986 146.437 66.7927 146.508 66.8732C146.579 66.9538 146.666 67.0191 146.763 67.0652C147.11 67.216 147.496 67.2575 147.868 67.1843Z" fill="#263238"/>
<path d="M130.379 66.2948C130.379 66.2948 127.946 61.4819 125.808 62.284C123.669 63.0862 125.052 69.7654 127.262 70.9647C127.533 71.1411 127.837 71.2607 128.155 71.3162C128.473 71.3718 128.8 71.3622 129.114 71.2879C129.429 71.2136 129.725 71.0763 129.984 70.8842C130.244 70.6921 130.462 70.4493 130.625 70.1705L130.379 66.2948Z" fill="#AD6359"/>
<path d="M126.253 64.1902V64.2458C127.795 65.1432 128.439 66.7872 128.813 68.4392C128.741 68.2619 128.632 68.1022 128.493 67.9713C128.353 67.8403 128.187 67.7412 128.006 67.6807C127.824 67.6203 127.632 67.6 127.442 67.6212C127.251 67.6425 127.068 67.7048 126.905 67.8038C126.857 67.8038 126.905 67.8991 126.905 67.8991C127.205 67.848 127.515 67.8916 127.79 68.024C128.065 68.1563 128.291 68.3708 128.439 68.6377C128.684 69.0832 128.879 69.5547 129.019 70.0435C129.075 70.2023 129.353 70.1626 129.321 69.9879C129.663 67.8673 128.463 64.7223 126.253 64.1902Z" fill="#263238"/>
<path d="M127.882 66.001C130.379 65.8104 133.185 58.1463 133.185 58.1463L132.756 62.578C134.066 61.8697 135.212 60.8926 136.118 59.7109C136.873 58.4225 137.242 56.9454 137.183 55.454C138.651 57.1366 140.406 58.5456 142.367 59.6156C143.416 60.1318 150.563 61.7282 150.666 61.204C150.976 59.695 149.871 54.0562 148.067 52.2692C146.031 50.1804 140.912 46.9242 135.641 47.7978C131.436 48.5047 131.197 51.5941 129.918 53.524C129.918 53.524 126.618 55.2316 126.237 56.3673C125.426 58.8373 126.968 66.0724 127.882 66.001Z" fill="#263238"/>
<path d="M132.7 90.5974C132.7 90.5974 128.534 76.0476 119.543 72.3784L118.51 79.5739C118.51 79.5739 124.075 81.0273 131.515 92.44L132.7 90.5974Z" fill="#7165E3"/>
<path d="M115.966 79.0417C117.693 79.3502 119.335 80.0215 120.783 81.0114C122.248 81.9626 123.597 83.0792 124.806 84.3391C126.03 85.5877 127.172 86.9141 128.224 88.3101L129.743 90.4544L131.166 92.6623L131.333 92.9085L131.595 92.8529C133.566 92.4115 135.505 91.8357 137.398 91.1295C138.35 90.7932 139.28 90.3953 140.18 89.9382C141.09 89.4958 141.953 88.9637 142.756 88.3498C141.005 89.308 139.152 90.0672 137.231 90.6133C136.277 90.9071 135.315 91.1613 134.345 91.4075C133.376 91.6537 132.406 91.8761 131.436 92.0587L131.865 92.2493L130.45 89.9779C129.949 89.2473 129.433 88.5166 128.908 87.7939C128.383 87.0711 127.795 86.3961 127.207 85.7289C126.618 85.0618 126.006 84.4026 125.339 83.807C124.045 82.5706 122.6 81.5032 121.038 80.6302C120.648 80.4078 120.243 80.2172 119.837 80.0266C119.432 79.836 119.042 79.6851 118.581 79.55C117.744 79.2355 116.86 79.0637 115.966 79.0417Z" fill="#263238"/>
<path d="M109.71 80.7493C111.3 80.6937 112.834 80.5269 114.312 80.3363C115.73 80.1491 117.137 79.8839 118.526 79.5421C116.936 79.5977 115.402 79.7565 113.923 79.9472C112.505 80.1401 111.099 80.4078 109.71 80.7493Z" fill="#263238"/>
<path d="M129.417 87.9368C128.397 90.815 127.626 93.7749 127.111 96.7842C126.746 98.8809 126.38 106.561 128.757 106.648C131.134 106.736 128.089 101.279 128.041 97.1892C127.994 93.0991 129.512 90.3591 130.021 87.9924L129.417 87.9368Z" fill="#7165E3"/>
<g opacity="0.1">
<path opacity="0.1" d="M129.417 87.9368C128.397 90.815 127.626 93.7749 127.111 96.7842C126.746 98.8809 126.38 106.561 128.757 106.648C131.134 106.736 128.089 101.279 128.041 97.1892C127.994 93.0991 129.512 90.3591 130.021 87.9924L129.417 87.9368Z" fill="black"/>
</g>
<path d="M138.05 88.7787C138.453 91.518 138.62 94.2866 138.551 97.0543C138.511 98.9922 137.486 105.878 135.371 105.544C133.256 105.211 136.913 100.882 137.676 97.2529C138.44 93.6234 137.573 90.8993 137.525 88.7231L138.05 88.7787Z" fill="#7165E3"/>
<g opacity="0.1">
<path opacity="0.1" d="M138.05 88.7787C138.453 91.518 138.62 94.2866 138.551 97.0543C138.511 98.9922 137.486 105.878 135.371 105.544C133.256 105.211 136.913 100.882 137.676 97.2529C138.44 93.6234 137.573 90.8993 137.525 88.7231L138.05 88.7787Z" fill="black"/>
</g>
<path d="M52.059 131.785L79.358 142.244C80.153 142.483 80.6458 143.174 80.3755 143.833L75.6058 154.864C75.4028 155.19 75.0938 155.437 74.7306 155.563C74.3674 155.689 73.9719 155.686 73.6104 155.555L46.3194 145.088C45.4847 144.857 45.0316 144.158 45.2939 143.547L50.0637 132.515C50.2573 132.179 50.5634 131.921 50.9283 131.787C51.2932 131.654 51.6935 131.653 52.059 131.785Z" fill="#FFFFFE"/>
<path d="M51.4787 133.079L78.7698 143.539C79.5647 143.777 80.0655 144.468 79.7952 145.088L75.0255 156.119C74.8213 156.444 74.5118 156.689 74.1487 156.813C73.7856 156.937 73.3907 156.934 73.0301 156.802L45.7391 146.342C44.9441 146.104 44.4433 145.413 44.7136 144.802L49.4834 133.77C49.6853 133.443 49.9942 133.195 50.3578 133.07C50.7214 132.944 51.1174 132.947 51.4787 133.079Z" fill="#455A64"/>
<path d="M51.3038 136.828C51.916 137.201 52.5837 137.074 52.7904 136.55C52.8691 136.237 52.8407 135.906 52.7096 135.611C52.5785 135.316 52.3523 135.074 52.067 134.922C51.4628 134.549 50.7951 134.676 50.5884 135.2C50.509 135.512 50.5363 135.842 50.6659 136.137C50.7955 136.432 51.02 136.675 51.3038 136.828Z" fill="#263238"/>
<path d="M69.2302 160.376C68.5014 160.32 67.8069 160.044 67.2389 159.585C66.6709 159.125 66.2564 158.504 66.0504 157.803C64.9699 158.428 63.7041 158.656 62.4731 158.446C60.3267 157.97 60.0882 154.396 60.0882 154.396C58.8314 154.807 57.4798 154.832 56.2088 154.467C54.1975 153.808 53.482 150.234 53.482 150.234C52.117 149.977 50.8898 149.239 50.024 148.153C47.8378 145.159 49.9365 139.902 51.2482 136.542C52.5599 133.183 59.3966 124.891 60.5413 123.184L82.1722 131.356C82.1722 131.356 80.5823 148.034 78.5074 151.799C76.7506 154.968 72.0444 160.503 69.2302 160.376Z" fill="#AD6359"/>
<path d="M66.1298 157.835C68.8009 154.944 70.4783 151.425 72.3544 148.002C72.3567 147.988 72.3544 147.973 72.3477 147.959C72.3411 147.946 72.3305 147.935 72.3174 147.928C72.3043 147.921 72.2893 147.919 72.2746 147.921C72.2598 147.922 72.2461 147.929 72.2352 147.939C70.4147 151.362 67.9344 154.38 65.9708 157.723C65.9561 157.745 65.9503 157.771 65.9548 157.796C65.9593 157.821 65.9736 157.844 65.9947 157.858C66.0158 157.873 66.0419 157.879 66.0672 157.875C66.0926 157.87 66.1151 157.856 66.1298 157.835Z" fill="#263238"/>
<path d="M60.1756 154.483C60.717 153.765 61.1632 152.98 61.5032 152.148C61.9245 151.29 62.2981 150.433 62.7036 149.559C63.4826 147.822 64.214 146.065 64.8977 144.286C64.8977 144.206 64.8102 144.135 64.7784 144.222C63.9835 145.953 63.1885 147.677 62.3935 149.376C61.9722 150.226 61.5429 151.068 61.1057 151.918C60.6414 152.686 60.2654 153.504 59.9848 154.356C59.9841 154.379 59.9893 154.402 59.9998 154.422C60.0103 154.442 60.0258 154.46 60.0449 154.472C60.064 154.485 60.086 154.493 60.1089 154.495C60.1318 154.497 60.1547 154.493 60.1756 154.483Z" fill="#263238"/>
<path d="M53.5217 150.194C54.0049 149.541 54.3732 148.811 54.6108 148.034C54.9447 147.24 55.2865 146.446 55.6363 145.652C56.32 144.063 57.0116 142.475 57.7589 140.886C57.7589 140.807 57.6794 140.743 57.6396 140.823C56.8447 142.411 56.0895 144 55.3342 145.588C54.9686 146.382 54.6029 147.176 54.2451 147.971C53.8489 148.658 53.5797 149.412 53.4501 150.194C53.4546 150.2 53.4601 150.204 53.4663 150.206C53.4725 150.209 53.4792 150.211 53.4859 150.211C53.4927 150.211 53.4994 150.209 53.5055 150.206C53.5117 150.204 53.5172 150.2 53.5217 150.194Z" fill="#263238"/>
<ellipse cx="154.62" cy="19.458" rx="19.4766" ry="19.458" fill="url(#paint0_linear_2_127)"/>
<path d="M154.421 9.19812C153.657 9.19812 153.05 9.62192 153.05 10.1378L153.514 15.3566C153.565 15.671 153.952 15.9136 154.421 15.9136C154.891 15.913 155.277 15.6706 155.329 15.3566L155.795 10.1378C155.795 9.62196 155.186 9.19816 154.422 9.19816L154.421 9.19812ZM146.861 13.3844C146.465 13.3937 146.014 13.692 145.728 14.1856C145.345 14.8429 145.413 15.5774 145.861 15.8351L150.641 18.0469C150.94 18.1573 151.345 17.9466 151.58 17.5443C151.58 17.5442 151.58 17.5441 151.58 17.5441C151.816 17.1398 151.798 16.6852 151.549 16.4836L147.232 13.4749C147.12 13.4104 146.994 13.3813 146.862 13.3844L146.861 13.3844ZM161.98 13.3844C161.848 13.3813 161.722 13.4103 161.61 13.4748L157.292 16.4835C157.045 16.6852 157.027 17.1397 157.261 17.544L157.262 17.5442C157.497 17.9465 157.902 18.1572 158.2 18.0469L162.983 15.8352C163.433 15.5775 163.497 14.843 163.117 14.1857C162.829 13.692 162.378 13.3938 161.981 13.3844L161.98 13.3844ZM150.82 20.2698C150.758 20.269 150.698 20.2785 150.642 20.2994L145.862 22.5086C145.413 22.7674 145.345 23.5022 145.728 24.1602C146.111 24.8162 146.784 25.1281 147.232 24.8708L151.55 21.8644C151.799 21.6603 151.817 21.2059 151.581 20.802L151.583 20.8029C151.392 20.4739 151.088 20.2734 150.82 20.2697L150.82 20.2698ZM158.024 20.2698C157.756 20.2734 157.452 20.474 157.261 20.803L157.263 20.8021C157.028 21.206 157.046 21.6604 157.293 21.8645L161.611 24.8709C162.059 25.1281 162.733 24.8163 163.116 24.1603C163.497 23.5023 163.433 22.7675 162.982 22.5087L158.201 20.2995C158.145 20.2785 158.085 20.269 158.024 20.2699L158.024 20.2698ZM154.42 22.4327C153.952 22.4332 153.565 22.6747 153.514 22.9883L153.05 28.2069C153.05 28.7237 153.657 29.1466 154.421 29.1466C155.186 29.1466 155.795 28.7237 155.795 28.2069L155.33 22.9883C155.277 22.6747 154.891 22.4333 154.422 22.4327H154.42H154.42Z" fill="#FFC220"/>
<ellipse cx="19.4765" cy="71.8753" rx="19.4765" ry="19.458" fill="url(#paint1_linear_2_127)"/>
<path fill-rule="evenodd" clip-rule="evenodd" d="M21.1272 62.9107C23.1374 63.2752 24.8175 64.205 26.2343 65.737C29.4132 69.1739 29.4132 74.5855 26.2343 78.0224C23.1696 81.3362 18.35 81.9632 14.5261 79.5457C12.9858 78.5718 11.5132 76.7674 10.9464 75.1591C10.8327 74.8366 10.7614 74.5509 10.7879 74.5243C10.8144 74.4977 11.5636 74.7775 12.4526 75.1462C13.9353 75.761 14.0909 75.86 14.335 76.3444C14.6939 77.0566 14.9537 77.3325 15.5536 77.639C16.1141 77.9254 17.0748 77.977 17.6681 77.7525C18.4641 77.4516 19.3399 76.2667 19.3478 75.4803C19.3519 75.0787 22.3016 72.9746 22.8633 72.9726C23.4663 72.9705 24.565 72.3845 25.1184 71.77C26.6386 70.0818 26.0928 67.3907 24.0291 66.3997C23.1565 65.9807 21.8307 65.9687 21.0516 66.3729C19.9664 66.9357 19.0874 68.1434 19.0806 69.0807C19.0784 69.3736 18.7526 69.9686 17.9757 71.0983C17.0718 72.4124 16.8132 72.7004 16.5365 72.7004C16.3511 72.7004 15.9728 72.795 15.6962 72.9109C15.1936 73.1211 15.1896 73.12 12.7636 72.1244L10.3344 71.1274L10.4115 70.6487C11.0463 66.7083 13.8985 63.6885 17.7112 62.9201C18.8751 62.6855 19.8699 62.6828 21.1272 62.9107ZM23.5921 67.5441C24.2643 67.8999 24.8164 68.7723 24.8164 69.4785C24.8164 70.1013 24.2749 71.076 23.7233 71.4461C23.3229 71.7146 23.1106 71.7586 22.4194 71.716C21.0668 71.6327 20.2845 70.8173 20.2845 69.4908C20.2845 67.7456 22.031 66.7177 23.5921 67.5441ZM21.632 68.0311C20.2965 68.9125 20.5882 70.8467 22.1078 71.1842C24.0148 71.6076 25.0713 69.0587 23.4092 68.0443C22.8591 67.7084 22.129 67.7029 21.632 68.0311ZM17.5648 73.6239C18.9102 74.3106 18.9953 76.0542 17.7251 76.9037C17.109 77.3156 16.2632 77.3167 15.6582 76.9064C14.9102 76.3991 14.9925 76.2124 15.8199 76.5389C16.7502 76.9058 17.4457 76.7484 17.8538 76.0783C18.4024 75.1778 18.0648 74.3464 16.9501 73.853C16.5419 73.6723 16.2081 73.493 16.2081 73.4544C16.2081 73.2888 17.1354 73.4047 17.5648 73.6239Z" fill="white"/>
<ellipse cx="63.9943" cy="187.035" rx="19.4765" ry="19.458" fill="#C4C4C4"/>
<ellipse cx="63.9943" cy="187.035" rx="19.4765" ry="19.458" fill="url(#paint2_linear_2_127)"/>
<path fill-rule="evenodd" clip-rule="evenodd" d="M70.1304 195.674C68.5685 197.032 66.3045 197.757 64.3553 197.757C61.6222 197.757 59.1617 196.564 57.3002 194.581C57.154 194.425 57.285 194.212 57.4605 194.334C59.4694 195.713 61.9533 196.542 64.5191 196.542C66.2495 196.542 68.1531 196.12 69.9035 195.243C70.1679 195.111 70.389 195.448 70.1304 195.674Z" fill="white"/>
<path fill-rule="evenodd" clip-rule="evenodd" d="M70.8447 195.038C70.6512 194.77 69.5606 194.912 69.0711 194.974C68.9219 194.994 68.8992 194.854 69.0335 194.753C69.9021 194.093 71.3274 194.283 71.4936 194.505C71.6598 194.727 71.4503 196.27 70.6341 197.006C70.5089 197.119 70.3893 197.059 70.4451 196.909C70.6284 196.415 71.0394 195.307 70.8447 195.038Z" fill="white"/>
<path fill-rule="evenodd" clip-rule="evenodd" d="M65.9053 185.588C65.9053 186.72 65.9321 187.664 65.3963 188.669C64.9639 189.486 64.2788 189.989 63.5134 189.989C62.4686 189.989 61.8601 189.139 61.8601 187.885C61.8601 185.409 63.9382 184.959 65.9053 184.959V185.588ZM68.6493 192.669C68.4695 192.841 68.2092 192.853 68.0064 192.739C67.1032 191.938 66.9425 191.566 66.4449 190.802C64.9524 192.428 63.8961 192.915 61.9596 192.915C59.671 192.915 57.8876 191.407 57.8876 188.387C57.8876 186.03 59.0855 184.424 60.7885 183.639C62.2658 182.945 64.3286 182.822 65.9053 182.63V182.254C65.9053 181.564 65.9551 180.746 65.5762 180.15C65.2432 179.615 64.6079 179.394 64.0492 179.394C63.0121 179.394 62.0859 179.962 61.8601 181.139C61.8142 181.4 61.6343 181.658 61.3894 181.67L58.7487 181.367C58.5267 181.314 58.2818 181.122 58.343 180.759C58.9515 177.343 61.841 176.313 64.4281 176.313C65.7522 176.313 67.4821 176.689 68.5269 177.76C69.851 179.079 69.7247 180.84 69.7247 182.757V187.284C69.7247 188.645 70.2529 189.241 70.7504 189.977C70.9265 190.238 70.9647 190.553 70.7428 190.749C70.1878 191.243 69.2004 192.163 68.657 192.678L68.6493 192.669Z" fill="white"/>
<ellipse cx="251.605" cy="145.736" rx="19.4766" ry="19.458" fill="url(#paint3_linear_2_127)"/>
<path fill-rule="evenodd" clip-rule="evenodd" d="M253.805 137.703C253.477 137.869 253.011 138.19 252.77 138.418C252.216 138.941 251.619 140.197 251.617 140.842C251.616 141.254 251.672 141.335 251.955 141.332C252.458 141.327 253.439 140.832 253.935 140.333C254.454 139.811 254.878 138.91 255.017 138.03C255.113 137.429 255.098 137.392 254.761 137.398C254.564 137.401 254.134 137.539 253.805 137.703ZM248.12 141.399C246.758 141.763 245.591 142.885 245.107 144.292C244.78 145.245 244.759 147.279 245.063 148.577C245.476 150.343 246.879 152.712 248.005 153.549C248.748 154.101 249.372 154.166 250.379 153.798C251.847 153.261 252.33 153.244 253.593 153.682C254.216 153.899 254.891 154.076 255.092 154.075C255.702 154.074 256.61 153.4 257.369 152.385C258.225 151.241 259.102 149.637 258.909 149.571C257.958 149.248 256.988 148.059 256.745 146.919C256.465 145.601 256.863 144.386 257.897 143.404L258.461 142.868L258.097 142.477C257.897 142.263 257.358 141.902 256.9 141.676C255.885 141.177 254.835 141.162 253.513 141.628C252.417 142.015 251.894 142.021 250.848 141.662C249.666 141.255 248.922 141.184 248.12 141.399Z" fill="white"/>
<defs>
<linearGradient id="paint0_linear_2_127" x1="140.14" y1="1.6215" x2="174.926" y2="27.7587" gradientUnits="userSpaceOnUse">
<stop stop-color="#3924CD"/>
<stop offset="1" stop-color="#6450EF"/>
</linearGradient>
<linearGradient id="paint1_linear_2_127" x1="4.9966" y1="54.0389" x2="43.3937" y2="73.3879" gradientUnits="userSpaceOnUse">
<stop stop-color="#1A293B"/>
<stop offset="1" stop-color="#183F5A"/>
</linearGradient>
<linearGradient id="paint2_linear_2_127" x1="49.5144" y1="169.198" x2="83.6043" y2="174.658" gradientUnits="userSpaceOnUse">
<stop stop-color="#F4C24F"/>
<stop offset="1" stop-color="#F29F3A"/>
</linearGradient>
<linearGradient id="paint3_linear_2_127" x1="237.125" y1="127.9" x2="271.215" y2="133.359" gradientUnits="userSpaceOnUse">
<stop stop-color="#EB2525"/>
<stop offset="1" stop-color="#C0742E"/>
</linearGradient>
</defs>
</svg>
