<svg width="258" height="235" viewBox="0 0 258 235" fill="none" xmlns="http://www.w3.org/2000/svg">
<circle cx="133.5" cy="117.5" r="117.5" fill="#F2F2F2"/>
<path d="M241.484 52.4825C241.443 51.8346 241.403 51.1867 241.322 50.5388C241.119 49.2025 240.552 48.0686 239.499 47.2182C238.406 46.3273 237.353 45.3959 235.936 45.1125C235.733 45.072 235.49 44.9505 235.369 44.7885C235.207 44.5455 234.964 44.2216 235.004 43.9786C235.045 43.7356 235.369 43.4117 235.652 43.3712C239.378 42.6828 241.119 40.0911 242.132 36.7705C242.375 35.9606 242.496 35.0697 242.658 34.2193C242.78 33.9358 242.739 33.6524 242.861 33.4094C242.982 33.2069 243.225 32.964 243.387 33.0045C243.549 33.0045 243.751 33.2879 243.873 33.4904C243.954 33.6524 243.913 33.8549 243.913 34.0573C243.873 34.9077 243.832 35.7176 243.792 36.568C243.751 37.4994 243.67 38.4308 243.67 39.3622C243.63 40.901 244.602 41.8324 245.817 42.4398C246.586 42.8042 247.436 43.0067 248.368 42.8852C248.935 42.8042 249.502 42.9662 250.109 43.0472C250.312 43.0877 250.514 43.1282 250.636 43.2497C250.798 43.4522 251 43.7356 251 43.9381C251 44.3026 250.636 44.3431 250.312 44.3026C249.785 44.2621 249.299 44.2216 248.773 44.1406C247.801 44.0191 246.91 44.2621 246.019 44.586C245.614 44.748 245.209 45.072 245.007 45.4364C244.561 46.1248 244.116 46.8133 243.913 47.5827C243.427 49.3644 243.103 51.1867 242.699 52.9685C242.618 53.3329 242.618 53.6974 242.456 54.0214C242.375 54.2238 242.091 54.4668 241.929 54.4668C241.767 54.4668 241.484 54.1833 241.484 53.9809C241.443 53.4949 241.484 52.9685 241.484 52.4825Z" fill="#E81313"/>
<path d="M22.147 167.335C21.219 167.418 20.291 167.46 19.3841 167.586C18.0343 167.795 17.0009 168.507 16.3682 169.721C15.9464 170.537 15.5668 171.374 15.2504 172.253C14.4068 174.534 13.9006 176.92 13.2679 179.243C13.1836 179.557 13.1625 179.912 13.0992 180.226C13.0781 180.352 13.057 180.498 12.9937 180.603C12.8461 180.917 12.5719 181.084 12.2556 181.043C11.9392 181.001 11.6861 180.75 11.665 180.394C11.644 180.205 11.644 179.996 11.6861 179.787C11.8127 178.992 11.7705 178.217 11.6861 177.443C11.5174 175.915 11.2854 174.387 10.8003 172.923C10.1887 171.186 9.26074 169.658 7.8055 168.465C7.06733 167.858 6.30808 167.272 5.54882 166.665C4.38885 165.744 3.06016 165.137 1.68928 164.593C1.47837 164.51 1.22529 164.489 0.972205 164.405C0.803481 164.363 0.613668 164.321 0.444944 164.237C0.0864073 164.07 -0.0612256 163.714 0.0231361 163.358C0.107498 163.024 0.423854 162.814 0.803481 162.856C1.07766 162.877 1.37292 162.94 1.6471 163.024C3.20779 163.505 4.81066 163.4 6.41353 163.254C7.00406 163.212 7.59459 163.149 8.16404 163.024C9.49273 162.71 10.5262 161.977 11.1378 160.743C11.6229 159.78 11.9603 158.775 12.1923 157.708C12.5719 156.055 13.0992 154.422 13.3101 152.727C13.4155 151.869 13.5421 151.011 13.6475 150.132C13.6897 149.902 13.7108 149.672 13.7741 149.441C13.9006 149.211 14.0904 149.023 14.3646 149.002C14.6388 148.981 14.8919 149.128 14.9762 149.421C15.0817 149.734 15.1661 150.069 15.1871 150.404C15.2926 151.953 15.398 153.501 15.5035 155.071C15.6089 156.494 15.6722 157.917 15.8199 159.319C15.9464 160.47 16.3471 161.559 17.0009 162.542C17.5914 163.442 18.414 164.007 19.3841 164.405C20.0168 164.656 20.6285 164.928 21.2612 165.137C21.5986 165.263 21.9783 165.305 22.3368 165.388C23.0328 165.556 23.7498 165.702 24.4458 165.891C24.7622 165.974 24.9731 166.205 24.9942 166.54C25.0364 166.853 24.8465 167.167 24.5091 167.293C24.2771 167.377 24.024 167.439 23.7709 167.439C23.2226 167.46 22.6531 167.439 22.1048 167.439C22.147 167.398 22.147 167.356 22.147 167.335Z" fill="#E81313"/>
<path d="M97.1206 73.4175C97.1699 74.1188 97.426 74.7897 97.8564 75.3454C98.2869 75.9012 98.8724 76.3169 99.539 76.5401C100.206 76.7632 100.923 76.7838 101.602 76.5992C102.28 76.4145 102.888 76.033 103.35 75.5028C103.811 74.9726 104.105 74.3175 104.195 73.6203C104.284 72.923 104.165 72.2149 103.852 71.5854C103.539 70.9559 103.047 70.4332 102.437 70.0834C101.827 69.7337 101.128 69.5725 100.426 69.6202C99.9597 69.652 99.504 69.7755 99.0852 69.9836C98.6664 70.1917 98.2928 70.4804 97.9857 70.8331C97.6786 71.1859 97.4442 71.5957 97.2957 72.0392C97.1473 72.4826 97.0877 72.951 97.1206 73.4175Z" fill="white"/>
<path d="M97.1179 73.4175C97.1896 74.3715 97.6246 75.2616 98.3331 75.9044C99.0416 76.5473 99.9696 76.8939 100.926 76.8728C101.452 76.8951 101.977 76.8058 102.466 76.611C102.956 76.4162 103.398 76.1202 103.765 75.7424C104.132 75.3645 104.414 74.9135 104.595 74.4187C104.775 73.9239 104.849 73.3966 104.811 72.8714C104.773 72.3462 104.625 71.8349 104.375 71.371C104.126 70.9071 103.782 70.5012 103.365 70.1798C102.947 69.8583 102.467 69.6287 101.955 69.5059C101.443 69.3832 100.911 69.37 100.393 69.4673C99.4462 69.5831 98.5793 70.0568 97.9703 70.7913C97.3612 71.5258 97.0563 72.4654 97.1179 73.4175ZM97.1179 73.4175C97.0861 72.9588 97.1476 72.4984 97.2985 72.064C97.4495 71.6296 97.6868 71.2303 97.9962 70.8902C98.3056 70.55 98.6807 70.276 99.0989 70.0847C99.517 69.8933 99.9696 69.7886 100.429 69.7769C101.308 69.7523 102.162 70.0682 102.813 70.6585C103.464 71.2489 103.862 72.0681 103.923 72.9448C103.984 73.8216 103.704 74.6881 103.141 75.3632C102.579 76.0383 101.777 76.4698 100.903 76.5675C100.446 76.6198 99.983 76.5789 99.5419 76.4472C99.1009 76.3156 98.6912 76.0959 98.3374 75.8016C97.9836 75.5072 97.6931 75.1441 97.4835 74.7344C97.2739 74.3247 97.1495 73.8767 97.1179 73.4175Z" fill="#E81313"/>
<path d="M68.3063 61.1998C68.4039 63.9519 69.5897 66.5529 71.6033 68.4314C73.617 70.31 76.2938 71.3127 79.0461 71.2193C80.8581 71.1614 82.6225 70.6255 84.1605 69.6658C85.1297 70.5918 86.2994 71.2819 87.5786 71.6824C88.8579 72.0829 90.2122 72.183 91.5365 71.975C92.8607 71.767 94.1191 71.2565 95.214 70.483C96.3088 69.7096 97.2106 68.6942 97.8492 67.5156C98.245 67.568 98.6445 67.5875 99.0435 67.5739C100.409 67.527 101.731 67.0852 102.851 66.3019C103.97 65.5186 104.838 64.4274 105.349 63.1607C105.861 61.894 105.994 60.5061 105.733 59.1652C105.472 57.8243 104.827 56.588 103.877 55.606C105.087 53.4451 105.485 50.923 104.999 48.4946C104.514 46.0662 103.176 43.8913 101.228 42.3618C99.2806 40.8324 96.8504 40.0492 94.3761 40.1535C91.9018 40.2577 89.5461 41.2425 87.7338 42.9303C86.5972 41.8972 85.2078 41.1828 83.7063 40.8593C82.2048 40.5358 80.6445 40.6147 79.1833 41.088C77.7221 41.5613 76.4119 42.4122 75.3852 43.5545C74.3585 44.6969 73.6518 46.0903 73.3367 47.5935C72.9583 47.5291 72.5741 47.5049 72.1906 47.5214C71.0316 47.5637 69.9131 47.9584 68.984 48.6526C68.055 49.3469 67.3597 50.3078 66.9907 51.4074C66.6218 52.5069 66.5967 53.6927 66.9189 54.8069C67.2411 55.921 67.8952 56.9104 68.7941 57.6433C68.4232 58.7908 68.258 59.9948 68.3063 61.1998Z" fill="white"/>
<path d="M68.3076 61.1998C68.4118 63.95 69.5872 66.5504 71.5828 68.4456C72.2486 69.0605 72.9882 69.5901 73.7848 70.0224C75.396 70.8861 77.2045 71.315 79.032 71.2667C80.8595 71.2184 82.6428 70.6947 84.2062 69.7471L84.1077 69.7626C85.0846 70.708 86.2667 71.415 87.5619 71.8283C88.857 72.2416 90.2301 72.3501 91.574 72.1453C92.9241 71.9381 94.2085 71.4236 95.3283 70.6415C96.4458 69.8491 97.3714 68.8162 98.037 67.6188L97.8271 67.7274C99.3264 67.9348 100.853 67.6729 102.198 66.9778C103.549 66.2835 104.649 65.1825 105.341 63.8301C105.677 63.1521 105.914 62.4291 106.044 61.6835C106.163 60.9354 106.168 60.1738 106.061 59.424C105.837 57.9139 105.15 56.5106 104.094 55.4084L104.148 55.753C105.412 53.5357 105.826 50.934 105.312 48.434C104.95 46.5683 104.093 44.8344 102.831 43.414C101.568 41.9937 99.9468 40.9394 98.1364 40.3617C96.326 39.784 94.3935 39.7042 92.5416 40.1307C90.6898 40.5572 88.9869 41.4743 87.6116 42.7858L87.8881 42.7802C86.7222 41.731 85.2993 41.0091 83.7641 40.6878C82.2288 40.3664 80.6359 40.4572 79.1471 40.9508C77.6673 41.4415 76.3433 42.3142 75.3089 43.4807C74.2745 44.6471 73.5664 46.066 73.2561 47.5938L73.3294 47.5382C72.0657 47.3361 70.7707 47.5572 69.6458 48.1672C68.8191 48.6181 68.1164 49.2659 67.6 50.0533C67.0836 50.8407 66.7695 51.7434 66.6855 52.6813C66.6015 53.6191 66.7502 54.5632 67.1184 55.4299C67.4866 56.2965 68.063 57.0589 68.7964 57.6495C68.4246 58.7947 68.2591 59.9968 68.3076 61.1998ZM68.3076 61.1998C68.267 59.994 68.4408 58.7906 68.821 57.6457C67.8408 56.8592 67.1504 55.7685 66.8591 54.546C66.5677 53.3234 66.692 52.0387 67.2121 50.8946C67.7252 49.7546 68.6023 48.8172 69.7058 48.2297C70.8093 47.6422 72.0766 47.4378 73.3089 47.6486L73.3704 47.6389L73.3607 47.5774C73.6874 46.0949 74.3955 44.7233 75.4149 43.5984C76.4352 42.4751 77.7365 41.644 79.1848 41.1907C80.6262 40.7384 82.1609 40.6712 83.6363 40.9958C85.1041 41.3273 86.458 42.0411 87.5609 43.0648L87.701 43.1941L87.8435 43.0583C89.6166 41.4274 91.9121 40.4806 94.3193 40.3875C96.7265 40.2943 99.0883 41.0608 100.982 42.5499C102.876 44.0389 104.178 46.1532 104.655 48.5144C105.133 50.8757 104.754 53.3298 103.588 55.4375L103.479 55.631L103.636 55.7891C104.618 56.7975 105.262 58.0869 105.477 59.4779C105.575 60.1704 105.573 60.8736 105.47 61.5655C105.358 62.2576 105.143 62.9289 104.831 63.5571C104.196 64.8236 103.184 65.8619 101.934 66.5291C100.684 67.1962 99.2575 67.4594 97.8517 67.2822L97.7044 67.2675L97.6419 67.3908C97.0209 68.5447 96.1479 69.5437 95.0876 70.3137C93.4722 71.4784 91.5018 72.0446 89.5144 71.9151C87.5271 71.7855 85.6468 70.9683 84.1963 69.6037L84.1445 69.5551L84.083 69.5648C82.555 70.5314 80.7986 71.077 78.9919 71.1462C77.1731 71.2071 75.3698 70.7929 73.7599 69.9444C72.9662 69.5223 72.2281 69.0029 71.5628 68.3983C70.9052 67.7762 70.3271 67.0751 69.8417 66.3109C68.8995 64.7674 68.3711 63.0071 68.3076 61.1998Z" fill="#E81313"/>
<path d="M85.8997 58.7646C85.7949 58.0138 85.5443 57.2907 85.1619 56.6362C84.7041 55.9582 84.0321 55.4533 83.2535 55.2024C82.9771 55.0882 82.6495 54.9694 82.2504 54.8367C81.8459 54.6986 81.4539 54.5261 81.0788 54.321C80.6937 54.1134 80.3449 53.8446 80.046 53.525C79.746 53.1992 79.5521 52.79 79.4898 52.3516C79.4333 52.0332 79.4532 51.706 79.5479 51.3969C79.6337 51.1199 79.7759 50.8636 79.9655 50.6441C80.1585 50.424 80.3942 50.2454 80.6584 50.1192C80.9281 49.9822 81.2174 49.8879 81.5159 49.8395C81.8568 49.7795 82.2064 49.7911 82.5426 49.8737C82.8497 49.9471 83.1455 50.0618 83.4219 50.2147C83.6822 50.3709 83.9231 50.5574 84.1396 50.7702C84.3502 50.9594 84.5483 51.162 84.7329 51.3767L86.6636 49.5416C86.3752 49.075 86.0117 48.6592 85.5878 48.3111C85.1785 47.9664 84.7178 47.6878 84.2225 47.4853C83.7183 47.2858 83.1889 47.1568 82.6493 47.1021C82.0911 47.0449 81.5278 47.0613 80.9738 47.1509C80.3495 47.2523 79.7425 47.441 79.1707 47.7115C78.5955 47.9864 78.0798 48.3715 77.653 48.8451C77.2145 49.3402 76.889 49.9248 76.6991 50.5583C76.4902 51.3066 76.4541 52.0926 76.5937 52.8569C76.6606 53.3322 76.7971 53.795 76.9986 54.2306C77.1786 54.6075 77.4181 54.953 77.7078 55.254C77.993 55.5508 78.3155 55.8095 78.6671 56.0237C79.0488 56.2532 79.4469 56.454 79.8584 56.6245L80.9449 57.0401C81.2921 57.1676 81.6271 57.326 81.9459 57.5133C82.2519 57.6831 82.5243 57.9073 82.7496 58.1751C82.9852 58.4671 83.1344 58.8193 83.1804 59.1917L85.8997 58.7646ZM86.7608 64.5677L86.2215 61.1347L83.4653 61.5677L84.0046 65.0006L86.7608 64.5677Z" fill="#E81313"/>
<path d="M91.0465 51.3743C90.9906 52.1296 91.0884 52.8884 91.3339 53.6049C91.6324 54.3608 92.176 54.9946 92.8774 55.405C93.1237 55.568 93.424 55.7541 93.7855 55.9684C94.1533 56.1871 94.5023 56.4359 94.829 56.7123C95.162 56.9939 95.4467 57.3283 95.6716 57.702C95.898 58.083 96.0025 58.5241 95.971 58.9662C95.9642 59.2868 95.8794 59.6009 95.7239 59.8813C95.5832 60.1369 95.3907 60.3604 95.1588 60.5374C94.9249 60.7143 94.6576 60.8421 94.373 60.913C94.0791 60.9869 93.776 61.0176 93.4732 61.0039C93.1283 60.9923 92.7894 60.9104 92.4772 60.7632C92.1924 60.6296 91.9263 60.4595 91.6854 60.2572C91.4515 60.0531 91.2436 59.8212 91.0662 59.5664C90.9012 59.3366 90.75 59.0973 90.6132 58.8496L88.3497 60.2516C88.5325 60.7687 88.8022 61.2508 89.1472 61.6771C89.4823 62.0939 89.8795 62.4568 90.3249 62.7529C90.7768 63.0535 91.2679 63.2903 91.7845 63.4567C92.3182 63.6276 92.8723 63.7272 93.4322 63.7526C94.0712 63.787 94.7117 63.7267 95.3331 63.5738C95.9529 63.4283 96.5368 63.1586 97.0494 62.781C97.578 62.3901 98.0175 61.8913 98.3388 61.3176C98.9053 60.1859 99.0694 58.895 98.804 57.6576C98.7057 57.2538 98.543 56.8686 98.3222 56.5166C98.1054 56.1671 97.8433 55.848 97.5427 55.5673C97.2169 55.2629 96.8695 54.9824 96.5031 54.7283C96.1795 54.5143 95.8498 54.3014 95.5281 54.0997C95.2163 53.8986 94.9246 53.6679 94.6571 53.4107C94.399 53.1783 94.183 52.903 94.0187 52.5969C93.851 52.2619 93.7791 51.8871 93.8107 51.5138L91.0465 51.3743ZM91.3879 45.521L91.2081 48.9912L93.9978 49.133L94.1777 45.6628L91.3879 45.521Z" fill="#E81313"/>
<mask id="mask0_484_9824" style="mask-type:alpha" maskUnits="userSpaceOnUse" x="18" y="0" width="235" height="235">
<circle cx="135.5" cy="117.5" r="117.5" fill="#F2F2F2"/>
</mask>
<g mask="url(#mask0_484_9824)">
<path d="M120.644 195.66L176.495 195.691L176.648 196.885L177.242 201.517C177.755 205.52 178.491 211.264 179.384 218.233C181.168 232.17 183.578 251.002 186.08 270.585C191.082 309.751 196.448 351.913 197.904 363.909C199.357 375.876 200.572 414.424 201.424 450.019C201.849 467.809 202.183 484.848 202.411 497.441C202.526 503.737 202.613 508.921 202.672 512.531C202.701 514.336 202.724 515.748 202.739 516.708L202.753 517.67H138.124L138.126 517.317C138.128 516.756 138.13 515.927 138.134 514.858C138.14 512.72 138.149 509.618 138.158 505.766C138.177 498.062 138.197 487.355 138.201 475.345C138.211 451.324 138.161 422.086 137.923 401.223C137.816 391.671 137.682 383.173 137.507 376.72C137.42 373.494 137.323 370.775 137.213 368.691C137.105 366.621 136.983 365.141 136.841 364.413C136.279 361.438 134.982 349.385 133.351 332.933C131.721 316.496 129.761 295.704 127.871 275.286C125.981 254.868 124.162 234.826 122.816 219.888C122.143 212.418 121.588 206.226 121.201 201.9C121.008 199.737 120.856 198.041 120.753 196.886L120.644 195.66Z" fill="white" stroke="black"/>
<path d="M150.087 432.231C150.005 422.705 149.933 413.183 149.872 403.667C149.872 394.467 149.872 385.268 149.382 376.068C148.492 357.409 144.782 339.071 142.022 320.626C139.262 302.181 137.085 283.659 135.046 265.122C132.761 244.332 130.753 223.495 128.621 202.688C128.621 202.55 128.376 202.55 128.391 202.688C131.458 239.854 134.938 277.005 140.075 313.941C141.363 323.141 142.763 332.309 144.276 341.448C145.809 350.647 147.342 359.969 148.063 369.337C148.784 378.706 148.891 387.736 148.983 396.936C149.095 406.463 149.192 415.979 149.274 425.485C149.474 446.613 149.673 479.149 149.887 500.277C149.903 500.349 149.943 500.413 150 500.458C150.057 500.504 150.129 500.529 150.202 500.529C150.275 500.529 150.346 500.504 150.403 500.458C150.46 500.413 150.5 500.349 150.516 500.277C150.393 481.326 150.225 451.075 150.087 432.231Z" fill="black"/>
<path d="M97.3351 195.553H176.399C176.362 195.793 176.313 196.106 176.253 196.487C176.098 197.462 175.867 198.881 175.563 200.652C174.954 204.193 174.053 209.14 172.882 214.764C170.555 225.946 167.168 239.775 162.908 250.543C157.146 252.575 151.58 255.129 146.281 258.172L146.052 258.304L146.032 258.568L146.531 258.606C146.032 258.568 146.032 258.568 146.032 258.569L146.032 258.572L146.031 258.586L146.027 258.639L146.01 258.849L145.948 259.671C145.892 260.391 145.812 261.45 145.709 262.801C145.503 265.504 145.208 269.378 144.854 274.065C144.145 283.44 143.197 296.067 142.241 309.076C140.329 335.082 138.38 362.643 138.242 368.773C137.936 380.855 135.28 419.07 132.7 454.285C131.41 471.888 130.14 488.735 129.192 501.181C128.718 507.405 128.324 512.527 128.049 516.095C127.912 517.878 127.804 519.273 127.73 520.222L127.655 521.192L63.1022 518.46L63.2364 517.38C63.3677 516.324 63.5602 514.773 63.8054 512.797C64.2957 508.845 64.9965 503.188 65.8385 496.373C67.5225 482.743 69.7711 464.476 72.0298 445.932C74.2885 427.388 76.5574 408.566 78.2817 393.825C80.0039 379.102 81.1875 368.413 81.2691 366.167C81.6977 354.686 85.7239 311.934 89.6462 272.025C91.6068 252.076 93.5406 232.846 94.9842 218.603C95.706 211.481 96.3053 205.606 96.7241 201.512C96.9335 199.465 97.0978 197.863 97.2097 196.773L97.3351 195.553Z" fill="white" stroke="black"/>
<path d="M102.758 203.884C99.7831 241.188 96.7319 278.508 93.3128 315.812C89.8936 353.116 85.8918 390.573 81.0468 427.816C78.3329 448.591 75.2664 477.892 72.0312 498.621C72.0312 498.759 72.2152 498.82 72.2459 498.621C78.8542 461.823 83.7146 416.071 87.8391 378.89C91.9635 341.708 95.352 304.42 98.3725 267.131C100.074 246.033 101.608 224.921 103.233 203.823C103.248 203.624 102.865 203.624 102.758 203.884Z" fill="black"/>
<path d="M168.24 204.16C168.24 203.93 167.826 203.884 167.826 204.16C167.826 211.995 167.382 218.895 166.722 226.239C166.416 229.643 163.656 248.441 157.768 247.076C156.787 246.846 156.235 245.865 156.128 244.377C156.139 242.43 156.402 240.492 156.909 238.612C157.553 234.672 158.09 230.732 158.443 226.745C159.128 219.341 159.046 211.885 158.197 204.498C158.186 204.456 158.16 204.419 158.126 204.393C158.091 204.367 158.049 204.353 158.006 204.353C157.962 204.353 157.92 204.367 157.886 204.393C157.851 204.419 157.826 204.456 157.814 204.498C157.989 214.75 157.389 225.001 156.02 235.163C155.284 240.054 152.816 247.429 157.937 248.165C163.058 248.901 166.523 236.604 167.136 233.231C168.764 223.63 169.135 213.857 168.24 204.16Z" fill="#263238"/>
<path d="M131.213 210.309C131.231 209.489 131.149 208.67 130.967 207.871C130.956 207.848 130.938 207.829 130.916 207.816C130.895 207.803 130.87 207.796 130.845 207.796C130.819 207.796 130.794 207.803 130.773 207.816C130.751 207.829 130.734 207.848 130.722 207.871C130.56 208.565 130.467 209.274 130.446 209.987C130.446 210.799 130.262 211.52 130.17 212.409C130 214.068 129.713 215.712 129.311 217.331C128.565 220.386 127.008 223.183 124.804 225.426C122.606 227.589 120 229.293 117.137 230.44C113.969 231.562 110.739 232.499 107.463 233.246C107.43 233.246 107.399 233.259 107.376 233.282C107.353 233.305 107.34 233.336 107.34 233.369C107.34 233.401 107.353 233.432 107.376 233.455C107.399 233.478 107.43 233.491 107.463 233.491C111.09 233.484 114.683 232.776 118.042 231.406C121.02 230.289 123.731 228.56 126 226.331C128.265 224.028 129.855 221.149 130.599 218.005C130.975 216.385 131.19 214.731 131.243 213.068C131.287 212.149 131.276 211.227 131.213 210.309Z" fill="#263238"/>
<path d="M209.61 60.3873C214.547 66.3516 219.914 82.4661 219.714 86.8665C219.515 91.2669 192.392 101.264 188.559 98.8718C184.726 96.48 169.638 75.1678 169.5 67.2715C169.362 59.3753 204.489 54.2236 209.61 60.3873Z" fill="#EB9481"/>
<path d="M168.795 49.4399C166.311 46.8488 158.277 39.1058 154.705 42.6016C152.466 44.7789 157.863 50.7432 160.132 53.1044C164.809 57.9495 168.427 66.5203 170.114 70.7061C171.8 74.8919 179.697 66.6277 179.697 66.6277C179.697 66.6277 175.281 56.1709 168.795 49.4399Z" fill="#EB9481"/>
<path d="M175.389 75.3826C175.389 75.3826 178.164 82.8342 182.687 82.6656C187.21 82.4969 186.06 76.0879 185.999 75.628C186.137 76.0266 188.866 82.8036 193.404 82.1749C197.943 81.5463 196.011 75.2446 195.873 74.846C196.118 75.168 199.614 79.4457 202.941 78.1731C208.676 75.9959 200.074 64.8492 200.902 59.9581C200.902 59.9581 209.366 60.4335 209.611 60.3875C209.611 60.3875 201.638 49.6547 194.968 48.8574C193.998 48.7229 193.01 48.927 192.173 49.4353C191.335 49.9435 190.698 50.7249 190.369 51.6479C190.369 51.6479 188.176 47.8915 184.588 48.2748C182.748 48.4741 181.43 51.6019 181.43 51.6019C180.892 50.7763 180.136 50.1158 179.245 49.6936C178.355 49.2714 177.365 49.1041 176.385 49.2101C173.855 49.624 172.598 52.7825 172.46 54.0091C171.387 63.3926 175.389 75.3826 175.389 75.3826Z" fill="#EB9481"/>
<path d="M172.751 53.1504C172.751 53.1504 172.644 53.1504 172.629 53.1504C171.246 60.7709 172.214 68.6316 175.404 75.6892C175.511 75.9038 175.91 75.8272 175.833 75.5665C173.729 68.2824 172.691 60.732 172.751 53.1504Z" fill="#263238"/>
<path d="M181.416 51.4945C181.416 51.4025 181.278 51.4025 181.262 51.4945C179.833 59.9093 181.465 68.5579 185.862 75.8732C186.031 76.1339 186.429 76.1952 186.261 75.8732C183.455 70.7828 181.262 58.5935 181.416 51.4945Z" fill="#263238"/>
<path d="M196.393 75.2446C192.192 68.0383 190.705 60.2187 190.352 51.9545C190.352 51.8472 190.199 51.8625 190.168 51.9545C189.249 56.0483 190.03 61.2767 190.981 65.3091C191.795 69.0602 193.577 72.5329 196.148 75.3826C196.225 75.5052 196.393 75.3979 196.393 75.2446Z" fill="#263238"/>
<path d="M175.387 75.3825C176.054 76.7593 176.844 78.0731 177.748 79.3076C178.578 80.544 179.721 81.5385 181.06 82.1901C181.696 82.4345 182.401 82.4345 183.038 82.1901C183.689 81.9572 184.269 81.5613 184.724 81.0402C185.126 80.4817 185.408 79.8457 185.55 79.1725C185.693 78.4993 185.693 77.8038 185.552 77.1304L184.985 73.8185L186.671 76.7317C187.409 78.0342 188.351 79.2094 189.462 80.2122C189.947 80.7047 190.532 81.088 191.177 81.3365C191.822 81.5851 192.513 81.6931 193.203 81.6535C193.846 81.6146 194.456 81.3556 194.931 80.92C195.405 80.4845 195.716 79.8989 195.81 79.2616C195.988 77.8283 195.803 76.3733 195.273 75.0298L193.908 71.2887L196.408 74.3552C197.103 75.2114 197.901 75.9787 198.784 76.6397C199.604 77.2883 200.595 77.6827 201.636 77.7743C202.105 77.7958 202.572 77.6868 202.983 77.4594C203.394 77.2321 203.735 76.8953 203.967 76.4864C204.328 75.5058 204.408 74.4435 204.196 73.4199C203.757 71.1574 203.142 68.9325 202.357 66.7656C201.989 65.6616 201.621 64.5424 201.314 63.4078C200.938 62.2938 200.802 61.1129 200.915 59.9426C200.936 61.1014 201.175 62.2459 201.621 63.3158C202.019 64.4044 202.464 65.4777 202.909 66.5663C203.86 68.735 204.604 70.9886 205.132 73.2972C205.447 74.5376 205.394 75.8431 204.978 77.0537C204.679 77.6886 204.2 78.2217 203.6 78.5869C203 78.9521 202.307 79.1334 201.605 79.1082C200.31 79.0352 199.065 78.5759 198.033 77.7897C197.035 77.0751 196.133 76.2352 195.35 75.2905L196.484 74.6158C197.145 76.1881 197.383 77.9061 197.174 79.5989C197.034 80.541 196.567 81.4038 195.856 82.0368C195.146 82.6272 194.275 82.9905 193.356 83.0794C192.48 83.1334 191.602 82.9984 190.782 82.6836C189.962 82.3688 189.219 81.8816 188.603 81.2548C187.37 80.1494 186.333 78.8429 185.537 77.391L186.656 76.9924C186.8 77.833 186.759 78.6948 186.536 79.5182C186.314 80.3415 185.915 81.1067 185.368 81.7608C184.777 82.3769 184.038 82.831 183.222 83.0794C182.39 83.336 181.492 83.2703 180.707 82.8954C179.297 82.1243 178.133 80.9711 177.349 79.5682C176.539 78.2517 175.88 76.8475 175.387 75.3825Z" fill="#263238"/>
<path d="M185.352 95.6982C185.352 95.6982 156.113 80.749 167.566 72.1935C170.955 69.6483 187.959 63.2546 189.308 66.6431C191.056 71.0129 184.447 75.0147 179.909 76.8546C179.909 76.8546 190.565 80.5497 190.213 88.7219C190.124 90.2197 189.623 91.6639 188.765 92.8949C187.908 94.126 186.726 95.0962 185.352 95.6982Z" fill="#EB9481"/>
<path d="M166.664 72.96C167.871 71.7994 169.246 70.8276 170.743 70.0775C172.23 69.285 173.766 68.5885 175.342 67.9923C178.473 66.7626 181.705 65.8083 185.002 65.1404C185.878 64.9566 186.778 64.9049 187.67 64.9871C188.209 65.0203 188.734 65.1777 189.203 65.4471C189.446 65.5882 189.664 65.7696 189.847 65.9837C190.027 66.1968 190.168 66.441 190.261 66.7043C190.613 67.6487 190.613 68.6885 190.261 69.6328C189.938 70.4943 189.46 71.2893 188.85 71.9787C187.695 73.2859 186.32 74.3808 184.787 75.2139C183.313 76.0578 181.775 76.7857 180.187 77.3911V76.3025C181.389 76.7715 182.544 77.3516 183.637 78.0351C184.737 78.6981 185.765 79.4741 186.704 80.3503C187.629 81.2508 188.414 82.2843 189.034 83.4168C189.662 84.5196 190.073 85.7322 190.245 86.9892C189.921 85.7939 189.403 84.6596 188.712 83.6314C188.007 82.6354 187.171 81.7382 186.228 80.9636C185.282 80.1724 184.254 79.4837 183.162 78.909C182.101 78.3244 180.987 77.8419 179.835 77.4678L178.409 77.0231L179.789 76.3791C181.284 75.7315 182.733 74.9836 184.128 74.1406C185.505 73.3457 186.747 72.3364 187.808 71.1508C188.315 70.6597 188.689 70.0468 188.893 69.3705C189.097 68.6942 189.124 67.9769 188.973 67.287C188.636 66.2137 186.811 66.2597 185.262 66.4897C183.714 66.7197 182.073 67.1336 180.463 67.5323C178.853 67.9309 177.274 68.3756 175.695 68.8816C172.491 69.7648 169.445 71.1407 166.664 72.96Z" fill="#263238"/>
<path d="M151.699 116.857C177.549 148.764 215.129 169.432 224.405 162.701C233.682 155.97 202.419 120.736 201.882 120.215C200.057 118.467 186.228 111.276 161.113 100.696C136.474 90.3163 140.153 102.613 151.699 116.857Z" fill="#EB9481"/>
<path d="M190.259 113.162L170.787 138.767C170.787 138.767 154.442 121.901 145.795 110.739C137.147 99.5773 138.006 90.8991 157.356 98.1054C168.683 102.299 179.681 107.332 190.259 113.162Z" fill="#E81313"/>
<path d="M168.932 132.895C171.308 129.399 173.792 125.964 176.338 122.607C177.61 120.951 178.837 119.264 180.14 117.624C181.443 115.983 182.931 114.342 184.264 112.656C184.356 112.533 184.54 112.656 184.448 112.778C183.222 114.465 182.118 116.228 180.891 117.915C179.665 119.601 178.315 121.349 177.012 123.067C174.447 126.44 171.804 129.752 169.085 133.002C169.009 133.094 168.794 133.002 168.932 132.895Z" fill="#263238"/>
<path d="M180.111 126.47L170.789 138.736C170.789 138.736 154.444 121.871 145.797 110.709L144.969 109.62L144.616 109.114L144.079 108.332C143.619 107.658 143.205 106.998 142.837 106.354C142.699 106.124 142.577 105.894 142.454 105.664C141.815 104.501 141.301 103.272 140.921 102C140.808 101.607 140.721 101.208 140.66 100.804C140.66 100.605 140.66 100.421 140.66 100.237C149.154 106.124 169.087 119.019 180.111 126.47Z" fill="#E81313"/>
<path d="M180.892 210.876C180.892 210.876 92.1626 212.409 91.6413 211.857C90.2613 210.324 108.185 118.958 126.722 100.129C133.269 93.475 146.777 96.1889 149.031 97.2775C154.229 99.792 159.12 105.22 163.213 115.278C171.401 135.394 182.011 209.435 180.892 210.876Z" fill="#E81313"/>
<path opacity="0.1" d="M153.464 100.282H126.586L126.724 100.129C127.349 99.4964 128.044 98.9358 128.794 98.4578H151.103C151.938 99.001 152.727 99.6112 153.464 100.282ZM156.423 103.349H124.056C123.627 103.916 123.213 104.529 122.799 105.173H157.834C157.389 104.529 156.929 103.962 156.53 103.349H156.423ZM159.765 108.24H120.944C120.606 108.838 120.269 109.451 119.947 110.08H160.808C160.486 109.451 160.149 108.823 159.796 108.24H159.765ZM162.265 113.146H118.398L117.524 114.971H163.077C162.832 114.342 162.571 113.729 162.295 113.162L162.265 113.146ZM164.212 118.037H116.175L115.393 119.862H164.84C164.641 119.295 164.442 118.62 164.197 118.037H164.212ZM165.745 122.928H114.151C113.921 123.542 113.676 124.14 113.431 124.768H166.282L165.745 122.928ZM167.064 127.82H112.296C112.081 128.433 111.851 129.031 111.637 129.659H167.554C167.36 129.036 167.207 128.423 167.094 127.82H167.064ZM168.26 132.726H110.533C110.318 133.324 110.119 133.937 109.919 134.55H168.674L168.26 132.726ZM169.364 137.617H108.999C108.8 138.215 108.616 138.828 108.417 139.442H169.87C169.655 138.828 169.532 138.215 169.394 137.694L169.364 137.617ZM170.406 142.508H107.466C107.267 143.106 107.083 143.719 106.899 144.348H170.897C170.697 143.735 170.575 143.121 170.437 142.508H170.406ZM171.403 147.399H105.933C105.749 148.012 105.565 148.626 105.396 149.239H171.863L171.403 147.399ZM172.353 152.306H104.492C104.308 152.919 104.139 153.517 103.97 154.13H172.721C172.614 153.517 172.507 152.903 172.384 152.306H172.353ZM173.258 157.197H103.127C102.958 157.81 102.79 158.423 102.637 159.021H173.626C173.519 158.408 173.396 157.81 173.289 157.197H173.258ZM174.132 162.088H101.824C101.655 162.701 101.502 163.314 101.349 163.928H174.485C174.393 163.314 174.285 162.701 174.163 162.088H174.132ZM175.006 166.994H100.551C100.413 167.607 100.26 168.205 100.107 168.819H175.328C175.236 168.221 175.129 167.607 175.037 166.994H175.006ZM175.803 171.885H99.34C99.202 172.498 99.0487 173.112 98.9107 173.71H176.141C176.049 173.112 175.941 172.498 175.834 171.885H175.803ZM176.6 176.776H98.1748C98.0368 177.405 97.8988 178.018 97.7454 178.616H176.922C176.83 178.003 176.738 177.405 176.631 176.776H176.6ZM177.382 181.667H97.0555C96.9175 182.281 96.7795 182.909 96.6415 183.507H177.674C177.582 182.909 177.49 182.296 177.413 181.667H177.382ZM178.103 186.574H95.9669C95.8442 187.187 95.7062 187.8 95.5836 188.398H178.379L178.103 186.574ZM178.808 191.465H94.9243C94.8016 192.093 94.6789 192.691 94.5563 193.289H179.1C179.008 192.691 178.931 192.078 178.839 191.465H178.808ZM179.483 196.356H93.9583C93.8152 196.99 93.6925 197.603 93.5903 198.196H179.759C179.682 197.598 179.529 196.984 179.529 196.356H179.483ZM180.096 201.247H93.023C92.9004 201.891 92.793 202.504 92.6857 203.087H180.357C180.296 202.504 180.219 201.891 180.127 201.247H180.096ZM180.664 206.153H92.1337C92.0264 206.813 91.9498 207.426 91.8578 207.978H180.786C180.817 207.441 180.756 206.828 180.694 206.153H180.664ZM91.5511 211.044C91.483 211.311 91.483 211.59 91.5511 211.857C91.9651 212.271 146.993 211.428 170.437 211.044H91.5511Z" fill="#030402"/>
<path d="M131.782 111.199C125.802 119.402 95.1368 153.302 94.0022 156.445C92.8676 159.589 99.9666 166.534 99.8439 167.837C99.3839 173.142 87.9306 208.438 83.3461 204.85C77.3051 200.128 51.7305 166.304 55.349 151.662C58.9675 137.019 118.688 101.862 128.163 98.8105C137.639 95.7593 137.685 103.104 131.782 111.199Z" fill="#EB9481"/>
<path d="M107.695 142.063L90.2773 117.608C90.2773 117.608 109.765 104.821 122.798 99.3625C135.83 93.9041 142.255 96.9399 130.341 113.79C123.377 123.668 115.814 133.111 107.695 142.063Z" fill="#E81313"/>
<path d="M95.4282 116.014C98.1881 119.213 100.871 122.484 103.478 125.826C104.766 127.467 106.069 129.092 107.311 130.763C108.553 132.435 109.779 134.305 111.083 136.022C111.175 136.145 110.991 136.298 110.899 136.176C109.58 134.643 108.17 133.109 106.851 131.423C105.532 129.736 104.183 128.05 102.865 126.363C100.258 123.02 97.7281 119.601 95.2902 116.136C95.1982 116.044 95.3516 115.922 95.4282 116.014Z" fill="#263238"/>
<path d="M107.663 142.186C110.331 138.644 113.474 135.486 116.357 132.128C119.239 128.77 122.107 125.305 124.851 121.809C124.851 121.809 125.05 121.809 124.989 121.901C123.716 123.726 122.475 125.566 121.141 127.344C120.481 128.218 119.791 129.077 119.086 129.936L120.113 129.092C121.164 128.302 122.254 127.565 123.379 126.884C123.379 126.884 123.502 126.884 123.379 126.976C122.403 127.879 121.38 128.729 120.313 129.522C119.546 130.104 118.779 130.641 117.967 131.177L116.74 132.711C114.064 136.165 111.083 139.373 107.832 142.294C107.74 142.432 107.571 142.294 107.663 142.186Z" fill="#263238"/>
<path d="M98.3418 218.251C102.436 215.476 96.8086 212.225 96.8086 212.225C96.8086 212.225 106.008 214.954 109.075 210.462C112.141 205.97 105.149 202.443 104.659 202.167C105.149 202.32 113.674 204.59 116.342 199.76C119.01 194.93 111.528 192.232 111.037 192.094C111.543 192.094 118.182 191.802 119.378 187.663C121.417 180.564 102.344 179.736 98.2345 175.397C98.2345 175.397 100.074 166.013 100.228 165.752C98.9941 167.858 97.0796 169.481 94.8 170.352C90.6756 171.517 86.9651 172.192 85.2939 174.17C84.5141 175.035 84.0335 176.129 83.9231 177.288C83.8126 178.448 84.0782 179.613 84.6806 180.61C84.6806 180.61 79.4675 180.012 77.2443 183.753C76.1097 185.669 78.1796 189.211 78.1796 189.211C76.9999 189.127 75.8197 189.368 74.7679 189.909C73.7161 190.45 72.8331 191.269 72.2152 192.278C70.7893 195.038 73.0892 198.15 73.0892 198.15C73.0892 198.15 68.9188 199.683 68.3821 202.995C67.3548 209.634 89.5716 224.169 98.3418 218.251Z" fill="#EB9481"/>
<path d="M73.4567 198.717C73.4567 198.717 73.288 198.717 73.3494 198.825C79.7048 205.671 87.9942 210.42 97.1147 212.44C97.4061 212.44 97.6207 212.041 97.3141 211.919C88.764 208.697 80.7276 204.25 73.4567 198.717Z" fill="#263238"/>
<path d="M78.1165 189.15C78.1065 189.142 78.0949 189.136 78.0825 189.132C78.0701 189.128 78.0572 189.127 78.0444 189.129C78.0315 189.13 78.0191 189.134 78.0079 189.14C77.9966 189.147 77.9866 189.155 77.9785 189.165C77.9705 189.175 77.9645 189.187 77.9609 189.199C77.9573 189.211 77.9562 189.224 77.9576 189.237C77.9591 189.25 77.963 189.262 77.9692 189.274C77.9754 189.285 77.9838 189.295 77.9939 189.303C85.079 196.774 94.6006 201.466 104.841 202.535C105.194 202.535 105.546 202.228 105.132 202.167C98.2635 201.124 84.8628 194.424 78.1165 189.15Z" fill="#263238"/>
<path d="M111.864 191.864C101.867 190.729 93.235 186.497 85.0014 180.885C84.8941 180.885 84.8021 180.962 84.8634 181.054C88.1446 184.903 93.7716 187.938 98.356 189.932C102.566 191.859 107.208 192.647 111.818 192.216C112.063 192.201 112.063 191.894 111.864 191.864Z" fill="#263238"/>
<path d="M72.8888 198.15C72.056 197.312 71.4719 196.259 71.2012 195.108C70.9306 193.958 70.984 192.755 71.3556 191.634C71.8358 190.577 72.6791 189.729 73.7321 189.242C74.9872 188.808 76.3294 188.687 77.6419 188.889C76.91 187.858 76.508 186.629 76.4889 185.364C76.4697 184.099 76.8343 182.859 77.5346 181.805C78.3198 180.905 79.4137 180.33 80.6011 180.196C81.9562 180.064 83.3228 180.116 84.6642 180.349C84.1054 179.691 83.7078 178.912 83.5028 178.074C83.2979 177.235 83.2913 176.361 83.4836 175.519C83.7374 174.605 84.2027 173.764 84.842 173.064C85.4813 172.363 86.2765 171.823 87.1634 171.487C89.2496 170.731 91.4153 170.217 93.6184 169.953C94.7492 169.784 95.8559 169.48 96.9149 169.049C98.0561 168.526 99.0128 167.671 99.6594 166.596C99.782 166.412 99.782 166.596 99.6594 166.764C99.23 167.495 98.6805 168.148 98.0341 168.696C97.3629 169.281 96.6149 169.771 95.8109 170.153C93.8151 170.906 91.7648 171.505 89.6779 171.947C87.8485 172.434 86.2314 173.512 85.0782 175.013C84.5511 175.808 84.2548 176.733 84.2223 177.686C84.1899 178.639 84.4224 179.582 84.8942 180.41C84.8942 180.41 84.8942 180.61 84.7562 180.594C83.532 180.589 82.3117 180.733 81.1224 181.024C80.1359 181.259 79.2467 181.795 78.5772 182.557C77.9569 183.528 77.6021 184.646 77.5483 185.797C77.4945 186.948 77.7435 188.094 78.2705 189.119C76.9483 189.208 75.6538 189.54 74.4527 190.1C73.6729 190.58 73.0455 191.271 72.6435 192.094C72.1842 193.041 71.997 194.097 72.1025 195.145C72.2081 196.193 72.6024 197.19 73.2415 198.027C73.2474 198.052 73.2474 198.079 73.2415 198.104C73.2415 198.104 71.9075 198.656 71.8462 198.656C71.7849 198.656 71.8462 198.656 71.8462 198.656C72.183 198.466 72.5312 198.297 72.8888 198.15Z" fill="#263238"/>
<path d="M148.999 110.877C144.123 112.671 134.586 106.032 130.431 100.237C130.155 99.8381 129.879 82.589 129.481 79.1852C129.389 78.4799 151.514 81.8223 151.514 81.8223C150.806 86.2321 150.642 90.7118 151.023 95.1616C151.084 95.6523 153.706 109.16 148.999 110.877Z" fill="#EB9481"/>
<path d="M151.514 81.8222C151.514 81.8222 151.268 83.2481 151.069 85.364C144.936 92.8923 135.092 93.6896 130.094 93.5209C129.925 88.1699 129.726 81.2549 129.481 79.185C129.389 78.495 151.514 81.8222 151.514 81.8222Z" fill="#263238"/>
<path d="M129.572 42.4331C129.572 42.4331 122.519 45.1623 121.078 52.2152C119.637 59.2682 121.078 66.7505 121.661 67.1338C122.243 67.5171 129.572 42.4331 129.572 42.4331Z" fill="#263238"/>
<path d="M158.061 51.5404C159.87 59.314 154.381 81.0708 148.616 85.6092C140.275 92.2022 127.334 92.0182 121.907 82.1594C116.663 72.6073 124.329 44.3955 130.692 40.3324C140.045 34.368 155.347 40.041 158.061 51.5404Z" fill="#EB9481"/>
<path d="M136.181 63.7605C136.181 63.7605 136.289 63.8525 136.273 63.9138C135.967 65.4471 135.859 67.1796 137.147 67.9156C137.147 67.9156 137.147 68.0076 137.147 67.9923C135.491 67.471 135.645 65.1251 136.181 63.7605Z" fill="#263238"/>
<path d="M137.793 62.4112C140.261 62.6412 139.602 67.5476 137.333 67.3329C135.064 67.1183 135.738 62.2119 137.793 62.4112Z" fill="#263238"/>
<path d="M127.627 62.2427C127.627 62.2427 127.505 62.2427 127.489 62.3653C127.351 63.8986 126.937 65.6005 125.496 65.9378V66.0298C127.213 65.9991 127.735 63.6993 127.627 62.2427Z" fill="#263238"/>
<path d="M126.476 60.4795C124.053 59.9888 123.24 64.8646 125.494 65.3245C127.748 65.7845 128.499 60.8934 126.476 60.4795Z" fill="#263238"/>
<path d="M128.748 69.449C128.748 69.449 128.104 71.6568 127.951 72.7301C130.035 73.0349 132.065 73.6391 133.977 74.524C134.421 74.7387 134.483 74.3554 133.977 73.9567C132.55 72.7979 130.809 72.093 128.978 71.9328C128.978 71.6262 130.036 68.5444 129.867 68.4984C129.039 68.4507 128.209 68.5178 127.399 68.6977C128.595 64.0979 130.465 59.6208 131.661 54.8984C131.661 54.7298 131.462 54.6378 131.385 54.7758C129.173 59.4585 127.427 64.3476 126.172 69.3723C125.973 70.0469 128.288 69.5716 128.748 69.449Z" fill="#263238"/>
<path d="M139.664 60.7399C139.081 60.3719 138.621 59.9273 138.13 59.5133C137.64 59.0994 136.996 58.716 136.766 57.9801C136.717 57.7585 136.745 57.5269 136.845 57.3233C136.945 57.1198 137.112 56.9567 137.318 56.8608C137.749 56.7196 138.211 56.6979 138.653 56.7977C139.096 56.8976 139.503 57.1154 139.832 57.4281C140.607 57.9481 141.155 58.7427 141.366 59.6513C141.406 59.8648 141.382 60.0855 141.296 60.285C141.209 60.4846 141.066 60.6537 140.883 60.7708C140.7 60.8879 140.486 60.9475 140.268 60.942C140.051 60.9365 139.841 60.8661 139.664 60.7399Z" fill="#263238"/>
<path d="M125.404 55.0824C126.079 54.9751 126.692 54.7911 127.351 54.6224C128.061 54.5617 128.731 54.2648 129.252 53.7792C129.389 53.5981 129.463 53.3774 129.463 53.1505C129.463 52.9236 129.389 52.7029 129.252 52.5219C128.916 52.216 128.505 52.005 128.06 51.9107C127.616 51.8164 127.154 51.8421 126.723 51.9853C125.801 52.1394 124.97 52.6314 124.392 53.3652C124.275 53.5381 124.21 53.7405 124.204 53.949C124.197 54.1575 124.25 54.3635 124.356 54.5432C124.462 54.7229 124.617 54.8689 124.802 54.9644C124.987 55.0598 125.196 55.1007 125.404 55.0824Z" fill="#263238"/>
<path d="M154.443 70.1235C149.935 69.6789 152.389 49.7926 152.389 49.7926C149.606 50.7404 146.695 51.2574 143.756 51.3259C140.787 51.2214 137.84 50.779 134.971 50.0073C134.358 49.7773 142.499 47.4774 142.499 47.4774C142.499 47.4774 122.475 49.2253 121.8 45.4535C121.555 44.1503 125.281 32.2829 141.901 33.0342C154.167 33.5862 159.886 46.4041 159.886 46.4041C159.886 46.4041 165.85 53.0431 164.823 56.0483C163.075 61.3227 159.227 70.5988 154.443 70.1235Z" fill="#263238"/>
<path d="M151.716 70.2308C151.716 70.2308 157.312 63.5458 160.394 65.6311C163.476 67.7163 158.861 77.6671 154.905 78.7557C154.412 78.927 153.89 78.9971 153.369 78.9618C152.849 78.9265 152.341 78.7866 151.875 78.5504C151.41 78.3142 150.997 77.9866 150.662 77.5872C150.326 77.1878 150.074 76.7248 149.922 76.2258L151.716 70.2308Z" fill="#EB9481"/>
<path d="M226.4 161.551C238.85 151.938 226.952 103.135 219.715 85.1648C217.583 79.8751 183.775 89.7646 185.354 95.6983C194.385 129.261 212.769 172.085 226.4 161.551Z" fill="#EB9481"/>
<path d="M190.949 114.112L194.675 123.312C195.948 126.378 197.19 129.445 198.569 132.511C199.949 135.578 201.283 138.537 202.694 141.527C204.105 144.517 205.668 147.445 207.202 150.389C205.262 147.687 203.495 144.866 201.912 141.941C200.379 139.012 198.845 136.007 197.512 132.971C196.178 129.935 194.951 126.838 193.847 123.68C192.743 120.521 191.793 117.347 190.949 114.112Z" fill="#263238"/>
</g>
<path d="M256.009 209.272C254.352 215.774 250.798 221.64 245.796 226.128C240.795 230.616 234.57 233.526 227.91 234.488C221.25 235.45 214.453 234.422 208.378 231.534C202.304 228.646 197.226 224.028 193.784 218.262C190.343 212.497 188.695 205.845 189.047 199.146C189.398 192.447 191.735 186.002 195.762 180.627C199.788 175.251 205.323 171.187 211.666 168.947C218.01 166.707 224.878 166.392 231.401 168.043C240.147 170.26 247.653 175.848 252.267 183.58C256.882 191.311 258.228 200.552 256.009 209.272Z" fill="#E81313"/>
<path d="M212.042 188.333L211.416 189.541L234.416 214.041L234.416 210.708L212.042 188.333Z" fill="white"/>
<path d="M233.209 189.205L232.375 188L213.709 210.705L213.326 213.7L233.209 189.205Z" fill="white"/>
</svg>
