<svg width="263" height="305" viewBox="0 0 263 305" fill="none" xmlns="http://www.w3.org/2000/svg">
<path d="M53.8647 190.639C60.197 212.563 75.221 235.248 95.6315 253.704C116.042 272.16 140.167 284.875 162.7 289.051V289.051C185.232 293.227 204.327 288.523 215.782 275.973C227.237 263.423 230.115 244.056 223.783 222.131C210.52 176.21 176.308 135.096 182.854 105.88C182.854 105.88 158.907 105.789 155.36 139.904C155.36 139.904 94.8997 85.2304 96.0495 24.5938C96.0495 24.5938 53.3149 34.0597 75.5844 94.6939C94.6739 146.683 87.8021 153.465 87.8021 153.465C75.8641 112.132 37.3501 87.6076 37.3501 87.6076C61.5482 139.904 41.9267 149.306 53.8647 190.639Z" fill="#FFB446"/>
<path d="M19.0866 51.1226L9.16937 54.6228L18.5033 70.3737L23.7536 77.9575L27.8372 67.4569L19.0866 51.1226Z" fill="#FFB446"/>
<path d="M54.6735 12.0366L41.8394 17.2869L41.2561 17.8703L36.0057 33.0379H38.9226L47.6731 24.2874L54.6735 12.62V12.0366Z" fill="#FFB446"/>
<path d="M69.0563 184.942C75.3886 206.866 90.4126 229.551 110.823 248.007C131.234 266.463 155.359 279.178 177.891 283.354C200.424 287.53 219.518 282.826 230.974 270.276C242.429 257.726 245.307 238.359 238.975 216.434C225.711 170.513 191.5 129.399 198.046 100.183C198.046 100.183 174.098 100.092 170.552 134.207C170.552 134.207 109.8 78.9723 110.95 18.3357C110.95 18.3357 68.5066 28.3627 90.7761 88.9969C109.866 140.986 102.994 147.768 102.994 147.768C91.0558 106.435 52.5418 81.9106 52.5418 81.9106C76.7399 134.207 57.1183 143.609 69.0563 184.942Z" fill="#FEDEAF"/>
<mask id="mask0_86_303" style="mask-type:alpha" maskUnits="userSpaceOnUse" x="52" y="18" width="191" height="267">
<path d="M69.057 184.942C75.3893 206.866 90.4133 229.551 110.824 248.007C131.234 266.463 155.36 279.178 177.892 283.354C200.425 287.53 219.519 282.826 230.974 270.276C242.43 257.726 245.308 238.359 238.975 216.434C225.712 170.513 191.501 129.399 198.046 100.183C198.046 100.183 174.099 100.092 170.552 134.207C170.552 134.207 109.801 78.9723 110.951 18.3357C110.951 18.3357 68.5073 28.3627 90.7768 88.997C109.866 140.986 102.994 147.768 102.994 147.768C91.0565 106.435 52.5425 81.9106 52.5425 81.9106C76.7405 134.207 57.119 143.609 69.057 184.942Z" fill="#FFE0B3"/>
</mask>
<g mask="url(#mask0_86_303)">
<g opacity="0.2">
<path d="M280.569 -87.3013L133.687 271.052" stroke="#D17D02" stroke-width="0.2"/>
<path d="M278.08 -87.3999L131.198 270.953" stroke="#D17D02" stroke-width="0.2"/>
<path d="M275.597 -87.498L128.715 270.855" stroke="#D17D02" stroke-width="0.2"/>
<path d="M273.109 -87.5972L126.227 270.756" stroke="#D17D02" stroke-width="0.2"/>
<path d="M270.624 -87.6953L123.742 270.658" stroke="#D17D02" stroke-width="0.2"/>
<path d="M268.139 -87.7935L121.257 270.559" stroke="#D17D02" stroke-width="0.2"/>
<path d="M265.658 -87.8921L118.776 270.461" stroke="#D17D02" stroke-width="0.2"/>
<path d="M263.17 -87.9912L116.288 270.362" stroke="#D17D02" stroke-width="0.2"/>
<path d="M260.687 -88.0889L113.805 270.264" stroke="#D17D02" stroke-width="0.2"/>
<path d="M258.2 -88.187L111.318 270.166" stroke="#D17D02" stroke-width="0.2"/>
<path d="M255.714 -88.2861L108.832 270.067" stroke="#D17D02" stroke-width="0.2"/>
<path d="M253.231 -88.3848L106.349 269.968" stroke="#D17D02" stroke-width="0.2"/>
<path d="M250.744 -88.4829L103.862 269.87" stroke="#D17D02" stroke-width="0.2"/>
<path d="M248.261 -88.5811L101.379 269.772" stroke="#D17D02" stroke-width="0.2"/>
<path d="M245.773 -88.6797L98.8908 269.673" stroke="#D17D02" stroke-width="0.2"/>
<path d="M243.292 -88.7783L96.4099 269.575" stroke="#D17D02" stroke-width="0.2"/>
<path d="M240.803 -88.877L93.9214 269.476" stroke="#D17D02" stroke-width="0.2"/>
<path d="M238.317 -88.9751L91.4347 269.378" stroke="#D17D02" stroke-width="0.2"/>
<path d="M235.834 -89.0737L88.9519 269.279" stroke="#D17D02" stroke-width="0.2"/>
<path d="M233.347 -89.1729L86.4652 269.18" stroke="#D17D02" stroke-width="0.2"/>
<path d="M230.862 -89.2705L83.9804 269.082" stroke="#D17D02" stroke-width="0.2"/>
<path d="M228.378 -89.3687L81.4957 268.984" stroke="#D17D02" stroke-width="0.2"/>
<path d="M225.889 -89.4678L79.0071 268.885" stroke="#D17D02" stroke-width="0.2"/>
<path d="M223.408 -89.5664L76.5262 268.786" stroke="#D17D02" stroke-width="0.2"/>
<path d="M220.92 -89.6646L74.0376 268.688" stroke="#D17D02" stroke-width="0.2"/>
<path d="M218.437 -89.7632L71.5548 268.59" stroke="#D17D02" stroke-width="0.2"/>
<path d="M215.952 -89.8618L69.07 268.491" stroke="#D17D02" stroke-width="0.2"/>
<path d="M213.467 -89.96L66.5853 268.393" stroke="#D17D02" stroke-width="0.2"/>
<path d="M210.981 -90.0581L64.0986 268.295" stroke="#D17D02" stroke-width="0.2"/>
<path d="M208.498 -90.1567L61.6158 268.196" stroke="#D17D02" stroke-width="0.2"/>
<path d="M206.011 -90.2554L59.1291 268.097" stroke="#D17D02" stroke-width="0.2"/>
<path d="M203.526 -90.354L56.6444 267.999" stroke="#D17D02" stroke-width="0.2"/>
<path d="M201.042 -90.4526L54.1596 267.9" stroke="#D17D02" stroke-width="0.2"/>
<path d="M198.553 -90.5513L51.671 267.802" stroke="#D17D02" stroke-width="0.2"/>
<path d="M196.07 -90.6489L49.1882 267.704" stroke="#D17D02" stroke-width="0.2"/>
<path d="M193.583 -90.748L46.7015 267.605" stroke="#D17D02" stroke-width="0.2"/>
<path d="M191.101 -90.8462L44.2187 267.507" stroke="#D17D02" stroke-width="0.2"/>
<path d="M188.62 -90.9443L41.7378 267.409" stroke="#D17D02" stroke-width="0.2"/>
<path d="M186.131 -91.043L39.2492 267.31" stroke="#D17D02" stroke-width="0.2"/>
<path d="M183.643 -91.1416L36.7606 267.211" stroke="#D17D02" stroke-width="0.2"/>
<path d="M181.156 -91.2402L34.2739 267.113" stroke="#D17D02" stroke-width="0.2"/>
<path d="M178.675 -91.3379L31.7931 267.015" stroke="#D17D02" stroke-width="0.2"/>
<path d="M176.186 -91.437L29.3044 266.916" stroke="#D17D02" stroke-width="0.2"/>
<path d="M173.706 -91.5352L26.8236 266.818" stroke="#D17D02" stroke-width="0.2"/>
<path d="M171.217 -91.6338L24.3349 266.719" stroke="#D17D02" stroke-width="0.2"/>
<path d="M168.73 -91.7324L21.8482 266.62" stroke="#D17D02" stroke-width="0.2"/>
<path d="M166.247 -91.8311L19.3655 266.522" stroke="#D17D02" stroke-width="0.2"/>
<path d="M163.765 -91.9297L16.8827 266.423" stroke="#D17D02" stroke-width="0.2"/>
<path d="M161.276 -92.0278L14.394 266.325" stroke="#D17D02" stroke-width="0.2"/>
<path d="M158.795 -92.126L11.9132 266.227" stroke="#D17D02" stroke-width="0.2"/>
<path d="M156.307 -92.2246L9.42454 266.128" stroke="#D17D02" stroke-width="0.2"/>
<path d="M153.82 -92.3237L6.93784 266.029" stroke="#D17D02" stroke-width="0.2"/>
<path d="M151.337 -92.4219L4.45505 265.931" stroke="#D17D02" stroke-width="0.2"/>
<path d="M148.85 -92.5205L1.96836 265.832" stroke="#D17D02" stroke-width="0.2"/>
<path d="M146.368 -92.6187L-0.514429 265.734" stroke="#D17D02" stroke-width="0.2"/>
<path d="M143.881 -92.7168L-3.00112 265.636" stroke="#D17D02" stroke-width="0.2"/>
<path d="M141.394 -92.8154L-5.48782 265.537" stroke="#D17D02" stroke-width="0.2"/>
<path d="M138.909 -92.9136L-7.97256 265.439" stroke="#D17D02" stroke-width="0.2"/>
<path d="M136.425 -93.0127L-10.4573 265.34" stroke="#D17D02" stroke-width="0.2"/>
<path d="M133.94 -93.1108L-12.942 265.242" stroke="#D17D02" stroke-width="0.2"/>
<path d="M131.459 -93.2095L-15.4229 265.143" stroke="#D17D02" stroke-width="0.2"/>
<path d="M128.97 -93.3076L-17.9115 265.045" stroke="#D17D02" stroke-width="0.2"/>
<path d="M126.484 -93.4062L-20.3982 264.947" stroke="#D17D02" stroke-width="0.2"/>
<path d="M124.001 -93.5049L-22.881 264.848" stroke="#D17D02" stroke-width="0.2"/>
<path d="M121.514 -93.6035L-25.3677 264.749" stroke="#D17D02" stroke-width="0.2"/>
<path d="M119.026 -93.7017L-27.8563 264.651" stroke="#D17D02" stroke-width="0.2"/>
<path d="M116.545 -93.8003L-30.3372 264.553" stroke="#D17D02" stroke-width="0.2"/>
<path d="M114.056 -93.8984L-32.8258 264.454" stroke="#D17D02" stroke-width="0.2"/>
<path d="M111.573 -93.9971L-35.3086 264.356" stroke="#D17D02" stroke-width="0.2"/>
<path d="M109.093 -94.0952L-37.7895 264.258" stroke="#D17D02" stroke-width="0.2"/>
<path d="M106.604 -94.1938L-40.2781 264.159" stroke="#D17D02" stroke-width="0.2"/>
<path d="M104.117 -94.2925L-42.7648 264.06" stroke="#D17D02" stroke-width="0.2"/>
<path d="M101.634 -94.3911L-45.2476 263.962" stroke="#D17D02" stroke-width="0.2"/>
<path d="M99.1477 -94.4888L-47.7343 263.864" stroke="#D17D02" stroke-width="0.2"/>
<path d="M96.6592 -94.5884L-50.2228 263.764" stroke="#D17D02" stroke-width="0.2"/>
<path d="M94.1782 -94.686L-52.7038 263.667" stroke="#D17D02" stroke-width="0.2"/>
<path d="M91.6896 -94.7847L-55.1924 263.568" stroke="#D17D02" stroke-width="0.2"/>
<path d="M89.2068 -94.8833L-57.6752 263.47" stroke="#D17D02" stroke-width="0.2"/>
<path d="M86.7201 -94.9819L-60.1619 263.371" stroke="#D17D02" stroke-width="0.2"/>
<path d="M84.2373 -95.0801L-62.6447 263.273" stroke="#D17D02" stroke-width="0.2"/>
<path d="M81.7565 -95.1782L-65.1255 263.175" stroke="#D17D02" stroke-width="0.2"/>
<path d="M79.2678 -95.2769L-67.6142 263.076" stroke="#D17D02" stroke-width="0.2"/>
<path d="M76.7811 -95.3755L-70.1009 262.977" stroke="#D17D02" stroke-width="0.2"/>
<path d="M74.2983 -95.4736L-72.5836 262.879" stroke="#D17D02" stroke-width="0.2"/>
<path d="M71.8116 -95.5723L-75.0703 262.781" stroke="#D17D02" stroke-width="0.2"/>
<path d="M69.3231 -95.6709L-77.5589 262.682" stroke="#D17D02" stroke-width="0.2"/>
<path d="M66.8422 -95.769L-80.0398 262.584" stroke="#D17D02" stroke-width="0.2"/>
<path d="M64.3536 -95.8682L-82.5284 262.485" stroke="#D17D02" stroke-width="0.2"/>
<path d="M61.8707 -95.9663L-85.0113 262.387" stroke="#D17D02" stroke-width="0.2"/>
<path d="M59.3841 -96.0645L-87.4979 262.288" stroke="#D17D02" stroke-width="0.2"/>
<path d="M56.9012 -96.1636L-89.9807 262.189" stroke="#D17D02" stroke-width="0.2"/>
<path d="M54.4127 -96.2617L-92.4693 262.091" stroke="#D17D02" stroke-width="0.2"/>
</g>
<g opacity="0.2">
<path d="M386.978 188.829L-140.039 259.901" stroke="#D17D02" stroke-width="0.2"/>
<path d="M385.821 186.627L-141.196 257.699" stroke="#D17D02" stroke-width="0.2"/>
<path d="M384.661 184.426L-142.356 255.498" stroke="#D17D02" stroke-width="0.2"/>
<path d="M383.508 182.224L-143.509 253.296" stroke="#D17D02" stroke-width="0.2"/>
<path d="M382.35 180.023L-144.667 251.094" stroke="#D17D02" stroke-width="0.2"/>
<path d="M381.191 177.822L-145.826 248.893" stroke="#D17D02" stroke-width="0.2"/>
<path d="M380.037 175.62L-146.98 246.692" stroke="#D17D02" stroke-width="0.2"/>
<path d="M378.874 173.418L-148.143 244.489" stroke="#D17D02" stroke-width="0.2"/>
<path d="M377.716 171.217L-149.3 242.289" stroke="#D17D02" stroke-width="0.2"/>
<path d="M376.559 169.016L-150.458 240.087" stroke="#D17D02" stroke-width="0.2"/>
<path d="M375.403 166.814L-151.614 237.886" stroke="#D17D02" stroke-width="0.2"/>
<path d="M374.246 164.613L-152.771 235.684" stroke="#D17D02" stroke-width="0.2"/>
<path d="M373.088 162.411L-153.929 233.483" stroke="#D17D02" stroke-width="0.2"/>
<path d="M371.933 160.21L-155.084 231.281" stroke="#D17D02" stroke-width="0.2"/>
<path d="M370.775 158.008L-156.242 229.079" stroke="#D17D02" stroke-width="0.2"/>
<path d="M369.618 155.807L-157.399 226.878" stroke="#D17D02" stroke-width="0.2"/>
<path d="M368.462 153.605L-158.555 224.676" stroke="#D17D02" stroke-width="0.2"/>
<path d="M367.301 151.403L-159.716 222.475" stroke="#D17D02" stroke-width="0.2"/>
<path d="M366.141 149.202L-160.875 220.274" stroke="#D17D02" stroke-width="0.2"/>
<path d="M364.992 147.001L-162.025 218.072" stroke="#D17D02" stroke-width="0.2"/>
<path d="M363.83 144.799L-163.187 215.87" stroke="#D17D02" stroke-width="0.2"/>
<path d="M362.671 142.598L-164.346 213.67" stroke="#D17D02" stroke-width="0.2"/>
<path d="M361.521 140.397L-165.496 211.468" stroke="#D17D02" stroke-width="0.2"/>
<path d="M360.36 138.195L-166.657 209.267" stroke="#D17D02" stroke-width="0.2"/>
<path d="M359.2 135.994L-167.816 207.065" stroke="#D17D02" stroke-width="0.2"/>
<path d="M358.043 133.792L-168.974 204.864" stroke="#D17D02" stroke-width="0.2"/>
<path d="M356.889 131.59L-170.128 202.662" stroke="#D17D02" stroke-width="0.2"/>
<path d="M355.73 129.389L-171.287 200.461" stroke="#D17D02" stroke-width="0.2"/>
<path d="M354.572 127.188L-172.445 198.259" stroke="#D17D02" stroke-width="0.2"/>
<path d="M353.419 124.986L-173.598 196.058" stroke="#D17D02" stroke-width="0.2"/>
<path d="M352.255 122.785L-174.761 193.856" stroke="#D17D02" stroke-width="0.2"/>
<path d="M351.098 120.583L-175.919 191.654" stroke="#D17D02" stroke-width="0.2"/>
<path d="M349.944 118.382L-177.073 189.453" stroke="#D17D02" stroke-width="0.2"/>
<path d="M348.785 116.181L-178.232 187.252" stroke="#D17D02" stroke-width="0.2"/>
<path d="M347.627 113.979L-179.389 185.05" stroke="#D17D02" stroke-width="0.2"/>
<path d="M346.472 111.777L-180.545 182.849" stroke="#D17D02" stroke-width="0.2"/>
<path d="M345.314 109.576L-181.703 180.648" stroke="#D17D02" stroke-width="0.2"/>
<path d="M344.157 107.374L-182.86 178.445" stroke="#D17D02" stroke-width="0.2"/>
<path d="M343.001 105.173L-184.016 176.244" stroke="#D17D02" stroke-width="0.2"/>
<path d="M341.84 102.972L-185.177 174.043" stroke="#D17D02" stroke-width="0.2"/>
<path d="M340.682 100.771L-186.334 171.842" stroke="#D17D02" stroke-width="0.2"/>
<path d="M339.523 98.5684L-187.494 169.64" stroke="#D17D02" stroke-width="0.2"/>
<path d="M338.369 96.3672L-188.648 167.439" stroke="#D17D02" stroke-width="0.2"/>
<path d="M337.212 94.1655L-189.805 165.237" stroke="#D17D02" stroke-width="0.2"/>
<path d="M336.052 91.9639L-190.964 163.035" stroke="#D17D02" stroke-width="0.2"/>
<path d="M334.899 89.7632L-192.118 160.835" stroke="#D17D02" stroke-width="0.2"/>
<path d="M333.741 87.562L-193.275 158.633" stroke="#D17D02" stroke-width="0.2"/>
<path d="M332.582 85.3599L-194.435 156.431" stroke="#D17D02" stroke-width="0.2"/>
<path d="M331.426 83.1582L-195.591 154.23" stroke="#D17D02" stroke-width="0.2"/>
<path d="M330.267 80.9565L-196.75 152.028" stroke="#D17D02" stroke-width="0.2"/>
<path d="M329.111 78.7554L-197.905 149.827" stroke="#D17D02" stroke-width="0.2"/>
<path d="M327.95 76.5542L-199.067 147.626" stroke="#D17D02" stroke-width="0.2"/>
<path d="M326.797 74.353L-200.22 145.424" stroke="#D17D02" stroke-width="0.2"/>
<path d="M325.637 72.1509L-201.38 143.222" stroke="#D17D02" stroke-width="0.2"/>
<path d="M324.48 69.9492L-202.537 141.021" stroke="#D17D02" stroke-width="0.2"/>
<path d="M323.326 67.748L-203.691 138.819" stroke="#D17D02" stroke-width="0.2"/>
<path d="M322.167 65.5469L-204.85 136.618" stroke="#D17D02" stroke-width="0.2"/>
<path d="M321.009 63.3447L-206.008 134.416" stroke="#D17D02" stroke-width="0.2"/>
<path d="M319.855 61.1436L-207.162 132.215" stroke="#D17D02" stroke-width="0.2"/>
<path d="M318.696 58.9419L-208.321 130.013" stroke="#D17D02" stroke-width="0.2"/>
<path d="M317.538 56.7407L-209.478 127.812" stroke="#D17D02" stroke-width="0.2"/>
<path d="M316.375 54.5391L-210.642 125.61" stroke="#D17D02" stroke-width="0.2"/>
<path d="M315.225 52.3379L-211.791 123.409" stroke="#D17D02" stroke-width="0.2"/>
<path d="M314.068 50.1362L-212.949 121.208" stroke="#D17D02" stroke-width="0.2"/>
<path d="M312.905 47.9346L-214.112 119.006" stroke="#D17D02" stroke-width="0.2"/>
<path d="M311.751 45.7334L-215.266 116.805" stroke="#D17D02" stroke-width="0.2"/>
<path d="M310.594 43.5312L-216.423 114.603" stroke="#D17D02" stroke-width="0.2"/>
<path d="M309.434 41.3301L-217.583 112.401" stroke="#D17D02" stroke-width="0.2"/>
<path d="M308.281 39.1294L-218.736 110.201" stroke="#D17D02" stroke-width="0.2"/>
<path d="M307.123 36.9282L-219.894 108" stroke="#D17D02" stroke-width="0.2"/>
<path d="M305.964 34.7261L-221.053 105.797" stroke="#D17D02" stroke-width="0.2"/>
<path d="M304.81 32.5244L-222.207 103.596" stroke="#D17D02" stroke-width="0.2"/>
<path d="M303.652 30.3232L-223.364 101.395" stroke="#D17D02" stroke-width="0.2"/>
<path d="M302.493 28.1221L-224.524 99.1935" stroke="#D17D02" stroke-width="0.2"/>
<path d="M301.332 25.9199L-225.685 96.9913" stroke="#D17D02" stroke-width="0.2"/>
<path d="M300.182 23.7188L-226.835 94.7902" stroke="#D17D02" stroke-width="0.2"/>
<path d="M299.019 21.5171L-227.998 92.5885" stroke="#D17D02" stroke-width="0.2"/>
<path d="M297.861 19.3159L-229.156 90.3873" stroke="#D17D02" stroke-width="0.2"/>
<path d="M296.706 17.1143L-230.311 88.1857" stroke="#D17D02" stroke-width="0.2"/>
<path d="M295.548 14.9126L-231.469 85.984" stroke="#D17D02" stroke-width="0.2"/>
<path d="M294.391 12.7109L-232.626 83.7824" stroke="#D17D02" stroke-width="0.2"/>
<path d="M293.235 10.5098L-233.782 81.5812" stroke="#D17D02" stroke-width="0.2"/>
<path d="M292.078 8.30811L-234.939 79.3795" stroke="#D17D02" stroke-width="0.2"/>
<path d="M290.916 6.10645L-236.101 77.1779" stroke="#D17D02" stroke-width="0.2"/>
<path d="M289.765 3.90527L-237.252 74.9767" stroke="#D17D02" stroke-width="0.2"/>
<path d="M288.607 1.7041L-238.41 72.7755" stroke="#D17D02" stroke-width="0.2"/>
<path d="M287.446 -0.497559L-239.571 70.5739" stroke="#D17D02" stroke-width="0.2"/>
<path d="M286.286 -2.69922L-240.731 68.3722" stroke="#D17D02" stroke-width="0.2"/>
<path d="M285.133 -4.90039L-241.884 66.171" stroke="#D17D02" stroke-width="0.2"/>
<path d="M283.975 -7.10205L-243.042 63.9694" stroke="#D17D02" stroke-width="0.2"/>
<path d="M282.816 -9.30371L-244.201 61.7677" stroke="#D17D02" stroke-width="0.2"/>
<path d="M281.662 -11.5049L-245.355 59.5665" stroke="#D17D02" stroke-width="0.2"/>
<path d="M280.505 -13.7061L-246.512 57.3654" stroke="#D17D02" stroke-width="0.2"/>
<path d="M279.345 -15.9077L-247.672 55.1637" stroke="#D17D02" stroke-width="0.2"/>
<path d="M278.192 -18.1089L-248.825 52.9625" stroke="#D17D02" stroke-width="0.2"/>
<path d="M277.028 -20.3105L-249.989 50.7609" stroke="#D17D02" stroke-width="0.2"/>
<path d="M275.875 -22.5117L-251.142 48.5597" stroke="#D17D02" stroke-width="0.2"/>
<path d="M274.721 -24.7134L-252.296 46.358" stroke="#D17D02" stroke-width="0.2"/>
<path d="M273.563 -26.915L-253.453 44.1564" stroke="#D17D02" stroke-width="0.2"/>
<path d="M272.4 -29.1167L-254.617 41.9547" stroke="#D17D02" stroke-width="0.2"/>
<path d="M271.243 -31.3184L-255.774 39.7531" stroke="#D17D02" stroke-width="0.2"/>
<path d="M270.087 -33.5195L-256.93 37.5519" stroke="#D17D02" stroke-width="0.2"/>
<path d="M268.93 -35.7207L-258.087 35.3507" stroke="#D17D02" stroke-width="0.2"/>
<path d="M267.772 -37.9229L-259.245 33.1486" stroke="#D17D02" stroke-width="0.2"/>
<path d="M266.617 -40.124L-260.4 30.9474" stroke="#D17D02" stroke-width="0.2"/>
<path d="M265.455 -42.3257L-261.562 28.7457" stroke="#D17D02" stroke-width="0.2"/>
<path d="M264.302 -44.5273L-262.715 26.5441" stroke="#D17D02" stroke-width="0.2"/>
<path d="M263.146 -46.7285L-263.871 24.3429" stroke="#D17D02" stroke-width="0.2"/>
<path d="M261.985 -48.9297L-265.032 22.1417" stroke="#D17D02" stroke-width="0.2"/>
<path d="M260.825 -51.1313L-266.192 19.9401" stroke="#D17D02" stroke-width="0.2"/>
</g>
</g>
</svg>
