<svg width="277" height="301" viewBox="0 0 277 301" fill="none" xmlns="http://www.w3.org/2000/svg">
<rect x="185.367" y="75.1434" width="128.651" height="190.758" rx="12.5038" transform="rotate(45 185.367 75.1434)" fill="url(#paint0_linear_503_13444)"/>
<path fill-rule="evenodd" clip-rule="evenodd" d="M156.074 165.956C157.419 167.89 158.039 170.011 157.958 172.403C157.777 177.77 153.41 182.138 148.043 182.319C142.868 182.494 138.431 179.068 137.263 173.998C136.792 171.956 137.048 169.298 137.883 167.538C138.051 167.185 138.223 166.896 138.266 166.896C138.309 166.896 138.695 167.733 139.122 168.756C139.836 170.461 139.883 170.668 139.691 171.258C139.409 172.126 139.398 172.561 139.64 173.297C139.866 173.986 140.608 174.811 141.273 175.114C142.165 175.52 143.836 175.278 144.477 174.65C144.804 174.329 148.909 175.037 149.369 175.493C149.862 175.984 151.231 176.407 152.179 176.362C154.781 176.24 156.508 173.622 155.625 171.139C155.251 170.089 154.179 168.998 153.218 168.689C151.878 168.258 150.186 168.516 149.424 169.267C149.186 169.501 148.44 169.716 146.895 169.994C145.097 170.317 144.653 170.339 144.428 170.113C144.276 169.962 143.891 169.73 143.572 169.597C142.993 169.357 142.99 169.353 141.815 166.571L140.638 163.784L141.087 163.461C144.786 160.798 149.549 160.688 153.28 163.177C154.418 163.937 155.232 164.747 156.074 165.956ZM154.344 171.706C154.606 172.542 154.352 173.696 153.782 174.266C153.279 174.769 152.051 175.114 151.302 174.963C150.759 174.853 150.55 174.715 150.021 174.117C148.985 172.946 149.005 171.65 150.075 170.58C151.484 169.171 153.738 169.766 154.344 171.706ZM152.353 170.501C150.552 170.123 149.229 171.922 150.196 173.434C151.409 175.331 154.329 174.135 153.792 171.961C153.614 171.241 153.023 170.641 152.353 170.501ZM164.722 183.576C164.96 183.943 165.18 184.398 165.21 184.587C165.259 184.89 165.208 184.953 164.771 185.133C164.119 185.4 164.044 185.368 163.769 184.706C163.485 184.021 162.681 183.188 162.257 183.14C161.269 183.029 161.162 183.746 161.93 185.322C162.297 186.077 162.539 186.829 162.554 187.268C162.575 187.893 162.508 188.054 162.028 188.535C161.374 189.189 160.547 189.403 159.62 189.158C158.635 188.897 156.901 186.997 156.664 185.917C156.622 185.724 156.732 185.628 157.245 185.41L157.878 185.141L158.171 185.749C158.333 186.084 158.743 186.636 159.083 186.976C159.776 187.669 160.31 187.8 160.731 187.38C161.006 187.105 160.849 186.407 160.26 185.286C159.552 183.938 159.583 182.955 160.358 182.179C161.586 180.951 163.392 181.529 164.722 183.576ZM170.825 190.66L170.329 191.156L169.493 190.32L168.657 189.485L166.394 191.748L164.13 194.011L163.573 193.454L163.016 192.896L165.274 190.638L167.533 188.379L166.701 187.483L165.87 186.587L166.305 186.084L166.74 185.58L169.031 187.872L171.322 190.163L170.825 190.66ZM175.952 195.787L175.455 196.283L174.174 195.002L172.892 193.72L172.285 194.327L171.678 194.934L172.792 196.049L173.907 197.163L173.41 197.66L172.913 198.157L171.799 197.042L170.684 195.928L170.022 196.59L169.359 197.253L170.641 198.534L171.923 199.816L171.426 200.313L170.929 200.81L169.09 198.971L167.251 197.132L170.011 194.372L172.771 191.612L174.61 193.451L176.449 195.29L175.952 195.787ZM179.224 203.363C178.361 205.354 177.596 207.049 177.524 207.129C177.435 207.228 177.205 207.085 176.8 206.681L176.207 206.087L176.567 205.399L176.927 204.71L175.832 203.552L174.736 202.394L173.994 202.763L173.252 203.132L172.651 202.531L172.049 201.93L173.226 201.395C176.774 199.781 179.421 198.598 179.557 198.567C179.642 198.547 179.955 198.804 180.252 199.137L180.793 199.744L179.224 203.363ZM184.288 207.093C183.711 208.697 183.307 210.007 183.391 210.005C183.474 210.003 184.789 209.534 186.313 208.962L189.083 207.924L189.62 208.461L190.158 208.999L187.398 211.759L184.638 214.519L184.14 214.02L183.641 213.521L185.294 211.807L186.946 210.093L184.516 210.919C182.31 211.669 182.058 211.718 181.795 211.455C181.531 211.191 181.579 210.948 182.312 208.826L183.12 206.487L181.483 208.107L179.846 209.726L179.288 209.169L178.731 208.612L181.491 205.852L184.251 203.092L184.794 203.635L185.337 204.178L184.288 207.093ZM177.51 201.043C176.832 201.366 176.192 201.671 176.089 201.719C175.95 201.785 176.111 202.017 176.706 202.612C177.301 203.207 177.533 203.367 177.598 203.229C177.647 203.126 177.951 202.486 178.275 201.808C178.598 201.129 178.836 200.547 178.803 200.514C178.771 200.482 178.189 200.719 177.51 201.043ZM144.521 171.697C145.064 173.349 143.726 174.826 142.005 174.475C141.169 174.305 140.479 173.616 140.316 172.791C140.116 171.772 140.334 171.688 140.745 172.627C141.208 173.682 141.902 174.122 142.776 173.914C143.95 173.635 144.346 172.688 143.835 171.381C143.648 170.902 143.52 170.485 143.551 170.454C143.685 170.32 144.348 171.17 144.521 171.697Z" fill="white"/>
<rect x="111.789" y="21.259" width="128.651" height="190.758" rx="16.6717" transform="rotate(25 111.789 21.259)" fill="url(#paint1_linear_503_13444)"/>
<path fill-rule="evenodd" clip-rule="evenodd" d="M109.036 114.94C108.279 114.654 107.551 114.51 106.934 114.524C106.507 114.533 106.242 114.577 105.879 114.696C105.363 114.866 104.94 115.133 104.561 115.528C104.149 115.958 104.079 116.14 104.244 116.351C104.286 116.405 105.747 117.303 105.937 117.392C106.119 117.477 106.253 117.413 106.53 117.112C106.968 116.634 107.613 116.541 108.292 116.856C108.939 117.158 109.21 117.657 109.057 118.27C109.005 118.477 108.619 119.335 108.585 119.319C108.518 119.288 107.365 118.893 107.061 118.797C105.579 118.329 104.588 118.266 103.689 118.579C102.848 118.873 102.22 119.463 101.808 120.347C101.418 121.182 101.351 121.934 101.602 122.645C101.807 123.225 102.185 123.681 102.783 124.067C103.015 124.218 103.768 124.544 104.072 124.626C104.804 124.823 105.409 124.793 106.325 124.514L106.694 124.401L106.727 124.608C106.805 125.101 106.939 125.55 107.117 125.911C107.229 126.138 107.395 126.218 107.637 126.162C107.783 126.128 109.308 125.711 109.497 125.653C109.752 125.575 109.782 125.449 109.676 124.909C109.58 124.42 109.569 124.097 109.639 123.798C109.688 123.587 109.743 123.463 110.562 121.704C111.041 120.676 111.497 119.672 111.576 119.472C111.938 118.551 111.968 117.926 111.685 117.226C111.429 116.592 110.904 116.013 110.119 115.497C109.905 115.356 109.262 115.026 109.036 114.94ZM132.063 125.691C130.353 125.067 128.892 125.237 127.874 126.178C127.626 126.408 127.358 126.736 127.331 126.844C127.303 126.952 127.335 127.074 127.41 127.156C127.467 127.217 128.92 128.109 129.099 128.193C129.266 128.27 129.445 128.202 129.602 128.001C129.757 127.801 129.975 127.646 130.226 127.559C130.625 127.421 130.996 127.448 131.435 127.648C131.71 127.773 131.845 127.871 132.006 128.061C132.157 128.239 132.242 128.449 132.255 128.678C132.27 128.955 132.224 129.127 131.991 129.667C131.812 130.083 131.784 130.136 131.753 130.122C131.697 130.096 130.627 129.727 130.322 129.629C129.034 129.214 128.095 129.093 127.337 129.246C127.016 129.311 126.547 129.485 126.294 129.634C125.918 129.855 125.591 130.159 125.298 130.559C125.116 130.807 124.803 131.479 124.722 131.794C124.48 132.74 124.651 133.569 125.231 134.255C125.534 134.613 125.88 134.862 126.432 135.12C127.542 135.637 128.381 135.682 129.574 135.286L129.852 135.194L129.889 135.419C129.955 135.821 130.038 136.121 130.18 136.474C130.402 137.025 130.478 137.059 131.097 136.884C131.315 136.822 131.76 136.701 132.083 136.614C132.407 136.528 132.709 136.437 132.754 136.412C132.916 136.325 132.935 136.178 132.841 135.737C132.801 135.548 132.766 135.27 132.762 135.104C132.748 134.577 132.67 134.787 133.823 132.272C134.717 130.321 134.846 130.028 134.905 129.814C135.094 129.127 135.079 128.632 134.854 128.061C134.689 127.642 134.495 127.351 134.141 126.99C133.937 126.782 133.557 126.477 133.274 126.294C132.995 126.113 132.378 125.805 132.063 125.691ZM119.153 119.777C118.725 119.642 118.202 119.614 117.81 119.704C117.406 119.797 117.045 119.982 116.655 120.298L116.423 120.485L116.702 119.885C116.979 119.288 116.98 119.285 116.968 119.168C116.947 118.958 116.956 118.964 115.924 118.482C115.014 118.058 115.011 118.057 114.914 118.072C114.861 118.08 114.784 118.105 114.742 118.127L114.667 118.166L112.564 122.66C110.204 127.703 110.386 127.278 110.51 127.477L110.573 127.578L111.544 128.031C112.475 128.465 112.519 128.483 112.611 128.475C112.664 128.471 112.741 128.449 112.783 128.427L112.858 128.387L114.234 125.47C115.461 122.868 115.624 122.532 115.748 122.353C116.232 121.656 116.692 121.432 117.274 121.608C117.515 121.682 117.761 121.834 117.902 121.998C118.162 122.298 118.185 122.756 117.972 123.382C117.924 123.525 117.407 124.654 116.54 126.515C115.075 129.654 115.15 129.478 115.221 129.642C115.238 129.681 115.281 129.74 115.316 129.773C115.398 129.85 117.127 130.659 117.257 130.681C117.374 130.702 117.546 130.636 117.621 130.542C117.656 130.498 118.224 129.301 118.974 127.69C120.32 124.798 120.409 124.621 120.663 124.312C121.063 123.825 121.686 123.67 122.224 123.922C122.655 124.125 122.895 124.437 122.905 124.808C122.915 125.164 123.005 124.947 121.38 128.466L119.904 131.663L119.923 131.759C119.962 131.96 119.94 131.946 121.017 132.448C121.949 132.883 121.99 132.9 122.085 132.892C122.143 132.888 122.223 132.854 122.28 132.81L122.376 132.736L124.066 129.093C125.922 125.091 125.809 125.356 125.882 124.83C126.006 123.923 125.604 123.061 124.761 122.427C124.52 122.245 123.984 122 123.671 121.928C122.776 121.722 121.969 121.902 121.265 122.464L121.075 122.615L121.06 122.331C121.037 121.891 120.991 121.653 120.859 121.3C120.683 120.828 120.426 120.495 120.012 120.202C119.842 120.082 119.351 119.839 119.153 119.777ZM149.287 133.817C148.452 133.536 147.871 133.477 147.15 133.599C146.713 133.674 146.07 133.932 145.644 134.205C144.425 134.987 143.382 136.493 142.878 138.198C142.657 138.947 142.562 139.803 142.625 140.475C142.7 141.284 142.995 142.067 143.44 142.642C143.645 142.909 143.977 143.228 144.276 143.446C144.574 143.664 145.332 144.026 145.678 144.115C146.528 144.335 147.323 144.301 148.13 144.012C149.265 143.605 150.26 142.724 150.992 141.48C151.194 141.138 151.609 140.197 151.719 139.832C152.481 137.322 151.86 135.265 150.01 134.166C149.804 134.043 149.447 133.871 149.287 133.817ZM159.322 138.508C158.373 138.193 157.545 138.397 156.637 139.167L156.442 139.332L156.75 138.67C157.089 137.945 157.096 137.919 157.023 137.74L156.982 137.642L156.056 137.203C155.021 136.712 155.029 136.715 154.853 136.819L154.768 136.87L152.659 141.393C150.38 146.281 150.516 145.969 150.588 146.134C150.605 146.173 150.648 146.232 150.683 146.265C150.772 146.348 152.492 147.15 152.626 147.17C152.679 147.179 152.771 147.167 152.831 147.145L152.939 147.105L154.244 144.341C155.173 142.375 155.581 141.531 155.658 141.415C156.176 140.637 156.639 140.304 157.2 140.306C157.765 140.308 158.251 140.717 158.304 141.237C158.322 141.405 158.285 141.707 158.217 141.964C158.166 142.156 157.991 142.545 156.77 145.181C155.222 148.524 155.327 148.264 155.446 148.444C155.503 148.528 155.517 148.536 156.425 148.967C157.444 149.451 157.487 149.466 157.665 149.4L157.775 149.36L159.287 146.134C161.022 142.435 161.106 142.237 161.238 141.527C161.364 140.855 161.262 140.248 160.934 139.712C160.612 139.186 160.008 138.735 159.322 138.508ZM138.203 128.888C138.154 128.889 138.075 128.915 138.027 128.946C137.941 129.001 137.935 129.012 137.596 129.738C137.265 130.447 137.254 130.477 137.271 130.556C137.281 130.601 137.307 130.671 137.329 130.711C137.369 130.784 137.397 130.798 138.934 131.528L140.499 132.271L137.589 133.924C135.989 134.834 134.634 135.617 134.579 135.666C134.359 135.859 134.309 135.945 133.886 136.852C133.507 137.665 133.489 137.709 133.499 137.796C133.512 137.906 133.593 138.033 133.673 138.07C133.705 138.085 133.872 138.097 134.044 138.097C135.19 138.097 136.15 138.312 137.207 138.805C138.275 139.303 139.068 139.904 139.798 140.771C139.986 140.995 140.034 141.039 140.105 141.058C140.216 141.087 140.395 141.022 140.48 140.922C140.525 140.87 140.657 140.602 140.878 140.116C141.201 139.405 141.208 139.385 141.209 139.249C141.21 139.054 141.14 138.915 140.895 138.619C140.278 137.875 139.633 137.387 138.441 136.759L138.133 136.597L140.766 135.11C142.214 134.292 143.47 133.576 143.556 133.518C143.813 133.347 143.84 133.309 144.145 132.655C144.406 132.094 144.416 132.068 144.411 131.953C144.4 131.715 144.681 131.866 141.289 130.285C138.587 129.025 138.283 128.887 138.203 128.888ZM149.149 136.047C149.614 136.466 149.642 137.053 149.256 138.257C149.166 138.537 149.069 138.762 148.675 139.61C148.349 140.309 148.162 140.687 148.076 140.821C147.517 141.689 147.002 142.106 146.464 142.126C146.216 142.135 146.048 142.094 145.794 141.962C145.608 141.865 145.573 141.837 145.456 141.693C145.059 141.206 145.1 140.376 145.583 139.11C145.776 138.601 146.487 137.13 146.68 136.837C147.282 135.926 147.858 135.563 148.487 135.701C148.68 135.743 148.992 135.906 149.149 136.047ZM107.637 121.385C107.303 122.07 107.225 122.197 106.98 122.455C106.516 122.943 105.904 123.189 105.369 123.103C105.258 123.085 105.16 123.048 104.976 122.955C104.75 122.841 104.722 122.82 104.611 122.684C104.459 122.497 104.379 122.286 104.37 122.04C104.359 121.757 104.404 121.569 104.562 121.235C104.722 120.895 104.862 120.717 105.115 120.527C105.707 120.083 106.596 120.128 107.802 120.661L107.957 120.729L107.637 121.385ZM130.947 131.922C130.721 132.405 130.496 132.811 130.342 133.017C130.068 133.383 129.673 133.687 129.301 133.819C128.899 133.963 128.558 133.953 128.203 133.789C127.858 133.629 127.695 133.458 127.586 133.142C127.467 132.794 127.521 132.43 127.763 131.961C127.985 131.53 128.215 131.302 128.582 131.15C129.159 130.911 129.958 131.016 130.966 131.462L131.129 131.534L130.947 131.922ZM136.085 139.968C134.924 139.523 133.597 139.352 132.799 139.544C132.568 139.6 132.451 139.738 132.521 139.873C132.568 139.965 132.64 139.998 133.164 140.175C134.304 140.559 135.355 140.996 135.835 141.287C136.254 141.54 136.497 141.782 136.527 141.977C136.603 142.459 135.91 143.377 134.383 144.816C133.851 145.318 133.774 145.42 133.837 145.542C133.923 145.708 134.127 145.706 134.619 145.533C135.828 145.107 137.014 144.143 137.913 142.855C138.089 142.604 138.436 141.881 138.458 141.72C138.466 141.663 138.457 141.573 138.438 141.522C138.284 141.111 137.203 140.397 136.085 139.968ZM108.272 127.741C108.072 127.761 107.983 127.976 108.077 128.216C108.154 128.413 108.455 129.058 108.663 129.471C110.641 133.406 113.693 136.779 117.428 139.157C120.188 140.914 123.081 142.069 126.314 142.703C128.94 143.218 131.395 143.312 133.685 142.984C134.52 142.864 134.694 142.813 134.821 142.65C134.997 142.423 134.883 142.07 134.588 141.931C134.49 141.885 134.348 141.868 133.715 141.827C130.023 141.589 126.512 140.784 123.096 139.393C122.519 139.158 121.062 138.478 120.478 138.172C115.873 135.757 111.898 132.373 108.931 128.345C108.507 127.769 108.455 127.722 108.272 127.741Z" fill="white"/>
<rect x="18.9688" y="0.925262" width="128.651" height="190.758" rx="12.5038" fill="url(#paint2_linear_503_13444)"/>
<g clip-path="url(#clip0_503_13444)">
<path d="M47.6797 85.9729C47.6797 85.9729 49.27 92.7123 49.5239 93.8062C49.8201 95.083 50.3539 95.5529 51.8929 95.236L52.8859 91.0576C53.1376 90.0197 53.3064 89.2798 53.4682 88.224H53.4967C53.6104 89.2901 53.7722 90.0228 53.9794 91.0612C53.9794 91.0612 54.3836 92.9581 54.5906 93.9544C54.7982 94.9504 55.3758 95.5781 56.8833 95.2363L59.2495 85.9736H57.3391L56.5312 89.9783C56.3141 91.144 56.117 92.0549 55.965 93.1213H55.9381C55.8 92.0655 55.6243 91.1907 55.4035 90.055L54.5624 85.9736H52.5719L51.6722 89.9522C51.4173 91.1611 51.1789 92.1374 51.0273 93.1677H50.9998C50.8446 92.1974 50.6378 90.9705 50.4139 89.8001C50.4139 89.8001 49.8793 86.9545 49.6918 85.9736L47.6799 85.9738L47.6797 85.9729ZM65.8916 85.9729V95.2356H67.7105V93.2687V85.9724H65.8916V85.9729ZM91.5089 85.9729V92.8062C91.5089 93.7483 91.6803 94.4084 92.0471 94.8116C92.3676 95.1643 92.8955 95.3927 93.5279 95.3927C94.0657 95.3927 94.5948 95.2872 94.8442 95.1912L94.8207 93.7212C94.6352 93.7684 94.4217 93.8062 94.1298 93.8062C93.5102 93.8062 93.3024 93.3958 93.3024 92.5499V89.9355H94.8865V88.1633H93.3024V85.9729H91.5088L91.5089 85.9729ZM61.8268 88.1202C60.6964 88.1202 59.7991 88.4484 59.31 88.7407L59.668 90.0083C60.1156 89.7164 60.8283 89.4748 61.5032 89.4748C62.6206 89.4719 62.8032 90.1282 62.8032 90.5491V90.6487C60.3685 90.6449 58.8307 91.5162 58.8307 93.2922C58.8307 94.3765 59.6135 95.3927 60.9748 95.3927C61.8128 95.3927 62.5137 95.047 62.9337 94.4932H62.9749C62.9749 94.4932 63.253 95.6959 64.7854 95.236C64.7049 94.7355 64.6787 94.2018 64.6787 93.559V91.0845C64.6787 89.5074 64.0276 88.1202 61.8268 88.1202L61.8268 88.1202ZM72.7072 88.1202C71.569 88.1202 71.0575 88.7167 70.7474 89.2228H70.7204V88.2773H68.9846V95.2361H70.8132V91.155C70.8132 90.9637 70.8343 90.7614 70.8989 90.5854C71.0504 90.1745 71.4201 89.6939 72.0102 89.6939C72.7481 89.6939 73.0933 90.3389 73.0933 91.2699V95.236H74.9199V91.1056C74.9199 90.9229 74.9441 90.703 74.9961 90.5415C75.1463 90.0741 75.5448 89.6938 76.0934 89.6938C76.8414 89.6938 77.2004 90.3277 77.2004 91.4231V95.236H79.0282V91.1375C79.0282 88.976 77.9669 88.1202 76.7689 88.1202C76.2384 88.1202 75.8196 88.2578 75.441 88.4982C75.1227 88.7001 74.8378 88.9871 74.5888 89.3649H74.5618C74.2721 88.615 73.5924 88.1202 72.7069 88.1202L72.7072 88.1202ZM82.7484 88.1202C81.6182 88.1202 80.7211 88.4484 80.2315 88.7407L80.59 90.0083C81.0372 89.7164 81.7504 89.4748 82.4249 89.4748C83.5415 89.4719 83.7246 90.1282 83.7246 90.5491V90.6487C81.2902 90.6449 79.7522 91.5162 79.7522 93.2922C79.7522 94.3765 80.5354 95.3927 81.8975 95.3927C82.7348 95.3927 83.4359 95.047 83.8551 94.4932H83.8965C83.8965 94.4932 84.1746 95.6959 85.7071 95.236C85.6265 94.7355 85.6007 94.2018 85.6007 93.559V91.0845C85.6007 89.5074 84.9493 88.1202 82.7483 88.1202L82.7484 88.1202ZM90.3419 88.1202C89.6417 88.1202 88.8451 88.5876 88.5107 89.5896H88.4596V88.2772H86.8135V95.236H88.69V91.6726C88.69 91.4804 88.7013 91.3128 88.7307 91.1591C88.8695 90.4127 89.4216 89.9355 90.2139 89.9355C90.4314 89.9355 90.5871 89.9599 90.7555 89.985V88.1632C90.6143 88.1337 90.5177 88.1201 90.342 88.1201L90.3419 88.1202ZM62.862 91.8818V92.75C62.862 92.8784 62.8512 93.0109 62.8168 93.1267C62.676 93.6089 62.193 94.0163 61.5893 94.0163C61.0859 94.0163 60.686 93.7209 60.686 93.0959C60.686 92.1399 61.7036 91.8756 62.862 91.8818H62.862ZM83.7835 91.8818V92.75C83.7835 92.8784 83.7725 93.0109 83.7383 93.1267C83.5975 93.6089 83.1147 94.0163 82.511 94.0163C82.0075 94.0163 81.6076 93.7209 81.6076 93.0959C81.6076 92.1399 82.6251 91.8756 83.7836 91.8818H83.7835Z" fill="white"/>
<path d="M104.719 82.6229C104.132 82.6229 103.665 82.9621 103.665 83.3749L104.021 87.5509C104.061 87.8025 104.359 87.9966 104.719 87.9966C105.08 87.9961 105.377 87.8022 105.417 87.5509L105.776 83.3749C105.776 82.9621 105.307 82.623 104.719 82.623L104.719 82.6229ZM98.9073 85.9727C98.6024 85.9802 98.2561 86.2189 98.0358 86.6139C97.7412 87.1398 97.7934 87.7276 98.1381 87.9338L101.813 89.7036C102.043 89.792 102.354 89.6234 102.535 89.3014C102.535 89.3014 102.535 89.3013 102.535 89.3013C102.716 88.9778 102.702 88.614 102.511 88.4527L99.1923 86.0452C99.1061 85.9935 99.0091 85.9703 98.9075 85.9728L98.9073 85.9727ZM110.53 85.9727C110.429 85.9702 110.332 85.9935 110.246 86.0451L106.926 88.4526C106.736 88.614 106.722 88.9777 106.903 89.3012L106.903 89.3014C107.084 89.6233 107.395 89.7919 107.625 89.7036L111.301 87.9338C111.647 87.7276 111.697 87.1399 111.404 86.6139C111.183 86.2189 110.836 85.9802 110.531 85.9728L110.53 85.9727ZM101.95 91.4824C101.903 91.4817 101.857 91.4893 101.814 91.5061L98.1386 93.2738C97.7939 93.4809 97.7417 94.0689 98.0363 94.5954C98.3301 95.1203 98.8478 95.3699 99.1925 95.164L102.512 92.7583C102.703 92.595 102.717 92.2314 102.536 91.9082L102.537 91.9089C102.39 91.6457 102.156 91.4852 101.95 91.4823L101.95 91.4824ZM107.489 91.4824C107.283 91.4853 107.049 91.6457 106.902 91.909L106.904 91.9083C106.723 92.2315 106.737 92.5951 106.927 92.7584L110.247 95.1641C110.591 95.3699 111.109 95.1204 111.404 94.5955C111.697 94.0689 111.647 93.481 111.301 93.2739L107.625 91.5061C107.582 91.4893 107.536 91.4817 107.489 91.4824L107.489 91.4824ZM104.718 93.2131C104.359 93.2135 104.061 93.4067 104.022 93.6577L103.665 97.8335C103.665 98.247 104.132 98.5855 104.719 98.5855C105.308 98.5855 105.775 98.247 105.775 97.8335L105.418 93.6577C105.377 93.4067 105.081 93.2135 104.72 93.2131H104.718H104.718Z" fill="#FFC220"/>
</g>
<path d="M230.936 41.0667C230.894 40.4079 230.853 39.7492 230.771 39.0905C230.565 37.7318 229.989 36.5791 228.918 35.7145C227.807 34.8087 226.736 33.8618 225.295 33.5736C225.089 33.5324 224.842 33.4089 224.719 33.2442C224.554 32.9972 224.307 32.6678 224.348 32.4208C224.389 32.1738 224.719 31.8444 225.007 31.8033C228.795 31.1034 230.565 28.4684 231.594 25.0924C231.841 24.269 231.965 23.3633 232.13 22.4987C232.253 22.2105 232.212 21.9223 232.335 21.6752C232.459 21.4694 232.706 21.2224 232.871 21.2635C233.035 21.2635 233.241 21.5517 233.365 21.7576C233.447 21.9223 233.406 22.1281 233.406 22.334C233.365 23.1986 233.324 24.022 233.282 24.8866C233.241 25.8335 233.159 26.7804 233.159 27.7273C233.118 29.2918 234.106 30.2388 235.341 30.8563C236.123 31.2269 236.988 31.4327 237.935 31.3092C238.511 31.2269 239.087 31.3915 239.705 31.4739C239.911 31.5151 240.117 31.5562 240.24 31.6797C240.405 31.8856 240.611 32.1738 240.611 32.3796C240.611 32.7502 240.24 32.7914 239.911 32.7502C239.376 32.709 238.882 32.6678 238.346 32.5855C237.358 32.462 236.453 32.709 235.547 33.0384C235.135 33.2031 234.723 33.5324 234.517 33.903C234.065 34.6029 233.612 35.3028 233.406 36.085C232.912 37.8965 232.582 39.7492 232.171 41.5607C232.088 41.9313 232.088 42.3018 231.924 42.6312C231.841 42.837 231.553 43.084 231.389 43.084C231.224 43.084 230.936 42.7958 230.936 42.59C230.894 42.0959 230.936 41.5607 230.936 41.0667Z" fill="#F5CF48"/>
<path d="M23.1806 235.104C22.2372 235.189 21.2937 235.232 20.3717 235.359C18.9994 235.572 17.9487 236.295 17.3054 237.529C16.8766 238.359 16.4906 239.21 16.169 240.104C15.3113 242.423 14.7967 244.849 14.1534 247.211C14.0676 247.53 14.0462 247.891 13.9819 248.211C13.9604 248.338 13.939 248.487 13.8746 248.594C13.7245 248.913 13.4458 249.083 13.1242 249.04C12.8025 248.998 12.5452 248.742 12.5238 248.381C12.5023 248.189 12.5023 247.977 12.5452 247.764C12.6739 246.955 12.631 246.168 12.5452 245.381C12.3737 243.827 12.1378 242.274 11.6446 240.785C11.0228 239.019 10.0793 237.466 8.59982 236.253C7.84933 235.636 7.07741 235.04 6.30548 234.423C5.12615 233.487 3.77529 232.87 2.38153 232.317C2.16711 232.231 1.9098 232.21 1.65249 232.125C1.48095 232.083 1.28797 232.04 1.11643 231.955C0.751912 231.785 0.601815 231.423 0.687585 231.061C0.773354 230.721 1.09499 230.508 1.48095 230.551C1.7597 230.572 2.0599 230.636 2.33865 230.721C3.92538 231.21 5.555 231.104 7.18462 230.955C7.78501 230.912 8.38539 230.848 8.96434 230.721C10.3152 230.402 11.3659 229.657 11.9877 228.402C12.4809 227.423 12.824 226.402 13.0598 225.316C13.4458 223.636 13.9819 221.976 14.1963 220.252C14.3035 219.38 14.4321 218.508 14.5394 217.614C14.5822 217.38 14.6037 217.146 14.668 216.912C14.7967 216.678 14.9896 216.486 15.2684 216.465C15.5471 216.444 15.8045 216.593 15.8902 216.891C15.9974 217.21 16.0832 217.55 16.1046 217.891C16.2119 219.465 16.3191 221.04 16.4263 222.635C16.5335 224.082 16.5978 225.529 16.7479 226.955C16.8766 228.125 17.284 229.231 17.9487 230.231C18.5491 231.146 19.3853 231.721 20.3717 232.125C21.0149 232.38 21.6368 232.657 22.28 232.87C22.6231 232.997 23.0091 233.04 23.3736 233.125C24.0812 233.295 24.8102 233.444 25.5178 233.636C25.8395 233.721 26.0539 233.955 26.0753 234.295C26.1182 234.614 25.9252 234.934 25.5822 235.061C25.3463 235.146 25.089 235.21 24.8317 235.21C24.2742 235.232 23.6952 235.21 23.1377 235.21C23.1806 235.168 23.1806 235.125 23.1806 235.104Z" fill="#F5CF48"/>
<defs>
<linearGradient id="paint0_linear_503_13444" x1="208.436" y1="265.902" x2="125.058" y2="124.204" gradientUnits="userSpaceOnUse">
<stop stop-color="#1A293B"/>
<stop offset="1" stop-color="#183F5A"/>
</linearGradient>
<linearGradient id="paint1_linear_503_13444" x1="128.291" y1="21.259" x2="200.149" y2="179.357" gradientUnits="userSpaceOnUse">
<stop stop-color="#F4C24F"/>
<stop offset="1" stop-color="#F29F3A"/>
</linearGradient>
<linearGradient id="paint2_linear_503_13444" x1="35.4711" y1="8.87352" x2="107.623" y2="156.394" gradientUnits="userSpaceOnUse">
<stop stop-color="#3924CD"/>
<stop offset="1" stop-color="#6450EF"/>
</linearGradient>
<clipPath id="clip0_503_13444">
<rect width="64.6028" height="16.6717" fill="white" transform="translate(47.3086 82.1997)"/>
</clipPath>
</defs>
</svg>
