<svg width="414" height="164" viewBox="0 0 414 164" fill="none" xmlns="http://www.w3.org/2000/svg">
<g filter="url(#filter0_d_1648_21257)">
<path d="M24 70C24 53.4315 37.4315 40 54 40H360C376.569 40 390 53.4315 390 70V119.316C390 136.528 375.549 150.21 358.363 149.271L52.3631 132.55C36.4543 131.681 24 118.527 24 102.595V70Z" fill="#9AFED3"/>
<circle cx="328.5" cy="95.5" r="37.5" fill="url(#paint0_linear_1648_21257)"/>
<circle cx="324.5" cy="98.5" r="38.5" stroke="#3F1E4B" stroke-width="2"/>
<path d="M320.28 83.3138C319.646 82.9319 318.89 82.8978 318.23 83.2157L329.286 94.2947L332.9 90.6631L320.28 83.3138ZM317.215 84.2411C317.075 84.5364 317 84.8649 317 85.203V105.469C317 105.808 317.076 106.132 317.216 106.421L328.268 95.3177L317.215 84.2411ZM329.287 96.3392L318.25 107.429C318.542 107.565 318.854 107.624 319.165 107.624C319.55 107.624 319.933 107.532 320.28 107.323L332.903 99.9631L329.287 96.3392ZM337.707 93.4622C337.703 93.4593 337.698 93.4564 337.694 93.454L334.189 91.4134L330.305 95.3162L334.192 99.2114C334.192 99.2114 337.703 97.1645 337.707 97.1621C338.359 96.7663 338.748 96.0747 338.748 95.3119C338.748 94.5491 338.359 93.8575 337.707 93.4622Z" fill="white"/>
<path d="M329.288 96.3392L318.25 107.429C318.543 107.565 318.855 107.624 319.166 107.624C319.55 107.624 319.933 107.532 320.281 107.323L332.903 99.9631L329.288 96.3392Z" fill="white"/>
<path d="M337.707 93.4623C337.703 93.4594 337.698 93.4565 337.693 93.4541L334.189 91.4135L330.305 95.3163L334.192 99.2115C334.192 99.2115 337.703 97.1646 337.707 97.1622C338.359 96.7663 338.748 96.0748 338.748 95.312C338.748 94.5492 338.359 93.8576 337.707 93.4623Z" fill="white"/>
<path d="M320.28 83.3138C319.646 82.9319 318.89 82.8978 318.23 83.2157L329.286 94.2947L332.901 90.6631L320.28 83.3138Z" fill="white"/>
<path d="M48.684 86.06C48.63 89.462 51.546 92.288 55.038 92.216C56.28 92.216 57.396 91.928 58.386 91.334C59.394 90.74 60.168 89.948 60.708 88.994V85.484H55.002V87.59H58.278V88.562C57.612 89.48 56.514 90.038 55.146 90.038C52.788 90.038 51.186 88.364 51.186 86.06C51.186 83.792 52.734 82.154 55.002 82.154C56.37 82.154 57.468 82.73 58.314 83.9L60.042 82.478C58.89 80.84 57.126 79.904 55.038 79.904C51.528 79.85 48.612 82.64 48.684 86.06ZM62.1493 87.536C62.0953 90.074 64.2913 92.252 66.9013 92.198C69.5113 92.252 71.7613 90.074 71.7073 87.536C71.7613 84.998 69.5293 82.856 66.9193 82.892C64.3093 82.838 62.0953 84.998 62.1493 87.536ZM69.2233 87.554C69.2233 88.94 68.2333 89.966 66.9193 89.966C65.5693 89.966 64.6153 88.94 64.6153 87.554C64.6153 86.132 65.5693 85.106 66.9193 85.106C68.2333 85.106 69.2233 86.168 69.2233 87.554ZM73.1004 87.536C73.0464 90.074 75.2424 92.252 77.8524 92.198C80.4624 92.252 82.7124 90.074 82.6584 87.536C82.7124 84.998 80.4804 82.856 77.8704 82.892C75.2604 82.838 73.0464 84.998 73.1004 87.536ZM80.1744 87.554C80.1744 88.94 79.1844 89.966 77.8704 89.966C76.5204 89.966 75.5664 88.94 75.5664 87.554C75.5664 86.132 76.5204 85.106 77.8704 85.106C79.1844 85.106 80.1744 86.168 80.1744 87.554ZM91.2696 83.09V84.206C90.6396 83.36 89.6316 82.892 88.3536 82.892C85.9236 82.892 84.0876 84.656 84.0876 87.302C84.0876 89.912 85.8876 91.73 88.3536 91.73C89.4876 91.73 90.4236 91.37 91.0716 90.668V91.154C91.0716 92.54 90.1356 93.26 88.6956 93.26C87.6156 93.26 86.7876 92.846 85.7976 92.108L84.5196 93.8C85.7616 94.898 87.2196 95.456 88.8936 95.456C91.6836 95.456 93.5016 93.908 93.5016 91.01V83.09H91.2696ZM91.1076 87.266C91.1076 88.796 90.0816 89.678 88.8576 89.678C87.5616 89.678 86.5536 88.724 86.5536 87.284C86.5536 85.844 87.5436 84.962 88.8576 84.962C90.0996 84.962 91.1076 85.736 91.1076 87.266ZM95.9111 92H98.3411V78.5H95.9111V92ZM108.935 88.364C109.043 87.914 109.097 87.464 109.097 87.032C109.097 84.71 107.369 82.892 104.903 82.892C102.329 82.838 100.187 84.98 100.241 87.554C100.187 90.128 102.365 92.27 105.119 92.216C106.433 92.216 107.621 91.766 108.683 90.884L107.675 89.228C106.901 89.822 106.073 90.128 105.191 90.128C103.895 90.128 102.977 89.498 102.689 88.364H108.935ZM102.689 86.654C102.959 85.556 103.787 84.854 104.813 84.854C105.875 84.854 106.721 85.556 106.739 86.654H102.689ZM116.2 92H118.63V87.806H120.664C123.148 87.806 124.948 86.222 124.948 83.954C124.948 81.668 123.148 80.12 120.664 80.12H116.2V92ZM118.63 85.682V82.262H120.664C121.762 82.262 122.464 82.946 122.464 83.954C122.464 84.98 121.798 85.682 120.664 85.682H118.63ZM126.726 92H129.156V78.5H126.726V92ZM139.03 86.708C139.03 84.242 137.536 82.892 135.214 82.892C133.648 82.892 132.352 83.504 131.326 84.728L132.586 86.222C133.378 85.376 134.026 84.998 134.944 84.998C136.024 84.998 136.6 85.574 136.6 86.564V86.96H134.368C132.298 86.96 131.002 87.95 131.002 89.552C131.002 91.118 132.19 92.216 134.08 92.216C135.214 92.216 136.15 91.802 136.798 91.136V92H139.03V86.708ZM136.6 88.67C136.6 89.696 135.79 90.434 134.728 90.434C133.954 90.434 133.45 90.056 133.45 89.462C133.45 88.868 133.9 88.562 134.692 88.562H136.6V88.67ZM147.452 83.09L145.13 88.94L142.952 83.09H140.378L143.798 91.46L143.528 92.072C143.114 93.008 142.538 93.278 141.674 93.278C141.53 93.278 141.188 93.26 140.63 93.206V95.24C141.17 95.384 141.692 95.456 142.196 95.456C143.852 95.456 144.932 94.628 145.742 92.774L150.008 83.09H147.452Z" fill="#3F1E4B"/>
</g>
<defs>
<filter id="filter0_d_1648_21257" x="-26" y="0" width="466" height="209.317" filterUnits="userSpaceOnUse" color-interpolation-filters="sRGB">
<feFlood flood-opacity="0" result="BackgroundImageFix"/>
<feColorMatrix in="SourceAlpha" type="matrix" values="0 0 0 0 0 0 0 0 0 0 0 0 0 0 0 0 0 0 127 0" result="hardAlpha"/>
<feOffset dy="10"/>
<feGaussianBlur stdDeviation="25"/>
<feComposite in2="hardAlpha" operator="out"/>
<feColorMatrix type="matrix" values="0 0 0 0 0 0 0 0 0 0 0 0 0 0 0 0 0 0 0.1 0"/>
<feBlend mode="normal" in2="BackgroundImageFix" result="effect1_dropShadow_1648_21257"/>
<feBlend mode="normal" in="SourceGraphic" in2="effect1_dropShadow_1648_21257" result="shape"/>
</filter>
<linearGradient id="paint0_linear_1648_21257" x1="300.62" y1="61.125" x2="366.26" y2="71.627" gradientUnits="userSpaceOnUse">
<stop stop-color="#00D0FF"/>
<stop offset="1" stop-color="#008642"/>
</linearGradient>
</defs>
</svg>
