<svg width="309" height="228" viewBox="0 0 309 228" fill="none" xmlns="http://www.w3.org/2000/svg">
<path d="M75.312 21.5866L37.9688 122.504L196.397 181.655L233.74 80.7381L75.312 21.5866Z" fill="white"/>
<path d="M196.377 181.673L117.188 152.659L37.693 123.225L36.9688 122.974L37.2473 122.246L74.321 21.2421L74.6832 20.2349L75.6581 20.6266L233.953 80.1658L234.51 80.3896L234.315 80.9492L215.346 131.479L196.377 181.673ZM196.377 181.673L214.761 130.92L233.145 80.5575L233.507 81.3409L74.9338 22.5851L76.2709 21.9696L38.6957 122.694L38.2222 121.715L117.161 151.456L196.377 181.673Z" fill="#C7C7C7"/>
<path opacity="0.2" d="M233.733 80.7534C225.042 84.5025 216.352 87.944 207.661 91.6092C198.971 95.2745 190.28 98.5759 181.562 101.989C172.844 105.403 163.401 109.04 154.321 112.509L153.485 112.845L129.336 121.938L128.166 122.358L127.553 121.267C123.431 113.806 119.327 106.233 115.242 98.548C115.077 98.287 114.928 98.016 114.796 97.7366C110.154 89.1751 105.511 80.5482 100.869 71.8561C96.4866 63.6116 92.1506 55.2925 87.8611 46.8988C83.6551 38.5051 79.3099 30.1115 75.1875 21.7178C80.062 29.5239 84.6857 37.5539 89.4209 45.444C94.1561 53.334 98.7798 61.4479 103.348 69.5338C108.473 78.4871 113.57 87.5243 118.64 96.6454L130.199 117.126C137.469 114.328 144.795 111.726 152.065 109.124C161.786 105.599 171.562 102.073 181.256 98.6319C189.974 95.5822 198.692 92.5325 207.439 89.5667C216.185 86.601 224.903 83.5513 233.733 80.7534Z" fill="black"/>
<path opacity="0.2" d="M118.162 98.9118H117.884L114.625 100.087C109.388 101.989 104.124 103.696 98.8315 105.263C92.3693 107.25 85.8236 109.04 79.3336 110.859C72.8436 112.677 66.2144 114.16 59.5851 115.587C52.9559 117.014 46.3266 118.385 39.5859 119.392C45.9645 116.958 52.4266 114.888 58.8888 112.901C65.3509 110.915 71.9245 109.152 78.3866 107.305C84.8487 105.459 91.5337 103.976 98.163 102.549C103.427 101.374 108.748 100.311 114.123 99.4154L117.856 98.8279L118.162 98.9118Z" fill="black"/>
<path opacity="0.2" d="M197.186 178.288C192.757 173.112 188.579 167.712 184.512 162.284C180.445 156.856 176.518 151.316 172.619 145.748C168.719 140.18 165.014 134.557 161.477 128.737C158.524 124.065 155.655 119.364 152.954 114.524C152.341 113.489 151.784 112.453 151.227 111.418C151.232 111.344 151.232 111.269 151.227 111.194L151.422 111.39L153.873 114.188C157.354 118.385 160.641 122.582 163.928 127.03C167.995 132.486 171.894 138.026 175.766 143.594C179.638 149.162 183.398 154.785 186.908 160.605C190.417 166.425 193.955 172.272 197.186 178.288Z" fill="black"/>
<path d="M260.132 7.95571L242.434 21.3876L243.293 47.0385L227.097 34.2131L218.15 41.8477L184.148 0L260.132 7.95571Z" fill="#27AE60"/>
<path d="M235.781 26.8459C235.781 27.6308 243.297 47.0385 243.297 47.0385L227.102 34.213L235.781 26.8459Z" fill="#27AE60"/>
<g opacity="0.3">
<path opacity="0.3" d="M235.781 26.8459C235.781 27.6308 243.297 47.0385 243.297 47.0385L227.102 34.213L235.781 26.8459Z" fill="black"/>
</g>
<path d="M184.148 0L235.777 26.846L243.293 47.0385L242.434 21.3876L184.148 0Z" fill="#27AE60"/>
<path opacity="0.1" d="M184.148 0L235.777 26.846L243.293 47.0385L242.434 21.3876L184.148 0Z" fill="black"/>
<path d="M256.047 26.1171C254.46 26.1401 252.881 25.8928 251.377 25.3857C249.8 25.1928 248.272 24.7153 246.867 23.9765C248.463 23.7676 250.085 23.9263 251.609 24.4403C253.203 24.6349 254.725 25.2101 256.047 26.1171V26.1171Z" fill="#3F1E4B"/>
<path d="M273.366 33.5198C270.364 32.5379 267.524 31.1193 264.938 29.3101C266.535 29.4614 268.074 29.9871 269.429 30.8441C271.774 32.0214 273.509 33.2879 273.366 33.5198Z" fill="#3F1E4B"/>
<path d="M288.382 44.8647C288.185 45.0609 286.592 43.7231 284.588 42.0464C282.584 40.3696 281.009 38.9426 281.242 38.7107C282.768 39.2481 284.147 40.1339 285.268 41.2972C287.219 43.0096 288.579 44.6863 288.382 44.8647Z" fill="#3F1E4B"/>
<path d="M299.838 59.7593C299.587 59.8842 298.406 58.1539 296.975 56.0134C295.972 54.7866 295.186 53.3994 294.648 51.9107C294.845 51.7501 296.348 53.2842 297.798 55.4783C298.808 56.7245 299.507 58.1916 299.838 59.7593V59.7593Z" fill="#3F1E4B"/>
<path d="M306.332 77.3654C305.564 75.982 305.032 74.481 304.758 72.9237C304.16 71.4534 303.826 69.8894 303.773 68.3037C304.74 69.5878 305.396 71.0775 305.688 72.6562C306.29 74.1488 306.511 75.7667 306.332 77.3654Z" fill="#3F1E4B"/>
<path d="M307.294 96.0949C306.975 94.546 306.908 92.9558 307.097 91.3857C306.962 89.8089 307.108 88.2208 307.527 86.6943C308.074 88.2005 308.264 89.8122 308.082 91.4035C308.195 93.0074 307.925 94.615 307.294 96.0949Z" fill="#3F1E4B"/>
<path d="M302.414 114.183C302.607 112.617 303.054 111.092 303.738 109.67C304.103 108.14 304.707 106.678 305.528 105.335C305.615 106.942 305.289 108.545 304.579 109.991C304.215 111.545 303.471 112.985 302.414 114.183Z" fill="#3F1E4B"/>
<path d="M291.476 129.416C291.297 129.202 292.693 127.632 294.393 125.706C296.093 123.779 297.453 122.138 297.686 122.335C297.178 123.862 296.299 125.241 295.127 126.348C293.391 128.346 291.655 129.612 291.476 129.416Z" fill="#3F1E4B"/>
<path d="M275.695 139.548C276.904 138.529 278.27 137.71 279.74 137.122C281.062 136.248 282.519 135.598 284.053 135.196C283.013 136.43 281.686 137.391 280.187 137.996C278.841 138.875 277.298 139.408 275.695 139.548Z" fill="#3F1E4B"/>
<path d="M257.336 143.49C258.833 142.942 260.412 142.646 262.007 142.616C263.555 142.262 265.15 142.16 266.731 142.313C265.326 143.107 263.746 143.542 262.132 143.58C260.552 143.957 258.901 143.926 257.336 143.49Z" fill="#3F1E4B"/>
<path d="M238.898 140.012C241.958 140.647 244.954 141.56 247.846 142.741C246.242 142.94 244.614 142.719 243.122 142.099C241.555 141.785 240.098 141.065 238.898 140.012Z" fill="#3F1E4B"/>
<path d="M225.836 127.097C226.104 127.008 226.928 128.881 228.395 130.986C229.862 133.091 231.276 134.554 231.079 134.821C230.882 135.089 229.129 133.751 227.59 131.557C226.507 130.316 225.888 128.741 225.836 127.097Z" fill="#3F1E4B"/>
<path d="M233.785 112.488C233.785 112.773 231.834 113.398 229.794 114.842C227.754 116.287 226.662 118.089 226.412 117.946C226.161 117.803 226.949 115.663 229.221 114.058C230.486 112.974 232.119 112.413 233.785 112.488V112.488Z" fill="#3F1E4B"/>
<path d="M249.957 119.178C249.707 119.32 248.561 117.572 246.7 115.86C244.839 114.147 242.942 113.291 243.121 113.023C244.784 113.154 246.333 113.913 247.452 115.146C248.737 116.154 249.624 117.582 249.957 119.178V119.178Z" fill="#3F1E4B"/>
<path d="M250.57 137.39C250.703 135.836 250.997 134.299 251.447 132.806C251.581 131.246 251.875 129.704 252.324 128.203C252.804 129.761 252.804 131.426 252.324 132.984C252.201 134.596 251.589 136.132 250.57 137.39V137.39Z" fill="#3F1E4B"/>
<path d="M238.308 151.393C238.147 151.161 239.775 149.823 241.726 148.164C243.676 146.505 245.305 145.078 245.43 145.256C245.555 145.435 244.392 147.183 242.37 148.824C240.348 150.465 238.451 151.624 238.308 151.393Z" fill="#3F1E4B"/>
<path d="M221.578 160.062C222.762 158.994 224.15 158.175 225.658 157.654C227.035 156.845 228.564 156.329 230.15 156.137C227.598 158.026 224.678 159.363 221.578 160.062V160.062Z" fill="#3F1E4B"/>
<path d="M204.735 168.588C204.592 168.356 206.292 167.09 208.547 165.734C209.862 164.819 211.366 164.21 212.949 163.95C213.092 164.218 211.267 165.306 209.03 166.59C207.752 167.545 206.29 168.225 204.735 168.588V168.588Z" fill="#3F1E4B"/>
<path d="M190.419 180.861C190.222 180.682 191.457 178.934 193.336 177.097C194.372 175.873 195.676 174.903 197.148 174.26C197.327 174.475 195.877 176.044 194.034 177.828C192.191 179.612 190.705 181.039 190.419 180.861Z" fill="#3F1E4B"/>
<path d="M179.688 196.237C179.988 194.663 180.649 193.179 181.62 191.902C182.998 189.673 184.412 188.067 184.627 188.228C184.162 189.743 183.429 191.163 182.461 192.42C181.101 194.614 179.938 196.362 179.688 196.237Z" fill="#3F1E4B"/>
<path d="M172.813 213.718C172.722 212.12 173.016 210.523 173.672 209.062C174.009 207.493 174.714 206.026 175.73 204.781C175.206 207.882 174.223 210.887 172.813 213.7V213.718Z" fill="#3F1E4B"/>
<path d="M228.754 134.903L95.9297 142.947L101.008 227.568L233.833 219.524L228.754 134.903Z" fill="#27AE60"/>
<path opacity="0.2" d="M228.761 134.975C223.764 140.446 218.518 145.716 213.421 151.087C208.324 156.458 203.127 161.678 197.931 166.948C192.734 172.218 187.088 177.84 181.641 183.21L181.141 183.762L166.65 198.017L165.901 198.669L165.151 198.067L149.062 185.67L148.512 185.218L130.324 171.114C124.561 166.563 118.814 161.945 113.084 157.261C107.338 152.543 101.592 147.925 95.9453 143.106C101.892 147.172 107.788 151.489 113.684 155.655C119.58 159.821 125.477 164.187 131.373 168.554C137.269 172.921 144.465 178.241 150.96 183.16L165.601 194.202C169.998 189.936 174.396 185.67 178.843 181.453L196.581 164.539L212.571 149.481C218.018 144.713 223.315 139.693 228.761 134.975Z" fill="black"/>
<path opacity="0.2" d="M151.257 184.967L149.309 186.874C146.111 189.936 142.863 192.847 139.565 195.658C135.517 199.171 131.37 202.534 127.223 205.696C123.075 208.858 118.828 212.271 114.531 215.433C110.233 218.595 105.836 221.657 101.289 224.518C105.137 220.754 109.134 217.19 113.132 213.727C117.129 210.264 121.326 206.85 125.474 203.688C129.621 200.526 133.918 197.113 138.216 193.951C141.663 191.441 145.161 188.932 148.709 186.573L151.257 184.967V184.967Z" fill="black"/>
<path opacity="0.2" d="M233.358 216.89C228.361 214.581 223.814 211.871 219.167 209.411C214.52 206.952 209.923 204.041 205.375 201.33C200.828 198.62 196.331 195.659 191.884 192.647C188.286 190.238 184.689 187.628 181.241 185.118L178.992 183.462L181.691 184.767C185.488 186.674 189.236 188.732 192.983 190.84C197.614 193.45 202.211 196.161 206.775 198.971C211.322 201.782 215.819 204.643 220.216 207.604C224.613 210.566 229.11 213.577 233.358 216.89Z" fill="black"/>
<path d="M84.627 118.712C82.534 126.923 78.0454 134.331 71.7288 139.999C65.4122 145.667 57.5513 149.342 49.1399 150.557C40.7286 151.772 32.1445 150.474 24.4733 146.827C16.8021 143.179 10.3881 137.346 6.04237 130.066C1.69665 122.785 -0.385633 114.383 0.0588132 105.923C0.503259 97.4624 3.45447 89.3234 8.53929 82.5348C13.6241 75.7463 20.6142 70.613 28.6256 67.7842C36.6371 64.9554 45.3102 64.558 53.5482 66.6424C64.5943 69.4428 74.0729 76.5005 79.9007 86.2643C85.7285 96.0281 87.4284 107.699 84.627 118.712V118.712Z" fill="#27AE60"/>
<path d="M58.8372 84.9424C59.5987 85.2502 54.7208 99.5908 47.9287 116.988C46.9202 119.512 45.8705 121.933 45.0267 124.312L44.5121 125.605L43.2155 125.113C29.2814 119.758 19.0933 115.347 19.3403 114.711C19.5873 114.075 30.1665 117.399 44.2034 122.466L42.3922 123.287C43.2978 120.907 44.2446 118.465 45.2119 115.942C51.9834 98.5239 58.0963 84.7168 58.8372 84.9424Z" fill="white"/>
<path d="M296.147 196.335C295.219 196.418 294.291 196.46 293.384 196.586C292.034 196.795 291.001 197.507 290.368 198.721C289.946 199.537 289.567 200.374 289.25 201.253C288.407 203.534 287.901 205.92 287.268 208.243C287.184 208.557 287.162 208.912 287.099 209.226C287.078 209.352 287.057 209.498 286.994 209.603C286.846 209.917 286.572 210.084 286.256 210.043C285.939 210.001 285.686 209.75 285.665 209.394C285.644 209.205 285.644 208.996 285.686 208.787C285.813 207.992 285.77 207.217 285.686 206.443C285.517 204.915 285.285 203.387 284.8 201.923C284.189 200.186 283.261 198.658 281.805 197.465C281.067 196.858 280.308 196.272 279.549 195.665C278.389 194.744 277.06 194.137 275.689 193.593C275.478 193.51 275.225 193.489 274.972 193.405C274.803 193.363 274.614 193.321 274.445 193.237C274.086 193.07 273.939 192.714 274.023 192.358C274.107 192.024 274.424 191.814 274.803 191.856C275.078 191.877 275.373 191.94 275.647 192.024C277.208 192.505 278.811 192.4 280.414 192.254C281.004 192.212 281.595 192.149 282.164 192.024C283.493 191.71 284.526 190.977 285.138 189.743C285.623 188.78 285.96 187.775 286.192 186.708C286.572 185.055 287.099 183.422 287.31 181.727C287.416 180.869 287.542 180.011 287.648 179.132C287.69 178.902 287.711 178.672 287.774 178.441C287.901 178.211 288.09 178.023 288.365 178.002C288.639 177.981 288.892 178.128 288.976 178.421C289.082 178.734 289.166 179.069 289.187 179.404C289.293 180.953 289.398 182.501 289.503 184.071C289.609 185.494 289.672 186.917 289.82 188.319C289.946 189.47 290.347 190.559 291.001 191.542C291.591 192.442 292.414 193.007 293.384 193.405C294.017 193.656 294.628 193.928 295.261 194.137C295.599 194.263 295.978 194.305 296.337 194.388C297.033 194.556 297.75 194.702 298.446 194.891C298.762 194.974 298.973 195.205 298.994 195.54C299.036 195.853 298.847 196.167 298.509 196.293C298.277 196.377 298.024 196.439 297.771 196.439C297.223 196.46 296.653 196.439 296.105 196.439C296.147 196.398 296.147 196.356 296.147 196.335Z" fill="#F5CF48"/>
<path d="M25.4837 32.4825C25.4432 31.8346 25.4027 31.1867 25.3217 30.5388C25.1192 29.2025 24.5523 28.0686 23.4994 27.2182C22.4061 26.3273 21.3532 25.3959 19.9359 25.1125C19.7334 25.072 19.4904 24.9505 19.3689 24.7885C19.207 24.5455 18.964 24.2216 19.0045 23.9786C19.045 23.7356 19.3689 23.4117 19.6524 23.3712C23.3779 22.6828 25.1192 20.0911 26.1316 16.7705C26.3746 15.9606 26.4961 15.0697 26.658 14.2193C26.7795 13.9358 26.739 13.6524 26.8605 13.4094C26.982 13.2069 27.225 12.964 27.3869 13.0045C27.5489 13.0045 27.7514 13.2879 27.8729 13.4904C27.9539 13.6524 27.9134 13.8549 27.9134 14.0573C27.8729 14.9077 27.8324 15.7176 27.7919 16.568C27.7514 17.4994 27.6704 18.4308 27.6704 19.3622C27.6299 20.901 28.6018 21.8324 29.8166 22.4398C30.586 22.8042 31.4364 23.0067 32.3678 22.8852C32.9348 22.8042 33.5017 22.9662 34.1091 23.0472C34.3116 23.0877 34.5141 23.1282 34.6355 23.2497C34.7975 23.4522 35 23.7356 35 23.9381C35 24.3026 34.6355 24.3431 34.3116 24.3026C33.7852 24.2621 33.2992 24.2216 32.7728 24.1406C31.8009 24.0191 30.91 24.2621 30.0191 24.586C29.6142 24.748 29.2092 25.072 29.0067 25.4364C28.5613 26.1248 28.1159 26.8133 27.9134 27.5827C27.4274 29.3644 27.1035 31.1867 26.6985 32.9685C26.6175 33.3329 26.6175 33.6974 26.4556 34.0214C26.3746 34.2238 26.0911 34.4668 25.9291 34.4668C25.7671 34.4668 25.4837 34.1833 25.4837 33.9809C25.4432 33.4949 25.4837 32.9685 25.4837 32.4825Z" fill="#F5CF48"/>
</svg>
