<svg width="330" height="252" viewBox="0 0 330 252" fill="none" xmlns="http://www.w3.org/2000/svg">
<path d="M215 33.5574C215 24.413 222.413 17 231.557 17H313.443C322.587 17 330 24.413 330 33.5574V252L215 245.404L215 33.5574Z" fill="#F5CF48"/>
<path d="M265.213 229.618L263.782 230.439L265.027 233.168L262.033 233.459V235.102L265.027 235.393L263.782 238.122L265.213 238.943L266.961 236.506L268.709 238.943L270.113 238.122L268.868 235.393L271.862 235.102V233.459L268.868 233.168L270.113 230.439L268.709 229.618L266.961 232.055L265.213 229.618ZM265.213 216.682L263.782 217.504L265.027 220.232L262.033 220.524V222.166L265.027 222.458L263.782 225.186L265.213 226.007L266.961 223.57L268.709 226.007L270.113 225.186L268.868 222.458L271.862 222.166V220.524L268.868 220.232L270.113 217.504L268.709 216.682L266.961 219.12L265.213 216.682ZM265.213 203.747L263.782 204.568L265.027 207.297L262.033 207.588V209.231L265.027 209.522L263.782 212.251L265.213 213.072L266.961 210.635L268.709 213.072L270.113 212.251L268.868 209.522L271.862 209.231V207.588L268.868 207.297L270.113 204.568L268.709 203.747L266.961 206.184L265.213 203.747ZM265.213 190.811L263.782 191.633L265.027 194.361L262.033 194.653V196.295L265.027 196.587L263.782 199.315L265.213 200.137L266.961 197.699L268.709 200.137L270.113 199.315L268.868 196.587L271.862 196.295V194.653L268.868 194.361L270.113 191.633L268.709 190.811L266.961 193.249L265.213 190.811ZM276.286 169.148C274.776 169.148 273.557 169.598 272.63 170.499C271.703 171.4 271.12 172.486 270.908 173.784L265.186 169.545H264.418V180.433H266.987V173.916L272.471 177.996H273.24V176.062C273.24 173.492 274.326 172.035 276.313 172.035C278.299 172.035 279.624 173.519 279.624 175.612C279.624 177.413 278.644 178.658 277.028 179.718L278.405 181.678C280.657 180.513 282.194 178.367 282.194 175.532C282.194 172.088 279.836 169.148 276.286 169.148ZM276.26 154.34C272.736 154.34 270.802 157.174 270.802 160.3C270.802 161.095 270.882 161.837 271.041 162.526H266.934V155.32H264.418V165.281H273.213V161.254C273.213 158.684 274.326 157.227 276.313 157.227C278.326 157.227 279.624 158.764 279.624 160.857C279.624 162.738 278.644 164.036 277.028 165.095L278.432 167.056C280.684 165.864 282.194 163.665 282.194 160.777C282.194 157.307 279.783 154.34 276.26 154.34ZM276.26 139.542C272.736 139.542 270.802 142.376 270.802 145.502C270.802 146.297 270.882 147.039 271.041 147.727H266.934V140.522H264.418V150.483H273.213V146.456C273.213 143.886 274.326 142.429 276.313 142.429C278.326 142.429 279.624 143.966 279.624 146.058C279.624 147.939 278.644 149.238 277.028 150.297L278.432 152.258C280.684 151.065 282.194 148.867 282.194 145.979C282.194 142.509 279.783 139.542 276.26 139.542ZM270.193 124.949C266.749 124.87 264.073 127.81 264.126 131.122C264.126 134.46 266.749 137.321 270.166 137.321C273.478 137.321 276.021 134.592 276.021 131.599C276.021 131.307 275.995 131.069 275.942 130.83L281.902 135.042V131.704L275.73 127.36C274.882 126.751 274.22 126.3 273.743 126.009C273.24 125.717 272.71 125.452 272.127 125.267C271.518 125.055 270.882 124.949 270.193 124.949ZM270.166 127.731C271.147 127.731 271.968 128.049 272.63 128.711C273.293 129.373 273.637 130.168 273.637 131.122C273.637 132.102 273.319 132.923 272.657 133.585C271.994 134.248 271.147 134.566 270.166 134.566C269.186 134.566 268.365 134.248 267.703 133.585C267.04 132.923 266.696 132.102 266.696 131.122C266.696 130.168 267.04 129.373 267.703 128.711C268.365 128.049 269.186 127.731 270.166 127.731Z" fill="#3F1E4B"/>
<g clip-path="url(#clip0_81_66)">
<path d="M281.892 39.7686C277.546 39.7686 273.663 42.0184 273.663 46.1752C273.663 50.9423 280.55 51.2716 280.55 53.6664C280.55 54.6748 279.393 55.5774 277.417 55.5774C274.613 55.5774 272.517 54.3161 272.517 54.3161L271.621 58.5108C271.621 58.5108 274.035 59.5762 277.24 59.5762C281.991 59.5762 285.73 57.2159 285.73 52.988C285.73 47.9507 278.814 47.6312 278.814 45.4084C278.814 44.6185 279.764 43.753 281.734 43.753C283.957 43.753 285.771 44.6703 285.771 44.6703L286.648 40.619C286.648 40.619 284.675 39.7686 281.892 39.7686V39.7686ZM242.134 40.0743L242.029 40.6858C242.029 40.6858 243.857 41.0201 245.504 41.6867C247.624 42.4512 247.775 42.8963 248.132 44.2785L252.023 59.2609H257.239L265.274 40.0743H260.07L254.907 53.1194L252.8 42.0618C252.607 40.7962 251.628 40.0743 250.43 40.0743H242.134V40.0743ZM267.366 40.0743L263.284 59.2609H268.246L272.314 40.0743H267.366V40.0743ZM295.042 40.0743C293.845 40.0743 293.211 40.7142 292.746 41.8324L285.476 59.2609H290.68L291.687 56.3562H298.026L298.639 59.2609H303.23L299.225 40.0743H295.042V40.0743ZM295.719 45.2579L297.261 52.4577H293.129L295.719 45.2579V45.2579Z" fill="#3F1E4B"/>
</g>
<path d="M0.10413 90.6609C0.0467264 81.4762 7.47636 74 16.6612 74H112.443C121.587 74 129 81.413 129 90.5574V242L1 234L0.10413 90.6609Z" fill="#F5CF48"/>
<path d="M72.8832 125.596H58.0305L58.0305 99.124H72.8832V125.596Z" fill="#FF5F00"/>
<path d="M58.9813 112.36C58.9813 106.99 61.5165 102.206 65.4645 99.1239C62.5774 96.8697 58.9338 95.5243 54.9739 95.5243C45.5992 95.5243 38 103.062 38 112.36C38 121.658 45.5992 129.195 54.9739 129.195C58.9338 129.195 62.5774 127.85 65.4645 125.596C61.5165 122.513 58.9813 117.73 58.9813 112.36" fill="#EB001B"/>
<path d="M92.9146 112.36C92.9146 121.658 85.3154 129.195 75.9407 129.195C71.9809 129.195 68.3372 127.85 65.449 125.596C69.3981 122.513 71.9334 117.73 71.9334 112.36C71.9334 106.99 69.3981 102.206 65.449 99.1239C68.3372 96.8697 71.9809 95.5243 75.9407 95.5243C85.3154 95.5243 92.9146 103.062 92.9146 112.36" fill="#F79E1B"/>
<path d="M68.5427 223.113V225.497H63.1649V228.305H68.5427V233.524L56.5154 228.57V231.458L70.1852 237.048H70.9534V228.305H74V225.497H70.9534V223.113H68.5427ZM69.4434 208.581C67.2181 208.581 65.761 210.065 64.9133 212.37C63.8801 210.436 62.529 209.403 60.7011 209.403C59.297 209.403 58.1844 209.933 57.4161 210.966C56.6214 211.999 56.224 213.324 56.224 214.913C56.224 216.529 56.6214 217.854 57.4161 218.913C58.1844 219.946 59.297 220.476 60.7011 220.476C62.582 220.476 63.8801 219.417 64.9133 217.509C65.761 219.841 67.2181 221.298 69.4434 221.298C72.384 221.298 74.2914 218.675 74.2914 214.913C74.2914 211.178 72.384 208.581 69.4434 208.581ZM60.8071 217.801C59.403 217.801 58.5288 216.609 58.5288 214.913C58.5288 213.244 59.403 212.078 60.8071 212.078C62.1052 212.078 62.794 212.953 63.6417 214.94C62.7675 216.926 62.0787 217.801 60.8071 217.801ZM69.3374 211.416C70.927 211.416 71.9601 212.661 71.9601 214.913C71.9601 217.165 70.927 218.463 69.3374 218.463C67.7744 218.463 66.9532 217.271 66.1319 214.94C66.9797 212.608 67.7479 211.416 69.3374 211.416ZM68.3837 194.117C66.8737 194.117 65.6551 194.567 64.7279 195.468C63.8007 196.369 63.2178 197.455 63.0059 198.753L57.2837 194.514H56.5154V205.402H59.0851V198.885L64.5689 202.965H65.3372V201.031C65.3372 198.461 66.4233 197.004 68.4102 197.004C70.3971 197.004 71.7217 198.488 71.7217 200.581C71.7217 202.382 70.7415 203.627 69.1255 204.687L70.5031 206.647C72.7549 205.482 74.2914 203.336 74.2914 200.501C74.2914 197.057 71.9336 194.117 68.3837 194.117ZM62.2906 179.256C58.8467 179.176 56.171 182.117 56.224 185.428C56.224 188.766 58.8467 191.627 62.2641 191.627C65.5756 191.627 68.1188 188.899 68.1188 185.905C68.1188 185.614 68.0923 185.375 68.0393 185.137L74 189.349V186.011L67.8274 181.666C66.9797 181.057 66.3174 180.607 65.8405 180.315C65.3372 180.024 64.8073 179.759 64.2245 179.574C63.6152 179.362 62.9794 179.256 62.2906 179.256ZM62.2641 182.037C63.2443 182.037 64.0656 182.355 64.7279 183.018C65.3902 183.68 65.7346 184.475 65.7346 185.428C65.7346 186.408 65.4167 187.23 64.7544 187.892C64.0921 188.554 63.2443 188.872 62.2641 188.872C61.2839 188.872 60.4627 188.554 59.8004 187.892C59.1381 187.23 58.7937 186.408 58.7937 185.428C58.7937 184.475 59.1381 183.68 59.8004 183.018C60.4627 182.355 61.2839 182.037 62.2641 182.037Z" fill="#3F1E4B"/>
<path d="M100 16.5574C100 7.41299 107.413 0 116.557 0H212.443C221.587 0 229 7.41299 229 16.5574V247L100 240.369V16.5574Z" fill="#7165E3"/>
<path d="M157.31 213.06L155.88 213.881L157.125 216.61L154.131 216.901V218.544L157.125 218.835L155.88 221.564L157.31 222.385L159.059 219.948L160.807 222.385L162.211 221.564L160.966 218.835L163.96 218.544V216.901L160.966 216.61L162.211 213.881L160.807 213.06L159.059 215.497L157.31 213.06ZM157.31 200.125L155.88 200.946L157.125 203.675L154.131 203.966V205.609L157.125 205.9L155.88 208.629L157.31 209.45L159.059 207.013L160.807 209.45L162.211 208.629L160.966 205.9L163.96 205.609V203.966L160.966 203.675L162.211 200.946L160.807 200.125L159.059 202.562L157.31 200.125ZM157.31 187.189L155.88 188.01L157.125 190.739L154.131 191.031V192.673L157.125 192.964L155.88 195.693L157.31 196.514L159.059 194.077L160.807 196.514L162.211 195.693L160.966 192.964L163.96 192.673V191.031L160.966 190.739L162.211 188.01L160.807 187.189L159.059 189.626L157.31 187.189ZM157.31 174.254L155.88 175.075L157.125 177.804L154.131 178.095V179.738L157.125 180.029L155.88 182.758L157.31 183.579L159.059 181.142L160.807 183.579L162.211 182.758L160.966 180.029L163.96 179.738V178.095L160.966 177.804L162.211 175.075L160.807 174.254L159.059 176.691L157.31 174.254ZM168.543 151.266V153.65H163.165V156.458H168.543V161.677L156.515 156.723V159.61L170.185 165.2H170.953V156.458H174V153.65H170.953V151.266H168.543ZM168.543 135.872V138.257H163.165V141.065H168.543V146.284L156.515 141.33V144.217L170.185 149.807H170.953V141.065H174V138.257H170.953V135.872H168.543ZM156.515 128.964L158.502 135.031L160.966 134.342L159.827 130.792H174V127.984H156.515V128.964ZM171.563 118.986L168.304 115.913C167.006 114.695 165.894 113.767 164.913 113.158C163.933 112.522 162.847 112.204 161.655 112.204C158.582 112.204 156.224 114.668 156.224 118.006C156.224 121.583 158.953 123.887 161.814 123.887C162.344 123.887 162.847 123.834 163.324 123.702V120.867C162.794 120.947 162.344 121 161.973 121C160.171 121 158.794 119.808 158.794 118.033C158.794 116.258 160.092 115.119 161.867 115.119C163.35 115.119 164.622 115.966 166.662 117.9L173.364 124.126H174V111.595H171.563V118.986Z" fill="#FFFFFE"/>
<path d="M172.883 51.5959H158.031V25.124L172.883 25.124V51.5959Z" fill="#FF5F00"/>
<path d="M158.981 38.3598C158.981 32.9899 161.516 28.2065 165.465 25.1239C162.577 22.8697 158.934 21.5243 154.974 21.5243C145.599 21.5243 138 29.0617 138 38.3598C138 47.6579 145.599 55.1953 154.974 55.1953C158.934 55.1953 162.577 53.8499 165.465 51.5957C161.516 48.5131 158.981 43.7297 158.981 38.3598" fill="#EB001B"/>
<path d="M192.915 38.3598C192.915 47.6579 185.315 55.1953 175.941 55.1953C171.981 55.1953 168.337 53.8499 165.449 51.5957C169.398 48.5131 171.933 43.7297 171.933 38.3598C171.933 32.9899 169.398 28.2065 165.449 25.1239C168.337 22.8697 171.981 21.5243 175.941 21.5243C185.315 21.5243 192.915 29.0617 192.915 38.3598" fill="#F79E1B"/>
<defs>
<clipPath id="clip0_81_66">
<rect width="61.2623" height="19.8689" fill="white" transform="translate(242 39.7378)"/>
</clipPath>
</defs>
</svg>
