<svg width="368" height="286" viewBox="0 0 368 286" fill="none" xmlns="http://www.w3.org/2000/svg">
<path d="M74.8656 27.1294L27.9338 153.959L227.041 228.298L273.973 101.469L74.8656 27.1294Z" fill="white"/>
<path d="M227.021 228.321L127.499 191.857L27.5918 154.866L26.6816 154.549L27.0317 153.635L73.6248 26.6963L74.0799 25.4304L75.3051 25.9227L274.245 100.75L274.945 101.031L274.7 101.734L250.861 165.239L227.021 228.321ZM227.021 228.321L250.125 164.535L273.229 101.242L273.685 102.227L74.3949 28.3842L76.0753 27.6106L28.852 154.198L28.257 152.967L127.464 190.345L227.021 228.321Z" fill="#C7C7C7"/>
<path opacity="0.2" d="M273.965 101.488C263.043 106.2 252.121 110.525 241.199 115.132C230.277 119.738 219.355 123.887 208.398 128.177C197.441 132.467 185.574 137.038 174.162 141.398L173.112 141.82L142.762 153.248L141.291 153.776L140.521 152.404C135.34 143.028 130.183 133.51 125.049 123.852C124.841 123.524 124.654 123.183 124.489 122.832C118.654 112.072 112.82 101.23 106.986 90.3064C101.478 79.945 96.0286 69.4899 90.6377 58.9409C85.3518 48.392 79.8909 37.8431 74.71 27.2942C80.836 37.1047 86.647 47.1965 92.598 57.1125C98.549 67.0285 104.36 77.2258 110.101 87.3879C116.542 98.6401 122.948 109.998 129.319 121.461L143.847 147.2C152.984 143.684 162.19 140.414 171.327 137.144C183.544 132.713 195.831 128.282 208.013 123.957C218.97 120.125 229.927 116.292 240.919 112.565C251.911 108.837 262.868 105.005 273.965 101.488Z" fill="black"/>
<path opacity="0.2" d="M128.725 124.309H128.374L124.279 125.786C117.698 128.177 111.081 130.322 104.43 132.291C96.3089 134.788 88.0825 137.038 79.9261 139.324C71.7696 141.609 63.4382 143.473 55.1068 145.266C46.7753 147.06 38.4439 148.783 29.9724 150.048C37.9888 146.989 46.1102 144.387 54.2316 141.891C62.353 139.394 70.6144 137.179 78.7359 134.858C86.8573 132.537 95.2588 130.674 103.59 128.88C110.206 127.403 116.893 126.067 123.649 124.942L128.34 124.204L128.725 124.309Z" fill="black"/>
<path opacity="0.2" d="M228.037 224.067C222.471 217.561 217.22 210.775 212.109 203.953C206.998 197.132 202.062 190.169 197.161 183.172C192.261 176.174 187.605 169.107 183.159 161.793C179.448 155.921 175.843 150.013 172.447 143.93C171.677 142.629 170.977 141.328 170.277 140.027C170.283 139.933 170.283 139.839 170.277 139.746L170.522 139.992L173.602 143.508C177.978 148.782 182.109 154.057 186.239 159.648C191.35 166.505 196.251 173.467 201.117 180.464C205.983 187.462 210.709 194.53 215.119 201.844C219.53 209.157 223.976 216.507 228.037 224.067Z" fill="black"/>
<path d="M307.143 9.99848L284.9 26.8793L285.98 59.1165L265.626 42.9979L254.381 52.5929L211.649 0L307.143 9.99848Z" fill="#F5CF48"/>
<path d="M276.534 33.739C276.534 34.7254 285.98 59.1163 285.98 59.1163L265.626 42.9977L276.534 33.739Z" fill="#F5CF48"/>
<g opacity="0.3">
<path opacity="0.3" d="M276.533 33.739C276.533 34.7254 285.979 59.1163 285.979 59.1163L265.626 42.9977L276.533 33.739Z" fill="black"/>
</g>
<path d="M211.649 0L276.534 33.7392L285.979 59.1165L284.9 26.8793L211.649 0Z" fill="#F5CF48"/>
<path opacity="0.1" d="M211.649 0L276.534 33.7392L285.979 59.1165L284.9 26.8793L211.649 0Z" fill="black"/>
<path d="M302.002 32.8232C300.007 32.8522 298.022 32.5413 296.132 31.904C294.151 31.6616 292.23 31.0614 290.464 30.133C292.47 29.8705 294.508 30.0699 296.424 30.7159C298.427 30.9604 300.34 31.6833 302.002 32.8232Z" fill="#3F1E4B"/>
<path d="M323.773 42.1266C320 40.8925 316.43 39.1098 313.18 36.8359C315.188 37.0262 317.122 37.6868 318.825 38.7639C321.771 40.2435 323.953 41.8351 323.773 42.1266Z" fill="#3F1E4B"/>
<path d="M342.642 56.3846C342.394 56.6312 340.393 54.9498 337.874 52.8425C335.355 50.7353 333.376 48.9418 333.668 48.6504C335.586 49.3258 337.319 50.439 338.728 51.901C341.18 54.0531 342.889 56.1604 342.642 56.3846Z" fill="#3F1E4B"/>
<path d="M357.035 75.1038C356.721 75.2607 355.236 73.0861 353.437 70.396C352.177 68.8542 351.189 67.1108 350.513 65.2398C350.761 65.0381 352.65 66.966 354.472 69.7234C355.741 71.2896 356.62 73.1335 357.035 75.1038Z" fill="#3F1E4B"/>
<path d="M365.2 97.2302C364.235 95.4916 363.566 93.6052 363.221 91.6481C362.469 89.8003 362.05 87.8347 361.984 85.8418C363.199 87.4555 364.023 89.3278 364.39 91.3118C365.146 93.1877 365.425 95.221 365.2 97.2302Z" fill="#3F1E4B"/>
<path d="M366.414 120.769C366.012 118.822 365.929 116.824 366.166 114.851C365.997 112.869 366.18 110.873 366.707 108.955C367.394 110.848 367.632 112.873 367.404 114.873C367.546 116.889 367.207 118.909 366.414 120.769Z" fill="#3F1E4B"/>
<path d="M360.274 143.501C360.516 141.533 361.078 139.618 361.938 137.83C362.397 135.907 363.156 134.069 364.187 132.382C364.297 134.402 363.887 136.416 362.995 138.233C362.537 140.186 361.603 141.996 360.274 143.501Z" fill="#3F1E4B"/>
<path d="M346.533 162.646C346.308 162.377 348.062 160.405 350.199 157.983C352.336 155.562 354.045 153.5 354.337 153.746C353.699 155.666 352.594 157.399 351.121 158.79C348.94 161.301 346.758 162.893 346.533 162.646Z" fill="#3F1E4B"/>
<path d="M326.696 175.379C328.216 174.098 329.932 173.069 331.779 172.331C333.44 171.233 335.272 170.415 337.199 169.909C335.893 171.461 334.225 172.669 332.341 173.429C330.65 174.533 328.711 175.203 326.696 175.379Z" fill="#3F1E4B"/>
<path d="M303.621 180.334C305.503 179.645 307.487 179.273 309.491 179.236C311.437 178.79 313.442 178.662 315.429 178.855C313.663 179.852 311.678 180.399 309.649 180.446C307.663 180.92 305.588 180.882 303.621 180.334Z" fill="#3F1E4B"/>
<path d="M280.457 175.962C284.303 176.761 288.067 177.909 291.702 179.392C289.686 179.643 287.64 179.365 285.765 178.585C283.795 178.19 281.965 177.286 280.457 175.962Z" fill="#3F1E4B"/>
<path d="M264.038 159.732C264.376 159.62 265.41 161.974 267.254 164.619C269.099 167.264 270.875 169.103 270.628 169.439C270.381 169.775 268.177 168.094 266.242 165.336C264.882 163.777 264.103 161.797 264.038 159.732Z" fill="#3F1E4B"/>
<path d="M274.024 141.371C274.024 141.73 271.573 142.514 269.009 144.33C266.445 146.146 265.073 148.41 264.758 148.231C264.443 148.052 265.433 145.362 268.289 143.344C269.879 141.982 271.93 141.277 274.024 141.371Z" fill="#3F1E4B"/>
<path d="M294.355 149.779C294.04 149.958 292.601 147.761 290.262 145.609C287.923 143.457 285.539 142.381 285.764 142.044C287.853 142.209 289.801 143.163 291.207 144.712C292.822 145.979 293.937 147.773 294.355 149.779Z" fill="#3F1E4B"/>
<path d="M295.121 172.667C295.288 170.714 295.657 168.783 296.223 166.906C296.391 164.945 296.76 163.007 297.325 161.122C297.928 163.079 297.928 165.172 297.325 167.13C297.17 169.156 296.401 171.087 295.121 172.667Z" fill="#3F1E4B"/>
<path d="M279.715 190.265C279.512 189.974 281.559 188.292 284.01 186.208C286.462 184.123 288.508 182.329 288.666 182.553C288.823 182.778 287.361 184.975 284.82 187.037C282.278 189.099 279.894 190.557 279.715 190.265Z" fill="#3F1E4B"/>
<path d="M258.686 201.16C260.174 199.819 261.918 198.789 263.814 198.134C265.543 197.117 267.465 196.469 269.459 196.229C266.251 198.602 262.582 200.282 258.686 201.16Z" fill="#3F1E4B"/>
<path d="M237.522 211.876C237.342 211.585 239.479 209.993 242.313 208.289C243.966 207.139 245.856 206.373 247.845 206.047C248.025 206.384 245.731 207.751 242.92 209.365C241.314 210.565 239.476 211.42 237.522 211.876Z" fill="#3F1E4B"/>
<path d="M219.53 227.3C219.283 227.076 220.834 224.879 223.196 222.57C224.498 221.032 226.137 219.813 227.986 219.005C228.211 219.274 226.39 221.247 224.073 223.489C221.757 225.731 219.89 227.524 219.53 227.3Z" fill="#3F1E4B"/>
<path d="M206.035 246.625C206.412 244.646 207.244 242.782 208.464 241.177C210.196 238.375 211.973 236.357 212.242 236.559C211.659 238.463 210.737 240.247 209.521 241.827C207.812 244.584 206.35 246.781 206.035 246.625Z" fill="#3F1E4B"/>
<path d="M197.399 268.594C197.285 266.585 197.655 264.579 198.479 262.743C198.902 260.771 199.789 258.927 201.065 257.362C200.407 261.259 199.171 265.037 197.399 268.571V268.594Z" fill="#3F1E4B"/>
<path d="M267.71 169.542L100.781 179.651L107.164 286L274.093 275.891L267.71 169.542Z" fill="#7165E3"/>
<path opacity="0.2" d="M267.72 169.633C261.44 176.509 254.846 183.132 248.441 189.882C242.035 196.631 235.504 203.191 228.973 209.815C222.442 216.438 215.346 223.503 208.501 230.253L207.873 230.947L189.661 248.862L188.719 249.682L187.777 248.925L167.556 233.344L166.865 232.776L144.006 215.051C136.764 209.331 129.542 203.528 122.341 197.64C115.119 191.711 107.897 185.907 100.801 179.852C108.274 184.961 115.684 190.386 123.094 195.622C130.505 200.857 137.915 206.346 145.325 211.833C152.735 217.321 161.779 224.008 169.942 230.19L188.342 244.067C193.869 238.706 199.395 233.344 204.984 228.045L227.277 206.787L247.373 187.863C254.218 181.87 260.875 175.562 267.72 169.633Z" fill="black"/>
<path opacity="0.2" d="M170.319 232.46L167.87 234.857C163.851 238.705 159.769 242.364 155.625 245.896C150.538 250.312 145.326 254.538 140.113 258.512C134.901 262.486 129.563 266.776 124.162 270.75C118.762 274.724 113.235 278.572 107.521 282.167C112.356 277.436 117.38 272.958 122.404 268.605C127.428 264.253 132.703 259.963 137.915 255.989C143.128 252.015 148.528 247.726 153.929 243.752C158.262 240.598 162.658 237.444 167.117 234.479L170.319 232.46Z" fill="black"/>
<path opacity="0.2" d="M273.498 272.58C267.218 269.679 261.503 266.272 255.663 263.182C249.822 260.091 244.045 256.432 238.33 253.026C232.616 249.619 226.964 245.897 221.375 242.113C216.853 239.085 212.332 235.805 207.999 232.651L205.173 230.569L208.564 232.209C213.336 234.606 218.046 237.192 222.756 239.842C228.576 243.122 234.353 246.528 240.089 250.061C245.803 253.593 251.455 257.189 256.981 260.911C262.508 264.632 268.16 268.417 273.498 272.58Z" fill="black"/>
<path d="M66.9027 144.211C65.2608 150.653 61.7394 156.465 56.784 160.911C51.8285 165.358 45.6615 168.241 39.0627 169.194C32.4638 170.148 25.7296 169.129 19.7114 166.268C13.6932 163.406 8.66131 158.83 5.25204 153.118C1.84277 147.407 0.209184 140.815 0.557858 134.178C0.906533 127.541 3.2218 121.156 7.21091 115.83C11.2 110.504 16.6838 106.477 22.9689 104.258C29.254 102.039 36.0582 101.727 42.521 103.362C51.1868 105.559 58.623 111.096 63.1949 118.756C67.7669 126.416 69.1005 135.572 66.9027 144.211Z" fill="#7165E3"/>
<path d="M46.6712 117.719C47.2686 117.96 43.4418 129.211 38.1133 142.859C37.3221 144.839 36.4986 146.738 35.8366 148.605L35.433 149.619L34.4157 149.233C23.4843 145.032 15.4916 141.572 15.6853 141.073C15.8791 140.574 24.1786 143.181 35.1907 147.157L33.7698 147.8C34.4803 145.933 35.223 144.018 35.9819 142.038C41.2943 128.374 46.0899 117.542 46.6712 117.719Z" fill="white"/>
</svg>
