<svg width="227" height="370" viewBox="0 0 227 370" fill="none" xmlns="http://www.w3.org/2000/svg">
<path opacity="0.6" d="M35.2271 334.686C35.2271 335.856 34.8802 336.999 34.2302 337.972C33.5802 338.945 32.6564 339.703 31.5755 340.151C30.4946 340.598 29.3052 340.716 28.1578 340.487C27.0103 340.259 25.9563 339.696 25.129 338.869C24.3018 338.041 23.7384 336.987 23.5101 335.84C23.2819 334.692 23.399 333.503 23.8468 332.422C24.2945 331.341 25.0527 330.417 26.0254 329.767C26.9982 329.117 28.1419 328.77 29.3118 328.77C30.8806 328.77 32.3852 329.394 33.4945 330.503C34.6039 331.612 35.2271 333.117 35.2271 334.686Z" fill="#FFC727"/>
<path opacity="0.6" d="M42.4106 323.362C42.4106 323.932 42.2416 324.49 41.9249 324.963C41.6083 325.437 41.1583 325.807 40.6317 326.025C40.1052 326.243 39.5258 326.3 38.9669 326.189C38.4079 326.077 37.8945 325.803 37.4915 325.4C37.0885 324.997 36.814 324.484 36.7028 323.925C36.5916 323.366 36.6487 322.786 36.8668 322.26C37.0849 321.733 37.4542 321.283 37.9281 320.967C38.402 320.65 38.9591 320.481 39.529 320.481C40.2933 320.481 41.0262 320.785 41.5666 321.325C42.107 321.865 42.4106 322.598 42.4106 323.362Z" fill="#FFC727"/>
<path opacity="0.6" d="M168.925 331.825C168.925 332.394 168.756 332.952 168.44 333.425C168.123 333.899 167.673 334.269 167.146 334.487C166.62 334.705 166.04 334.762 165.482 334.651C164.923 334.54 164.409 334.265 164.006 333.862C163.603 333.459 163.329 332.946 163.217 332.387C163.106 331.828 163.163 331.248 163.381 330.722C163.6 330.195 163.969 329.745 164.443 329.429C164.917 329.112 165.474 328.943 166.044 328.943C166.808 328.943 167.541 329.247 168.081 329.787C168.622 330.327 168.925 331.06 168.925 331.825Z" fill="#FFC727"/>
<path opacity="0.6" d="M226.627 358.134C226.627 358.704 226.458 359.261 226.141 359.735C225.825 360.209 225.375 360.578 224.848 360.796C224.322 361.014 223.742 361.071 223.183 360.96C222.624 360.849 222.111 360.575 221.708 360.172C221.305 359.769 221.03 359.255 220.919 358.696C220.808 358.137 220.865 357.558 221.083 357.031C221.301 356.505 221.671 356.055 222.144 355.738C222.618 355.421 223.175 355.252 223.745 355.252C224.51 355.252 225.242 355.556 225.783 356.096C226.323 356.637 226.627 357.37 226.627 358.134Z" fill="#FFC727"/>
<path opacity="0.6" d="M222.214 366.555C222.214 367.468 221.851 368.342 221.206 368.988C220.561 369.633 219.686 369.995 218.774 369.995H4.5243C4.05756 370.02 3.59056 369.95 3.1518 369.789C2.71303 369.628 2.3117 369.379 1.97233 369.058C1.63296 368.736 1.36266 368.349 1.17794 367.92C0.99322 367.49 0.897949 367.028 0.897949 366.56C0.897949 366.093 0.99322 365.63 1.17794 365.201C1.36266 364.772 1.63296 364.385 1.97233 364.063C2.3117 363.742 2.71303 363.493 3.1518 363.332C3.59056 363.171 4.05756 363.101 4.5243 363.126C4.79744 363.126 5.06975 363.156 5.33601 363.217C5.33932 361.872 5.74261 360.559 6.49458 359.444C7.24654 358.329 8.31317 357.463 9.55877 356.956C10.8044 356.449 12.1726 356.324 13.4894 356.597C14.8062 356.87 16.0121 357.529 16.9535 358.489H17.0144C17.0144 358.073 16.9535 357.647 16.9535 357.221C16.9482 355.045 17.4971 352.905 18.5486 351C19.6 349.096 21.1193 347.491 22.9631 346.336C24.8069 345.182 26.9144 344.516 29.0868 344.402C31.2591 344.288 33.4247 344.729 35.3793 345.684C35.5218 343.62 36.3613 341.665 37.7603 340.14C39.1592 338.615 41.0346 337.611 43.0792 337.291C45.1238 336.971 47.2163 337.356 49.0139 338.381C50.8114 339.407 52.2074 341.012 52.973 342.935C54.1214 341.1 55.7177 339.588 57.6116 338.541C59.5056 337.494 61.6349 336.946 63.7991 336.948C64.6195 336.953 65.4379 337.031 66.2444 337.182C66.0688 336.201 65.9805 335.206 65.9806 334.209C65.9788 330.893 66.9292 327.647 68.7188 324.856C70.5084 322.065 73.062 319.847 76.0758 318.465C79.0896 317.083 82.4368 316.596 85.7195 317.061C89.0022 317.526 92.0822 318.925 94.5932 321.09C94.8811 320.53 95.3172 320.059 95.8539 319.73C96.3907 319.401 97.0075 319.226 97.6371 319.223C98.0896 319.226 98.5373 319.315 98.9561 319.487L102.173 191.004H121.045L124.261 319.487C124.68 319.315 125.128 319.226 125.58 319.223C126.209 319.227 126.826 319.403 127.362 319.732C127.899 320.061 128.335 320.53 128.624 321.09C131.135 318.925 134.215 317.526 137.498 317.061C140.78 316.596 144.128 317.083 147.141 318.465C150.155 319.847 152.709 322.065 154.498 324.856C156.288 327.647 157.238 330.893 157.237 334.209C157.237 335.206 157.148 336.201 156.973 337.182C157.779 337.031 158.598 336.953 159.418 336.948C161.582 336.947 163.711 337.495 165.605 338.542C167.499 339.589 169.095 341.101 170.244 342.935C170.98 340.966 172.372 339.311 174.186 338.249C176 337.188 178.125 336.785 180.202 337.108C182.279 337.431 184.181 338.46 185.587 340.023C186.993 341.585 187.816 343.585 187.919 345.684C189.87 344.731 192.031 344.29 194.199 344.402C196.367 344.513 198.471 345.174 200.314 346.323C202.156 347.471 203.676 349.069 204.731 350.967C205.786 352.864 206.342 354.999 206.345 357.17C206.345 357.596 206.345 358.022 206.284 358.438H206.345C207.286 357.478 208.492 356.819 209.809 356.547C211.126 356.274 212.494 356.399 213.74 356.905C214.985 357.412 216.052 358.278 216.804 359.393C217.556 360.508 217.959 361.822 217.962 363.166C218.229 363.105 218.501 363.074 218.774 363.075C219.229 363.075 219.68 363.165 220.1 363.341C220.52 363.516 220.901 363.773 221.221 364.097C221.541 364.421 221.793 364.805 221.964 365.227C222.134 365.649 222.219 366.1 222.214 366.555Z" fill="#FFC727"/>
<path d="M77.4966 109.508L41.4873 148.775C41.4873 148.775 77.5271 231.203 77.4966 231.772L72.4235 163.101L83.5844 151.605L77.4966 109.508Z" fill="#FFC727"/>
<path opacity="0.1" d="M77.4966 109.508L41.4873 148.775C41.4873 148.775 77.5271 231.203 77.4966 231.772L72.4235 163.101L83.5844 151.605L77.4966 109.508Z" fill="black"/>
<path opacity="0.1" d="M83.5036 151.595L75.904 159.459L61.5063 126.93L77.4969 109.498L83.5036 151.595Z" fill="black"/>
<path d="M146.065 109.508L182.075 148.775C182.075 148.775 146.025 231.203 146.065 231.772L151.189 163.101L140.028 151.605L146.065 109.508Z" fill="#FFC727"/>
<path opacity="0.1" d="M146.065 109.508L182.075 148.775C182.075 148.775 146.025 231.203 146.065 231.772L151.189 163.101L140.028 151.605L146.065 109.508Z" fill="black"/>
<path opacity="0.1" d="M140.048 151.595L147.658 159.459L162.056 126.93L146.065 109.498L140.048 151.595Z" fill="black"/>
<path d="M132.612 178.463H90.8493C90.8493 178.463 71.1756 143.296 73.5092 101.351C74.6862 80.4189 80.1551 59.345 86.6994 41.9035C95.8007 17.7856 107.002 0.709381 111.822 0.709381C116.641 0.709381 127.853 17.8059 136.893 41.9136C143.438 59.3551 148.876 80.4696 150.023 101.381C152.326 143.316 132.612 178.463 132.612 178.463Z" fill="#EBEBEB"/>
<path opacity="0.2" d="M136.782 95.9529C136.78 100.717 135.365 105.374 132.716 109.334C130.067 113.295 126.303 116.38 121.9 118.201C117.498 120.022 112.654 120.497 107.981 119.565C103.309 118.632 99.0181 116.335 95.6512 112.964C92.2844 109.593 89.9929 105.299 89.0666 100.626C88.1403 95.9522 88.6208 91.1089 90.4473 86.7085C92.2738 82.3081 95.3643 78.5481 99.3279 75.9043C103.292 73.2604 107.95 71.8514 112.715 71.8554C115.878 71.8554 119.01 72.4789 121.932 73.6903C124.854 74.9017 127.508 76.6772 129.743 78.9152C131.979 81.1533 133.751 83.81 134.958 86.7335C136.166 89.6569 136.786 92.7898 136.782 95.9529Z" fill="black"/>
<path d="M135.929 93.4976C135.927 98.2603 134.513 102.916 131.866 106.875C129.219 110.834 125.458 113.92 121.057 115.742C116.657 117.564 111.815 118.041 107.144 117.112C102.473 116.183 98.1815 113.89 94.813 110.523C91.4445 107.156 89.1499 102.866 88.219 98.1953C87.2881 93.5244 87.7628 88.6824 89.5831 84.2813C91.4034 79.8801 94.4876 76.1174 98.4458 73.4686C102.404 70.8199 107.059 69.404 111.821 69.4C114.987 69.3974 118.122 70.0188 121.048 71.2287C123.973 72.4387 126.632 74.2134 128.871 76.4515C131.11 78.6895 132.885 81.347 134.097 84.2719C135.308 87.1968 135.93 90.3318 135.929 93.4976Z" fill="#FFC727"/>
<path opacity="0.1" d="M135.929 93.4976C135.927 98.2603 134.513 102.916 131.866 106.875C129.219 110.834 125.458 113.92 121.057 115.742C116.657 117.564 111.815 118.041 107.144 117.112C102.473 116.183 98.1815 113.89 94.813 110.523C91.4445 107.156 89.1499 102.866 88.219 98.1953C87.2881 93.5244 87.7628 88.6824 89.5831 84.2813C91.4034 79.8801 94.4876 76.1174 98.4458 73.4686C102.404 70.8199 107.059 69.404 111.821 69.4C114.987 69.3974 118.122 70.0188 121.048 71.2287C123.973 72.4387 126.632 74.2134 128.871 76.4515C131.11 78.6895 132.885 81.347 134.097 84.2719C135.308 87.1968 135.93 90.3318 135.929 93.4976Z" fill="black"/>
<path d="M128.543 93.4772C128.549 96.7807 127.575 100.012 125.744 102.762C123.914 105.512 121.309 107.657 118.259 108.927C115.209 110.196 111.851 110.532 108.61 109.893C105.369 109.253 102.39 107.667 100.051 105.335C97.7111 103.002 96.1159 100.029 95.4667 96.7895C94.8176 93.5503 95.1436 90.1914 96.4037 87.1376C97.6637 84.0838 99.8011 81.4723 102.546 79.6334C105.29 77.7945 108.518 76.8108 111.822 76.8068C116.249 76.8014 120.498 78.5544 123.633 81.6804C126.769 84.8064 128.535 89.0496 128.543 93.4772Z" fill="#455A64"/>
<g opacity="0.4">
<path opacity="0.4" d="M128.553 93.4772C128.557 95.5595 128.172 97.6243 127.417 99.565L117.91 109.052C115.969 109.806 113.904 110.188 111.822 110.178C110.312 110.18 108.81 109.972 107.357 109.559L127.934 88.9823C128.345 90.4452 128.554 91.9576 128.553 93.4772Z" fill="white"/>
<path opacity="0.4" d="M114.297 76.959L95.3238 95.9326C95.2067 95.1227 95.1457 94.3057 95.1411 93.4874C95.1492 89.0659 96.9092 84.8278 100.036 81.7013C103.162 78.5749 107.4 76.8149 111.822 76.8068C112.649 76.7995 113.477 76.8503 114.297 76.959Z" fill="white"/>
<path opacity="0.4" d="M126.463 85.3906L103.766 108.088C103.325 107.853 102.898 107.592 102.487 107.307L125.672 84.1121C125.956 84.518 126.209 84.9238 126.463 85.3906Z" fill="white"/>
</g>
<path d="M136.934 41.9136H86.7402C95.8009 17.7856 107.002 0.709381 111.822 0.709381C116.641 0.709381 127.894 17.8059 136.934 41.9136Z" fill="#FFC727"/>
<g opacity="0.1">
<path opacity="0.1" d="M95.3846 36.6984C95.3846 36.9773 95.3019 37.25 95.147 37.4819C94.992 37.7139 94.7717 37.8946 94.514 38.0014C94.2563 38.1081 93.9727 38.1361 93.6992 38.0816C93.4256 38.0272 93.1743 37.8929 92.977 37.6957C92.7798 37.4984 92.6455 37.2471 92.5911 36.9735C92.5366 36.7 92.5646 36.4164 92.6713 36.1587C92.7781 35.901 92.9588 35.6807 93.1908 35.5257C93.4227 35.3708 93.6954 35.2881 93.9743 35.2881C94.1599 35.2867 94.3439 35.3223 94.5156 35.3927C94.6873 35.4631 94.8433 35.5669 94.9746 35.6981C95.1058 35.8294 95.2096 35.9854 95.28 36.1571C95.3504 36.3288 95.386 36.5128 95.3846 36.6984Z" fill="black"/>
<path opacity="0.1" d="M104.313 36.6985C104.315 36.9782 104.234 37.2523 104.08 37.4858C103.926 37.7193 103.706 37.9016 103.447 38.0096C103.189 38.1176 102.905 38.1464 102.63 38.0923C102.356 38.0382 102.104 37.9037 101.906 37.7058C101.708 37.508 101.573 37.2557 101.519 36.9812C101.465 36.7067 101.494 36.4223 101.602 36.1642C101.71 35.9061 101.892 35.6859 102.126 35.5317C102.359 35.3775 102.633 35.2962 102.913 35.2983C103.284 35.3009 103.638 35.4493 103.9 35.7113C104.162 35.9733 104.311 36.3279 104.313 36.6985Z" fill="black"/>
<path opacity="0.1" d="M113.242 36.7086C113.243 36.895 113.207 37.0799 113.136 37.2523C113.065 37.4247 112.961 37.5811 112.828 37.7125C112.696 37.8439 112.539 37.9475 112.366 38.0173C112.193 38.0871 112.008 38.1216 111.821 38.1189C111.542 38.1209 111.268 38.0399 111.035 37.8862C110.802 37.7324 110.619 37.5129 110.511 37.2554C110.403 36.9978 110.373 36.714 110.427 36.4397C110.48 36.1655 110.614 35.9132 110.81 35.715C111.007 35.5167 111.258 35.3814 111.532 35.3261C111.806 35.2709 112.09 35.2982 112.349 35.4047C112.607 35.5111 112.828 35.6918 112.983 35.924C113.139 36.1561 113.222 36.4292 113.222 36.7086H113.242Z" fill="black"/>
<path opacity="0.1" d="M122.171 36.7188C122.171 36.9981 122.088 37.2712 121.932 37.5033C121.777 37.7355 121.556 37.9162 121.298 38.0227C121.039 38.1291 120.755 38.1565 120.482 38.1012C120.208 38.046 119.956 37.9106 119.76 37.7124C119.563 37.5141 119.429 37.2619 119.376 36.9876C119.323 36.7134 119.352 36.4295 119.46 36.172C119.569 35.9145 119.751 35.6949 119.984 35.5412C120.218 35.3874 120.491 35.3064 120.771 35.3084C120.955 35.3084 121.138 35.345 121.309 35.416C121.479 35.487 121.634 35.591 121.764 35.7221C121.894 35.8532 121.997 36.0088 122.067 36.1798C122.137 36.3509 122.172 36.534 122.171 36.7188Z" fill="black"/>
<path opacity="0.1" d="M131.1 36.7188C131.102 36.9986 131.021 37.2727 130.867 37.5061C130.712 37.7396 130.492 37.922 130.234 38.03C129.976 38.138 129.692 38.1667 129.417 38.1126C129.142 38.0585 128.89 37.924 128.692 37.7262C128.495 37.5283 128.36 37.2761 128.306 37.0016C128.252 36.7271 128.281 36.4426 128.389 36.1845C128.497 35.9264 128.679 35.7063 128.912 35.5521C129.146 35.3979 129.42 35.3166 129.7 35.3186C130.071 35.3186 130.427 35.4661 130.69 35.7287C130.952 35.9913 131.1 36.3474 131.1 36.7188Z" fill="black"/>
</g>
<path d="M95.3241 172.02C95.3241 172.299 95.2411 172.572 95.0857 172.804C94.9303 173.037 94.7094 173.217 94.4511 173.324C94.1928 173.43 93.9087 173.458 93.6349 173.402C93.361 173.347 93.1097 173.212 92.9129 173.013C92.7161 172.815 92.5826 172.563 92.5293 172.289C92.476 172.015 92.5054 171.731 92.6137 171.473C92.722 171.216 92.9044 170.996 93.1376 170.842C93.3709 170.689 93.6445 170.608 93.9239 170.61C94.1086 170.61 94.2915 170.646 94.4621 170.717C94.6326 170.788 94.7874 170.892 94.9176 171.023C95.0477 171.154 95.1507 171.31 95.2204 171.481C95.2902 171.652 95.3254 171.835 95.3241 172.02Z" fill="#FFC727"/>
<path d="M104.252 172.02C104.254 172.3 104.173 172.574 104.019 172.807C103.865 173.041 103.644 173.223 103.386 173.331C103.128 173.439 102.844 173.468 102.569 173.414C102.295 173.36 102.043 173.225 101.845 173.027C101.647 172.829 101.512 172.577 101.458 172.303C101.404 172.028 101.433 171.744 101.541 171.486C101.649 171.227 101.831 171.007 102.065 170.853C102.298 170.699 102.572 170.618 102.852 170.62C103.223 170.62 103.58 170.767 103.842 171.03C104.105 171.292 104.252 171.649 104.252 172.02Z" fill="#FFC727"/>
<path d="M113.181 172.03C113.181 172.309 113.098 172.582 112.943 172.815C112.787 173.047 112.566 173.227 112.308 173.334C112.05 173.44 111.766 173.468 111.492 173.412C111.218 173.357 110.967 173.222 110.77 173.024C110.573 172.825 110.439 172.573 110.386 172.299C110.333 172.025 110.362 171.741 110.471 171.483C110.579 171.226 110.761 171.006 110.995 170.852C111.228 170.699 111.501 170.618 111.781 170.62C111.966 170.62 112.148 170.656 112.319 170.727C112.49 170.798 112.644 170.902 112.775 171.033C112.905 171.164 113.008 171.32 113.077 171.491C113.147 171.662 113.182 171.845 113.181 172.03Z" fill="#FFC727"/>
<path d="M122.12 172.03C122.122 172.309 122.041 172.583 121.888 172.816C121.734 173.05 121.514 173.232 121.257 173.34C120.999 173.449 120.715 173.478 120.441 173.425C120.167 173.371 119.915 173.238 119.716 173.041C119.518 172.844 119.383 172.593 119.328 172.319C119.272 172.045 119.3 171.761 119.406 171.503C119.513 171.245 119.693 171.024 119.926 170.868C120.158 170.713 120.431 170.63 120.71 170.63C121.082 170.63 121.44 170.777 121.704 171.039C121.968 171.302 122.118 171.658 122.12 172.03Z" fill="#FFC727"/>
<path d="M131.1 172.04C131.116 172.235 131.092 172.431 131.029 172.616C130.966 172.8 130.865 172.97 130.733 173.114C130.601 173.258 130.441 173.372 130.262 173.451C130.083 173.53 129.89 173.57 129.694 173.57C129.499 173.57 129.306 173.53 129.127 173.451C128.948 173.372 128.788 173.258 128.656 173.114C128.524 172.97 128.423 172.8 128.36 172.616C128.297 172.431 128.273 172.235 128.289 172.04C128.288 171.856 128.323 171.673 128.393 171.503C128.463 171.332 128.566 171.177 128.696 171.047C128.827 170.917 128.982 170.814 129.152 170.744C129.322 170.674 129.505 170.639 129.689 170.64C129.874 170.639 130.057 170.674 130.228 170.744C130.399 170.813 130.555 170.916 130.686 171.047C130.817 171.177 130.921 171.332 130.992 171.502C131.063 171.673 131.1 171.856 131.1 172.04Z" fill="#FFC727"/>
<path d="M128.755 191.014L94.7957 190.994L93.2129 178.443L130.359 178.473L128.755 191.014Z" fill="#FFC727"/>
<path opacity="0.1" d="M128.755 191.014L94.7957 190.994L93.2129 178.443L130.359 178.473L128.755 191.014Z" fill="black"/>
<path opacity="0.1" d="M130.359 178.473L129.567 184.581L93.8115 183.242L93.2129 178.443L130.359 178.473Z" fill="black"/>
<path d="M164.897 340.033L160.686 340.814L159.742 345.248L158.799 340.814L154.598 340.033L158.789 339.008L159.742 334.818L160.706 339.008L164.897 340.033Z" fill="#FCFCFC"/>
<path d="M123.957 304.46L119.746 305.231L118.813 309.675L117.869 305.231L113.658 304.46L117.849 303.435L118.813 299.245L119.766 303.435L123.957 304.46Z" fill="#FCFCFC"/>
<path d="M109.873 198.948L105.663 199.729L104.719 204.163L103.775 199.729L99.5747 198.948L103.765 197.923L104.719 193.733L105.683 197.923L109.873 198.948Z" fill="#FCFCFC"/>
<path d="M62.7945 348.485L60.4507 348.921L59.9231 351.397L59.3955 348.921L57.0415 348.485L59.3853 347.906L59.9231 345.563L60.4608 347.906L62.7945 348.485Z" fill="#FCFCFC"/>
<path d="M189.36 355.881L187.006 356.318L186.488 358.793L185.961 356.318L183.607 355.881L185.951 355.303L186.488 352.959L187.016 355.303L189.36 355.881Z" fill="#FCFCFC"/>
<path d="M30.4273 364.567L28.0733 365.003L27.5457 367.489L27.0283 365.003L24.6743 364.567L27.008 363.998L27.5457 361.655L28.0835 363.998L30.4273 364.567Z" fill="#FCFCFC"/>
<path d="M132.744 362.507L130.39 362.943L129.872 365.419L129.345 362.943L126.991 362.507L129.335 361.929L129.872 359.595L130.4 361.929L132.744 362.507Z" fill="#FCFCFC"/>
<path d="M115.525 297.713L113.171 298.149L112.643 300.625L112.116 298.149L109.772 297.713L112.106 297.144L112.643 294.801L113.181 297.144L115.525 297.713Z" fill="#FCFCFC"/>
<path d="M121.846 233.507L119.492 233.943L118.965 236.419L118.437 233.943L116.093 233.507L118.427 232.938L118.965 230.595L119.502 232.938L121.846 233.507Z" fill="#FCFCFC"/>
<path d="M194.93 361.239C194.763 361.259 194.609 361.34 194.497 361.466C194.385 361.592 194.324 361.755 194.324 361.924C194.324 362.092 194.385 362.255 194.497 362.381C194.609 362.507 194.763 362.588 194.93 362.608C195.097 362.588 195.251 362.507 195.363 362.381C195.475 362.255 195.537 362.092 195.537 361.924C195.537 361.755 195.475 361.592 195.363 361.466C195.251 361.34 195.097 361.259 194.93 361.239Z" fill="#FCFCFC"/>
<path d="M106.424 289.108C106.257 289.129 106.103 289.21 105.991 289.336C105.879 289.462 105.817 289.625 105.817 289.793C105.817 289.962 105.879 290.125 105.991 290.251C106.103 290.377 106.257 290.458 106.424 290.478C106.591 290.458 106.745 290.377 106.857 290.251C106.969 290.125 107.03 289.962 107.03 289.793C107.03 289.625 106.969 289.462 106.857 289.336C106.745 289.21 106.591 289.129 106.424 289.108Z" fill="#FCFCFC"/>
<path d="M117.777 203.484C117.597 203.484 117.424 203.555 117.297 203.683C117.169 203.81 117.098 203.983 117.098 204.163C117.098 204.344 117.169 204.517 117.297 204.644C117.424 204.772 117.597 204.843 117.777 204.843C117.958 204.843 118.131 204.772 118.258 204.644C118.386 204.517 118.457 204.344 118.457 204.163C118.457 203.983 118.386 203.81 118.258 203.683C118.131 203.555 117.958 203.484 117.777 203.484Z" fill="#FCFCFC"/>
<path d="M48.2451 364.567C48.0778 364.587 47.9238 364.668 47.8121 364.794C47.7004 364.92 47.6387 365.083 47.6387 365.252C47.6387 365.42 47.7004 365.583 47.8121 365.709C47.9238 365.835 48.0778 365.916 48.2451 365.936C48.4124 365.916 48.5664 365.835 48.6781 365.709C48.7899 365.583 48.8515 365.42 48.8515 365.252C48.8515 365.083 48.7899 364.92 48.6781 364.794C48.5664 364.668 48.4124 364.587 48.2451 364.567Z" fill="#FCFCFC"/>
<path d="M91.4576 355.202C91.2773 355.202 91.1044 355.273 90.9769 355.401C90.8495 355.528 90.7778 355.701 90.7778 355.881C90.7778 356.062 90.8495 356.235 90.9769 356.362C91.1044 356.49 91.2773 356.561 91.4576 356.561C91.6379 356.561 91.8108 356.49 91.9383 356.362C92.0658 356.235 92.1375 356.062 92.1375 355.881C92.1375 355.701 92.0658 355.528 91.9383 355.401C91.8108 355.273 91.6379 355.202 91.4576 355.202Z" fill="#FCFCFC"/>
<path d="M177.844 348.982C177.728 348.999 177.622 349.057 177.545 349.145C177.469 349.234 177.427 349.347 177.427 349.464C177.427 349.581 177.469 349.694 177.545 349.783C177.622 349.871 177.728 349.929 177.844 349.946C177.959 349.929 178.065 349.871 178.142 349.783C178.218 349.694 178.261 349.581 178.261 349.464C178.261 349.347 178.218 349.234 178.142 349.145C178.065 349.057 177.959 348.999 177.844 348.982Z" fill="#FCFCFC"/>
<path d="M118.245 341.748C118.129 341.764 118.023 341.822 117.946 341.911C117.87 341.999 117.828 342.113 117.828 342.23C117.828 342.347 117.87 342.46 117.946 342.548C118.023 342.637 118.129 342.695 118.245 342.712C118.36 342.695 118.466 342.637 118.543 342.548C118.619 342.46 118.661 342.347 118.661 342.23C118.661 342.113 118.619 341.999 118.543 341.911C118.466 341.822 118.36 341.764 118.245 341.748Z" fill="#FCFCFC"/>
<path d="M109.792 219.393C109.677 219.41 109.571 219.468 109.494 219.556C109.418 219.645 109.375 219.758 109.375 219.875C109.375 219.992 109.418 220.105 109.494 220.194C109.571 220.282 109.677 220.34 109.792 220.357C109.908 220.34 110.014 220.282 110.091 220.194C110.167 220.105 110.209 219.992 110.209 219.875C110.209 219.758 110.167 219.645 110.091 219.556C110.014 219.468 109.908 219.41 109.792 219.393Z" fill="#FCFCFC"/>
<path d="M74.6152 332.322C74.4994 332.339 74.3935 332.397 74.3169 332.485C74.2404 332.574 74.1982 332.687 74.1982 332.804C74.1982 332.921 74.2404 333.034 74.3169 333.122C74.3935 333.211 74.4994 333.269 74.6152 333.286C74.731 333.269 74.8368 333.211 74.9134 333.122C74.9899 333.034 75.0321 332.921 75.0321 332.804C75.0321 332.687 74.9899 332.574 74.9134 332.485C74.8368 332.397 74.731 332.339 74.6152 332.322Z" fill="#FCFCFC"/>
<path d="M149.262 334.29C148.915 334.29 148.582 334.428 148.336 334.673C148.091 334.919 147.953 335.252 147.953 335.599C147.953 335.946 148.091 336.279 148.336 336.524C148.582 336.77 148.915 336.908 149.262 336.908C149.609 336.908 149.942 336.77 150.188 336.524C150.433 336.279 150.571 335.946 150.571 335.599C150.571 335.252 150.433 334.919 150.188 334.673C149.942 334.428 149.609 334.29 149.262 334.29Z" fill="#FCFCFC"/>
<path d="M80.7937 327.888C80.4466 327.888 80.1137 328.026 79.8682 328.271C79.6228 328.517 79.4849 328.849 79.4849 329.197C79.4849 329.544 79.6228 329.877 79.8682 330.122C80.1137 330.368 80.4466 330.505 80.7937 330.505C81.1409 330.505 81.4738 330.368 81.7192 330.122C81.9647 329.877 82.1026 329.544 82.1026 329.197C82.1026 328.849 81.9647 328.517 81.7192 328.271C81.4738 328.026 81.1409 327.888 80.7937 327.888Z" fill="#FCFCFC"/>
<path d="M112.644 248.98C112.297 248.98 111.964 249.118 111.718 249.363C111.473 249.609 111.335 249.942 111.335 250.289C111.335 250.636 111.473 250.969 111.718 251.214C111.964 251.46 112.297 251.598 112.644 251.598C112.991 251.598 113.324 251.46 113.569 251.214C113.815 250.969 113.953 250.636 113.953 250.289C113.953 249.942 113.815 249.609 113.569 249.363C113.324 249.118 112.991 248.98 112.644 248.98Z" fill="#FCFCFC"/>
</svg>
