<svg width="204" height="363" viewBox="0 0 204 363" fill="none" xmlns="http://www.w3.org/2000/svg">
<path d="M181.906 293.512L24.1722 293.926C19.9403 293.933 15.8781 292.262 12.8764 289.279C9.87465 286.296 8.17837 282.244 8.15952 278.013L7.51844 27.8357C7.51282 25.7398 7.92056 23.6634 8.71828 21.7253C9.51601 19.7872 10.6881 18.0254 12.1674 16.5408C13.6468 15.0561 15.4044 13.8778 17.3396 13.0731C19.2749 12.2685 21.3498 11.8534 23.4456 11.8515L181.108 11.4384C183.059 11.4327 184.991 11.8116 186.795 12.5533C188.599 13.295 190.24 14.385 191.622 15.761C193.005 17.137 194.103 18.772 194.853 20.5725C195.603 22.373 195.991 24.3038 195.995 26.2544L196.779 278.611C196.784 280.567 196.404 282.505 195.659 284.314C194.914 286.122 193.819 287.766 192.437 289.15C191.055 290.535 189.413 291.633 187.606 292.381C185.799 293.13 183.862 293.514 181.906 293.512V293.512Z" fill="#DBB83E"/>
<path d="M46.2963 265.506C43.3913 265.515 40.5491 264.662 38.129 263.055C35.709 261.448 33.8197 259.159 32.7003 256.479C31.5808 253.798 31.2813 250.846 31.8398 247.995C32.3982 245.144 33.7895 242.523 35.8376 240.463C37.8857 238.403 40.4988 236.997 43.3462 236.421C46.1937 235.846 49.1478 236.129 51.8349 237.233C54.5219 238.336 56.8213 240.212 58.4423 242.623C60.0632 245.034 60.9329 247.871 60.9413 250.776C60.947 252.705 60.5726 254.616 59.8397 256.4C59.1067 258.184 58.0295 259.806 56.6696 261.174C55.3097 262.542 53.6937 263.629 51.9138 264.372C50.134 265.115 48.2251 265.501 46.2963 265.506V265.506Z" fill="#F42E2E"/>
<path d="M46.3534 283.585C43.4485 283.593 40.6063 282.74 38.1862 281.133C35.7661 279.526 33.8769 277.238 32.7574 274.557C31.6379 271.877 31.3385 268.924 31.8969 266.074C32.4553 263.223 33.8466 260.602 35.8948 258.541C37.9429 256.481 40.5559 255.075 43.4034 254.5C46.2509 253.925 49.2049 254.207 51.892 255.311C54.5791 256.415 56.8784 258.291 58.4994 260.701C60.1203 263.112 60.99 265.949 60.9985 268.854C61.0061 272.749 59.4683 276.487 56.7226 279.248C53.9769 282.01 50.2477 283.57 46.3534 283.585Z" fill="#FFC727"/>
<path d="M169.131 94.44L169.024 53.4539C169.015 50.1494 166.329 47.4776 163.025 47.4862L138.393 47.5507C135.089 47.5594 132.417 50.2452 132.426 53.5497L132.533 94.5358C132.542 97.8403 135.228 100.512 138.532 100.504L163.164 100.439C166.468 100.43 169.14 97.7445 169.131 94.44Z" fill="#FFC727"/>
<path d="M149.524 273.313L149.453 249.351C149.442 248.035 149.691 246.729 150.187 245.509C150.683 244.289 151.416 243.18 152.343 242.244C153.271 241.309 154.374 240.567 155.589 240.061C156.805 239.554 158.108 239.293 159.425 239.293C160.742 239.282 162.048 239.532 163.268 240.028C164.488 240.524 165.597 241.257 166.532 242.184C167.467 243.111 168.209 244.214 168.716 245.43C169.222 246.645 169.483 247.949 169.483 249.266L169.554 273.228C169.566 274.545 169.316 275.851 168.82 277.07C168.324 278.29 167.591 279.4 166.664 280.335C165.737 281.27 164.634 282.012 163.418 282.518C162.203 283.025 160.899 283.286 159.582 283.286V283.286C158.265 283.297 156.959 283.047 155.739 282.551C154.52 282.055 153.41 281.322 152.475 280.395C151.54 279.468 150.798 278.365 150.291 277.149C149.785 275.934 149.524 274.63 149.524 273.313V273.313Z" fill="#FFC727"/>
<path d="M99.0501 45.7024L97.7679 43.537C97.7188 43.4598 97.6894 43.3717 97.6824 43.2805C97.6793 43.1864 97.7014 43.0931 97.7465 43.0105C97.7916 42.9278 97.858 42.8587 97.9389 42.8104C97.9989 42.773 98.0661 42.7484 98.1361 42.7382C98.2061 42.728 98.2776 42.7324 98.3458 42.7512C98.414 42.7699 98.4777 42.8025 98.5327 42.8471C98.5877 42.8916 98.6329 42.947 98.6654 43.0098L100.475 45.973C100.538 46.0949 100.553 46.2363 100.516 46.3686C100.479 46.5008 100.393 46.6141 100.275 46.6853C100.156 46.7585 100.014 46.7839 99.8764 46.7566L85.7726 46.7566C85.7034 46.7566 85.6349 46.7429 85.5709 46.7165C85.507 46.69 85.4489 46.6511 85.3999 46.6022C85.351 46.5533 85.3121 46.4951 85.2857 46.4312C85.2592 46.3672 85.2455 46.2987 85.2455 46.2295C85.2491 46.0908 85.3058 45.9588 85.4039 45.8607C85.502 45.7627 85.634 45.706 85.7726 45.7024L99.0501 45.7024Z" fill="#E0BC38"/>
<path d="M86.2001 50.5603L92.6963 57.6834C93.4029 58.4579 94.3882 58.9201 95.4355 58.9682C96.4828 59.0162 97.5062 58.6463 98.2808 57.9398C99.0553 57.2333 99.5175 56.2479 99.5656 55.2006C99.6137 54.1534 99.2438 53.1298 98.5373 52.3553L97.8534 51.6145C97.8012 51.5665 97.7595 51.5081 97.7309 51.4431C97.7024 51.3781 97.6877 51.3079 97.6877 51.237C97.6877 51.166 97.7024 51.0958 97.7309 51.0308C97.7595 50.9658 97.8012 50.9075 97.8534 50.8595C97.9002 50.8076 97.9573 50.7661 98.0211 50.7377C98.0849 50.7093 98.154 50.6946 98.2238 50.6946C98.2937 50.6946 98.3627 50.7093 98.4265 50.7377C98.4903 50.7661 98.5475 50.8076 98.5942 50.8595L99.2923 51.6002C100.131 52.5311 100.597 53.738 100.603 54.9908C100.608 55.6869 100.464 56.376 100.181 57.0122C99.8989 57.6485 99.4841 58.2172 98.9646 58.6806C98.0568 59.5394 96.8522 60.0141 95.6025 60.0055C94.9017 60.009 94.2078 59.8664 93.5651 59.5868C92.9225 59.3071 92.3452 58.8966 91.87 58.3814L86.314 52.2413L86.314 59.6208C86.3122 59.6919 86.2963 59.762 86.2674 59.827C86.2385 59.8919 86.1971 59.9506 86.1455 59.9995C86.0939 60.0485 86.0331 60.0868 85.9667 60.1122C85.9003 60.1377 85.8295 60.1498 85.7584 60.1479C85.6198 60.1443 85.4878 60.0877 85.3897 59.9896C85.2916 59.8915 85.2349 59.7595 85.2313 59.6208L85.2313 50.9877C85.2251 50.9136 85.236 50.8391 85.2632 50.7699C85.2903 50.7008 85.3331 50.6388 85.388 50.5888C85.4391 50.533 85.5008 50.488 85.5695 50.4563C85.6382 50.4247 85.7125 50.407 85.7881 50.4044C85.8637 50.4017 85.939 50.4141 86.0097 50.4409C86.0805 50.4677 86.1452 50.5083 86.2001 50.5603V50.5603Z" fill="#E0BC38"/>
<path d="M99.7052 72.7701L95.6309 68.8097C95.4015 69.9874 94.7676 71.048 93.8388 71.8077C92.91 72.5673 91.7448 72.9783 90.545 72.9695C89.8595 72.9734 89.1801 72.8406 88.5466 72.5789C87.9131 72.3171 87.3381 71.9317 86.8552 71.4452C85.8738 70.4677 85.3205 69.1406 85.3167 67.7554C85.315 67.0745 85.4489 66.4001 85.7106 65.7715C85.9723 65.1429 86.3566 64.5727 86.841 64.0942C86.8891 64.0396 86.9483 63.9959 87.0146 63.966C87.0809 63.936 87.1529 63.9205 87.2256 63.9205C87.2984 63.9205 87.3703 63.936 87.4366 63.966C87.5029 63.9959 87.5621 64.0396 87.6103 64.0942C87.6611 64.1445 87.7015 64.2044 87.729 64.2704C87.7565 64.3365 87.7707 64.4073 87.7707 64.4788C87.7707 64.5504 87.7565 64.6212 87.729 64.6872C87.7015 64.7532 87.6611 64.8131 87.6103 64.8635C86.863 65.6249 86.4393 66.6459 86.4279 67.7127C86.4574 68.7785 86.8842 69.7947 87.6245 70.5619C88.0077 70.9449 88.4633 71.248 88.9646 71.4534C89.466 71.6589 90.0032 71.7626 90.545 71.7586C91.632 71.7511 92.6719 71.314 93.4379 70.5427C94.2038 69.7714 94.6336 68.7285 94.6336 67.6415C94.6386 67.556 94.6615 67.4726 94.7008 67.3965C94.74 67.3204 94.7948 67.2535 94.8616 67.1998C94.9121 67.1468 94.9729 67.1046 95.0402 67.0758C95.1076 67.047 95.1801 67.0321 95.2533 67.0321C95.3266 67.0321 95.3991 67.047 95.4664 67.0758C95.5338 67.1046 95.5946 67.1468 95.6451 67.1998L99.5913 71.0036L99.5913 65.1199C99.6124 64.9896 99.6791 64.8711 99.7796 64.7855C99.8801 64.7 100.008 64.653 100.14 64.653C100.272 64.653 100.399 64.7 100.5 64.7855C100.6 64.8711 100.667 64.9896 100.688 65.1199L100.688 72.243C100.688 72.3866 100.631 72.5243 100.53 72.6258C100.428 72.7273 100.29 72.7843 100.147 72.7843C100.068 72.8085 99.9836 72.8085 99.9047 72.7843C99.8379 72.7911 99.7704 72.7863 99.7052 72.7701V72.7701Z" fill="#E0BC38"/>
<path d="M88.5079 85.6914L88.5079 77.3716C88.5012 77.2516 88.5421 77.1339 88.6218 77.0439C88.6633 76.9872 88.7164 76.94 88.7775 76.9053C88.8386 76.8705 88.9063 76.8491 88.9763 76.8423C89.0462 76.8356 89.1168 76.8438 89.1834 76.8662C89.25 76.8887 89.3111 76.925 89.3626 76.9727L100.446 85.8338C100.501 85.8767 100.547 85.9303 100.58 85.9913C100.614 86.0524 100.634 86.1196 100.641 86.1889C100.648 86.2582 100.64 86.3282 100.619 86.3945C100.598 86.4608 100.563 86.5221 100.517 86.5746C100.444 86.6583 100.351 86.722 100.247 86.7598C100.247 86.7598 100.247 86.7598 100.161 86.7598L100.09 86.7598L89.5621 86.7598L89.5621 87.7998C89.5621 87.9396 89.5065 88.0736 89.4077 88.1725C89.3088 88.2713 89.1748 88.3269 89.035 88.3269C88.8952 88.3269 88.7611 88.2713 88.6622 88.1725C88.5634 88.0736 88.5079 87.9396 88.5079 87.7998L88.5079 86.7598L85.8723 86.7598C85.7456 86.7391 85.6304 86.6739 85.5473 86.5761C85.4641 86.4782 85.4185 86.354 85.4185 86.2256C85.4185 86.0972 85.4641 85.973 85.5473 85.8751C85.6304 85.7772 85.7456 85.7121 85.8723 85.6914L88.5079 85.6914ZM89.5621 85.6914L98.5514 85.6914L89.5478 78.4543L89.5621 85.6914Z" fill="#E0BC38"/>
<path d="M97.4402 119.54C98.4255 120.057 99.2552 120.827 99.8437 121.771C100.432 122.715 100.758 123.799 100.788 124.911C100.792 125.05 100.743 125.185 100.65 125.289C100.557 125.392 100.428 125.456 100.289 125.467C100.144 125.467 100.003 125.414 99.8954 125.316C99.7873 125.219 99.7196 125.084 99.7054 124.94C99.6786 124.006 99.3995 123.097 98.8979 122.31C98.3962 121.522 97.6907 120.885 96.8561 120.466C95.8975 119.937 94.8577 119.571 93.779 119.384C94.6565 120.162 95.2352 121.222 95.4156 122.381C95.596 123.54 95.3667 124.725 94.7673 125.733C94.168 126.742 93.2359 127.509 92.1315 127.905C91.0272 128.3 89.8196 128.298 88.7167 127.899C87.6137 127.5 86.6844 126.729 86.0885 125.718C85.4927 124.708 85.2676 123.522 85.452 122.363C85.6364 121.205 86.2189 120.147 87.099 119.372C87.9792 118.597 89.1021 118.152 90.2744 118.116C90.6065 118.094 90.9396 118.094 91.2717 118.116C93.415 118.064 95.5367 118.554 97.4402 119.54V119.54ZM90.4169 119.184C90.3221 119.175 90.2268 119.175 90.132 119.184C90.0801 119.193 90.0272 119.193 89.9753 119.184C88.9273 119.252 87.947 119.726 87.2415 120.504C86.5361 121.282 86.1608 122.304 86.195 123.353C86.2293 124.403 86.6703 125.398 87.4249 126.129C88.1795 126.859 89.1886 127.267 90.2388 127.267C91.289 127.267 92.2981 126.859 93.0527 126.129C93.8073 125.398 94.2484 124.403 94.2826 123.353C94.3168 122.304 93.9416 121.282 93.2361 120.504C92.5307 119.726 91.5503 119.252 90.5024 119.184L90.4169 119.184Z" fill="#E0BC38"/>
<path d="M86.2144 133.872L99.7055 139.57L99.7055 132.162C99.7091 132.024 99.7658 131.892 99.8639 131.794C99.962 131.695 100.094 131.639 100.233 131.635C100.37 131.635 100.502 131.689 100.6 131.785C100.699 131.88 100.756 132.011 100.76 132.148L100.76 140.268C100.796 140.375 100.796 140.49 100.76 140.596C100.692 140.733 100.575 140.84 100.432 140.895C100.371 140.902 100.308 140.902 100.247 140.895C100.146 140.895 100.046 140.866 99.962 140.81L85.8155 134.898C85.7202 134.857 85.6387 134.789 85.5806 134.703C85.5226 134.618 85.4904 134.517 85.4879 134.413C85.4677 134.343 85.4677 134.269 85.4879 134.2C85.545 134.063 85.6517 133.953 85.7865 133.893C85.9214 133.832 86.0743 133.824 86.2144 133.872V133.872Z" fill="#E0BC38"/>
<path d="M100.874 149.001C100.877 149.849 100.545 150.664 99.9498 151.267C99.3544 151.87 98.5443 152.213 97.6966 152.221C97.1926 152.218 96.6961 152.098 96.2463 151.87C95.7964 151.643 95.4054 151.314 95.1038 150.91C94.6652 151.974 93.8709 152.853 92.8565 153.397C91.8421 153.941 90.6704 154.116 89.5413 153.893C88.4123 153.669 87.3957 153.061 86.6651 152.171C85.9345 151.282 85.5352 150.167 85.5352 149.016C85.5352 147.865 85.9345 146.749 86.6651 145.86C87.3957 144.97 88.4123 144.362 89.5413 144.138C90.6704 143.915 91.8421 144.09 92.8565 144.634C93.8709 145.178 94.6652 146.057 95.1038 147.121C95.4076 146.721 95.7998 146.398 96.2496 146.175C96.6995 145.953 97.1948 145.838 97.6966 145.839C98.1132 145.837 98.526 145.917 98.9113 146.075C99.2967 146.233 99.647 146.466 99.9422 146.76C100.237 147.054 100.472 147.403 100.631 147.788C100.791 148.172 100.874 148.585 100.874 149.001ZM86.6273 149.001C86.6273 149.78 86.8583 150.54 87.291 151.187C87.7237 151.834 88.3386 152.338 89.0579 152.635C89.7772 152.933 90.5685 153.01 91.3316 152.857C92.0947 152.704 92.7953 152.328 93.3446 151.777C93.8939 151.225 94.2673 150.523 94.4174 149.76C94.5675 148.996 94.4876 148.205 94.1878 147.487C93.888 146.769 93.3819 146.155 92.7334 145.725C92.0849 145.295 91.3233 145.067 90.545 145.069C90.0204 145.06 89.4992 145.156 89.0126 145.352C88.526 145.549 88.084 145.841 87.713 146.212C87.342 146.583 87.0496 147.025 86.8532 147.512C86.6569 147.998 86.5607 148.519 86.5704 149.044L86.6273 149.001ZM95.5739 149.001C95.5851 149.573 95.8192 150.118 96.2263 150.52C96.6335 150.922 97.1815 151.149 97.7536 151.153C98.1737 151.144 98.582 151.012 98.9275 150.773C99.2729 150.534 99.5402 150.198 99.6958 149.807C99.8514 149.417 99.8885 148.99 99.8024 148.578C99.7164 148.167 99.5109 147.79 99.2119 147.495C98.9128 147.2 98.5333 146.999 98.121 146.919C97.7086 146.838 97.2816 146.881 96.8933 147.042C96.5051 147.202 96.1729 147.474 95.9382 147.823C95.7035 148.171 95.5768 148.581 95.5739 149.001Z" fill="#E0BC38"/>
<path d="M100.945 176.311C100.953 177.555 100.504 178.758 99.681 179.691C98.8584 180.624 97.7208 181.221 96.4857 181.369C96.4481 181.36 96.4093 181.36 96.3717 181.369C95.9633 181.369 95.5217 181.369 95.0468 181.369C92.9175 181.417 90.8105 180.927 88.921 179.944C87.9423 179.419 87.1182 178.647 86.5308 177.705C85.9434 176.763 85.6132 175.683 85.5731 174.573C85.5693 174.503 85.5796 174.432 85.6035 174.366C85.6274 174.3 85.6643 174.239 85.7121 174.187C85.7599 174.135 85.8177 174.093 85.8819 174.064C85.9461 174.035 86.0155 174.019 86.086 174.018C86.23 174.017 86.3688 174.071 86.4746 174.169C86.5803 174.267 86.6451 174.401 86.6559 174.545C86.6857 175.477 86.9659 176.385 87.4672 177.172C87.9686 177.959 88.6725 178.597 89.5051 179.018C90.46 179.555 91.5013 179.922 92.5822 180.101C92.0429 179.626 91.6123 179.04 91.3198 178.384C91.0272 177.727 90.8796 177.016 90.887 176.297C90.887 174.956 91.4198 173.669 92.3682 172.721C93.3167 171.772 94.603 171.24 95.9443 171.24C97.2856 171.24 98.572 171.772 99.5204 172.721C100.469 173.669 101.002 174.956 101.002 176.297L100.945 176.311ZM95.9016 180.343C96.6968 180.346 97.4749 180.112 98.1374 179.673C98.8 179.233 99.3171 178.607 99.6234 177.873C99.9296 177.139 100.011 176.331 99.8578 175.55C99.7044 174.77 99.3229 174.053 98.7616 173.49C98.2003 172.927 97.4845 172.542 96.7049 172.386C95.9252 172.23 95.1167 172.309 94.3818 172.613C93.6469 172.916 93.0186 173.431 92.5765 174.092C92.1344 174.753 91.8984 175.53 91.8984 176.325C91.8947 176.853 91.9955 177.376 92.1952 177.864C92.3949 178.352 92.6893 178.796 93.0616 179.17C93.4339 179.543 93.8766 179.839 94.3641 180.041C94.8516 180.242 95.3742 180.345 95.9016 180.343V180.343Z" fill="#E0BC38"/>
<path d="M93.2803 185.315C95.1752 185.26 97.0453 185.755 98.6654 186.739C99.359 187.112 99.9386 187.666 100.343 188.342C100.747 189.018 100.96 189.791 100.96 190.579C100.96 191.366 100.747 192.139 100.343 192.815C99.9386 193.491 99.359 194.045 98.6654 194.418C97.0472 195.396 95.1924 195.913 93.3017 195.913C91.411 195.913 89.5563 195.396 87.938 194.418C87.2193 194.067 86.6136 193.52 86.19 192.842C85.7663 192.163 85.5417 191.379 85.5417 190.579C85.5417 189.779 85.7663 188.995 86.19 188.316C86.6136 187.637 87.2193 187.091 87.938 186.739C89.5419 185.754 91.3988 185.259 93.2803 185.315V185.315ZM93.2803 186.397C91.6027 186.363 89.9507 186.814 88.5221 187.694C87.9675 187.96 87.4993 188.377 87.1716 188.897C86.8438 189.418 86.67 190.021 86.67 190.636C86.67 191.251 86.8438 191.853 87.1716 192.374C87.4993 192.894 87.9675 193.312 88.5221 193.577C89.9578 194.445 91.6031 194.903 93.2803 194.903C94.9576 194.903 96.6029 194.445 98.0386 193.577C98.5894 193.31 99.0538 192.893 99.3787 192.374C99.7036 191.855 99.8759 191.255 99.8759 190.643C99.8759 190.03 99.7036 189.431 99.3787 188.912C99.0538 188.393 98.5894 187.976 98.0386 187.708C96.6184 186.821 94.9687 186.37 93.2946 186.412L93.2803 186.397Z" fill="#E0BC38"/>
<path d="M99.449 203.037L98.1811 200.872C98.1274 200.796 98.0932 200.708 98.0814 200.615C98.0812 200.52 98.1061 200.426 98.1536 200.344C98.2011 200.261 98.2696 200.193 98.3521 200.145C98.4115 200.105 98.4787 200.079 98.5493 200.068C98.6198 200.056 98.692 200.06 98.7609 200.079C98.8298 200.098 98.8938 200.131 98.9486 200.177C99.0034 200.223 99.0478 200.28 99.0786 200.345L100.888 203.293C100.952 203.417 100.967 203.561 100.93 203.696C100.893 203.83 100.807 203.946 100.688 204.02C100.569 204.092 100.427 204.117 100.29 204.091L86.1858 204.091C86.046 204.091 85.912 204.036 85.8131 203.937C85.7143 203.838 85.6587 203.704 85.6587 203.564C85.6587 203.424 85.7143 203.29 85.8131 203.191C85.912 203.093 86.046 203.037 86.1858 203.037L99.449 203.037Z" fill="#E0BC38"/>
<path d="M86.613 207.895L93.095 215.018C93.6305 215.607 94.3316 216.021 95.1064 216.204C95.8812 216.388 96.6933 216.332 97.4362 216.046C98.179 215.759 98.8177 215.254 99.2684 214.598C99.7192 213.942 99.9608 213.164 99.9617 212.368C99.9622 211.382 99.6025 210.43 98.9502 209.69L98.2664 208.949C98.2141 208.901 98.1724 208.843 98.1439 208.778C98.1154 208.713 98.1006 208.643 98.1006 208.572C98.1006 208.501 98.1154 208.43 98.1439 208.365C98.1724 208.3 98.2141 208.242 98.2664 208.194C98.3131 208.142 98.3702 208.101 98.4341 208.072C98.4979 208.044 98.5669 208.029 98.6367 208.029C98.7066 208.029 98.7757 208.044 98.8395 208.072C98.9033 208.101 98.9604 208.142 99.0072 208.194L99.7195 208.935C100.55 209.869 101.012 211.075 101.016 212.325C101.012 213.649 100.487 214.918 99.5531 215.857C98.6196 216.796 97.3536 217.329 96.0297 217.34C95.3289 217.344 94.635 217.201 93.9923 216.921C93.3497 216.642 92.7724 216.231 92.2972 215.716L86.727 209.576L86.727 216.841C86.7251 216.913 86.7093 216.983 86.6804 217.048C86.6514 217.113 86.61 217.171 86.5584 217.22C86.5068 217.269 86.446 217.307 86.3796 217.333C86.3132 217.358 86.2424 217.371 86.1713 217.369C86.0327 217.365 85.9007 217.308 85.8026 217.21C85.7045 217.112 85.6478 216.98 85.6442 216.841L85.6442 208.208C85.638 208.134 85.6489 208.06 85.6761 207.991C85.7033 207.921 85.746 207.859 85.801 207.809C85.9207 207.715 86.0726 207.671 86.2244 207.687C86.3761 207.703 86.5157 207.777 86.613 207.895V207.895Z" fill="#E0BC38"/>
<path d="M100.147 243.254L96.0583 239.293C95.8342 240.474 95.2017 241.538 94.2718 242.298C93.3418 243.059 92.1738 243.468 90.9725 243.453C90.2867 243.46 89.6066 243.328 88.9727 243.066C88.3388 242.804 87.7641 242.418 87.2827 241.929C86.7968 241.448 86.4111 240.876 86.1479 240.245C85.8847 239.614 85.7491 238.937 85.7491 238.254C85.7491 237.57 85.8847 236.893 86.1479 236.262C86.4111 235.631 86.7968 235.059 87.2827 234.578C87.333 234.527 87.3929 234.487 87.459 234.459C87.525 234.432 87.5958 234.418 87.6673 234.418C87.7389 234.418 87.8097 234.432 87.8757 234.459C87.9417 234.487 88.0016 234.527 88.052 234.578C88.1046 234.627 88.1466 234.687 88.1752 234.753C88.2039 234.819 88.2187 234.891 88.2187 234.963C88.2187 235.035 88.2039 235.106 88.1752 235.172C88.1466 235.238 88.1046 235.298 88.052 235.347C87.3061 236.108 86.887 237.131 86.8838 238.197C86.9011 239.262 87.3239 240.281 88.0662 241.046C88.641 241.61 89.3681 241.993 90.158 242.149C90.948 242.306 91.7663 242.228 92.5125 241.925C93.2587 241.622 93.9001 241.108 94.358 240.446C94.8158 239.783 95.0701 239.002 95.0896 238.197C95.0855 238.111 95.1029 238.026 95.1402 237.948C95.1775 237.871 95.2336 237.805 95.3033 237.755V237.755C95.4074 237.651 95.5483 237.593 95.6951 237.593C95.8419 237.593 95.9827 237.651 96.0868 237.755L100.033 241.559L100.033 235.689C100.031 235.617 100.044 235.545 100.07 235.478C100.096 235.41 100.136 235.349 100.186 235.297C100.237 235.245 100.297 235.204 100.364 235.176C100.43 235.148 100.502 235.134 100.574 235.134C100.647 235.132 100.719 235.144 100.786 235.171C100.853 235.197 100.915 235.237 100.966 235.287C101.018 235.337 101.059 235.398 101.087 235.464C101.116 235.531 101.13 235.603 101.13 235.675L101.13 242.798C101.132 242.87 101.119 242.942 101.093 243.01C101.067 243.077 101.027 243.138 100.977 243.19C100.926 243.242 100.866 243.283 100.799 243.311C100.733 243.339 100.661 243.354 100.589 243.354C100.51 243.378 100.425 243.378 100.346 243.354C100.27 243.346 100.199 243.31 100.147 243.254V243.254Z" fill="#E0BC38"/>
<path d="M88.9495 256.218L88.9495 247.841C88.9407 247.783 88.9451 247.723 88.9624 247.666C88.9796 247.609 89.0093 247.557 89.0492 247.514C89.0907 247.457 89.1438 247.41 89.2049 247.375C89.266 247.34 89.3337 247.319 89.4036 247.312C89.4736 247.305 89.5442 247.313 89.6107 247.336C89.6773 247.358 89.7384 247.395 89.79 247.442L100.874 256.303C100.93 256.345 100.977 256.398 101.012 256.459C101.047 256.52 101.068 256.588 101.075 256.658C101.082 256.728 101.074 256.798 101.051 256.865C101.029 256.932 100.992 256.993 100.945 257.044C100.867 257.119 100.775 257.177 100.674 257.215C100.674 257.215 100.674 257.215 100.589 257.215L100.517 257.215L89.9895 257.215L89.9895 258.241C89.9895 258.381 89.9339 258.515 89.8351 258.614C89.7362 258.712 89.6022 258.768 89.4624 258.768C89.3226 258.768 89.1884 258.712 89.0896 258.614C88.9907 258.515 88.9352 258.381 88.9352 258.241L88.9352 257.215L86.2997 257.215C86.2293 257.215 86.1595 257.201 86.0946 257.174C86.0297 257.146 85.971 257.106 85.9219 257.056C85.8727 257.005 85.8342 256.945 85.8086 256.88C85.7829 256.814 85.7707 256.744 85.7726 256.674C85.7762 256.535 85.8329 256.403 85.9309 256.305C86.029 256.207 86.161 256.15 86.2997 256.147L88.9495 256.218ZM90.0037 256.218L98.993 256.218L89.9325 248.91L90.0037 256.218Z" fill="#E0BC38"/>
<path d="M87.3254 262.273C87.3758 262.222 87.4356 262.181 87.5017 262.154C87.5677 262.126 87.6385 262.112 87.7101 262.112C87.7816 262.112 87.8524 262.126 87.9184 262.154C87.9845 262.181 88.0443 262.222 88.0947 262.273C88.1991 262.379 88.2576 262.522 88.2576 262.671C88.2576 262.821 88.1991 262.964 88.0947 263.07C87.7148 263.45 87.4134 263.901 87.2078 264.397C87.0021 264.893 86.8963 265.425 86.8963 265.962C86.8963 266.499 87.0021 267.031 87.2078 267.528C87.4134 268.024 87.7148 268.475 88.0947 268.854C88.4666 269.233 88.91 269.533 89.3992 269.739C89.8883 269.944 90.4134 270.05 90.9439 270.051C91.483 270.059 92.0181 269.958 92.5176 269.755C93.0171 269.553 93.4709 269.252 93.8521 268.871C94.2333 268.489 94.5342 268.036 94.737 267.536C94.9397 267.036 95.0402 266.501 95.0326 265.962C95.0284 265.431 94.9193 264.906 94.7115 264.417C94.5037 263.928 94.2013 263.485 93.8217 263.113C93.7671 263.065 93.7234 263.006 93.6935 262.939C93.6635 262.873 93.648 262.801 93.648 262.728C93.648 262.656 93.6635 262.584 93.6935 262.517C93.7234 262.451 93.7671 262.392 93.8217 262.344C93.8603 262.278 93.9208 262.227 93.9926 262.201C94.016 262.196 94.0404 262.196 94.0638 262.201C94.1198 262.186 94.1788 262.186 94.2348 262.201C94.2348 262.201 94.306 262.201 94.3488 262.201L100.546 262.928C100.623 262.928 100.698 262.948 100.766 262.985C100.833 263.023 100.89 263.076 100.93 263.142C100.978 263.188 101.015 263.243 101.04 263.304C101.064 263.366 101.076 263.432 101.073 263.498L101.073 270.621C101.086 270.7 101.081 270.781 101.06 270.859C101.038 270.936 101 271.008 100.948 271.07C100.895 271.131 100.831 271.18 100.757 271.214C100.684 271.248 100.605 271.265 100.524 271.265C100.444 271.265 100.364 271.248 100.291 271.214C100.218 271.18 100.154 271.131 100.101 271.07C100.049 271.008 100.011 270.936 99.9894 270.859C99.9677 270.781 99.9631 270.7 99.976 270.621L99.976 263.939L95.403 263.398C95.8655 264.185 96.1117 265.08 96.1165 265.992C96.1213 266.905 95.8845 267.802 95.4301 268.594C94.9758 269.385 94.3202 270.042 93.5297 270.499C92.7393 270.955 91.8423 271.193 90.9297 271.191C90.2459 271.201 89.5671 271.073 88.9333 270.817C88.2995 270.56 87.7237 270.178 87.2399 269.695C86.2702 268.711 85.7233 267.387 85.7156 266.005C85.7195 265.307 85.8641 264.616 86.1407 263.975C86.4172 263.334 86.8202 262.755 87.3254 262.273Z" fill="#E0BC38"/>
<path d="M97.8391 276.875C98.828 277.388 99.6613 278.157 100.253 279.102C100.844 280.046 101.171 281.132 101.201 282.246C101.201 282.384 101.148 282.518 101.053 282.619C100.957 282.72 100.827 282.78 100.688 282.787C100.546 282.791 100.407 282.74 100.301 282.645C100.195 282.549 100.129 282.417 100.118 282.274C100.089 281.342 99.8083 280.434 99.307 279.647C98.8057 278.86 98.1018 278.222 97.2692 277.801C96.3087 277.273 95.2698 276.903 94.192 276.704C95.076 277.48 95.6618 278.54 95.8486 279.701C96.0353 280.863 95.8114 282.053 95.2153 283.067C94.6193 284.081 93.6883 284.856 92.5827 285.258C91.4772 285.659 90.2661 285.663 89.158 285.269C88.0499 284.874 87.1141 284.105 86.5116 283.095C85.9091 282.084 85.6777 280.896 85.8571 279.733C86.0365 278.57 86.6156 277.507 87.4946 276.725C88.3737 275.943 89.4977 275.493 90.6732 275.45C91.01 275.428 91.3479 275.428 91.6847 275.45C93.8233 275.4 95.94 275.89 97.8391 276.875ZM90.83 276.519C90.7352 276.51 90.6398 276.51 90.545 276.519C90.4931 276.527 90.4402 276.527 90.3883 276.519C89.3404 276.587 88.36 277.06 87.6546 277.838C86.9491 278.616 86.5739 279.638 86.6081 280.688C86.6423 281.738 87.0834 282.733 87.838 283.463C88.5926 284.194 89.6017 284.602 90.6519 284.602C91.7021 284.602 92.7112 284.194 93.4658 283.463C94.2204 282.733 94.6614 281.738 94.6957 280.688C94.7299 279.638 94.3546 278.616 93.6492 277.838C92.9437 277.06 91.9634 276.587 90.9154 276.519L90.83 276.519Z" fill="#E0BC38"/>
<path d="M59.2657 181.729L58.915 47.7727L52.3333 47.7899L52.684 181.746L59.2657 181.729Z" fill="#E8C54A"/>
<path d="M44.5325 142.633L44.2842 47.7968L37.7025 47.8141L37.9508 142.65L44.5325 142.633Z" fill="#E8C54A"/>
<path d="M26.7794 264.808C26.7794 271.646 33.0939 277.188 40.8831 277.188C48.6724 277.188 54.9868 271.646 54.9868 264.808C54.9868 257.971 48.6724 252.428 40.8831 252.428C33.0939 252.428 26.7794 257.971 26.7794 264.808Z" fill="#FFC727"/>
<path d="M59.0732 107.135C59.0732 107.135 72.1526 227.835 72.2695 231.448C72.9601 251.455 73.247 308.904 73.247 308.904L116.809 308.787C116.809 308.787 117.946 242.53 116.098 225.296C113.792 203.334 99.5014 107.284 99.5014 107.284L59.0732 107.135Z" fill="#D3766A"/>
<path d="M147.176 356.036C144.838 356.823 78.028 356.801 75.478 355.186C74.5218 354.591 73.9586 344.848 73.608 333.076C73.523 330.536 73.4699 327.912 73.4274 325.235C73.3636 322.047 73.3105 318.86 73.2892 315.778C73.1724 301.828 73.2892 289.535 73.2892 289.535L116.777 289.428V315.661V325.128L116.565 332.97C116.565 332.97 142.139 344.423 144.742 346.485C147.346 348.546 149.502 355.261 147.176 356.036Z" fill="#D3766A"/>
<path d="M147.176 356.036C144.838 356.823 78.0281 356.801 75.4781 355.186C74.5218 354.591 73.9587 344.848 73.6081 333.076C73.5231 330.536 73.4699 327.912 73.4274 325.235C73.3637 322.047 73.3106 318.86 73.2893 315.778L116.852 315.661V325.128L116.639 332.97C116.639 332.97 142.214 344.423 144.817 346.485C147.42 348.546 149.502 355.261 147.176 356.036Z" fill="#7165E3"/>
<path d="M147.377 356.132C145.858 356.642 117.404 356.812 96.6855 356.44C91.883 356.355 87.5055 356.228 83.9355 356.09C79.0586 355.877 75.7861 355.622 75.2549 355.282C74.0755 354.528 73.4805 340.237 73.1299 325.171L116.831 325.054L116.629 332.938C116.629 332.938 142.341 344.445 144.966 346.527C147.59 348.61 149.715 355.346 147.377 356.132Z" fill="white"/>
<path d="M146.411 353.455C135.148 353.168 89.7049 353.104 78.5593 353.678C78.4636 353.678 78.4636 353.752 78.5593 353.752C89.7049 354.273 135.148 353.975 146.411 353.635C146.644 353.625 146.644 353.455 146.411 353.455Z" fill="#263238"/>
<path d="M118.297 330.409C113.866 329.58 108.448 330.26 105.058 333.416C104.931 333.543 105.058 333.724 105.249 333.681C109.481 332.312 113.849 331.403 118.276 330.972C118.342 330.962 118.402 330.929 118.446 330.879C118.491 330.83 118.517 330.766 118.519 330.699C118.522 330.633 118.501 330.567 118.46 330.514C118.42 330.461 118.362 330.424 118.297 330.409V330.409Z" fill="#263238"/>
<path d="M121.495 332.364C117.064 331.535 111.646 332.215 108.256 335.371C108.129 335.488 108.256 335.679 108.447 335.626C112.681 334.265 117.048 333.36 121.474 332.927C121.54 332.917 121.6 332.884 121.644 332.835C121.689 332.785 121.715 332.721 121.717 332.654C121.72 332.588 121.699 332.522 121.658 332.469C121.618 332.416 121.56 332.379 121.495 332.364Z" fill="#263238"/>
<path d="M124.693 334.287C120.262 333.458 114.844 334.138 111.454 337.294C111.327 337.421 111.454 337.602 111.645 337.56C115.877 336.19 120.245 335.281 124.672 334.85C124.738 334.84 124.798 334.807 124.842 334.758C124.887 334.708 124.913 334.644 124.915 334.577C124.918 334.511 124.897 334.445 124.856 334.392C124.816 334.339 124.758 334.302 124.693 334.287V334.287Z" fill="#263238"/>
<path d="M127.891 336.221C123.461 335.392 118.042 336.072 114.653 339.228C114.525 339.345 114.653 339.536 114.844 339.483C119.077 338.121 123.444 337.217 127.87 336.784C127.936 336.774 127.997 336.741 128.041 336.691C128.085 336.642 128.111 336.578 128.114 336.511C128.116 336.444 128.095 336.379 128.055 336.326C128.014 336.273 127.956 336.236 127.891 336.221V336.221Z" fill="#263238"/>
<path d="M71.8124 362.688C69.4005 363.208 3.0049 355.845 0.624897 353.965C-0.267603 353.263 0.242396 343.52 1.18802 331.78C1.3899 329.251 11.813 288.461 11.813 288.461L56.5868 293.126L44.0493 336.412C44.0493 336.412 68.2105 350.596 70.6118 352.945C73.013 355.293 74.203 362.178 71.8124 362.688Z" fill="#D3766A"/>
<path d="M0.646131 353.975C2.99426 355.845 69.4005 363.208 71.8336 362.698C74.2668 362.188 72.8961 355.261 70.5586 352.945C68.2211 350.628 43.9961 336.401 43.9961 336.401L48.6924 320.273L5.37425 314.036C3.483 321.643 1.25175 330.823 1.12425 331.78C0.263627 343.531 -0.235744 353.274 0.646131 353.975Z" fill="#7165E3"/>
<path d="M71.9931 362.815C70.4312 363.145 42.1262 360.191 21.5775 357.503C16.8175 356.886 12.4825 356.281 8.97625 355.75C4.1525 355.006 0.93312 354.39 0.476245 353.996C-0.40563 353.285 -0.0125078 343.286 1.24124 331.737C1.59577 329.054 2.1896 326.409 3.01562 323.832L46.0469 329.527L44.0494 336.38C44.0494 336.38 68.3487 350.65 70.7181 352.998C73.0875 355.346 74.405 362.284 71.9931 362.815Z" fill="white"/>
<path d="M71.3342 360.031C60.1779 358.523 15.0217 353.455 3.86542 352.806C3.76979 352.806 3.76979 352.86 3.86542 352.881C14.8942 354.623 60.1035 359.32 71.3236 360.223C71.5573 360.233 71.5679 360.063 71.3342 360.031Z" fill="#263238"/>
<path d="M45.9195 334.064C41.6057 332.757 36.1445 332.842 32.4364 335.605C32.2876 335.711 32.4364 335.913 32.5851 335.881C36.9489 335.002 41.3942 334.592 45.8451 334.659C45.924 334.669 46.0036 334.647 46.0664 334.598C46.1291 334.549 46.1699 334.478 46.1798 334.399C46.1897 334.32 46.1678 334.24 46.119 334.177C46.0701 334.115 45.9984 334.074 45.9195 334.064Z" fill="#263238"/>
<path d="M48.8838 336.338C44.5701 335.031 39.1088 335.105 35.4007 337.868C35.252 337.974 35.4007 338.176 35.5601 338.155C39.9187 337.261 44.3605 336.837 48.8095 336.89C48.8734 336.883 48.9332 336.855 48.9793 336.811C49.0254 336.766 49.0552 336.707 49.0637 336.643C49.0723 336.579 49.0592 336.515 49.0266 336.459C48.994 336.404 48.9437 336.361 48.8838 336.338V336.338Z" fill="#263238"/>
<path d="M51.8482 338.601C47.5344 337.294 42.0732 337.379 38.3651 340.141C38.2163 340.248 38.3651 340.45 38.5244 340.418C42.8834 339.527 47.3252 339.107 51.7738 339.164C51.8429 339.163 51.9094 339.138 51.9611 339.092C52.0128 339.046 52.0463 338.983 52.0553 338.915C52.0643 338.846 52.0484 338.777 52.0103 338.719C51.9723 338.661 51.9147 338.619 51.8482 338.601V338.601Z" fill="#263238"/>
<path d="M54.8231 340.875C50.5094 339.568 45.0481 339.642 41.3294 342.405C41.1913 342.511 41.3294 342.713 41.4888 342.691C45.8473 341.798 50.2892 341.374 54.7381 341.427C54.8028 341.422 54.8639 341.396 54.9116 341.352C54.9592 341.308 54.9904 341.249 55.0003 341.185C55.0102 341.121 54.998 341.055 54.9658 340.999C54.9337 340.942 54.8834 340.899 54.8231 340.875V340.875Z" fill="#263238"/>
<path d="M98.0455 107.284C98.0455 107.284 97.6311 122.159 90.863 130.659C89.248 132.699 81.5343 142.538 78.963 144.471C78.963 144.471 72.4712 219.208 71.3343 232.659C69.783 251.104 51.1468 312.06 51.1468 312.06L7.47803 305.844C7.47803 305.844 22.5124 249.245 26.7093 231.469C27.6762 227.368 36.2718 146.331 35.6449 144.641C28.6749 127.131 41.563 107.103 41.563 107.103L98.0455 107.284Z" fill="#D3766A"/>
<path d="M99.0715 107.779L99.203 108.636L99.7571 112.248C100.235 115.363 100.918 119.819 101.74 125.184C103.383 135.914 105.581 150.279 107.799 164.819C112.092 192.962 116.456 221.737 117.023 226.11C116.936 226.149 116.833 226.196 116.713 226.249C116.289 226.437 115.659 226.71 114.835 227.05C113.187 227.728 110.765 228.67 107.676 229.722C101.497 231.825 92.6521 234.365 81.9956 236.107C71.4188 237.837 55.9521 235.136 43.0637 231.97C36.6333 230.391 30.8688 228.702 26.7116 227.408C24.6333 226.761 22.9572 226.213 21.8013 225.827C21.2233 225.634 20.7754 225.481 20.4723 225.377C20.4525 225.37 20.4333 225.364 20.4147 225.357L20.4954 224.916L20.9416 222.477C21.3259 220.375 21.875 217.372 22.5339 213.767C23.8518 206.558 25.6089 196.94 27.366 187.308C29.1231 177.677 30.8803 168.031 32.1982 160.765C32.8571 157.132 33.4063 154.094 33.7907 151.95C33.9829 150.878 34.1341 150.029 34.2372 149.441C34.2887 149.147 34.3284 148.917 34.3554 148.757C34.3688 148.677 34.3793 148.613 34.3865 148.566C34.3901 148.543 34.3932 148.522 34.3956 148.504L34.3957 148.503C34.3965 148.497 34.4026 148.455 34.4026 148.413C34.4026 148.356 34.3924 148.303 34.3893 148.286L34.389 148.284C34.3839 148.258 34.3774 148.228 34.3706 148.199C34.3569 148.14 34.3376 148.062 34.3147 147.971C34.3093 147.949 34.3036 147.927 34.2977 147.903C34.2529 147.725 34.1941 147.492 34.1254 147.204C33.9702 146.552 33.7647 145.623 33.5639 144.457C33.1622 142.125 32.7796 138.847 32.8575 134.957C33.0121 127.233 34.9815 117.104 42.2203 107.177L99.0715 107.779Z" fill="#FFFFFE" stroke="black"/>
<path d="M89.9492 162.406C87.7285 169.345 85.5292 176.315 83.4679 183.306C81.4067 190.297 79.3454 197.118 77.7942 204.163C76.9123 208.158 76.2217 212.174 75.5098 216.201C75.5069 216.234 75.516 216.267 75.5354 216.293C75.5547 216.32 75.583 216.339 75.6152 216.347C75.6473 216.355 75.6812 216.351 75.7106 216.336C75.74 216.32 75.763 216.295 75.7754 216.265C76.7742 212.758 77.9004 209.284 78.8142 205.756C79.7279 202.229 80.6523 198.701 81.5342 195.131C83.2873 188.151 84.9235 181.138 86.7617 174.168C87.8242 170.226 88.9504 166.316 90.0873 162.406C90.1192 162.353 89.981 162.321 89.9492 162.406Z" fill="#37474F"/>
<path d="M91.2244 152.493C89.7156 155.054 88.3025 157.668 86.9744 160.335C86.3475 161.641 85.7419 162.948 85.1469 164.266C84.8387 164.967 84.5412 165.679 84.2544 166.391C83.9453 167.014 83.7066 167.67 83.5425 168.346C83.5425 168.42 83.6275 168.495 83.6806 168.42C84.0429 167.89 84.3491 167.324 84.5944 166.731C84.9344 166.051 85.285 165.371 85.6569 164.68C86.3014 163.341 86.9602 162.013 87.6331 160.696C88.9612 158.029 90.3 155.383 91.66 152.738C91.6924 152.68 91.7005 152.612 91.6826 152.548C91.6646 152.484 91.6221 152.43 91.5644 152.398C91.5066 152.365 91.4383 152.357 91.3746 152.375C91.3108 152.393 91.2568 152.436 91.2244 152.493V152.493Z" fill="#37474F"/>
<path d="M96.112 1.72456C96.112 1.72456 82.4483 -3.22669 75.1701 6.19768C66.9783 16.8227 70.7714 25.2164 69.3476 38.0727C67.9239 50.9289 57.7664 55.5933 59.7108 64.5077C61.6551 73.4221 73.2576 72.0939 73.2576 72.0939C73.2576 72.0939 75.3826 82.3364 85.2533 83.2821C88.1312 83.5458 91.0288 83.0715 93.6724 81.904C96.3161 80.7365 98.6184 78.9143 100.362 76.6096C100.362 76.6096 107.693 80.9339 113.42 77.3639C118.116 74.4314 116.608 66.1864 116.608 66.1864C116.608 66.1864 123.61 67.9077 126.011 61.7027C128.518 55.2639 117.915 50.8652 114.801 42.482C111.975 34.8958 110.679 14.6552 106.471 8.0358C102.264 1.41643 96.112 1.72456 96.112 1.72456Z" fill="#263238"/>
<path d="M73.098 71.5202C68.848 72.3808 63.6737 72.1789 60.4968 68.8002C57.5537 65.6658 58.0106 60.8633 59.6149 57.1977C61.3681 53.2027 64.2687 49.8452 66.2556 45.9777C68.2076 42.1446 69.4358 37.9844 69.8787 33.7058C70.4205 28.5633 69.2199 23.2189 70.6437 18.1721C70.6437 18.0977 70.5587 18.0764 70.5481 18.1721C69.1349 22.7727 69.9956 27.6283 69.5812 32.3458C69.1489 37.0803 67.761 41.678 65.5012 45.8608C63.3762 49.8346 60.1887 53.2983 58.5737 57.5483C57.1393 61.2458 56.9693 65.8146 59.7105 68.9702C61.1777 70.59 63.1186 71.7055 65.2568 72.1577C67.8829 72.6173 70.578 72.4939 73.1512 71.7964C73.2468 71.6583 73.2043 71.4989 73.098 71.5202Z" fill="#263238"/>
<path d="M126.648 53.9252C125.616 52.4473 124.39 51.1144 123.004 49.962C121.575 48.7002 120.27 47.3056 119.104 45.7971C114.408 39.5177 112.644 31.6977 110.944 24.1964C109.992 19.4954 108.671 14.8769 106.992 10.3839C106.992 10.2777 106.79 10.3839 106.833 10.3839C109.924 17.9595 110.498 26.2258 112.74 34.0352C113.676 37.5541 115.088 40.9287 116.937 44.0652C117.852 45.5866 118.92 47.0107 120.124 48.3152C121.368 49.6433 122.813 50.7695 124.13 52.0339C125.683 53.3886 126.824 55.152 127.424 57.1233C127.695 58.1963 127.75 59.3124 127.586 60.4068C127.421 61.5012 127.041 62.552 126.468 63.4983C126.468 63.4983 126.468 63.5514 126.521 63.4983C127.423 62.0696 127.912 60.4193 127.935 58.7297C127.957 57.0402 127.512 55.3773 126.648 53.9252V53.9252Z" fill="#263238"/>
<path d="M116.363 63.9871C116.363 63.8915 116.172 63.9871 116.225 64.0721C118.021 67.5571 119.243 72.0196 116.618 75.4196C115.503 76.8247 114.015 77.8876 112.324 78.487C110.633 79.0863 108.807 79.1979 107.056 78.809C104.874 78.3711 102.837 77.396 101.127 75.9721C100.989 75.8658 100.798 76.0571 100.936 76.174C103.975 78.7452 108.203 80.3283 112.177 79.1702C113.94 78.6968 115.513 77.6887 116.679 76.2844C117.846 74.8802 118.548 73.1489 118.69 71.329C118.85 68.6727 117.511 66.2821 116.363 63.9871Z" fill="#263238"/>
<path d="M88.3237 55.0833C94.8368 75.9402 106.726 98.8371 113.898 101.546C121.559 104.447 151.245 100.484 161.551 97.8808C164.919 97.0308 154.73 73.4433 151.341 71.8708C147.951 70.2983 124.555 76.6733 122.345 76.1208C121.166 75.8233 106.928 58.802 96.7812 48.7402C87.7181 39.7514 86.1987 48.262 88.3237 55.0833Z" fill="#D3766A"/>
<path d="M159.012 98.4545C162.508 97.817 178.264 93.4926 182.387 91.3145C186.509 89.1364 197.899 81.9858 196.55 78.6601C195.201 75.3345 191.694 77.162 191.694 77.162C191.694 77.162 196.029 73.3795 194.361 70.1601C192.693 66.9408 187.338 69.9583 187.338 69.9583C187.338 69.9583 191.503 65.7083 189.612 62.6589C187.721 59.6095 182.844 63.4982 182.844 63.4982C182.844 63.4982 186.839 59.8326 184.204 57.9414C181.016 55.657 174.45 63.2539 169.722 65.3258C168.659 65.7933 147.282 73.3051 147.282 73.3051L159.012 98.4545Z" fill="#D3766A"/>
<path d="M183.237 63.1689C178.37 68.747 175.289 70.3408 168.309 72.4233C168.17 72.4233 168.202 72.6783 168.309 72.6464C175.321 71.2226 179.486 69.7777 183.481 63.392C183.747 63.0839 183.502 62.9033 183.237 63.1689Z" fill="#263238"/>
<path d="M187.721 69.5121C182.164 74.8246 178.827 76.6096 171.677 79.3296C171.659 79.3429 171.646 79.3616 171.639 79.3829C171.632 79.4042 171.633 79.427 171.64 79.4482C171.647 79.4693 171.66 79.4877 171.678 79.5008C171.697 79.5138 171.718 79.5208 171.741 79.5208C178.966 77.3958 183.088 75.8977 187.944 69.8308C188.156 69.5546 187.965 69.2677 187.721 69.5121Z" fill="#263238"/>
<path d="M191.322 77.2895C185.574 82.0708 181.994 84.1639 174.726 85.917C174.697 85.9253 174.672 85.9427 174.654 85.9667C174.636 85.9906 174.626 86.0198 174.626 86.0498C174.626 86.0799 174.636 86.1091 174.654 86.133C174.672 86.157 174.697 86.1744 174.726 86.1827C182.323 85.1202 186.796 82.5489 191.407 77.4808C191.737 77.1302 191.737 76.9814 191.322 77.2895Z" fill="#263238"/>
<path d="M199.044 45.6609L203.946 67.8139C204.077 68.4078 203.967 69.0294 203.64 69.5423C203.313 70.0551 202.796 70.4174 202.202 70.5497L167.065 78.337C166.771 78.4022 166.466 78.4087 166.169 78.3561C165.872 78.3035 165.589 78.1929 165.334 78.0305C165.08 77.8681 164.861 77.6572 164.688 77.4099C164.516 77.1625 164.394 76.8836 164.329 76.589L159.425 54.4278C159.303 53.8745 159.406 53.2954 159.71 52.8178C160.015 52.3401 160.497 52.003 161.05 51.8805L196.503 44.0358C197.056 43.9161 197.633 44.0198 198.109 44.3243C198.585 44.6288 198.921 45.1093 199.044 45.6609V45.6609Z" fill="#455A64"/>
<path d="M169.732 53.9478L163.976 55.2218C163.512 55.3246 163.219 55.7841 163.321 56.2482L164.087 59.7077C164.19 60.1719 164.649 60.4648 165.114 60.3621L170.87 59.088C171.334 58.9853 171.627 58.5258 171.524 58.0617L170.759 54.6021C170.656 54.138 170.197 53.845 169.732 53.9478Z" fill="#FFC727"/>
<path d="M195.466 51.2125L192.104 51.9564C191.918 51.9986 191.727 52.0036 191.539 51.9711C191.352 51.9385 191.173 51.8692 191.013 51.767C190.853 51.6648 190.715 51.5318 190.606 51.3758C190.498 51.2197 190.422 51.0437 190.382 50.8579C190.34 50.6729 190.335 50.4812 190.367 50.2942C190.4 50.1071 190.469 49.9283 190.571 49.7682C190.673 49.6081 190.805 49.4698 190.961 49.3614C191.117 49.2529 191.293 49.1765 191.479 49.1365L194.843 48.3926C195.029 48.3504 195.22 48.3454 195.408 48.3779C195.595 48.4105 195.774 48.4798 195.934 48.582C196.094 48.6842 196.232 48.8172 196.341 48.9732C196.449 49.1293 196.525 49.3053 196.565 49.4911V49.4911C196.647 49.865 196.578 50.2563 196.372 50.5791C196.166 50.9018 195.84 51.1297 195.466 51.2125V51.2125Z" fill="white"/>
<path d="M165.036 65.2952L164.772 65.5412C164.762 65.551 164.75 65.5581 164.737 65.5616C164.724 65.5644 164.71 65.5638 164.697 65.5599C164.684 65.5559 164.673 65.5488 164.663 65.5391C164.656 65.5322 164.65 65.5238 164.646 65.5145C164.642 65.5051 164.639 65.495 164.639 65.4848C164.639 65.4746 164.642 65.4645 164.646 65.4551C164.65 65.4458 164.656 65.4374 164.663 65.4305L165.024 65.0862C165.039 65.0731 165.058 65.0659 165.077 65.0659C165.097 65.0659 165.116 65.0731 165.13 65.0862C165.144 65.1009 165.152 65.1197 165.153 65.1395L165.592 67.1212C165.596 67.1407 165.592 67.1612 165.581 67.1781C165.571 67.195 165.554 67.2069 165.534 67.2113C165.514 67.2152 165.494 67.2114 165.477 67.2007C165.46 67.1901 165.447 67.1734 165.442 67.154L165.036 65.2952Z" fill="#F8F8F8"/>
<path d="M166.106 66.9511L166.911 65.8199C166.958 65.7549 166.99 65.6808 167.007 65.6024C167.023 65.524 167.023 65.4431 167.006 65.3649C166.972 65.2189 166.882 65.0921 166.755 65.012C166.629 64.9318 166.476 64.9047 166.329 64.9366C166.19 64.9663 166.067 65.0466 165.983 65.162L165.901 65.2809C165.89 65.2977 165.872 65.3094 165.852 65.3132C165.832 65.3171 165.811 65.3128 165.794 65.3014C165.778 65.29 165.766 65.2723 165.762 65.2524C165.758 65.2324 165.763 65.2117 165.774 65.1948L165.858 65.0719C165.964 64.9263 166.119 64.8243 166.294 64.785C166.481 64.7452 166.675 64.7802 166.836 64.8826C166.997 64.985 167.111 65.1465 167.153 65.3321C167.175 65.4308 167.176 65.533 167.157 65.6322C167.137 65.7314 167.097 65.8253 167.038 65.908L166.348 66.8773L167.372 66.6519C167.392 66.6483 167.413 66.6527 167.43 66.6642C167.447 66.6757 167.459 66.6933 167.463 66.7134C167.467 66.7329 167.463 66.7534 167.452 66.7703C167.442 66.7872 167.425 66.7991 167.405 66.8035L166.208 67.0658H166.196C166.186 67.0689 166.175 67.0695 166.164 67.0678C166.154 67.066 166.143 67.0618 166.135 67.0556C166.118 67.0447 166.106 67.028 166.101 67.0088C166.095 66.9895 166.097 66.969 166.106 66.9511V66.9511Z" fill="#F8F8F8"/>
<path d="M168.819 64.3711L168.389 65.0678C168.561 65.0633 168.73 65.1195 168.865 65.2266C169.001 65.3337 169.094 65.485 169.129 65.6539C169.151 65.7501 169.153 65.8498 169.136 65.9469C169.119 66.0441 169.082 66.1368 169.028 66.2195C168.921 66.3875 168.752 66.5061 168.557 66.5495C168.461 66.571 168.362 66.573 168.266 66.5554C168.169 66.5378 168.077 66.501 167.996 66.447C167.987 66.4418 167.979 66.4348 167.973 66.4266C167.967 66.4183 167.963 66.4089 167.961 66.399C167.958 66.389 167.958 66.3787 167.96 66.3686C167.962 66.3586 167.965 66.349 167.971 66.3405C167.976 66.3316 167.984 66.324 167.992 66.3179C168 66.3119 168.01 66.3076 168.02 66.3053C168.03 66.303 168.041 66.3028 168.051 66.3046C168.061 66.3064 168.071 66.3102 168.08 66.3159C168.213 66.3994 168.373 66.4272 168.526 66.3935C168.68 66.3598 168.814 66.2671 168.899 66.1355C168.942 66.0698 168.971 65.9963 168.985 65.9192C168.998 65.8421 168.997 65.7631 168.979 65.6867C168.944 65.5343 168.851 65.4018 168.719 65.3181C168.587 65.2344 168.427 65.2063 168.274 65.24C168.262 65.2421 168.25 65.2415 168.238 65.2383C168.227 65.2352 168.216 65.2294 168.207 65.2215C168.198 65.2161 168.19 65.2089 168.183 65.2003C168.177 65.1917 168.173 65.1819 168.17 65.1715C168.168 65.1611 168.168 65.1504 168.17 65.14C168.172 65.1296 168.176 65.1197 168.182 65.1109L168.592 64.4407L167.772 64.6231C167.762 64.6255 167.752 64.6259 167.741 64.6242C167.731 64.6225 167.721 64.6188 167.713 64.6133C167.704 64.6077 167.696 64.6005 167.69 64.592C167.684 64.5835 167.68 64.5739 167.678 64.5637C167.676 64.5536 167.675 64.5431 167.677 64.5329C167.679 64.5226 167.682 64.5128 167.688 64.504C167.693 64.4953 167.701 64.4877 167.709 64.4817C167.718 64.4758 167.727 64.4716 167.737 64.4694L168.746 64.2461C168.766 64.2418 168.788 64.2459 168.805 64.2574C168.823 64.2689 168.835 64.2869 168.84 64.3075C168.843 64.3189 168.843 64.331 168.84 64.3424C168.835 64.3529 168.828 64.3626 168.819 64.3711V64.3711Z" fill="#F8F8F8"/>
<path d="M170.979 65.5474L169.811 65.8056C169.803 65.8091 169.794 65.811 169.785 65.811C169.777 65.811 169.768 65.8091 169.76 65.8056C169.751 65.8013 169.743 65.7951 169.736 65.7875C169.729 65.7798 169.724 65.7709 169.722 65.7612C169.719 65.7515 169.718 65.7414 169.719 65.7314C169.72 65.7213 169.724 65.7117 169.729 65.7031L170.633 63.8731C170.637 63.864 170.643 63.8559 170.651 63.8492C170.658 63.8426 170.667 63.8376 170.677 63.8345C170.687 63.8314 170.697 63.8304 170.707 63.8314C170.717 63.8323 170.726 63.8354 170.735 63.8403C170.749 63.8485 170.76 63.8597 170.768 63.8731C170.768 63.8731 170.768 63.8731 170.768 63.8833V63.8936L171.096 65.3732L171.239 65.3404C171.249 65.3379 171.26 65.3375 171.27 65.339C171.28 65.3406 171.29 65.3442 171.298 65.3495C171.307 65.3548 171.315 65.3618 171.321 65.3701C171.327 65.3784 171.331 65.3878 171.334 65.3978C171.336 65.4077 171.336 65.418 171.334 65.428C171.332 65.438 171.328 65.4475 171.322 65.4559C171.316 65.4643 171.309 65.4715 171.3 65.477C171.292 65.4825 171.282 65.4862 171.272 65.4879L171.129 65.5207L171.211 65.8916C171.213 65.911 171.208 65.9305 171.197 65.9464C171.186 65.9623 171.169 65.9734 171.15 65.9775C171.131 65.9816 171.111 65.9785 171.094 65.9686C171.077 65.9588 171.065 65.943 171.059 65.9244L170.979 65.5474ZM170.946 65.3998L170.668 64.1374L169.926 65.6314L170.946 65.3998Z" fill="#F8F8F8"/>
<path d="M173.734 65.1805C173.725 65.1753 173.717 65.1683 173.711 65.16C173.705 65.1517 173.701 65.1422 173.699 65.1322C173.697 65.1222 173.697 65.1118 173.699 65.1018C173.701 65.0918 173.705 65.0823 173.711 65.0739C173.716 65.0648 173.724 65.0569 173.732 65.0507C173.741 65.0445 173.751 65.0401 173.761 65.0378C173.771 65.0355 173.782 65.0353 173.793 65.0373C173.803 65.0393 173.813 65.0434 173.822 65.0494C173.954 65.1313 174.113 65.1585 174.264 65.1252C174.417 65.0904 174.55 64.9969 174.634 64.8649C174.718 64.7329 174.746 64.5731 174.713 64.4202C174.698 64.3442 174.667 64.272 174.623 64.208C174.579 64.144 174.523 64.0895 174.458 64.0476C174.392 64.0058 174.319 63.9775 174.243 63.9644C174.166 63.9513 174.088 63.9537 174.012 63.9714C173.936 63.9878 173.864 64.0192 173.799 64.0639C173.735 64.1086 173.681 64.1656 173.639 64.2317C173.634 64.2404 173.627 64.2481 173.619 64.2541C173.611 64.2601 173.601 64.2644 173.591 64.2667C173.581 64.269 173.571 64.2692 173.561 64.2674C173.551 64.2657 173.541 64.2619 173.533 64.2563C173.523 64.2518 173.514 64.2447 173.508 64.2358V64.2358C173.507 64.2276 173.507 64.2193 173.508 64.2112C173.509 64.2058 173.509 64.2002 173.508 64.1948L173.42 63.3033C173.418 63.2924 173.419 63.2811 173.422 63.2704C173.425 63.2598 173.431 63.25 173.438 63.2419C173.444 63.234 173.45 63.2272 173.458 63.2219C173.466 63.2166 173.474 63.2129 173.484 63.2111L174.49 62.9898C174.5 62.9876 174.51 62.9875 174.52 62.9894C174.531 62.9912 174.54 62.9951 174.549 63.0007C174.558 63.0063 174.565 63.0136 174.571 63.0221C174.577 63.0306 174.581 63.0402 174.583 63.0503C174.585 63.0603 174.585 63.0708 174.583 63.0809C174.582 63.0911 174.578 63.1007 174.572 63.1094C174.566 63.1181 174.559 63.1255 174.551 63.1314C174.542 63.1372 174.533 63.1413 174.523 63.1435L173.584 63.3484L173.647 64.0083C173.781 63.8849 173.955 63.8144 174.137 63.81C174.319 63.8056 174.496 63.8677 174.635 63.9845C174.775 64.1013 174.867 64.2649 174.894 64.4446C174.922 64.6244 174.883 64.8081 174.785 64.9612C174.676 65.1269 174.507 65.2442 174.314 65.2891C174.215 65.311 174.112 65.3127 174.012 65.2941C173.913 65.2754 173.818 65.2368 173.734 65.1805V65.1805Z" fill="#F8F8F8"/>
<path d="M175.463 63.2521C175.505 63.0979 175.587 62.9577 175.701 62.846C175.816 62.7343 175.958 62.6552 176.113 62.6168C176.133 62.6118 176.154 62.6148 176.171 62.6252C176.189 62.6355 176.202 62.6524 176.207 62.6722C176.211 62.6925 176.207 62.7135 176.197 62.7313C176.186 62.7491 176.169 62.7623 176.15 62.7685C176.02 62.8004 175.902 62.8664 175.806 62.9598C175.711 63.0532 175.643 63.1704 175.609 63.2993C175.563 63.45 175.543 63.6072 175.549 63.7645C175.631 63.6172 175.762 63.5032 175.92 63.4421C176.077 63.381 176.25 63.3765 176.411 63.4295C176.571 63.4826 176.707 63.5897 176.797 63.7326C176.887 63.8754 176.924 64.0451 176.902 64.2123C176.88 64.3795 176.801 64.5339 176.677 64.6489C176.554 64.7639 176.394 64.8323 176.226 64.8424C176.057 64.8525 175.891 64.8035 175.755 64.704C175.618 64.6046 175.521 64.4607 175.479 64.2973C175.464 64.2511 175.452 64.2038 175.443 64.1559C175.373 63.8578 175.38 63.5467 175.463 63.2521V63.2521ZM175.627 64.2501C175.63 64.2639 175.636 64.277 175.643 64.2891C175.645 64.2965 175.645 64.3042 175.643 64.3116C175.693 64.4542 175.797 64.5717 175.932 64.6395C176.067 64.7072 176.223 64.7198 176.367 64.6746C176.511 64.6294 176.632 64.53 176.704 64.3973C176.776 64.2646 176.794 64.1091 176.754 63.9635C176.713 63.818 176.618 63.6939 176.487 63.6174C176.357 63.5409 176.202 63.5181 176.056 63.5537C175.909 63.5893 175.782 63.6806 175.701 63.8083C175.62 63.9359 175.592 64.09 175.623 64.2378L175.627 64.2501Z" fill="#F8F8F8"/>
<path d="M177.82 64.3895L178.197 62.3217L177.158 62.5574C177.139 62.56 177.12 62.5554 177.104 62.5446C177.089 62.5337 177.078 62.5174 177.074 62.4988C177.069 62.4802 177.072 62.4607 177.082 62.4442C177.092 62.4278 177.107 62.4155 177.125 62.4099L178.267 62.1578C178.281 62.1537 178.297 62.1537 178.312 62.1578C178.333 62.1634 178.351 62.1765 178.363 62.1947C178.363 62.2049 178.373 62.209 178.375 62.2193C178.379 62.2333 178.379 62.2483 178.375 62.2623L177.98 64.4305C177.977 64.4451 177.97 64.4585 177.96 64.4694C177.95 64.4802 177.937 64.4881 177.922 64.492C177.912 64.495 177.9 64.495 177.89 64.492C177.878 64.4903 177.867 64.4862 177.857 64.48C177.847 64.4739 177.839 64.4657 177.832 64.4561C177.826 64.4464 177.821 64.4355 177.819 64.4241C177.817 64.4126 177.817 64.4008 177.82 64.3895V64.3895Z" fill="#F8F8F8"/>
<path d="M179.498 61.8647C179.593 61.8433 179.692 61.8526 179.781 61.891C179.87 61.9295 179.945 61.9953 179.994 62.0789C180.044 62.1624 180.065 62.2595 180.056 62.3562C180.047 62.4529 180.007 62.5441 179.943 62.6168C180.106 62.6455 180.254 62.7298 180.361 62.8554C180.469 62.9809 180.53 63.1399 180.534 63.3053C180.537 63.4707 180.484 63.6323 180.382 63.7625C180.279 63.8927 180.135 63.9834 179.974 64.0193C179.812 64.0552 179.643 64.034 179.496 63.9593C179.348 63.8846 179.231 63.761 179.164 63.6097C179.098 63.4583 179.085 63.2884 179.13 63.1291C179.174 62.9697 179.273 62.8307 179.408 62.7357C179.343 62.705 179.286 62.6599 179.241 62.6038C179.196 62.5477 179.165 62.482 179.15 62.4119C179.136 62.3531 179.135 62.2922 179.145 62.2328C179.156 62.1734 179.178 62.1166 179.21 62.0658C179.242 62.0149 179.285 61.9709 179.334 61.9364C179.383 61.9019 179.439 61.8776 179.498 61.8647ZM179.943 63.8751C180.052 63.851 180.152 63.795 180.229 63.7143C180.307 63.6335 180.358 63.5316 180.378 63.4215C180.397 63.3113 180.384 63.1979 180.339 63.0954C180.294 62.993 180.22 62.9062 180.125 62.846C180.031 62.7858 179.921 62.7549 179.809 62.7573C179.697 62.7596 179.589 62.7951 179.497 62.8592C179.405 62.9233 179.335 63.0131 179.294 63.1173C179.253 63.2215 179.244 63.3355 179.269 63.4447C179.284 63.5175 179.314 63.5865 179.356 63.6477C179.399 63.7088 179.453 63.7609 179.516 63.801C179.578 63.841 179.648 63.8682 179.722 63.8809C179.795 63.8936 179.87 63.8916 179.943 63.8751V63.8751ZM179.664 62.6168C179.744 62.5982 179.813 62.5488 179.857 62.4794C179.901 62.4099 179.916 62.326 179.898 62.2459C179.88 62.1663 179.832 62.0969 179.763 62.0531C179.694 62.0093 179.611 61.9946 179.531 62.0123C179.451 62.0299 179.382 62.0785 179.338 62.1473C179.294 62.2161 179.28 62.2995 179.297 62.3791C179.315 62.4589 179.363 62.5286 179.432 62.5731C179.501 62.6176 179.584 62.6333 179.664 62.6168V62.6168Z" fill="#F8F8F8"/>
<path d="M183.332 61.0163C183.507 60.9768 183.691 61.0033 183.847 61.0906C184.004 61.178 184.123 61.3201 184.181 61.4897C184.181 61.4897 184.181 61.4897 184.181 61.502C184.197 61.5614 184.214 61.6208 184.228 61.6864C184.298 61.985 184.293 62.2964 184.212 62.5922C184.169 62.7461 184.086 62.8859 183.971 62.9974C183.857 63.109 183.715 63.1883 183.56 63.2275C183.55 63.2306 183.54 63.2316 183.53 63.2306C183.52 63.2295 183.511 63.2264 183.502 63.2214C183.493 63.2163 183.486 63.2095 183.48 63.2014C183.474 63.1933 183.47 63.184 183.468 63.1742C183.465 63.1643 183.464 63.1539 183.465 63.1436C183.467 63.1333 183.47 63.1234 183.475 63.1145C183.48 63.1055 183.487 63.0976 183.495 63.0914C183.504 63.0851 183.513 63.0805 183.523 63.0779C183.653 63.0458 183.771 62.9796 183.867 62.8863C183.962 62.793 184.031 62.6759 184.066 62.5471C184.111 62.3964 184.131 62.2391 184.124 62.0819C184.064 62.1885 183.98 62.2786 183.877 62.3439C183.774 62.4093 183.657 62.4479 183.535 62.4562C183.414 62.4645 183.292 62.4422 183.181 62.3914C183.07 62.3406 182.974 62.2629 182.901 62.1653C182.828 62.0678 182.781 61.9535 182.763 61.833C182.746 61.7124 182.759 61.5894 182.801 61.4752C182.843 61.3609 182.914 61.2591 183.005 61.1789C183.097 61.0988 183.207 61.0429 183.326 61.0163H183.332ZM184.054 61.6004C184.029 61.4892 183.973 61.3878 183.891 61.3089C183.808 61.23 183.705 61.1772 183.593 61.1572C183.481 61.1371 183.365 61.1508 183.261 61.1963C183.157 61.2418 183.068 61.3172 183.007 61.413C182.945 61.5088 182.914 61.6206 182.916 61.7344C182.918 61.8482 182.953 61.9589 183.018 62.0524C183.083 62.1459 183.174 62.218 183.28 62.2598C183.386 62.3015 183.502 62.3109 183.613 62.2869C183.687 62.2708 183.757 62.2403 183.82 62.1971C183.882 62.1539 183.935 62.0989 183.976 62.0351C184.017 61.9713 184.045 61.9001 184.058 61.8255C184.072 61.7509 184.07 61.6744 184.054 61.6004V61.6004Z" fill="#F8F8F8"/>
<path d="M184.832 61.8156C184.768 61.551 184.781 61.2734 184.871 61.0163C184.902 60.9069 184.962 60.8079 185.044 60.7297C185.126 60.6516 185.229 60.5973 185.339 60.5727C185.45 60.5481 185.566 60.554 185.674 60.5899C185.781 60.6258 185.877 60.6904 185.951 60.7766C186.141 60.9727 186.272 61.2185 186.328 61.4856C186.39 61.7509 186.375 62.0283 186.283 62.2849C186.256 62.3965 186.198 62.4984 186.116 62.5787C186.034 62.6591 185.931 62.7148 185.818 62.7396C185.706 62.7644 185.589 62.7571 185.481 62.7188C185.373 62.6804 185.277 62.6124 185.205 62.5226C185.014 62.3288 184.884 62.0829 184.832 61.8156ZM184.984 61.7828C185.032 62.0197 185.146 62.238 185.314 62.4119C185.369 62.4796 185.442 62.5307 185.524 62.5593C185.606 62.588 185.695 62.5932 185.78 62.5742C185.865 62.5553 185.944 62.513 186.006 62.4521C186.068 62.3912 186.113 62.3141 186.134 62.2295C186.21 62.0005 186.223 61.755 186.171 61.5192C186.118 61.2834 186.003 61.0664 185.837 60.8913C185.782 60.8236 185.709 60.7726 185.627 60.7439C185.544 60.7152 185.455 60.7101 185.37 60.729C185.285 60.748 185.207 60.7903 185.145 60.8511C185.082 60.912 185.038 60.9891 185.017 61.0737C184.938 61.3019 184.926 61.5482 184.984 61.7828Z" fill="#F8F8F8"/>
<path d="M187.134 60.4057L186.87 60.6516C186.86 60.6614 186.848 60.6685 186.835 60.6721C186.822 60.6748 186.808 60.6742 186.795 60.6703C186.782 60.6663 186.77 60.6592 186.761 60.6495C186.754 60.6425 186.748 60.634 186.744 60.6247C186.74 60.6154 186.738 60.6053 186.738 60.5952C186.738 60.5851 186.74 60.5751 186.744 60.5657C186.748 60.5564 186.754 60.548 186.761 60.5409L187.122 60.1966C187.136 60.1826 187.155 60.1747 187.175 60.1747C187.195 60.1747 187.214 60.1826 187.228 60.1966C187.241 60.2113 187.249 60.2301 187.251 60.2499L187.689 62.2316C187.694 62.2511 187.69 62.2716 187.679 62.2885C187.668 62.3054 187.651 62.3173 187.632 62.3218C187.612 62.3255 187.592 62.3216 187.575 62.311C187.559 62.3003 187.547 62.2836 187.542 62.2644L187.134 60.4057Z" fill="#F8F8F8"/>
<path d="M188.212 62.0615L189.017 60.9282C189.064 60.8636 189.097 60.7899 189.113 60.7118C189.129 60.6338 189.129 60.5532 189.112 60.4753C189.081 60.338 189 60.2173 188.884 60.1372C188.82 60.0911 188.747 60.0592 188.669 60.0437C188.592 60.0281 188.512 60.0293 188.435 60.047C188.297 60.0759 188.174 60.1556 188.091 60.2704L188.007 60.3892C188.002 60.3982 187.995 60.4059 187.986 60.4118C187.978 60.4178 187.968 60.4219 187.958 60.4238C187.948 60.4258 187.938 60.4255 187.928 60.4231C187.918 60.4207 187.908 60.4161 187.9 60.4097C187.892 60.4044 187.885 60.3973 187.879 60.3891C187.874 60.3808 187.87 60.3714 187.868 60.3615C187.866 60.3517 187.867 60.3416 187.869 60.3319C187.871 60.3222 187.876 60.3131 187.882 60.3052L187.964 60.1823C188.07 60.0367 188.225 59.9347 188.4 59.8954C188.587 59.8555 188.781 59.8906 188.942 59.993C189.103 60.0954 189.216 60.2568 189.259 60.4425C189.281 60.5412 189.282 60.6434 189.263 60.7426C189.243 60.8417 189.203 60.9357 189.144 61.0184L188.454 61.9877L189.478 61.7623C189.498 61.7587 189.519 61.7631 189.536 61.7746C189.553 61.7861 189.565 61.8037 189.568 61.8237C189.573 61.8433 189.569 61.8638 189.558 61.8807C189.548 61.8976 189.531 61.9095 189.511 61.9139L188.31 62.1803H188.298C188.288 62.1849 188.278 62.1872 188.267 62.1872C188.257 62.1872 188.246 62.1849 188.236 62.1803C188.227 62.1745 188.218 62.1667 188.211 62.1574C188.205 62.1481 188.2 62.1375 188.198 62.1263C188.196 62.1151 188.196 62.1036 188.198 62.0924C188.2 62.0812 188.205 62.0707 188.212 62.0615V62.0615Z" fill="#F8F8F8"/>
<path d="M192.765 59.0736L192.335 59.7703C192.48 59.7683 192.622 59.8082 192.745 59.8851C192.87 59.9654 192.968 60.0809 193.027 60.217C193.087 60.3531 193.105 60.5037 193.078 60.6498C193.052 60.796 192.984 60.9312 192.881 61.0384C192.778 61.1455 192.646 61.2198 192.501 61.252C192.405 61.2735 192.306 61.2756 192.21 61.258C192.113 61.2404 192.021 61.2035 191.939 61.1495C191.931 61.1443 191.923 61.1373 191.917 61.1291C191.911 61.1208 191.907 61.1114 191.904 61.1015C191.902 61.0915 191.902 61.0812 191.904 61.0712C191.905 61.0611 191.909 61.0515 191.915 61.043C191.92 61.0341 191.927 61.0265 191.936 61.0204C191.944 61.0144 191.954 61.0101 191.964 61.0078C191.974 61.0055 191.984 61.0053 191.995 61.0071C192.005 61.0089 192.015 61.0127 192.023 61.0184C192.105 61.0712 192.199 61.1029 192.297 61.1107C192.394 61.1185 192.492 61.1021 192.581 61.063C192.67 61.024 192.749 60.9634 192.809 60.8868C192.87 60.8101 192.91 60.7197 192.927 60.6236C192.944 60.5275 192.937 60.4287 192.907 60.336C192.876 60.2433 192.824 60.1595 192.753 60.0921C192.682 60.0247 192.596 59.9757 192.502 59.9496C192.408 59.9235 192.309 59.9211 192.214 59.9425C192.202 59.9448 192.19 59.9443 192.178 59.9411C192.166 59.9379 192.155 59.9321 192.146 59.924V59.924C192.129 59.9123 192.116 59.8943 192.112 59.8737C192.107 59.853 192.111 59.8314 192.122 59.8134L192.532 59.1412L191.712 59.3257C191.691 59.3299 191.67 59.3258 191.652 59.3143C191.634 59.3028 191.622 59.2848 191.618 59.2642C191.615 59.2541 191.615 59.2436 191.617 59.2334C191.618 59.2231 191.622 59.2133 191.627 59.2045C191.633 59.1957 191.64 59.1882 191.649 59.1822C191.657 59.1763 191.667 59.1721 191.677 59.1699L192.685 58.9486C192.695 58.9462 192.706 58.9458 192.716 58.9475C192.726 58.9492 192.736 58.9529 192.745 58.9584C192.754 58.964 192.761 58.9712 192.767 58.9797C192.773 58.9882 192.777 58.9979 192.78 59.008C192.783 59.0194 192.783 59.0314 192.78 59.0428C192.776 59.0537 192.771 59.0641 192.765 59.0736V59.0736Z" fill="#F8F8F8"/>
<path d="M194.925 60.2499L193.757 60.5081H193.747C193.731 60.5141 193.713 60.5141 193.698 60.5081C193.689 60.5038 193.68 60.4976 193.674 60.49C193.667 60.4824 193.662 60.4736 193.659 60.464C193.656 60.4544 193.655 60.4442 193.656 60.4342C193.657 60.4242 193.66 60.4144 193.665 60.4056L194.571 58.5756C194.575 58.5667 194.581 58.5588 194.589 58.5523C194.597 58.5459 194.606 58.5411 194.615 58.5382C194.625 58.5354 194.635 58.5345 194.645 58.5356C194.655 58.5367 194.664 58.5399 194.673 58.5449C194.686 58.5523 194.698 58.5629 194.706 58.5756C194.705 58.5797 194.705 58.5838 194.706 58.5879L195.034 60.0675L195.177 60.0347C195.187 60.0326 195.197 60.0324 195.207 60.0341C195.217 60.0359 195.226 60.0396 195.235 60.045C195.243 60.0504 195.251 60.0575 195.256 60.0657C195.262 60.074 195.266 60.0833 195.268 60.0931C195.271 60.1029 195.271 60.1131 195.269 60.123C195.267 60.1329 195.264 60.1423 195.258 60.1508C195.253 60.1593 195.246 60.1666 195.237 60.1723C195.229 60.1781 195.22 60.1822 195.21 60.1843L195.067 60.215L195.146 60.586C195.149 60.5958 195.149 60.6059 195.147 60.6158C195.145 60.6257 195.141 60.6351 195.136 60.6435C195.13 60.6519 195.123 60.6591 195.115 60.6647C195.106 60.6703 195.097 60.6742 195.087 60.6761C195.077 60.6785 195.067 60.679 195.057 60.6774C195.048 60.6757 195.038 60.6721 195.03 60.6668C195.021 60.6614 195.014 60.6544 195.008 60.6461C195.003 60.6379 194.999 60.6286 194.997 60.6188L194.925 60.2499ZM194.892 60.1003L194.612 58.8379L193.872 60.3278L194.892 60.1003Z" fill="#F8F8F8"/>
<path d="M195.831 60.2908C195.823 60.2852 195.815 60.278 195.809 60.2694C195.803 60.2609 195.799 60.2513 195.797 60.2412C195.795 60.2311 195.795 60.2207 195.797 60.2106C195.799 60.2004 195.803 60.1908 195.809 60.1822C195.82 60.1646 195.838 60.1523 195.859 60.1477C195.88 60.1431 195.901 60.1467 195.919 60.1576C196.051 60.2412 196.21 60.2692 196.362 60.2355C196.515 60.2007 196.647 60.1072 196.731 59.9752C196.815 59.8432 196.844 59.6835 196.811 59.5305C196.795 59.4545 196.765 59.3823 196.721 59.3183C196.677 59.2543 196.621 59.1998 196.555 59.1579C196.49 59.1161 196.417 59.0878 196.34 59.0747C196.264 59.0616 196.185 59.064 196.11 59.0817C196.034 59.0981 195.962 59.1296 195.898 59.1743C195.834 59.219 195.78 59.276 195.739 59.342C195.734 59.3508 195.726 59.3585 195.718 59.3645C195.71 59.3706 195.7 59.3749 195.69 59.3771C195.68 59.3794 195.669 59.3797 195.659 59.3779C195.649 59.3761 195.639 59.3722 195.63 59.3666C195.621 59.3614 195.613 59.3545 195.606 59.3461C195.604 59.338 195.604 59.3296 195.606 59.3215C195.607 59.3161 195.607 59.3105 195.606 59.3051L195.518 58.4137C195.516 58.4024 195.516 58.3908 195.52 58.3798C195.523 58.3688 195.528 58.3586 195.536 58.3501C195.547 58.3354 195.563 58.3252 195.581 58.3214L196.587 58.1001C196.598 58.098 196.608 58.0978 196.618 58.0997C196.628 58.1016 196.638 58.1054 196.647 58.111C196.655 58.1166 196.663 58.1239 196.669 58.1324C196.674 58.1409 196.679 58.1505 196.681 58.1606C196.683 58.1707 196.683 58.1811 196.681 58.1912C196.679 58.2014 196.675 58.2111 196.67 58.2197C196.664 58.2284 196.657 58.2358 196.648 58.2417C196.64 58.2475 196.63 58.2517 196.62 58.2538L195.682 58.4587L195.745 59.1166C195.843 59.0276 195.962 58.9661 196.091 58.9383C196.187 58.9159 196.286 58.9131 196.382 58.93C196.479 58.9469 196.571 58.9832 196.653 59.0367C196.737 59.0886 196.809 59.1573 196.865 59.2384C196.921 59.3195 196.96 59.4113 196.979 59.508C197.001 59.6036 197.004 59.7027 196.987 59.7995C196.971 59.8962 196.935 59.9887 196.883 60.0715C196.773 60.2372 196.604 60.3546 196.411 60.3994C196.312 60.4214 196.21 60.423 196.11 60.4044C196.01 60.3857 195.916 60.3471 195.831 60.2908V60.2908Z" fill="#F8F8F8"/>
<path d="M197.561 58.3625C197.603 58.2081 197.685 58.0678 197.8 57.9561C197.915 57.8444 198.057 57.7654 198.212 57.7272C198.232 57.7222 198.252 57.7249 198.269 57.7349C198.287 57.7449 198.299 57.7612 198.305 57.7805C198.309 57.8011 198.306 57.8226 198.295 57.8408C198.284 57.8591 198.267 57.8726 198.247 57.8788C198.118 57.9105 198 57.9763 197.904 58.0693C197.809 58.1623 197.741 58.2791 197.706 58.4075C197.661 58.559 197.641 58.7168 197.647 58.8748C197.696 58.7834 197.764 58.7037 197.847 58.6411C197.93 58.5785 198.025 58.5345 198.126 58.5121C198.266 58.4813 198.412 58.4923 198.545 58.5437C198.679 58.5951 198.795 58.6847 198.878 58.8014C198.961 58.918 199.008 59.0564 199.012 59.1995C199.017 59.3425 198.98 59.4839 198.905 59.6059C198.83 59.728 198.721 59.8253 198.592 59.8858C198.462 59.9462 198.317 59.9672 198.176 59.9461C198.034 59.9249 197.902 59.8626 197.795 59.7669C197.689 59.6711 197.613 59.5462 197.577 59.4076C197.561 59.3614 197.549 59.3142 197.54 59.2662C197.471 58.968 197.478 58.6572 197.561 58.3625V58.3625ZM197.727 59.3605C197.729 59.3742 197.734 59.3875 197.741 59.3994C197.743 59.4068 197.743 59.4146 197.741 59.422C197.791 59.5645 197.894 59.6821 198.029 59.7498C198.164 59.8176 198.32 59.8302 198.464 59.785C198.609 59.7398 198.73 59.6403 198.802 59.5076C198.874 59.3749 198.892 59.2194 198.851 59.0739C198.811 58.9283 198.715 58.8042 198.585 58.7277C198.455 58.6513 198.3 58.6284 198.153 58.664C198.006 58.6997 197.879 58.7909 197.798 58.9186C197.718 59.0463 197.69 59.2003 197.721 59.3482L197.727 59.3605Z" fill="#F8F8F8"/>
<path d="M185.372 66.7088L166.558 70.8729L166.762 71.7973L185.577 67.6332L185.372 66.7088Z" fill="#A6A6A6"/>
<path d="M180.331 69.9771L167.011 72.9251L167.216 73.8495L180.536 70.9015L180.331 69.9771Z" fill="#A6A6A6"/>
<path d="M188.776 49.7321L179.394 51.8087L179.598 52.7331L188.98 50.6566L188.776 49.7321Z" fill="#A6A6A6"/>
<path d="M142.862 73.0077C142.862 73.0077 148.844 65.9315 152.159 63.4452C155.474 60.959 171.284 56.0077 172.527 59.3971C174.142 63.7214 165.567 68.3433 161.073 70.0221C161.073 70.0221 164.802 80.0414 159.373 84.6846C153.944 89.3277 142.862 73.0077 142.862 73.0077Z" fill="#D3766A"/>
<path d="M172.537 60.6827C171.156 65.6977 165.1 67.5677 160.85 69.5546C160.787 69.5809 160.731 69.622 160.687 69.6745C160.644 69.7269 160.613 69.7891 160.599 69.8559C160.584 69.9226 160.586 69.9918 160.604 70.0577C160.621 70.1237 160.655 70.1843 160.701 70.2346C161.987 74.5377 162.55 80.9871 159.639 84.6952C159.619 84.7163 159.608 84.7444 159.609 84.7733C159.61 84.8022 159.623 84.8295 159.644 84.8492C159.665 84.869 159.693 84.8795 159.722 84.8785C159.751 84.8775 159.778 84.8651 159.798 84.8439C163.506 81.2952 163.474 74.9202 161.764 70.2983C166.141 68.3221 172.123 66.1864 172.612 60.7358L172.537 60.6827Z" fill="#263238"/>
<path d="M114.281 63.9765L96.4093 79.4784C96.4093 79.4784 87.75 62.3827 86.73 51.8534C85.71 41.324 90.7675 42.2909 96.8131 47.2102C102.859 52.1296 114.281 63.9765 114.281 63.9765Z" fill="#7165E3"/>
<path d="M97.4081 58.7489C97.4081 58.9318 97.3539 59.1105 97.2523 59.2625C97.1507 59.4145 97.0064 59.533 96.8375 59.6029C96.6686 59.6729 96.4827 59.6912 96.3034 59.6555C96.1241 59.6199 95.9594 59.5318 95.8301 59.4026C95.7008 59.2733 95.6128 59.1086 95.5771 58.9293C95.5414 58.75 95.5597 58.5641 95.6297 58.3952C95.6997 58.2263 95.8181 58.0819 95.9702 57.9803C96.1222 57.8788 96.3009 57.8245 96.4837 57.8245C96.7289 57.8245 96.964 57.9219 97.1373 58.0953C97.3107 58.2687 97.4081 58.5038 97.4081 58.7489ZM108.341 57.9414C108.216 58.0084 108.107 58.1039 108.025 58.2202C107.943 58.3365 107.889 58.4704 107.868 58.6112C107.846 58.7521 107.858 58.8959 107.903 59.0313C107.947 59.1667 108.022 59.2899 108.122 59.391C108.223 59.4922 108.345 59.5685 108.48 59.6139C108.615 59.6592 108.759 59.6724 108.9 59.6524C109.041 59.6323 109.175 59.5795 109.292 59.4983C109.409 59.4171 109.506 59.3096 109.574 59.1845L108.341 57.9414ZM90.3531 48.7296C90.1703 48.7296 89.9915 48.7838 89.8395 48.8853C89.6875 48.9869 89.569 49.1313 89.4991 49.3002C89.4291 49.4691 89.4108 49.655 89.4465 49.8343C89.4821 50.0136 89.5702 50.1783 89.6995 50.3076C89.8287 50.4368 89.9934 50.5249 90.1728 50.5605C90.3521 50.5962 90.5379 50.5779 90.7068 50.5079C90.8757 50.438 91.0201 50.3195 91.1217 50.1675C91.2232 50.0155 91.2775 49.8367 91.2775 49.6539C91.2775 49.5325 91.2536 49.4123 91.2071 49.3002C91.1606 49.188 91.0926 49.0861 91.0067 49.0003C90.9209 48.9145 90.819 48.8464 90.7068 48.7999C90.5947 48.7535 90.4745 48.7296 90.3531 48.7296V48.7296ZM96.4837 76.2695C96.3009 76.2695 96.1222 76.3238 95.9702 76.4253C95.8181 76.5269 95.6997 76.6713 95.6297 76.8402C95.5597 77.0091 95.5414 77.195 95.5771 77.3743C95.6128 77.5536 95.7008 77.7183 95.8301 77.8476C95.9594 77.9768 96.1241 78.0649 96.3034 78.1005C96.4827 78.1362 96.6686 78.1179 96.8375 78.0479C97.0064 77.978 97.1507 77.8595 97.2523 77.7075C97.3539 77.5555 97.4081 77.3767 97.4081 77.1939C97.4081 76.9488 97.3107 76.7137 97.1373 76.5403C96.964 76.3669 96.7289 76.2695 96.4837 76.2695ZM102.625 67.1746C102.442 67.1746 102.263 67.2288 102.111 67.3303C101.959 67.4319 101.841 67.5763 101.771 67.7452C101.701 67.9141 101.683 68.1 101.718 68.2793C101.754 68.4586 101.842 68.6233 101.971 68.7526C102.101 68.8818 102.265 68.9699 102.445 69.0055C102.624 69.0412 102.81 69.0229 102.979 68.9529C103.148 68.883 103.292 68.7645 103.394 68.6125C103.495 68.4605 103.549 68.2817 103.549 68.0989C103.549 67.9775 103.525 67.8573 103.479 67.7452C103.433 67.633 103.364 67.5311 103.279 67.4453C103.193 67.3595 103.091 67.2914 102.979 67.2449C102.867 67.1985 102.746 67.1746 102.625 67.1746Z" fill="#F5CF48"/>
<path d="M110.328 62.1808C110.445 62.0746 110.551 62.1171 110.445 62.1808C105.699 66.8095 100.667 71.1353 95.3788 75.1327C95.3788 75.1327 95.3044 75.1327 95.3788 75.069C97.525 72.6783 109.064 63.3177 110.328 62.1808Z" fill="#263238"/>
<path opacity="0.1" d="M108.235 69.2252L96.4093 79.4783C96.4093 79.4783 87.7499 62.3827 86.7299 51.8533C86.4431 48.8677 86.6343 46.8065 87.2081 45.4783L108.235 69.2252Z" fill="black"/>
<path d="M99.7946 90.5098L99.7945 90.5098L99.7943 90.51L99.7943 90.5101L99.6158 90.6529L99.6073 90.8817L99.0196 106.782L42.1983 106.574C42.2971 106.221 42.4374 105.726 42.6175 105.104C43.0077 103.758 43.5845 101.819 44.3308 99.4524C45.8235 94.7182 47.993 88.2737 50.7008 81.43C53.4093 74.5847 56.6524 67.3498 60.2905 61.0309C63.9343 54.7022 67.9492 49.3374 72.1853 46.1877C76.425 43.0366 80.5442 42.0275 84.0884 42.5517C87.6326 43.0758 90.6634 45.1416 92.7185 48.2594C93.238 49.0601 96.4324 54.5342 99.5166 60.8735C101.059 64.0428 102.568 67.4182 103.7 70.5257C104.837 73.6465 105.575 76.4483 105.61 78.4883L105.61 78.4909C105.692 82.0881 104.249 85.0896 102.763 87.2078C102.021 88.265 101.275 89.0946 100.714 89.659C100.434 89.941 100.201 90.156 100.04 90.2995C99.9591 90.3713 99.8962 90.425 99.8543 90.4603C99.8334 90.4779 99.8177 90.4909 99.8076 90.4992L99.7967 90.5081L99.7946 90.5098Z" fill="#7165E3" stroke="black"/>
<path d="M72.8643 58.7489C72.8643 58.9318 72.8101 59.1105 72.7085 59.2625C72.607 59.4145 72.4626 59.533 72.2937 59.6029C72.1248 59.6729 71.9389 59.6912 71.7596 59.6555C71.5803 59.6199 71.4156 59.5318 71.2863 59.4026C71.157 59.2733 71.069 59.1086 71.0333 58.9293C70.9977 58.75 71.016 58.5641 71.0859 58.3952C71.1559 58.2263 71.2744 58.0819 71.4264 57.9803C71.5784 57.8788 71.7571 57.8246 71.9399 57.8246C72.1851 57.8246 72.4202 57.9219 72.5936 58.0953C72.7669 58.2687 72.8643 58.5038 72.8643 58.7489V58.7489ZM84.2118 57.8246C84.029 57.8246 83.8503 57.8788 83.6983 57.9803C83.5462 58.0819 83.4278 58.2263 83.3578 58.3952C83.2878 58.5641 83.2695 58.75 83.3052 58.9293C83.3409 59.1086 83.4289 59.2733 83.5582 59.4026C83.6875 59.5318 83.8522 59.6199 84.0315 59.6555C84.2108 59.6912 84.3966 59.6729 84.5656 59.6029C84.7345 59.533 84.8788 59.4145 84.9804 59.2625C85.082 59.1105 85.1362 58.9318 85.1362 58.7489C85.1362 58.6275 85.1123 58.5073 85.0658 58.3952C85.0194 58.283 84.9513 58.1811 84.8654 58.0953C84.7796 58.0095 84.6777 57.9414 84.5656 57.8949C84.4534 57.8485 84.3332 57.8246 84.2118 57.8246V57.8246ZM96.4837 57.8246C96.3009 57.8246 96.1221 57.8788 95.9701 57.9803C95.8181 58.0819 95.6996 58.2263 95.6297 58.3952C95.5597 58.5641 95.5414 58.75 95.5771 58.9293C95.6127 59.1086 95.7008 59.2733 95.8301 59.4026C95.9593 59.5318 96.124 59.6199 96.3033 59.6555C96.4827 59.6912 96.6685 59.6729 96.8374 59.6029C97.0063 59.533 97.1507 59.4145 97.2523 59.2625C97.3538 59.1105 97.4081 58.9318 97.4081 58.7489C97.4081 58.6275 97.3842 58.5073 97.3377 58.3952C97.2912 58.283 97.2231 58.1811 97.1373 58.0953C97.0515 58.0095 96.9496 57.9414 96.8374 57.8949C96.7253 57.8485 96.6051 57.8246 96.4837 57.8246V57.8246ZM78.0493 48.7296C77.8665 48.7296 77.6878 48.7838 77.5358 48.8853C77.3837 48.9869 77.2653 49.1313 77.1953 49.3002C77.1253 49.4691 77.107 49.655 77.1427 49.8343C77.1784 50.0136 77.2664 50.1783 77.3957 50.3076C77.525 50.4368 77.6897 50.5249 77.869 50.5605C78.0483 50.5962 78.2341 50.5779 78.403 50.5079C78.572 50.438 78.7163 50.3195 78.8179 50.1675C78.9195 50.0155 78.9737 49.8367 78.9737 49.6539C78.9737 49.4088 78.8763 49.1737 78.7029 49.0003C78.5296 48.8269 78.2945 48.7296 78.0493 48.7296ZM90.3212 48.7296C90.1384 48.7296 89.9596 48.7838 89.8076 48.8853C89.6556 48.9869 89.5371 49.1313 89.4672 49.3002C89.3972 49.4691 89.3789 49.655 89.4146 49.8343C89.4502 50.0136 89.5383 50.1783 89.6676 50.3076C89.7968 50.4368 89.9615 50.5249 90.1408 50.5605C90.3202 50.5962 90.506 50.5779 90.6749 50.5079C90.8438 50.438 90.9882 50.3195 91.0898 50.1675C91.1913 50.0155 91.2456 49.8367 91.2456 49.6539C91.2457 49.4142 91.1527 49.1838 90.9862 49.0113C90.8197 48.8388 90.5927 48.7378 90.3531 48.7296H90.3212ZM59.6681 76.2696C59.4852 76.2696 59.3065 76.3238 59.1545 76.4253C59.0025 76.5269 58.884 76.6713 58.814 76.8402C58.7441 77.0091 58.7258 77.195 58.7614 77.3743C58.7971 77.5536 58.8852 77.7183 59.0144 77.8476C59.1437 77.9768 59.3084 78.0649 59.4877 78.1005C59.667 78.1362 59.8529 78.1179 60.0218 78.0479C60.1907 77.978 60.3351 77.8595 60.4366 77.7075C60.5382 77.5555 60.5924 77.3767 60.5924 77.1939C60.5924 76.9488 60.495 76.7137 60.3217 76.5403C60.1483 76.3669 59.9132 76.2696 59.6681 76.2696ZM71.9399 76.2696C71.7571 76.2696 71.5784 76.3238 71.4264 76.4253C71.2744 76.5269 71.1559 76.6713 71.0859 76.8402C71.016 77.0091 70.9977 77.195 71.0333 77.3743C71.069 77.5536 71.157 77.7183 71.2863 77.8476C71.4156 77.9768 71.5803 78.0649 71.7596 78.1005C71.9389 78.1362 72.1248 78.1179 72.2937 78.0479C72.4626 77.978 72.607 77.8595 72.7085 77.7075C72.8101 77.5555 72.8643 77.3767 72.8643 77.1939C72.8643 76.9488 72.7669 76.7137 72.5936 76.5403C72.4202 76.3669 72.1851 76.2696 71.9399 76.2696V76.2696ZM84.2118 76.2696C84.029 76.2696 83.8503 76.3238 83.6983 76.4253C83.5462 76.5269 83.4278 76.6713 83.3578 76.8402C83.2878 77.0091 83.2695 77.195 83.3052 77.3743C83.3409 77.5536 83.4289 77.7183 83.5582 77.8476C83.6875 77.9768 83.8522 78.0649 84.0315 78.1005C84.2108 78.1362 84.3966 78.1179 84.5656 78.0479C84.7345 77.978 84.8788 77.8595 84.9804 77.7075C85.082 77.5555 85.1362 77.3767 85.1362 77.1939C85.1362 77.0725 85.1123 76.9523 85.0658 76.8402C85.0194 76.728 84.9513 76.6261 84.8654 76.5403C84.7796 76.4545 84.6777 76.3864 84.5656 76.3399C84.4534 76.2935 84.3332 76.2696 84.2118 76.2696V76.2696ZM96.4837 76.2696C96.3009 76.2696 96.1221 76.3238 95.9701 76.4253C95.8181 76.5269 95.6996 76.6713 95.6297 76.8402C95.5597 77.0091 95.5414 77.195 95.5771 77.3743C95.6127 77.5536 95.7008 77.7183 95.8301 77.8476C95.9593 77.9768 96.124 78.0649 96.3033 78.1005C96.4827 78.1362 96.6685 78.1179 96.8374 78.0479C97.0063 77.978 97.1507 77.8595 97.2523 77.7075C97.3538 77.5555 97.4081 77.3767 97.4081 77.1939C97.4081 76.9488 97.3107 76.7137 97.1373 76.5403C96.964 76.3669 96.7289 76.2696 96.4837 76.2696ZM65.8093 67.1746C65.6265 67.1746 65.4478 67.2288 65.2958 67.3303C65.1437 67.4319 65.0253 67.5763 64.9553 67.7452C64.8853 67.9141 64.867 68.1 64.9027 68.2793C64.9384 68.4586 65.0264 68.6233 65.1557 68.7526C65.285 68.8818 65.4497 68.9699 65.629 69.0055C65.8083 69.0412 65.9941 69.0229 66.1631 68.9529C66.332 68.883 66.4763 68.7645 66.5779 68.6125C66.6795 68.4605 66.7337 68.2817 66.7337 68.0989C66.7337 67.8538 66.6363 67.6187 66.4629 67.4453C66.2896 67.2719 66.0545 67.1746 65.8093 67.1746V67.1746ZM78.0812 67.1746C77.8984 67.1746 77.7196 67.2288 77.5676 67.3303C77.4156 67.4319 77.2971 67.5763 77.2272 67.7452C77.1572 67.9141 77.1389 68.1 77.1746 68.2793C77.2102 68.4586 77.2983 68.6233 77.4276 68.7526C77.5568 68.8818 77.7215 68.9699 77.9008 69.0055C78.0802 69.0412 78.266 69.0229 78.4349 68.9529C78.6038 68.883 78.7482 68.7645 78.8498 68.6125C78.9513 68.4605 79.0056 68.2817 79.0056 68.0989C79.0056 67.9748 78.9807 67.8519 78.9323 67.7377C78.8838 67.6234 78.8129 67.52 78.7236 67.4338C78.6344 67.3475 78.5287 67.2801 78.4129 67.2356C78.297 67.191 78.1734 67.1703 78.0493 67.1746H78.0812ZM90.3531 67.1746C90.1702 67.1746 89.9915 67.2288 89.8395 67.3303C89.6875 67.4319 89.569 67.5763 89.4991 67.7452C89.4291 67.9141 89.4108 68.1 89.4464 68.2793C89.4821 68.4586 89.5701 68.6233 89.6994 68.7526C89.8287 68.8818 89.9934 68.9699 90.1727 69.0055C90.352 69.0412 90.5379 69.0229 90.7068 68.9529C90.8757 68.883 91.0201 68.7645 91.1216 68.6125C91.2232 68.4605 91.2774 68.2817 91.2774 68.0989C91.2774 67.8538 91.1801 67.6187 91.0067 67.4453C90.8333 67.2719 90.5982 67.1746 90.3531 67.1746V67.1746ZM103.018 67.2702C102.894 67.2146 102.76 67.1856 102.625 67.1852C102.38 67.1852 102.145 67.2826 101.971 67.4559C101.798 67.6293 101.701 67.8644 101.701 68.1096C101.701 68.3547 101.798 68.5898 101.971 68.7632C102.145 68.9365 102.38 69.0339 102.625 69.0339C102.812 69.0348 102.995 68.9782 103.149 68.8718C103.303 68.7654 103.42 68.6143 103.486 68.4389C103.337 68.0458 103.177 67.6633 103.018 67.2702V67.2702ZM47.3962 94.7146C47.2107 94.7105 47.0284 94.7623 46.8728 94.8633C46.7172 94.9642 46.5955 95.1097 46.5237 95.2807C46.4518 95.4517 46.4331 95.6404 46.4699 95.8222C46.5067 96.004 46.5974 96.1705 46.7301 96.3001C46.8628 96.4297 47.0314 96.5163 47.2141 96.5488C47.3967 96.5813 47.5849 96.5581 47.7541 96.4822C47.9234 96.4063 48.0659 96.2812 48.1631 96.1233C48.2603 95.9653 48.3078 95.7817 48.2993 95.5964C48.2886 95.3623 48.1894 95.1411 48.0217 94.9773C47.854 94.8136 47.6305 94.7197 47.3962 94.7146V94.7146ZM59.6681 94.7146C59.4852 94.7146 59.3065 94.7688 59.1545 94.8703C59.0025 94.9719 58.884 95.1163 58.814 95.2852C58.7441 95.4541 58.7258 95.64 58.7614 95.8193C58.7971 95.9986 58.8852 96.1633 59.0144 96.2926C59.1437 96.4218 59.3084 96.5099 59.4877 96.5455C59.667 96.5812 59.8529 96.5629 60.0218 96.4929C60.1907 96.423 60.3351 96.3045 60.4366 96.1525C60.5382 96.0005 60.5924 95.8217 60.5924 95.6389C60.5924 95.3938 60.495 95.1587 60.3217 94.9853C60.1483 94.8119 59.9132 94.7146 59.6681 94.7146ZM71.9399 94.7146C71.7571 94.7146 71.5784 94.7688 71.4264 94.8703C71.2744 94.9719 71.1559 95.1163 71.0859 95.2852C71.016 95.4541 70.9977 95.64 71.0333 95.8193C71.069 95.9986 71.157 96.1633 71.2863 96.2926C71.4156 96.4218 71.5803 96.5099 71.7596 96.5455C71.9389 96.5812 72.1248 96.5629 72.2937 96.4929C72.4626 96.423 72.607 96.3045 72.7085 96.1525C72.8101 96.0005 72.8643 95.8217 72.8643 95.6389C72.8643 95.3938 72.7669 95.1587 72.5936 94.9853C72.4202 94.8119 72.1851 94.7146 71.9399 94.7146V94.7146ZM84.2118 94.7146C84.029 94.7146 83.8503 94.7688 83.6983 94.8703C83.5462 94.9719 83.4278 95.1163 83.3578 95.2852C83.2878 95.4541 83.2695 95.64 83.3052 95.8193C83.3409 95.9986 83.4289 96.1633 83.5582 96.2926C83.6875 96.4218 83.8522 96.5099 84.0315 96.5455C84.2108 96.5812 84.3966 96.5629 84.5656 96.4929C84.7345 96.423 84.8788 96.3045 84.9804 96.1525C85.082 96.0005 85.1362 95.8217 85.1362 95.6389C85.1362 95.5175 85.1123 95.3973 85.0658 95.2852C85.0194 95.173 84.9513 95.0711 84.8654 94.9853C84.7796 94.8995 84.6777 94.8314 84.5656 94.7849C84.4534 94.7385 84.3332 94.7146 84.2118 94.7146V94.7146ZM96.4837 94.7146C96.3009 94.7146 96.1221 94.7688 95.9701 94.8703C95.8181 94.9719 95.6996 95.1163 95.6297 95.2852C95.5597 95.4541 95.5414 95.64 95.5771 95.8193C95.6127 95.9986 95.7008 96.1633 95.8301 96.2926C95.9593 96.4218 96.124 96.5099 96.3033 96.5455C96.4827 96.5812 96.6685 96.5629 96.8374 96.4929C97.0063 96.423 97.1507 96.3045 97.2523 96.1525C97.3538 96.0005 97.4081 95.8217 97.4081 95.6389C97.4081 95.3938 97.3107 95.1587 97.1373 94.9853C96.964 94.8119 96.7289 94.7146 96.4837 94.7146ZM53.5374 85.6196C53.3546 85.6196 53.1759 85.6738 53.0239 85.7753C52.8719 85.8769 52.7534 86.0213 52.6834 86.1902C52.6135 86.3591 52.5952 86.545 52.6308 86.7243C52.6665 86.9036 52.7545 87.0683 52.8838 87.1976C53.0131 87.3268 53.1778 87.4149 53.3571 87.4505C53.5364 87.4862 53.7223 87.4679 53.8912 87.3979C54.0601 87.328 54.2045 87.2095 54.306 87.0575C54.4076 86.9055 54.4618 86.7267 54.4618 86.5439C54.4618 86.2988 54.3644 86.0637 54.1911 85.8903C54.0177 85.7169 53.7826 85.6196 53.5374 85.6196V85.6196ZM65.8093 85.6196C65.6265 85.6196 65.4478 85.6738 65.2958 85.7753C65.1437 85.8769 65.0253 86.0213 64.9553 86.1902C64.8853 86.3591 64.867 86.545 64.9027 86.7243C64.9384 86.9036 65.0264 87.0683 65.1557 87.1976C65.285 87.3268 65.4497 87.4149 65.629 87.4505C65.8083 87.4862 65.9941 87.4679 66.1631 87.3979C66.332 87.328 66.4763 87.2095 66.5779 87.0575C66.6795 86.9055 66.7337 86.7267 66.7337 86.5439C66.7337 86.2988 66.6363 86.0637 66.4629 85.8903C66.2896 85.7169 66.0545 85.6196 65.8093 85.6196V85.6196ZM78.0812 85.6196C77.8984 85.6196 77.7196 85.6738 77.5676 85.7753C77.4156 85.8769 77.2971 86.0213 77.2272 86.1902C77.1572 86.3591 77.1389 86.545 77.1746 86.7243C77.2102 86.9036 77.2983 87.0683 77.4276 87.1976C77.5568 87.3268 77.7215 87.4149 77.9008 87.4505C78.0802 87.4862 78.266 87.4679 78.4349 87.3979C78.6038 87.328 78.7482 87.2095 78.8498 87.0575C78.9513 86.9055 79.0056 86.7267 79.0056 86.5439C79.0056 86.4198 78.9807 86.2969 78.9323 86.1827C78.8838 86.0684 78.8129 85.965 78.7236 85.8788C78.6344 85.7925 78.5287 85.7251 78.4129 85.6805C78.297 85.636 78.1734 85.6153 78.0493 85.6196H78.0812ZM90.3531 85.6196C90.1702 85.6196 89.9915 85.6738 89.8395 85.7753C89.6875 85.8769 89.569 86.0213 89.4991 86.1902C89.4291 86.3591 89.4108 86.545 89.4464 86.7243C89.4821 86.9036 89.5701 87.0683 89.6994 87.1976C89.8287 87.3268 89.9934 87.4149 90.1727 87.4505C90.352 87.4862 90.5379 87.4679 90.7068 87.3979C90.8757 87.328 91.0201 87.2095 91.1216 87.0575C91.2232 86.9055 91.2774 86.7267 91.2774 86.5439C91.2774 86.2988 91.1801 86.0637 91.0067 85.8903C90.8333 85.7169 90.5982 85.6196 90.3531 85.6196V85.6196ZM102.625 85.6196C102.442 85.6196 102.263 85.6738 102.111 85.7753C101.959 85.8769 101.841 86.0213 101.771 86.1902C101.701 86.3591 101.683 86.545 101.718 86.7243C101.754 86.9036 101.842 87.0683 101.971 87.1976C102.101 87.3268 102.265 87.4149 102.445 87.4505C102.624 87.4862 102.81 87.4679 102.979 87.3979C103.148 87.328 103.292 87.2095 103.394 87.0575C103.495 86.9055 103.549 86.7267 103.549 86.5439C103.549 86.4225 103.525 86.3023 103.479 86.1902C103.432 86.078 103.364 85.9761 103.279 85.8903C103.193 85.8045 103.091 85.7364 102.979 85.6899C102.867 85.6435 102.746 85.6196 102.625 85.6196V85.6196ZM42.1687 104.83C42.0943 105.116 42.0199 105.371 41.9456 105.605C42.1031 105.439 42.1906 105.218 42.1899 104.989C42.1933 104.935 42.1861 104.881 42.1687 104.83V104.83ZM53.5374 104.065C53.3546 104.065 53.1759 104.119 53.0239 104.22C52.8719 104.322 52.7534 104.466 52.6834 104.635C52.6135 104.804 52.5952 104.99 52.6308 105.169C52.6665 105.349 52.7545 105.513 52.8838 105.643C53.0131 105.772 53.1778 105.86 53.3571 105.896C53.5364 105.931 53.7223 105.913 53.8912 105.843C54.0601 105.773 54.2045 105.654 54.306 105.502C54.4076 105.35 54.4618 105.172 54.4618 104.989C54.4535 104.749 54.3525 104.522 54.18 104.356C54.0076 104.189 53.7772 104.096 53.5374 104.096V104.065ZM65.8093 104.065C65.6265 104.065 65.4478 104.119 65.2958 104.22C65.1437 104.322 65.0253 104.466 64.9553 104.635C64.8853 104.804 64.867 104.99 64.9027 105.169C64.9384 105.349 65.0264 105.513 65.1557 105.643C65.285 105.772 65.4497 105.86 65.629 105.896C65.8083 105.931 65.9941 105.913 66.1631 105.843C66.332 105.773 66.4763 105.654 66.5779 105.502C66.6795 105.35 66.7337 105.172 66.7337 104.989C66.7254 104.749 66.6244 104.522 66.4519 104.356C66.2795 104.189 66.049 104.096 65.8093 104.096V104.065ZM78.0493 104.096C77.8665 104.096 77.6878 104.151 77.5358 104.252C77.3837 104.354 77.2653 104.498 77.1953 104.667C77.1253 104.836 77.107 105.022 77.1427 105.201C77.1784 105.38 77.2664 105.545 77.3957 105.674C77.525 105.804 77.6897 105.892 77.869 105.927C78.0483 105.963 78.2341 105.945 78.403 105.875C78.572 105.805 78.7163 105.686 78.8179 105.534C78.9195 105.382 78.9737 105.204 78.9737 105.021C78.9737 104.776 78.8763 104.541 78.7029 104.367C78.5296 104.194 78.2945 104.096 78.0493 104.096ZM90.3212 104.096C90.1384 104.096 89.9596 104.151 89.8076 104.252C89.6556 104.354 89.5371 104.498 89.4672 104.667C89.3972 104.836 89.3789 105.022 89.4146 105.201C89.4502 105.38 89.5383 105.545 89.6676 105.674C89.7968 105.804 89.9615 105.892 90.1408 105.927C90.3202 105.963 90.506 105.945 90.6749 105.875C90.8438 105.805 90.9882 105.686 91.0898 105.534C91.1913 105.382 91.2456 105.204 91.2456 105.021C91.2457 104.781 91.1527 104.551 90.9862 104.378C90.8197 104.206 90.5927 104.105 90.3531 104.096H90.3212Z" fill="#F5CF48"/>
<path d="M76.1262 91.9946C78.1477 91.3989 80.2017 90.92 82.2781 90.5602C83.3406 90.3902 84.4031 90.2733 85.4656 90.1883L86.9637 90.0821C87.5162 90.0821 88.0262 90.0821 88.6319 90.0821C88.685 90.0821 88.7062 90.1671 88.6319 90.1777C88.1112 90.1777 87.5693 90.3583 87.0806 90.4433L85.5293 90.6877L82.4162 91.1764C80.2912 91.4739 78.2618 91.8033 76.19 92.2389C76.0412 92.1858 76.02 92.0158 76.1262 91.9946Z" fill="#263238"/>
<path d="M80.918 45.0002C81.0667 46.0627 85.508 53.5002 90.4167 53.7658C92.0211 53.8402 92.818 45.1277 92.818 45.1277L93.0198 44.5008L95.9098 35.6821L85.9755 27.8727L84.5305 26.8102C84.5305 26.8102 83.9036 29.2752 83.1492 32.3458C83.1492 32.4946 83.0748 32.6327 83.043 32.7815C83.0111 32.9302 82.9473 33.1215 82.9155 33.2808C82.7986 33.7377 82.6711 34.2052 82.5648 34.6833C82.4586 35.1615 82.3948 35.3846 82.3205 35.7458L82.0761 36.8721C81.5047 39.5518 81.1178 42.2676 80.918 45.0002V45.0002Z" fill="#D3766A"/>
<path d="M83.1494 32.3671C83.8179 34.9837 85.0467 37.4239 86.751 39.5189C88.4552 41.614 90.5942 43.3138 93.02 44.5008L95.91 35.6821L85.9757 27.8727L84.5307 26.8102C84.5307 26.8102 83.9038 29.2965 83.1494 32.3671Z" fill="#263238"/>
<path d="M111.114 22.6133C111.476 38.8908 101.775 40.9415 98.2581 41.0158C95.0706 41.0796 84.2224 40.9096 82.1824 24.7596C80.1424 8.60959 87.6012 3.29709 94.9324 2.75522C102.264 2.21334 110.764 6.34646 111.114 22.6133Z" fill="#D3766A"/>
<path d="M107.566 18.0339C107.192 18.0124 106.819 17.9698 106.45 17.9064C106.068 17.9126 105.695 17.7931 105.388 17.5664C105.302 17.4727 105.249 17.3541 105.235 17.228C105.222 17.1018 105.249 16.9747 105.313 16.8651C105.482 16.6725 105.698 16.527 105.94 16.4432C106.183 16.3594 106.442 16.34 106.694 16.387C107.219 16.4135 107.714 16.633 108.086 17.0033C108.171 17.0955 108.226 17.2116 108.244 17.336C108.261 17.4604 108.24 17.5871 108.184 17.6993C108.127 17.8114 108.037 17.9035 107.927 17.9633C107.817 18.0231 107.69 18.0477 107.566 18.0339Z" fill="#263238"/>
<path d="M96.3456 18.512C96.7038 18.454 97.0586 18.376 97.4081 18.2783C97.8026 18.2458 98.1756 18.0854 98.4706 17.8214C98.5481 17.721 98.5902 17.5977 98.5902 17.4708C98.5902 17.3439 98.5481 17.2206 98.4706 17.1202C98.2855 16.9447 98.0575 16.8209 97.8095 16.7612C97.5615 16.7015 97.3021 16.7081 97.0575 16.7802C96.5366 16.8583 96.0632 17.1272 95.7293 17.5346C95.6529 17.6345 95.6089 17.7554 95.6032 17.8811C95.5975 18.0068 95.6304 18.1312 95.6975 18.2376C95.7646 18.3441 95.8626 18.4274 95.9785 18.4765C96.0944 18.5255 96.2225 18.5379 96.3456 18.512V18.512Z" fill="#263238"/>
<path d="M98.8636 22.6664C98.8636 22.6664 98.7786 22.7302 98.7786 22.7727C98.8423 23.8352 98.7786 25.1527 97.7161 25.5458C97.7161 25.5458 97.7161 25.6202 97.7161 25.6096C98.9698 25.4077 99.0973 23.7077 98.8636 22.6664Z" fill="#263238"/>
<path d="M97.8439 21.5402C96.0589 21.4446 96.0058 25.0252 97.6633 25.1102C99.3208 25.1952 99.2995 21.6146 97.8439 21.5402Z" fill="#263238"/>
<path d="M97.1744 21.7208C96.8557 21.912 96.5476 22.2627 96.1651 22.2945C95.7826 22.3264 95.4107 21.9545 95.1026 21.5933H95.0388C95.0388 22.2733 95.2726 22.9852 96.0057 23.0914C96.7388 23.1977 97.1638 22.6027 97.3444 21.912C97.3763 21.827 97.2701 21.6358 97.1744 21.7208Z" fill="#263238"/>
<path d="M105.281 22.507C105.281 22.507 105.366 22.5601 105.366 22.6026C105.302 23.6651 105.366 24.9933 106.429 25.3758C106.429 25.3758 106.429 25.4501 106.429 25.4395C105.186 25.2376 105.047 23.5483 105.281 22.507Z" fill="#263238"/>
<path d="M106.29 21.3702C108.075 21.2746 108.139 24.8552 106.482 24.9402C104.824 25.0252 104.803 21.4446 106.29 21.3702Z" fill="#263238"/>
<path d="M107.045 21.5933C107.332 21.774 107.619 22.114 107.959 22.1352C108.299 22.1565 108.628 21.7633 108.872 21.3808H108.926C108.926 22.0608 108.745 22.7833 108.086 22.9215C107.427 23.0596 107.024 22.4752 106.864 21.7952C106.832 21.7102 106.928 21.519 107.045 21.5933Z" fill="#263238"/>
<path d="M98.7469 31.6871C98.9594 31.9952 99.1507 32.399 99.5332 32.5158C99.9361 32.6007 100.352 32.6007 100.755 32.5158C100.755 32.5158 100.819 32.5158 100.755 32.5796C100.564 32.7588 100.328 32.8838 100.072 32.9417C99.8161 32.9996 99.5495 32.9883 99.2994 32.909C99.0912 32.8046 98.9186 32.641 98.8032 32.4387C98.6879 32.2363 98.635 32.0044 98.6513 31.7721C98.6301 31.6552 98.7151 31.6446 98.7469 31.6871Z" fill="#263238"/>
<path d="M103.751 27.5964C103.751 27.5964 103.974 29.2539 103.974 30.0402C103.974 30.1039 103.783 30.1464 103.518 30.1571C102.847 30.2783 102.157 30.2125 101.521 29.967C100.886 29.7214 100.33 29.3056 99.9157 28.7652C99.8625 28.6908 99.9157 28.6058 100.033 28.6589C101.028 29.34 102.216 29.6828 103.422 29.6364C103.475 29.4239 102.944 26.8102 103.071 26.7996C103.675 26.8596 104.268 26.999 104.835 27.2139C104.474 23.7502 103.549 20.3714 103.241 16.9183C103.248 16.8971 103.262 16.8786 103.28 16.8654C103.298 16.8523 103.32 16.8452 103.342 16.8452C103.365 16.8452 103.386 16.8523 103.405 16.8654C103.423 16.8786 103.436 16.8971 103.443 16.9183C104.538 20.5089 105.271 24.2 105.632 27.9364C105.674 28.2871 104.059 27.7027 103.751 27.5964Z" fill="#263238"/>
<path d="M103.401 29.9871C102.935 30.6136 102.317 31.111 101.605 31.4321C101.216 31.5956 100.784 31.6327 100.373 31.5383C99.4695 31.3152 99.427 30.4758 99.5758 29.7852C99.6632 29.4179 99.7915 29.0615 99.9583 28.7227C100.942 29.5 102.148 29.9429 103.401 29.9871V29.9871Z" fill="#263238"/>
<path d="M101.605 31.4321C101.216 31.5956 100.784 31.6328 100.373 31.5383C99.4695 31.3152 99.427 30.4758 99.5758 29.7852C100.049 29.7944 100.506 29.9614 100.874 30.2598C101.241 30.5581 101.499 30.9707 101.605 31.4321Z" fill="#FF9BBC"/>
<path d="M84.7963 25.9496C84.7963 25.9496 81.6088 20.6371 79.1969 21.7634C76.785 22.8896 79.0057 30.4015 81.6407 31.5809C81.9677 31.7551 82.3266 31.8614 82.6958 31.8935C83.065 31.9257 83.4368 31.8829 83.7891 31.7678C84.1413 31.6527 84.4667 31.4676 84.7456 31.2237C85.0246 30.9798 85.2514 30.6821 85.4125 30.3484L84.7963 25.9496Z" fill="#D3766A"/>
<path d="M79.8767 23.9095C79.8767 23.9095 79.8767 23.9095 79.8767 23.9733C81.7255 24.8658 82.6073 26.6826 83.1917 28.5526C83.0927 28.3571 82.9529 28.185 82.7817 28.0482C82.6105 27.9114 82.4118 27.8129 82.1993 27.7595C81.9867 27.7061 81.7651 27.699 81.5496 27.7387C81.334 27.7784 81.1295 27.8639 80.9498 27.9895C80.9498 27.9895 80.9498 28.1064 80.9498 28.0958C81.2891 28.0103 81.6466 28.033 81.9723 28.1606C82.2981 28.2882 82.5758 28.5145 82.7667 28.8076C83.0908 29.2963 83.3581 29.8203 83.5636 30.3695C83.638 30.5395 83.9567 30.4758 83.9036 30.2739C84.1161 27.8195 82.4586 24.3133 79.8767 23.9095Z" fill="#263238"/>
<path d="M82.8837 24.2814C84.6475 24.2177 89.3331 19.4683 89.6624 10.9683C89.6624 10.9683 88.8443 18.5864 88.2387 19.6914C87.6331 20.7964 90.8631 17.0245 91.2243 10.1289C93.3515 11.7185 95.695 12.9958 98.1837 13.922C101.371 14.8995 103.379 14.9102 103.613 14.687C103.847 14.4639 99.1187 12.8489 97.8649 11.3402C97.8649 11.3402 106.365 15.5264 110.349 15.9196C110.817 15.9196 111.561 6.52705 105.515 2.3833C99.4693 -1.76045 89.6412 2.3833 86.9743 4.83768C86.9743 4.83768 83.8931 5.20955 80.4612 9.67205C77.0293 14.1345 80.9818 24.4089 82.8837 24.2814Z" fill="#263238"/>
<path d="M66.6593 50.7696C53.9093 67.2914 41.5099 95.9577 42.8593 104.192C44.7611 115.88 76.4874 136.343 85.7736 140.838C89.2586 142.527 99.7987 112.097 96.1012 110.248C90.2149 107.305 69.358 94.3108 69.0605 91.9946C68.8693 90.5708 74.3093 70.9146 77.1249 57.9946C80.9074 40.7289 70.9943 45.1383 66.6593 50.7696Z" fill="#D3766A"/>
<path d="M135.153 116.315L113.382 148.754C112.835 149.718 111.784 150.165 111.057 149.628L98.091 140.124C97.7282 139.761 97.5009 139.285 97.447 138.774C97.3931 138.264 97.5158 137.751 97.7946 137.32L119.566 104.881C120.113 103.917 121.164 103.47 121.881 104.005L134.847 113.509C135.213 113.869 135.444 114.346 135.5 114.857C135.556 115.368 135.434 115.883 135.153 116.315Z" fill="#455A64"/>
<path d="M130.317 114.969C129.648 115.655 129.614 116.563 130.236 116.989C130.621 117.185 131.061 117.246 131.485 117.163C131.909 117.08 132.292 116.858 132.575 116.532C133.242 115.856 133.275 114.948 132.653 114.522C132.27 114.326 131.832 114.263 131.408 114.344C130.985 114.425 130.601 114.645 130.317 114.969V114.969Z" fill="#263238"/>
<path d="M132.694 124.794C132.137 126.395 131.035 127.749 129.581 128.619C130.536 129.986 130.983 131.643 130.845 133.305C130.463 136.216 125.734 136.885 125.734 136.885C126.43 138.509 126.618 140.305 126.276 142.038C125.639 144.78 120.964 146.14 120.964 146.14C120.786 147.985 119.944 149.703 118.594 150.974C114.876 154.225 107.629 152.036 103.018 150.676C98.4069 149.316 86.5494 141.178 84.1482 139.85L92.5313 110.185C92.5313 110.185 114.939 110.355 120.156 112.713C124.523 114.721 133.958 121.033 132.694 124.794Z" fill="#D3766A"/>
<path d="M129.549 128.534C125.394 125.346 120.475 123.073 115.736 120.98C115.715 120.97 115.691 120.969 115.669 120.977C115.647 120.985 115.629 121.001 115.619 121.022C115.609 121.043 115.608 121.067 115.616 121.089C115.624 121.111 115.641 121.129 115.662 121.139C120.432 123.168 124.767 126.526 129.474 128.746C129.497 128.743 129.519 128.733 129.536 128.718C129.554 128.704 129.568 128.684 129.575 128.663C129.583 128.641 129.585 128.617 129.58 128.595C129.575 128.572 129.564 128.551 129.549 128.534V128.534Z" fill="#263238"/>
<path d="M125.745 136.471C124.732 135.828 123.639 135.321 122.494 134.962C121.304 134.505 120.114 134.08 118.902 133.666C116.501 132.837 114.079 132.061 111.635 131.36C111.529 131.36 111.454 131.488 111.561 131.52C113.962 132.359 116.342 133.22 118.701 134.155C119.88 134.611 121.059 135.09 122.228 135.578C123.308 136.101 124.441 136.507 125.607 136.79C125.646 136.795 125.685 136.787 125.719 136.768C125.754 136.748 125.781 136.718 125.796 136.682C125.812 136.646 125.815 136.606 125.806 136.568C125.797 136.53 125.775 136.496 125.745 136.471Z" fill="#263238"/>
<path d="M120.857 146.108C119.933 145.535 118.915 145.128 117.851 144.907L114.546 143.845C112.347 143.111 110.147 142.378 107.98 141.56C107.874 141.56 107.799 141.688 107.906 141.73C110.116 142.559 112.304 143.43 114.514 144.248L117.776 145.428C118.736 145.878 119.769 146.151 120.826 146.235C120.842 146.239 120.86 146.237 120.875 146.228C120.89 146.219 120.901 146.204 120.905 146.187C120.91 146.17 120.907 146.153 120.898 146.138C120.889 146.123 120.874 146.112 120.857 146.108Z" fill="#263238"/>
<path d="M73.7994 77.2896L51.115 70.5852C51.115 70.5852 60.8475 54.0739 69.1775 47.5502C77.5075 41.0264 79.3775 45.8183 78.5381 53.5427C77.6987 61.267 73.7994 77.2896 73.7994 77.2896Z" fill="#7165E3"/>
<path d="M60.0738 58.2672C60.0696 58.4811 59.9914 58.6868 59.8525 58.8494C59.7136 59.0121 59.5226 59.1215 59.312 59.1591C59.1015 59.1967 58.8845 59.1601 58.6979 59.0556C58.5113 58.9511 58.3667 58.7852 58.2888 58.586L59.2131 57.3535C59.4461 57.3671 59.6651 57.4693 59.8252 57.6392C59.9852 57.8091 60.0741 58.0338 60.0738 58.2672V58.2672ZM71.4213 57.3322C71.2384 57.3322 71.0597 57.3865 70.9077 57.488C70.7557 57.5896 70.6372 57.734 70.5672 57.9029C70.4973 58.0718 70.479 58.2576 70.5146 58.437C70.5503 58.6163 70.6383 58.781 70.7676 58.9102C70.8969 59.0395 71.0616 59.1276 71.2409 59.1632C71.4202 59.1989 71.6061 59.1806 71.775 59.1106C71.9439 59.0407 72.0883 58.9222 72.1898 58.7702C72.2914 58.6182 72.3456 58.4395 72.3456 58.2566C72.3456 58.1352 72.3217 58.015 72.2753 57.9029C72.2288 57.7907 72.1607 57.6888 72.0749 57.603C71.989 57.5172 71.8871 57.4491 71.775 57.4026C71.6628 57.3561 71.5426 57.3322 71.4213 57.3322V57.3322ZM65.365 50.0754C65.5819 50.0583 65.7857 49.9644 65.9395 49.8105C66.0934 49.6567 66.1873 49.4529 66.2044 49.236C65.9281 49.5122 65.6413 49.7885 65.365 50.0754ZM78.115 48.4604C77.9498 48.3172 77.7386 48.238 77.52 48.2372C77.2748 48.2372 77.0397 48.3346 76.8664 48.508C76.693 48.6813 76.5956 48.9165 76.5956 49.1616C76.5956 49.4068 76.693 49.6419 76.8664 49.8153C77.0397 49.9886 77.2748 50.086 77.52 50.086C77.644 50.0885 77.767 50.0641 77.8807 50.0146C77.9944 49.9651 78.0961 49.8916 78.1788 49.7991C78.2106 49.3316 78.2 48.8854 78.1575 48.4604H78.115ZM71.3788 75.7772C71.2576 75.7769 71.1377 75.8012 71.0263 75.8487C70.9149 75.8962 70.8143 75.9659 70.7306 76.0535L72.2819 76.5104C72.2398 76.3102 72.1324 76.1296 71.9767 75.9969C71.821 75.8642 71.6256 75.787 71.4213 75.7772H71.3788ZM52.9763 66.6822C52.8714 66.6835 52.7674 66.7014 52.6681 66.7354C52.445 67.0647 52.2538 67.3835 52.0625 67.6704C52.0787 67.9015 52.182 68.1178 52.3517 68.2757C52.5213 68.4335 52.7446 68.5209 52.9763 68.5204C53.2214 68.5204 53.4565 68.423 53.6299 68.2496C53.8032 68.0763 53.9006 67.8412 53.9006 67.596C53.9006 67.3508 53.8032 67.1157 53.6299 66.9424C53.4565 66.769 53.2214 66.6716 52.9763 66.6716V66.6822ZM65.2481 66.6822C65.0653 66.6822 64.8866 66.7365 64.7346 66.838C64.5826 66.9396 64.4641 67.084 64.3941 67.2529C64.3241 67.4218 64.3058 67.6077 64.3415 67.787C64.3772 67.9663 64.4652 68.131 64.5945 68.2603C64.7238 68.3895 64.8885 68.4776 65.0678 68.5132C65.2471 68.5489 65.433 68.5306 65.6019 68.4606C65.7708 68.3907 65.9151 68.2722 66.0167 68.1202C66.1183 67.9682 66.1725 67.7894 66.1725 67.6066C66.1728 67.3686 66.0812 67.1397 65.9169 66.9676C65.7527 66.7954 65.5283 66.6932 65.2906 66.6822H65.2481Z" fill="#F5CF48"/>
<path d="M73.2258 72.9971C73.3745 72.9971 73.3852 73.1459 73.2258 73.114C66.7743 71.6075 60.4225 69.7019 54.207 67.4084V67.3234C57.4795 67.8652 71.5789 72.5402 73.2258 72.9971Z" fill="#263238"/>
<path d="M77.7625 59.5458C76.6257 65.5277 75.2444 71.7858 73.9588 77.6083C73.9588 77.7146 73.0132 77.2577 72.6307 77.109C72.4819 77.0452 72.6307 76.9071 72.7263 76.9496C73.007 77.0337 73.2952 77.0907 73.5869 77.1196C74.8938 71.244 76.2113 65.3683 77.6988 59.5352C77.7094 59.4715 77.7732 59.4715 77.7625 59.5458Z" fill="#263238"/>
</svg>
