<svg width="300" height="393" viewBox="0 0 300 393" fill="none" xmlns="http://www.w3.org/2000/svg">
<path opacity="0.3" d="M266.939 202.415C258.001 227.01 236.872 243.058 209.864 249.077C182.856 255.096 150.002 251.075 117.714 235.557C85.4256 220.04 59.8529 195.982 44.6001 169.653C29.347 143.323 24.43 114.758 33.3677 90.1631C42.3054 65.5681 63.4343 49.5208 90.4428 43.5016C117.451 37.4824 150.305 41.5038 182.593 57.0211C214.881 72.5385 240.454 96.5964 255.707 122.926C270.96 149.256 275.877 177.82 266.939 202.415Z" stroke="#7165E3"/>
<path opacity="0.3" d="M275.921 162.581C273.325 189.081 256.94 211.29 232.479 225.76C208.018 240.231 175.503 246.943 140.735 242.439C105.968 237.935 75.5664 223.073 54.5172 202.707C33.4684 182.342 21.7901 156.498 24.3859 129.997C26.9816 103.497 43.3666 81.288 67.8276 66.818C92.289 52.3477 124.804 45.6352 159.571 50.139C194.339 54.6428 224.74 69.5054 245.789 89.8711C266.838 110.236 278.517 136.081 275.921 162.581Z" stroke="#7165E3"/>
<path d="M133.225 359.199C134.833 365.681 136.419 372.497 136.44 374.001C136.44 377.017 132.87 382.351 130.991 381.088C129.112 379.825 91.0222 332.56 90.7195 329.846C90.7195 329.846 90.7195 329.846 90.7195 329.773C91.0427 329.025 91.5317 328.361 92.1496 327.831C94.0598 325.743 97.7133 322.476 102.108 318.655C103.152 317.768 104.196 316.86 105.239 315.931L135.334 289.95L159.697 320.138L129.989 346.37C129.989 346.37 131.639 352.633 133.277 359.22L133.225 359.199Z" fill="#AD6359"/>
<path d="M136.44 374.001C136.44 377.017 132.87 382.351 130.991 381.088C129.112 379.825 91.0222 332.56 90.7195 329.846C90.7195 329.846 90.7195 329.846 90.7195 329.773C91.0427 329.025 91.5317 328.361 92.1496 327.831C94.0598 325.743 97.7133 322.476 102.108 318.656C109.248 331.986 128.799 367.8 132.505 367.424C133.82 367.289 133.643 363.134 133.194 359.241C134.833 365.681 136.419 372.466 136.44 374.001Z" fill="#F5CF48"/>
<path d="M151.138 259.626C149.301 270.502 105.866 315.054 105.866 315.054L138.34 350.149C138.34 350.149 199.927 284.542 195.752 260.774C192.193 240.095 158.393 157.578 158.393 157.578L122.515 158.737C122.515 158.737 152.954 248.926 151.138 259.626Z" fill="#263238"/>
<path d="M123.331 159.594C123.284 159.453 123.241 159.327 123.204 159.215L158.061 158.089C158.123 158.241 158.206 158.445 158.31 158.699C158.558 159.308 158.923 160.204 159.388 161.352C160.319 163.648 161.653 166.952 163.265 170.98C166.489 179.038 170.824 189.996 175.271 201.6C179.717 213.205 184.274 225.452 187.94 236.089C191.611 246.738 194.377 255.735 195.259 260.859L195.26 260.86C195.762 263.718 195.281 267.254 194.007 271.288C192.736 275.315 190.689 279.796 188.104 284.526C182.935 293.986 175.646 304.392 168.215 314.07C160.786 323.745 153.226 332.68 147.522 339.197C144.67 342.455 142.283 345.108 140.609 346.946C139.772 347.866 139.113 348.581 138.664 349.066C138.54 349.2 138.433 349.316 138.342 349.414L106.555 315.063C106.603 315.013 106.656 314.959 106.713 314.899C107.032 314.57 107.5 314.085 108.096 313.465C109.288 312.225 110.993 310.441 113.045 308.266C117.148 303.917 122.638 298.004 128.187 291.751C133.734 285.498 139.346 278.898 143.687 273.177C145.858 270.317 147.717 267.669 149.093 265.388C150.46 263.124 151.384 261.169 151.631 259.709C151.756 258.972 151.737 257.938 151.613 256.68C151.488 255.412 151.251 253.879 150.921 252.126C150.259 248.619 149.216 244.206 147.916 239.222C145.315 229.251 141.677 216.966 137.985 205.021C134.293 193.075 130.544 181.465 127.718 172.841C126.305 168.529 125.123 164.963 124.294 162.475C123.88 161.231 123.553 160.257 123.331 159.594Z" fill="#FFFFFE" stroke="black"/>
<path d="M141.566 341.453C137.244 336.411 138.559 337.8 134.175 332.81C132.035 330.368 117.943 314.344 115.553 312.424C115.501 312.424 115.417 312.424 115.448 312.507C117.098 315.106 131.461 330.879 133.653 333.28C138.121 338.186 136.9 336.725 141.419 341.631C141.472 341.672 141.649 341.547 141.566 341.453Z" fill="#263238"/>
<path d="M155.428 254.208C154.823 251.536 154.154 248.863 153.497 246.191C152.154 240.742 150.741 235.311 149.259 229.897C146.329 219.166 143.173 208.498 139.791 197.892C136.388 187.255 132.808 176.639 128.737 166.232C128.236 164.948 127.693 163.675 127.202 162.391C127.193 162.373 127.178 162.359 127.159 162.351C127.141 162.344 127.12 162.343 127.102 162.35C127.083 162.356 127.067 162.369 127.056 162.386C127.046 162.403 127.042 162.423 127.046 162.443C130.616 172.881 134.279 183.32 137.641 193.758C141.002 204.197 144.123 214.75 147.098 225.325C148.591 230.638 149.99 235.972 151.367 241.316C152.046 243.947 152.704 246.536 153.351 249.208C154.141 251.871 154.731 254.589 155.115 257.339C155.286 259.955 154.632 262.558 153.246 264.782C151.973 267.026 150.459 269.145 148.998 271.264C146.065 275.523 117.922 309.01 117.014 309.887C116.941 309.96 117.014 310.065 117.129 309.991C120.929 306.348 144.833 278.676 147.85 274.5C149.342 272.413 150.793 270.262 152.213 268.112C153.639 266.158 154.772 264.006 155.574 261.724C156.164 259.247 156.114 256.66 155.428 254.208Z" fill="#263238"/>
<path d="M152.234 157.777L148.486 243.456C141.326 214.406 122.568 158.737 122.568 158.737L152.234 157.777Z" fill="#263238"/>
<path d="M145.647 334.157C145.647 334.157 154.614 371.621 154.614 371.641C154.958 379.241 155.407 385.88 155.95 389.304C155.945 389.321 155.945 389.339 155.95 389.356C155.993 390.169 156.221 390.962 156.618 391.673V391.725C158.946 393.145 219.688 392.122 221.796 391.381C223.905 390.64 221.932 384.564 219.541 382.727C217.151 380.89 193.717 370.88 193.717 370.88L184.374 333.457L145.647 334.157Z" fill="#AD6359"/>
<path d="M221.848 391.37C219.761 392.122 158.998 393.155 156.67 391.725V391.673C156.274 390.962 156.045 390.169 156.002 389.356C155.996 389.339 155.996 389.32 156.002 389.303C155.574 386.579 155.198 381.798 154.885 376.13C170.418 378.635 209.364 384.543 211.253 381.422C211.984 380.222 208.122 377.612 204.541 375.556C211.055 378.416 218.352 381.746 219.635 382.727C221.953 384.564 223.936 390.64 221.848 391.37Z" fill="#F5CF48"/>
<path d="M155.814 158.154C156.501 158.133 157.045 158.116 157.425 158.105C156.287 163.87 155.492 169.698 155.044 175.557L155.044 175.561C154.788 179.321 154.481 182.857 154.118 185.557C153.937 186.909 153.742 188.039 153.536 188.878C153.433 189.299 153.33 189.634 153.229 189.883C153.122 190.147 153.04 190.256 153.007 190.285C152.55 190.693 150.917 191.87 149.126 193.123C147.351 194.365 145.466 195.651 144.537 196.264L144.206 196.482L144.343 196.853L144.812 196.681C144.343 196.853 144.343 196.853 144.343 196.854L144.343 196.855L144.346 196.863L144.357 196.891L144.398 197.005L144.562 197.452C144.705 197.845 144.916 198.423 145.186 199.165C145.727 200.648 146.505 202.788 147.454 205.411C149.354 210.656 151.94 217.835 154.687 225.566C160.183 241.036 166.315 258.702 168.883 267.542C172.601 280.369 179.05 306.071 184.571 328.576C187.331 339.827 189.859 350.275 191.696 357.911C192.615 361.729 193.361 364.843 193.878 367.003C194.136 368.083 194.337 368.925 194.473 369.496L194.539 369.773L153.358 371.097L153.271 370.677C153.158 370.132 152.991 369.33 152.777 368.301C152.348 366.242 151.728 363.273 150.964 359.635C149.436 352.357 147.332 342.4 145.028 331.677C140.421 310.237 135.012 285.723 131.809 273.476L131.809 273.476C129.049 262.971 122.555 242.005 116.755 223.678C113.854 214.512 111.125 206.002 109.122 199.783C108.12 196.674 107.3 194.138 106.73 192.378C106.445 191.499 106.223 190.813 106.071 190.348L105.899 189.818L105.855 189.683L105.844 189.648L105.841 189.64L105.84 189.638C105.84 189.637 105.84 189.637 105.365 189.792L105.84 189.637L105.833 189.614L105.823 189.592C103.747 184.828 102.717 179.675 102.802 174.479C102.886 169.385 104.04 164.366 106.188 159.749L106.468 159.74L108.124 159.686L114.035 159.495C118.927 159.337 125.45 159.126 131.972 158.916C138.494 158.706 145.016 158.496 149.906 158.341C152.351 158.263 154.389 158.199 155.814 158.154Z" fill="#FFFFFE" stroke="black"/>
<path d="M193.372 362.09C186.744 362.268 188.643 362.09 182.005 362.382C178.769 362.497 157.443 363.332 154.436 363.98C154.374 363.98 154.374 364.115 154.436 364.115C157.484 364.47 178.789 363.27 182.036 363.071C188.654 362.696 186.754 362.727 193.372 362.268C193.508 362.278 193.497 362.09 193.372 362.09Z" fill="#263238"/>
<path d="M156.253 188.445C152.227 190.832 148.417 193.563 144.864 196.608C144.728 196.733 144.864 196.953 145.031 196.848C148.893 194.249 152.86 191.712 156.576 188.904C156.631 188.859 156.666 188.795 156.675 188.725C156.684 188.655 156.667 188.584 156.626 188.526C156.585 188.468 156.524 188.427 156.455 188.412C156.386 188.398 156.314 188.409 156.253 188.445Z" fill="#263238"/>
<path d="M152.088 159.395C152.088 159.249 151.795 159.269 151.827 159.395C152.797 164.384 153.309 168.789 153.768 173.581C153.977 175.783 154.499 188.08 150.574 187.923C149.916 187.923 149.478 187.339 149.196 186.399C148.976 185.159 148.913 183.897 149.008 182.641C148.956 180.053 148.81 177.422 148.549 174.906C148.098 170.111 147.153 165.374 145.731 160.773C145.719 160.746 145.699 160.724 145.673 160.711C145.647 160.698 145.617 160.694 145.589 160.7C145.561 160.706 145.535 160.722 145.518 160.745C145.5 160.768 145.49 160.796 145.49 160.825C146.83 167.342 147.678 173.951 148.027 180.595C148.142 183.8 147.463 188.779 150.814 188.643C154.165 188.508 154.885 180.293 154.885 178.027C154.762 171.722 153.822 165.459 152.088 159.395Z" fill="#263238"/>
<path d="M150.731 188.257C150.548 189.128 150.422 190.011 150.355 190.898C150.232 191.589 150.232 192.295 150.355 192.986C150.355 193.111 150.574 193.09 150.626 192.986C150.899 192.298 151.068 191.573 151.127 190.836C151.274 190.021 151.43 189.197 151.545 188.372C151.532 188.28 151.489 188.195 151.424 188.13C151.358 188.064 151.273 188.022 151.181 188.009C151.089 187.996 150.996 188.013 150.914 188.058C150.833 188.103 150.769 188.173 150.731 188.257Z" fill="#263238"/>
<path d="M147.035 340.315C146.9 339.345 146.733 338.374 146.566 337.403C146.242 335.535 145.866 333.687 145.522 331.829C144.822 328.102 144.06 324.376 143.278 320.66C141.712 313.259 139.948 305.879 138.058 298.53C137.014 294.355 135.824 290.284 134.572 286.192C134.478 285.91 134.081 286.066 134.144 286.338C134.937 290.096 135.72 293.854 136.618 297.591C137.516 301.328 138.392 305.044 139.259 308.781C140.981 316.15 142.589 323.551 144.301 330.931C144.781 333.019 145.23 335.107 145.699 337.194C145.939 338.238 146.19 339.282 146.44 340.326C146.691 341.37 147.056 342.361 147.265 343.405C147.265 343.51 147.432 343.457 147.411 343.353C147.234 342.341 147.192 341.318 147.035 340.315Z" fill="#263238"/>
<path d="M174.322 283.3C172.693 276.348 170.574 269.5 168.445 262.684C164.165 248.957 159.207 235.46 154.259 221.974L149.979 210.303C149.269 208.362 145.804 197.871 145.324 196.88C145.32 196.869 145.315 196.858 145.307 196.85C145.3 196.841 145.291 196.833 145.281 196.828C145.271 196.823 145.259 196.82 145.248 196.819C145.236 196.817 145.225 196.819 145.214 196.822C145.203 196.826 145.193 196.831 145.184 196.838C145.175 196.846 145.168 196.855 145.163 196.865C145.157 196.875 145.154 196.886 145.153 196.898C145.152 196.909 145.153 196.921 145.157 196.932C146.2 200.512 147.61 205.731 148.779 209.27C149.948 212.809 151.18 216.243 152.39 219.709C154.77 226.546 157.182 233.373 159.499 240.231C164.082 253.801 168.633 267.371 172.443 281.15C173.487 285.012 174.531 288.874 175.574 292.758C176.618 296.641 177.422 300.555 178.372 304.438C178.372 304.543 178.57 304.511 178.56 304.438C177.6 297.309 175.919 290.284 174.322 283.3Z" fill="#263238"/>
<path d="M149.269 320.785C146.513 307.497 143.309 294.302 139.791 281.202C136.273 268.102 132.39 254.96 128.173 241.984C123.956 229.009 119.311 216.191 114.373 203.487C111.909 197.518 109.804 191.408 108.068 185.188C106.471 178.998 105.553 172.265 106.795 165.929C107.098 164.319 107.524 162.735 108.068 161.19C108.068 161.086 107.953 161.002 107.912 161.107C103.214 173.101 106.931 185.929 111.169 197.464C113.496 203.727 115.96 209.99 118.246 216.379C120.532 222.767 122.87 229.406 125.052 235.961C129.373 248.954 133.385 262.047 137.087 275.242C140.79 288.436 144.109 301.707 147.046 315.054C150.031 328.468 152.61 341.944 155.219 355.441C155.564 357.195 155.835 358.959 156.127 360.723C156.127 360.817 156.294 360.817 156.284 360.723C154.228 347.414 152.025 334.042 149.269 320.785Z" fill="#263238"/>
<path d="M153.768 76.805C160.219 85.2289 155.939 94.6028 158.1 100.636C159.416 104.331 165.23 109.165 165.741 113.162C166.566 119.801 160.856 120.908 161.315 124.52C161.973 129.624 168.424 130.605 167.923 138.643C167.422 146.681 157.129 153.184 136.252 151.169C115.375 149.155 105.845 139.29 106.513 132.526C107.181 125.762 114.415 125 115.908 120.167C116.868 117.035 113.152 113.998 114.175 108.152C115.198 102.306 121.242 101.607 123.1 96.8575C124.958 92.1079 124.885 79.5713 133.413 74.9888C141.941 70.4062 150.595 72.6505 153.768 76.805Z" fill="#263238"/>
<path d="M152.818 76.7946C154.694 78.8163 156.052 81.2627 156.775 83.9241C157.511 86.738 157.917 89.6281 157.985 92.5359C157.979 94.2602 158.168 95.9796 158.549 97.6612C158.985 99.0842 159.667 100.42 160.564 101.607C162.349 104.06 164.656 106.127 166.148 108.789C167.578 111.294 168.434 114.436 167.077 117.14C166.336 118.622 164.99 119.676 164.071 121.012C163.152 122.348 162.557 123.935 163.507 125.344C164.311 126.545 165.689 127.307 166.639 128.361C167.604 129.4 168.4 130.583 168.998 131.868C169.601 133.148 169.932 134.539 169.968 135.954C170.003 137.368 169.744 138.775 169.207 140.083C166.67 146.159 159.979 148.497 154.019 149.603C153.184 149.76 152.349 149.896 151.514 150.042C151.388 150.042 151.326 149.875 151.461 149.843C157.474 148.549 164.468 147.015 167.892 141.315C168.649 140.075 169.113 138.677 169.247 137.229C169.381 135.782 169.181 134.323 168.664 132.964C168.142 131.616 167.378 130.374 166.409 129.3C165.48 128.257 164.322 127.474 163.351 126.461C162.863 125.992 162.508 125.402 162.325 124.75C162.141 124.099 162.135 123.41 162.307 122.755C162.787 121.342 163.6 120.064 164.677 119.029C165.796 117.953 166.564 116.562 166.879 115.041C167.027 113.53 166.76 112.007 166.107 110.636C164.906 107.849 162.714 105.72 160.825 103.402C158.861 101.203 157.638 98.4428 157.328 95.5109C157.213 93.9764 157.276 92.3793 157.213 90.8866C157.173 89.4546 157.054 88.0259 156.858 86.6068C156.519 83.7695 155.565 81.0405 154.061 78.6109C153.654 77.9908 153.189 77.4106 152.672 76.8781C152.672 76.8259 152.766 76.732 152.818 76.7946Z" fill="#263238"/>
<path d="M106.67 127.442C107.145 126.417 107.84 125.508 108.705 124.781C109.603 124.029 110.615 123.455 111.576 122.797C112.533 122.226 113.31 121.398 113.82 120.407C114.232 119.145 114.191 117.779 113.705 116.545C113.264 115.263 112.915 113.951 112.661 112.62C112.468 111.308 112.468 109.975 112.661 108.663C113.121 105.969 114.396 103.481 116.315 101.534C117.244 100.542 118.256 99.6341 119.196 98.6529C120.228 97.5834 121.116 96.3832 121.837 95.0829C123.403 92.2123 124.279 89.0285 125.689 86.0849C127.137 83.0737 128.886 80.2165 130.908 77.5566C130.908 77.4939 131.054 77.5566 131.002 77.6505C129.187 80.0518 127.63 82.6374 126.357 85.3646C125.125 87.9534 124.269 90.6674 123.225 93.3188C122.725 94.6275 122.096 95.883 121.346 97.0662C120.612 98.1487 119.78 99.1619 118.862 100.093C117.014 102.035 115.125 103.945 114.185 106.524C113.252 109.056 113.146 111.819 113.883 114.415C114.519 116.659 115.553 119.206 114.112 121.378C112.901 123.215 110.73 124.008 109.112 125.407C108.249 126.179 107.559 127.125 107.088 128.183C106.616 129.241 106.374 130.387 106.377 131.545C106.262 137.463 111.367 141.503 116.649 142.912C116.678 142.924 116.702 142.946 116.716 142.974C116.731 143.001 116.736 143.033 116.73 143.064C116.724 143.095 116.707 143.123 116.683 143.142C116.658 143.162 116.628 143.173 116.597 143.173C111.962 142.129 107.338 138.998 106.085 134.207C105.49 131.952 105.697 129.561 106.67 127.442Z" fill="#263238"/>
<path d="M138.403 121.722C148.1 140.188 160.324 160.125 171.201 162.965C181.566 165.658 206.253 139.812 210.439 131.232C211.88 128.277 192.339 115.323 189.562 117.494C184.343 121.597 172.944 134.603 171.315 134.28C169.687 133.956 155.845 121.618 143.351 111.252C135.793 104.968 131.68 108.935 138.403 121.722Z" fill="#AD6359"/>
<path d="M193.101 87.494L185.637 113.59C185.324 114.352 185.7 115 186.451 115.02L200.021 115.448C200.438 115.431 200.841 115.295 201.183 115.056C201.525 114.818 201.792 114.487 201.953 114.102L209.416 88.0055C209.504 87.8614 209.552 87.6962 209.554 87.5272C209.557 87.3582 209.513 87.1917 209.429 87.0453C209.345 86.8989 209.222 86.778 209.075 86.6953C208.927 86.6126 208.76 86.5712 208.591 86.5754L195.021 86.1475C194.607 86.1694 194.208 86.3072 193.868 86.5453C193.528 86.7834 193.262 87.1121 193.101 87.494Z" fill="#A6A6A6"/>
<path d="M194.708 87.4941L187.234 113.643C187.149 113.787 187.104 113.952 187.104 114.12C187.103 114.287 187.147 114.452 187.231 114.597C187.315 114.743 187.435 114.863 187.581 114.947C187.726 115.03 187.891 115.074 188.059 115.073L201.629 115.49C202.044 115.472 202.446 115.337 202.787 115.101C203.129 114.865 203.397 114.536 203.56 114.154L211.024 88.0578C211.326 87.2853 210.961 86.6486 210.199 86.6277L196.629 86.1997C196.22 86.2158 195.824 86.3455 195.485 86.5741C195.145 86.8027 194.877 87.1213 194.708 87.4941Z" fill="#DBDBDB"/>
<path d="M198.403 88.8615C198.387 89.1671 198.251 89.4538 198.024 89.6591C197.797 89.8645 197.498 89.9718 197.193 89.9576C196.886 89.9387 196.599 89.8 196.394 89.5715C196.189 89.343 196.082 89.043 196.096 88.7362C196.135 88.4471 196.281 88.1831 196.506 87.997C196.73 87.8108 197.017 87.7162 197.308 87.732C197.599 87.7478 197.874 87.8729 198.077 88.0823C198.28 88.2916 198.397 88.5699 198.403 88.8615Z" fill="#455A64"/>
<path d="M216.723 116.44C217.871 108.841 217.005 106.711 221.379 100.782C224.249 96.9097 223.007 93.4128 218.487 95.5631C211.107 99.1227 207.568 108.611 207.287 112.265L216.723 116.44Z" fill="#AD6359"/>
<path d="M206.921 136.346C206.921 136.346 214.009 128.069 216.034 120.094C217.433 114.582 219.166 102.244 207.088 90.2811C204.228 87.4419 198.143 85.4272 201.128 91.753C203.216 96.252 205.951 98.4649 206.713 101.304C206.713 101.304 198.664 99.6549 195.93 102.63C193.55 105.238 191.352 108.008 189.353 110.918C189.805 111.403 190.286 111.86 190.794 112.286C190.794 112.286 188.508 115.313 188.988 121.054L206.921 136.346Z" fill="#AD6359"/>
<path d="M216.535 114.634C215.189 111.972 212.234 106.388 208.184 102.651C203.738 98.4754 194.04 91.7216 191.023 95.0411C188.8 97.4733 192.266 100.386 192.266 100.386C192.266 100.386 187.673 98.4232 186.149 101.054C184.76 103.465 187.579 105.553 187.579 105.553C187.579 105.553 184.593 104.843 183.696 107.411C182.652 110.542 189.071 111.492 190.689 115.563C191.096 116.451 216.535 114.634 216.535 114.634Z" fill="#AD6359"/>
<path d="M204.625 108.068C201.443 104.307 197.19 101.605 192.433 100.323C192.307 100.323 192.224 100.375 192.328 100.427C196.714 102.48 200.833 105.06 204.594 108.11C204.594 108.11 204.646 108.089 204.625 108.068Z" fill="#263238"/>
<path d="M200.314 112.432C196.809 109.001 192.441 106.584 187.673 105.438C187.558 105.438 187.474 105.501 187.579 105.542C192.062 107.362 196.321 109.692 200.272 112.484C200.272 112.484 200.335 112.463 200.314 112.432Z" fill="#263238"/>
<path d="M182.85 120.897L203.195 142.484C203.195 142.484 181.702 166.576 171.608 164.061C161.514 161.545 142.432 134.217 136.315 116.879C132.087 104.874 138.768 106.805 145.772 112.703C152.777 118.601 171.117 133.194 171.921 132.975C172.725 132.756 182.85 120.897 182.85 120.897Z" fill="#FFC727"/>
<g opacity="0.2">
<path opacity="0.2" d="M182.85 120.897L203.195 142.484C203.195 142.484 181.702 166.576 171.608 164.061C161.514 161.545 142.432 134.217 136.315 116.879C132.087 104.874 138.768 106.805 145.772 112.703C152.777 118.601 171.117 133.194 171.921 132.975C172.725 132.756 182.85 120.897 182.85 120.897Z" fill="#F5CF48"/>
</g>
<path opacity="0.1" d="M136.315 116.837C142.432 134.175 161.514 161.493 171.608 164.019C176.065 165.136 182.767 161.044 188.842 156.127C178.549 145.522 151.18 119.854 138.737 108.298C135.355 107.192 133.622 109.185 136.315 116.837Z" fill="#614D05"/>
<path d="M196.598 146.023C193.643 143.048 181.984 130.438 179.708 127.536C179.541 127.338 179.635 127.181 179.823 127.369C185.791 133.247 191.429 139.45 196.712 145.95C196.796 145.95 196.671 146.106 196.598 146.023Z" fill="#263238"/>
<path d="M105.636 160.146L159.301 159.29L154.572 143.361C155.914 141.296 156.785 138.962 157.124 136.523C157.463 134.084 157.262 131.601 156.535 129.248C155.104 124.561 148.768 117.672 144.875 113.298C135.407 102.64 127.651 107.849 125.219 110.741C115.918 121.858 105.636 160.146 105.636 160.146Z" fill="#FFC728"/>
<path d="M140.198 142.881C142.483 142.598 144.786 142.486 147.088 142.547C148.236 142.547 149.363 142.683 150.501 142.808C151.075 142.871 151.639 142.912 152.213 142.944C152.806 143.017 153.405 143.017 153.998 142.944C154.05 142.944 154.061 143.006 153.998 143.027C153.453 143.172 152.898 143.28 152.338 143.351C151.792 143.382 151.245 143.382 150.699 143.351C149.541 143.351 148.382 143.225 147.223 143.184C144.875 143.09 142.536 142.996 140.198 143.079C140.177 143.072 140.159 143.059 140.146 143.041C140.133 143.024 140.126 143.002 140.126 142.98C140.126 142.958 140.133 142.937 140.146 142.919C140.159 142.901 140.177 142.888 140.198 142.881Z" fill="#263238"/>
<path d="M135.083 146.065C136.888 145.473 138.724 144.985 140.584 144.603C141.513 144.405 142.453 144.28 143.392 144.165L144.749 144.029C145.25 144.029 145.793 144.029 146.253 143.967C146.305 143.967 146.315 144.04 146.253 144.04C145.793 144.102 145.334 144.238 144.864 144.332L143.476 144.593L140.678 145.125C138.81 145.459 136.952 145.814 135.104 146.169C135.01 146.242 134.989 146.096 135.083 146.065Z" fill="#263238"/>
<path d="M123.726 110.344C106.409 120.783 81.6067 145.689 83.3186 152.464C85.2184 160 109.415 145.345 109.582 144.186C109.749 143.309 121.064 127.213 129.467 115.553C137.87 103.893 127.985 107.766 123.726 110.344Z" fill="#AD6359"/>
<path d="M109.686 144.238C110.73 142.484 125.929 121.273 130.449 114.572C134.969 107.87 133.131 104.885 123.904 109.78C114.676 114.676 92.4628 133.215 85.636 144.332C79.0597 155.031 85.041 156.555 94.3104 153.215C101.889 150.48 109.686 144.238 109.686 144.238Z" fill="#FFC727"/>
<g opacity="0.2">
<path opacity="0.2" d="M109.686 144.238C110.73 142.484 125.929 121.273 130.449 114.572C134.969 107.87 133.131 104.885 123.904 109.78C114.676 114.676 92.4628 133.215 85.636 144.332C79.0597 155.031 85.041 156.555 94.3104 153.215C101.889 150.48 109.686 144.238 109.686 144.238Z" fill="#F5CF48"/>
</g>
<path d="M109.686 144.238C110.845 142.307 112.087 140.417 113.329 138.539C114.572 136.66 115.866 134.822 117.129 132.964C118.392 131.106 119.739 129.3 121.085 127.495C122.432 125.689 123.789 123.893 125.261 122.14C124.102 124.081 122.87 125.96 121.628 127.839C120.386 129.718 119.081 131.555 117.818 133.413C116.555 135.271 115.208 137.088 113.862 138.883C112.515 140.678 111.116 142.495 109.686 144.238Z" fill="#263238"/>
<path d="M125.365 123.893C124.981 124.572 124.483 125.179 123.893 125.689C123.602 125.947 123.288 126.178 122.954 126.378C122.63 126.584 122.279 126.742 121.91 126.847C122.473 126.294 123.016 125.804 123.58 125.292C124.139 124.782 124.736 124.315 125.365 123.893Z" fill="#263238"/>
<path d="M83.2455 151.795C85.1767 156.942 93.2561 159.885 112.912 169.228C115.636 170.512 129.916 153.779 127.087 152.244C123.517 150.324 109.248 143.622 108.141 143.257C98.8198 140.24 81.972 148.319 83.2455 151.795Z" fill="#AD6359"/>
<path d="M123.183 150.24C123.183 150.24 131.618 153.81 135.459 157.046C139.377 160.519 142.39 164.893 144.238 169.791C146.263 175.011 147.495 189.218 143.476 190.282C139.843 191.243 139.301 176.712 139.301 176.712C139.301 176.712 142.286 191.431 137.703 191.785C133.121 192.14 133.455 175.251 133.455 175.251C133.455 175.251 136.179 190.439 131.367 190.063C127.755 189.771 127.192 174.405 127.192 174.405C127.192 174.405 129.447 187.485 125.71 187.349C121.586 187.203 120.188 173.09 120.188 173.09C110.793 171.148 107.056 166.368 104.822 162.652C104.331 161.796 123.183 150.24 123.183 150.24Z" fill="#AD6359"/>
<path d="M138.612 171.556C139.019 173.278 139.457 175.011 139.708 176.775C139.958 178.539 140.167 180.272 140.261 181.994C140.438 184.297 140.344 186.613 139.979 188.894C140.106 184.843 139.854 180.789 139.227 176.785C138.966 175.042 138.799 173.278 138.538 171.566C138.538 171.524 138.601 171.524 138.612 171.556Z" fill="#263238"/>
<path d="M132.286 172.38C132.714 174.593 133.225 176.775 133.559 179.009C133.893 181.243 134.019 183.372 134.196 185.616C134.196 185.794 134.112 185.742 134.092 185.564C133.82 183.341 133.403 181.295 133.11 179.061C132.818 176.827 132.599 174.593 132.234 172.391C132.223 172.349 132.275 172.349 132.286 172.38Z" fill="#263238"/>
<path d="M126.722 172.109C127.47 175.49 127.865 178.939 127.902 182.401C127.902 182.568 127.787 182.495 127.776 182.318C127.442 178.894 127.213 176.201 126.607 172.14C126.597 172.046 126.712 172.046 126.722 172.109Z" fill="#263238"/>
<path d="M125.01 150.71L101.732 166.274C101.732 166.274 84.4773 157.432 83.0159 151.983C82.0242 148.434 99.0286 139.457 109.112 143.549L125.01 150.71Z" fill="#FFC727"/>
<path opacity="0.2" d="M125.01 150.71L101.732 166.274C101.732 166.274 84.4773 157.432 83.0159 151.983C82.0242 148.434 99.0286 139.457 109.112 143.549L125.01 150.71Z" fill="#5F4807"/>
<path d="M95.7614 143.664C100.024 141.987 104.756 141.943 109.05 143.539C109.102 143.539 109.05 143.643 109.05 143.633C104.54 142.338 97.7864 143.152 95.8031 143.747C95.7301 143.758 95.7196 143.685 95.7614 143.664Z" fill="#263238"/>
<path d="M97.6299 161.608C100.093 159.76 102.661 158.048 105.229 156.388C107.797 154.729 110.365 152.965 112.985 151.315C114.457 150.397 115.929 149.457 117.442 148.58C117.442 148.58 117.526 148.58 117.494 148.643C115.031 150.491 112.463 152.213 109.916 153.935C107.369 155.658 104.77 157.359 102.181 159.04C100.709 159.979 99.227 160.898 97.7238 161.775C97.7017 161.787 97.6755 161.79 97.6511 161.783C97.6266 161.777 97.6058 161.76 97.5934 161.738C97.5809 161.716 97.5778 161.69 97.5846 161.665C97.5915 161.641 97.6078 161.62 97.6299 161.608Z" fill="#263238"/>
<path d="M125.115 150.459C124.086 149.839 123.015 149.291 121.91 148.82C120.824 148.306 119.728 147.815 118.622 147.349C115.095 145.625 111.433 144.193 107.672 143.069C107.672 143.069 107.807 143.34 107.86 143.351C109.895 143.758 123.517 150.292 124.718 150.658L124.53 150.866C124.53 150.919 124.53 151.013 124.603 150.981C124.768 150.915 124.928 150.839 125.083 150.752C125.109 150.738 125.131 150.718 125.147 150.694C125.163 150.67 125.173 150.643 125.176 150.614C125.18 150.585 125.176 150.556 125.165 150.529C125.154 150.502 125.137 150.478 125.115 150.459Z" fill="#263238"/>
<path d="M133.831 109.759C133.935 110.741 137.735 117.453 142.108 117.766C143.528 117.86 144.426 110.125 144.426 110.125L144.614 109.561L147.359 101.774L138.674 94.6236L137.411 93.6632C137.411 93.6632 136.806 95.8449 136.075 98.5693C136.075 98.6946 136.002 98.8199 135.971 98.9556C135.919 99.0988 135.877 99.2452 135.845 99.394L135.501 100.626C135.417 100.949 135.344 101.252 135.271 101.586C135.198 101.92 135.115 102.244 135.031 102.578C134.466 104.941 134.065 107.341 133.831 109.759Z" fill="#AD6359"/>
<path d="M136.075 98.5693C136.614 100.91 137.657 103.106 139.129 105.004C140.602 106.902 142.47 108.457 144.603 109.561L147.349 101.774L138.664 94.6236L137.401 93.6632C137.401 93.6632 136.806 95.8449 136.075 98.5693Z" fill="#263238"/>
<path d="M160.178 88.1413C163.309 102.296 155.177 105.772 152.129 106.44C149.353 107.045 139.843 108.768 135.271 94.9577C130.699 81.1475 136.315 75.2706 142.578 73.5482C148.841 71.8259 157.056 73.9866 160.178 88.1413Z" fill="#AD6359"/>
<path d="M157.714 87.4002C157.365 87.4022 157.016 87.3813 156.67 87.3375C156.304 87.3736 155.936 87.2853 155.626 87.087C155.546 87.0061 155.494 86.901 155.479 86.7879C155.464 86.6748 155.486 86.5598 155.543 86.4607C155.683 86.2824 155.868 86.1443 156.079 86.06C156.289 85.9757 156.519 85.9483 156.743 85.9805C157.209 85.9774 157.66 86.1487 158.006 86.4607C158.079 86.5319 158.13 86.6218 158.155 86.7204C158.18 86.819 158.177 86.9225 158.147 87.0196C158.116 87.1166 158.06 87.2035 157.984 87.2706C157.907 87.3378 157.814 87.3826 157.714 87.4002Z" fill="#263238"/>
<path d="M148.079 88.4754C148.403 88.3814 148.695 88.2457 149.008 88.1205C149.358 88.047 149.674 87.8598 149.906 87.5881C149.961 87.4878 149.982 87.3722 149.965 87.2591C149.948 87.1459 149.894 87.0414 149.812 86.9618C149.625 86.8299 149.407 86.7506 149.179 86.7322C148.951 86.7138 148.723 86.7571 148.518 86.8574C148.077 86.9885 147.703 87.2836 147.474 87.682C147.426 87.7749 147.406 87.8794 147.415 87.9833C147.425 88.0873 147.463 88.1864 147.527 88.2694C147.59 88.3523 147.675 88.4157 147.773 88.4521C147.871 88.4886 147.977 88.4966 148.079 88.4754Z" fill="#263238"/>
<path d="M150.595 90.9179C150.595 90.9179 150.532 90.9805 150.532 91.0119C150.741 91.9826 150.804 93.0996 149.979 93.6006C149.979 93.6006 149.979 93.6632 149.979 93.6528C151.044 93.3188 150.939 91.8052 150.595 90.9179Z" fill="#263238"/>
<path d="M149.551 90.0515C147.964 90.1977 148.392 93.3606 149.854 93.1831C151.315 93.0056 150.866 89.9263 149.551 90.0515Z" fill="#263238"/>
<path d="M148.956 90.302C148.706 90.5108 148.476 90.8657 148.142 90.9388C147.808 91.0118 147.432 90.7404 147.098 90.4586H147.046C147.119 91.064 147.432 91.659 148.09 91.659C148.747 91.659 149.05 91.0745 149.134 90.4377C149.175 90.3646 149.061 90.2081 148.956 90.302Z" fill="#263238"/>
<path d="M155.971 89.7279C155.971 89.7279 156.054 89.7279 156.054 89.8114C156.148 90.7927 156.42 91.8991 157.349 92.1184C156.242 92.1601 155.898 90.6778 155.971 89.7279Z" fill="#263238"/>
<path d="M156.722 88.6006C158.278 88.2874 158.81 91.4294 157.349 91.7321C155.887 92.0349 155.407 88.8616 156.722 88.6006Z" fill="#263238"/>
<path d="M157.411 88.6945C157.683 88.8198 157.985 89.0807 158.278 89.0599C158.57 89.039 158.831 88.6423 158.998 88.277C159.113 88.872 158.998 89.5296 158.455 89.7384C157.912 89.9471 157.474 89.4774 157.234 88.9033C157.244 88.8302 157.297 88.6423 157.411 88.6945Z" fill="#263238"/>
<path d="M151.66 99.1852C151.921 99.394 152.182 99.6967 152.537 99.6967C152.905 99.6567 153.261 99.5393 153.58 99.3522C153.58 99.3522 153.653 99.3522 153.633 99.3522C153.509 99.5568 153.331 99.724 153.12 99.8361C152.909 99.9482 152.671 100.001 152.432 99.989C152.225 99.9563 152.033 99.8622 151.88 99.7188C151.728 99.5755 151.622 99.3896 151.576 99.1852C151.588 99.1749 151.603 99.1693 151.618 99.1693C151.633 99.1693 151.648 99.1749 151.66 99.1852Z" fill="#263238"/>
<path d="M155.24 95.062C155.24 95.062 155.647 96.4921 155.752 97.1497C155.752 97.2124 155.595 97.275 155.365 97.3168C154.791 97.5087 154.174 97.5392 153.583 97.4048C152.992 97.2704 152.45 96.9764 152.015 96.5547C151.952 96.4921 152.015 96.4086 152.098 96.4399C153.069 96.916 154.167 97.0661 155.23 96.8679C155.23 96.6696 154.447 94.4357 154.551 94.4149C155.094 94.3872 155.637 94.4293 156.169 94.5401C155.397 91.5442 154.144 88.6841 153.424 85.6778C153.423 85.6581 153.428 85.6386 153.439 85.6221C153.45 85.6057 153.466 85.5931 153.485 85.5862C153.503 85.5792 153.523 85.5783 153.542 85.5835C153.561 85.5887 153.578 85.5998 153.591 85.6152C155.027 88.6256 156.157 91.773 156.962 95.0098C157.015 95.4587 155.532 95.1455 155.24 95.062Z" fill="#263238"/>
<path d="M155.261 97.108C154.958 97.7244 154.501 98.2527 153.935 98.6424C153.626 98.8445 153.261 98.9465 152.892 98.9347C152.077 98.9347 151.91 98.1832 151.921 97.5464C151.935 97.1938 151.988 96.8438 152.077 96.5025C153.047 97.0371 154.162 97.2491 155.261 97.108Z" fill="#263238"/>
<path d="M153.935 98.6424C153.626 98.8445 153.261 98.9465 152.892 98.9347C152.077 98.9347 151.91 98.1832 151.921 97.5464C152.331 97.4754 152.753 97.5451 153.119 97.744C153.484 97.9429 153.772 98.2595 153.935 98.6424Z" fill="#FF9ABB"/>
<path d="M135.376 95.8449C136.275 95.3293 137.025 94.5886 137.553 93.6955C138.08 92.8025 138.365 91.7878 138.382 90.7509C140.841 89.4613 142.912 87.5411 144.384 85.1872C144.311 85.5003 143.758 87.7029 143.445 88.8198C152.526 86.4607 154.927 79.2268 154.927 79.2268C156.8 80.7198 158.31 82.6186 159.342 84.7801C159.342 84.7801 159.019 79.1328 155.856 75.5524C154.819 74.3095 153.47 73.3645 151.948 72.8143C150.425 72.264 148.784 72.1282 147.192 72.4208C144.88 72.0289 142.506 72.2669 140.318 73.1101C138.131 73.9532 136.21 75.3702 134.76 77.2121C129.196 84.0389 135.376 95.8449 135.376 95.8449Z" fill="#263238"/>
<path d="M150.334 86.7634C148.911 87.6826 147.36 88.3861 145.731 88.8511C148.269 87.9653 150.51 86.3892 152.202 84.2999C152.922 83.3905 153.526 82.3946 153.998 81.3354C154.564 80.2171 154.898 78.9955 154.979 77.7445C154.979 77.7251 154.987 77.7065 155.001 77.6928C155.014 77.6791 155.033 77.6714 155.052 77.6714C155.072 77.6714 155.09 77.6791 155.104 77.6928C155.118 77.7065 155.125 77.7251 155.125 77.7445C155.17 78.9874 155.007 80.2291 154.645 81.4188C154.234 82.5875 153.612 83.6703 152.808 84.6131C152.093 85.4431 151.263 86.1671 150.344 86.7634" fill="#263238"/>
<path d="M137.902 94.3105C137.902 94.3105 134.165 90.229 132.286 91.6695C130.407 93.1101 133.611 99.2479 136.117 99.8325C136.433 99.9271 136.766 99.9568 137.094 99.9198C137.423 99.8828 137.74 99.7797 138.028 99.6169C138.315 99.4541 138.567 99.2349 138.768 98.9723C138.969 98.7098 139.114 98.4094 139.196 98.0892L137.902 94.3105Z" fill="#AD6359"/>
<rect x="17.1849" y="73.8022" width="50.0029" height="30.0535" rx="5" transform="rotate(-30 17.1849 73.8022)" fill="url(#paint0_linear_217_1078)"/>
<path fill-rule="evenodd" clip-rule="evenodd" d="M38.2541 74.8756C39.0074 74.6019 39.7568 74.5805 40.5318 74.8104C42.2708 75.3262 43.307 77.1209 42.8842 78.8848C42.4766 80.5854 40.9579 81.7395 39.1949 81.6884C38.4847 81.6678 37.6385 81.3584 37.1378 80.9363C37.0374 80.8517 36.9584 80.7709 36.9624 80.7569C36.9663 80.7429 37.2746 80.6886 37.6474 80.6364C38.2693 80.5492 38.3412 80.5515 38.5169 80.6642C38.7753 80.8299 38.9165 80.8705 39.1792 80.8543C39.4246 80.8393 39.7611 80.6678 39.9198 80.4769C40.1329 80.2208 40.2038 79.6559 40.0559 79.3936C39.9804 79.2596 40.5804 77.9827 40.771 77.8718C40.9757 77.7527 41.2371 77.3427 41.3076 77.0303C41.5012 76.172 40.8003 75.3866 39.9089 75.4631C39.532 75.4954 39.0789 75.7517 38.8914 76.0387C38.6302 76.4384 38.5625 77.0115 38.7397 77.3237C38.795 77.4212 38.7982 77.6825 38.7503 78.2097C38.6946 78.8229 38.6618 78.9692 38.5677 79.0235C38.5047 79.0599 38.3942 79.1656 38.3223 79.2583C38.1917 79.4267 38.1901 79.4271 37.1746 79.5732L36.1577 79.7194L36.0923 79.5455C35.5536 78.114 35.9452 76.5527 37.0945 75.5494C37.4453 75.2431 37.783 75.0469 38.2541 74.8756ZM39.9795 75.9284C40.2761 75.9145 40.6309 76.0954 40.7661 76.3296C40.8854 76.5361 40.8879 76.9657 40.7712 77.1967C40.6865 77.3644 40.6227 77.4206 40.3795 77.5422C39.9036 77.7801 39.4815 77.6633 39.2275 77.2233C38.8934 76.6445 39.2904 75.9608 39.9795 75.9284ZM39.4062 76.4747C39.1209 77.0292 39.5904 77.6134 40.1717 77.427C40.9012 77.1931 40.7724 76.1403 40.013 76.1302C39.7617 76.1268 39.5124 76.2683 39.4062 76.4747ZM44.7931 73.5579C44.9346 73.5115 45.1031 73.4786 45.1676 73.4848C45.2713 73.4948 45.2873 73.5167 45.3067 73.6743C45.3356 73.9096 45.3184 73.9314 45.0772 73.9644C44.8275 73.9987 44.483 74.1897 44.4294 74.3238C44.3044 74.6362 44.5289 74.7321 45.1134 74.6161C45.3932 74.5606 45.6609 74.5461 45.8059 74.5786C46.0122 74.6248 46.0589 74.6604 46.1729 74.8577C46.3281 75.1265 46.3238 75.414 46.1605 75.695C45.9868 75.9939 45.2095 76.397 44.8351 76.3823C44.7681 76.3797 44.7466 76.3357 44.7214 76.1499L44.6903 75.9208L44.9157 75.877C45.0397 75.8529 45.257 75.7663 45.3987 75.6845C45.6876 75.5177 45.7784 75.3547 45.6787 75.182C45.6134 75.069 45.3711 75.0606 44.9519 75.157C44.4473 75.273 44.1285 75.1793 43.9446 74.8607C43.6532 74.356 44.0044 73.8168 44.7931 73.5579ZM47.6579 72.1725L47.7758 72.3766L47.4273 72.5778L47.0789 72.779L47.6158 73.7089L48.1527 74.6388L47.9204 74.7729L47.6881 74.9071L47.1523 73.979L46.6165 73.051L46.2488 73.2456L45.8811 73.4403L45.7555 73.2557L45.6299 73.0712L46.585 72.5198L47.5401 71.9683L47.6579 72.1725ZM49.7951 70.9386L49.9129 71.1427L49.3786 71.4512L48.8443 71.7597L48.9884 72.0092L49.1324 72.2587L49.597 71.9904L50.0616 71.7222L50.1795 71.9263L50.2973 72.1305L49.8327 72.3987L49.3681 72.6669L49.5253 72.9391L49.6824 73.2113L50.2167 72.9028L50.751 72.5943L50.8689 72.7985L50.9867 73.0026L50.2201 73.4452L49.4535 73.8878L48.7988 72.7537L48.144 71.6196L48.9106 71.1771L49.6772 70.7345L49.7951 70.9386ZM52.5668 70.5178C53.1404 70.9684 53.6258 71.3618 53.6455 71.3919C53.67 71.4293 53.6026 71.4923 53.434 71.5896L53.1866 71.7325L52.9938 71.5565L52.8009 71.3806L52.3238 71.6389L51.8466 71.8972L51.9007 72.1704L51.9549 72.4436L51.7043 72.5883L51.4536 72.733L51.3843 72.3043C51.1751 71.011 51.0261 70.0479 51.0281 70.0008C51.0293 69.9714 51.1413 69.8913 51.2771 69.8229L51.5239 69.6985L52.5668 70.5178ZM54.2413 69.1853C54.7139 69.5098 55.1062 69.7528 55.113 69.7255C55.1198 69.698 55.0845 69.2298 55.0345 68.6848L54.9435 67.6939L55.1676 67.5646L55.3917 67.4352L56.0465 68.5692L56.7012 69.7033L56.4934 69.8233L56.2855 69.9433L55.8733 69.259L55.4611 68.5746L55.513 69.4367C55.5601 70.2192 55.5537 70.3054 55.4438 70.3688C55.3339 70.4323 55.2586 70.396 54.6305 69.9765L53.9382 69.5143L54.3208 70.1855L54.7035 70.8567L54.4712 70.9908L54.2389 71.125L53.5841 69.9909L52.9294 68.8568L53.1557 68.7261L53.3821 68.5955L54.2413 69.1853ZM51.654 70.8784C51.6989 71.127 51.741 71.3613 51.7476 71.399C51.7566 71.4498 51.8468 71.4173 52.0949 71.2741C52.3431 71.1308 52.4162 71.0689 52.3767 71.0358C52.3474 71.0112 52.1656 70.8575 51.9727 70.6944C51.7799 70.5313 51.611 70.4043 51.5973 70.4122C51.5836 70.4201 51.6091 70.6299 51.654 70.8784ZM39.0942 79.1279C39.6831 79.0916 40.0459 79.6531 39.7767 80.1842C39.6461 80.4418 39.3587 80.6082 39.0744 80.5908C38.723 80.5694 38.7152 80.4914 39.0591 80.4372C39.4456 80.3763 39.652 80.1876 39.6624 79.8852C39.6765 79.4788 39.4025 79.2694 38.9291 79.3246C38.7557 79.3448 38.6078 79.3509 38.6005 79.3381C38.5687 79.2831 38.9062 79.1395 39.0942 79.1279Z" fill="white"/>
<rect x="173.149" y="24.4879" width="50.0029" height="30.0535" rx="5" transform="rotate(30 173.149 24.4879)" fill="url(#paint1_linear_217_1078)"/>
<path fill-rule="evenodd" clip-rule="evenodd" d="M181.114 42.5512C180.871 42.4349 180.633 42.3681 180.425 42.3583C180.282 42.3514 180.192 42.36 180.066 42.3924C179.887 42.4384 179.736 42.52 179.595 42.6467C179.441 42.7844 179.412 42.8451 179.459 42.9217C179.471 42.9413 179.929 43.2841 179.989 43.319C180.047 43.3525 180.094 43.3339 180.198 43.237C180.362 43.0835 180.581 43.0667 180.797 43.1912C181.003 43.3099 181.076 43.4879 181.003 43.6946C180.978 43.7642 180.818 44.0496 180.808 44.0433C180.786 44.031 180.414 43.8681 180.316 43.828C179.836 43.6324 179.506 43.587 179.194 43.6734C178.902 43.7542 178.671 43.9418 178.501 44.2353C178.341 44.5126 178.292 44.7692 178.35 45.0195C178.398 45.2233 178.509 45.3886 178.695 45.5355C178.768 45.5927 179.008 45.7225 179.107 45.7579C179.345 45.843 179.549 45.847 179.866 45.7729L179.993 45.743L179.997 45.8148C180.005 45.9857 180.035 46.1431 180.081 46.2713C180.111 46.3518 180.163 46.3833 180.246 46.3698C180.296 46.3616 180.822 46.2544 180.887 46.2391C180.976 46.2184 180.99 46.176 180.974 45.9879C180.959 45.8178 180.967 45.7068 181.001 45.6056C181.025 45.5345 181.048 45.4932 181.385 44.9091C181.582 44.5675 181.77 44.2335 181.804 44.1668C181.958 43.8594 181.99 43.6454 181.92 43.3984C181.857 43.175 181.702 42.9638 181.457 42.7681C181.391 42.7146 181.187 42.5858 181.114 42.5512ZM188.444 46.7875C187.894 46.5329 187.398 46.5566 187.024 46.8555C186.933 46.9284 186.831 47.0348 186.818 47.0713C186.805 47.1075 186.811 47.1502 186.834 47.18C186.85 47.2024 187.305 47.5431 187.362 47.576C187.416 47.6066 187.478 47.5875 187.538 47.5222C187.597 47.4571 187.675 47.4093 187.762 47.3854C187.901 47.3472 188.024 47.3653 188.164 47.4445C188.252 47.4939 188.294 47.5307 188.341 47.5997C188.385 47.6646 188.406 47.7387 188.402 47.8175C188.397 47.913 188.376 47.9707 188.278 48.1508C188.204 48.2892 188.192 48.3069 188.183 48.3013C188.165 48.2909 187.82 48.1389 187.721 48.0979C187.304 47.9249 186.994 47.8613 186.735 47.8957C186.625 47.9103 186.461 47.959 186.372 48.004C186.238 48.071 186.117 48.1676 186.005 48.298C185.935 48.379 185.807 48.6019 185.768 48.7083C185.653 49.0271 185.681 49.3157 185.851 49.565C185.94 49.695 186.047 49.7889 186.223 49.8904C186.576 50.0944 186.855 50.1295 187.269 50.022L187.365 49.997L187.37 50.0752C187.378 50.2148 187.395 50.3198 187.43 50.4441C187.484 50.6385 187.509 50.6519 187.722 50.6067C187.797 50.5907 187.951 50.5595 188.062 50.5375C188.174 50.5154 188.278 50.4914 188.294 50.4841C188.351 50.4578 188.363 50.408 188.347 50.2545C188.34 50.1885 188.339 50.0923 188.343 50.0351C188.357 49.854 188.323 49.9243 188.799 49.0882C189.168 48.44 189.222 48.3424 189.249 48.2701C189.337 48.0388 189.35 47.8688 189.295 47.6675C189.254 47.5196 189.2 47.4151 189.094 47.2829C189.033 47.2068 188.916 47.0928 188.828 47.0232C188.741 46.9545 188.546 46.8344 188.444 46.7875ZM184.331 44.4512C184.192 44.395 184.018 44.3728 183.884 44.3945C183.745 44.4167 183.618 44.4718 183.476 44.5708L183.391 44.6296L183.506 44.4304C183.62 44.232 183.621 44.2311 183.621 44.1906C183.621 44.1178 183.624 44.1201 183.295 43.9304C183.006 43.7632 183.005 43.7627 182.972 43.7655C182.954 43.767 182.927 43.7736 182.912 43.7802L182.886 43.7921L182.021 45.2846C181.051 46.9597 181.127 46.8181 181.162 46.8891L181.179 46.9254L181.488 47.1038C181.785 47.275 181.799 47.2823 181.83 47.2817C181.848 47.2814 181.875 47.2757 181.889 47.2692L181.916 47.2573L182.48 46.2889C182.984 45.4246 183.051 45.3133 183.099 45.2547C183.286 45.0271 183.448 44.9609 183.636 45.0354C183.714 45.0662 183.791 45.1243 183.833 45.184C183.909 45.2933 183.901 45.4509 183.807 45.6608C183.786 45.7086 183.572 46.0839 183.216 46.702C182.613 47.745 182.645 47.6862 182.663 47.7442C182.667 47.7579 182.679 47.7791 182.69 47.7913C182.714 47.8196 183.265 48.1385 183.307 48.1492C183.346 48.1589 183.406 48.1403 183.434 48.1099C183.448 48.0958 183.68 47.6983 183.989 47.163C184.543 46.2024 184.579 46.1438 184.675 46.0438C184.826 45.8863 185.041 45.8477 185.212 45.9472C185.349 46.0268 185.418 46.1398 185.408 46.2671C185.399 46.3896 185.437 46.3172 184.767 47.4866L184.159 48.549L184.162 48.5823C184.168 48.6522 184.161 48.647 184.504 48.8448C184.801 49.0162 184.814 49.023 184.846 49.0227C184.866 49.0224 184.893 49.0129 184.914 48.9991L184.949 48.9759L185.645 47.7655C186.409 46.4359 186.362 46.5241 186.404 46.3454C186.478 46.0371 186.375 45.7315 186.115 45.4939C186.04 45.4259 185.87 45.329 185.767 45.2969C185.475 45.205 185.198 45.2475 184.943 45.4236L184.874 45.4712L184.879 45.3732C184.887 45.2217 184.879 45.1391 184.848 45.0145C184.806 44.8485 184.731 44.7279 184.603 44.6178C184.551 44.5725 184.395 44.4774 184.331 44.4512ZM193.924 49.9857C193.654 49.8693 193.461 49.8352 193.216 49.8601C193.067 49.8752 192.842 49.9488 192.69 50.0324C192.254 50.2717 191.851 50.7639 191.621 51.3371C191.521 51.5889 191.458 51.8807 191.455 52.1127C191.452 52.3921 191.523 52.668 191.651 52.8761C191.71 52.9724 191.81 53.0897 191.902 53.1717C191.994 53.2535 192.236 53.3958 192.348 53.4347C192.625 53.5303 192.893 53.5376 193.173 53.4574C193.568 53.3446 193.932 53.0661 194.222 52.6564C194.302 52.5436 194.474 52.2306 194.524 52.1078C194.869 51.2644 194.734 50.5437 194.153 50.1224C194.089 50.0756 193.975 50.008 193.924 49.9857ZM197.118 51.8337C196.811 51.7033 196.526 51.7535 196.195 51.9963L196.124 52.0485L196.251 51.8286C196.39 51.5875 196.393 51.579 196.375 51.5158L196.365 51.4809L196.07 51.3083C195.741 51.1155 195.744 51.1165 195.681 51.1481L195.651 51.1635L194.783 52.666C193.846 54.2896 193.903 54.1857 193.921 54.2441C193.925 54.2578 193.937 54.279 193.948 54.2912C193.975 54.3221 194.522 54.6381 194.566 54.6483C194.584 54.6523 194.615 54.6505 194.636 54.6443L194.674 54.6331L195.209 53.7156C195.59 53.0628 195.757 52.7827 195.787 52.7448C195.988 52.4899 196.155 52.3865 196.343 52.4005C196.532 52.4147 196.68 52.5668 196.68 52.7464C196.679 52.8046 196.657 52.9073 196.625 52.9939C196.601 53.0586 196.528 53.1879 196.025 54.0638C195.388 55.1746 195.432 55.0878 195.466 55.1522C195.482 55.1826 195.486 55.1855 195.775 55.3552C196.099 55.5455 196.113 55.5517 196.175 55.5332L196.213 55.5219L196.835 54.4506C197.547 53.222 197.582 53.156 197.652 52.9156C197.718 52.6879 197.706 52.477 197.615 52.2855C197.526 52.0972 197.339 51.928 197.118 51.8337ZM190.387 48.0309C190.37 48.0299 190.343 48.0369 190.326 48.0463C190.295 48.0632 190.293 48.0668 190.153 48.308C190.017 48.5436 190.012 48.5535 190.015 48.581C190.017 48.5967 190.023 48.6213 190.029 48.6358C190.04 48.6616 190.049 48.6673 190.538 48.9542L191.035 49.2463L190.002 49.7448C189.434 50.019 188.952 50.2558 188.932 50.2711C188.851 50.3324 188.831 50.3605 188.657 50.6619C188.501 50.9317 188.494 50.9465 188.494 50.9768C188.495 51.0148 188.517 51.0601 188.543 51.0749C188.553 51.0808 188.608 51.0889 188.666 51.093C189.05 51.1202 189.364 51.2167 189.7 51.4109C190.04 51.6071 190.284 51.8325 190.498 52.1473C190.553 52.2285 190.567 52.245 190.591 52.2531C190.627 52.2656 190.689 52.2477 190.721 52.2154C190.738 52.1984 190.792 52.1098 190.883 51.9481C191.016 51.7118 191.02 51.7051 191.025 51.6584C191.032 51.5915 191.014 51.542 190.942 51.4348C190.762 51.1647 190.563 50.9817 190.186 50.7381L190.089 50.675L191.024 50.2272C191.538 49.9808 191.984 49.7648 192.015 49.7471C192.107 49.6945 192.117 49.6818 192.243 49.4647C192.35 49.2784 192.354 49.2698 192.357 49.2302C192.362 49.1482 192.451 49.2065 191.371 48.5833C190.511 48.0869 190.413 48.0324 190.387 48.0309ZM193.798 50.7478C193.939 50.9025 193.927 51.1046 193.755 51.5089C193.715 51.6028 193.675 51.6779 193.512 51.9593C193.378 52.1915 193.302 52.3169 193.269 52.3608C193.051 52.6455 192.863 52.7765 192.682 52.7705C192.599 52.7677 192.544 52.7496 192.464 52.6983C192.405 52.6605 192.394 52.6502 192.36 52.5982C192.245 52.4215 192.288 52.1375 192.495 51.7143C192.578 51.5443 192.868 51.0563 192.943 50.9602C193.177 50.6617 193.383 50.551 193.589 50.6132C193.652 50.6323 193.75 50.6957 193.798 50.7478ZM180.416 44.73C180.28 44.9571 180.25 44.9988 180.158 45.0817C179.986 45.2381 179.772 45.3081 179.596 45.2657C179.559 45.257 179.528 45.2419 179.469 45.2057C179.398 45.1611 179.389 45.1535 179.357 45.1042C179.312 45.0365 179.293 44.9618 179.299 44.8775C179.305 44.78 179.327 44.7164 179.392 44.6056C179.458 44.4928 179.511 44.4347 179.602 44.3757C179.816 44.2375 180.113 44.2737 180.498 44.4854L180.547 44.5125L180.416 44.73ZM187.849 48.8999C187.756 49.0603 187.666 49.1945 187.607 49.2614C187.502 49.3804 187.359 49.4755 187.23 49.5121C187.09 49.5517 186.976 49.5404 186.863 49.4757C186.753 49.4126 186.705 49.35 186.679 49.2388C186.652 49.1166 186.683 48.9929 186.781 48.8377C186.87 48.6951 186.956 48.6223 187.084 48.5789C187.286 48.5105 187.55 48.5654 187.871 48.7425L187.923 48.7712L187.849 48.8999ZM189.283 51.7837C188.91 51.6034 188.472 51.5131 188.197 51.5602C188.118 51.5738 188.074 51.6185 188.093 51.6665C188.105 51.6991 188.128 51.7123 188.297 51.7853C188.666 51.9441 189.002 52.1191 189.152 52.2302C189.284 52.3272 189.356 52.416 189.36 52.4835C189.368 52.6507 189.103 52.9494 188.54 53.4071C188.344 53.5667 188.315 53.6002 188.331 53.6433C188.354 53.7026 188.423 53.7066 188.594 53.6589C189.014 53.5414 189.445 53.2388 189.793 52.8181C189.86 52.7359 190.002 52.4958 190.015 52.4414C190.02 52.4217 190.02 52.3909 190.016 52.3728C189.979 52.228 189.642 51.9574 189.283 51.7837ZM180.403 46.9267C180.335 46.929 180.298 47.0007 180.321 47.085C180.339 47.1545 180.417 47.383 180.472 47.53C180.995 48.9275 181.897 50.1575 183.063 51.0625C183.925 51.7311 184.853 52.196 185.913 52.4905C186.774 52.7296 187.593 52.82 188.372 52.7618C188.656 52.7405 188.716 52.7271 188.764 52.674C188.831 52.6004 188.806 52.4765 188.712 52.4218C188.68 52.4035 188.634 52.3944 188.423 52.3653C187.195 52.1961 186.048 51.8365 184.953 51.2778C184.768 51.1835 184.304 50.9157 184.12 50.7966C182.663 49.8584 181.452 48.6028 180.602 47.1496C180.48 46.9419 180.465 46.9245 180.403 46.9267Z" fill="white"/>
<rect x="63.0724" y="193.609" width="49.9965" height="30.0497" rx="5" transform="rotate(30.2425 63.0724 193.609)" fill="url(#paint2_linear_217_1078)"/>
<g clip-path="url(#clip0_217_1078)">
<path d="M71.6125 212.682L70.3537 213.807L68.8872 212.952L69.5707 214.501L68.313 215.636L69.9903 215.464L70.6721 217.012L71.0354 215.355L72.7127 215.183L71.2532 214.332L71.6125 212.682Z" fill="#E22130"/>
<path d="M76.8994 217.459C76.8622 217.317 76.8041 217.195 76.7039 217.085C76.6147 216.973 76.4896 216.874 76.3432 216.789C76.195 216.703 76.0454 216.65 75.875 216.63C75.7063 216.61 75.5476 216.629 75.4055 216.667L75.3946 216.67C75.3195 216.695 75.2496 216.724 75.1853 216.763C75.1292 216.8 75.0771 216.83 75.0429 216.861C75.0459 216.828 75.0515 216.771 75.0519 216.711C75.0565 216.6 75.0542 216.513 75.0383 216.469C75.0092 216.313 74.9472 216.182 74.8461 216.046C74.746 215.909 74.6198 215.801 74.4578 215.706C74.3544 215.646 74.1992 215.572 73.9935 215.556C73.7549 215.537 73.5171 215.589 73.2875 215.733L73.5579 215.27L73.4097 215.183L71.9005 217.772L72.0487 217.858L72.9072 216.386C73.005 216.218 73.1067 216.087 73.222 215.98C73.3356 215.873 73.4507 215.81 73.5847 215.758C73.7009 215.705 73.8388 215.691 73.9753 215.71C74.1141 215.721 74.2464 215.764 74.363 215.841C74.5072 215.934 74.6196 216.035 74.7065 216.155C74.7848 216.27 74.8307 216.401 74.8541 216.535C74.8654 216.662 74.8648 216.766 74.8382 216.872C74.8125 217.003 74.7507 217.14 74.6447 217.322L73.756 218.847L73.9042 218.933L74.7546 217.474C74.8595 217.294 74.9532 217.15 75.0558 217.045C75.1561 216.948 75.2534 216.884 75.4116 216.819C75.5497 216.76 75.6875 216.745 75.8522 216.772C75.983 216.797 76.1205 216.842 76.2359 216.91C76.3651 216.985 76.4626 217.067 76.5428 217.167C76.623 217.268 76.6655 217.369 76.6965 217.482C76.7337 217.624 76.7346 217.773 76.6898 217.937C76.6519 218.105 76.577 218.277 76.46 218.478L75.6136 219.93L75.7618 220.016L76.6381 218.572C76.7621 218.36 76.8452 218.158 76.8843 217.972C76.9303 217.79 76.9445 217.615 76.8994 217.459Z" fill="#231F20"/>
<path d="M79.5453 219.641C79.5727 219.416 79.5304 219.148 79.4131 218.906C79.2781 218.618 79.0537 218.385 78.7711 218.221C78.2576 217.921 77.807 217.969 77.5091 218.065C77.147 218.183 76.8238 218.444 76.624 218.787C76.4243 219.129 76.3578 219.54 76.4317 219.913C76.4927 220.208 76.674 220.634 77.1893 220.934C77.4529 221.088 77.728 221.162 78.0116 221.163C78.2872 221.15 78.5453 221.075 78.7988 220.922L78.4185 221.574L78.5667 221.66L80.0728 219.077L79.9246 218.991L79.5453 219.641ZM79.3758 219.742C79.3603 219.828 79.3448 219.914 79.3155 219.992C79.2891 220.081 79.2475 220.168 79.2062 220.239C79.1636 220.328 79.1124 220.4 79.0589 220.464C78.9974 220.541 78.9354 220.6 78.8722 220.649C78.6486 220.839 78.382 220.959 78.1025 220.979C77.8267 221.009 77.5407 220.937 77.2908 220.791C76.9186 220.574 76.6888 220.26 76.6063 219.882C76.5415 219.55 76.5957 219.176 76.7803 218.859C76.98 218.517 77.2858 218.289 77.6351 218.189C77.9889 218.101 78.3652 218.149 78.6995 218.344C78.9441 218.486 79.1406 218.696 79.262 218.931C79.3751 219.197 79.4195 219.473 79.3758 219.742Z" fill="#231F20"/>
<path d="M80.4148 219.793C80.6208 219.749 80.8023 219.75 80.97 219.772C81.1347 219.798 81.3021 219.852 81.483 219.957L81.4951 219.964C81.7139 220.092 81.9006 220.286 82.0239 220.507C82.16 220.776 82.2142 221.067 82.1605 221.365L82.1603 221.381L82.3275 221.479L82.3306 221.446C82.3966 221.095 82.3429 220.744 82.1759 220.44C82.0396 220.187 81.8202 219.973 81.5686 219.826C81.1964 219.609 80.7724 219.552 80.3736 219.658C79.9747 219.764 79.6306 220.029 79.4127 220.403C79.21 220.751 79.1487 221.165 79.2242 221.538C79.3144 221.962 79.5809 222.317 80.0048 222.564C80.2805 222.725 80.6005 222.798 80.9092 222.771C81.2178 222.745 81.51 222.628 81.7568 222.426L81.784 222.407L81.6169 222.31L81.6029 222.318C81.4302 222.467 81.1882 222.57 80.9343 222.593C80.6354 222.635 80.3264 222.559 80.0558 222.401C79.8956 222.308 79.7596 222.184 79.6447 222.041C79.5339 221.89 79.461 221.734 79.406 221.563C79.3582 221.38 79.3494 221.201 79.3754 221.01C79.3984 220.824 79.4635 220.637 79.5614 220.469C79.6592 220.301 79.799 220.149 79.9474 220.029C80.0856 219.914 80.2508 219.837 80.4148 219.793ZM82.1571 220.793C82.209 220.969 82.2218 221.169 82.1877 221.374C82.2187 221.174 82.2009 220.983 82.1571 220.793Z" fill="#231F20"/>
<path d="M84.8903 221.867L84.7232 221.77L84.7092 221.778C84.7022 221.79 84.1076 222.232 83.5117 222.679L82.3362 223.559L82.5484 222.118C82.6988 221.167 82.7659 220.652 82.7689 220.647L82.7691 220.63L82.6019 220.533L82.1286 223.709L81.0557 224.484L81.2228 224.582L81.2368 224.574C81.2368 224.574 81.268 224.548 81.319 224.508C81.5014 224.373 82.0039 223.998 82.5755 223.58C82.726 223.469 82.8813 223.353 83.0427 223.238L84.4647 222.189C84.7073 222.011 84.8618 221.892 84.8649 221.887L84.8903 221.867Z" fill="#231F20"/>
<path d="M85.2695 223.878C85.1887 223.692 85.045 223.539 84.8931 223.399L84.8782 223.381C84.7126 223.206 84.6184 223.074 84.5713 222.961C84.5242 222.82 84.532 222.688 84.6159 222.528C84.6573 222.457 84.7055 222.39 84.7657 222.346C84.822 222.293 84.8919 222.265 84.9669 222.239C85.0529 222.21 85.1389 222.209 85.2218 222.213C85.3185 222.226 85.4031 222.259 85.4858 222.307L85.4979 222.314C85.5754 222.359 85.639 222.413 85.6808 222.472C85.7294 222.535 85.7658 222.607 85.7844 222.678C85.8029 222.749 85.8083 222.831 85.7951 222.909C85.7836 222.988 85.7543 223.066 85.7089 223.144L85.6978 223.163L85.846 223.25L85.8551 223.234C85.964 223.047 85.9912 222.838 85.9474 222.648C85.8967 222.454 85.7628 222.299 85.5578 222.18C85.3785 222.075 85.1702 222.033 84.9814 222.059C84.7616 222.096 84.5891 222.229 84.465 222.442C84.3549 222.647 84.3398 222.835 84.4027 223.02C84.4736 223.208 84.6202 223.372 84.7732 223.522C84.9618 223.701 85.0738 223.861 85.1178 224.008C85.1607 224.172 85.1339 224.321 85.0399 224.498L85.0288 224.517C84.9793 224.602 84.9189 224.678 84.8488 224.723C84.7747 224.774 84.6995 224.816 84.6106 224.834C84.5246 224.863 84.4277 224.867 84.3389 224.857C84.2422 224.844 84.1524 224.808 84.068 224.759C83.8819 224.65 83.749 224.494 83.6971 224.318C83.6493 224.134 83.6815 223.945 83.7853 223.755L83.7963 223.736L83.6441 223.656L83.625 223.689C83.6209 223.696 83.6179 223.701 83.6139 223.708C83.5614 223.798 83.5309 223.894 83.5152 223.996C83.4985 224.1 83.499 224.202 83.5284 224.298C83.5606 224.421 83.6128 224.538 83.694 224.636C83.7752 224.734 83.8687 224.823 83.991 224.895C84.0996 224.958 84.2181 224.992 84.3368 225.011C84.4595 225.022 84.5765 225.011 84.6903 224.983C84.7954 224.949 84.9034 224.898 84.9886 224.827C85.079 224.759 85.1493 224.67 85.2029 224.563C85.3378 224.307 85.3543 224.085 85.2695 223.878Z" fill="#231F20"/>
<path d="M84.9188 221.624L85.1645 221.603L85.2669 221.827L85.3163 221.58L85.5712 221.555L85.3592 221.431L85.4056 221.189L85.2248 221.353L85.0129 221.229L85.1044 221.456L84.9188 221.624Z" fill="#231F20"/>
</g>
<rect x="230.96" y="188.778" width="49.9965" height="30.0497" rx="5" fill="url(#paint3_linear_217_1078)"/>
<g clip-path="url(#clip1_217_1078)">
<path d="M242.767 201.701C242.767 201.701 243.411 204.423 243.514 204.865C243.634 205.381 243.85 205.571 244.473 205.443L244.876 203.755C244.978 203.336 245.046 203.037 245.111 202.61H245.123C245.169 203.041 245.235 203.337 245.318 203.756C245.318 203.756 245.482 204.523 245.566 204.925C245.65 205.328 245.884 205.581 246.495 205.443L247.453 201.701H246.679L246.352 203.319C246.264 203.79 246.184 204.158 246.123 204.589H246.112C246.056 204.162 245.985 203.809 245.895 203.35L245.555 201.701H244.748L244.384 203.308C244.281 203.797 244.184 204.191 244.123 204.607H244.112C244.049 204.215 243.965 203.72 243.874 203.247C243.874 203.247 243.658 202.097 243.582 201.701L242.767 201.701L242.767 201.701ZM250.143 201.701V205.443H250.88V204.648V201.701H250.143V201.701ZM260.518 201.701V204.461C260.518 204.842 260.587 205.109 260.736 205.272C260.866 205.414 261.079 205.506 261.336 205.506C261.553 205.506 261.768 205.464 261.869 205.425L261.859 204.831C261.784 204.85 261.697 204.865 261.579 204.865C261.328 204.865 261.244 204.7 261.244 204.358V203.302H261.886V202.586H261.244V201.701H260.518L260.518 201.701ZM248.497 202.568C248.039 202.568 247.675 202.701 247.477 202.819L247.622 203.331C247.804 203.213 248.092 203.116 248.366 203.116C248.818 203.114 248.892 203.379 248.892 203.55V203.59C247.906 203.588 247.283 203.94 247.283 204.658C247.283 205.096 247.6 205.506 248.152 205.506C248.491 205.506 248.775 205.367 248.945 205.143H248.962C248.962 205.143 249.074 205.629 249.695 205.443C249.662 205.241 249.652 205.025 249.652 204.766V203.766C249.652 203.129 249.388 202.568 248.497 202.568L248.497 202.568ZM252.903 202.568C252.442 202.568 252.235 202.809 252.109 203.014H252.099V202.632H251.396V205.443H252.136V203.794C252.136 203.717 252.145 203.635 252.171 203.564C252.232 203.398 252.382 203.204 252.621 203.204C252.92 203.204 253.06 203.465 253.06 203.841V205.443H253.799V203.774C253.799 203.701 253.809 203.612 253.83 203.546C253.891 203.358 254.052 203.204 254.275 203.204C254.577 203.204 254.723 203.46 254.723 203.903V205.443H255.463V203.787C255.463 202.914 255.033 202.568 254.548 202.568C254.333 202.568 254.164 202.624 254.01 202.721C253.881 202.803 253.766 202.918 253.665 203.071H253.654C253.537 202.768 253.262 202.568 252.903 202.568L252.903 202.568ZM256.97 202.568C256.512 202.568 256.149 202.701 255.951 202.819L256.096 203.331C256.277 203.213 256.566 203.116 256.839 203.116C257.291 203.114 257.365 203.379 257.365 203.55V203.59C256.379 203.588 255.756 203.94 255.756 204.658C255.756 205.096 256.074 205.506 256.625 205.506C256.964 205.506 257.248 205.367 257.418 205.143H257.435C257.435 205.143 257.547 205.629 258.168 205.443C258.135 205.241 258.125 205.025 258.125 204.766V203.766C258.125 203.129 257.861 202.568 256.97 202.568L256.97 202.568ZM260.045 202.568C259.762 202.568 259.439 202.757 259.304 203.162H259.283V202.632H258.616V205.443H259.376V204.003C259.376 203.926 259.381 203.858 259.393 203.796C259.449 203.494 259.672 203.302 259.993 203.302C260.081 203.302 260.144 203.311 260.213 203.322V202.586C260.156 202.574 260.116 202.568 260.045 202.568L260.045 202.568ZM248.916 204.088V204.439C248.916 204.491 248.911 204.544 248.898 204.591C248.841 204.786 248.645 204.95 248.4 204.95C248.197 204.95 248.035 204.831 248.035 204.578C248.035 204.192 248.447 204.085 248.916 204.088H248.916ZM257.389 204.088V204.439C257.389 204.491 257.385 204.544 257.371 204.591C257.314 204.786 257.118 204.95 256.874 204.95C256.67 204.95 256.508 204.831 256.508 204.578C256.508 204.192 256.92 204.085 257.389 204.088H257.389Z" fill="white"/>
<path d="M265.869 200.347C265.631 200.347 265.442 200.484 265.442 200.651L265.586 202.338C265.602 202.44 265.723 202.518 265.869 202.518C266.015 202.518 266.135 202.44 266.152 202.338L266.297 200.651C266.297 200.484 266.107 200.347 265.869 200.347L265.869 200.347ZM263.515 201.701C263.392 201.704 263.251 201.8 263.162 201.96C263.043 202.172 263.064 202.41 263.204 202.493L264.692 203.208C264.785 203.244 264.911 203.176 264.984 203.045C264.984 203.045 264.984 203.045 264.984 203.045C265.058 202.915 265.052 202.768 264.975 202.703L263.631 201.73C263.596 201.709 263.556 201.7 263.515 201.701L263.515 201.701ZM268.222 201.701C268.181 201.7 268.142 201.709 268.107 201.73L266.763 202.703C266.686 202.768 266.68 202.915 266.753 203.045L266.753 203.045C266.827 203.176 266.953 203.244 267.046 203.208L268.535 202.493C268.675 202.41 268.695 202.172 268.576 201.96C268.487 201.8 268.346 201.704 268.223 201.701L268.222 201.701ZM264.748 203.927C264.728 203.926 264.71 203.929 264.692 203.936L263.204 204.65C263.064 204.734 263.043 204.972 263.162 205.184C263.281 205.396 263.491 205.497 263.631 205.414L264.975 204.442C265.052 204.376 265.058 204.229 264.985 204.099L264.985 204.099C264.926 203.993 264.831 203.928 264.748 203.927L264.748 203.927ZM266.991 203.927C266.907 203.928 266.813 203.993 266.753 204.099L266.754 204.099C266.68 204.229 266.686 204.376 266.763 204.442L268.107 205.414C268.247 205.497 268.457 205.396 268.576 205.184C268.695 204.972 268.675 204.734 268.534 204.65L267.046 203.936C267.028 203.929 267.01 203.926 266.991 203.927L266.991 203.927ZM265.868 204.626C265.723 204.626 265.602 204.704 265.586 204.805L265.442 206.492C265.442 206.659 265.631 206.796 265.869 206.796C266.107 206.796 266.297 206.659 266.297 206.492L266.152 204.805C266.135 204.704 266.015 204.626 265.869 204.626H265.868H265.868Z" fill="#FFC220"/>
</g>
<defs>
<linearGradient id="paint0_linear_217_1078" x1="23.5989" y1="75.0544" x2="63.9681" y2="104.712" gradientUnits="userSpaceOnUse">
<stop stop-color="#1A293B"/>
<stop offset="1" stop-color="#183F5A"/>
</linearGradient>
<linearGradient id="paint1_linear_217_1078" x1="179.563" y1="25.7401" x2="221.476" y2="36.8971" gradientUnits="userSpaceOnUse">
<stop stop-color="#F4C24F"/>
<stop offset="1" stop-color="#F29F3A"/>
</linearGradient>
<linearGradient id="paint2_linear_217_1078" x1="69.4856" y1="194.861" x2="111.393" y2="206.017" gradientUnits="userSpaceOnUse">
<stop stop-color="#FFDDDD"/>
<stop offset="1" stop-color="#FFE6E6"/>
</linearGradient>
<linearGradient id="paint3_linear_217_1078" x1="237.373" y1="190.03" x2="279.281" y2="201.186" gradientUnits="userSpaceOnUse">
<stop stop-color="#3924CD"/>
<stop offset="1" stop-color="#4F38F0"/>
</linearGradient>
<clipPath id="clip0_217_1078">
<rect width="19.9468" height="5.44004" fill="white" transform="translate(69.6963 211.564) rotate(30.2425)"/>
</clipPath>
<clipPath id="clip1_217_1078">
<rect width="26.164" height="6.73528" fill="white" transform="translate(242.618 200.176)"/>
</clipPath>
</defs>
</svg>
