<svg width="596" height="206" viewBox="0 0 596 206" fill="none" xmlns="http://www.w3.org/2000/svg">
<g clip-path="url(#clip0_65_655)">
<path d="M595.697 156.248V48.8275C595.697 21.8608 573.836 0 546.87 0H48.8285C21.8618 0 0.000976562 21.8608 0.000976562 48.8275V156.248C0.000976562 183.215 21.8618 205.076 48.8285 205.076H546.869C573.836 205.076 595.697 183.215 595.697 156.248Z" fill="#FAE69E"/>
<path d="M61.7467 76.8486C61.7467 76.8486 65.8106 69.3513 72.2569 58.9988C72.2569 58.9988 92.9619 74.4663 92.8043 73.608C92.6466 72.7496 61.7467 76.8486 61.7467 76.8486Z" fill="#F5CF48"/>
<path d="M61.752 77.7246H61.8746C72.7702 76.2707 90.5499 74.1161 92.4943 74.3789C93.0023 74.5891 93.16 74.484 93.3352 74.3789C93.4864 74.2768 93.6048 74.1332 93.6763 73.9654C93.7478 73.7976 93.7692 73.6127 93.738 73.4329C93.738 73.1877 93.6329 72.9425 93.0549 72.8023C91.8637 72.3294 80.0222 63.6585 72.8578 58.2983C72.7614 58.2254 72.6507 58.1737 72.533 58.1465C72.4153 58.1193 72.2931 58.1173 72.1746 58.1406C72.0563 58.1599 71.9436 58.2043 71.8439 58.2708C71.7442 58.3373 71.6599 58.4243 71.5966 58.526C65.1328 68.7909 61.0864 76.3583 60.9813 76.4283C60.9082 76.5619 60.8711 76.7122 60.8739 76.8644C60.8766 77.0166 60.919 77.1655 60.9968 77.2964C61.0746 77.4272 61.1852 77.5355 61.3176 77.6106C61.4501 77.6857 61.5998 77.725 61.752 77.7246V77.7246ZM89.7792 72.7498C85.9605 72.96 78.4106 73.7833 63.4161 75.7627C64.87 73.1527 68.1457 67.4246 72.6301 60.2777C81.9841 67.2845 86.9765 70.9105 89.7267 72.7498H89.7792Z" fill="#F5CF48"/>
<path d="M329.391 392.838L162.98 416.539C159.567 416.99 156.104 416.21 153.215 414.338C150.325 412.467 148.198 409.626 147.215 406.326L61.1009 84.1887C59.3492 77.5147 63.6059 71.6465 70.6653 71.0685L240.352 57.3877C243.707 57.2229 247.019 58.1903 249.758 60.1345C252.496 62.0787 254.502 64.8869 255.452 68.1081L338.08 379.595C338.508 381.041 338.617 382.563 338.397 384.054C338.178 385.546 337.635 386.972 336.808 388.233C335.981 389.493 334.889 390.559 333.608 391.354C332.327 392.149 330.888 392.656 329.391 392.838V392.838Z" fill="#F5CF48"/>
<path d="M161.141 417.607C161.815 417.603 162.488 417.556 163.155 417.467L329.567 393.749C331.176 393.551 332.724 393.009 334.106 392.159C335.487 391.31 336.669 390.173 337.572 388.826C338.47 387.442 339.061 385.882 339.306 384.25C339.55 382.619 339.443 380.954 338.991 379.367L256.363 67.9326C255.353 64.5113 253.225 61.5272 250.32 59.457C247.414 57.3868 243.899 56.3498 240.335 56.5115L70.6482 70.1923C68.9281 70.2948 67.2516 70.7748 65.7379 71.5983C64.2242 72.4218 62.9103 73.5685 61.8897 74.9569C60.951 76.3224 60.3287 77.88 60.0681 79.5164C59.8075 81.1527 59.9152 82.8266 60.3833 84.4161L146.497 406.554C147.434 409.72 149.362 412.503 151.998 414.493C154.634 416.482 157.839 417.574 161.141 417.607V417.607ZM329.304 392.015L162.893 415.733C159.684 416.161 156.428 415.431 153.709 413.675C150.99 411.919 148.986 409.251 148.056 406.151L62.0124 84.0307C61.6064 82.6885 61.5073 81.2722 61.7226 79.8865C61.9379 78.5008 62.462 77.1813 63.2561 76.0255C64.1328 74.8359 65.2639 73.8569 66.567 73.1599C67.87 72.4629 69.3122 72.0655 70.7884 71.9966L240.475 58.2632C243.629 58.0975 246.747 59.0022 249.322 60.8304C251.898 62.6587 253.78 65.3033 254.664 68.3355L337.239 379.823C337.631 381.169 337.728 382.583 337.526 383.97C337.323 385.357 336.825 386.685 336.066 387.863C335.294 389 334.289 389.958 333.116 390.674C331.944 391.39 330.632 391.847 329.269 392.015H329.304Z" fill="#F5CF48"/>
<path d="M340.214 375.111L173.802 398.811C170.39 399.256 166.931 398.473 164.043 396.602C161.155 394.731 159.027 391.894 158.037 388.599L71.9411 66.4612C70.1894 59.7872 74.4461 53.919 81.5054 53.3409L251.228 39.6602C254.584 39.4976 257.897 40.4656 260.638 42.4092C263.379 44.3528 265.388 47.1597 266.345 50.3806L348.92 361.815C349.358 363.265 349.473 364.794 349.256 366.293C349.04 367.793 348.498 369.226 347.668 370.494C346.838 371.761 345.741 372.831 344.453 373.629C343.165 374.426 341.718 374.932 340.214 375.111V375.111Z" fill="#FEF9E7"/>
<mask id="mask0_65_655" style="mask-type:alpha" maskUnits="userSpaceOnUse" x="70" y="39" width="246" height="218">
<path d="M251.494 39.5929L81.0637 52.7858C77.6823 53.8112 74.3376 56.5777 71.7655 60.4765C69.1933 64.3754 72.0219 62.3917 71.7658 66.8801L119.27 241.364C119.013 245.852 120.111 249.749 122.321 252.198C124.531 254.647 127.672 255.446 131.054 254.421L302.764 256.539C305.885 255.592 308.973 253.038 311.347 249.439C313.721 245.841 315.188 241.491 315.424 237.348L266.143 50.1591C266.38 46.016 261.595 43.8921 259.555 41.6317C257.515 39.3714 254.616 38.6333 251.495 39.5798L251.494 39.5929Z" fill="#F7F6FD"/>
</mask>
<g mask="url(#mask0_65_655)">
<path d="M356.735 -264.618L313.191 526.891" stroke="#F7D96E" stroke-width="0.325517"/>
<path d="M351.862 -263.141L308.318 528.369" stroke="#F7D96E" stroke-width="0.325517"/>
<path d="M346.992 -261.664L303.447 529.846" stroke="#F7D96E" stroke-width="0.325517"/>
<path d="M342.119 -260.186L298.574 531.323" stroke="#F7D96E" stroke-width="0.325517"/>
<path d="M337.248 -258.709L293.704 532.8" stroke="#F7D96E" stroke-width="0.325517"/>
<path d="M332.375 -257.232L288.831 534.278" stroke="#F7D96E" stroke-width="0.325517"/>
<path d="M327.505 -255.754L283.96 535.755" stroke="#F7D96E" stroke-width="0.325517"/>
<path d="M322.632 -254.277L279.087 537.233" stroke="#F7D96E" stroke-width="0.325517"/>
<path d="M317.761 -252.8L274.217 538.71" stroke="#F7D96E" stroke-width="0.325517"/>
<path d="M312.888 -251.322L269.344 540.187" stroke="#F7D96E" stroke-width="0.325517"/>
<path d="M308.013 -249.845L264.469 541.664" stroke="#F7D96E" stroke-width="0.325517"/>
<path d="M303.145 -248.368L259.6 543.142" stroke="#F7D96E" stroke-width="0.325517"/>
<path d="M298.27 -246.89L254.725 544.619" stroke="#F7D96E" stroke-width="0.325517"/>
<path d="M293.401 -245.413L249.857 546.097" stroke="#F7D96E" stroke-width="0.325517"/>
<path d="M288.531 -243.936L244.986 547.574" stroke="#F7D96E" stroke-width="0.325517"/>
<path d="M283.66 -242.458L240.115 549.051" stroke="#F7D96E" stroke-width="0.325517"/>
<path d="M278.787 -240.981L235.242 550.528" stroke="#F7D96E" stroke-width="0.325517"/>
<path d="M273.914 -239.503L230.37 552.006" stroke="#F7D96E" stroke-width="0.325517"/>
<path d="M269.041 -238.026L225.497 553.483" stroke="#F7D96E" stroke-width="0.325517"/>
<path d="M264.173 -236.549L220.628 554.961" stroke="#F7D96E" stroke-width="0.325517"/>
<path d="M259.298 -235.072L215.753 556.438" stroke="#F7D96E" stroke-width="0.325517"/>
<path d="M254.429 -233.594L210.885 557.915" stroke="#F7D96E" stroke-width="0.325517"/>
<path d="M249.556 -232.117L206.012 559.392" stroke="#F7D96E" stroke-width="0.325517"/>
<path d="M244.686 -230.639L201.141 560.87" stroke="#F7D96E" stroke-width="0.325517"/>
<path d="M239.815 -229.162L196.271 562.347" stroke="#F7D96E" stroke-width="0.325517"/>
<path d="M234.944 -227.685L191.4 563.825" stroke="#F7D96E" stroke-width="0.325517"/>
<path d="M230.073 -226.208L186.529 565.302" stroke="#F7D96E" stroke-width="0.325517"/>
<path d="M225.198 -224.73L181.654 566.779" stroke="#F7D96E" stroke-width="0.325517"/>
<path d="M220.326 -223.253L176.781 568.256" stroke="#F7D96E" stroke-width="0.325517"/>
<path d="M215.455 -221.775L171.911 569.734" stroke="#F7D96E" stroke-width="0.325517"/>
<path d="M210.582 -220.298L167.038 571.211" stroke="#F7D96E" stroke-width="0.325517"/>
<path d="M205.711 -218.821L162.167 572.689" stroke="#F7D96E" stroke-width="0.325517"/>
<path d="M200.841 -217.344L157.296 574.166" stroke="#F7D96E" stroke-width="0.325517"/>
<path d="M195.97 -215.866L152.426 575.643" stroke="#F7D96E" stroke-width="0.325517"/>
<path d="M191.095 -214.389L147.551 577.121" stroke="#F7D96E" stroke-width="0.325517"/>
<path d="M186.224 -212.912L142.68 578.598" stroke="#F7D96E" stroke-width="0.325517"/>
<path d="M181.352 -211.434L137.807 580.075" stroke="#F7D96E" stroke-width="0.325517"/>
<path d="M176.481 -209.957L132.937 581.552" stroke="#F7D96E" stroke-width="0.325517"/>
<path d="M171.612 -208.479L128.068 583.03" stroke="#F7D96E" stroke-width="0.325517"/>
<path d="M166.74 -207.002L123.195 584.507" stroke="#F7D96E" stroke-width="0.325517"/>
<path d="M161.871 -205.525L118.326 585.985" stroke="#F7D96E" stroke-width="0.325517"/>
<path d="M156.994 -204.048L113.449 587.462" stroke="#F7D96E" stroke-width="0.325517"/>
<path d="M152.125 -202.57L108.581 588.939" stroke="#F7D96E" stroke-width="0.325517"/>
<path d="M147.248 -201.093L103.704 590.416" stroke="#F7D96E" stroke-width="0.325517"/>
<path d="M142.38 -199.615L98.8352 591.894" stroke="#F7D96E" stroke-width="0.325517"/>
<path d="M137.509 -198.138L93.9644 593.371" stroke="#F7D96E" stroke-width="0.325517"/>
<path d="M132.636 -196.661L89.0916 594.849" stroke="#F7D96E" stroke-width="0.325517"/>
<path d="M127.765 -195.184L84.221 596.326" stroke="#F7D96E" stroke-width="0.325517"/>
<path d="M122.895 -193.706L79.3501 597.803" stroke="#F7D96E" stroke-width="0.325517"/>
<path d="M118.022 -192.229L74.4773 599.28" stroke="#F7D96E" stroke-width="0.325517"/>
<path d="M113.149 -190.751L69.6045 600.758" stroke="#F7D96E" stroke-width="0.325517"/>
<path d="M108.28 -189.274L64.7358 602.235" stroke="#F7D96E" stroke-width="0.325517"/>
<path d="M103.41 -187.797L59.8652 603.713" stroke="#F7D96E" stroke-width="0.325517"/>
<path d="M98.5369 -186.32L54.9924 605.19" stroke="#F7D96E" stroke-width="0.325517"/>
<path d="M93.6619 -184.842L50.1174 606.667" stroke="#F7D96E" stroke-width="0.325517"/>
<path d="M88.7913 -183.365L45.2468 608.144" stroke="#F7D96E" stroke-width="0.325517"/>
<path d="M83.9204 -181.887L40.376 609.622" stroke="#F7D96E" stroke-width="0.325517"/>
<path d="M79.0476 -180.41L35.5032 611.099" stroke="#F7D96E" stroke-width="0.325517"/>
<path d="M74.177 -178.933L30.6326 612.577" stroke="#F7D96E" stroke-width="0.325517"/>
<path d="M986.518 125.532L15.127 616.626" stroke="#F7D96E" stroke-width="0.325517"/>
<path d="M982.802 122.052L11.4112 613.146" stroke="#F7D96E" stroke-width="0.325517"/>
<path d="M979.086 118.572L7.69538 609.665" stroke="#F7D96E" stroke-width="0.325517"/>
<path d="M975.369 115.091L3.9781 606.185" stroke="#F7D96E" stroke-width="0.325517"/>
<path d="M971.655 111.611L0.264232 602.705" stroke="#F7D96E" stroke-width="0.325517"/>
<path d="M967.94 108.131L-3.4511 599.224" stroke="#F7D96E" stroke-width="0.325517"/>
<path d="M964.224 104.65L-7.16692 595.744" stroke="#F7D96E" stroke-width="0.325517"/>
<path d="M960.509 101.17L-10.8823 592.264" stroke="#F7D96E" stroke-width="0.325517"/>
<path d="M956.795 97.6897L-14.5961 588.784" stroke="#F7D96E" stroke-width="0.325517"/>
<path d="M953.083 94.2097L-18.3075 585.304" stroke="#F7D96E" stroke-width="0.325517"/>
<path d="M949.366 90.7292L-22.0248 581.823" stroke="#F7D96E" stroke-width="0.325517"/>
<path d="M945.652 87.249L-25.7387 578.343" stroke="#F7D96E" stroke-width="0.325517"/>
<path d="M941.933 83.7686L-29.4584 574.862" stroke="#F7D96E" stroke-width="0.325517"/>
<path d="M938.221 80.2883L-33.1698 571.382" stroke="#F7D96E" stroke-width="0.325517"/>
<path d="M934.506 76.8079L-36.8852 567.902" stroke="#F7D96E" stroke-width="0.325517"/>
<path d="M930.79 73.3276L-40.601 564.421" stroke="#F7D96E" stroke-width="0.325517"/>
<path d="M927.075 69.8472L-44.3163 560.941" stroke="#F7D96E" stroke-width="0.325517"/>
<path d="M923.361 66.3669L-48.03 557.461" stroke="#F7D96E" stroke-width="0.325517"/>
<path d="M919.646 62.8867L-51.7455 553.981" stroke="#F7D96E" stroke-width="0.325517"/>
<path d="M915.928 59.4065L-55.4633 550.5" stroke="#F7D96E" stroke-width="0.325517"/>
<path d="M912.214 55.926L-59.1767 547.02" stroke="#F7D96E" stroke-width="0.325517"/>
<path d="M908.501 52.4458L-62.8903 543.54" stroke="#F7D96E" stroke-width="0.325517"/>
<path d="M904.783 48.9653L-66.6078 540.059" stroke="#F7D96E" stroke-width="0.325517"/>
<path d="M901.068 45.4851L-70.3234 536.579" stroke="#F7D96E" stroke-width="0.325517"/>
<path d="M897.352 42.0049L-74.0392 533.099" stroke="#F7D96E" stroke-width="0.325517"/>
<path d="M893.638 38.5244L-77.7526 529.618" stroke="#F7D96E" stroke-width="0.325517"/>
<path d="M889.923 35.0439L-81.4682 526.138" stroke="#F7D96E" stroke-width="0.325517"/>
<path d="M886.205 31.5637L-85.186 522.658" stroke="#F7D96E" stroke-width="0.325517"/>
<path d="M882.49 28.0835L-88.9015 519.177" stroke="#F7D96E" stroke-width="0.325517"/>
<path d="M878.778 24.6033L-92.613 515.697" stroke="#F7D96E" stroke-width="0.325517"/>
<path d="M875.061 21.1228L-96.3305 512.217" stroke="#F7D96E" stroke-width="0.325517"/>
<path d="M871.345 17.6426L-100.046 508.736" stroke="#F7D96E" stroke-width="0.325517"/>
<path d="M867.627 14.1624L-103.764 505.256" stroke="#F7D96E" stroke-width="0.325517"/>
<path d="M863.916 10.6819L-107.475 501.776" stroke="#F7D96E" stroke-width="0.325517"/>
<path d="M860.2 7.2019L-111.191 498.296" stroke="#F7D96E" stroke-width="0.325517"/>
<path d="M856.485 3.72168L-114.906 494.816" stroke="#F7D96E" stroke-width="0.325517"/>
<path d="M852.769 0.241211L-118.622 491.335" stroke="#F7D96E" stroke-width="0.325517"/>
<path d="M849.053 -3.23901L-122.338 487.855" stroke="#F7D96E" stroke-width="0.325517"/>
<path d="M845.34 -6.71948L-126.051 484.374" stroke="#F7D96E" stroke-width="0.325517"/>
<path d="M841.622 -10.1997L-129.769 480.894" stroke="#F7D96E" stroke-width="0.325517"/>
<path d="M837.909 -13.6802L-133.482 477.414" stroke="#F7D96E" stroke-width="0.325517"/>
<path d="M834.193 -17.1604L-137.198 473.933" stroke="#F7D96E" stroke-width="0.325517"/>
<path d="M830.479 -20.6409L-140.912 470.453" stroke="#F7D96E" stroke-width="0.325517"/>
<path d="M826.764 -24.1208L-144.627 466.973" stroke="#F7D96E" stroke-width="0.325517"/>
<path d="M823.048 -27.6013L-148.343 463.493" stroke="#F7D96E" stroke-width="0.325517"/>
<path d="M819.331 -31.0815L-152.06 460.012" stroke="#F7D96E" stroke-width="0.325517"/>
<path d="M815.617 -34.562L-155.774 456.532" stroke="#F7D96E" stroke-width="0.325517"/>
<path d="M811.904 -38.0422L-159.487 453.052" stroke="#F7D96E" stroke-width="0.325517"/>
<path d="M808.186 -41.5227L-163.205 449.571" stroke="#F7D96E" stroke-width="0.325517"/>
<path d="M804.47 -45.0029L-166.921 446.091" stroke="#F7D96E" stroke-width="0.325517"/>
<path d="M800.757 -48.4832L-170.634 442.611" stroke="#F7D96E" stroke-width="0.325517"/>
<path d="M797.039 -51.9636L-174.352 439.13" stroke="#F7D96E" stroke-width="0.325517"/>
<path d="M793.326 -55.4438L-178.065 435.65" stroke="#F7D96E" stroke-width="0.325517"/>
<path d="M789.608 -58.9241L-181.783 432.17" stroke="#F7D96E" stroke-width="0.325517"/>
<path d="M785.895 -62.4043L-185.497 428.69" stroke="#F7D96E" stroke-width="0.325517"/>
<path d="M782.179 -65.8848L-189.212 425.209" stroke="#F7D96E" stroke-width="0.325517"/>
<path d="M778.463 -69.365L-192.928 421.729" stroke="#F7D96E" stroke-width="0.325517"/>
<path d="M774.748 -72.8455L-196.643 418.248" stroke="#F7D96E" stroke-width="0.325517"/>
<path d="M771.034 -76.3257L-200.357 414.768" stroke="#F7D96E" stroke-width="0.325517"/>
<path d="M767.319 -79.8057L-204.072 411.288" stroke="#F7D96E" stroke-width="0.325517"/>
<path d="M763.601 -83.2861L-207.79 407.808" stroke="#F7D96E" stroke-width="0.325517"/>
<path d="M759.887 -86.7664L-211.504 404.327" stroke="#F7D96E" stroke-width="0.325517"/>
<path d="M756.176 -90.2468L-215.215 400.847" stroke="#F7D96E" stroke-width="0.325517"/>
<path d="M752.456 -93.7271L-218.935 397.367" stroke="#F7D96E" stroke-width="0.325517"/>
<path d="M748.741 -97.2075L-222.65 393.886" stroke="#F7D96E" stroke-width="0.325517"/>
<path d="M745.029 -100.688L-226.362 390.406" stroke="#F7D96E" stroke-width="0.325517"/>
<path d="M741.314 -104.168L-230.077 386.926" stroke="#F7D96E" stroke-width="0.325517"/>
<path d="M737.598 -107.648L-233.793 383.446" stroke="#F7D96E" stroke-width="0.325517"/>
<path d="M733.878 -111.129L-237.513 379.965" stroke="#F7D96E" stroke-width="0.325517"/>
<path d="M730.167 -114.609L-241.224 376.485" stroke="#F7D96E" stroke-width="0.325517"/>
<path d="M726.453 -118.089L-244.938 373.005" stroke="#F7D96E" stroke-width="0.325517"/>
<path d="M722.736 -121.57L-248.655 369.524" stroke="#F7D96E" stroke-width="0.325517"/>
<path d="M719.02 -125.05L-252.371 366.044" stroke="#F7D96E" stroke-width="0.325517"/>
<path d="M715.307 -128.53L-256.084 362.564" stroke="#F7D96E" stroke-width="0.325517"/>
<path d="M711.589 -132.01L-259.802 359.083" stroke="#F7D96E" stroke-width="0.325517"/>
<path d="M707.877 -135.491L-263.514 355.603" stroke="#F7D96E" stroke-width="0.325517"/>
<path d="M704.162 -138.971L-267.229 352.123" stroke="#F7D96E" stroke-width="0.325517"/>
<path d="M700.444 -142.451L-270.947 348.642" stroke="#F7D96E" stroke-width="0.325517"/>
<path d="M696.729 -145.932L-274.663 345.162" stroke="#F7D96E" stroke-width="0.325517"/>
<path d="M693.017 -149.412L-278.374 341.682" stroke="#F7D96E" stroke-width="0.325517"/>
<path d="M689.302 -152.892L-282.09 338.202" stroke="#F7D96E" stroke-width="0.325517"/>
<path d="M685.584 -156.373L-285.807 334.721" stroke="#F7D96E" stroke-width="0.325517"/>
<path d="M681.868 -159.853L-289.523 331.241" stroke="#F7D96E" stroke-width="0.325517"/>
<path d="M678.155 -163.333L-293.236 327.76" stroke="#F7D96E" stroke-width="0.325517"/>
<path d="M674.439 -166.813L-296.952 324.28" stroke="#F7D96E" stroke-width="0.325517"/>
<path d="M670.724 -170.294L-300.667 320.8" stroke="#F7D96E" stroke-width="0.325517"/>
<path d="M667.006 -173.774L-304.385 317.32" stroke="#F7D96E" stroke-width="0.325517"/>
<path d="M663.292 -177.254L-308.099 313.839" stroke="#F7D96E" stroke-width="0.325517"/>
<path d="M659.579 -180.735L-311.812 310.359" stroke="#F7D96E" stroke-width="0.325517"/>
<path d="M655.861 -184.215L-315.53 306.879" stroke="#F7D96E" stroke-width="0.325517"/>
<path d="M652.148 -187.695L-319.243 303.399" stroke="#F7D96E" stroke-width="0.325517"/>
<path d="M648.432 -191.176L-322.959 299.918" stroke="#F7D96E" stroke-width="0.325517"/>
<path d="M644.714 -194.656L-326.677 296.438" stroke="#F7D96E" stroke-width="0.325517"/>
<path d="M641.001 -198.136L-330.39 292.958" stroke="#F7D96E" stroke-width="0.325517"/>
<path d="M637.287 -201.616L-334.104 289.477" stroke="#F7D96E" stroke-width="0.325517"/>
<path d="M633.57 -205.097L-337.821 285.997" stroke="#F7D96E" stroke-width="0.325517"/>
<path d="M629.854 -208.577L-341.537 282.517" stroke="#F7D96E" stroke-width="0.325517"/>
<path d="M626.139 -212.058L-345.252 279.036" stroke="#F7D96E" stroke-width="0.325517"/>
<path d="M622.425 -215.538L-348.966 275.556" stroke="#F7D96E" stroke-width="0.325517"/>
<path d="M618.709 -219.018L-352.682 272.076" stroke="#F7D96E" stroke-width="0.325517"/>
<path d="M614.994 -222.499L-356.397 268.595" stroke="#F7D96E" stroke-width="0.325517"/>
<path d="M611.276 -225.979L-360.115 265.115" stroke="#F7D96E" stroke-width="0.325517"/>
<path d="M607.565 -229.459L-363.826 261.635" stroke="#F7D96E" stroke-width="0.325517"/>
<path d="M603.849 -232.939L-367.542 258.154" stroke="#F7D96E" stroke-width="0.325517"/>
<path d="M600.132 -236.42L-371.259 254.674" stroke="#F7D96E" stroke-width="0.325517"/>
<path d="M596.416 -239.9L-374.975 251.194" stroke="#F7D96E" stroke-width="0.325517"/>
<path d="M592.702 -243.38L-378.689 247.713" stroke="#F7D96E" stroke-width="0.325517"/>
<path d="M588.987 -246.861L-382.404 244.233" stroke="#F7D96E" stroke-width="0.325517"/>
<path d="M585.273 -250.341L-386.118 240.753" stroke="#F7D96E" stroke-width="0.325517"/>
<path d="M581.558 -253.821L-389.833 237.273" stroke="#F7D96E" stroke-width="0.325517"/>
<path d="M577.84 -257.301L-393.551 233.793" stroke="#F7D96E" stroke-width="0.325517"/>
<path d="M574.126 -260.782L-397.265 230.312" stroke="#F7D96E" stroke-width="0.325517"/>
<path d="M570.415 -264.262L-400.976 226.832" stroke="#F7D96E" stroke-width="0.325517"/>
<path d="M566.695 -267.742L-404.696 223.351" stroke="#F7D96E" stroke-width="0.325517"/>
<path d="M562.98 -271.223L-408.411 219.871" stroke="#F7D96E" stroke-width="0.325517"/>
<path d="M559.262 -274.703L-412.129 216.391" stroke="#F7D96E" stroke-width="0.325517"/>
<path d="M555.551 -278.183L-415.841 212.911" stroke="#F7D96E" stroke-width="0.325517"/>
<path d="M551.837 -281.664L-419.554 209.43" stroke="#F7D96E" stroke-width="0.325517"/>
<path d="M548.122 -285.144L-423.269 205.95" stroke="#F7D96E" stroke-width="0.325517"/>
<path d="M544.406 -288.624L-426.985 202.47" stroke="#F7D96E" stroke-width="0.325517"/>
<path d="M540.69 -292.104L-430.701 198.989" stroke="#F7D96E" stroke-width="0.325517"/>
<path d="M536.977 -295.585L-434.414 195.509" stroke="#F7D96E" stroke-width="0.325517"/>
<path d="M533.259 -299.065L-438.132 192.029" stroke="#F7D96E" stroke-width="0.325517"/>
<path d="M529.546 -302.546L-441.845 188.548" stroke="#F7D96E" stroke-width="0.325517"/>
<path d="M525.83 -306.026L-445.561 185.068" stroke="#F7D96E" stroke-width="0.325517"/>
<path d="M522.115 -309.506L-449.277 181.588" stroke="#F7D96E" stroke-width="0.325517"/>
<path d="M518.399 -312.989L-452.992 178.105" stroke="#F7D96E" stroke-width="0.325517"/>
</g>
<path d="M171.965 399.845C172.639 399.841 173.312 399.795 173.98 399.704L340.391 375.986C342 375.788 343.548 375.246 344.93 374.397C346.311 373.548 347.493 372.411 348.396 371.064C349.295 369.68 349.887 368.12 350.132 366.488C350.376 364.857 350.268 363.191 349.815 361.605L267.17 50.1703C266.158 46.7522 264.029 43.7725 261.123 41.7081C258.217 39.6437 254.703 38.6142 251.142 38.7843L81.4899 52.465C79.7549 52.5561 78.0617 53.0306 76.5321 53.8545C75.0025 54.6783 73.6745 55.831 72.6438 57.2297C71.7096 58.5972 71.09 60.1547 70.8295 61.7903C70.5691 63.4258 70.6742 65.0988 71.1373 66.6888L157.251 388.826C158.198 391.998 160.139 394.781 162.789 396.765C165.438 398.749 168.655 399.829 171.965 399.845ZM252.246 40.5009C255.226 40.5835 258.104 41.6051 260.47 43.4201C262.835 45.2351 264.567 47.7508 265.418 50.6082L348.063 362.043C348.455 363.389 348.552 364.803 348.35 366.191C348.148 367.578 347.65 368.905 346.89 370.083C346.118 371.22 345.113 372.178 343.941 372.894C342.768 373.61 341.457 374.067 340.093 374.235V374.235L173.682 397.953C170.482 398.367 167.238 397.632 164.53 395.877C161.822 394.122 159.826 391.461 158.897 388.371L72.8365 66.2509C72.4343 64.9082 72.3372 63.4926 72.5524 62.1075C72.7676 60.7225 73.2895 59.403 74.0802 58.2456C74.9587 57.0538 76.0926 56.0735 77.3989 55.3764C78.7052 54.6793 80.1508 54.2831 81.63 54.2167L251.3 40.536L252.246 40.5009Z" fill="#F5CF48"/>
<path d="M88.4272 87.6567L262.143 72.6096L328.795 323.908L157.619 346.663L88.4272 87.6567Z" fill="#F5CF48"/>
<path d="M139.823 66.0581L189.448 61.9066C189.563 61.8963 189.675 61.8633 189.777 61.8098C189.88 61.7562 189.97 61.683 190.044 61.5943C190.118 61.5057 190.174 61.4033 190.209 61.2931C190.243 61.1829 190.256 61.0669 190.245 60.9519C190.235 60.8369 190.202 60.7251 190.148 60.6228C190.095 60.5205 190.022 60.4297 189.933 60.3557C189.844 60.2817 189.742 60.2259 189.632 60.1914C189.522 60.157 189.406 60.1446 189.291 60.1549L139.682 64.2889C139.45 64.2889 139.227 64.3812 139.063 64.5454C138.899 64.7097 138.807 64.9325 138.807 65.1648C138.807 65.3971 138.899 65.6198 139.063 65.7841C139.227 65.9483 139.45 66.0406 139.682 66.0406L139.823 66.0581Z" fill="#E0BC3E"/>
<path d="M196.333 61.3288L202.919 60.7857C203.034 60.777 203.145 60.7454 203.247 60.6928C203.349 60.6401 203.44 60.5676 203.513 60.4794C203.587 60.3912 203.642 60.2891 203.675 60.1793C203.708 60.0694 203.719 59.954 203.707 59.8398C203.685 59.609 203.574 59.3959 203.397 59.2455C203.221 59.0952 202.993 59.0193 202.761 59.034L196.193 59.5946C195.96 59.5946 195.738 59.6869 195.573 59.8511C195.409 60.0154 195.317 60.2381 195.317 60.4704C195.317 60.7027 195.409 60.9255 195.573 61.0897C195.738 61.254 195.96 61.3463 196.193 61.3463L196.333 61.3288Z" fill="#E0BC3E"/>
<path d="M147.601 226.321C147.601 226.321 126.266 155.973 144.764 140.383L235.291 129.488C235.291 129.488 250.811 145.656 253.054 158.075C255.296 170.495 274.074 196.945 267.067 212.728L147.601 226.321Z" fill="#E0BC3E"/>
<path d="M147.597 227.197H147.685L267.168 213.586C267.319 213.568 267.462 213.512 267.584 213.423C267.707 213.334 267.805 213.216 267.869 213.078C272.721 202.113 265.627 186.295 259.916 173.578C257.096 167.306 254.661 161.876 253.961 157.917C251.701 145.375 236.619 129.54 235.971 128.874C235.877 128.776 235.761 128.702 235.634 128.656C235.506 128.611 235.369 128.595 235.235 128.611L144.707 139.525C144.541 139.547 144.384 139.614 144.252 139.717C125.526 155.483 146.003 223.694 146.809 226.584C146.862 226.754 146.966 226.904 147.107 227.014C147.248 227.123 147.419 227.187 147.597 227.197ZM266.398 211.905L148.228 225.375C146.091 218.053 128.591 155.763 145.127 141.294L234.955 130.468C237.092 132.78 250.194 147.214 252.191 158.303C252.945 162.472 255.414 167.99 258.27 174.366C263.665 186.505 270.549 201.657 266.398 211.905Z" fill="#E0BC3E"/>
<path d="M144.761 140.383C144.761 140.383 153.94 141.644 159.563 160.738C168.164 189.956 179.497 251.616 186.662 274.808C197.172 308.546 225.199 313.346 225.199 313.346L343.702 296.162C343.702 296.162 295.477 279.45 287.332 251.038C278.766 221.101 266.907 164.539 263.702 151.909C258.044 129.54 235.236 129.54 235.236 129.54L144.761 140.383Z" fill="#FEF9E7"/>
<path d="M225.251 314.169H225.374L343.876 296.985C344.071 296.955 344.251 296.862 344.387 296.719C344.523 296.576 344.608 296.393 344.629 296.197C344.648 296.002 344.602 295.807 344.497 295.642C344.392 295.477 344.235 295.351 344.051 295.286C343.561 295.128 296.142 278.382 288.225 250.74C282.286 229.982 274.666 196.034 269.639 173.56C267.379 163.488 265.593 155.518 264.612 151.646C258.849 128.874 235.516 128.612 235.288 128.612L144.655 139.525C144.445 139.55 144.25 139.651 144.109 139.809C143.967 139.967 143.887 140.171 143.885 140.383C143.886 140.595 143.963 140.799 144.101 140.959C144.239 141.119 144.429 141.226 144.638 141.259C144.778 141.259 153.396 142.853 158.651 160.983C163.013 175.767 168.041 198.82 172.928 221.119C177.692 242.963 182.212 263.598 185.75 275.071C191.216 292.746 201.516 302.433 209.328 307.443C214.117 310.65 219.464 312.932 225.093 314.169H225.251ZM340.285 295.741L225.269 312.417C223.219 311.997 197.241 306.199 187.502 274.546C183.999 263.142 179.462 242.542 174.697 220.751C169.827 198.417 164.765 175.329 160.403 160.492C156.707 147.968 151.487 142.976 148.141 140.856L235.393 130.346C236.199 130.346 257.482 130.644 262.913 152.084C263.876 155.921 265.663 163.873 267.922 173.946C272.967 196.437 280.587 230.42 286.543 251.231C290.835 266.173 306.109 277.821 318.179 284.951C325.267 289.097 332.656 292.704 340.285 295.741V295.741Z" fill="#E0BC3E"/>
<path d="M175.995 167.692H176.082L253.157 158.933C253.273 158.923 253.386 158.889 253.489 158.833C253.592 158.777 253.682 158.701 253.754 158.609C253.826 158.517 253.879 158.412 253.909 158.299C253.939 158.186 253.945 158.068 253.928 157.952C253.902 157.723 253.785 157.513 253.605 157.369C253.425 157.224 253.194 157.157 252.964 157.182L175.89 165.94C175.657 165.952 175.439 166.055 175.283 166.228C175.127 166.4 175.046 166.628 175.058 166.86C175.069 167.092 175.173 167.31 175.345 167.466C175.518 167.622 175.745 167.704 175.977 167.692H175.995Z" fill="#F5CF48"/>
<path d="M179.216 187.521H179.321L193.79 185.874C193.905 185.861 194.016 185.824 194.117 185.768C194.218 185.711 194.307 185.635 194.379 185.544C194.45 185.452 194.503 185.348 194.534 185.237C194.566 185.125 194.575 185.009 194.561 184.893C194.547 184.778 194.511 184.667 194.454 184.566C194.397 184.465 194.321 184.377 194.23 184.305C194.139 184.233 194.035 184.18 193.923 184.149C193.812 184.118 193.695 184.109 193.58 184.123L179.128 185.752C179.013 185.758 178.901 185.786 178.797 185.835C178.692 185.885 178.599 185.954 178.522 186.039C178.445 186.125 178.385 186.224 178.346 186.333C178.308 186.441 178.291 186.556 178.296 186.671C178.302 186.786 178.33 186.899 178.38 187.003C178.429 187.107 178.498 187.201 178.584 187.278C178.669 187.355 178.769 187.415 178.877 187.454C178.986 187.492 179.101 187.509 179.216 187.504V187.521Z" fill="#F5CF48"/>
<path d="M209.889 184.035L256.274 178.78C256.506 178.754 256.719 178.638 256.865 178.455C257.011 178.273 257.079 178.04 257.053 177.808C257.028 177.575 256.911 177.363 256.729 177.217C256.546 177.07 256.313 177.003 256.081 177.028L209.696 182.283C209.581 182.29 209.469 182.32 209.365 182.37C209.261 182.421 209.169 182.491 209.092 182.577C209.016 182.663 208.957 182.764 208.919 182.873C208.882 182.981 208.866 183.097 208.873 183.212C208.88 183.327 208.909 183.439 208.96 183.543C209.01 183.647 209.08 183.739 209.167 183.816C209.253 183.892 209.353 183.951 209.462 183.988C209.571 184.026 209.686 184.042 209.801 184.035H209.889Z" fill="#F5CF48"/>
<path d="M183.978 206.002H184.083L207.924 203.304C208.155 203.274 208.365 203.154 208.509 202.971C208.653 202.787 208.719 202.555 208.695 202.323C208.664 202.092 208.544 201.882 208.361 201.738C208.178 201.594 207.945 201.528 207.714 201.552L183.891 204.268C183.776 204.278 183.665 204.312 183.563 204.367C183.462 204.422 183.373 204.496 183.301 204.586C183.229 204.676 183.176 204.779 183.145 204.89C183.114 205.001 183.105 205.117 183.12 205.231C183.145 205.442 183.246 205.636 183.404 205.778C183.562 205.919 183.766 205.999 183.978 206.002V206.002Z" fill="#F5CF48"/>
<path d="M230.786 200.694H230.892L261.126 197.191C261.241 197.178 261.352 197.143 261.454 197.087C261.555 197.031 261.645 196.956 261.717 196.866C261.789 196.776 261.843 196.672 261.876 196.561C261.908 196.45 261.918 196.333 261.905 196.218C261.893 196.103 261.858 195.992 261.802 195.891C261.746 195.789 261.671 195.7 261.581 195.627C261.49 195.555 261.387 195.501 261.276 195.469C261.165 195.436 261.048 195.426 260.933 195.439L230.681 198.855C230.45 198.885 230.24 199.005 230.096 199.188C229.952 199.372 229.886 199.604 229.911 199.836C229.919 200.063 230.015 200.279 230.178 200.439C230.341 200.598 230.558 200.69 230.786 200.694V200.694Z" fill="#F5CF48"/>
</g>
<defs>
<clipPath id="clip0_65_655">
<rect width="595.696" height="205.076" rx="48.8275" fill="white"/>
</clipPath>
</defs>
</svg>
