<svg width="562" height="224" viewBox="0 0 562 224" fill="none" xmlns="http://www.w3.org/2000/svg">
<g clip-path="url(#clip0_64_39)">
<path d="M561.534 177.973V72.0461C561.534 48.5678 543.863 28.8524 520.524 26.293L448.018 18.3416C336.851 6.15042 224.684 6.15041 113.516 18.3416L41.0099 26.293C17.6714 28.8524 0 48.5678 0 72.0462V177.973C0 203.393 20.6072 224 46.0274 224H515.507C540.927 224 561.534 203.393 561.534 177.973Z" fill="#EBE9FB"/>
<g opacity="0.3" filter="url(#filter0_f_64_39)">
<path d="M65.9717 108.092L211.468 110.068L260.821 233.9H69.8174L65.9717 108.092Z" fill="#7165E3"/>
</g>
<path d="M106.269 72.9817L252.153 117.234C255.023 118.105 257.862 120.453 260.045 123.763C262.227 127.072 263.576 131.071 263.793 134.881L270.102 245.594C270.319 249.403 269.387 252.711 267.511 254.789C265.635 256.867 262.969 257.546 260.099 256.675L114.215 212.423C111.566 211.619 108.946 209.451 106.931 206.397C104.916 203.342 103.671 199.65 103.471 196.134L97.0356 83.1997C96.8352 79.6832 97.6954 76.6299 99.4269 74.7116C101.158 72.7933 103.62 72.167 106.269 72.9706L106.269 72.9817Z" fill="#7165E3"/>
<path d="M100.522 85.9615L97.925 77.3736L100.319 73.7665L116.205 62.1181L122.526 60.5688L113.111 100.181L100.522 85.9615Z" fill="#7165E3"/>
<path d="M123.816 60.7737L269.7 105.026C272.57 105.897 275.409 108.245 277.591 111.555C279.774 114.864 281.123 118.863 281.34 122.673L287.649 233.386C287.866 237.195 286.934 240.503 285.058 242.581C283.182 244.659 280.516 245.338 277.646 244.467L131.762 200.215C129.113 199.411 126.493 197.243 124.478 194.189C122.463 191.134 121.218 187.442 121.018 183.926L114.582 70.9917C114.382 67.4752 115.242 64.4219 116.974 62.5036C118.705 60.5853 121.166 59.959 123.816 60.7626L123.816 60.7737Z" fill="#F7F6FD"/>
<mask id="mask0_64_39" style="mask-type:alpha" maskUnits="userSpaceOnUse" x="114" y="60" width="174" height="185">
<path d="M123.808 60.7731L269.695 105.014C272.565 105.884 275.404 108.232 277.587 111.541C279.77 114.85 281.119 118.85 281.336 122.659L287.654 233.372C287.872 237.181 286.94 240.489 285.064 242.567C283.189 244.646 280.523 245.324 277.653 244.454L131.765 200.213C129.116 199.41 126.496 197.243 124.48 194.188C122.465 191.133 121.22 187.442 121.02 183.925L114.575 70.9919C114.374 67.4754 115.234 64.4221 116.965 62.5036C118.697 60.5851 121.158 59.9587 123.807 60.7621L123.808 60.7731Z" fill="#F7F6FD"/>
</mask>
<g mask="url(#mask0_64_39)">
<path d="M79.1653 -213.558L116.124 458.236" stroke="#D7D4F7" stroke-width="0.306849"/>
<path d="M83.3 -212.304L120.258 459.49" stroke="#D7D4F7" stroke-width="0.306849"/>
<path d="M87.4368 -211.05L124.395 460.744" stroke="#D7D4F7" stroke-width="0.306849"/>
<path d="M91.5693 -209.796L128.528 461.998" stroke="#D7D4F7" stroke-width="0.306849"/>
<path d="M95.7019 -208.542L132.66 463.252" stroke="#D7D4F7" stroke-width="0.306849"/>
<path d="M99.8367 -207.288L136.795 464.506" stroke="#D7D4F7" stroke-width="0.306849"/>
<path d="M103.973 -206.034L140.932 465.76" stroke="#D7D4F7" stroke-width="0.306849"/>
<path d="M108.11 -204.78L145.069 467.014" stroke="#D7D4F7" stroke-width="0.306849"/>
<path d="M112.245 -203.527L149.203 468.267" stroke="#D7D4F7" stroke-width="0.306849"/>
<path d="M116.38 -202.272L153.338 469.522" stroke="#D7D4F7" stroke-width="0.306849"/>
<path d="M120.512 -201.019L157.471 470.775" stroke="#D7D4F7" stroke-width="0.306849"/>
<path d="M124.649 -199.765L161.607 472.029" stroke="#D7D4F7" stroke-width="0.306849"/>
<path d="M128.782 -198.511L165.74 473.283" stroke="#D7D4F7" stroke-width="0.306849"/>
<path d="M132.918 -197.257L169.877 474.537" stroke="#D7D4F7" stroke-width="0.306849"/>
<path d="M137.053 -196.003L174.011 475.791" stroke="#D7D4F7" stroke-width="0.306849"/>
<path d="M141.19 -194.75L178.148 477.044" stroke="#D7D4F7" stroke-width="0.306849"/>
<path d="M145.323 -193.495L182.281 478.299" stroke="#D7D4F7" stroke-width="0.306849"/>
<path d="M149.455 -192.242L186.413 479.552" stroke="#D7D4F7" stroke-width="0.306849"/>
<path d="M153.594 -190.988L190.552 480.806" stroke="#D7D4F7" stroke-width="0.306849"/>
<path d="M157.724 -189.734L194.683 482.06" stroke="#D7D4F7" stroke-width="0.306849"/>
<path d="M161.861 -188.48L198.82 483.314" stroke="#D7D4F7" stroke-width="0.306849"/>
<path d="M165.996 -187.226L202.954 484.568" stroke="#D7D4F7" stroke-width="0.306849"/>
<path d="M170.133 -185.972L207.091 485.822" stroke="#D7D4F7" stroke-width="0.306849"/>
<path d="M174.265 -184.718L211.224 487.076" stroke="#D7D4F7" stroke-width="0.306849"/>
<path d="M178.4 -183.464L215.359 488.33" stroke="#D7D4F7" stroke-width="0.306849"/>
<path d="M182.537 -182.21L219.495 489.584" stroke="#D7D4F7" stroke-width="0.306849"/>
<path d="M186.669 -180.957L223.628 490.837" stroke="#D7D4F7" stroke-width="0.306849"/>
<path d="M190.806 -179.703L227.765 492.091" stroke="#D7D4F7" stroke-width="0.306849"/>
<path d="M194.939 -178.449L231.897 493.345" stroke="#D7D4F7" stroke-width="0.306849"/>
<path d="M199.078 -177.195L236.036 494.599" stroke="#D7D4F7" stroke-width="0.306849"/>
<path d="M203.208 -175.941L240.167 495.853" stroke="#D7D4F7" stroke-width="0.306849"/>
<path d="M207.343 -174.687L244.301 497.107" stroke="#D7D4F7" stroke-width="0.306849"/>
<path d="M211.48 -173.433L248.438 498.361" stroke="#D7D4F7" stroke-width="0.306849"/>
<path d="M215.614 -172.179L252.573 499.615" stroke="#D7D4F7" stroke-width="0.306849"/>
<path d="M219.751 -170.925L256.71 500.869" stroke="#D7D4F7" stroke-width="0.306849"/>
<path d="M223.882 -169.671L260.84 502.123" stroke="#D7D4F7" stroke-width="0.306849"/>
<path d="M228.021 -168.417L264.979 503.376" stroke="#D7D4F7" stroke-width="0.306849"/>
<path d="M232.151 -167.164L269.109 504.63" stroke="#D7D4F7" stroke-width="0.306849"/>
<path d="M236.286 -165.91L273.244 505.884" stroke="#D7D4F7" stroke-width="0.306849"/>
<path d="M240.423 -164.656L277.381 507.138" stroke="#D7D4F7" stroke-width="0.306849"/>
<path d="M244.561 -163.402L281.52 508.392" stroke="#D7D4F7" stroke-width="0.306849"/>
<path d="M248.694 -162.148L285.652 509.646" stroke="#D7D4F7" stroke-width="0.306849"/>
<path d="M252.824 -160.894L289.783 510.9" stroke="#D7D4F7" stroke-width="0.306849"/>
<path d="M256.961 -159.64L293.92 512.154" stroke="#D7D4F7" stroke-width="0.306849"/>
<path d="M261.096 -158.386L298.054 513.408" stroke="#D7D4F7" stroke-width="0.306849"/>
<path d="M265.233 -157.133L302.191 514.661" stroke="#D7D4F7" stroke-width="0.306849"/>
<path d="M269.365 -155.879L306.324 515.915" stroke="#D7D4F7" stroke-width="0.306849"/>
<path d="M273.504 -154.625L310.463 517.169" stroke="#D7D4F7" stroke-width="0.306849"/>
<path d="M277.635 -153.371L314.593 518.423" stroke="#D7D4F7" stroke-width="0.306849"/>
<path d="M281.77 -152.117L318.728 519.677" stroke="#D7D4F7" stroke-width="0.306849"/>
<path d="M285.906 -150.863L322.865 520.931" stroke="#D7D4F7" stroke-width="0.306849"/>
<path d="M-409.88 131.375L414.588 548.191" stroke="#D7D4F7" stroke-width="0.306849"/>
<path d="M-406.726 128.421L417.743 545.238" stroke="#D7D4F7" stroke-width="0.306849"/>
<path d="M-403.571 125.468L420.898 542.284" stroke="#D7D4F7" stroke-width="0.306849"/>
<path d="M-400.416 122.514L424.052 539.33" stroke="#D7D4F7" stroke-width="0.306849"/>
<path d="M-397.264 119.56L427.205 536.376" stroke="#D7D4F7" stroke-width="0.306849"/>
<path d="M-394.113 116.606L430.356 533.422" stroke="#D7D4F7" stroke-width="0.306849"/>
<path d="M-390.96 113.652L433.508 530.468" stroke="#D7D4F7" stroke-width="0.306849"/>
<path d="M-387.804 110.698L436.665 527.514" stroke="#D7D4F7" stroke-width="0.306849"/>
<path d="M-384.651 107.744L439.818 524.56" stroke="#D7D4F7" stroke-width="0.306849"/>
<path d="M-381.498 104.791L442.97 521.607" stroke="#D7D4F7" stroke-width="0.306849"/>
<path d="M-378.346 101.836L446.123 518.653" stroke="#D7D4F7" stroke-width="0.306849"/>
<path d="M-375.191 98.8826L449.278 515.699" stroke="#D7D4F7" stroke-width="0.306849"/>
<path d="M-372.038 95.9287L452.43 512.745" stroke="#D7D4F7" stroke-width="0.306849"/>
<path d="M-368.888 92.9746L455.581 509.791" stroke="#D7D4F7" stroke-width="0.306849"/>
<path d="M-365.729 90.0208L458.74 506.837" stroke="#D7D4F7" stroke-width="0.306849"/>
<path d="M-362.578 87.0669L461.89 503.883" stroke="#D7D4F7" stroke-width="0.306849"/>
<path d="M-359.424 84.1128L465.045 500.929" stroke="#D7D4F7" stroke-width="0.306849"/>
<path d="M-356.269 81.1589L468.2 497.975" stroke="#D7D4F7" stroke-width="0.306849"/>
<path d="M-353.118 78.2051L471.35 495.021" stroke="#D7D4F7" stroke-width="0.306849"/>
<path d="M-349.964 75.2512L474.505 492.067" stroke="#D7D4F7" stroke-width="0.306849"/>
<path d="M-346.811 72.2974L477.658 489.114" stroke="#D7D4F7" stroke-width="0.306849"/>
<path d="M-343.661 69.3433L480.808 486.159" stroke="#D7D4F7" stroke-width="0.306849"/>
<path d="M-340.504 66.3894L483.965 483.206" stroke="#D7D4F7" stroke-width="0.306849"/>
<path d="M-337.353 63.4353L487.115 480.252" stroke="#D7D4F7" stroke-width="0.306849"/>
<path d="M-334.198 60.4817L490.27 477.298" stroke="#D7D4F7" stroke-width="0.306849"/>
<path d="M-331.044 57.5276L493.425 474.344" stroke="#D7D4F7" stroke-width="0.306849"/>
<path d="M-327.893 54.5737L496.575 471.39" stroke="#D7D4F7" stroke-width="0.306849"/>
<path d="M-324.737 51.6196L499.732 468.436" stroke="#D7D4F7" stroke-width="0.306849"/>
<path d="M-321.586 48.666L502.883 465.482" stroke="#D7D4F7" stroke-width="0.306849"/>
<path d="M-318.436 45.7119L506.033 462.528" stroke="#D7D4F7" stroke-width="0.306849"/>
<path d="M-315.277 42.7581L509.192 459.574" stroke="#D7D4F7" stroke-width="0.306849"/>
<path d="M-312.126 39.8042L512.343 456.62" stroke="#D7D4F7" stroke-width="0.306849"/>
<path d="M-308.973 36.8503L515.495 453.667" stroke="#D7D4F7" stroke-width="0.306849"/>
<path d="M-305.819 33.8962L518.65 450.712" stroke="#D7D4F7" stroke-width="0.306849"/>
<path d="M-302.666 30.9426L521.803 447.759" stroke="#D7D4F7" stroke-width="0.306849"/>
<path d="M-299.513 27.9888L524.955 444.805" stroke="#D7D4F7" stroke-width="0.306849"/>
<path d="M-296.361 25.0347L528.108 441.851" stroke="#D7D4F7" stroke-width="0.306849"/>
<path d="M-293.206 22.0808L531.263 438.897" stroke="#D7D4F7" stroke-width="0.306849"/>
<path d="M-290.051 19.127L534.417 435.943" stroke="#D7D4F7" stroke-width="0.306849"/>
<path d="M-286.901 16.1731L537.568 432.989" stroke="#D7D4F7" stroke-width="0.306849"/>
<path d="M-283.748 13.219L540.72 430.035" stroke="#D7D4F7" stroke-width="0.306849"/>
<path d="M-280.591 10.2651L543.877 427.081" stroke="#D7D4F7" stroke-width="0.306849"/>
<path d="M-277.441 7.31104L547.028 424.127" stroke="#D7D4F7" stroke-width="0.306849"/>
<path d="M-274.288 4.35742L550.18 421.174" stroke="#D7D4F7" stroke-width="0.306849"/>
<path d="M-271.131 1.40332L553.337 418.22" stroke="#D7D4F7" stroke-width="0.306849"/>
<path d="M-267.981 -1.55054L556.488 415.266" stroke="#D7D4F7" stroke-width="0.306849"/>
<path d="M-264.828 -4.50439L559.64 412.312" stroke="#D7D4F7" stroke-width="0.306849"/>
<path d="M-261.671 -7.4585L562.797 409.358" stroke="#D7D4F7" stroke-width="0.306849"/>
<path d="M-258.521 -10.4124L565.948 406.404" stroke="#D7D4F7" stroke-width="0.306849"/>
<path d="M-255.364 -13.3662L569.104 403.45" stroke="#D7D4F7" stroke-width="0.306849"/>
<path d="M-252.211 -16.3201L572.257 400.496" stroke="#D7D4F7" stroke-width="0.306849"/>
<path d="M-249.061 -19.2742L575.408 397.542" stroke="#D7D4F7" stroke-width="0.306849"/>
<path d="M-245.906 -22.2278L578.562 394.588" stroke="#D7D4F7" stroke-width="0.306849"/>
<path d="M-242.751 -25.1819L581.717 391.634" stroke="#D7D4F7" stroke-width="0.306849"/>
<path d="M-239.601 -28.1357L584.868 388.68" stroke="#D7D4F7" stroke-width="0.306849"/>
<path d="M-236.446 -31.0896L588.022 385.727" stroke="#D7D4F7" stroke-width="0.306849"/>
<path d="M-233.296 -34.0437L591.173 382.773" stroke="#D7D4F7" stroke-width="0.306849"/>
<path d="M-230.139 -36.9976L594.33 379.819" stroke="#D7D4F7" stroke-width="0.306849"/>
<path d="M-226.986 -39.9517L597.482 376.865" stroke="#D7D4F7" stroke-width="0.306849"/>
<path d="M-223.83 -42.9053L600.639 373.911" stroke="#D7D4F7" stroke-width="0.306849"/>
<path d="M-220.679 -45.8591L603.79 370.957" stroke="#D7D4F7" stroke-width="0.306849"/>
<path d="M-217.526 -48.813L606.942 368.003" stroke="#D7D4F7" stroke-width="0.306849"/>
<path d="M-214.374 -51.7668L610.095 365.049" stroke="#D7D4F7" stroke-width="0.306849"/>
<path d="M-211.221 -54.7209L613.248 362.095" stroke="#D7D4F7" stroke-width="0.306849"/>
<path d="M-208.066 -57.6748L616.402 359.141" stroke="#D7D4F7" stroke-width="0.306849"/>
<path d="M-204.914 -60.6287L619.555 356.188" stroke="#D7D4F7" stroke-width="0.306849"/>
<path d="M-201.759 -63.5828L622.71 353.233" stroke="#D7D4F7" stroke-width="0.306849"/>
<path d="M-198.604 -66.5366L625.864 350.28" stroke="#D7D4F7" stroke-width="0.306849"/>
<path d="M-195.454 -69.4905L629.015 347.326" stroke="#D7D4F7" stroke-width="0.306849"/>
<path d="M-192.301 -72.4443L632.167 344.372" stroke="#D7D4F7" stroke-width="0.306849"/>
<path d="M-189.145 -75.3984L635.324 341.418" stroke="#D7D4F7" stroke-width="0.306849"/>
<path d="M-185.994 -78.3523L638.475 338.464" stroke="#D7D4F7" stroke-width="0.306849"/>
<path d="M-182.839 -81.3062L641.63 335.51" stroke="#D7D4F7" stroke-width="0.306849"/>
<path d="M-179.689 -84.26L644.78 332.556" stroke="#D7D4F7" stroke-width="0.306849"/>
<path d="M-176.534 -87.2141L647.935 329.602" stroke="#D7D4F7" stroke-width="0.306849"/>
<path d="M-173.379 -90.168L651.09 326.648" stroke="#D7D4F7" stroke-width="0.306849"/>
<path d="M-170.227 -93.1221L654.242 323.694" stroke="#D7D4F7" stroke-width="0.306849"/>
<path d="M-167.072 -96.0757L657.397 320.741" stroke="#D7D4F7" stroke-width="0.306849"/>
<path d="M-163.919 -99.0295L660.55 317.787" stroke="#D7D4F7" stroke-width="0.306849"/>
<path d="M-160.767 -101.984L663.702 314.833" stroke="#D7D4F7" stroke-width="0.306849"/>
<path d="M-157.612 -104.938L666.857 311.879" stroke="#D7D4F7" stroke-width="0.306849"/>
<path d="M-154.463 -107.892L670.005 308.925" stroke="#D7D4F7" stroke-width="0.306849"/>
<path d="M-151.305 -110.845L673.164 305.971" stroke="#D7D4F7" stroke-width="0.306849"/>
<path d="M-148.152 -113.799L676.317 303.017" stroke="#D7D4F7" stroke-width="0.306849"/>
<path d="M-145.003 -116.753L679.465 300.063" stroke="#D7D4F7" stroke-width="0.306849"/>
<path d="M-141.847 -119.707L682.622 297.109" stroke="#D7D4F7" stroke-width="0.306849"/>
<path d="M-138.694 -122.661L685.775 294.155" stroke="#D7D4F7" stroke-width="0.306849"/>
<path d="M-135.539 -125.615L688.929 291.201" stroke="#D7D4F7" stroke-width="0.306849"/>
<path d="M-132.387 -128.569L692.082 288.248" stroke="#D7D4F7" stroke-width="0.306849"/>
<path d="M-129.234 -131.523L695.235 285.294" stroke="#D7D4F7" stroke-width="0.306849"/>
<path d="M-126.079 -134.477L698.389 282.34" stroke="#D7D4F7" stroke-width="0.306849"/>
<path d="M-122.927 -137.43L701.542 279.386" stroke="#D7D4F7" stroke-width="0.306849"/>
<path d="M-119.778 -140.384L704.69 276.432" stroke="#D7D4F7" stroke-width="0.306849"/>
<path d="M-116.619 -143.338L707.849 273.478" stroke="#D7D4F7" stroke-width="0.306849"/>
<path d="M-113.469 -146.292L711 270.524" stroke="#D7D4F7" stroke-width="0.306849"/>
<path d="M-110.31 -149.246L714.159 267.57" stroke="#D7D4F7" stroke-width="0.306849"/>
<path d="M-107.162 -152.2L717.307 264.616" stroke="#D7D4F7" stroke-width="0.306849"/>
<path d="M-104.007 -155.154L720.462 261.662" stroke="#D7D4F7" stroke-width="0.306849"/>
<path d="M-100.854 -158.108L723.614 258.708" stroke="#D7D4F7" stroke-width="0.306849"/>
<path d="M-97.7017 -161.062L726.767 255.754" stroke="#D7D4F7" stroke-width="0.306849"/>
<path d="M-94.5469 -164.016L729.922 252.8" stroke="#D7D4F7" stroke-width="0.306849"/>
<path d="M-91.3943 -166.97L733.074 249.846" stroke="#D7D4F7" stroke-width="0.306849"/>
<path d="M-88.2437 -169.924L736.225 246.893" stroke="#D7D4F7" stroke-width="0.306849"/>
<path d="M-85.085 -172.877L739.384 243.939" stroke="#D7D4F7" stroke-width="0.306849"/>
<path d="M-81.9343 -175.832L742.534 240.985" stroke="#D7D4F7" stroke-width="0.306849"/>
<path d="M-78.7795 -178.785L745.689 238.031" stroke="#D7D4F7" stroke-width="0.306849"/>
<path d="M-75.625 -181.739L748.844 235.077" stroke="#D7D4F7" stroke-width="0.306849"/>
<path d="M-72.4766 -184.693L751.992 232.123" stroke="#D7D4F7" stroke-width="0.306849"/>
<path d="M-69.3218 -187.647L755.147 229.169" stroke="#D7D4F7" stroke-width="0.306849"/>
<path d="M-66.165 -190.601L758.304 226.215" stroke="#D7D4F7" stroke-width="0.306849"/>
<path d="M-63.0144 -193.555L761.454 223.262" stroke="#D7D4F7" stroke-width="0.306849"/>
<path d="M-59.8618 -196.509L764.607 220.308" stroke="#D7D4F7" stroke-width="0.306849"/>
<path d="M-56.7051 -199.463L767.764 217.354" stroke="#D7D4F7" stroke-width="0.306849"/>
<path d="M-53.5544 -202.417L770.914 214.4" stroke="#D7D4F7" stroke-width="0.306849"/>
<path d="M-50.4019 -205.37L774.067 211.446" stroke="#D7D4F7" stroke-width="0.306849"/>
<path d="M-47.2451 -208.324L777.224 208.492" stroke="#D7D4F7" stroke-width="0.306849"/>
<path d="M-44.0945 -211.278L780.374 205.538" stroke="#D7D4F7" stroke-width="0.306849"/>
<path d="M-40.9397 -214.232L783.529 202.584" stroke="#D7D4F7" stroke-width="0.306849"/>
<path d="M-37.7893 -217.186L786.679 199.63" stroke="#D7D4F7" stroke-width="0.306849"/>
<path d="M-34.6367 -220.14L789.832 196.676" stroke="#D7D4F7" stroke-width="0.306849"/>
<path d="M-31.4797 -223.094L792.989 193.722" stroke="#D7D4F7" stroke-width="0.306849"/>
<path d="M-28.3293 -226.048L796.139 190.768" stroke="#D7D4F7" stroke-width="0.306849"/>
<path d="M-25.1746 -229.002L799.294 187.814" stroke="#D7D4F7" stroke-width="0.306849"/>
<path d="M-22.0198 -231.956L802.449 184.86" stroke="#D7D4F7" stroke-width="0.306849"/>
<path d="M-18.8694 -234.91L805.599 181.907" stroke="#D7D4F7" stroke-width="0.306849"/>
<path d="M-15.7146 -237.864L808.754 178.952" stroke="#D7D4F7" stroke-width="0.306849"/>
<path d="M-12.562 -240.819L811.907 175.997" stroke="#D7D4F7" stroke-width="0.306849"/>
</g>
<g opacity="0.2">
<path opacity="0.2" d="M118.084 132.217L281.783 130.483L282.727 147.046L119.43 155.838L118.084 132.217Z" fill="#7165E3"/>
</g>
<g opacity="0.2">
<path opacity="0.4" d="M208.572 86.7332L226.909 146.356L245.757 235.503L260.524 239.982L231.151 134.779L222.265 90.8868L208.572 86.7332Z" fill="#7165E3"/>
</g>
<path d="M237.177 223.196C237.195 223.353 214.365 216.531 186.216 207.957C158.068 199.382 135.198 192.343 135.175 192.142C135.152 191.94 157.987 198.807 186.151 207.374C214.314 215.941 237.176 223.043 237.177 223.196Z" fill="white"/>
<path d="M222.235 133.203C219.374 133.236 216.271 131.589 213.355 129.51C210.439 127.432 207.62 124.916 204.685 122.94C197.448 118.118 189.922 116.845 183.644 119.379C183.331 119.457 183.076 119.679 182.913 120.015C182.803 120.469 182.834 121.014 183.001 121.551L192.018 157.839C192.243 159.09 192.742 160.33 193.443 161.387C194.535 162.804 195.973 162.85 197.243 162.8C201.28 162.768 205.172 162.13 208.855 160.895C212.546 159.627 215.629 156.92 217.803 153.037C218.764 151.157 219.458 149.023 220.473 147.225C221.409 145.308 222.951 144.152 224.814 143.972L222.235 133.203Z" fill="#F7F6FD"/>
<path d="M274.483 160.254C271.797 145.176 269.098 130.017 264.695 115.015C257.438 112.619 250.842 115.231 245.425 119.352C240.007 123.473 235.373 129.025 229.891 133.018L230.568 143.459C232.663 143.142 234.991 143.829 237.204 145.418C239.389 146.985 241.525 148.777 243.586 150.773C248.345 155.286 253.381 158.954 258.52 161.654C263.655 164.178 268.994 165.124 273.343 163.284C273.923 163.155 274.373 162.697 274.599 162.005C274.669 161.461 274.629 160.86 274.483 160.254V160.254Z" fill="#F7F6FD"/>
<g opacity="0.3">
<path opacity="0.3" d="M222.231 133.203C219.37 133.236 216.267 131.589 213.351 129.51C210.435 127.432 207.616 124.916 204.682 122.94C197.444 118.118 189.918 116.845 183.64 119.379C183.327 119.457 183.072 119.679 182.909 120.015C182.8 120.469 182.831 121.014 182.997 121.551L192.014 157.839C192.24 159.09 192.738 160.33 193.439 161.387C194.532 162.804 195.97 162.85 197.239 162.8C201.276 162.768 205.168 162.13 208.851 160.895C212.543 159.627 215.625 156.92 217.799 153.037C218.76 151.157 219.454 149.023 220.469 147.225C221.405 145.308 222.947 144.152 224.811 143.972L222.231 133.203Z" fill="#7165E3"/>
</g>
<path d="M222.235 133.203L222.42 133.878C222.546 134.372 222.716 135.053 222.945 135.925L224.951 143.937L224.959 144.07L224.859 144.04C223.549 144.131 222.404 144.767 221.562 145.873C220.571 147.229 219.746 148.801 219.105 150.555C218.339 152.578 217.345 154.371 216.146 155.888C214.798 157.569 213.23 158.918 211.481 159.901C207.852 162.057 203.285 162.766 198.39 163.029C197.176 163.051 195.963 163.378 194.482 162.593C194.12 162.394 193.77 162.104 193.454 161.739C193.138 161.374 192.864 160.943 192.649 160.473C192.265 159.561 191.967 158.615 191.763 157.664C190.843 153.966 189.901 150.174 188.939 146.333C187.532 140.674 186.165 135.146 184.833 129.803C184.175 127.139 183.52 124.509 182.885 121.95C182.654 121.253 182.573 120.538 182.654 119.904C182.886 119.4 183.272 119.083 183.745 119.008C184.543 118.697 185.342 118.407 186.149 118.261C189.255 117.569 192.602 117.709 196.033 118.676C199.052 119.49 202.101 120.946 205.063 122.989C207.741 124.887 210.064 126.873 212.149 128.395C213.919 129.792 215.741 130.956 217.583 131.868C218.748 132.438 219.917 132.825 221.067 133.022C221.848 133.139 222.28 133.14 222.265 133.157C222.169 133.179 222.068 133.189 221.965 133.186C221.677 133.191 221.385 133.175 221.089 133.137C219.936 132.989 218.756 132.631 217.579 132.072C215.718 131.192 213.874 130.046 212.083 128.657C209.98 127.108 207.649 125.142 204.989 123.249C198.721 119.003 192.19 117.404 186.419 118.702C185.614 118.892 184.812 119.126 184.013 119.426C183.614 119.577 183.214 119.716 183.098 120.115C183.047 120.644 183.126 121.232 183.325 121.801C183.966 124.369 184.621 126.992 185.29 129.67C186.614 135 187.989 140.53 189.404 146.192C190.358 150.041 191.296 153.818 192.22 157.521C192.405 158.417 192.684 159.311 193.048 160.171C193.227 160.566 193.457 160.928 193.721 161.235C193.986 161.541 194.28 161.785 194.584 161.951C195.838 162.624 197.055 162.374 198.302 162.351C203.182 162.105 207.715 161.364 211.309 159.306C213.035 158.358 214.589 157.056 215.933 155.433C217.121 153.94 218.117 152.185 218.898 150.21C219.555 148.453 220.403 146.887 221.421 145.548C222.301 144.417 223.495 143.779 224.857 143.713L224.784 143.865C223.977 140.439 223.344 137.772 222.913 135.937L222.427 133.858C222.283 133.467 222.235 133.203 222.235 133.203Z" fill="#7165E3"/>
<g opacity="0.3">
<path opacity="0.3" d="M274.48 160.254C271.794 145.176 269.095 130.017 264.693 115.015C257.436 112.618 250.839 115.231 245.422 119.352C240.005 123.472 235.37 129.025 229.888 133.017L230.565 143.459C232.661 143.142 234.988 143.829 237.202 145.418C239.387 146.985 241.522 148.776 243.583 150.773C248.343 155.285 253.378 158.954 258.517 161.653C263.652 164.177 268.992 165.124 273.34 163.284C273.92 163.155 274.37 162.697 274.597 162.004C274.666 161.461 274.626 160.86 274.48 160.254V160.254Z" fill="#7165E3"/>
</g>
<path d="M274.48 160.254C274.592 160.671 274.657 161.091 274.673 161.496C274.689 162.008 274.557 162.449 274.303 162.73C273.956 163.083 273.545 163.326 273.088 163.447C270.239 164.548 267.04 164.654 263.726 163.755C259.5 162.744 254.306 159.91 248.793 155.469C247.412 154.326 246.009 153.137 244.585 151.902C243.151 150.642 241.711 149.272 240.218 147.983C238.708 146.64 237.131 145.527 235.527 144.671C233.869 143.772 232.193 143.44 230.668 143.708L230.394 143.766L230.372 143.368C230.183 140.054 229.924 136.524 229.687 132.924L229.678 132.78L229.765 132.72C232.349 130.833 234.858 128.501 237.387 126.076C241.532 122.09 245.616 118.195 250.221 115.977C254.825 113.759 259.845 113.11 264.675 114.728L264.808 114.768L264.859 114.935C267.924 125.852 270.423 136.829 272.333 147.771C273.056 151.735 273.592 154.839 273.957 156.948C274.13 157.988 274.266 158.789 274.356 159.37C274.37 159.613 274.431 159.827 274.456 159.986C274.468 160.058 274.472 160.129 274.468 160.196C274.468 160.196 274.465 160.13 274.416 159.985L274.29 159.361C274.181 158.785 274.029 157.979 273.834 156.943C273.434 154.781 272.85 151.683 272.111 147.736C270.138 136.815 267.606 125.867 264.535 114.978L264.71 115.194C259.955 113.622 254.982 114.23 250.47 116.487C245.958 118.744 241.844 122.554 237.717 126.567C235.18 128.989 232.663 131.33 230.054 133.22L230.132 133.016C230.337 136.606 230.587 140.133 230.801 143.455L230.504 143.115C232.095 142.847 233.842 143.197 235.57 144.131C237.21 145.007 238.821 146.149 240.363 147.528C241.873 148.833 243.306 150.211 244.731 151.469C246.157 152.726 247.538 153.927 248.915 155.039C253.668 159.065 258.706 161.902 263.712 163.371C267 164.295 270.181 164.249 273.035 163.235C273.485 163.109 273.891 162.865 274.233 162.513C274.477 162.258 274.611 161.854 274.609 161.379C274.579 161.007 274.536 160.631 274.48 160.254Z" fill="#7165E3"/>
<path d="M226.086 146.409C226.086 146.409 224.127 146.238 222.963 153.158C221.8 160.078 220.553 193.449 220.553 193.449L245.728 209.715L231.838 149.175L226.086 146.409Z" fill="#F7F6FD"/>
<path d="M233.509 148.563L250.141 190.104L261.694 172.137C261.694 172.137 244.377 148.202 234.071 145.412L233.509 148.563Z" fill="#F7F6FD"/>
<g opacity="0.3">
<path opacity="0.3" d="M226.086 146.41C226.086 146.41 224.127 146.239 222.964 153.159C221.8 160.079 220.554 193.449 220.554 193.449L245.729 209.716L231.839 149.175L226.086 146.41Z" fill="#7165E3"/>
</g>
<g opacity="0.3">
<path opacity="0.3" d="M233.51 148.563L250.142 190.103L261.695 172.136C261.695 172.136 244.377 148.202 234.072 145.412L233.51 148.563Z" fill="#7165E3"/>
</g>
<path d="M226.087 146.409C226.208 146.432 226.33 146.469 226.452 146.52L227.549 147.016L231.856 149.028L231.922 149.048L231.928 149.136C234.502 160.099 239.731 182.734 245.914 209.663L246.024 210.152L245.668 209.925L238.648 205.386L220.511 193.686L220.337 193.633L220.323 193.401C220.916 178.893 221.539 166.501 222.296 157.884C222.449 154.432 223.079 151.235 224.156 148.44C224.462 147.702 224.889 147.095 225.416 146.651C225.558 146.548 225.716 146.475 225.885 146.435C225.998 146.415 226.064 146.424 226.064 146.435L225.896 146.482C225.741 146.541 225.598 146.629 225.47 146.743C224.97 147.206 224.566 147.819 224.276 148.552C223.263 151.382 222.681 154.587 222.557 158.028C221.875 166.668 221.31 179.078 220.742 193.593L220.576 193.249L238.73 204.965L245.75 209.505L245.513 209.769C239.346 182.845 234.206 160.205 231.754 149.236L231.833 149.347L227.545 147.232L226.445 146.67L226.087 146.409Z" fill="#7165E3"/>
<path d="M233.51 148.563C233.51 148.563 233.507 148.497 233.498 148.353L233.586 147.739L233.989 145.365L233.985 145.299L234.068 145.324C236.547 145.891 240.775 148.52 245.591 153.161C251.338 158.776 256.785 165.088 261.834 171.983L261.993 172.205L261.881 172.377L256.583 180.605L250.319 190.331L250.131 190.61L249.959 190.178L238.097 160.343L234.693 151.712L233.795 149.398C233.682 149.137 233.588 148.868 233.512 148.596C233.512 148.596 233.642 148.875 233.869 149.41L234.816 151.716C235.651 153.783 236.844 156.674 238.335 160.383C241.327 167.803 245.488 178.13 250.304 190.066L249.955 189.96L256.241 180.187L261.548 171.972L261.569 172.348C256.552 165.48 251.15 159.169 245.456 153.522C240.648 148.861 236.532 146.202 234.081 145.556L234.144 145.51L233.671 147.809C233.619 148.043 233.582 148.249 233.542 148.399C233.535 148.456 233.524 148.511 233.51 148.563V148.563Z" fill="#7165E3"/>
<path d="M223.03 141.043C223.034 141.12 221.931 141.079 220.154 141.093C218.376 141.108 215.944 141.216 213.322 141.583C210.701 141.949 208.41 142.546 206.776 143.059C205.916 143.392 205.03 143.656 204.121 143.85C204.309 143.672 204.524 143.54 204.759 143.457C205.187 143.229 205.823 142.955 206.621 142.644C208.722 141.87 210.906 141.322 213.159 141.001C215.404 140.669 217.712 140.56 220.065 140.675C220.973 140.723 221.702 140.781 222.22 140.862C222.482 140.863 222.756 140.924 223.03 141.043V141.043Z" fill="#7165E3"/>
<path d="M221.941 137.217C221.018 137.043 220.086 136.801 219.151 136.49C216.911 135.871 214.685 135.424 212.485 135.152C209.915 134.85 207.621 134.816 205.94 134.806C205.058 134.854 204.157 134.824 203.243 134.715C203.453 134.617 203.68 134.565 203.92 134.562C204.373 134.493 205.03 134.432 205.843 134.385C207.979 134.249 210.162 134.31 212.378 134.566C214.595 134.829 216.846 135.334 219.111 136.076C219.941 136.328 220.684 136.629 221.169 136.831C221.428 136.91 221.688 137.04 221.941 137.217V137.217Z" fill="#7165E3"/>
<path d="M255.973 135.492C255.979 135.591 254.659 135.18 252.539 134.776C249.79 134.243 247.092 134.094 244.488 134.331C241.892 134.599 239.412 135.274 237.091 136.343C235.32 137.184 234.3 137.884 234.245 137.78C234.448 137.55 234.675 137.357 234.922 137.204C235.557 136.724 236.225 136.307 236.922 135.955C239.212 134.742 241.703 133.998 244.332 133.741C246.972 133.495 249.722 133.706 252.524 134.37C253.591 134.628 254.462 134.882 255.064 135.14C255.366 135.214 255.671 135.332 255.973 135.492Z" fill="#7165E3"/>
<path d="M255.256 145.021C255.024 145.113 254.774 145.157 254.513 145.154C254.035 145.216 253.328 145.251 252.439 145.252C250.126 145.258 247.762 145.016 245.367 144.529C242.972 144.044 240.553 143.31 238.13 142.334C237.202 141.944 236.457 141.609 235.928 141.34C235.658 141.233 235.389 141.082 235.128 140.891C236.123 141.17 237.123 141.517 238.123 141.93C240.527 142.786 242.923 143.458 245.301 143.945C247.676 144.416 250.029 144.713 252.35 144.835C253.305 144.827 254.275 144.889 255.256 145.021V145.021Z" fill="#7165E3"/>
<path d="M235.535 142.425C235.113 140.341 234.46 138.264 233.602 136.27C232.891 134.524 232.595 132.914 230.888 131.582C230.13 131.079 229.347 130.797 228.6 130.759C227.853 130.721 227.164 130.928 226.585 131.363C225.43 129.699 223.681 129.917 222.588 130.769C222.058 131.238 221.659 131.911 221.423 132.735C221.187 133.559 221.119 134.51 221.227 135.512C221.467 137.513 222.053 139.552 222.936 141.458C224.1 144.318 225.792 146.878 227.791 148.804C228.696 149.624 229.675 150.17 230.637 150.39C231.6 150.609 232.514 150.496 233.295 150.061C234.295 149.509 235.046 148.481 235.447 147.116C235.848 145.75 235.878 144.113 235.535 142.425V142.425Z" fill="#F7F6FD"/>
<g opacity="0.3">
<path opacity="0.3" d="M235.533 142.425C235.11 140.341 234.458 138.264 233.6 136.27C232.889 134.524 232.593 132.914 230.886 131.582C230.128 131.079 229.344 130.797 228.598 130.759C227.851 130.721 227.161 130.928 226.583 131.363C225.428 129.699 223.679 129.917 222.585 130.769C222.056 131.238 221.657 131.911 221.421 132.735C221.184 133.559 221.117 134.51 221.224 135.512C221.465 137.513 222.051 139.552 222.934 141.458C224.098 144.318 225.79 146.878 227.789 148.804C228.694 149.624 229.673 150.17 230.635 150.39C231.597 150.609 232.512 150.496 233.293 150.061C234.293 149.509 235.044 148.481 235.445 147.116C235.845 145.75 235.876 144.113 235.533 142.425V142.425Z" fill="#7165E3"/>
</g>
<path d="M235.533 142.425C235.605 142.641 235.656 142.862 235.685 143.079C235.782 143.691 235.836 144.296 235.845 144.886C235.865 146.77 235.368 148.392 234.442 149.458C233.516 150.524 232.224 150.963 230.801 150.694C229.458 150.415 228.087 149.541 226.899 148.208C225.599 146.768 224.458 145.055 223.546 143.174C222.518 141.191 221.739 139.058 221.255 136.9C220.972 135.668 220.913 134.45 221.084 133.362C221.255 132.274 221.649 131.352 222.23 130.683C222.821 130.127 223.551 129.827 224.358 129.808C224.748 129.775 225.169 129.883 225.581 130.124C225.994 130.365 226.385 130.73 226.72 131.187L226.446 131.104C227.159 130.492 228.079 130.291 229.065 130.531C229.939 130.637 230.853 131.155 231.652 131.999C232.336 132.785 232.882 133.777 233.217 134.84C233.539 135.774 233.888 136.596 234.178 137.39C234.637 138.595 235.014 139.826 235.301 141.063C235.381 141.39 235.446 141.718 235.495 142.045C235.507 142.254 235.513 142.365 235.513 142.365C235.513 142.365 235.398 141.906 235.17 141.067C234.837 139.844 234.432 138.632 233.961 137.443C233.665 136.691 233.29 135.829 232.951 134.901C232.636 133.919 232.125 133.006 231.489 132.286C230.747 131.529 229.908 131.071 229.107 130.988C228.199 130.774 227.352 130.959 226.69 131.515L226.567 131.651L226.425 131.445C226.138 131.066 225.806 130.765 225.458 130.568C225.109 130.372 224.756 130.286 224.428 130.318C223.693 130.341 223.029 130.62 222.492 131.131C221.968 131.751 221.612 132.598 221.46 133.593C221.307 134.589 221.361 135.7 221.618 136.825C222.086 138.903 222.834 140.956 223.822 142.867C224.695 144.676 225.785 146.328 227.027 147.726C228.139 148.994 229.428 149.835 230.695 150.119C231.796 150.35 232.825 150.133 233.652 149.497C234.258 149.04 234.745 148.382 235.085 147.562C235.424 146.742 235.607 145.779 235.624 144.732C235.632 143.977 235.602 143.206 235.533 142.425V142.425Z" fill="#7165E3"/>
<path d="M226.445 147.408C226.383 147.325 226.813 146.706 227.29 145.494C227.919 143.932 228.258 142.106 228.286 140.127C228.313 138.148 228.029 136.057 227.45 133.981C227.008 132.382 226.594 131.421 226.658 131.386C227.122 132.178 227.487 133.045 227.733 133.937C228.413 136.074 228.755 138.254 228.732 140.308C228.709 142.365 228.316 144.238 227.584 145.778C227.313 146.456 226.926 147.01 226.445 147.408Z" fill="#7165E3"/>
<path d="M234.248 137.781C234.349 138.598 234.344 139.39 234.234 140.121C234.067 141.937 233.655 143.603 233.014 145.048C232.379 146.512 231.512 147.72 230.453 148.613C230.041 149.024 229.55 149.299 229.006 149.423C230.461 148.208 231.683 146.607 232.626 144.681C234.1 141.34 234.093 137.647 234.248 137.781Z" fill="#7165E3"/>
<path d="M215.01 132.943C214.606 132.752 214.206 132.517 213.812 132.243L210.562 130.172C207.003 127.816 203.398 125.775 199.774 124.066C196.148 122.364 192.515 121.401 189.008 121.213C187.952 121.171 186.914 121.218 185.901 121.356C185.533 121.433 185.154 121.474 184.766 121.478C185.097 121.3 185.454 121.183 185.831 121.128C186.827 120.899 187.86 120.784 188.919 120.784C192.436 120.849 196.104 121.764 199.765 123.488C203.411 125.207 207.034 127.312 210.596 129.781C211.962 130.705 213.059 131.483 213.816 132.027C214.223 132.29 214.622 132.597 215.01 132.943V132.943Z" fill="white"/>
<path d="M211.134 136.816C210.083 136.845 209.006 136.754 207.913 136.544C206.852 136.532 205.767 136.395 204.668 136.135C206.682 135.673 208.894 135.906 211.134 136.816Z" fill="white"/>
<path d="M209.94 143.444C209.998 143.602 209.477 143.9 208.779 144.112C208.082 144.324 207.472 144.356 207.414 144.197C207.356 144.038 207.877 143.74 208.575 143.529C209.272 143.317 209.885 143.329 209.94 143.444Z" fill="white"/>
<path d="M223.499 139.524C223.458 139.512 223.169 139.023 222.872 138.108C222.493 136.895 222.309 135.662 222.332 134.503C222.348 133.354 222.568 132.306 222.973 131.441C223.303 130.792 223.607 130.548 223.649 130.56C223.148 131.772 222.846 133.17 222.759 134.686C222.803 136.262 223.053 137.898 223.499 139.524V139.524Z" fill="white"/>
<path d="M229.343 142.882C229.27 142.033 229.253 141.199 229.291 140.391C229.184 139.535 229.136 138.692 229.147 137.872C229.473 138.75 229.658 139.661 229.686 140.531C229.715 141.4 229.586 142.202 229.31 142.872L229.343 142.882Z" fill="white"/>
<path d="M245.327 122.829C243.58 124.543 241.732 126.092 239.793 127.468C237.946 129.009 236.004 130.376 233.974 131.565C235.719 129.846 237.567 128.297 239.509 126.926C241.356 125.385 243.298 124.017 245.327 122.829Z" fill="white"/>
<path d="M241.79 136.334C240.727 137.148 239.482 137.594 238.129 137.645C238.615 137.152 239.201 136.832 239.853 136.702C240.431 136.384 241.091 136.259 241.79 136.334V136.334Z" fill="white"/>
<path d="M224.465 160.203C224.119 158.009 224.08 155.871 224.351 153.905C224.484 151.858 224.932 149.992 225.669 148.411C225.789 148.512 225.125 150.895 224.805 154.152C224.485 157.409 224.589 160.241 224.465 160.203Z" fill="white"/>
<path d="M241.619 163.311C240.132 160.052 238.886 156.677 237.905 153.251C238.707 154.846 239.393 156.511 239.95 158.213C240.632 159.877 241.192 161.587 241.619 163.311V163.311Z" fill="white"/>
<path d="M38.7353 121.298H191.183C194.183 121.298 197.581 122.722 200.63 125.255C203.68 127.788 206.131 131.224 207.444 134.806L245.619 238.921C246.933 242.503 247.001 245.939 245.81 248.472C244.618 251.006 242.263 252.429 239.264 252.429H86.8162C84.0478 252.429 80.9112 251.115 78.0962 248.777C75.2813 246.438 73.0187 243.267 71.8062 239.96L32.8653 133.757C31.6528 130.45 31.5896 127.278 32.6898 124.94C33.7899 122.602 35.9632 121.288 38.7315 121.288L38.7353 121.298Z" fill="#7165E3"/>
<path d="M37.0074 135.387L32.0298 127.923L33.274 123.776L45.0943 108.018L50.6934 104.701L53.1825 145.34L37.0074 135.387Z" fill="#7165E3"/>
<path d="M51.1811 104.711H203.629C206.628 104.711 210.026 106.134 213.076 108.667C216.125 111.201 218.576 114.636 219.89 118.219L258.065 222.333C259.379 225.916 259.447 229.352 258.255 231.885C257.064 234.418 254.709 235.841 251.71 235.841H99.262C96.4936 235.841 93.357 234.528 90.542 232.189C87.7271 229.851 85.4645 226.679 84.252 223.373L45.3111 117.169C44.0986 113.863 44.0354 110.691 45.1356 108.353C46.2357 106.014 48.409 104.701 51.1773 104.701L51.1811 104.711Z" fill="#F7F6FD"/>
<mask id="mask1_64_39" style="mask-type:alpha" maskUnits="userSpaceOnUse" x="44" y="104" width="216" height="132">
<path d="M51.1811 104.711H203.629C206.628 104.711 210.026 106.134 213.076 108.667C216.125 111.201 218.576 114.636 219.89 118.219L258.065 222.333C259.379 225.916 259.447 229.352 258.255 231.885C257.064 234.418 254.709 235.841 251.71 235.841H99.262C96.4936 235.841 93.357 234.528 90.542 232.189C87.7271 229.851 85.4645 226.679 84.252 223.373L45.3111 117.169C44.0986 113.863 44.0354 110.691 45.1356 108.353C46.2357 106.014 48.409 104.701 51.1773 104.701L51.1811 104.711Z" fill="#F7F6FD"/>
</mask>
<g mask="url(#mask1_64_39)">
<path d="M-163.006 -114.519L45.2095 456.961" stroke="#D7D4F7" stroke-width="0.306849"/>
<path d="M-159.097 -114.519L49.1189 456.961" stroke="#D7D4F7" stroke-width="0.306849"/>
<path d="M-155.189 -114.519L53.0264 456.961" stroke="#D7D4F7" stroke-width="0.306849"/>
<path d="M-151.284 -114.519L56.9316 456.961" stroke="#D7D4F7" stroke-width="0.306849"/>
<path d="M-147.381 -114.519L60.835 456.961" stroke="#D7D4F7" stroke-width="0.306849"/>
<path d="M-143.475 -114.519L64.7402 456.961" stroke="#D7D4F7" stroke-width="0.306849"/>
<path d="M-139.566 -114.519L68.6497 456.961" stroke="#D7D4F7" stroke-width="0.306849"/>
<path d="M-135.663 -114.519L72.553 456.961" stroke="#D7D4F7" stroke-width="0.306849"/>
<path d="M-131.757 -114.519L76.4583 456.961" stroke="#D7D4F7" stroke-width="0.306849"/>
<path d="M-127.852 -114.519L80.3638 456.961" stroke="#D7D4F7" stroke-width="0.306849"/>
<path d="M-123.942 -114.519L84.2732 456.961" stroke="#D7D4F7" stroke-width="0.306849"/>
<path d="M-120.037 -114.519L88.1785 456.961" stroke="#D7D4F7" stroke-width="0.306849"/>
<path d="M-116.132 -114.519L92.0837 456.961" stroke="#D7D4F7" stroke-width="0.306849"/>
<path d="M-112.224 -114.519L95.9912 456.961" stroke="#D7D4F7" stroke-width="0.306849"/>
<path d="M-108.319 -114.519L99.8965 456.961" stroke="#D7D4F7" stroke-width="0.306849"/>
<path d="M-104.414 -114.519L103.802 456.961" stroke="#D7D4F7" stroke-width="0.306849"/>
<path d="M-100.508 -114.519L107.707 456.961" stroke="#D7D4F7" stroke-width="0.306849"/>
<path d="M-96.603 -114.519L111.613 456.961" stroke="#D7D4F7" stroke-width="0.306849"/>
<path d="M-92.6956 -114.519L115.52 456.961" stroke="#D7D4F7" stroke-width="0.306849"/>
<path d="M-88.7903 -114.519L119.425 456.961" stroke="#D7D4F7" stroke-width="0.306849"/>
<path d="M-84.8828 -114.519L123.333 456.961" stroke="#D7D4F7" stroke-width="0.306849"/>
<path d="M-80.9775 -114.519L127.238 456.961" stroke="#D7D4F7" stroke-width="0.306849"/>
<path d="M-77.072 -114.519L131.144 456.961" stroke="#D7D4F7" stroke-width="0.306849"/>
<path d="M-73.1689 -114.519L135.047 456.961" stroke="#D7D4F7" stroke-width="0.306849"/>
<path d="M-69.2593 -114.519L138.956 456.961" stroke="#D7D4F7" stroke-width="0.306849"/>
<path d="M-65.3521 -114.519L142.864 456.961" stroke="#D7D4F7" stroke-width="0.306849"/>
<path d="M-61.4465 -114.519L146.769 456.961" stroke="#D7D4F7" stroke-width="0.306849"/>
<path d="M-57.5435 -114.519L150.672 456.961" stroke="#D7D4F7" stroke-width="0.306849"/>
<path d="M-53.636 -114.519L154.58 456.961" stroke="#D7D4F7" stroke-width="0.306849"/>
<path d="M-49.7285 -114.519L158.487 456.961" stroke="#D7D4F7" stroke-width="0.306849"/>
<path d="M-45.8252 -114.519L162.39 456.961" stroke="#D7D4F7" stroke-width="0.306849"/>
<path d="M-41.9136 -114.519L166.302 456.961" stroke="#D7D4F7" stroke-width="0.306849"/>
<path d="M-38.0105 -114.519L170.205 456.961" stroke="#D7D4F7" stroke-width="0.306849"/>
<path d="M-34.103 -114.519L174.113 456.961" stroke="#D7D4F7" stroke-width="0.306849"/>
<path d="M-30.1997 -114.519L178.016 456.961" stroke="#D7D4F7" stroke-width="0.306849"/>
<path d="M-26.2922 -114.519L181.923 456.961" stroke="#D7D4F7" stroke-width="0.306849"/>
<path d="M-22.385 -114.519L185.831 456.961" stroke="#D7D4F7" stroke-width="0.306849"/>
<path d="M-18.4836 -114.519L189.732 456.961" stroke="#D7D4F7" stroke-width="0.306849"/>
<path d="M-14.5764 -114.519L193.639 456.961" stroke="#D7D4F7" stroke-width="0.306849"/>
<path d="M-10.6667 -114.519L197.549 456.961" stroke="#D7D4F7" stroke-width="0.306849"/>
<path d="M-6.75928 -114.519L201.456 456.961" stroke="#D7D4F7" stroke-width="0.306849"/>
<path d="M-2.85815 -114.519L205.357 456.961" stroke="#D7D4F7" stroke-width="0.306849"/>
<path d="M1.04907 -114.519L209.265 456.961" stroke="#D7D4F7" stroke-width="0.306849"/>
<path d="M4.95459 -114.519L213.17 456.961" stroke="#D7D4F7" stroke-width="0.306849"/>
<path d="M8.86182 -114.519L217.077 456.961" stroke="#D7D4F7" stroke-width="0.306849"/>
<path d="M12.7651 -114.519L220.981 456.961" stroke="#D7D4F7" stroke-width="0.306849"/>
<path d="M16.6726 -114.519L224.888 456.961" stroke="#D7D4F7" stroke-width="0.306849"/>
<path d="M20.582 -114.519L228.798 456.961" stroke="#D7D4F7" stroke-width="0.306849"/>
<path d="M24.4875 -114.519L232.703 456.961" stroke="#D7D4F7" stroke-width="0.306849"/>
<path d="M28.3906 -114.519L236.606 456.961" stroke="#D7D4F7" stroke-width="0.306849"/>
<path d="M32.2961 -114.519L240.512 456.961" stroke="#D7D4F7" stroke-width="0.306849"/>
<path d="M36.2034 -114.519L244.419 456.961" stroke="#D7D4F7" stroke-width="0.306849"/>
<path d="M40.1108 -114.519L248.326 456.961" stroke="#D7D4F7" stroke-width="0.306849"/>
<path d="M44.012 -114.519L252.228 456.961" stroke="#D7D4F7" stroke-width="0.306849"/>
<path d="M47.9194 -114.519L256.135 456.961" stroke="#D7D4F7" stroke-width="0.306849"/>
<path d="M51.8269 -114.519L260.042 456.961" stroke="#D7D4F7" stroke-width="0.306849"/>
<path d="M55.7363 -114.519L263.952 456.961" stroke="#D7D4F7" stroke-width="0.306849"/>
<path d="M59.6375 -114.519L267.853 456.961" stroke="#D7D4F7" stroke-width="0.306849"/>
<path d="M63.5449 -114.519L271.76 456.961" stroke="#D7D4F7" stroke-width="0.306849"/>
<path d="M67.4502 -114.519L275.666 456.961" stroke="#D7D4F7" stroke-width="0.306849"/>
<path d="M71.3577 -114.519L279.573 456.961" stroke="#D7D4F7" stroke-width="0.306849"/>
<path d="M75.2651 -114.519L283.481 456.961" stroke="#D7D4F7" stroke-width="0.306849"/>
<path d="M79.1685 -114.519L287.384 456.961" stroke="#D7D4F7" stroke-width="0.306849"/>
<path d="M83.0757 -114.519L291.291 456.961" stroke="#D7D4F7" stroke-width="0.306849"/>
<path d="M86.9832 -114.519L295.199 456.961" stroke="#D7D4F7" stroke-width="0.306849"/>
<path d="M90.8906 -114.519L299.106 456.961" stroke="#D7D4F7" stroke-width="0.306849"/>
<path d="M94.7939 -114.519L303.01 456.961" stroke="#D7D4F7" stroke-width="0.306849"/>
<path d="M98.6973 -114.519L306.913 456.961" stroke="#D7D4F7" stroke-width="0.306849"/>
<path d="M102.607 -114.519L310.822 456.961" stroke="#D7D4F7" stroke-width="0.306849"/>
<path d="M106.514 -114.519L314.73 456.961" stroke="#D7D4F7" stroke-width="0.306849"/>
<path d="M110.421 -114.519L318.637 456.961" stroke="#D7D4F7" stroke-width="0.306849"/>
<path d="M114.323 -114.519L322.538 456.961" stroke="#D7D4F7" stroke-width="0.306849"/>
<path d="M118.232 -114.519L326.448 456.961" stroke="#D7D4F7" stroke-width="0.306849"/>
<path d="M122.135 -114.519L330.351 456.961" stroke="#D7D4F7" stroke-width="0.306849"/>
<path d="M126.043 -114.519L334.258 456.961" stroke="#D7D4F7" stroke-width="0.306849"/>
<path d="M129.946 -114.519L338.162 456.961" stroke="#D7D4F7" stroke-width="0.306849"/>
<path d="M133.855 -114.519L342.071 456.961" stroke="#D7D4F7" stroke-width="0.306849"/>
<path d="M137.759 -114.519L345.974 456.961" stroke="#D7D4F7" stroke-width="0.306849"/>
<path d="M141.668 -114.519L349.884 456.961" stroke="#D7D4F7" stroke-width="0.306849"/>
<path d="M145.576 -114.519L353.791 456.961" stroke="#D7D4F7" stroke-width="0.306849"/>
<path d="M149.479 -114.519L357.695 456.961" stroke="#D7D4F7" stroke-width="0.306849"/>
<path d="M153.384 -114.519L361.6 456.961" stroke="#D7D4F7" stroke-width="0.306849"/>
<path d="M157.292 -114.519L365.507 456.961" stroke="#D7D4F7" stroke-width="0.306849"/>
<path d="M161.193 -114.519L369.408 456.961" stroke="#D7D4F7" stroke-width="0.306849"/>
<path d="M165.103 -114.519L373.318 456.961" stroke="#D7D4F7" stroke-width="0.306849"/>
<path d="M169.008 -114.519L377.223 456.961" stroke="#D7D4F7" stroke-width="0.306849"/>
<path d="M172.917 -114.519L381.133 456.961" stroke="#D7D4F7" stroke-width="0.306849"/>
<path d="M176.818 -114.519L385.034 456.961" stroke="#D7D4F7" stroke-width="0.306849"/>
<path d="M180.726 -114.519L388.941 456.961" stroke="#D7D4F7" stroke-width="0.306849"/>
<path d="M184.633 -114.519L392.849 456.961" stroke="#D7D4F7" stroke-width="0.306849"/>
<path d="M188.539 -114.519L396.754 456.961" stroke="#D7D4F7" stroke-width="0.306849"/>
<path d="M192.442 -114.519L400.657 456.961" stroke="#D7D4F7" stroke-width="0.306849"/>
<path d="M196.349 -114.519L404.565 456.961" stroke="#D7D4F7" stroke-width="0.306849"/>
<path d="M200.255 -114.519L408.47 456.961" stroke="#D7D4F7" stroke-width="0.306849"/>
<path d="M204.164 -114.519L412.38 456.961" stroke="#D7D4F7" stroke-width="0.306849"/>
<path d="M208.069 -114.519L416.285 456.961" stroke="#D7D4F7" stroke-width="0.306849"/>
<path d="M211.975 -114.519L420.19 456.961" stroke="#D7D4F7" stroke-width="0.306849"/>
<path d="M215.88 -114.519L424.096 456.961" stroke="#D7D4F7" stroke-width="0.306849"/>
<path d="M219.788 -114.519L428.003 456.961" stroke="#D7D4F7" stroke-width="0.306849"/>
<path d="M223.693 -114.519L431.908 456.961" stroke="#D7D4F7" stroke-width="0.306849"/>
<path d="M227.596 -114.519L435.812 456.961" stroke="#D7D4F7" stroke-width="0.306849"/>
<path d="M231.508 -114.519L439.723 456.961" stroke="#D7D4F7" stroke-width="0.306849"/>
<path d="M235.413 -114.519L443.629 456.961" stroke="#D7D4F7" stroke-width="0.306849"/>
<path d="M239.316 -114.519L447.532 456.961" stroke="#D7D4F7" stroke-width="0.306849"/>
<path d="M243.224 -114.519L451.439 456.961" stroke="#D7D4F7" stroke-width="0.306849"/>
<path d="M247.129 -114.519L455.345 456.961" stroke="#D7D4F7" stroke-width="0.306849"/>
<path d="M251.037 -114.519L459.252 456.961" stroke="#D7D4F7" stroke-width="0.306849"/>
<path d="M254.94 -114.519L463.155 456.961" stroke="#D7D4F7" stroke-width="0.306849"/>
<path d="M258.847 -114.519L467.063 456.961" stroke="#D7D4F7" stroke-width="0.306849"/>
<path d="M-329.58 220.852L493.027 365.148" stroke="#D7D4F7" stroke-width="0.306849"/>
<path d="M-327.627 217.469L494.98 361.765" stroke="#D7D4F7" stroke-width="0.306849"/>
<path d="M-325.677 214.086L496.93 358.382" stroke="#D7D4F7" stroke-width="0.306849"/>
<path d="M-323.721 210.703L498.886 354.999" stroke="#D7D4F7" stroke-width="0.306849"/>
<path d="M-321.77 207.321L500.837 351.617" stroke="#D7D4F7" stroke-width="0.306849"/>
<path d="M-319.814 203.938L502.793 348.234" stroke="#D7D4F7" stroke-width="0.306849"/>
<path d="M-317.862 200.555L504.745 344.851" stroke="#D7D4F7" stroke-width="0.306849"/>
<path d="M-315.911 197.173L506.696 341.469" stroke="#D7D4F7" stroke-width="0.306849"/>
<path d="M-313.957 193.79L508.65 338.086" stroke="#D7D4F7" stroke-width="0.306849"/>
<path d="M-312.005 190.407L510.602 334.703" stroke="#D7D4F7" stroke-width="0.306849"/>
<path d="M-310.054 187.024L512.553 331.321" stroke="#D7D4F7" stroke-width="0.306849"/>
<path d="M-308.098 183.642L514.509 327.938" stroke="#D7D4F7" stroke-width="0.306849"/>
<path d="M-306.146 180.259L516.461 324.555" stroke="#D7D4F7" stroke-width="0.306849"/>
<path d="M-304.19 176.876L518.417 321.173" stroke="#D7D4F7" stroke-width="0.306849"/>
<path d="M-302.241 173.494L520.366 317.79" stroke="#D7D4F7" stroke-width="0.306849"/>
<path d="M-300.289 170.111L522.318 314.407" stroke="#D7D4F7" stroke-width="0.306849"/>
<path d="M-298.332 166.728L524.275 311.024" stroke="#D7D4F7" stroke-width="0.306849"/>
<path d="M-296.38 163.345L526.227 307.642" stroke="#D7D4F7" stroke-width="0.306849"/>
<path d="M-294.428 159.963L528.179 304.259" stroke="#D7D4F7" stroke-width="0.306849"/>
<path d="M-292.472 156.58L530.135 300.876" stroke="#D7D4F7" stroke-width="0.306849"/>
<path d="M-290.521 153.197L532.086 297.493" stroke="#D7D4F7" stroke-width="0.306849"/>
<path d="M-288.565 149.815L534.042 294.111" stroke="#D7D4F7" stroke-width="0.306849"/>
<path d="M-286.615 146.432L535.991 290.728" stroke="#D7D4F7" stroke-width="0.306849"/>
<path d="M-284.664 143.049L537.943 287.345" stroke="#D7D4F7" stroke-width="0.306849"/>
<path d="M-282.708 139.666L539.899 283.962" stroke="#D7D4F7" stroke-width="0.306849"/>
<path d="M-280.756 136.284L541.851 280.58" stroke="#D7D4F7" stroke-width="0.306849"/>
<path d="M-278.805 132.901L543.802 277.197" stroke="#D7D4F7" stroke-width="0.306849"/>
<path d="M-276.849 129.518L545.758 273.814" stroke="#D7D4F7" stroke-width="0.306849"/>
<path d="M-274.899 126.135L547.708 270.432" stroke="#D7D4F7" stroke-width="0.306849"/>
<path d="M-272.944 122.753L549.663 267.049" stroke="#D7D4F7" stroke-width="0.306849"/>
<path d="M-270.992 119.37L551.615 263.666" stroke="#D7D4F7" stroke-width="0.306849"/>
<path d="M-269.041 115.987L553.566 260.283" stroke="#D7D4F7" stroke-width="0.306849"/>
<path d="M-267.083 112.605L555.524 256.901" stroke="#D7D4F7" stroke-width="0.306849"/>
<path d="M-265.131 109.222L557.476 253.518" stroke="#D7D4F7" stroke-width="0.306849"/>
<path d="M-263.175 105.839L559.432 250.135" stroke="#D7D4F7" stroke-width="0.306849"/>
<path d="M-261.226 102.457L561.381 246.753" stroke="#D7D4F7" stroke-width="0.306849"/>
<path d="M-259.274 99.074L563.333 243.37" stroke="#D7D4F7" stroke-width="0.306849"/>
<path d="M-257.32 95.6912L565.287 239.987" stroke="#D7D4F7" stroke-width="0.306849"/>
<path d="M-255.369 92.3083L567.238 236.604" stroke="#D7D4F7" stroke-width="0.306849"/>
<path d="M-253.415 88.9258L569.192 233.222" stroke="#D7D4F7" stroke-width="0.306849"/>
<path d="M-251.459 85.543L571.148 229.839" stroke="#D7D4F7" stroke-width="0.306849"/>
<path d="M-249.508 82.1602L573.099 226.456" stroke="#D7D4F7" stroke-width="0.306849"/>
<path d="M-247.554 78.7776L575.053 223.074" stroke="#D7D4F7" stroke-width="0.306849"/>
<path d="M-245.602 75.3948L577.005 219.691" stroke="#D7D4F7" stroke-width="0.306849"/>
<path d="M-243.651 72.012L578.956 216.308" stroke="#D7D4F7" stroke-width="0.306849"/>
<path d="M-241.697 68.6294L580.91 212.925" stroke="#D7D4F7" stroke-width="0.306849"/>
<path d="M-239.745 65.2466L582.862 209.543" stroke="#D7D4F7" stroke-width="0.306849"/>
<path d="M-237.787 61.864L584.82 206.16" stroke="#D7D4F7" stroke-width="0.306849"/>
<path d="M-235.834 58.4812L586.773 202.777" stroke="#D7D4F7" stroke-width="0.306849"/>
<path d="M-233.884 55.0984L588.723 199.394" stroke="#D7D4F7" stroke-width="0.306849"/>
<path d="M-231.93 51.7156L590.677 196.012" stroke="#D7D4F7" stroke-width="0.306849"/>
<path d="M-229.977 48.3328L592.63 192.629" stroke="#D7D4F7" stroke-width="0.306849"/>
<path d="M-228.023 44.9502L594.584 189.246" stroke="#D7D4F7" stroke-width="0.306849"/>
<path d="M-226.069 41.5676L596.538 185.864" stroke="#D7D4F7" stroke-width="0.306849"/>
<path d="M-224.122 38.1846L598.485 182.481" stroke="#D7D4F7" stroke-width="0.306849"/>
<path d="M-222.166 34.802L600.441 179.098" stroke="#D7D4F7" stroke-width="0.306849"/>
<path d="M-220.212 31.4194L602.395 175.716" stroke="#D7D4F7" stroke-width="0.306849"/>
<path d="M-218.261 28.0366L604.346 172.333" stroke="#D7D4F7" stroke-width="0.306849"/>
<path d="M-216.307 24.6541L606.3 168.95" stroke="#D7D4F7" stroke-width="0.306849"/>
<path d="M-214.353 21.2715L608.254 165.568" stroke="#D7D4F7" stroke-width="0.306849"/>
<path d="M-212.399 17.8887L610.208 162.185" stroke="#D7D4F7" stroke-width="0.306849"/>
<path d="M-210.45 14.5059L612.157 158.802" stroke="#D7D4F7" stroke-width="0.306849"/>
<path d="M-208.49 11.1233L614.117 155.419" stroke="#D7D4F7" stroke-width="0.306849"/>
<path d="M-206.541 7.74048L616.066 152.037" stroke="#D7D4F7" stroke-width="0.306849"/>
<path d="M-204.587 4.35791L618.02 148.654" stroke="#D7D4F7" stroke-width="0.306849"/>
<path d="M-202.633 0.974854L619.974 145.271" stroke="#D7D4F7" stroke-width="0.306849"/>
<path d="M-200.681 -2.40771L621.926 141.888" stroke="#D7D4F7" stroke-width="0.306849"/>
<path d="M-198.73 -5.79053L623.877 138.506" stroke="#D7D4F7" stroke-width="0.306849"/>
<path d="M-196.776 -9.1731L625.831 135.123" stroke="#D7D4F7" stroke-width="0.306849"/>
<path d="M-194.823 -12.5559L627.784 131.74" stroke="#D7D4F7" stroke-width="0.306849"/>
<path d="M-192.873 -15.9385L629.734 128.358" stroke="#D7D4F7" stroke-width="0.306849"/>
<path d="M-190.917 -19.3213L631.69 124.975" stroke="#D7D4F7" stroke-width="0.306849"/>
<path d="M-188.963 -22.7041L633.644 121.592" stroke="#D7D4F7" stroke-width="0.306849"/>
<path d="M-187.016 -26.0869L635.591 118.209" stroke="#D7D4F7" stroke-width="0.306849"/>
<path d="M-185.06 -29.4697L637.547 114.826" stroke="#D7D4F7" stroke-width="0.306849"/>
<path d="M-183.106 -32.8523L639.501 111.444" stroke="#D7D4F7" stroke-width="0.306849"/>
<path d="M-181.153 -36.2349L641.454 108.061" stroke="#D7D4F7" stroke-width="0.306849"/>
<path d="M-179.197 -39.6177L643.41 104.678" stroke="#D7D4F7" stroke-width="0.306849"/>
</g>
<g opacity="0.4">
<path opacity="0.2" d="M66.4385 174.742L222.587 125.564L228.298 141.14L74.5835 196.955L66.4385 174.742Z" fill="#7165E3"/>
</g>
<g opacity="0.4">
<path opacity="0.2" d="M140.553 105.446L174.682 156.681L218.596 236.519H234.028L175.381 144.372L154.862 105.446H140.553Z" fill="#7165E3"/>
</g>
<path d="M166.385 145.452C163.657 146.315 160.209 145.639 156.815 144.497C153.421 143.354 149.994 141.765 146.612 140.726C138.286 138.213 130.715 139.179 125.443 143.427C125.166 143.591 124.986 143.878 124.928 144.247C124.955 144.713 125.143 145.226 125.458 145.691L144.62 177.8C145.2 178.932 146.036 179.974 147.014 180.781C148.471 181.82 149.86 181.446 151.061 181.031C154.915 179.828 158.454 178.087 161.62 175.837C164.784 173.551 166.948 170.066 167.901 165.719C168.275 163.641 168.32 161.398 168.769 159.382C169.108 157.276 170.248 155.723 171.979 155.009L166.385 145.452Z" fill="#F7F6FD"/>
<path d="M224.245 156.172C217.297 142.523 210.315 128.801 201.746 115.723C194.106 115.536 188.552 119.95 184.564 125.466C180.577 130.982 177.753 137.641 173.667 143.053L177.345 152.848C179.258 151.936 181.685 151.918 184.265 152.796C186.81 153.661 189.374 154.756 191.926 156.069C197.79 159.005 203.674 161.054 209.375 162.145C215.022 163.07 220.406 162.426 224.033 159.403C224.551 159.111 224.848 158.542 224.864 157.814C224.773 157.273 224.56 156.709 224.245 156.172V156.172Z" fill="#F7F6FD"/>
<g opacity="0.3">
<path opacity="0.4" d="M166.39 145.452C163.662 146.315 160.214 145.639 156.82 144.497C153.426 143.354 149.999 141.765 146.617 140.726C138.291 138.213 130.719 139.179 125.447 143.427C125.171 143.591 124.991 143.878 124.933 144.247C124.96 144.713 125.148 145.226 125.462 145.691L144.625 177.8C145.204 178.932 146.041 179.974 147.019 180.781C148.475 181.82 149.865 181.446 151.065 181.031C154.919 179.828 158.458 178.087 161.624 175.837C164.789 173.551 166.952 170.066 167.906 165.719C168.28 163.641 168.325 161.398 168.774 159.382C169.113 157.276 170.253 155.723 171.984 155.009L166.39 145.452Z" fill="#7165E3"/>
</g>
<path d="M166.386 145.452L166.759 146.044C167.023 146.481 167.383 147.083 167.856 147.852L172.101 154.936L172.147 155.061H172.043C170.816 155.529 169.905 156.47 169.42 157.772C168.866 159.358 168.532 161.102 168.428 162.966C168.282 165.124 167.851 167.129 167.145 168.929C166.343 170.928 165.233 172.674 163.846 174.122C160.999 177.239 156.833 179.244 152.225 180.916C151.07 181.29 150.004 181.955 148.36 181.633C147.955 181.548 147.536 181.372 147.128 181.114C146.72 180.857 146.332 180.524 145.99 180.137C145.358 179.375 144.798 178.556 144.327 177.706C142.373 174.434 140.37 171.079 138.336 167.682C135.346 162.675 132.434 157.783 129.608 153.056C128.205 150.698 126.814 148.371 125.464 146.107C125.04 145.507 124.756 144.846 124.649 144.216C124.724 143.666 125.002 143.25 125.433 143.042C126.106 142.513 126.787 142.004 127.517 141.63C130.288 140.065 133.532 139.228 137.096 139.157C140.221 139.06 143.561 139.568 146.989 140.664C150.102 141.702 152.902 142.928 155.339 143.78C157.438 144.602 159.52 145.188 161.547 145.525C162.827 145.732 164.059 145.764 165.216 145.618C165.998 145.504 166.412 145.38 166.402 145.4C166.316 145.449 166.222 145.488 166.123 145.515C165.849 145.603 165.565 145.672 165.271 145.722C164.124 145.915 162.89 145.915 161.602 145.722C159.566 145.42 157.469 144.859 155.352 144.05C152.889 143.177 150.088 141.972 146.993 140.934C139.763 138.69 133.049 139.055 127.903 141.972C127.188 142.388 126.488 142.845 125.811 143.364C125.473 143.624 125.131 143.873 125.135 144.289C125.24 144.81 125.486 145.35 125.842 145.837C127.201 148.108 128.589 150.428 130.007 152.796C132.82 157.512 135.742 162.405 138.74 167.412C140.77 170.819 142.764 174.161 144.722 177.436C145.16 178.24 145.686 179.014 146.284 179.732C146.57 180.058 146.895 180.338 147.237 180.554C147.58 180.771 147.932 180.919 148.271 180.989C149.666 181.269 150.759 180.677 151.945 180.293C156.543 178.641 160.666 176.616 163.508 173.603C164.884 172.195 165.994 170.498 166.808 168.555C167.512 166.781 167.956 164.813 168.129 162.696C168.249 160.824 168.605 159.08 169.191 157.502C169.705 156.165 170.662 155.208 171.946 154.749L171.92 154.916C170.154 151.872 168.774 149.504 167.829 147.873L166.76 146.024C166.508 145.691 166.386 145.452 166.386 145.452Z" fill="#7165E3"/>
<g opacity="0.3">
<path opacity="0.4" d="M224.243 156.172C217.295 142.523 210.313 128.801 201.744 115.723C194.104 115.536 188.55 119.95 184.562 125.466C180.575 130.982 177.751 137.641 173.665 143.053L177.343 152.848C179.256 151.936 181.683 151.918 184.263 152.796C186.808 153.661 189.372 154.756 191.924 156.069C197.788 159.005 203.672 161.054 209.373 162.145C215.02 163.07 220.404 162.426 224.031 159.403C224.549 159.111 224.846 158.542 224.862 157.814C224.771 157.273 224.558 156.709 224.243 156.172V156.172Z" fill="#7165E3"/>
</g>
<path d="M224.244 156.172C224.472 156.539 224.657 156.921 224.789 157.305C224.953 157.79 224.955 158.25 224.793 158.593C224.564 159.032 224.241 159.384 223.839 159.632C221.433 161.513 218.402 162.542 214.969 162.644C210.632 162.904 204.839 161.699 198.274 159.05C196.621 158.357 194.933 157.627 193.212 156.858C191.474 156.069 189.698 155.175 187.895 154.375C186.061 153.528 184.229 152.921 182.445 152.568C180.597 152.189 178.897 152.358 177.516 153.056L177.27 153.191L177.133 152.817C175.991 149.701 174.719 146.398 173.446 143.022L173.397 142.887L173.462 142.803C175.387 140.248 177.111 137.288 178.828 134.234C181.637 129.216 184.415 124.303 188.177 120.844C191.939 117.385 196.554 115.307 201.647 115.452H201.785L201.882 115.598C207.984 125.155 213.562 134.933 218.566 144.85C220.409 148.434 221.823 151.249 222.784 153.16C223.252 154.105 223.614 154.832 223.869 155.362C223.953 155.591 224.073 155.778 224.144 155.923C224.176 155.989 224.2 156.055 224.216 156.121C224.216 156.121 224.194 156.058 224.104 155.934L223.803 155.373C223.532 154.853 223.153 154.126 222.665 153.191C221.654 151.238 220.196 148.444 218.343 144.881C213.285 135.003 207.684 125.262 201.585 115.733L201.815 115.889C196.808 115.764 192.226 117.79 188.563 121.259C184.9 124.729 182.07 129.569 179.286 134.608C177.561 137.662 175.831 140.632 173.884 143.198L173.899 142.98C175.137 146.356 176.4 149.659 177.569 152.776L177.187 152.537C178.632 151.819 180.404 151.647 182.329 152.038C184.153 152.401 186.027 153.026 187.902 153.898C189.726 154.708 191.497 155.612 193.226 156.401C194.955 157.19 196.626 157.938 198.266 158.603C203.983 161.076 209.628 162.328 214.844 162.28C218.259 162.211 221.29 161.243 223.727 159.445C224.121 159.193 224.438 158.842 224.664 158.406C224.823 158.091 224.833 157.665 224.694 157.211C224.558 156.864 224.408 156.517 224.244 156.172Z" fill="#7165E3"/>
<path d="M173.91 156.972C173.91 156.972 171.986 157.378 172.881 164.337C173.776 171.297 182.27 203.593 182.27 203.593L211.083 211.851L180.218 157.949L173.91 156.972Z" fill="#F7F6FD"/>
<path d="M181.639 156.879L209.614 191.803L215.454 171.256C215.454 171.256 191.934 153.378 181.263 153.7L181.639 156.879Z" fill="#F7F6FD"/>
<g opacity="0.3">
<path opacity="0.4" d="M173.909 156.972C173.909 156.972 171.985 157.378 172.88 164.337C173.776 171.297 182.27 203.593 182.27 203.593L211.083 211.851L180.217 157.949L173.909 156.972Z" fill="#7165E3"/>
</g>
<g opacity="0.3">
<path opacity="0.4" d="M181.638 156.879L209.612 191.803L215.452 171.256C215.452 171.256 191.933 153.378 181.261 153.7L181.638 156.879Z" fill="#7165E3"/>
</g>
<path d="M173.911 156.973C174.032 156.959 174.16 156.959 174.292 156.973L175.486 157.128L180.191 157.804H180.26L180.291 157.887C185.936 167.63 197.511 187.772 211.245 211.747L211.492 212.183L211.086 212.069L203.05 209.763L182.298 203.832H182.116L182.036 203.614C178.391 189.559 175.391 177.52 173.613 169.053C172.758 165.706 172.432 162.463 172.652 159.476C172.73 158.681 172.963 157.976 173.338 157.398C173.445 157.259 173.574 157.143 173.724 157.056C173.827 157.004 173.892 156.993 173.896 157.004L173.748 157.097C173.618 157.199 173.506 157.325 173.417 157.471C173.073 158.059 172.864 158.763 172.8 159.549C172.651 162.551 173.025 165.786 173.905 169.116C175.76 177.582 178.822 189.621 182.492 203.676L182.233 203.395L203.007 209.337L211.042 211.643L210.892 211.965C197.175 187.99 185.684 167.817 180.153 158.032L180.262 158.115L175.544 157.336L174.328 157.118L173.911 156.973Z" fill="#7165E3"/>
<path d="M181.639 156.879C181.639 156.879 181.616 156.817 181.566 156.682L181.472 156.069L181.168 153.68L181.145 153.617H181.232C183.769 153.441 188.578 154.729 194.533 157.772C201.663 161.477 208.708 165.936 215.541 171.069L215.758 171.235L215.7 171.432L213.019 180.844L209.847 191.969L209.749 192.291L209.459 191.927L189.447 166.82L183.684 159.549L182.153 157.596C181.97 157.378 181.801 157.149 181.65 156.91C181.65 156.91 181.855 157.139 182.227 157.585L183.803 159.517C185.202 161.252 187.182 163.673 189.687 166.789C194.704 173.022 201.683 181.695 209.756 191.72H209.392L212.57 180.542L215.264 171.141L215.393 171.495C208.598 166.379 201.597 161.908 194.51 158.157C188.555 155.092 183.845 153.742 181.312 153.835L181.358 153.773L181.574 156.11C181.592 156.349 181.616 156.557 181.621 156.713C181.631 156.769 181.637 156.825 181.639 156.879V156.879Z" fill="#7165E3"/>
<path d="M169.425 152.724C169.452 152.796 168.384 153.077 166.687 153.607C164.991 154.136 162.695 154.947 160.292 156.058C157.89 157.17 155.871 158.406 154.456 159.372C153.73 159.94 152.959 160.45 152.145 160.899C152.274 160.674 152.441 160.485 152.642 160.338C152.985 159.995 153.515 159.549 154.188 159.019C155.974 157.669 157.905 156.51 159.967 155.549C162.02 154.58 164.196 153.806 166.481 153.233C167.364 153.015 168.078 152.859 168.598 152.786C168.849 152.71 169.128 152.689 169.425 152.724V152.724Z" fill="#7165E3"/>
<path d="M167.274 149.379C166.34 149.481 165.378 149.519 164.393 149.493C162.07 149.551 159.81 149.769 157.625 150.148C155.078 150.605 152.873 151.238 151.262 151.716C150.432 152.019 149.561 152.251 148.655 152.412C148.827 152.258 149.03 152.142 149.258 152.069C149.671 151.872 150.282 151.623 151.047 151.342C153.052 150.592 155.158 150.016 157.353 149.618C159.551 149.226 161.852 149.056 164.235 149.109C165.102 149.109 165.901 149.182 166.423 149.233C166.694 149.234 166.981 149.283 167.274 149.379V149.379Z" fill="#7165E3"/>
<path d="M199.347 137.849C199.381 137.942 197.999 137.932 195.853 138.16C193.067 138.448 190.443 139.088 188.02 140.071C185.613 141.082 183.436 142.447 181.525 144.144C180.075 145.463 179.301 146.429 179.219 146.346C179.346 146.066 179.507 145.816 179.699 145.598C180.167 144.954 180.686 144.361 181.251 143.821C183.09 141.996 185.257 140.561 187.699 139.552C190.154 138.551 192.847 137.954 195.721 137.776C196.817 137.713 197.724 137.703 198.375 137.776C198.685 137.759 199.011 137.783 199.347 137.849Z" fill="#7165E3"/>
<path d="M201.419 147.177C201.224 147.332 200.998 147.447 200.747 147.52C200.308 147.717 199.641 147.956 198.791 148.216C196.579 148.893 194.247 149.347 191.814 149.576C189.381 149.807 186.853 149.807 184.251 149.576C183.25 149.472 182.44 149.369 181.855 149.265C181.566 149.241 181.265 149.174 180.959 149.067C181.993 149.045 183.05 149.087 184.127 149.192C186.676 149.313 189.164 149.261 191.581 149.036C193.99 148.798 196.328 148.399 198.584 147.842C199.496 147.557 200.442 147.335 201.419 147.177V147.177Z" fill="#7165E3"/>
<path d="M181.793 150.418C180.784 148.546 179.557 146.748 178.156 145.089C176.969 143.624 176.219 142.17 174.198 141.391C173.327 141.129 172.495 141.087 171.77 141.267C171.044 141.447 170.444 141.845 170.017 142.43C168.429 141.173 166.818 141.889 166.019 143.022C165.649 143.624 165.463 144.385 165.476 145.242C165.489 146.098 165.7 147.028 166.094 147.956C166.905 149.801 168.057 151.582 169.455 153.15C171.4 155.549 173.762 157.507 176.234 158.77C177.338 159.292 178.434 159.53 179.418 159.461C180.403 159.392 181.245 159.018 181.866 158.375C182.663 157.557 183.083 156.355 183.07 154.932C183.057 153.509 182.611 151.933 181.793 150.418V150.418Z" fill="#F7F6FD"/>
<g opacity="0.4">
<path opacity="0.3" d="M181.796 150.418C180.787 148.546 179.559 146.748 178.159 145.089C176.972 143.624 176.222 142.17 174.201 141.391C173.33 141.129 172.498 141.087 171.773 141.267C171.047 141.447 170.447 141.845 170.02 142.43C168.432 141.173 166.821 141.889 166.022 143.022C165.652 143.624 165.466 144.385 165.479 145.242C165.492 146.098 165.703 147.028 166.097 147.956C166.908 149.801 168.06 151.582 169.458 153.15C171.403 155.549 173.765 157.507 176.237 158.77C177.341 159.292 178.436 159.53 179.421 159.461C180.406 159.392 181.247 159.018 181.869 158.375C182.666 157.557 183.086 156.355 183.073 154.932C183.06 153.509 182.614 151.933 181.796 150.418V150.418Z" fill="#7165E3"/>
</g>
<path d="M181.793 150.418C181.924 150.604 182.036 150.8 182.127 150.999C182.398 151.557 182.625 152.12 182.805 152.682C183.372 154.479 183.366 156.176 182.79 157.465C182.213 158.754 181.104 159.548 179.664 159.704C178.298 159.827 176.732 159.389 175.209 158.458C173.547 157.457 171.958 156.149 170.539 154.614C168.979 153.015 167.615 151.2 166.525 149.275C165.897 148.178 165.487 147.03 165.335 145.939C165.182 144.849 165.292 143.852 165.654 143.042C166.057 142.339 166.669 141.84 167.436 141.588C167.8 141.443 168.234 141.424 168.698 141.535C169.163 141.646 169.644 141.882 170.097 142.222H169.811C170.315 141.429 171.137 140.969 172.15 140.913C173.018 140.761 174.042 140.992 175.052 141.567C175.935 142.121 176.745 142.912 177.374 143.832C177.954 144.632 178.526 145.317 179.034 145.992C179.823 147.012 180.541 148.081 181.174 149.182C181.346 149.472 181.504 149.767 181.646 150.064C181.718 150.262 181.756 150.366 181.756 150.366C181.756 150.366 181.512 149.961 181.051 149.223C180.377 148.15 179.638 147.107 178.842 146.107C178.34 145.473 177.731 144.756 177.138 143.967C176.551 143.118 175.797 142.393 174.979 141.889C174.05 141.38 173.114 141.186 172.323 141.339C171.392 141.397 170.635 141.82 170.163 142.544L170.085 142.71L169.889 142.554C169.505 142.275 169.1 142.083 168.709 141.996C168.319 141.909 167.955 141.929 167.651 142.056C166.954 142.291 166.399 142.751 166.035 143.396C165.713 144.141 165.618 145.055 165.761 146.051C165.904 147.048 166.279 148.096 166.851 149.098C167.902 150.951 169.214 152.698 170.714 154.24C172.075 155.717 173.597 156.982 175.191 157.959C176.623 158.85 178.101 159.281 179.396 159.185C180.517 159.086 181.438 158.58 182.045 157.731C182.492 157.118 182.768 156.346 182.854 155.463C182.941 154.58 182.837 153.605 182.549 152.599C182.338 151.874 182.085 151.145 181.793 150.418V150.418Z" fill="#7165E3"/>
<path d="M174.544 157.824C174.46 157.762 174.692 157.045 174.797 155.747C174.945 154.07 174.739 152.224 174.191 150.322C173.643 148.42 172.764 146.502 171.607 144.684C170.72 143.281 170.045 142.482 170.096 142.43C170.77 143.053 171.371 143.777 171.865 144.559C173.137 146.407 174.097 148.394 174.671 150.366C175.246 152.341 175.414 154.248 175.16 155.934C175.098 156.661 174.888 157.303 174.544 157.824Z" fill="#7165E3"/>
<path d="M179.215 146.346C179.549 147.099 179.774 147.858 179.881 148.589C180.249 150.376 180.337 152.09 180.144 153.659C179.961 155.244 179.481 156.651 178.727 157.814C178.453 158.326 178.063 158.731 177.578 159.008C178.617 157.423 179.322 155.536 179.666 153.42C180.106 149.794 179.028 146.263 179.215 146.346Z" fill="#7165E3"/>
<path d="M159.399 147.301C158.958 147.235 158.506 147.128 158.05 146.979L154.339 145.941C150.249 144.719 146.207 143.813 142.243 143.229C138.279 142.653 134.523 142.786 131.113 143.624C130.089 143.89 129.11 144.237 128.18 144.663C127.851 144.844 127.5 144.993 127.13 145.11C127.395 144.843 127.703 144.627 128.047 144.466C128.935 143.957 129.889 143.547 130.902 143.24C134.287 142.281 138.062 142.092 142.067 142.679C146.054 143.265 150.132 144.228 154.258 145.556C155.834 146.044 157.109 146.47 157.991 146.772C158.457 146.905 158.928 147.082 159.399 147.301V147.301Z" fill="white"/>
<path d="M156.815 152.132C155.817 152.465 154.76 152.691 153.654 152.807C152.635 153.103 151.557 153.287 150.43 153.357C152.223 152.33 154.407 151.911 156.815 152.132Z" fill="white"/>
<path d="M157.595 158.822C157.697 158.957 157.285 159.393 156.679 159.798C156.073 160.203 155.498 160.411 155.397 160.276C155.295 160.141 155.708 159.704 156.314 159.299C156.92 158.894 157.509 158.728 157.595 158.822Z" fill="white"/>
<path d="M169.437 151.135C169.394 151.135 168.975 150.75 168.426 149.961C167.712 148.911 167.177 147.784 166.863 146.668C166.544 145.563 166.45 144.497 166.587 143.551C166.715 142.835 166.935 142.513 166.978 142.513C166.851 143.818 166.968 145.243 167.324 146.72C167.824 148.214 168.539 149.708 169.437 151.135V151.135Z" fill="white"/>
<path d="M176.001 152.651C175.685 151.86 175.426 151.067 175.228 150.283C174.877 149.495 174.586 148.702 174.36 147.914C174.926 148.66 175.368 149.478 175.647 150.302C175.927 151.125 176.036 151.931 175.966 152.651H176.001Z" fill="white"/>
<path d="M185.478 128.822C184.303 130.97 182.985 132.988 181.528 134.867C180.208 136.878 178.747 138.751 177.15 140.477C178.321 138.325 179.639 136.307 181.1 134.431C182.419 132.421 183.881 130.548 185.478 128.822Z" fill="white"/>
<path d="M186.017 142.772C185.236 143.86 184.174 144.648 182.894 145.089C183.216 144.476 183.684 144 184.27 143.687C184.731 143.214 185.326 142.903 186.017 142.772V142.772Z" fill="white"/>
<path d="M176.364 170.643C175.395 168.643 174.737 166.608 174.426 164.649C173.959 162.651 173.846 160.735 174.093 159.009C174.237 159.071 174.293 161.543 174.933 164.753C175.572 167.963 176.494 170.643 176.364 170.643Z" fill="white"/>
<path d="M193.677 168.638C191.308 165.951 189.136 163.083 187.203 160.089C188.433 161.383 189.573 162.777 190.6 164.244C191.736 165.638 192.768 167.112 193.677 168.638V168.638Z" fill="white"/>
</g>
<defs>
<filter id="filter0_f_64_39" x="35.2867" y="77.4069" width="256.219" height="187.178" filterUnits="userSpaceOnUse" color-interpolation-filters="sRGB">
<feFlood flood-opacity="0" result="BackgroundImageFix"/>
<feBlend mode="normal" in="SourceGraphic" in2="BackgroundImageFix" result="shape"/>
<feGaussianBlur stdDeviation="15.3425" result="effect1_foregroundBlur_64_39"/>
</filter>
<clipPath id="clip0_64_39">
<rect width="561.534" height="224" rx="46.0274" fill="white"/>
</clipPath>
</defs>
</svg>
