<svg width="256" height="321" viewBox="0 0 256 321" fill="none" xmlns="http://www.w3.org/2000/svg">
<path d="M180.717 2.84254C153.935 -2.74066 125.838 3.27133 100.934 13.7227C76.9709 23.63 52.235 37.9099 36.1152 58.6802C18.3695 81.8025 11.0945 114.899 5.58489 142.893C-3.95062 191.114 -4.43875 247.933 35.4668 283.317C76.9814 320.127 129.641 298.993 164.611 264.357C200.623 228.805 224.412 176.438 203.221 126.953C193.879 105.334 175.131 85.3758 150.874 82.2612C127.174 79.296 102.369 89.3758 83.9765 103.763C62.3227 120.661 43.9796 146.012 41.4562 174.01C39.2847 197.721 51.1976 224.609 74.419 233.818C96.1541 242.629 123.03 231.511 131.568 209.306C139.138 189.232 130.742 164.083 110.344 156.228C109.786 156.078 109.587 156.822 109.909 157.107C123.87 170.406 129.827 193.507 114.557 208.133C101.421 220.742 80.4186 221.089 67.9077 207.581C37.0699 174.029 77.7707 123.207 109.063 107.498C126.804 98.512 149.579 98.2423 165.311 111.618C179.113 123.281 186.229 141.316 187.236 159.109C189.407 199.316 162.363 237.072 131.137 259.967C116.727 270.642 99.1843 278.884 80.8728 277.363C62.5614 275.842 46.0953 264.46 36.4611 249.135C14.4225 213.958 22.7801 166.417 32.8359 128.889C38.5109 107.709 46.1834 84.2772 62.9531 69.2565C77.4035 56.203 96.9167 47.2938 115.348 41.6789C134.065 35.7423 155.804 30.4164 175.313 35.6439C193.522 40.5228 205.299 56.0242 212.813 72.5736C229.609 108.735 223.326 152.252 215.042 189.857C210.246 211.471 204.199 232.551 194.994 252.785C185.938 272.461 175.519 292.767 160.879 308.757C155.792 314.363 162.212 323.849 169.279 319.769C191.152 306.514 208.668 288.706 220.392 265.763C231.78 243.326 239.144 218.816 244.637 194.601C255.261 148.264 263.353 94.2799 239.875 50.3546C227.425 27.7036 206.706 8.41236 180.717 2.84254Z" fill="#F5CF48"/>
</svg>
