<svg width="238" height="301" viewBox="0 0 238 301" fill="none" xmlns="http://www.w3.org/2000/svg">
<path d="M231.494 193.788C239.227 160.798 238.662 127.806 234.415 99.2605C230.437 71.7747 223.368 43.9542 210.379 27.3872C195.891 9.18409 172.683 4.94096 152.966 2.12683C119.007 -2.77476 77.5295 4.38311 46.2178 57.2285C13.6435 112.205 21.9183 172.694 42.4765 210.055C63.5621 248.545 98.6088 270.035 137.68 237.787C154.761 223.598 171.909 198.316 177.493 168.701C182.892 139.777 178.903 111.3 170.891 91.1284C161.487 67.3739 145.451 48.7559 125.324 49.5357C108.283 50.1548 86.9994 68.1559 77.1005 97.3558C67.6954 124.713 72.161 155.539 87.2324 162.787C100.879 169.16 120.411 155.628 128.935 130.01C129.121 129.319 128.604 129.181 128.352 129.607C116.725 148.221 99.0215 158.539 90.4089 142.157C82.9801 128.067 85.59 102.84 97.1719 85.9435C125.908 44.2599 157.52 86.3111 164.74 121.826C168.892 141.951 165.985 169.321 154.06 190.077C143.651 208.276 129.494 219.297 116.347 222.935C86.6525 231.028 62.7329 203.631 50.2491 169.174C44.4083 153.288 40.7728 133.301 44.3814 111.058C47.99 88.8148 58.5564 67.4483 71.0753 53.7655C99.7997 22.4493 133.422 26.0262 159.491 33.0114C174.203 36.9535 190.29 42.9924 198.987 61.1254C206.562 76.7354 210.416 99.003 212.009 120.418C213.798 142.132 214.729 167.567 208.247 191.756C202.198 214.333 189.258 230.619 176.133 241.918C147.403 267.059 116.441 265.43 90.0745 260.587C74.9245 257.762 60.3356 253.359 46.7961 245.04C33.6438 236.824 20.2165 227.054 10.5209 211.616C7.11508 206.259 -0.695881 215.277 1.32391 223.226C8.03417 247.74 18.6668 266.392 33.8446 277.373C48.6971 288.019 65.6145 293.54 82.5714 296.849C115.004 303.317 153.373 305.696 188.69 271.455C206.949 253.385 223.879 225.822 231.494 193.788Z" fill="#7165E3"/>
</svg>
