<svg width="109" height="300" viewBox="0 0 109 300" fill="none" xmlns="http://www.w3.org/2000/svg">
<path d="M102.494 193.005C110.227 160.015 109.662 127.024 105.415 98.4782C101.437 70.9923 94.3679 43.1719 81.3786 26.6048C66.8911 8.40174 43.6835 4.15861 23.9659 1.34448C-9.99263 -3.55711 -51.4705 3.60076 -82.7822 56.4461C-115.356 111.422 -107.082 171.912 -86.5235 209.273C-65.4379 247.763 -30.3912 269.252 8.68016 237.005C25.7609 222.816 42.9093 197.534 48.4932 167.919C53.892 138.994 49.9032 110.518 41.8911 90.3461C32.4874 66.5916 16.4513 47.9735 -3.67594 48.7534C-20.717 49.3725 -42.0006 67.3736 -51.8995 96.5734C-61.3046 123.93 -56.839 154.757 -41.7676 162.005C-28.1215 168.378 -8.58867 154.846 -0.0646012 129.228C0.120584 128.537 -0.395649 128.399 -0.648168 128.825C-12.275 147.438 -29.9785 157.756 -38.5911 141.374C-46.0199 127.285 -43.41 102.058 -31.8281 85.1612C-3.09223 43.4776 28.5198 85.5287 35.7404 121.044C39.8921 141.169 36.9847 168.539 25.0604 189.294C14.6512 207.493 0.494012 218.515 -12.653 222.153C-42.3475 230.246 -66.2671 202.848 -78.7509 168.392C-84.5917 152.506 -88.2272 132.519 -84.6186 110.276C-81.01 88.0325 -70.4436 66.666 -57.9247 52.9832C-29.2003 21.667 4.42161 25.2438 30.4908 32.229C45.2032 36.1712 61.2902 42.21 69.987 60.343C77.5616 75.953 81.4158 98.2206 83.0088 119.635C84.7982 141.35 85.7289 166.785 79.2473 190.974C73.1979 213.551 60.2581 229.837 47.1333 241.135C18.4035 266.277 -12.5588 264.647 -38.9255 259.805C-54.0755 256.98 -68.6644 252.577 -82.2039 244.258C-95.3562 236.042 -108.783 226.271 -118.479 210.834C-121.885 205.477 -129.696 214.495 -127.676 222.444C-120.966 246.958 -110.333 265.61 -95.1554 276.59C-80.3029 287.237 -63.3855 292.757 -46.4286 296.066C-13.9963 302.534 24.3726 304.914 59.6902 270.673C77.9494 252.602 94.8791 225.039 102.494 193.005Z" fill="#7165E3"/>
</svg>
