<svg width="238" height="301" viewBox="0 0 238 301" fill="none" xmlns="http://www.w3.org/2000/svg">
<path d="M231.494 193.788C239.227 160.798 238.661 127.806 234.414 99.2605C230.437 71.7747 223.367 43.9542 210.378 27.3872C195.891 9.18409 172.683 4.94096 152.965 2.12683C119.007 -2.77476 77.529 4.38311 46.2173 57.2285C13.643 112.205 21.9178 172.694 42.476 210.055C63.5616 248.545 98.6083 270.035 137.68 237.787C154.76 223.598 171.909 198.316 177.493 168.701C182.891 139.777 178.903 111.3 170.891 91.1284C161.487 67.3739 145.451 48.7559 125.324 49.5357C108.282 50.1548 86.9989 68.1559 77.1 97.3558C67.6949 124.713 72.1605 155.539 87.2319 162.787C100.878 169.16 120.411 155.628 128.935 130.01C129.12 129.319 128.604 129.181 128.351 129.607C116.725 148.221 99.021 158.539 90.4084 142.157C82.9796 128.067 85.5895 102.84 97.1714 85.9435C125.907 44.2599 157.519 86.3111 164.74 121.826C168.892 141.951 165.984 169.321 154.06 190.077C143.651 208.276 129.494 219.297 116.346 222.935C86.652 231.028 62.7324 203.631 50.2486 169.174C44.4078 153.288 40.7724 133.301 44.381 111.058C47.9896 88.8148 58.5559 67.4483 71.0748 53.7655C99.7992 22.4493 133.421 26.0262 159.49 33.0114C174.203 36.9535 190.29 42.9924 198.986 61.1254C206.561 76.7354 210.415 99.003 212.008 120.418C213.798 142.132 214.728 167.567 208.247 191.756C202.197 214.333 189.258 230.619 176.133 241.918C147.403 267.059 116.441 265.43 90.074 260.587C74.924 257.762 60.3351 253.359 46.7956 245.04C33.6433 236.824 20.2161 227.054 10.5204 211.616C7.1146 206.259 -0.696369 215.277 1.32342 223.226C8.03368 247.74 18.6663 266.392 33.8442 277.373C48.6966 288.019 65.6141 293.54 82.5709 296.849C115.003 303.317 153.372 305.696 188.69 271.455C206.949 253.385 223.879 225.822 231.494 193.788Z" fill="#FFFFFE"/>
</svg>
