<svg width="336" height="270" viewBox="0 0 336 270" fill="none" xmlns="http://www.w3.org/2000/svg">
<circle cx="163.958" cy="134.589" r="115.013" fill="#F2F2F2"/>
<mask id="mask0_455_4275" style="mask-type:alpha" maskUnits="userSpaceOnUse" x="0" y="-1" width="336" height="271">
<path d="M335.745 117.949C335.745 152.637 263.617 200.379 239.331 221.466C219.146 238.993 192.792 249.602 163.961 249.602C130.723 249.602 100.778 235.503 79.7811 212.959C71.2243 203.772 71.4607 255.475 59.7149 269.668C45.5217 269.668 0.746397 272.845 0.00658329 237.366C-0.656208 205.581 48.948 142.498 48.948 134.589C48.948 71.0691 123.444 -0.000488281 186.963 -0.000488281C250.483 -0.000488281 335.745 54.429 335.745 117.949Z" fill="#F2F2F2"/>
</mask>
<g mask="url(#mask0_455_4275)">
<path d="M154.116 529.248L154.112 529.256L85.2647 511.89C85.379 511.667 85.5271 511.377 85.7075 511.025C86.179 510.102 86.8705 508.748 87.7505 507.019C89.5104 503.563 92.0243 498.612 95.04 492.633C101.072 480.676 109.111 464.607 117.142 448.161C125.173 431.716 133.199 414.89 139.2 401.42C142.201 394.686 144.698 388.784 146.438 384.186C147.308 381.888 147.991 379.908 148.453 378.309C148.91 376.727 149.167 375.467 149.149 374.632C149.023 368.814 146.514 355.887 142.847 339.834C139.174 323.757 134.325 304.485 129.492 285.935C124.659 267.385 119.841 249.555 116.232 236.363C114.427 229.766 112.925 224.33 111.873 220.542C111.348 218.648 110.935 217.166 110.653 216.158C110.549 215.785 110.463 215.476 110.396 215.236H167.299L167.318 215.285C167.409 215.525 167.545 215.883 167.722 216.351C168.077 217.288 168.597 218.667 169.26 220.437C170.585 223.977 172.481 229.08 174.762 235.334C179.324 247.84 185.428 264.944 191.595 283.335C197.761 301.727 203.989 321.402 208.8 339.051C213.613 356.712 216.997 372.305 217.496 382.551C217.674 386.203 216.832 391.243 215.195 397.298C213.561 403.344 211.144 410.362 208.199 417.958C202.31 433.147 194.318 450.613 186.276 467.154C178.235 483.694 170.148 499.302 164.072 510.776C161.033 516.513 158.498 521.216 156.722 524.484C155.834 526.118 155.136 527.394 154.66 528.261C154.422 528.694 154.239 529.025 154.116 529.248Z" fill="#FFFFFE" stroke="black" stroke-width="0.978832"/>
<path d="M153.474 345.25C148.882 325.885 144.027 306.659 138.77 287.502C133.514 268.345 128.037 249.049 121.965 230.044C121.218 227.734 120.443 225.411 119.696 223.128C119.674 223.053 119.623 222.99 119.555 222.952C119.486 222.915 119.405 222.906 119.33 222.928C119.255 222.95 119.191 223.001 119.154 223.07C119.116 223.138 119.107 223.219 119.129 223.294C124.551 242.216 130.056 261.111 135.202 280.102C140.347 299.093 145.285 318.139 149.919 337.255C151.062 342.004 152.192 346.744 153.308 351.474C154.59 356.348 155.579 361.295 156.268 366.288C156.845 371.06 156.521 375.897 155.313 380.549C153.993 385.114 152.271 389.553 150.168 393.814C141.869 411.933 133.524 430.058 125.132 448.187C116.833 466.375 115.45 470.511 107.469 488.838C106.473 491.121 105.491 493.389 104.537 495.685C104.467 495.837 104.689 495.962 104.758 495.81C113.887 477.828 115.298 473.513 123.777 455.241C132.256 436.969 140.804 418.462 149.269 400.038C153.086 391.739 157.568 383.26 158.149 373.965C158.744 364.269 155.701 354.545 153.474 345.25Z" fill="#263238"/>
<path d="M203.658 384.564L203.658 384.564C205.727 396.041 209.114 435.297 211.985 471.725C213.42 489.93 214.726 507.416 215.672 520.351C216.146 526.818 216.529 532.148 216.794 535.861C216.927 537.717 217.03 539.169 217.1 540.157L217.17 541.145H148.762L148.712 540.317L148.493 536.637L147.692 523.219C147.02 511.953 146.1 496.539 145.108 479.953C143.125 446.781 140.856 408.916 139.715 390.146C139.598 388.213 138.568 385.563 136.922 382.364C135.266 379.146 132.948 375.306 130.187 370.972C127.708 367.082 124.866 362.784 121.815 358.171C121.467 357.644 121.116 357.114 120.763 356.58C117.312 351.36 113.623 345.76 109.905 339.899C95.017 316.431 79.7262 288.873 77.4013 264.964L77.4013 264.964C77.062 261.486 77.5126 256.618 78.3957 251.238C79.277 245.869 80.5825 240.029 81.9328 234.626C83.2829 229.223 84.6763 224.261 85.7324 220.651C86.2603 218.845 86.7038 217.378 87.0153 216.362C87.171 215.854 87.2937 215.46 87.3774 215.192C87.3846 215.169 87.3915 215.147 87.3981 215.125L161.11 215.18C160.388 218.11 157.076 231.183 153.6 244.262C151.669 251.533 149.689 258.797 148.079 264.31C147.274 267.067 146.564 269.38 145.999 271.034C145.716 271.863 145.473 272.518 145.275 272.978C145.176 273.209 145.092 273.38 145.026 273.496C144.993 273.552 144.969 273.587 144.954 273.607C144.763 273.741 144.712 273.945 144.702 274.069C144.69 274.201 144.713 274.333 144.74 274.441C144.796 274.664 144.909 274.942 145.056 275.255C145.356 275.889 145.85 276.773 146.505 277.87C147.818 280.068 149.809 283.178 152.269 286.978C153.054 288.191 153.888 289.475 154.763 290.823C159.373 297.926 165.138 306.808 171.09 316.457C178.172 327.937 185.515 340.495 191.488 352.426C197.467 364.366 202.056 375.641 203.658 384.564ZM144.944 273.619C144.944 273.619 144.945 273.618 144.946 273.617C144.944 273.619 144.943 273.62 144.944 273.619Z" fill="#FFFFFE" stroke="black" stroke-width="0.978832"/>
<path d="M156.366 222.768C156.366 222.533 155.923 222.478 155.923 222.768C155.927 230.473 155.543 238.174 154.775 245.84C154.457 249.395 151.594 269.036 145.425 267.597C144.401 267.362 143.862 266.353 143.709 264.831C143.735 262.8 144.009 260.779 144.526 258.814C145.203 254.665 145.757 250.515 146.116 246.366C146.829 238.627 146.745 230.836 145.867 223.114C145.856 223.07 145.829 223.031 145.793 223.003C145.757 222.975 145.712 222.96 145.667 222.96C145.621 222.96 145.576 222.975 145.54 223.003C145.504 223.031 145.478 223.07 145.466 223.114C145.643 233.838 145.014 244.56 143.585 255.19C142.81 260.308 140.238 267.999 145.591 268.787C150.944 269.575 154.554 256.698 155.273 253.171C156.95 243.127 157.317 232.907 156.366 222.768V222.768Z" fill="#263238"/>
<path d="M145.618 268.096C145.066 269.419 144.604 270.777 144.235 272.162C143.831 273.231 143.634 274.367 143.654 275.51C143.654 275.731 143.972 275.745 144.082 275.606C144.698 274.59 145.164 273.491 145.466 272.342C145.922 271.083 146.42 269.838 146.849 268.566C146.857 268.419 146.819 268.274 146.739 268.151C146.659 268.028 146.542 267.933 146.405 267.881C146.268 267.829 146.118 267.821 145.976 267.86C145.835 267.898 145.709 267.981 145.618 268.096Z" fill="#263238"/>
<path d="M148.507 408.434C147.871 398.751 147.898 388.502 143.776 379.498C141.581 375.117 139.056 370.909 136.224 366.911C133.403 362.623 130.636 358.298 127.925 353.936C116.97 336.536 106.5 318.79 96.9141 300.587C92.3081 291.817 88.0479 282.785 85.7379 273.103C83.4701 262.924 83.0391 252.422 84.4654 242.092C84.7835 239.519 85.1432 236.96 85.572 234.401C85.572 234.222 85.323 234.139 85.2815 234.332C83.0457 244.17 82.2766 254.285 82.9992 264.347C84.0517 273.962 86.7613 283.321 91.0079 292.011C95.2266 301.168 100.261 309.992 105.213 318.734C110.313 327.771 115.578 336.72 121.009 345.582C126.404 354.379 132.075 363.01 137.704 371.669C140.572 375.761 142.81 380.26 144.343 385.016C145.581 389.976 146.29 395.053 146.46 400.162C147.843 421.616 153.293 492.905 155.202 514.247C155.45 517.014 155.686 519.67 155.935 522.367C155.935 522.616 156.322 522.602 156.308 522.367C155.464 500.941 149.932 429.804 148.507 408.434Z" fill="#263238"/>
<path d="M110.25 233.448C110.25 233.296 110.001 233.351 109.987 233.448C109.794 239.41 109.987 245.551 107.664 251.18C105.561 256.34 101.343 259.964 96.5982 262.675C93.8486 264.209 91.0182 265.595 88.1193 266.824C87.9118 266.907 87.9948 267.239 88.2161 267.17C93.7488 265.427 99.2816 263.532 103.86 259.881C108.743 255.966 110.873 250.281 111.122 244.14C111.195 240.556 110.903 236.973 110.25 233.448V233.448Z" fill="#263238"/>
<path d="M158.871 140.925C163.325 152.184 191.873 192.67 210.519 194.579C229.524 196.543 270.66 168.824 275.017 165.947C277.866 164.08 258.585 130.883 254.158 133.663C242.235 141.174 214.184 160.041 208.818 157.468C197.545 152.087 188.858 144.591 172.633 133.954C161.319 126.526 153.96 128.476 158.871 140.925Z" fill="#AD6359"/>
<path d="M299.4 149.833C290.16 159.336 275.567 166.625 270.892 167.206C266.217 167.787 250.725 140.926 252.551 136.472C254.377 132.018 273.382 107.826 281.695 106.249C290.008 104.672 305.403 143.692 299.4 149.833Z" fill="#AD6359"/>
<path d="M286.816 112.82C286.816 112.82 277.895 116.804 275.018 118.353C272.555 119.639 267.631 122.627 268.627 127.385C269.623 132.143 276.193 129.764 276.664 129.612C276.276 129.833 269.595 133.941 271.131 138.616C272.666 143.292 278.918 140.11 279.319 139.903C279.153 140.083 292.833 130.22 296.208 132.42C300.012 134.951 297.038 151.687 297.079 151.784C297.121 151.881 326.915 128.076 324.881 122.654C322.461 116.167 302.501 131.341 302.501 131.341C302.501 131.341 306.416 126.901 305.365 123.18C304.811 121.271 301.284 120.414 301.284 120.414C302.055 119.695 302.614 118.778 302.899 117.763C303.185 116.749 303.186 115.675 302.903 114.66C301.99 112.059 298.587 111.63 298.587 111.63C298.587 111.63 323.083 103.331 317.191 96.7058C313.581 92.6393 288.559 103.857 281.74 106.25C281.698 106.25 287.522 108.56 286.816 112.82Z" fill="#AD6359"/>
<path d="M301.335 120.344C301.432 120.344 301.405 120.178 301.335 120.178C292.203 120.182 283.374 123.449 276.438 129.39C276.203 129.611 276.203 130.04 276.438 129.819C281.321 126.001 293.797 121.464 301.335 120.344Z" fill="#263238"/>
<path d="M279.635 140.427C286.482 134.687 290.064 133.677 298.723 131.796C298.834 131.796 298.792 131.617 298.723 131.603C295.484 131.271 292.212 131.717 289.179 132.903C285.331 134.375 281.976 136.901 279.497 140.192C279.331 140.317 279.469 140.552 279.635 140.427Z" fill="#263238"/>
<path d="M275.016 118.311C273.564 119.112 272.209 120.077 270.977 121.188C269.644 122.275 268.638 123.712 268.073 125.337C267.815 126.231 267.903 127.189 268.322 128.021C268.729 128.842 269.344 129.543 270.106 130.054C271.019 130.63 272.084 130.919 273.163 130.884C273.661 130.386 274.2 129.902 274.753 129.501L275.39 130.607C274.669 130.834 273.918 130.946 273.163 130.939C272.419 131.662 271.752 132.459 271.171 133.318C270.626 134.088 270.25 134.963 270.066 135.888C269.883 136.813 269.896 137.766 270.106 138.685C270.366 139.641 270.912 140.494 271.669 141.133C272.457 141.754 273.432 142.09 274.435 142.087C275.335 142.07 276.226 141.911 277.077 141.617C277.526 140.812 278.059 140.056 278.668 139.363L279.581 140.441L279.677 140.331L282.527 137.122L278.82 139.238C277.501 140.056 275.998 140.532 274.449 140.621C273.759 140.634 273.085 140.41 272.539 139.988C271.993 139.565 271.608 138.969 271.448 138.298C271.284 137.572 271.275 136.821 271.42 136.092C271.565 135.363 271.862 134.672 272.291 134.065C273.15 132.718 274.219 131.518 275.459 130.51L278.225 128.2L274.822 129.39C274.138 129.663 273.403 129.788 272.666 129.757C271.93 129.726 271.208 129.54 270.548 129.21C269.91 128.837 269.381 128.303 269.013 127.661C268.661 127.02 268.558 126.271 268.723 125.558C269.169 124.024 270.014 122.635 271.171 121.533C272.348 120.341 273.636 119.262 275.016 118.311V118.311Z" fill="#263238"/>
<path d="M278.749 139.362C278.141 140.056 277.607 140.811 277.158 141.617C278.028 141.305 278.866 140.911 279.662 140.441L278.749 139.362Z" fill="#263238"/>
<path d="M274.753 129.445C274.199 129.902 273.66 130.386 273.162 130.828C273.917 130.836 274.669 130.724 275.389 130.497L274.753 129.445Z" fill="#263238"/>
<path d="M255.332 132.502C255.332 132.502 265.844 98.9043 276.965 109.444C280.271 112.584 290.091 129.39 286.758 131.423C282.442 134.065 277.076 127.813 274.309 123.345C274.309 123.345 272.345 135.282 263.631 136.389C262.023 136.574 260.396 136.308 258.93 135.622C257.465 134.936 256.219 133.855 255.332 132.502V132.502Z" fill="#AD6359"/>
<path d="M275.981 108.629C277.422 109.708 278.698 110.989 279.771 112.433C280.875 113.852 281.887 115.339 282.8 116.887C284.664 119.971 286.256 123.21 287.559 126.569C287.907 127.456 288.126 128.387 288.209 129.336C288.251 129.886 288.171 130.439 287.974 130.954C287.872 131.24 287.722 131.507 287.531 131.742C287.331 131.966 287.098 132.157 286.839 132.31C285.912 132.86 284.816 133.057 283.755 132.863C282.779 132.675 281.843 132.319 280.988 131.812C279.405 130.821 278.001 129.567 276.839 128.105C275.683 126.7 274.633 125.212 273.699 123.651L274.847 123.416C274.568 124.768 274.165 126.093 273.644 127.372C273.137 128.641 272.502 129.855 271.749 130.996C270.979 132.131 270.047 133.147 268.982 134.011C267.936 134.87 266.734 135.518 265.441 135.92C266.646 135.358 267.749 134.601 268.706 133.679C269.632 132.756 270.432 131.714 271.085 130.581C271.733 129.443 272.275 128.249 272.703 127.012C273.126 125.785 273.432 124.521 273.616 123.236L273.837 121.645L274.764 123.028C275.718 124.483 276.772 125.869 277.918 127.178C279.002 128.491 280.291 129.622 281.735 130.525C282.345 130.973 283.06 131.257 283.811 131.349C284.561 131.441 285.323 131.338 286.023 131.051C287.102 130.498 286.715 128.575 286.203 126.998C285.691 125.421 284.944 123.734 284.239 122.115C283.534 120.497 282.773 118.879 281.957 117.316C280.424 114.13 278.408 111.2 275.981 108.629V108.629Z" fill="#263238"/>
<path d="M270.837 170.139L248.152 135.946C244.464 135.941 240.828 136.814 237.543 138.491C227.668 143.167 210.793 156.473 208.275 155.532C204.195 154.149 189.201 143.609 176.006 134.107C162.81 124.604 144.192 120.275 159.822 146.666C175.452 173.057 198.372 193.694 208.234 196.461C214.707 198.273 248.111 189.282 264.045 179.226C267.383 177.172 269.812 173.922 270.837 170.139V170.139Z" fill="#27AE60"/>
<path d="M260.227 177.622C259.127 176.15 258.111 174.616 257.184 173.03C256.299 171.646 255.372 170.263 254.501 168.88C252.578 165.865 250.641 162.849 248.733 159.82C246.824 156.791 244.929 153.79 243.048 150.747C241.167 147.704 239.23 144.743 237.515 141.631C237.506 141.618 237.5 141.602 237.497 141.586C237.493 141.57 237.493 141.554 237.497 141.538C237.5 141.522 237.506 141.506 237.515 141.493C237.524 141.479 237.536 141.468 237.55 141.458C237.563 141.449 237.579 141.443 237.595 141.44C237.611 141.437 237.627 141.437 237.643 141.44C237.659 141.443 237.675 141.449 237.688 141.459C237.702 141.468 237.713 141.479 237.723 141.493C239.991 144.259 241.983 147.206 244.002 150.138C246.022 153.07 247.903 155.961 249.77 158.921C251.637 161.881 253.505 165.007 255.303 168.092C256.174 169.572 256.99 171.093 257.806 172.601C258.768 174.174 259.623 175.81 260.365 177.497C260.407 177.622 260.296 177.705 260.227 177.622Z" fill="#263238"/>
<path opacity="0.1" d="M204.194 194.704C192.99 188.646 173.556 169.876 159.821 146.666C153.058 135.241 152.712 129.584 155.575 127.592L204.194 194.704Z" fill="black"/>
<path d="M78.3389 248.635L181.594 252.923C182.036 252.508 185.909 250.986 185.314 236.864C183.931 204.719 173.474 147.233 167.029 134.812C165.834 132.314 164.155 130.078 162.088 128.236C160.021 126.393 157.608 124.98 154.99 124.078C152.371 123.177 149.6 122.806 146.837 122.987C144.073 123.167 141.374 123.896 138.895 125.13C133.044 128.491 127.608 132.973 120.609 142.6C103.43 166.28 84.3696 208.522 77.7303 231.871C74.9086 241.539 78.1314 248.344 78.3389 248.635Z" fill="#27AE60"/>
<path opacity="0.1" d="M148.743 242.534C158.868 242.949 168.91 243.364 178.966 243.918L178.399 244.54L176.13 228.896L176.462 229.339C174.633 228.399 173.065 227.021 171.898 225.328C170.765 223.664 169.898 221.835 169.325 219.905C168.719 218.017 168.288 216.077 168.039 214.11C167.763 212.154 167.634 210.179 167.651 208.204L168.177 208.785L144.372 207.484L144.884 207.083L143.971 210.749C143.639 211.966 143.169 213.156 142.782 214.345C142.394 215.535 141.772 216.669 141.246 217.831L140.278 219.463C140.126 219.739 139.96 220.016 139.794 220.279L139.213 221.04C137.74 223.15 135.749 224.846 133.431 225.964C131.082 227.03 128.444 227.283 125.935 226.683L126.211 226.559L118.189 241.248L148.743 242.534ZM125.782 226.365L125.852 226.213H126.059C128.461 226.689 130.952 226.369 133.155 225.3C135.359 224.202 137.237 222.548 138.605 220.5L139.144 219.767C139.31 219.504 139.462 219.242 139.614 218.965L140.527 217.374C141.011 216.24 141.551 215.12 141.91 213.958C142.27 212.796 142.713 211.62 143.017 210.417L143.861 206.807L143.958 206.378H144.372L168.191 207.54H168.73V208.093C168.731 210.009 168.87 211.923 169.145 213.819C169.4 215.697 169.822 217.549 170.404 219.352C170.955 221.159 171.771 222.874 172.825 224.442C173.863 225.973 175.265 227.223 176.905 228.08L177.195 228.232V228.537L179.367 244.194L179.464 244.844H178.8C168.606 244.305 158.398 243.669 148.259 243.046L118.078 241.151L125.782 226.365Z" fill="black"/>
<path d="M131.621 127.495C106.294 130.814 71.369 140.746 60.1928 148.464C52.364 153.886 34.6039 191.467 31.4087 202.698C30.0255 207.54 65.3244 224.318 68.1461 219.739C71.5211 214.206 87.2341 170.94 88.8939 170.747C90.5537 170.553 119.089 155.2 136.78 142.862C156.2 129.348 141.552 126.194 131.621 127.495Z" fill="#AD6359"/>
<path d="M29.6242 201.855L74.5639 214.719C77.1575 211.59 79.0448 207.938 80.0966 204.013C82.863 193.459 84.4398 178.355 86.2103 176.349C89.0873 173.113 120.527 155.878 134.304 147.233C148.08 138.588 158.247 121.796 127.941 126.333C97.6354 130.87 64.024 142.309 56.3196 147.939C50.8976 151.922 38.1723 172.836 30.9935 187.014C27.9782 192.961 29.6242 201.855 29.6242 201.855Z" fill="#27AE60"/>
<path d="M107.553 163.057C110.236 161.48 112.947 159.931 115.658 158.41C118.701 156.694 121.772 155.03 124.87 153.416C127.886 151.839 130.956 150.415 134.013 148.935C134.235 148.824 134.428 149.198 134.207 149.322C130.265 151.438 126.364 153.651 122.464 155.865C124.552 155.131 126.613 154.481 128.771 153.776C128.788 153.77 128.807 153.767 128.825 153.767C128.843 153.768 128.861 153.772 128.878 153.78C128.895 153.788 128.91 153.799 128.922 153.812C128.935 153.826 128.944 153.842 128.951 153.859C128.957 153.876 128.96 153.895 128.959 153.913C128.959 153.931 128.954 153.949 128.946 153.966C128.939 153.983 128.928 153.998 128.914 154.01C128.901 154.023 128.885 154.032 128.868 154.039C126.35 154.938 123.805 155.754 121.246 156.556L118.48 158.147C113.182 161.121 105.035 164.537 107.553 163.057Z" fill="#263238"/>
<path d="M33.7879 190.721C35.5784 191.143 37.3426 191.67 39.0717 192.298C40.6347 192.782 42.2115 193.238 43.7745 193.681C47.1772 194.773 50.5936 195.838 53.9963 196.945C57.3989 198.052 60.7877 199.144 64.1765 200.279C67.5653 201.413 70.9541 202.422 74.2599 203.736C74.3844 203.736 74.2599 203.985 74.2599 203.972C70.7605 203.322 67.344 202.312 63.8998 201.357C60.4557 200.403 57.1776 199.393 53.8441 198.314C50.5106 197.236 47.0803 196.032 43.7192 194.815C42.1147 194.22 40.5102 193.584 38.9195 192.948C37.1751 192.351 35.4704 191.644 33.8156 190.831C33.6496 190.831 33.6911 190.721 33.7879 190.721Z" fill="#263238"/>
<path d="M155.575 148.478C155.575 148.478 143.513 128.436 132.946 126.071L117.219 128.173C117.219 128.173 114.052 128.367 113.637 126.278C112.585 121.119 119.792 113.415 131.189 108.698C141.618 104.396 159.171 110.399 170.264 116.637C180.929 122.64 185.479 131.009 180.016 137.565C174.552 144.121 155.575 148.478 155.575 148.478Z" fill="#27AE60"/>
<path opacity="0.1" d="M157.637 145.269C157.637 145.269 173.198 139.322 176.006 134.107C178.814 128.892 169.09 120.69 162.423 116.748C152.146 110.634 144.441 109.376 136.613 113.691C128.784 118.007 157.637 145.269 157.637 145.269Z" fill="black"/>
<path d="M147.9 101.38C147.19 103.765 146.264 106.08 145.134 108.296C144.014 109.928 139.283 110.343 139.283 110.343C139.283 110.343 143.308 113.649 144.733 113.815C146.158 113.981 149.477 111.381 149.477 111.381C149.477 111.381 145.591 116.056 143.613 115.655C142.382 115.406 146.379 116.914 146.379 116.914C147.759 117.312 149.238 117.184 150.529 116.554C152.41 115.489 147.9 101.38 147.9 101.38Z" fill="#263238"/>
<path d="M159.504 144.536C153.349 144.882 145.673 135.725 144.289 128.145C144.206 127.633 146.447 123.249 148.923 117.785C150.417 114.466 151.994 110.745 153.197 107.231L173.364 120.081C170.61 124.037 168.353 128.315 166.642 132.82C166.484 133.307 166.368 133.807 166.296 134.314C164.788 139.059 162.271 144.37 159.504 144.536Z" fill="#AD6359"/>
<path d="M173.42 120.081C170.674 124.039 168.421 128.317 166.712 132.82C166.547 133.306 166.432 133.806 166.366 134.314L166.283 134.549C165.51 134.397 164.751 134.179 164.015 133.899C151.289 129.155 152.659 113.705 153.765 107.619L173.42 120.081Z" fill="#263238"/>
<path d="M151.812 82.8321C148.008 90.5641 148.52 114.756 153.458 120.925C160.609 129.874 174.206 132.82 182.311 123.788C190.14 115.019 188.923 83.5098 183.238 77.7005C174.856 69.1662 157.414 71.4346 151.812 82.8321Z" fill="#AD6359"/>
<path d="M168.949 96.4845C169.648 96.3008 170.336 96.0792 171.01 95.8206C171.767 95.6803 172.456 95.2966 172.974 94.7279C173.111 94.5147 173.171 94.2611 173.143 94.0094C173.115 93.7577 173.002 93.523 172.822 93.3447C172.434 93.0451 171.974 92.8539 171.488 92.7907C171.002 92.7275 170.507 92.7946 170.056 92.9851C169.083 93.2446 168.237 93.8493 167.677 94.6864C167.55 94.8857 167.485 95.1183 167.491 95.3546C167.496 95.5909 167.572 95.8202 167.709 96.0131C167.845 96.206 168.036 96.3539 168.257 96.4379C168.478 96.5219 168.719 96.5381 168.949 96.4845Z" fill="#263238"/>
<path d="M185.48 96.8303C184.772 96.6743 184.075 96.4756 183.391 96.2355C182.632 96.1312 181.927 95.7814 181.385 95.2396C181.244 95.0316 181.177 94.7821 181.194 94.5312C181.212 94.2803 181.313 94.0426 181.482 93.8564C181.861 93.5408 182.317 93.332 182.803 93.2517C183.29 93.1715 183.789 93.2227 184.249 93.4C185.232 93.6118 186.101 94.1842 186.683 95.0045C186.818 95.1975 186.893 95.4268 186.896 95.6625C186.899 95.8983 186.832 96.1296 186.702 96.3265C186.572 96.5233 186.386 96.6766 186.168 96.7665C185.95 96.8563 185.71 96.8785 185.48 96.8303V96.8303Z" fill="#263238"/>
<path d="M170.6 115.696C170.987 116.097 171.361 116.623 171.983 116.692C172.588 116.692 173.187 116.565 173.74 116.319C173.74 116.319 173.85 116.319 173.74 116.402C173.501 116.719 173.18 116.965 172.813 117.113C172.445 117.262 172.043 117.308 171.651 117.245C171.323 117.15 171.029 116.96 170.808 116.7C170.587 116.439 170.447 116.119 170.406 115.779C170.42 115.682 170.545 115.641 170.6 115.696Z" fill="#263238"/>
<path d="M172.424 110.87C172.824 111.524 173.354 112.088 173.983 112.526C174.611 112.964 175.324 113.267 176.076 113.415C176.728 113.565 177.401 113.611 178.068 113.553H178.455H178.815C178.9 113.539 178.978 113.498 179.038 113.435C179.098 113.373 179.136 113.293 179.147 113.207V113.207C179.154 113.152 179.154 113.096 179.147 113.041V113.041V112.889C179.216 111.644 179.147 109.735 179.147 109.735C179.603 109.971 181.913 111.119 181.913 110.413C181.9 104.757 181.311 99.1169 180.156 93.5799C180.156 93.5395 180.14 93.5008 180.112 93.4723C180.083 93.4438 180.044 93.4277 180.004 93.4277C179.964 93.4277 179.925 93.4438 179.897 93.4723C179.868 93.5008 179.852 93.5395 179.852 93.5799C179.852 98.8083 180.737 103.995 180.806 109.251C179.986 108.84 179.11 108.551 178.206 108.394C178.026 108.394 178.427 112.087 178.358 112.654C177.328 112.734 176.292 112.606 175.312 112.275C174.333 111.945 173.431 111.42 172.659 110.731C172.466 110.621 172.327 110.731 172.424 110.87Z" fill="#263238"/>
<path d="M177.347 112.903C176.639 113.784 175.714 114.465 174.663 114.881C174.075 115.075 173.44 115.075 172.851 114.881C171.565 114.507 171.565 113.318 171.828 112.308C171.966 111.769 172.171 111.248 172.436 110.759C173.804 111.977 175.524 112.728 177.347 112.903V112.903Z" fill="#263238"/>
<path d="M174.663 114.88C174.075 115.075 173.44 115.075 172.851 114.88C171.565 114.507 171.565 113.317 171.828 112.308C172.523 112.349 173.182 112.627 173.698 113.095C174.214 113.563 174.554 114.193 174.663 114.88V114.88Z" fill="#FF97B8"/>
<path d="M167.971 100.026C168.423 99.9136 168.889 99.867 169.354 99.8875C169.825 99.9018 170.291 99.9857 170.737 100.136C171.201 100.305 171.632 100.553 172.01 100.87C172.382 101.218 172.675 101.642 172.867 102.114L173.199 102.972L172.3 102.765C171.655 102.622 170.997 102.544 170.336 102.529C169.655 102.502 168.979 102.65 168.372 102.958C168.826 102.345 169.5 101.934 170.253 101.81C171.001 101.658 171.773 101.658 172.521 101.81L171.954 102.46C171.632 101.77 171.086 101.21 170.405 100.87C169.63 100.493 168.813 100.209 167.971 100.026V100.026Z" fill="#263238"/>
<path d="M170.199 103.995C170.915 103.916 171.617 103.744 172.288 103.483C172.44 103.414 173.049 103.068 173.035 102.958C173.001 102.602 172.918 102.253 172.786 101.92C173.009 102.225 173.165 102.574 173.242 102.944C173.171 103.135 173.06 103.309 172.917 103.454C172.774 103.6 172.602 103.713 172.412 103.788C171.706 104.051 170.942 104.122 170.199 103.995V103.995Z" fill="#263238"/>
<path d="M185.883 100.51C185.501 100.399 185.103 100.357 184.707 100.385C184.295 100.401 183.888 100.485 183.504 100.634C183.068 100.813 182.676 101.084 182.354 101.427C182.032 101.771 181.787 102.18 181.636 102.626L181.332 103.483L182.134 103.276C182.69 103.13 183.261 103.047 183.836 103.027C184.44 102.997 185.04 103.141 185.565 103.442C185.381 103.152 185.141 102.901 184.858 102.707C184.575 102.512 184.255 102.376 183.919 102.308C183.268 102.156 182.591 102.156 181.941 102.308L182.425 102.958C182.695 102.284 183.181 101.72 183.808 101.353C184.461 100.986 185.159 100.703 185.883 100.51V100.51Z" fill="#263238"/>
<path d="M184.029 104.493C183.404 104.415 182.794 104.247 182.217 103.995C182.092 103.995 181.553 103.58 181.567 103.47C181.597 103.116 181.671 102.767 181.788 102.432C181.591 102.75 181.455 103.102 181.387 103.47C181.445 103.647 181.539 103.811 181.663 103.951C181.786 104.091 181.937 104.205 182.106 104.286C182.711 104.548 183.382 104.621 184.029 104.493V104.493Z" fill="#263238"/>
<path d="M153.598 102.944C153.598 102.944 149.366 94.5618 145.645 95.9588C141.924 97.3558 144.331 108.988 148.176 111.077C148.647 111.384 149.176 111.593 149.729 111.689C150.283 111.786 150.851 111.769 151.398 111.64C151.945 111.511 152.461 111.271 152.913 110.937C153.364 110.602 153.744 110.179 154.027 109.694L153.598 102.944Z" fill="#AD6359"/>
<path d="M146.418 99.2783V99.3751C149.101 100.938 150.222 103.801 150.872 106.678C150.748 106.37 150.558 106.092 150.315 105.863C150.073 105.635 149.784 105.463 149.468 105.357C149.152 105.252 148.817 105.217 148.486 105.254C148.156 105.291 147.837 105.399 147.552 105.572C147.469 105.572 147.552 105.738 147.552 105.738C148.076 105.649 148.614 105.725 149.092 105.955C149.57 106.186 149.965 106.559 150.222 107.024C150.649 107.8 150.987 108.621 151.231 109.472C151.328 109.749 151.812 109.68 151.757 109.376C152.352 105.682 150.263 100.205 146.418 99.2783Z" fill="#263238"/>
<path d="M149.256 102.432C153.599 102.1 158.482 88.7521 158.482 88.7521L157.735 96.4703C160.015 95.2367 162.009 93.5351 163.586 91.477C164.898 89.2331 165.541 86.6606 165.439 84.0631C167.993 86.9936 171.046 89.4476 174.458 91.311C176.284 92.21 188.718 94.9903 188.898 94.0773C189.438 91.4493 187.515 81.6287 184.375 78.5165C180.834 74.8787 171.926 69.2077 162.756 70.7292C155.439 71.9602 155.024 77.3408 152.797 80.702C152.797 80.702 147.057 83.6758 146.393 85.6538C144.982 89.9555 147.665 102.556 149.256 102.432Z" fill="#263238"/>
<path d="M157.639 145.269C157.639 145.269 150.391 119.929 134.747 113.539L132.949 126.071C132.949 126.071 142.631 128.602 155.578 148.478L157.639 145.269Z" fill="#27AE60"/>
<path d="M128.521 125.144C131.527 125.681 134.384 126.85 136.904 128.574C139.451 130.231 141.8 132.176 143.903 134.37C146.032 136.544 148.019 138.855 149.85 141.286L152.492 145.02L154.968 148.866L155.258 149.294L155.715 149.198C159.145 148.429 162.519 147.426 165.812 146.196C167.469 145.61 169.086 144.917 170.653 144.121C172.236 143.351 173.737 142.424 175.135 141.355C172.088 143.024 168.863 144.346 165.522 145.297C163.862 145.809 162.188 146.251 160.501 146.68C158.813 147.109 157.126 147.496 155.438 147.814L156.185 148.146L153.723 144.191C152.852 142.918 151.953 141.645 151.04 140.387C150.127 139.128 149.103 137.952 148.08 136.79C147.056 135.629 145.991 134.481 144.829 133.443C142.579 131.29 140.064 129.431 137.346 127.91C136.668 127.523 135.963 127.191 135.258 126.859C134.552 126.527 133.874 126.264 133.072 126.029C131.616 125.482 130.077 125.182 128.521 125.144Z" fill="#263238"/>
<path d="M117.637 128.118C120.403 128.021 123.073 127.73 125.645 127.398C128.113 127.072 130.56 126.61 132.976 126.015C130.21 126.112 127.54 126.389 124.968 126.721C122.501 127.057 120.054 127.523 117.637 128.118Z" fill="#263238"/>
<path d="M151.925 140.636C150.152 145.648 148.81 150.803 147.914 156.044C147.278 159.696 146.641 173.071 150.777 173.224C154.913 173.376 149.615 163.873 149.532 156.75C149.449 149.626 152.091 144.854 152.976 140.733L151.925 140.636Z" fill="#FFFFFE"/>
<g opacity="0.1">
<path opacity="0.1" d="M151.929 140.635C150.156 145.648 148.814 150.803 147.918 156.044C147.282 159.696 146.645 173.071 150.781 173.223C154.917 173.375 149.619 163.873 149.536 156.749C149.453 149.626 152.095 144.854 152.98 140.732L151.929 140.635Z" fill="black"/>
</g>
<path d="M166.946 142.102C167.647 146.872 167.939 151.694 167.818 156.515C167.749 159.889 165.964 171.882 162.285 171.301C158.606 170.72 164.968 163.181 166.296 156.86C167.624 150.539 166.117 145.795 166.034 142.005L166.946 142.102Z" fill="#FFFFFE"/>
<g opacity="0.1">
<path opacity="0.1" d="M166.944 142.102C167.645 146.872 167.937 151.694 167.816 156.515C167.747 159.889 165.962 171.882 162.283 171.301C158.604 170.72 164.966 163.181 166.294 156.86C167.622 150.539 166.115 145.795 166.032 142.005L166.944 142.102Z" fill="black"/>
</g>
<path d="M17.328 217.001L64.8266 235.218C66.2098 235.633 67.0673 236.836 66.5971 237.984L58.298 257.197C57.9448 257.765 57.4072 258.194 56.7752 258.413C56.1432 258.632 55.4551 258.628 54.8261 258.4L7.34139 240.17C5.88905 239.768 5.10064 238.551 5.55709 237.486L13.8562 218.274C14.1931 217.687 14.7257 217.239 15.3606 217.006C15.9955 216.773 16.692 216.771 17.328 217.001V217.001Z" fill="#FFFFFE"/>
<path d="M16.3174 219.256L63.8021 237.472C65.1853 237.887 66.0567 239.091 65.5864 240.17L57.2873 259.382C56.9321 259.948 56.3936 260.374 55.7618 260.591C55.1299 260.807 54.443 260.8 53.8155 260.572L6.33078 242.355C4.94759 241.94 4.07619 240.737 4.54648 239.672L12.8456 220.459C13.1969 219.889 13.7344 219.458 14.367 219.239C14.9997 219.02 15.6887 219.026 16.3174 219.256Z" fill="#455A64"/>
<path d="M16.0118 225.785C17.0769 226.435 18.2387 226.213 18.5984 225.301C18.7354 224.755 18.6858 224.18 18.4577 223.666C18.2296 223.152 17.836 222.729 17.3397 222.465C16.2885 221.815 15.1266 222.036 14.767 222.949C14.6288 223.493 14.6763 224.067 14.9018 224.581C15.1273 225.095 15.518 225.518 16.0118 225.785V225.785Z" fill="#263238"/>
<path d="M47.2056 266.796C45.9376 266.699 44.7291 266.218 43.7408 265.418C42.7526 264.617 42.0313 263.535 41.6729 262.315C39.7928 263.404 37.5905 263.8 35.4485 263.435C31.7139 262.605 31.299 256.381 31.299 256.381C29.1123 257.098 26.7606 257.141 24.549 256.505C21.0496 255.357 19.8047 249.133 19.8047 249.133C17.4296 248.685 15.2943 247.399 13.7879 245.509C9.98411 240.294 13.6357 231.138 15.918 225.287C18.2002 219.436 30.0956 204.995 32.0874 202.021L69.7239 216.254C69.7239 216.254 66.9575 245.301 63.3474 251.858C60.2906 257.377 52.1021 267.017 47.2056 266.796Z" fill="#AD6359"/>
<path d="M41.8091 262.369C46.4566 257.334 49.3751 251.207 52.6394 245.245C52.6434 245.22 52.6394 245.194 52.6278 245.17C52.6163 245.147 52.5979 245.128 52.5751 245.116C52.5522 245.104 52.5262 245.099 52.5006 245.103C52.4749 245.106 52.451 245.117 52.432 245.135C49.2645 251.096 44.9489 256.352 41.5325 262.175C41.5068 262.212 41.4967 262.258 41.5045 262.302C41.5123 262.346 41.5373 262.385 41.574 262.411C41.6106 262.436 41.656 262.446 41.7001 262.439C41.7442 262.431 41.7834 262.406 41.8091 262.369V262.369Z" fill="#263238"/>
<path d="M31.4473 256.532C32.3893 255.282 33.1657 253.915 33.7572 252.466C34.4903 250.972 35.1404 249.478 35.8458 247.957C37.2014 244.932 38.4739 241.87 39.6634 238.772C39.6634 238.634 39.5113 238.509 39.4559 238.662C38.0728 241.677 36.6896 244.678 35.3064 247.638C34.5733 249.118 33.8264 250.585 33.0656 252.065C32.2577 253.402 31.6035 254.827 31.1153 256.311C31.1141 256.351 31.1231 256.39 31.1414 256.426C31.1597 256.461 31.1867 256.492 31.2199 256.514C31.2531 256.536 31.2915 256.549 31.3312 256.552C31.371 256.556 31.411 256.549 31.4473 256.532V256.532Z" fill="#263238"/>
<path d="M19.8725 249.063C20.7133 247.926 21.3542 246.654 21.7675 245.301C22.3484 243.918 22.9432 242.535 23.5518 241.152C24.7413 238.385 25.9447 235.619 27.2449 232.852C27.2449 232.714 27.1066 232.603 27.0374 232.742C25.6543 235.508 24.3402 238.275 23.0262 241.041C22.3899 242.424 21.7537 243.807 21.1312 245.19C20.4419 246.388 19.9734 247.7 19.748 249.063C19.7558 249.072 19.7654 249.079 19.7762 249.084C19.7869 249.089 19.7985 249.091 19.8103 249.091C19.8221 249.091 19.8337 249.089 19.8444 249.084C19.8552 249.079 19.8648 249.072 19.8725 249.063Z" fill="#263238"/>
<path d="M105.784 72.4334C104.725 72.4334 103.762 71.3963 103.762 70.2588C103.762 69.2551 104.5 68.4857 105.463 68.5191C106.714 68.5191 107.677 69.389 107.677 70.4595C107.677 71.4966 106.811 72.4334 105.784 72.4334Z" fill="#FFFFFE"/>
<path d="M184.09 46.0047C183.031 46.0047 182.068 44.9676 182.068 43.8301C182.068 42.8264 182.806 42.057 183.769 42.0904C185.021 42.0904 185.984 42.9602 185.984 44.0308C185.984 45.0679 185.117 46.0047 184.09 46.0047Z" fill="#FFFFFE"/>
<path d="M216.391 72.4334C215.332 72.4334 214.369 71.3963 214.369 70.2588C214.369 69.2551 215.107 68.4857 216.07 68.5191C217.322 68.5191 218.284 69.389 218.284 70.4595C218.284 71.4966 217.418 72.4334 216.391 72.4334Z" fill="#FFFFFE"/>
</g>
<path d="M269.661 78.7786C269.621 78.1444 269.582 77.5102 269.502 76.876C269.304 75.568 268.749 74.4581 267.719 73.6257C266.648 72.7537 265.618 71.842 264.231 71.5646C264.032 71.5249 263.794 71.406 263.676 71.2475C263.517 71.0096 263.279 70.6925 263.319 70.4547C263.358 70.2169 263.676 69.8998 263.953 69.8601C267.6 69.1863 269.304 66.6495 270.295 63.3992C270.533 62.6064 270.652 61.7344 270.81 60.902C270.929 60.6245 270.89 60.3471 271.009 60.1092C271.127 59.9111 271.365 59.6732 271.524 59.7129C271.682 59.7129 271.881 59.9903 272 60.1885C272.079 60.3471 272.039 60.5453 272.039 60.7434C272 61.5758 271.96 62.3686 271.92 63.201C271.881 64.1127 271.801 65.0243 271.801 65.936C271.762 67.4422 272.713 68.3539 273.902 68.9485C274.655 69.3052 275.488 69.5034 276.399 69.3845C276.954 69.3052 277.509 69.4638 278.104 69.543C278.302 69.5827 278.5 69.6223 278.619 69.7412C278.778 69.9394 278.976 70.2169 278.976 70.4151C278.976 70.7718 278.619 70.8114 278.302 70.7718C277.787 70.7322 277.311 70.6925 276.796 70.6133C275.844 70.4943 274.972 70.7322 274.1 71.0493C273.704 71.2078 273.308 71.5249 273.109 71.8817C272.673 72.5555 272.237 73.2294 272.039 73.9825C271.563 75.7265 271.246 77.5102 270.85 79.2543C270.771 79.611 270.771 79.9678 270.612 80.2849C270.533 80.4831 270.255 80.7209 270.097 80.7209C269.938 80.7209 269.661 80.4434 269.661 80.2452C269.621 79.7696 269.661 79.2543 269.661 78.7786Z" fill="#F5CF48"/>
<path d="M54.9633 82.5487C54.055 82.6307 53.1467 82.6716 52.259 82.7945C50.9378 82.9994 49.9262 83.6959 49.3069 84.884C48.894 85.6829 48.5224 86.5023 48.2127 87.3627C47.387 89.5955 46.8915 91.9308 46.2722 94.2046C46.1896 94.5119 46.169 94.8601 46.1071 95.1674C46.0864 95.2903 46.0658 95.4337 46.0038 95.5361C45.8593 95.8434 45.591 96.0073 45.2813 95.9663C44.9716 95.9253 44.7239 95.6795 44.7033 95.3313C44.6826 95.1469 44.6826 94.9421 44.7239 94.7372C44.8478 93.9588 44.8065 93.2009 44.7239 92.4429C44.5588 90.9475 44.3317 89.4521 43.8569 88.0182C43.2582 86.3179 42.3499 84.8225 40.9254 83.6549C40.2029 83.0608 39.4597 82.4873 38.7165 81.8932C37.5811 80.9919 36.2805 80.3978 34.9387 79.8652C34.7322 79.7833 34.4845 79.7628 34.2368 79.6808C34.0716 79.6399 33.8858 79.5989 33.7207 79.517C33.3697 79.3531 33.2252 79.0048 33.3078 78.6566C33.3904 78.3288 33.7 78.124 34.0716 78.165C34.34 78.1854 34.629 78.2469 34.8974 78.3288C36.425 78.8 37.994 78.6976 39.5629 78.5542C40.141 78.5132 40.719 78.4517 41.2764 78.3288C42.5769 78.0216 43.5885 77.3046 44.1872 76.096C44.662 75.1537 44.9923 74.1704 45.2194 73.1257C45.591 71.5074 46.1071 69.9096 46.3135 68.2503C46.4167 67.4104 46.5406 66.5705 46.6438 65.7102C46.6851 65.4848 46.7057 65.2595 46.7677 65.0342C46.8915 64.8088 47.0773 64.6245 47.3457 64.604C47.6141 64.5835 47.8618 64.7269 47.9444 65.0137C48.0476 65.3209 48.1302 65.6487 48.1508 65.9765C48.254 67.4923 48.3573 69.0082 48.4605 70.5446C48.5637 71.9376 48.6256 73.3305 48.7701 74.703C48.894 75.8297 49.2862 76.8949 49.9262 77.8577C50.5042 78.7385 51.3093 79.2916 52.259 79.6808C52.8783 79.9267 53.477 80.193 54.0963 80.3978C54.4266 80.5207 54.7982 80.5617 55.1491 80.6436C55.8304 80.8075 56.5323 80.9509 57.2135 81.1353C57.5232 81.2172 57.7296 81.4425 57.7503 81.7703C57.7916 82.0776 57.6058 82.3848 57.2755 82.5078C57.0484 82.5897 56.8006 82.6511 56.5529 82.6511C56.0162 82.6716 55.4588 82.6511 54.922 82.6511C54.9633 82.6102 54.9633 82.5692 54.9633 82.5487Z" fill="#F5CF48"/>
<path d="M283.821 224.418C282.199 230.782 278.72 236.524 273.825 240.917C268.929 245.311 262.836 248.158 256.317 249.1C249.798 250.042 243.144 249.036 237.199 246.209C231.253 243.382 226.282 238.861 222.914 233.218C219.545 227.575 217.932 221.063 218.276 214.506C218.621 207.949 220.908 201.641 224.849 196.379C228.79 191.118 234.208 187.139 240.417 184.947C246.626 182.754 253.349 182.446 259.734 184.062C268.295 186.232 275.641 191.702 280.158 199.27C284.675 206.837 285.993 215.883 283.821 224.418V224.418Z" fill="#27AE60"/>
<path d="M263.833 198.245C264.423 198.484 260.642 209.599 255.378 223.083C254.596 225.039 253.783 226.915 253.129 228.759L252.73 229.761L251.725 229.38C240.925 225.229 233.029 221.811 233.22 221.318C233.412 220.825 241.611 223.401 252.491 227.328L251.087 227.964C251.789 226.12 252.522 224.228 253.272 222.272C258.521 208.772 263.258 198.07 263.833 198.245Z" fill="white"/>
</svg>
