<svg width="257" height="235" viewBox="0 0 257 235" fill="none" xmlns="http://www.w3.org/2000/svg">
<circle cx="133.5" cy="117.5" r="117.5" fill="#F2F2F2"/>
<mask id="mask0_431_1892" style="mask-type:alpha" maskUnits="userSpaceOnUse" x="16" y="0" width="235" height="235">
<circle cx="133.5" cy="117.5" r="117.5" fill="#F2F2F2"/>
</mask>
<g mask="url(#mask0_431_1892)">
<path d="M121.602 261.164L121.602 261.165C126.001 278.471 129.315 291.75 129.879 294.703M121.602 261.164L129.388 294.798M121.602 261.164C121.265 259.851 120.923 258.514 120.575 257.157C119.491 252.918 118.353 248.474 117.174 243.905C114.004 231.528 110.58 218.293 107.358 205.836C106.34 201.901 105.342 198.043 104.378 194.315L104.378 194.313C101.337 182.704 98.6524 172.39 96.7277 164.979C95.7653 161.273 94.993 158.293 94.4612 156.239C94.1954 155.212 93.9897 154.417 93.8504 153.878L93.8 153.683M121.602 261.164L93.8 153.683M129.879 294.703C129.879 294.703 129.879 294.703 129.879 294.704L129.388 294.798M129.879 294.703C129.879 294.701 129.878 294.7 129.878 294.698L129.388 294.798M129.879 294.703C129.896 294.789 129.899 294.898 129.901 294.988C129.902 295.094 129.901 295.229 129.896 295.389C129.888 295.708 129.869 296.145 129.84 296.687C129.781 297.773 129.683 299.297 129.55 301.195C129.284 304.991 128.879 310.292 128.381 316.588C127.385 329.181 126.015 345.762 124.63 362.273C123.246 378.784 121.848 395.225 120.795 407.539C120.269 413.695 119.83 418.82 119.521 422.406C119.367 424.199 119.246 425.607 119.164 426.567L119.084 427.495M129.388 294.798C129.822 296.943 119.339 418.705 118.582 427.495H119.084M119.084 427.495H174.161C174.177 427.288 174.199 427.013 174.225 426.674C174.291 425.836 174.388 424.605 174.51 423.03C174.753 419.881 175.099 415.361 175.505 409.873C176.319 398.898 177.379 384.055 178.362 368.585C179.346 353.114 180.253 337.02 180.763 323.539C181.273 310.041 181.382 299.21 180.779 294.237L180.779 294.237C180.037 288.077 175.877 272.241 170.462 253.253C165.054 234.288 158.411 212.234 152.725 193.674L152.725 193.674C149.253 182.278 146.124 172.193 143.864 164.957C142.733 161.339 141.82 158.433 141.19 156.432C140.874 155.431 140.63 154.657 140.464 154.133L140.321 153.683H93.8M119.084 427.495L119.069 427.662L119.045 427.943L119.04 427.995H174.622L93.8 153.683" fill="#FFFFFE" stroke="black"/>
<path d="M139.947 286.734C138.11 278.621 135.361 270.678 132.965 262.724C128.1 246.555 123.211 230.398 118.297 214.254C115.864 206.145 113.399 198.069 110.902 190.025C109.685 185.963 108.396 181.876 107.119 177.862C105.842 173.848 104.455 169.883 103.324 165.869C102.862 164.239 102.619 165.14 103.202 167.207C104.419 171.391 105.55 175.575 106.778 179.747C109.211 188.018 111.644 196.277 114.076 204.523C118.941 220.96 123.847 237.376 128.793 253.772C131.226 262.01 133.699 270.236 136.213 278.451C137.465 282.367 138.476 286.355 139.242 290.395C139.906 294.618 140.073 298.904 139.74 303.166C139.205 311.741 138.208 320.304 137.417 328.866C136.626 337.429 135.824 346.028 134.984 354.603C133.363 371.632 131.798 388.7 130.29 405.81C130.095 407.975 129.9 410.14 129.73 412.305C129.73 413.035 130.192 413.12 130.265 412.427C132.114 395.544 134.121 378.467 135.702 361.561C137.283 344.654 138.852 327.918 140.421 311.096C140.823 306.876 141.273 302.643 141.273 298.398C141.264 294.473 140.82 290.561 139.947 286.734Z" fill="#263238"/>
<path d="M135.313 153.122C132.017 178.665 125.728 226.514 121.143 261.227C110.415 219.155 93.168 153.122 93.168 153.122H135.313Z" fill="#263238"/>
<path d="M132.363 193.73L132.361 193.735C131.971 195.146 131.549 196.523 131.094 197.857C126.369 199.773 121.828 202.115 117.529 204.856L117.306 204.998L117.297 205.262L117.797 205.277C117.297 205.262 117.297 205.262 117.297 205.262L117.297 205.263L117.297 205.265L117.297 205.275L117.296 205.315L117.291 205.472L117.272 206.086C117.256 206.625 117.232 207.418 117.201 208.433C117.14 210.463 117.053 213.382 116.949 216.941C116.741 224.058 116.464 233.731 116.191 243.955C115.583 266.763 114.974 292.214 115.084 297.629L115.084 297.631C115.327 307.712 114.698 340.497 114.007 370.781C113.662 385.919 113.302 400.426 113.028 411.148C112.891 416.51 112.775 420.925 112.694 423.999C112.654 425.537 112.621 426.739 112.6 427.557L112.579 428.324L57.5369 428.539L57.6064 427.688C57.6807 426.778 57.7896 425.443 57.9282 423.741C58.2055 420.336 58.6014 415.465 59.0764 409.596C60.0262 397.859 61.292 382.132 62.5555 366.173C63.8189 350.215 65.0801 334.025 66.021 321.362C66.9603 308.719 67.5836 299.552 67.5651 297.675C67.4559 285.814 70.276 233.257 72.4296 194.967C73.0985 183.163 73.7066 172.709 74.1475 165.207C74.368 161.455 74.5466 158.442 74.6701 156.366C74.7319 155.328 74.7799 154.524 74.8124 153.981L74.8339 153.622H138.616C138.608 153.758 138.598 153.919 138.587 154.104C138.547 154.759 138.484 155.715 138.392 156.919C138.209 159.328 137.91 162.727 137.449 166.687C136.526 174.612 134.954 184.767 132.363 193.73Z" fill="#FFFFFE" stroke="black"/>
<path d="M79.0938 161.247C78.0721 192.531 76.9774 223.814 75.5787 255.073C74.1799 286.332 66.8091 398.743 64.9238 416.197C64.9238 416.306 65.0819 416.355 65.0941 416.197C69.1809 385.169 71.4554 339.241 73.4623 308.019C75.4692 276.796 76.8315 245.525 77.9018 214.254C78.4978 196.569 78.96 178.884 79.483 161.199C79.4952 161.004 79.1059 161.004 79.0938 161.247Z" fill="#263238"/>
<path d="M133.816 196.873C128.243 199.207 122.884 202.019 117.797 205.278C117.756 205.3 117.724 205.337 117.71 205.382C117.696 205.426 117.699 205.475 117.719 205.517C117.74 205.559 117.775 205.592 117.819 205.609C117.863 205.625 117.912 205.624 117.955 205.606C123.367 202.979 128.902 200.449 134.144 197.53C134.187 197.508 134.226 197.478 134.257 197.442C134.289 197.405 134.313 197.363 134.328 197.317C134.343 197.272 134.349 197.223 134.346 197.175C134.343 197.127 134.33 197.08 134.308 197.037C134.287 196.994 134.257 196.955 134.22 196.924C134.184 196.892 134.142 196.868 134.096 196.853C134.05 196.838 134.002 196.832 133.954 196.835C133.906 196.838 133.859 196.851 133.816 196.873Z" fill="#263238"/>
<path d="M134.096 177.582C133.731 179.577 133.244 181.547 132.879 183.53C132.514 185.512 132.174 187.288 131.663 189.125C131.257 190.904 130.349 192.529 129.048 193.808C128.33 194.489 127.515 195.085 126.749 195.705C126.323 196.046 125.873 196.362 125.435 196.702C125.498 196.438 125.547 196.17 125.581 195.9C125.715 195.146 125.849 194.391 125.971 193.637C126.25 191.959 126.53 190.28 126.786 188.59C127.284 185.281 127.746 181.949 128.44 178.677C128.443 178.651 128.436 178.626 128.422 178.604C128.408 178.583 128.387 178.567 128.362 178.56C128.337 178.553 128.311 178.554 128.287 178.564C128.264 178.575 128.244 178.593 128.233 178.616C127.418 181.863 126.506 185.075 125.8 188.346C125.448 189.952 124.195 197.87 124.134 198.43C124.073 198.989 124.025 199.585 124.012 200.169C123.933 200.758 123.933 201.355 124.012 201.945C124.012 202.091 124.219 202.066 124.28 201.945C124.523 201.393 124.695 200.813 124.791 200.218C124.937 199.658 125.058 199.086 125.168 198.503C125.168 198.296 125.168 198.089 125.253 197.882C126.044 197.408 126.761 196.775 127.491 196.252C128.221 195.729 129.084 195.121 129.826 194.501C131.199 193.335 132.19 191.784 132.673 190.049C133.152 188.184 133.461 186.278 133.597 184.357C133.852 182.107 134.035 179.844 134.351 177.606C134.363 177.509 134.156 177.448 134.096 177.582Z" fill="#263238"/>
<path d="M108.42 92.3191C117.348 104.482 145.213 124.88 156.866 124.43C165.295 124.113 191.482 97.16 198.524 88.3296C205.311 79.8155 177.652 63.5413 173.505 68.4308C166.815 76.3368 155.941 94.0949 152.754 94.9585C150.529 95.5666 136.553 91.1636 115.353 82.9535C102.399 77.9545 103.081 85.0942 108.42 92.3191Z" fill="#EB9481"/>
<path d="M209.859 76.4342C206.551 82.3333 195.044 91.7597 191.395 92.9638C187.747 94.168 171.083 75.145 171.837 71.2771C172.591 67.4093 185.29 48.3984 191.7 45.8077C198.11 43.2169 213.301 70.3162 209.859 76.4342Z" fill="#EB9481"/>
<path d="M173.432 67.6648C174.145 62.2407 174.059 56.7412 173.176 51.342C171.96 44.9443 169.284 35.5301 172.702 34.7638C179.708 33.0974 186.227 56.4262 186.227 56.4262C186.227 56.4262 187.443 67.1905 180.656 69.4528C179.404 69.8508 178.067 69.8944 176.792 69.5788C175.516 69.2632 174.353 68.6008 173.432 67.6648Z" fill="#EB9481"/>
<path d="M182.651 51.7674C182.76 55.4163 186.92 53.1662 186.92 53.1662C186.92 53.1662 181.69 57.7638 183.271 61.4127C184.852 65.0616 189.706 62.106 190.058 61.8992C189.778 62.1547 185.096 66.4969 187.03 69.9998C188.964 73.5028 193.5 69.9998 193.792 69.7323C193.598 70.0363 191.202 74.2204 193.281 76.5557C196.845 80.5574 203.267 70.0363 207.524 69.1849C207.524 69.1849 209.787 76.2395 209.884 76.4827C209.884 76.4827 216.197 66.5942 214.749 60.914C214.55 60.0848 214.074 59.3483 213.399 58.8263C212.725 58.3044 211.892 58.0283 211.04 58.0436C211.04 58.0436 213.472 55.0879 211.988 52.2783C211.246 50.8309 208.339 50.7336 208.339 50.7336C208.845 50.0362 209.147 49.2127 209.214 48.3541C209.28 47.4955 209.108 46.6352 208.716 45.8683C207.573 43.9344 204.776 44.1412 204.776 44.1412C204.776 44.1412 205.432 40.9788 203.62 39.3733C199.91 36.1014 182.408 44.0925 182.651 51.7674Z" fill="#EB9481"/>
<path d="M208.291 50.612C208.364 50.612 208.291 50.4782 208.291 50.4904C200.97 51.9421 194.409 55.9626 189.791 61.8264C189.633 62.0332 189.706 62.3859 189.901 62.1548C193.197 58.3234 202.465 52.7527 208.291 50.612Z" fill="#263238"/>
<path d="M193.598 70.2675C198.159 64.5752 204.095 60.9141 210.723 58.0314C210.809 58.0314 210.723 57.8855 210.723 57.8855C207.075 58.4207 203.049 60.6952 200.069 62.7507C197.253 64.5861 194.967 67.1275 193.44 70.1215C193.33 70.2188 193.501 70.3891 193.598 70.2675Z" fill="#263238"/>
<path d="M186.799 53.1542C186.628 53.3366 187.091 53.3853 186.92 53.5799C186.203 54.3948 182.31 59.6614 183.697 61.5588C184.804 63.0671 187.601 62.617 188.562 62.021L191.092 60.525L189.231 62.8116C188.402 63.8222 187.74 64.9598 187.273 66.1808C187.023 66.7331 186.894 67.3323 186.894 67.9384C186.894 68.5444 187.023 69.1436 187.273 69.6959C187.504 70.2113 187.907 70.6303 188.413 70.8811C188.919 71.1318 189.496 71.1988 190.046 71.0703C191.271 70.7661 192.4 70.1597 193.33 69.3067L195.97 67.02L194.23 70.0243C193.741 70.8589 193.365 71.7546 193.111 72.688C192.844 73.5642 192.844 74.5 193.111 75.3761C193.242 75.7664 193.478 76.1128 193.794 76.3769C194.109 76.641 194.492 76.8124 194.899 76.8721C195.833 76.8661 196.745 76.5916 197.526 76.0815C199.243 74.9978 200.87 73.7775 202.392 72.4326C203.194 71.788 203.985 71.1433 204.824 70.5352C205.619 69.8786 206.543 69.3978 207.537 69.1243C206.594 69.5021 205.731 70.0551 204.995 70.7541C204.228 71.4231 203.486 72.1164 202.744 72.8218C201.28 74.2762 199.684 75.5914 197.976 76.7505C197.063 77.395 195.98 77.7585 194.863 77.7965C194.252 77.7485 193.668 77.5224 193.184 77.1463C192.699 76.7702 192.336 76.2605 192.138 75.6802C191.798 74.5953 191.798 73.4323 192.138 72.3475C192.41 71.3047 192.819 70.3026 193.355 69.3675L194.242 70.0851C193.166 71.1205 191.836 71.8546 190.387 72.2137C189.564 72.3995 188.702 72.2874 187.954 71.8974C187.244 71.5034 186.668 70.9062 186.3 70.1824C185.984 69.4828 185.821 68.7241 185.821 67.9566C185.821 67.1891 185.984 66.4304 186.3 65.7308C186.831 64.4006 187.579 63.1677 188.514 62.0819L189.195 62.8725C187.881 63.5901 184.816 64.4293 182.797 62.3008C180.547 59.1871 185.777 54.0299 186.799 53.1542Z" fill="#263238"/>
<path d="M186.92 53.1662C186.214 53.3747 185.48 53.4772 184.743 53.4702C184.448 53.4701 184.158 53.3925 183.902 53.2452C183.646 53.098 183.432 52.8862 183.284 52.631C183.043 52.0202 182.984 51.3528 183.113 50.7092C183.217 49.9596 183.363 49.2164 183.551 48.4834C183.006 49.0711 182.592 49.7675 182.335 50.5268C181.995 51.3485 181.995 52.2715 182.335 53.0932C182.568 53.519 182.93 53.8598 183.369 54.0662C183.793 54.2506 184.261 54.3137 184.719 54.2487C185.552 54.1407 186.326 53.76 186.92 53.1662Z" fill="#263238"/>
<path d="M145.772 93.0002L139.155 122.009C139.155 122.009 122.431 108.557 111.643 97.5127C100.854 86.4687 98.3605 76.9328 113.613 81.567C128.865 86.2011 145.772 93.0002 145.772 93.0002Z" fill="#27AE60"/>
<path opacity="0.1" d="M126.542 85.8242L121.445 106.866L122.406 107.73L127.612 86.2013L126.542 85.8242ZM131.942 87.746L126.274 111.136L127.235 111.975L133 88.1109L131.942 87.746ZM137.318 89.7407L131.115 115.283L132.076 116.098L138.376 90.0934L137.318 89.7407ZM142.682 91.7841L135.992 119.419L136.953 120.221L143.74 92.2463L142.682 91.7841Z" fill="#030402"/>
<path d="M139.702 92.5625C139.058 94.6059 138.644 96.7345 138.182 98.8265C137.72 100.919 137.294 102.938 136.868 104.993C136.005 109.153 135.129 113.301 134.594 117.521C134.594 117.643 134.728 117.667 134.764 117.521C135.98 113.434 136.747 109.275 137.598 105.103C138.012 103.047 138.425 100.992 138.814 98.9238C139.204 96.8561 139.666 94.7032 139.873 92.5625C139.873 92.54 139.864 92.5183 139.848 92.5023C139.832 92.4864 139.81 92.4774 139.787 92.4774C139.765 92.4774 139.743 92.4864 139.727 92.5023C139.711 92.5183 139.702 92.54 139.702 92.5625Z" fill="#263238"/>
<path opacity="0.1" d="M142.111 109.031L139.156 121.997C139.156 121.997 122.431 108.557 111.643 97.5127C103.056 88.7188 99.723 80.8858 106.413 80.3871L142.111 109.031Z" fill="black"/>
<path d="M68.5498 186.911C68.7444 187.106 150.906 181.486 151.587 180.586C152.548 179.37 126.555 95.8463 120.036 83.586C117.251 78.3559 103.969 77.6018 98.7263 82.54C85.578 94.9098 76.4193 134.841 74.4975 146.87C71.3108 166.623 67.8078 186.181 68.5498 186.911Z" fill="#27AE60"/>
<path opacity="0.1" d="M120.133 83.7564L96.0749 85.4592C96.4154 85.0457 96.7439 84.6443 97.0844 84.2429L119.404 82.6617C119.649 82.9407 119.861 83.2468 120.036 83.574C120.063 83.6374 120.096 83.6985 120.133 83.7564ZM122.104 88.1959L92.8152 90.2637C92.5719 90.6529 92.3408 91.0543 92.1219 91.48L122.53 89.3271C122.396 88.9136 122.25 88.5487 122.104 88.1959ZM124.257 93.7423L89.6285 96.1749L89.0811 97.3912L124.67 94.8735C124.536 94.4842 124.366 94.1072 124.257 93.7423ZM126.288 99.313L87.0134 102.086L86.5391 103.302L126.677 100.456C126.556 100.043 126.422 99.6779 126.288 99.313ZM128.246 104.884L84.7511 107.961C84.6051 108.35 84.4713 108.739 84.3375 109.177L128.635 106.039C128.502 105.613 128.38 105.249 128.246 104.884ZM130.156 110.454L82.7199 113.811C82.5861 114.188 82.4644 114.578 82.3428 115.028L130.508 111.61C130.448 111.196 130.29 110.819 130.156 110.454ZM132.029 116.001L80.9441 119.65C80.8224 120.039 80.7129 120.416 80.6035 120.805L132.418 117.156C132.284 116.767 132.163 116.402 132.029 116.001ZM133.878 121.571L79.2899 125.439C79.1804 125.828 79.0709 126.218 78.9736 126.656L134.255 122.751C134.097 122.35 134.011 121.985 133.878 121.608V121.571ZM135.702 127.154L77.7817 131.29C77.6843 131.679 77.5992 132.068 77.5019 132.506L136.067 128.358L135.702 127.154ZM137.514 132.737L76.4194 137.055C76.3343 137.444 76.2491 137.833 76.1761 138.21L137.867 133.844C137.746 133.515 137.624 133.138 137.514 132.774V132.737ZM139.302 138.32L75.2152 142.857C75.1301 143.258 75.0571 143.635 74.9963 144L139.643 139.427C139.521 139.11 139.412 138.721 139.302 138.356V138.32ZM141.054 143.915L74.1571 148.646L73.9746 149.777L141.358 145.01C141.285 144.681 141.175 144.316 141.054 143.976V143.915ZM142.805 149.498L73.2813 154.46L73.0989 155.591L143.158 150.629C143.036 150.248 142.919 149.883 142.805 149.534V149.498ZM144.52 155.081L72.3083 160.189C72.3083 160.566 72.1867 160.955 72.1137 161.332L144.861 156.187C144.751 155.859 144.63 155.494 144.52 155.117V155.081ZM146.211 160.676L71.3474 165.967L71.165 167.11L146.576 161.77C146.442 161.442 146.333 161.077 146.26 160.712L146.211 160.676ZM147.877 166.258L70.4108 171.744L70.2284 172.887L148.206 167.365L147.877 166.258ZM149.495 171.853L69.4986 177.521C69.4986 177.911 69.3891 178.288 69.3283 178.653L149.811 172.96C149.702 172.644 149.604 172.279 149.495 171.951V171.853ZM151.003 177.461L68.6959 183.287C68.6959 183.7 68.6107 184.077 68.5742 184.418L151.283 178.567C151.21 178.276 151.125 177.911 151.003 177.497V177.461Z" fill="#FFFFFE"/>
<path d="M96.5605 103.935C98.3242 119.151 110.682 165.638 123.027 169.786C133.974 173.435 162.557 167.511 175.572 165.078C180.315 164.191 174.355 124.198 169.709 126.4C164.114 129.039 133.986 134.014 132.527 133.284C131.067 132.554 120.473 115.806 107.605 95.5788C95.4658 76.4342 95.4658 94.399 96.5605 103.935Z" fill="#EB9481"/>
<path d="M217.792 106.044L213.126 150.523C213.089 151.792 212.265 152.807 211.241 152.653L193.034 149.976C192.473 149.803 191.988 149.443 191.66 148.955C191.332 148.468 191.182 147.883 191.233 147.298L195.899 102.819C195.937 101.55 196.76 100.536 197.772 100.693L215.98 103.369C216.544 103.538 217.032 103.896 217.363 104.384C217.693 104.871 217.845 105.458 217.792 106.044Z" fill="#455A64"/>
<path d="M212.178 107.272C211.868 108.324 212.32 109.261 213.177 109.359C213.672 109.351 214.149 109.178 214.534 108.867C214.919 108.556 215.188 108.126 215.299 107.644C215.612 106.603 215.16 105.667 214.303 105.569C213.809 105.575 213.332 105.746 212.947 106.055C212.562 106.363 212.291 106.792 212.178 107.272Z" fill="#263238"/>
<path d="M165.148 129.125C165.148 129.125 177.713 121.547 186.166 116.962C190.873 114.419 199.351 110.771 203.669 110.479C210.127 110.053 237.421 112.388 236.996 118.993C236.619 124.989 213.424 120.014 213.424 120.014C213.424 120.014 237.263 122.97 235.475 130.11C233.687 137.249 208.291 128.164 208.291 128.164C208.291 128.164 232.617 131.813 229.661 138.843C227.387 144.195 203.863 137.237 203.863 137.237C203.863 137.237 224.845 140.461 222.74 146.056C220.417 152.247 198.305 147.187 198.305 147.187C190.569 160.566 181.812 164.324 174.66 165.188C173.018 165.383 165.148 129.125 165.148 129.125Z" fill="#EB9481"/>
<path d="M206.356 118.689C224.09 119.516 232.531 125.366 232.276 125.257C226.194 122.654 216.306 120.732 213.52 120.233C210.735 119.735 209.117 119.285 206.332 118.786C206.271 118.774 206.296 118.677 206.356 118.689Z" fill="#263238"/>
<path d="M203.267 128.529C210.457 128.537 217.587 129.831 224.321 132.348C224.564 132.457 224.455 132.542 224.187 132.482C220.66 131.752 206.794 129.161 203.255 128.602C203.194 128.602 203.218 128.529 203.267 128.529Z" fill="#263238"/>
<path d="M200.032 136.812C205.603 136.945 211.101 138.112 216.246 140.254C216.501 140.351 216.331 140.473 216.051 140.412C210.687 139.196 206.479 138.15 200.02 137.006C199.911 136.982 199.911 136.812 200.032 136.812Z" fill="#263238"/>
<path d="M125.059 121.474L101.95 140.181C101.95 140.181 97.0843 119.272 95.4788 103.923C93.8733 88.573 97.7776 79.5236 106.888 92.6111C115.998 105.699 125.059 121.474 125.059 121.474Z" fill="#27AE60"/>
<path opacity="0.1" d="M114.147 103.582L97.3867 117.448L97.6057 118.737L114.756 104.543L114.147 103.582ZM117.212 108.447L98.5422 123.894C98.6152 124.32 98.7003 124.746 98.7855 125.111L117.808 109.372L117.212 108.447ZM120.229 113.313L99.795 130.219C99.868 130.645 99.9531 131.059 100.038 131.436L120.813 114.249L120.229 113.313ZM123.185 118.239L101.109 136.483C101.206 136.933 101.291 137.347 101.376 137.7L123.756 119.175L123.185 118.239Z" fill="#FFFFFE"/>
<path d="M121.19 117.557C119.39 118.701 117.699 120.063 116.009 121.377C114.318 122.69 112.688 123.943 111.046 125.257C107.701 127.896 104.356 130.499 101.243 133.394C101.225 133.408 101.214 133.429 101.211 133.452C101.209 133.475 101.216 133.498 101.23 133.515C101.245 133.533 101.266 133.544 101.289 133.547C101.312 133.549 101.334 133.542 101.352 133.528C104.867 131.095 108.176 128.48 111.496 125.828C113.118 124.523 114.74 123.205 116.361 121.875C118.015 120.525 119.718 119.187 121.227 117.691C121.235 117.681 121.241 117.668 121.244 117.655C121.247 117.642 121.246 117.628 121.243 117.615C121.239 117.602 121.233 117.59 121.223 117.58C121.214 117.57 121.203 117.562 121.19 117.557Z" fill="#263238"/>
<path d="M104.77 137.894C103.882 138.733 102.958 139.536 102.046 140.327L101.802 140.534L101.717 140.217C101.085 137.918 100.501 135.607 99.9415 133.284C99.382 130.961 98.8833 128.638 98.482 126.291C98.0806 123.943 97.6305 121.596 97.2657 119.236C96.9008 116.876 96.6575 114.505 96.4629 112.121C96.9859 114.456 97.4359 116.791 97.8981 119.127L99.2847 126.12L102.058 140.12L101.729 140.01C102.776 139.305 103.761 138.563 104.77 137.894Z" fill="#263238"/>
<path d="M95.6855 116.451C96.1721 117.436 96.5978 118.409 97.0235 119.382C97.4492 120.355 97.8627 121.328 98.2398 122.386C97.5032 121.576 96.9034 120.652 96.464 119.65C96.2498 119.149 96.075 118.633 95.941 118.105C95.7809 117.568 95.695 117.011 95.6855 116.451Z" fill="#263238"/>
<path d="M112.615 101.198C113.832 102.755 115.048 104.373 116.143 106.003C117.237 107.632 118.356 109.299 119.414 110.977C120.473 112.656 121.494 114.359 122.467 116.098C123.446 117.834 124.331 119.62 125.119 121.45L124.486 121.924L125.022 121.352V121.438C123.988 119.735 122.93 118.068 121.847 116.402L118.672 111.379C117.639 109.7 116.58 108.01 115.583 106.295C114.586 104.58 113.552 102.95 112.615 101.198Z" fill="#263238"/>
<path d="M115.766 103.716C116.372 104.43 116.831 105.257 117.116 106.149C117.423 107.022 117.539 107.951 117.456 108.873C117.262 108.447 117.128 108.022 116.97 107.596L116.532 106.38C116.264 105.455 115.972 104.628 115.766 103.716Z" fill="#263238"/>
<path d="M117.444 94.5936C113.332 95.5909 105.281 88.8404 102.459 83.7563C102.264 83.4036 102.775 79.706 103.176 75.2421C103.42 72.4933 103.614 69.4404 103.59 66.6307C103.59 66.059 105.548 67.1051 105.548 67.1051L109.197 67.9443L121.226 70.7661C120.253 74.2837 119.71 77.9064 119.609 81.5548C119.62 81.939 119.665 82.3215 119.742 82.6981C119.742 82.6981 119.742 82.8197 119.742 82.8927C120.132 85.0212 121.421 93.6083 117.444 94.5936Z" fill="#EB9481"/>
<path d="M119.731 82.6496C119.731 82.6496 119.731 82.7712 119.731 82.8442C119.135 82.9325 118.533 82.9691 117.931 82.9536C106.084 82.7834 104.479 67.7377 104.479 67.7377L109.161 67.8958L121.191 70.7176C120.217 74.2352 119.674 77.8579 119.573 81.5062C119.593 81.8912 119.645 82.2737 119.731 82.6496Z" fill="#263238"/>
<path d="M100.501 47.8877C98.9684 54.2368 103.347 72.0192 108.018 75.7654C114.78 81.1901 125.326 81.1171 129.802 73.1017C134.144 65.3295 128.026 42.244 122.869 38.8992C115.255 34.0096 102.751 38.5586 100.501 47.8877Z" fill="#EB9481"/>
<path d="M117.663 59.3574C117.663 59.3574 117.578 59.4304 117.59 59.4791C117.918 60.6954 118.089 62.0941 117.104 62.7509C117.104 62.7509 117.104 62.8239 117.104 62.8117C118.405 62.3131 118.162 60.4278 117.663 59.3574Z" fill="#263238"/>
<path d="M116.289 58.3601C114.319 58.6763 115.073 62.5806 116.921 62.2887C118.77 61.9968 117.931 58.0925 116.289 58.3601Z" fill="#263238"/>
<path d="M124.924 57.6179C124.924 57.6179 125.021 57.6179 125.033 57.7152C125.24 58.9315 125.678 60.2938 126.846 60.4762V60.537C125.483 60.6222 124.924 58.8342 124.924 57.6179Z" fill="#263238"/>
<path d="M125.752 56.1461C127.662 55.611 128.598 59.4788 126.822 59.9775C125.046 60.4762 124.146 56.5962 125.752 56.1461Z" fill="#263238"/>
<path d="M114.392 56.8762C114.872 56.624 115.339 56.348 115.791 56.0491C116.306 55.8099 116.731 55.414 117.007 54.918C117.066 54.7421 117.065 54.552 117.006 54.3763C116.947 54.2007 116.832 54.0493 116.679 53.9449C116.339 53.7896 115.964 53.7269 115.593 53.7632C115.221 53.7995 114.866 53.9335 114.562 54.1517C113.884 54.4956 113.359 55.0815 113.091 55.7937C113.028 55.9677 113.02 56.1569 113.069 56.3354C113.117 56.514 113.219 56.6733 113.362 56.7916C113.504 56.9099 113.679 56.9815 113.863 56.9966C114.048 57.0118 114.232 56.9697 114.392 56.8762Z" fill="#263238"/>
<path d="M126.87 53.8719C126.326 53.8742 125.782 53.8458 125.24 53.7868C124.659 53.8312 124.078 53.6861 123.586 53.3732C123.451 53.2439 123.363 53.0738 123.334 52.8891C123.306 52.7045 123.339 52.5156 123.428 52.3515C123.658 52.0579 123.961 51.8301 124.307 51.6913C124.653 51.5524 125.029 51.5075 125.398 51.5609C126.162 51.56 126.898 51.8416 127.466 52.3515C127.585 52.4756 127.665 52.631 127.699 52.7994C127.732 52.9678 127.716 53.1422 127.654 53.302C127.591 53.4618 127.484 53.6004 127.345 53.7013C127.206 53.8023 127.041 53.8615 126.87 53.8719Z" fill="#263238"/>
<path d="M118.673 70.3041C119 70.6202 119.434 70.8024 119.889 70.815C120.328 70.7117 120.741 70.5215 121.105 70.2555C121.105 70.2555 121.19 70.2555 121.105 70.2555C120.98 70.5263 120.783 70.7583 120.537 70.9273C120.291 71.0964 120.004 71.1962 119.707 71.2164C119.439 71.2118 119.179 71.1255 118.961 70.969C118.744 70.8125 118.579 70.5932 118.49 70.3406C118.527 70.3163 118.612 70.2676 118.673 70.3041Z" fill="#263238"/>
<path d="M123.149 67.1294C122.77 67.8932 122.2 68.5466 121.495 69.0268C121.101 69.2803 120.637 69.4037 120.169 69.3796C119.16 69.3796 118.953 68.443 118.953 67.6403C118.976 67.2284 119.046 66.8204 119.16 66.424C120.381 67.0768 121.778 67.3239 123.149 67.1294Z" fill="#263238"/>
<path d="M121.53 69.0271C121.136 69.2805 120.673 69.4039 120.205 69.3798C119.195 69.3798 118.988 68.4432 118.988 67.6405C119.506 67.5519 120.039 67.6406 120.5 67.8922C120.961 68.1438 121.324 68.5437 121.53 69.0271Z" fill="#FF98B9"/>
<path d="M102.192 63.4321C102.192 63.4321 95.8306 53.3976 96.2806 47.5107C96.4874 44.847 100.039 43.0225 100.039 43.0225C99.7377 41.9441 99.7443 40.8029 100.058 39.7281C100.372 38.6533 100.981 37.6878 101.815 36.941C104.892 33.9246 112.506 34.4233 112.506 34.4233C112.506 34.4233 117.286 27.1984 124.316 29.8743C131.347 32.5501 126.98 40.5534 126.98 40.5534C126.98 40.5534 129.607 44.1294 123.416 47.1093C117.225 50.0893 104.892 47.535 104.892 47.535C105.555 51.8053 105.58 56.1504 104.965 60.4279C104.823 61.1349 104.489 61.7892 104 62.3192C103.511 62.8491 102.885 63.2341 102.192 63.4321Z" fill="#263238"/>
<path d="M113.734 34.5082C112.167 33.9001 110.488 33.6307 108.808 33.7176C107.307 33.7191 105.817 33.9826 104.405 34.496C103.131 34.8831 101.988 35.6113 101.098 36.6018C100.208 37.5923 99.6064 38.8074 99.3576 40.1154C99.2691 40.7923 99.3171 41.4801 99.4988 42.1382C99.6806 42.7962 99.9924 43.4112 100.416 43.9467C100.416 43.9467 100.513 43.9467 100.416 43.9467C98.7616 41.9885 99.5401 38.8626 101.17 37.1597C103.171 35.3438 105.766 34.319 108.468 34.2771C110.198 34.2162 111.93 34.3632 113.625 34.715C113.638 34.7221 113.653 34.7266 113.669 34.728C113.684 34.7295 113.699 34.7279 113.714 34.7234C113.729 34.7189 113.742 34.7115 113.754 34.7017C113.766 34.6919 113.776 34.6799 113.783 34.6663C113.79 34.6527 113.795 34.6379 113.796 34.6226C113.798 34.6073 113.796 34.5919 113.791 34.5772C113.787 34.5625 113.78 34.5488 113.77 34.537C113.76 34.5252 113.748 34.5154 113.734 34.5082Z" fill="#263238"/>
<path d="M129.402 33.0973C129.057 32.181 128.493 31.3629 127.759 30.7142C127.026 30.0655 126.145 29.6059 125.193 29.3754C123.011 28.768 120.688 28.9005 118.589 29.7525C116.484 30.6284 114.65 32.0471 113.273 33.8636C113.273 33.8636 113.273 33.9609 113.346 33.8636C114.584 32.2595 116.232 31.0188 118.115 30.2718C119.999 29.5248 122.049 29.2992 124.05 29.6187C124.974 29.6814 125.867 29.9754 126.647 30.4735C127.427 30.9717 128.07 31.6581 128.516 32.4696C128.962 33.2811 129.196 34.1916 129.198 35.1175C129.2 36.0433 128.969 36.9547 128.526 37.7679C127.52 39.6772 125.999 41.2659 124.135 42.3534C124.135 42.3534 124.135 42.4385 124.135 42.3534C125.907 41.4461 127.418 40.1024 128.526 38.449C129.039 37.6685 129.383 36.7885 129.534 35.8664C129.685 34.9444 129.64 34.0008 129.402 33.0973Z" fill="#263238"/>
<path d="M124.962 47.3644C122.207 48.5517 119.228 49.1324 116.229 49.0673C113.11 49.0525 110.001 48.6935 106.961 47.9969C105.197 47.6077 103.433 47.1577 101.694 46.6711C101.694 46.6711 101.609 46.7441 101.694 46.7563C104.756 47.9968 107.94 48.91 111.193 49.4808C114.223 49.9843 117.322 49.8893 120.316 49.2011C121.953 48.8093 123.535 48.2126 125.023 47.4253C125.023 47.4253 124.998 47.3523 124.962 47.3644Z" fill="#263238"/>
<path d="M116.958 66.1321C115.967 66.2194 114.971 66.0268 114.084 65.5763C113.197 65.1258 112.454 64.4354 111.94 63.5837C111.426 62.7319 111.162 61.753 111.176 60.7583C111.191 59.7635 111.485 58.7929 112.024 57.9569C112.563 57.1208 113.326 56.4528 114.226 56.0288C115.126 55.6049 116.127 55.4421 117.115 55.5588C118.103 55.6756 119.038 56.0673 119.815 56.6893C120.591 57.3114 121.177 58.1388 121.507 59.0775C121.772 59.8417 121.86 60.6563 121.764 61.4596C121.668 62.2629 121.39 63.0338 120.952 63.7137C120.513 64.3936 119.926 64.9648 119.234 65.3838C118.542 65.8028 117.763 66.0587 116.958 66.1321ZM116.082 56.2435C115.7 56.2765 115.324 56.3583 114.963 56.4868C113.86 56.8757 112.946 57.6704 112.408 58.7092C111.871 59.748 111.749 60.9527 112.068 62.078C112.388 63.2032 113.124 64.1645 114.127 64.766C115.13 65.3675 116.325 65.5641 117.468 65.3156C118.611 65.0671 119.616 64.3923 120.279 63.4286C120.942 62.4649 121.213 61.2847 121.036 60.1284C120.86 58.9721 120.249 57.9266 119.328 57.2049C118.408 56.4831 117.247 56.1393 116.082 56.2435Z" fill="#27AE60"/>
<path d="M128.889 63.5292C126.87 63.7117 124.839 61.8021 124.28 59.0776C123.982 57.7847 124.101 56.4306 124.62 55.2097C124.802 54.6673 125.121 54.1813 125.547 53.7991C125.972 53.4169 126.49 53.1516 127.049 53.0291C127.607 52.9065 128.188 52.931 128.735 53.1C129.281 53.269 129.775 53.5768 130.167 53.9934C131.131 54.9088 131.782 56.1047 132.028 57.4112C132.624 60.2817 131.371 62.9698 129.242 63.4198L128.889 63.5292ZM127.479 53.7258H127.211C126.771 53.8376 126.364 54.0541 126.025 54.357C125.686 54.6598 125.425 55.04 125.265 55.4651C124.816 56.5509 124.714 57.7491 124.973 58.8951C125.496 61.3277 127.333 63.1157 129.096 62.7508C130.86 62.3859 131.845 60.0628 131.334 57.5815C131.117 56.4252 130.543 55.3661 129.692 54.5529C129.401 54.269 129.054 54.0488 128.672 53.9064C128.291 53.764 127.885 53.7025 127.479 53.7258Z" fill="#27AE60"/>
<path d="M121.458 59.6615L120.898 59.2236C121.555 58.3965 123.185 57.1194 124.742 58.2141L124.365 58.8344C122.942 57.8127 121.519 59.5885 121.458 59.6615Z" fill="#27AE60"/>
<path d="M98.5425 65.8282L97.8613 65.6458C97.9465 65.3174 98.7736 62.5077 100.294 61.9239C101.814 61.34 111.241 60.3305 111.618 60.2819L111.691 60.9873C108.966 61.2914 101.632 62.2036 100.549 62.5928C99.4669 62.9821 98.8222 65.0619 98.5425 65.8282Z" fill="#27AE60"/>
<path d="M105.22 62.3493C105.22 62.3493 100.695 56.8759 98.1774 58.5301C95.6597 60.1843 99.3937 68.37 102.58 69.2701C102.981 69.414 103.406 69.4754 103.831 69.4504C104.256 69.4255 104.671 69.3148 105.052 69.1249C105.432 68.9351 105.771 68.6702 106.046 68.346C106.322 68.0218 106.529 67.6452 106.655 67.2389L105.22 62.3493Z" fill="#EB9481"/>
<path d="M99.3102 60.8535C99.3102 60.8535 99.2494 60.9143 99.3102 60.9386C101.548 61.6441 102.85 63.5537 103.823 65.5849C103.68 65.3769 103.493 65.2026 103.276 65.0739C103.059 64.9453 102.816 64.8655 102.565 64.84C102.314 64.8145 102.06 64.8441 101.822 64.9265C101.583 65.0089 101.365 65.1423 101.183 65.3174C101.183 65.3174 101.183 65.439 101.256 65.4268C101.626 65.2746 102.034 65.2408 102.424 65.3301C102.814 65.4194 103.167 65.6274 103.434 65.9255C103.895 66.4286 104.303 66.979 104.65 67.5675C104.771 67.75 105.112 67.5675 105.027 67.4094C104.759 64.5876 102.302 60.89 99.3102 60.8535Z" fill="#263238"/>
<path d="M74.0656 54C72.9836 54 72 52.9405 72 51.7784C72 50.753 72.7541 49.9669 73.7377 50.0011C75.0164 50.0011 76 50.8897 76 51.9834C76 53.043 75.1148 54 74.0656 54Z" fill="#FFFFFE"/>
<path d="M154.066 27C152.984 27 152 25.9405 152 24.7784C152 23.753 152.754 22.9669 153.738 23.0011C155.016 23.0011 156 23.8897 156 24.9834C156 26.043 155.115 27 154.066 27Z" fill="#FFFFFE"/>
<path d="M158.066 66C156.984 66 156 64.9405 156 63.7784C156 62.753 156.754 61.9669 157.738 62.0011C159.016 62.0011 160 62.8897 160 63.9834C160 65.043 159.115 66 158.066 66Z" fill="#FFFFFE"/>
</g>
<path d="M241.484 60.4825C241.443 59.8346 241.403 59.1867 241.322 58.5388C241.119 57.2025 240.552 56.0686 239.499 55.2182C238.406 54.3273 237.353 53.3959 235.936 53.1125C235.733 53.072 235.49 52.9505 235.369 52.7885C235.207 52.5455 234.964 52.2216 235.004 51.9786C235.045 51.7356 235.369 51.4117 235.652 51.3712C239.378 50.6828 241.119 48.0911 242.132 44.7705C242.375 43.9606 242.496 43.0697 242.658 42.2193C242.78 41.9358 242.739 41.6524 242.861 41.4094C242.982 41.2069 243.225 40.964 243.387 41.0045C243.549 41.0045 243.751 41.2879 243.873 41.4904C243.954 41.6524 243.913 41.8549 243.913 42.0573C243.873 42.9077 243.832 43.7176 243.792 44.568C243.751 45.4994 243.67 46.4308 243.67 47.3622C243.63 48.901 244.602 49.8324 245.817 50.4398C246.586 50.8042 247.436 51.0067 248.368 50.8852C248.935 50.8042 249.502 50.9662 250.109 51.0472C250.312 51.0877 250.514 51.1282 250.636 51.2497C250.798 51.4522 251 51.7356 251 51.9381C251 52.3026 250.636 52.3431 250.312 52.3026C249.785 52.2621 249.299 52.2216 248.773 52.1406C247.801 52.0191 246.91 52.2621 246.019 52.586C245.614 52.748 245.209 53.072 245.007 53.4364C244.561 54.1248 244.116 54.8133 243.913 55.5827C243.427 57.3644 243.103 59.1867 242.699 60.9685C242.618 61.3329 242.618 61.6974 242.456 62.0214C242.375 62.2238 242.091 62.4668 241.929 62.4668C241.767 62.4668 241.484 62.1833 241.484 61.9809C241.443 61.4949 241.484 60.9685 241.484 60.4825Z" fill="#F5CF48"/>
<path d="M22.147 175.335C21.219 175.418 20.291 175.46 19.3841 175.586C18.0343 175.795 17.0009 176.507 16.3682 177.721C15.9464 178.537 15.5668 179.374 15.2504 180.253C14.4068 182.534 13.9006 184.92 13.2679 187.243C13.1836 187.557 13.1625 187.912 13.0992 188.226C13.0781 188.352 13.057 188.498 12.9937 188.603C12.8461 188.917 12.5719 189.084 12.2556 189.043C11.9392 189.001 11.6861 188.75 11.665 188.394C11.644 188.205 11.644 187.996 11.6861 187.787C11.8127 186.992 11.7705 186.217 11.6861 185.443C11.5174 183.915 11.2854 182.387 10.8003 180.923C10.1887 179.186 9.26074 177.658 7.8055 176.465C7.06733 175.858 6.30808 175.272 5.54882 174.665C4.38885 173.744 3.06016 173.137 1.68928 172.593C1.47837 172.51 1.22529 172.489 0.972205 172.405C0.803481 172.363 0.613668 172.321 0.444944 172.237C0.0864073 172.07 -0.0612256 171.714 0.0231361 171.358C0.107498 171.024 0.423854 170.814 0.803481 170.856C1.07766 170.877 1.37292 170.94 1.6471 171.024C3.20779 171.505 4.81066 171.4 6.41353 171.254C7.00406 171.212 7.59459 171.149 8.16404 171.024C9.49273 170.71 10.5262 169.977 11.1378 168.743C11.6229 167.78 11.9603 166.775 12.1923 165.708C12.5719 164.055 13.0992 162.422 13.3101 160.727C13.4155 159.869 13.5421 159.011 13.6475 158.132C13.6897 157.902 13.7108 157.672 13.7741 157.441C13.9006 157.211 14.0904 157.023 14.3646 157.002C14.6388 156.981 14.8919 157.128 14.9762 157.421C15.0817 157.734 15.1661 158.069 15.1871 158.404C15.2926 159.953 15.398 161.501 15.5035 163.071C15.6089 164.494 15.6722 165.917 15.8199 167.319C15.9464 168.47 16.3471 169.559 17.0009 170.542C17.5914 171.442 18.414 172.007 19.3841 172.405C20.0168 172.656 20.6285 172.928 21.2612 173.137C21.5986 173.263 21.9783 173.305 22.3368 173.388C23.0328 173.556 23.7498 173.702 24.4458 173.891C24.7622 173.974 24.9731 174.205 24.9942 174.54C25.0364 174.853 24.8465 175.167 24.5091 175.293C24.2771 175.377 24.024 175.439 23.7709 175.439C23.2226 175.46 22.6531 175.439 22.1048 175.439C22.147 175.398 22.147 175.356 22.147 175.335Z" fill="#F5CF48"/>
<path d="M255.955 209.272C254.297 215.774 250.743 221.64 245.742 226.128C240.74 230.616 234.516 233.526 227.855 234.488C221.195 235.45 214.398 234.422 208.324 231.534C202.25 228.646 197.171 224.028 193.73 218.262C190.289 212.497 188.64 205.845 188.992 199.146C189.344 192.447 191.681 186.002 195.707 180.627C199.733 175.251 205.268 171.187 211.612 168.947C217.955 166.707 224.823 166.392 231.346 168.043C240.092 170.26 247.598 175.848 252.212 183.58C256.827 191.311 258.173 200.552 255.955 209.272Z" fill="#27AE60"/>
<path d="M235.534 182.533C236.137 182.776 232.274 194.132 226.896 207.907C226.098 209.905 225.267 211.822 224.598 213.707L224.191 214.73L223.164 214.34C212.131 210.1 204.064 206.608 204.259 206.104C204.455 205.601 212.832 208.232 223.946 212.245L222.512 212.895C223.229 211.01 223.979 209.077 224.745 207.079C230.107 193.287 234.947 182.354 235.534 182.533Z" fill="white"/>
</svg>
