<svg width="106" height="98" viewBox="0 0 106 98" fill="none" xmlns="http://www.w3.org/2000/svg">
<path d="M27.1439 66.3967C19.1336 64.0095 13.0067 59.384 7.7851 53.5375C5.13387 50.5712 3.29904 47.2057 3.04038 43.2063C2.66048 37.4067 5.14196 32.7264 9.67652 29.2435C19.756 21.5108 30.6438 18.9984 42.8006 25.4398C43.221 24.798 43.6574 24.1719 44.0535 23.5301C49.9218 14.185 57.5764 6.6949 68.1893 2.52329C71.3417 1.28668 74.7851 0.347492 78.1557 0.0892121C92.3333 -1.00652 103.536 8.08806 105.468 22.0117C107.02 33.1647 105.153 43.848 100.166 53.9679C91.9614 70.6387 78.4467 81.8308 61.0036 88.7183C46.6643 94.377 31.6299 97.1633 16.1914 97.9538C11.8104 98.1807 7.57495 97.5937 3.54962 95.7153C-0.305972 93.9152 -1.21127 90.6124 1.77944 87.6617C3.87294 85.6033 6.41907 83.9832 8.70656 82.0969C14.6152 77.2131 20.4916 72.2901 26.376 67.375C26.6023 67.195 26.7316 66.9367 27.1439 66.3967ZM11.9963 88.4444C12.7481 88.7888 12.934 88.9218 13.128 88.9531C13.7099 89.0235 14.2919 89.0862 14.882 89.1018C36.5848 89.7436 56.0325 83.8814 72.7886 70.2709C80.1764 64.2756 85.7779 56.9421 89.5365 48.3719C92.9233 40.6391 94.16 32.5307 92.9152 24.1719C91.4926 14.5999 83.1671 9.45774 73.7504 12.6275C70.3556 13.7702 67.0981 15.6486 64.1963 17.7383C59.5567 21.0725 56.0972 25.5337 53.3005 30.441C51.8617 32.969 50.8756 35.364 51.894 38.4868C53.0661 42.0949 50.7462 45.5934 47.2786 46.5404C43.6979 47.5266 40.0686 45.6169 38.743 41.9618C38.3873 40.9679 38.3631 39.8643 38.0478 38.8546C37.7649 37.9311 37.4982 36.8745 36.8677 36.1858C33.4325 32.429 29.1889 30.4958 23.9188 31.5211C18.7861 32.515 16.2076 36.0919 14.6071 40.5452C13.6857 43.1045 14.1868 45.4369 15.9247 47.5501C19.0609 51.3617 22.9811 53.9758 28.033 54.6802C31.735 55.1889 35.4694 55.4706 39.1875 55.9246C43.5362 56.4568 45.2255 59.2588 43.7787 63.1956C42.2348 67.4142 39.3735 70.6935 36.0998 73.7068C29.9972 79.3185 22.8033 83.2318 15.0921 86.3625C14.0575 86.7616 13.2088 87.6069 11.9963 88.4444Z" fill="#F5CF48"/>
</svg>