<svg width="356" height="291" viewBox="0 0 356 291" fill="none" xmlns="http://www.w3.org/2000/svg">
<path d="M92.0567 31.9464L255.488 81.5218C258.703 82.4971 261.91 85.6077 264.404 90.1694C266.898 94.731 268.475 100.37 268.787 105.846L277.855 264.986C278.167 270.462 277.189 275.326 275.137 278.508C273.084 281.691 270.124 282.931 266.909 281.956L103.478 232.38C100.511 231.48 97.5499 228.609 95.2477 224.398C92.9455 220.187 91.4903 214.982 91.2022 209.927L81.9518 47.5948C81.6637 42.5401 82.5664 38.0501 84.4613 35.1125C86.3562 32.1749 89.088 31.0303 92.0558 31.9305L92.0567 31.9464Z" fill="#F5CF48"/>
<path d="M68.3762 24.3182L66.589 18.4072L68.2371 15.9244L79.1712 7.90676L83.522 6.84034L77.0417 34.1054L68.3762 24.3182Z" fill="#F5CF48"/>
<path d="M111.719 18.2706L275.15 67.8459C278.365 68.8212 281.575 71.9889 284.075 76.6521C286.575 81.3153 288.16 87.0921 288.48 92.7116L297.786 256.026C298.106 261.645 297.136 266.647 295.089 269.931C293.042 273.215 290.086 274.512 286.871 273.537L123.44 223.961C120.472 223.061 117.509 220.137 115.201 215.833C112.894 211.528 111.431 206.196 111.136 201.008L101.642 34.4184C101.347 29.2312 102.242 24.614 104.132 21.5826C106.021 18.5513 108.75 17.354 111.718 18.2543L111.719 18.2706Z" fill="white"/>
<mask id="mask0_88_567" style="mask-type:alpha" maskUnits="userSpaceOnUse" x="101" y="17" width="197" height="254">
<path d="M111.719 18.2694L275.154 67.8313C278.369 68.8063 281.578 71.9393 284.075 76.5411C286.572 81.143 288.152 86.8366 288.467 92.3696L297.644 253.168C297.959 258.701 296.985 263.62 294.935 266.843C292.885 270.066 289.927 271.329 286.711 270.354L123.276 220.792C120.309 219.892 117.347 217 115.042 212.752C112.737 208.504 111.279 203.249 110.987 198.141L101.627 34.1172C101.335 29.0098 102.235 24.4692 104.127 21.4941C106.02 18.5191 108.75 17.3533 111.718 18.2533L111.719 18.2694Z" fill="white"/>
</mask>
<g mask="url(#mask0_88_567)">
<path d="M76.4535 -174.937L101.892 287.461" stroke="#F5CF48" stroke-width="0.2"/>
<path d="M79.2992 -174.074L104.738 288.324" stroke="#F5CF48" stroke-width="0.2"/>
<path d="M82.1449 -173.211L107.583 289.187" stroke="#F5CF48" stroke-width="0.2"/>
<path d="M84.9906 -172.348L110.429 290.05" stroke="#F5CF48" stroke-width="0.2"/>
<path d="M87.8363 -171.485L113.275 290.913" stroke="#F5CF48" stroke-width="0.2"/>
<path d="M90.684 -170.622L116.123 291.776" stroke="#F5CF48" stroke-width="0.2"/>
<path d="M93.5297 -169.759L118.968 292.639" stroke="#F5CF48" stroke-width="0.2"/>
<path d="M96.3754 -168.896L121.814 293.502" stroke="#F5CF48" stroke-width="0.2"/>
<path d="M99.2211 -168.033L124.66 294.365" stroke="#F5CF48" stroke-width="0.2"/>
<path d="M102.067 -167.17L127.505 295.228" stroke="#F5CF48" stroke-width="0.2"/>
<path d="M104.912 -166.307L130.351 296.092" stroke="#F5CF48" stroke-width="0.2"/>
<path d="M107.758 -165.444L133.197 296.954" stroke="#F5CF48" stroke-width="0.2"/>
<path d="M110.606 -164.581L136.044 297.818" stroke="#F5CF48" stroke-width="0.2"/>
<path d="M113.452 -163.717L138.89 298.681" stroke="#F5CF48" stroke-width="0.2"/>
<path d="M116.297 -162.854L141.736 299.544" stroke="#F5CF48" stroke-width="0.2"/>
<path d="M119.143 -161.991L144.582 300.407" stroke="#F5CF48" stroke-width="0.2"/>
<path d="M121.989 -161.128L147.427 301.27" stroke="#F5CF48" stroke-width="0.2"/>
<path d="M124.834 -160.265L150.273 302.133" stroke="#F5CF48" stroke-width="0.2"/>
<path d="M127.682 -159.402L153.121 302.996" stroke="#F5CF48" stroke-width="0.2"/>
<path d="M130.528 -158.539L155.966 303.859" stroke="#F5CF48" stroke-width="0.2"/>
<path d="M133.373 -157.676L158.812 304.722" stroke="#F5CF48" stroke-width="0.2"/>
<path d="M136.219 -156.813L161.658 305.585" stroke="#F5CF48" stroke-width="0.2"/>
<path d="M139.065 -155.95L164.503 306.449" stroke="#F5CF48" stroke-width="0.2"/>
<path d="M141.911 -155.087L167.349 307.311" stroke="#F5CF48" stroke-width="0.2"/>
<path d="M144.756 -154.224L170.195 308.175" stroke="#F5CF48" stroke-width="0.2"/>
<path d="M147.604 -153.361L173.042 309.037" stroke="#F5CF48" stroke-width="0.2"/>
<path d="M150.45 -152.498L175.888 309.901" stroke="#F5CF48" stroke-width="0.2"/>
<path d="M153.293 -151.635L178.732 310.763" stroke="#F5CF48" stroke-width="0.2"/>
<path d="M156.143 -150.771L181.582 311.627" stroke="#F5CF48" stroke-width="0.2"/>
<path d="M158.987 -149.909L184.425 312.49" stroke="#F5CF48" stroke-width="0.2"/>
<path d="M161.832 -149.045L187.271 313.353" stroke="#F5CF48" stroke-width="0.2"/>
<path d="M164.68 -148.183L190.119 314.216" stroke="#F5CF48" stroke-width="0.2"/>
<path d="M167.526 -147.319L192.964 315.079" stroke="#F5CF48" stroke-width="0.2"/>
<path d="M170.371 -146.457L195.81 315.942" stroke="#F5CF48" stroke-width="0.2"/>
<path d="M173.215 -145.593L198.654 316.805" stroke="#F5CF48" stroke-width="0.2"/>
<path d="M176.063 -144.73L201.501 317.668" stroke="#F5CF48" stroke-width="0.2"/>
<path d="M178.909 -143.867L204.347 318.531" stroke="#F5CF48" stroke-width="0.2"/>
<path d="M181.754 -143.004L207.193 319.394" stroke="#F5CF48" stroke-width="0.2"/>
<path d="M184.6 -142.141L210.039 320.257" stroke="#F5CF48" stroke-width="0.2"/>
<path d="M187.448 -141.278L212.886 321.12" stroke="#F5CF48" stroke-width="0.2"/>
<path d="M190.291 -140.415L215.73 321.983" stroke="#F5CF48" stroke-width="0.2"/>
<path d="M193.139 -139.552L218.577 322.846" stroke="#F5CF48" stroke-width="0.2"/>
<path d="M195.985 -138.689L221.423 323.709" stroke="#F5CF48" stroke-width="0.2"/>
<path d="M198.83 -137.826L224.269 324.573" stroke="#F5CF48" stroke-width="0.2"/>
<path d="M201.678 -136.963L227.117 325.435" stroke="#F5CF48" stroke-width="0.2"/>
<path d="M204.524 -136.1L229.962 326.299" stroke="#F5CF48" stroke-width="0.2"/>
<path d="M207.37 -135.237L232.808 327.161" stroke="#F5CF48" stroke-width="0.2"/>
<path d="M210.217 -134.374L235.656 328.025" stroke="#F5CF48" stroke-width="0.2"/>
<path d="M213.061 -133.511L238.499 328.887" stroke="#F5CF48" stroke-width="0.2"/>
<path d="M215.907 -132.647L241.345 329.751" stroke="#F5CF48" stroke-width="0.2"/>
<path d="M218.752 -131.784L244.191 330.614" stroke="#F5CF48" stroke-width="0.2"/>
<path d="M221.6 -130.921L247.039 331.477" stroke="#F5CF48" stroke-width="0.2"/>
<path d="M224.446 -130.058L249.884 332.34" stroke="#F5CF48" stroke-width="0.2"/>
<path d="M227.291 -129.195L252.73 333.203" stroke="#F5CF48" stroke-width="0.2"/>
<path d="M230.139 -128.332L255.577 334.066" stroke="#F5CF48" stroke-width="0.2"/>
<path d="M232.983 -127.469L258.421 334.929" stroke="#F5CF48" stroke-width="0.2"/>
<path d="M235.828 -126.606L261.267 335.792" stroke="#F5CF48" stroke-width="0.2"/>
<path d="M238.676 -125.743L264.115 336.655" stroke="#F5CF48" stroke-width="0.2"/>
<path d="M241.522 -124.88L266.96 337.518" stroke="#F5CF48" stroke-width="0.2"/>
<path d="M244.366 -124.017L269.804 338.382" stroke="#F5CF48" stroke-width="0.2"/>
<path d="M247.215 -123.154L272.654 339.244" stroke="#F5CF48" stroke-width="0.2"/>
<path d="M250.059 -122.291L275.497 340.108" stroke="#F5CF48" stroke-width="0.2"/>
<path d="M252.905 -121.428L278.343 340.97" stroke="#F5CF48" stroke-width="0.2"/>
<path d="M255.75 -120.564L281.189 341.834" stroke="#F5CF48" stroke-width="0.2"/>
<path d="M258.598 -119.702L284.037 342.697" stroke="#F5CF48" stroke-width="0.2"/>
<path d="M261.444 -118.838L286.882 343.56" stroke="#F5CF48" stroke-width="0.2"/>
<path d="M264.289 -117.976L289.728 344.423" stroke="#F5CF48" stroke-width="0.2"/>
<path d="M267.137 -117.112L292.576 345.286" stroke="#F5CF48" stroke-width="0.2"/>
<path d="M269.981 -116.25L295.419 346.149" stroke="#F5CF48" stroke-width="0.2"/>
<path d="M272.827 -115.386L298.265 347.012" stroke="#F5CF48" stroke-width="0.2"/>
<path d="M275.674 -114.523L301.113 347.875" stroke="#F5CF48" stroke-width="0.2"/>
<path d="M278.518 -113.66L303.957 348.738" stroke="#F5CF48" stroke-width="0.2"/>
<path d="M281.366 -112.797L306.804 349.601" stroke="#F5CF48" stroke-width="0.2"/>
<path d="M284.213 -111.934L309.652 350.464" stroke="#F5CF48" stroke-width="0.2"/>
<path d="M287.057 -111.071L312.495 351.327" stroke="#F5CF48" stroke-width="0.2"/>
<path d="M289.903 -110.208L315.341 352.19" stroke="#F5CF48" stroke-width="0.2"/>
<path d="M292.748 -109.345L318.187 353.053" stroke="#F5CF48" stroke-width="0.2"/>
<path d="M295.596 -108.482L321.035 353.916" stroke="#F5CF48" stroke-width="0.2"/>
<path d="M-282.927 55.5767L284.557 342.473" stroke="#F5CF48" stroke-width="0.2"/>
<path d="M-280.755 53.5439L286.729 340.44" stroke="#F5CF48" stroke-width="0.2"/>
<path d="M-278.586 51.5107L288.899 338.407" stroke="#F5CF48" stroke-width="0.2"/>
<path d="M-276.414 49.4775L291.071 336.374" stroke="#F5CF48" stroke-width="0.2"/>
<path d="M-274.244 47.4443L293.241 334.34" stroke="#F5CF48" stroke-width="0.2"/>
<path d="M-272.074 45.4111L295.411 332.307" stroke="#F5CF48" stroke-width="0.2"/>
<path d="M-269.904 43.3779L297.581 330.274" stroke="#F5CF48" stroke-width="0.2"/>
<path d="M-267.732 41.3447L299.753 328.241" stroke="#F5CF48" stroke-width="0.2"/>
<path d="M-265.562 39.3115L301.923 326.208" stroke="#F5CF48" stroke-width="0.2"/>
<path d="M-263.392 37.2783L304.093 324.174" stroke="#F5CF48" stroke-width="0.2"/>
<path d="M-261.222 35.2451L306.262 322.141" stroke="#F5CF48" stroke-width="0.2"/>
<path d="M-259.05 33.2119L308.434 320.108" stroke="#F5CF48" stroke-width="0.2"/>
<path d="M-256.88 31.1787L310.604 318.075" stroke="#F5CF48" stroke-width="0.2"/>
<path d="M-254.711 29.1455L312.774 316.042" stroke="#F5CF48" stroke-width="0.2"/>
<path d="M-252.539 27.1123L314.946 314.008" stroke="#F5CF48" stroke-width="0.2"/>
<path d="M-250.369 25.0791L317.116 311.975" stroke="#F5CF48" stroke-width="0.2"/>
<path d="M-248.197 23.0459L319.288 309.942" stroke="#F5CF48" stroke-width="0.2"/>
<path d="M-246.027 21.0127L321.458 307.909" stroke="#F5CF48" stroke-width="0.2"/>
<path d="M-243.857 18.9795L323.628 305.876" stroke="#F5CF48" stroke-width="0.2"/>
<path d="M-241.687 16.9463L325.798 303.842" stroke="#F5CF48" stroke-width="0.2"/>
<path d="M-239.515 14.9131L327.969 301.809" stroke="#F5CF48" stroke-width="0.2"/>
<path d="M-237.347 12.8799L330.137 299.776" stroke="#F5CF48" stroke-width="0.2"/>
<path d="M-235.177 10.8467L332.307 297.743" stroke="#F5CF48" stroke-width="0.2"/>
<path d="M-233.007 8.81348L334.477 295.71" stroke="#F5CF48" stroke-width="0.2"/>
<path d="M-230.836 6.78027L336.649 293.676" stroke="#F5CF48" stroke-width="0.2"/>
<path d="M-228.666 4.74707L338.819 291.643" stroke="#F5CF48" stroke-width="0.2"/>
<path d="M-226.494 2.71387L340.991 289.61" stroke="#F5CF48" stroke-width="0.2"/>
<path d="M-224.324 0.680664L343.161 287.577" stroke="#F5CF48" stroke-width="0.2"/>
<path d="M-222.154 -1.35205L345.331 285.544" stroke="#F5CF48" stroke-width="0.2"/>
<path d="M-219.984 -3.38525L347.501 283.511" stroke="#F5CF48" stroke-width="0.2"/>
<path d="M-217.812 -5.41846L349.673 281.478" stroke="#F5CF48" stroke-width="0.2"/>
<path d="M-215.642 -7.45215L351.843 279.444" stroke="#F5CF48" stroke-width="0.2"/>
<path d="M-213.472 -9.48486L354.012 277.411" stroke="#F5CF48" stroke-width="0.2"/>
<path d="M-211.302 -11.5186L356.182 275.378" stroke="#F5CF48" stroke-width="0.2"/>
<path d="M-209.13 -13.5513L358.354 273.345" stroke="#F5CF48" stroke-width="0.2"/>
<path d="M-206.961 -15.5845L360.524 271.312" stroke="#F5CF48" stroke-width="0.2"/>
<path d="M-204.791 -17.6177L362.694 269.278" stroke="#F5CF48" stroke-width="0.2"/>
<path d="M-202.619 -19.6509L364.866 267.245" stroke="#F5CF48" stroke-width="0.2"/>
<path d="M-200.449 -21.6841L367.036 265.212" stroke="#F5CF48" stroke-width="0.2"/>
<path d="M-198.279 -23.7173L369.206 263.179" stroke="#F5CF48" stroke-width="0.2"/>
<path d="M-196.109 -25.7505L371.376 261.146" stroke="#F5CF48" stroke-width="0.2"/>
<path d="M-193.937 -27.7837L373.548 259.112" stroke="#F5CF48" stroke-width="0.2"/>
<path d="M-191.767 -29.8169L375.718 257.079" stroke="#F5CF48" stroke-width="0.2"/>
<path d="M-189.597 -31.8501L377.887 255.046" stroke="#F5CF48" stroke-width="0.2"/>
<path d="M-187.425 -33.8833L380.059 253.013" stroke="#F5CF48" stroke-width="0.2"/>
<path d="M-185.257 -35.9165L382.227 250.98" stroke="#F5CF48" stroke-width="0.2"/>
<path d="M-183.088 -37.9497L384.397 248.946" stroke="#F5CF48" stroke-width="0.2"/>
<path d="M-180.916 -39.9829L386.569 246.913" stroke="#F5CF48" stroke-width="0.2"/>
<path d="M-178.746 -42.0161L388.739 244.88" stroke="#F5CF48" stroke-width="0.2"/>
<path d="M-176.574 -44.0493L390.911 242.847" stroke="#F5CF48" stroke-width="0.2"/>
<path d="M-174.404 -46.0825L393.081 240.814" stroke="#F5CF48" stroke-width="0.2"/>
<path d="M-172.234 -48.1157L395.251 238.78" stroke="#F5CF48" stroke-width="0.2"/>
<path d="M-170.064 -50.1489L397.421 236.747" stroke="#F5CF48" stroke-width="0.2"/>
<path d="M-167.892 -52.1821L399.593 234.714" stroke="#F5CF48" stroke-width="0.2"/>
<path d="M-165.722 -54.2153L401.762 232.681" stroke="#F5CF48" stroke-width="0.2"/>
<path d="M-163.552 -56.2485L403.932 230.648" stroke="#F5CF48" stroke-width="0.2"/>
<path d="M-161.382 -58.2817L406.102 228.614" stroke="#F5CF48" stroke-width="0.2"/>
<path d="M-159.211 -60.3149L408.274 226.581" stroke="#F5CF48" stroke-width="0.2"/>
<path d="M-157.041 -62.3481L410.444 224.548" stroke="#F5CF48" stroke-width="0.2"/>
<path d="M-154.869 -64.3809L412.616 222.515" stroke="#F5CF48" stroke-width="0.2"/>
<path d="M-152.699 -66.4141L414.786 220.482" stroke="#F5CF48" stroke-width="0.2"/>
<path d="M-150.529 -68.4473L416.956 218.449" stroke="#F5CF48" stroke-width="0.2"/>
<path d="M-148.359 -70.4805L419.126 216.416" stroke="#F5CF48" stroke-width="0.2"/>
<path d="M-146.189 -72.5137L421.296 214.382" stroke="#F5CF48" stroke-width="0.2"/>
<path d="M-144.017 -74.5469L423.468 212.349" stroke="#F5CF48" stroke-width="0.2"/>
<path d="M-141.847 -76.5801L425.637 210.316" stroke="#F5CF48" stroke-width="0.2"/>
<path d="M-139.675 -78.6133L427.809 208.283" stroke="#F5CF48" stroke-width="0.2"/>
<path d="M-137.505 -80.6465L429.979 206.25" stroke="#F5CF48" stroke-width="0.2"/>
<path d="M-135.338 -82.6797L432.147 204.216" stroke="#F5CF48" stroke-width="0.2"/>
<path d="M-133.168 -84.7129L434.317 202.183" stroke="#F5CF48" stroke-width="0.2"/>
<path d="M-130.996 -86.7461L436.489 200.15" stroke="#F5CF48" stroke-width="0.2"/>
<path d="M-128.826 -88.7793L438.659 198.117" stroke="#F5CF48" stroke-width="0.2"/>
<path d="M-126.656 -90.8125L440.829 196.084" stroke="#F5CF48" stroke-width="0.2"/>
<path d="M-124.486 -92.8457L442.999 194.05" stroke="#F5CF48" stroke-width="0.2"/>
<path d="M-122.314 -94.8789L445.171 192.017" stroke="#F5CF48" stroke-width="0.2"/>
<path d="M-120.144 -96.9121L447.341 189.984" stroke="#F5CF48" stroke-width="0.2"/>
<path d="M-117.972 -98.9453L449.512 187.951" stroke="#F5CF48" stroke-width="0.2"/>
<path d="M-115.802 -100.979L451.682 185.918" stroke="#F5CF48" stroke-width="0.2"/>
<path d="M-113.632 -103.012L453.852 183.884" stroke="#F5CF48" stroke-width="0.2"/>
<path d="M-111.461 -105.045L456.024 181.851" stroke="#F5CF48" stroke-width="0.2"/>
<path d="M-109.291 -107.078L458.194 179.818" stroke="#F5CF48" stroke-width="0.2"/>
<path d="M-107.121 -109.111L460.364 177.785" stroke="#F5CF48" stroke-width="0.2"/>
<path d="M-104.949 -111.145L462.536 175.752" stroke="#F5CF48" stroke-width="0.2"/>
<path d="M-102.779 -113.178L464.706 173.718" stroke="#F5CF48" stroke-width="0.2"/>
<path d="M-100.609 -115.211L466.876 171.685" stroke="#F5CF48" stroke-width="0.2"/>
<path d="M-98.4391 -117.244L469.046 169.652" stroke="#F5CF48" stroke-width="0.2"/>
<path d="M-96.2673 -119.277L471.217 167.619" stroke="#F5CF48" stroke-width="0.2"/>
<path d="M-94.0973 -121.311L473.387 165.586" stroke="#F5CF48" stroke-width="0.2"/>
<path d="M-91.9274 -123.343L475.557 163.553" stroke="#F5CF48" stroke-width="0.2"/>
<path d="M-89.7555 -125.376L477.729 161.52" stroke="#F5CF48" stroke-width="0.2"/>
<path d="M-87.5856 -127.41L479.899 159.486" stroke="#F5CF48" stroke-width="0.2"/>
<path d="M-85.4157 -129.443L482.069 157.453" stroke="#F5CF48" stroke-width="0.2"/>
<path d="M-83.2477 -131.476L484.237 155.42" stroke="#F5CF48" stroke-width="0.2"/>
<path d="M-81.0758 -133.509L486.409 153.387" stroke="#F5CF48" stroke-width="0.2"/>
<path d="M-78.9059 -135.542L488.579 151.354" stroke="#F5CF48" stroke-width="0.2"/>
<path d="M-76.7341 -137.576L490.751 149.32" stroke="#F5CF48" stroke-width="0.2"/>
<path d="M-74.566 -139.609L492.919 147.287" stroke="#F5CF48" stroke-width="0.2"/>
<path d="M-72.3942 -141.642L495.091 145.254" stroke="#F5CF48" stroke-width="0.2"/>
<path d="M-70.2242 -143.675L497.26 143.221" stroke="#F5CF48" stroke-width="0.2"/>
<path d="M-68.0524 -145.708L499.432 141.188" stroke="#F5CF48" stroke-width="0.2"/>
<path d="M-65.8824 -147.742L501.602 139.154" stroke="#F5CF48" stroke-width="0.2"/>
<path d="M-63.7126 -149.775L503.772 137.121" stroke="#F5CF48" stroke-width="0.2"/>
<path d="M-61.5426 -151.808L505.942 135.088" stroke="#F5CF48" stroke-width="0.2"/>
<path d="M-59.3707 -153.841L508.114 133.055" stroke="#F5CF48" stroke-width="0.2"/>
<path d="M-57.2008 -155.875L510.284 131.022" stroke="#F5CF48" stroke-width="0.2"/>
<path d="M-55.0289 -157.908L512.456 128.988" stroke="#F5CF48" stroke-width="0.2"/>
<path d="M-52.859 -159.941L514.626 126.955" stroke="#F5CF48" stroke-width="0.2"/>
<path d="M-50.6891 -161.974L516.796 124.922" stroke="#F5CF48" stroke-width="0.2"/>
<path d="M-48.5192 -164.007L518.966 122.889" stroke="#F5CF48" stroke-width="0.2"/>
<path d="M-46.3473 -166.041L521.137 120.856" stroke="#F5CF48" stroke-width="0.2"/>
<path d="M-44.1774 -168.074L523.307 118.822" stroke="#F5CF48" stroke-width="0.2"/>
<path d="M-42.0075 -170.107L525.477 116.789" stroke="#F5CF48" stroke-width="0.2"/>
<path d="M-39.8356 -172.14L527.649 114.756" stroke="#F5CF48" stroke-width="0.2"/>
<path d="M-37.6656 -174.173L529.819 112.723" stroke="#F5CF48" stroke-width="0.2"/>
<path d="M-35.4957 -176.207L531.989 110.69" stroke="#F5CF48" stroke-width="0.2"/>
<path d="M-33.3239 -178.24L534.161 108.656" stroke="#F5CF48" stroke-width="0.2"/>
<path d="M-31.1559 -180.272L536.329 106.624" stroke="#F5CF48" stroke-width="0.2"/>
<path d="M-28.986 -182.306L538.499 104.59" stroke="#F5CF48" stroke-width="0.2"/>
<path d="M-26.816 -184.339L540.669 102.557" stroke="#F5CF48" stroke-width="0.2"/>
<path d="M-24.6461 -186.372L542.839 100.524" stroke="#F5CF48" stroke-width="0.2"/>
<path d="M-22.4742 -188.405L545.01 98.4908" stroke="#F5CF48" stroke-width="0.2"/>
<path d="M-20.3043 -190.438L547.18 96.4576" stroke="#F5CF48" stroke-width="0.2"/>
<path d="M-18.1324 -192.472L549.352 94.4244" stroke="#F5CF48" stroke-width="0.2"/>
<path d="M-15.9625 -194.505L551.522 92.3912" stroke="#F5CF48" stroke-width="0.2"/>
<path d="M-13.7926 -196.539L553.692 90.3575" stroke="#F5CF48" stroke-width="0.2"/>
<path d="M-11.6227 -198.572L555.862 88.3243" stroke="#F5CF48" stroke-width="0.2"/>
<path d="M-9.45081 -200.606L558.034 86.2901" stroke="#F5CF48" stroke-width="0.2"/>
</g>
<g opacity="0.2">
<path opacity="0.6" d="M105.3 98.3027L288.69 96.3607L289.747 114.916L106.808 124.765L105.3 98.3027Z" fill="#F5CF48"/>
</g>
<g opacity="0.2">
<path opacity="0.6" d="M206.677 47.3481L227.22 114.142L248.335 214.012L264.878 219.03L231.972 101.173L222.017 52.0013L206.677 47.3481Z" fill="#F5CF48"/>
</g>
<path d="M238.716 200.226C238.736 200.401 213.16 192.759 181.626 183.152C150.092 173.546 124.471 165.661 124.445 165.435C124.42 165.209 150.001 172.902 181.552 182.5C213.103 192.097 238.714 200.053 238.716 200.226Z" fill="white"/>
<path d="M221.979 99.4073C218.774 99.4445 215.297 97.5994 212.03 95.2707C208.764 92.9421 205.606 90.1237 202.318 87.9103C194.21 82.5085 185.779 81.0818 178.746 83.9215C178.396 84.0078 178.109 84.2571 177.927 84.634C177.804 85.1421 177.839 85.7523 178.025 86.3541L188.127 127.007C188.38 128.409 188.938 129.798 189.724 130.982C190.947 132.569 192.558 132.62 193.981 132.565C198.504 132.529 202.864 131.814 206.989 130.431C211.125 129.01 214.578 125.977 217.014 121.627C218.091 119.521 218.868 117.131 220.005 115.116C221.053 112.969 222.781 111.674 224.868 111.472L221.979 99.4073Z" fill="#FEF9E7"/>
<path d="M280.512 129.713C277.503 112.821 274.479 95.8389 269.547 79.0323C261.417 76.3473 254.028 79.274 247.959 83.8904C241.89 88.5069 236.698 94.7271 230.557 99.2L231.315 110.898C233.662 110.542 236.27 111.312 238.749 113.092C241.197 114.847 243.589 116.855 245.898 119.091C251.231 124.146 256.872 128.256 262.629 131.28C268.382 134.108 274.363 135.168 279.235 133.107C279.884 132.963 280.389 132.449 280.642 131.674C280.72 131.065 280.676 130.391 280.512 129.713V129.713Z" fill="#FEF9E7"/>
<g opacity="0.3">
<path opacity="0.3" d="M221.979 99.4073C218.774 99.4445 215.297 97.5994 212.03 95.2707C208.764 92.9421 205.606 90.1237 202.318 87.9103C194.21 82.5085 185.779 81.0818 178.746 83.9215C178.396 84.0078 178.109 84.2571 177.927 84.634C177.804 85.1421 177.839 85.7523 178.025 86.3541L188.127 127.007C188.38 128.409 188.938 129.798 189.724 130.982C190.947 132.569 192.558 132.62 193.981 132.565C198.504 132.529 202.864 131.814 206.989 130.431C211.125 129.009 214.578 125.977 217.014 121.627C218.091 119.521 218.868 117.131 220.005 115.116C221.053 112.969 222.781 111.674 224.868 111.472L221.979 99.4073Z" fill="#F5CF48"/>
</g>
<path d="M221.977 99.407L222.184 100.163C222.325 100.717 222.515 101.48 222.772 102.457L225.019 111.433L225.028 111.581L224.916 111.547C223.449 111.65 222.166 112.363 221.223 113.601C220.113 115.121 219.188 116.882 218.47 118.846C217.612 121.113 216.498 123.121 215.156 124.821C213.645 126.704 211.888 128.215 209.929 129.316C205.864 131.731 200.747 132.526 195.263 132.821C193.903 132.846 192.544 133.212 190.886 132.332C190.48 132.11 190.087 131.784 189.734 131.375C189.38 130.967 189.073 130.484 188.832 129.958C188.402 128.935 188.068 127.876 187.839 126.811C186.808 122.668 185.753 118.42 184.676 114.116C183.1 107.777 181.568 101.584 180.076 95.5984C179.339 92.6145 178.605 89.6677 177.893 86.8008C177.634 86.0201 177.544 85.2191 177.635 84.5091C177.894 83.9438 178.327 83.5885 178.857 83.5056C179.75 83.1565 180.646 82.8322 181.55 82.6688C185.03 81.8926 188.779 82.05 192.623 83.1335C196.005 84.0451 199.42 85.6764 202.74 87.9654C205.739 90.0913 208.342 92.3159 210.678 94.0216C212.66 95.5861 214.702 96.8903 216.765 97.9113C218.07 98.5498 219.38 98.9841 220.668 99.2045C221.543 99.3363 222.027 99.3372 222.01 99.3564C221.902 99.381 221.79 99.3916 221.674 99.3881C221.352 99.3936 221.024 99.3755 220.693 99.3338C219.401 99.1674 218.079 98.7662 216.76 98.1408C214.675 97.1545 212.61 95.8712 210.603 94.3152C208.247 92.579 205.636 90.3764 202.656 88.2561C195.634 83.4995 188.318 81.7078 181.852 83.1617C180.951 83.3747 180.052 83.6371 179.157 83.9738C178.71 84.1422 178.262 84.2981 178.132 84.7452C178.075 85.3375 178.164 85.9965 178.386 86.6341C179.104 89.5112 179.838 92.4497 180.588 95.4498C182.07 101.42 183.611 107.616 185.197 113.958C186.265 118.271 187.316 122.502 188.351 126.65C188.558 127.654 188.871 128.655 189.278 129.619C189.479 130.061 189.737 130.467 190.033 130.811C190.33 131.154 190.659 131.427 191 131.613C192.405 132.367 193.768 132.088 195.165 132.061C200.631 131.786 205.71 130.955 209.736 128.65C211.67 127.588 213.411 126.129 214.916 124.311C216.248 122.638 217.363 120.673 218.238 118.46C218.974 116.492 219.924 114.738 221.065 113.237C222.05 111.97 223.388 111.256 224.914 111.182L224.832 111.352C223.928 107.514 223.219 104.526 222.736 102.471L222.192 100.141C222.03 99.7029 221.977 99.407 221.977 99.407Z" fill="#F5CF48"/>
<g opacity="0.3">
<path opacity="0.3" d="M280.512 129.713C277.503 112.821 274.479 95.8389 269.547 79.0323C261.417 76.3473 254.028 79.274 247.959 83.8904C241.89 88.5069 236.698 94.7271 230.557 99.2L231.315 110.898C233.662 110.542 236.27 111.312 238.749 113.092C241.197 114.847 243.589 116.855 245.898 119.091C251.231 124.146 256.872 128.256 262.629 131.28C268.382 134.108 274.363 135.168 279.235 133.107C279.884 132.963 280.389 132.449 280.642 131.674C280.72 131.065 280.676 130.391 280.512 129.713V129.713Z" fill="#F5CF48"/>
</g>
<path d="M280.509 129.713C280.635 130.18 280.708 130.65 280.725 131.104C280.743 131.677 280.595 132.171 280.311 132.486C279.922 132.882 279.461 133.154 278.949 133.289C275.758 134.524 272.175 134.642 268.461 133.634C263.728 132.502 257.909 129.327 251.732 124.352C250.185 123.072 248.614 121.74 247.018 120.356C245.412 118.945 243.798 117.409 242.126 115.966C240.435 114.461 238.668 113.214 236.871 112.256C235.013 111.249 233.135 110.876 231.428 111.176L231.121 111.241L231.095 110.796C230.884 107.083 230.594 103.128 230.328 99.0952L230.319 98.9343L230.416 98.8664C233.31 96.7529 236.122 94.1399 238.955 91.4241C243.598 86.9588 248.174 82.5948 253.332 80.1098C258.49 77.6249 264.113 76.8986 269.525 78.7106L269.674 78.7557L269.73 78.943C273.165 91.1731 275.964 103.47 278.104 115.728C278.914 120.169 279.515 123.647 279.923 126.008C280.118 127.174 280.269 128.071 280.37 128.722C280.386 128.994 280.454 129.234 280.483 129.413C280.495 129.493 280.5 129.573 280.496 129.648C280.496 129.648 280.492 129.574 280.437 129.411L280.297 128.712C280.175 128.067 280.004 127.164 279.786 126.003C279.337 123.581 278.683 120.111 277.855 115.689C275.645 103.454 272.808 91.1898 269.368 78.9911L269.564 79.2331C264.237 77.4713 258.666 78.1526 253.611 80.681C248.556 83.2093 243.947 87.4783 239.324 91.9739C236.482 94.687 233.662 97.3095 230.74 99.4269L230.827 99.198C231.057 103.22 231.337 107.172 231.576 110.893L231.244 110.512C233.027 110.212 234.983 110.604 236.919 111.65C238.756 112.632 240.561 113.911 242.289 115.456C243.98 116.917 245.585 118.462 247.182 119.871C248.779 121.28 250.327 122.625 251.869 123.871C257.193 128.381 262.838 131.559 268.446 133.204C272.129 134.24 275.694 134.188 278.89 133.052C279.395 132.911 279.849 132.637 280.233 132.244C280.505 131.957 280.655 131.505 280.654 130.973C280.62 130.556 280.572 130.135 280.509 129.713Z" fill="#F5CF48"/>
<path d="M226.292 114.202C226.292 114.202 224.098 114.011 222.794 121.763C221.491 129.516 220.094 166.9 220.094 166.9L248.297 185.123L232.737 117.301L226.292 114.202Z" fill="#FEF9E7"/>
<path d="M234.61 116.616L253.243 163.152L266.186 143.024C266.186 143.024 246.785 116.211 235.241 113.086L234.61 116.616Z" fill="#FEF9E7"/>
<g opacity="0.3">
<path opacity="0.3" d="M226.292 114.202C226.292 114.202 224.098 114.011 222.794 121.763C221.491 129.516 220.094 166.9 220.094 166.9L248.297 185.123L232.737 117.301L226.292 114.202Z" fill="#F5CF48"/>
</g>
<g opacity="0.3">
<path opacity="0.3" d="M234.61 116.615L253.243 163.152L266.186 143.024C266.186 143.024 246.785 116.21 235.241 113.085L234.61 116.615Z" fill="#F5CF48"/>
</g>
<path d="M226.293 114.202C226.428 114.227 226.565 114.269 226.702 114.327L227.93 114.882L232.755 117.136L232.83 117.158L232.835 117.257C235.719 129.539 241.577 154.896 248.505 185.064L248.627 185.612L248.229 185.358L240.364 180.272L220.046 167.165L219.85 167.106L219.836 166.846C220.499 150.594 221.198 136.711 222.045 127.057C222.217 123.19 222.922 119.608 224.129 116.477C224.472 115.65 224.95 114.97 225.541 114.473C225.7 114.358 225.877 114.276 226.066 114.231C226.193 114.209 226.266 114.219 226.267 114.231L226.078 114.283C225.905 114.35 225.745 114.449 225.601 114.576C225.041 115.095 224.588 115.782 224.264 116.603C223.128 119.773 222.477 123.363 222.338 127.219C221.574 136.898 220.941 150.8 220.305 167.061L220.118 166.676L240.456 179.802L248.321 184.887L248.054 185.183C241.146 155.02 235.388 129.657 232.641 117.369L232.73 117.493L227.926 115.124L226.693 114.494L226.293 114.202Z" fill="#F5CF48"/>
<path d="M234.607 116.616C234.607 116.616 234.603 116.541 234.594 116.38L234.692 115.693L235.143 113.033L235.139 112.958L235.232 112.987C238.009 113.622 242.746 116.567 248.141 121.767C254.579 128.057 260.682 135.128 266.337 142.852L266.516 143.101L266.39 143.294L260.455 152.511L253.437 163.407L253.227 163.72L253.035 163.236L239.745 129.812L235.932 120.143L234.926 117.551C234.8 117.259 234.694 116.957 234.609 116.653C234.609 116.653 234.755 116.964 235.009 117.564L236.069 120.148C237.005 122.463 238.341 125.701 240.013 129.857C243.365 138.17 248.026 149.738 253.42 163.11L253.03 162.991L260.072 152.042L266.017 142.84L266.041 143.261C260.42 135.567 254.369 128.497 247.99 122.171C242.603 116.949 237.993 113.97 235.247 113.246L235.317 113.195L234.788 115.77C234.729 116.032 234.688 116.263 234.642 116.432C234.635 116.496 234.623 116.557 234.607 116.616V116.616Z" fill="#F5CF48"/>
<path d="M222.87 108.19C222.875 108.277 221.639 108.23 219.648 108.247C217.657 108.263 214.932 108.385 211.995 108.795C209.058 109.205 206.492 109.874 204.66 110.45C203.697 110.822 202.705 111.118 201.686 111.335C201.898 111.136 202.138 110.988 202.401 110.895C202.88 110.639 203.594 110.333 204.488 109.984C206.841 109.117 209.288 108.503 211.811 108.144C214.327 107.772 216.912 107.65 219.548 107.779C220.565 107.832 221.382 107.897 221.963 107.988C222.257 107.989 222.563 108.057 222.87 108.19V108.19Z" fill="#F5CF48"/>
<path d="M221.647 103.904C220.612 103.71 219.569 103.438 218.521 103.09C216.012 102.396 213.519 101.896 211.053 101.591C208.174 101.252 205.604 101.215 203.721 101.203C202.733 101.257 201.724 101.223 200.7 101.101C200.935 100.991 201.19 100.934 201.458 100.93C201.965 100.853 202.702 100.784 203.612 100.732C206.006 100.58 208.451 100.647 210.934 100.934C213.417 101.229 215.939 101.794 218.477 102.626C219.407 102.908 220.239 103.246 220.782 103.472C221.072 103.56 221.364 103.706 221.647 103.904V103.904Z" fill="#F5CF48"/>
<path d="M259.776 101.972C259.782 102.083 258.303 101.622 255.929 101.17C252.848 100.572 249.826 100.405 246.909 100.671C244.001 100.972 241.223 101.727 238.623 102.925C236.639 103.867 235.496 104.652 235.434 104.536C235.661 104.277 235.915 104.061 236.192 103.89C236.904 103.352 237.652 102.885 238.433 102.49C240.999 101.131 243.789 100.298 246.735 100.01C249.692 99.7352 252.773 99.9716 255.912 100.715C257.107 101.004 258.083 101.288 258.757 101.578C259.095 101.66 259.437 101.792 259.776 101.972Z" fill="#F5CF48"/>
<path d="M258.97 112.648C258.709 112.75 258.43 112.8 258.138 112.796C257.602 112.865 256.81 112.904 255.814 112.906C253.222 112.913 250.574 112.642 247.891 112.096C245.208 111.553 242.498 110.73 239.784 109.637C238.745 109.2 237.91 108.825 237.317 108.524C237.015 108.404 236.714 108.235 236.42 108.021C237.536 108.333 238.656 108.722 239.776 109.185C242.469 110.143 245.154 110.897 247.818 111.441C250.478 111.969 253.114 112.302 255.714 112.438C256.784 112.43 257.871 112.5 258.97 112.648V112.648Z" fill="#F5CF48"/>
<path d="M236.879 109.739C236.406 107.405 235.675 105.077 234.713 102.844C233.916 100.887 233.585 99.0842 231.673 97.592C230.824 97.028 229.946 96.7122 229.11 96.6695C228.273 96.6268 227.501 96.8583 226.853 97.3459C225.559 95.4819 223.599 95.7266 222.374 96.6806C221.781 97.2061 221.334 97.9606 221.069 98.8835C220.805 99.8065 220.729 100.872 220.849 101.994C221.119 104.236 221.775 106.52 222.764 108.656C224.069 111.86 225.964 114.728 228.204 116.885C229.217 117.804 230.314 118.415 231.392 118.661C232.47 118.907 233.494 118.781 234.369 118.293C235.49 117.675 236.331 116.523 236.78 114.994C237.229 113.464 237.263 111.63 236.879 109.739V109.739Z" fill="#FEF9E7"/>
<g opacity="0.3">
<path opacity="0.3" d="M236.872 109.739C236.399 107.405 235.668 105.077 234.707 102.844C233.91 100.887 233.579 99.0842 231.667 97.592C230.817 97.028 229.94 96.7122 229.103 96.6695C228.267 96.6268 227.494 96.8583 226.846 97.3459C225.552 95.4819 223.593 95.7266 222.368 96.6806C221.775 97.2061 221.328 97.9606 221.063 98.8836C220.798 99.8065 220.723 100.872 220.843 101.994C221.112 104.236 221.769 106.52 222.758 108.656C224.062 111.86 225.958 114.728 228.197 116.885C229.211 117.804 230.308 118.415 231.386 118.661C232.464 118.907 233.488 118.781 234.363 118.293C235.484 117.675 236.325 116.523 236.774 114.994C237.223 113.464 237.257 111.63 236.872 109.739V109.739Z" fill="#F5CF48"/>
</g>
<path d="M236.877 109.739C236.957 109.981 237.014 110.228 237.046 110.471C237.156 111.157 237.216 111.835 237.226 112.496C237.249 114.606 236.691 116.424 235.654 117.618C234.617 118.812 233.169 119.304 231.575 119.003C230.071 118.69 228.534 117.711 227.204 116.217C225.748 114.604 224.469 112.685 223.447 110.578C222.296 108.356 221.424 105.967 220.881 103.549C220.564 102.169 220.498 100.805 220.689 99.5859C220.881 98.3672 221.323 97.334 221.974 96.584C222.635 95.9611 223.453 95.6249 224.357 95.6046C224.794 95.5669 225.265 95.6885 225.728 95.9583C226.19 96.2281 226.628 96.6375 227.004 97.1492L226.697 97.0561C227.496 96.3703 228.526 96.1447 229.63 96.4136C230.61 96.5326 231.633 97.1132 232.529 98.059C233.295 98.9396 233.907 100.051 234.282 101.242C234.643 102.288 235.033 103.209 235.358 104.098C235.873 105.448 236.294 106.827 236.616 108.213C236.706 108.58 236.779 108.947 236.834 109.313C236.847 109.548 236.854 109.671 236.854 109.671C236.854 109.671 236.725 109.158 236.47 108.217C236.097 106.847 235.643 105.489 235.115 104.158C234.784 103.316 234.363 102.349 233.984 101.31C233.631 100.209 233.059 99.1863 232.346 98.3806C231.515 97.532 230.575 97.0196 229.677 96.9265C228.66 96.6867 227.711 96.8932 226.97 97.5159L226.832 97.6688L226.673 97.438C226.352 97.0134 225.98 96.6759 225.589 96.4557C225.199 96.2354 224.803 96.1392 224.436 96.1756C223.612 96.201 222.868 96.5136 222.267 97.0866C221.679 97.7812 221.281 98.7298 221.11 99.8447C220.939 100.96 221 102.205 221.287 103.466C221.812 105.793 222.65 108.093 223.756 110.234C224.735 112.26 225.956 114.111 227.347 115.677C228.593 117.098 230.037 118.04 231.456 118.358C232.69 118.617 233.843 118.374 234.77 117.661C235.448 117.15 235.994 116.412 236.374 115.493C236.754 114.575 236.96 113.496 236.978 112.324C236.987 111.477 236.954 110.614 236.877 109.739V109.739Z" fill="#F5CF48"/>
<path d="M226.696 115.321C226.627 115.227 227.108 114.534 227.643 113.177C228.348 111.427 228.728 109.381 228.758 107.164C228.789 104.947 228.471 102.604 227.822 100.279C227.327 98.4876 226.864 97.4106 226.935 97.3713C227.454 98.2587 227.864 99.2307 228.139 100.23C228.901 102.624 229.284 105.066 229.258 107.367C229.233 109.672 228.793 111.77 227.972 113.495C227.669 114.254 227.236 114.875 226.696 115.321Z" fill="#F5CF48"/>
<path d="M235.439 104.536C235.552 105.452 235.547 106.339 235.424 107.158C235.237 109.192 234.775 111.059 234.057 112.678C233.346 114.318 232.374 115.67 231.187 116.672C230.726 117.132 230.177 117.44 229.567 117.579C231.196 116.217 232.566 114.424 233.623 112.266C235.273 108.523 235.266 104.386 235.439 104.536Z" fill="#F5CF48"/>
<path d="M213.885 99.1164C213.433 98.9019 212.984 98.6396 212.543 98.3323L208.902 96.0118C204.915 93.3725 200.876 91.0866 196.817 89.1718C192.755 87.2648 188.685 86.1862 184.756 85.9755C183.573 85.9282 182.41 85.9817 181.275 86.1356C180.863 86.2224 180.438 86.2683 180.003 86.2728C180.374 86.0732 180.774 85.9416 181.196 85.8807C182.313 85.6238 183.469 85.4949 184.656 85.4951C188.596 85.5681 192.705 86.5925 196.807 88.5244C200.891 90.4498 204.95 92.8077 208.941 95.5737C210.471 96.6094 211.699 97.4806 212.547 98.0905C213.003 98.3851 213.451 98.7284 213.885 99.1164V99.1164Z" fill="white"/>
<path d="M209.542 103.455C208.364 103.488 207.158 103.386 205.934 103.151C204.745 103.137 203.529 102.983 202.298 102.692C204.555 102.175 207.033 102.435 209.542 103.455Z" fill="white"/>
<path d="M208.203 110.88C208.268 111.057 207.684 111.391 206.903 111.628C206.121 111.866 205.438 111.902 205.373 111.724C205.308 111.546 205.892 111.212 206.674 110.975C207.455 110.738 208.141 110.751 208.203 110.88Z" fill="white"/>
<path d="M223.394 106.489C223.348 106.475 223.024 105.927 222.691 104.902C222.267 103.544 222.06 102.162 222.087 100.863C222.105 99.576 222.35 98.4026 222.805 97.433C223.175 96.7061 223.515 96.4325 223.562 96.4466C223.001 97.8043 222.663 99.37 222.564 101.069C222.614 102.834 222.895 104.668 223.394 106.489V106.489Z" fill="white"/>
<path d="M229.94 110.25C229.859 109.299 229.839 108.366 229.882 107.46C229.762 106.501 229.708 105.557 229.721 104.638C230.086 105.622 230.293 106.643 230.325 107.616C230.357 108.59 230.212 109.489 229.903 110.239L229.94 110.25Z" fill="white"/>
<path d="M247.85 87.7856C245.892 89.7062 243.822 91.4411 241.65 92.9823C239.581 94.7085 237.405 96.2407 235.131 97.5719C237.086 95.6462 239.156 93.9112 241.332 92.3752C243.401 90.6491 245.577 89.1169 247.85 87.7856Z" fill="white"/>
<path d="M243.885 102.916C242.695 103.828 241.3 104.327 239.784 104.384C240.328 103.832 240.985 103.473 241.716 103.328C242.363 102.971 243.102 102.831 243.885 102.916V102.916Z" fill="white"/>
<path d="M224.479 129.655C224.091 127.197 224.047 124.802 224.351 122.6C224.5 120.306 225.002 118.215 225.827 116.444C225.962 116.558 225.218 119.227 224.86 122.876C224.501 126.525 224.618 129.698 224.479 129.655Z" fill="white"/>
<path d="M243.691 133.137C242.026 129.486 240.63 125.705 239.531 121.867C240.429 123.654 241.198 125.52 241.822 127.426C242.586 129.29 243.213 131.206 243.691 133.137V133.137Z" fill="white"/>
</svg>
